<?xml version="1.0" encoding="UTF-8" standalone="no"?>
<!-- Generator: Adobe Illustrator 14.0.0, SVG Export Plug-In . SVG Version: 6.00 Build 43363)  -->

<svg
   xmlns:dc="http://purl.org/dc/elements/1.1/"
   xmlns:cc="http://creativecommons.org/ns#"
   xmlns:rdf="http://www.w3.org/1999/02/22-rdf-syntax-ns#"
   xmlns:svg="http://www.w3.org/2000/svg"
   xmlns="http://www.w3.org/2000/svg"
   xmlns:sodipodi="http://sodipodi.sourceforge.net/DTD/sodipodi-0.dtd"
   xmlns:inkscape="http://www.inkscape.org/namespaces/inkscape"
   version="1.1"
   id="svg2"
   x="0px"
   y="0px"
   width="943.08197"
   height="602.54425"
   viewBox="0 0 943.08197 602.54425"
   enable-background="new 0 0 959 593"
   xml:space="preserve"
   inkscape:version="0.48.4 r9939"
   sodipodi:docname="2016_hopefuls.svg"
   sodipodi:version="0.32"
   inkscape:output_extension="org.inkscape.output.svg.inkscape"><metadata
     id="metadata59"><rdf:RDF><cc:Work
         rdf:about=""><dc:format>image/svg+xml</dc:format><dc:type
           rdf:resource="http://purl.org/dc/dcmitype/StillImage" /></cc:Work></rdf:RDF></metadata><defs
     id="defs57"><inkscape:perspective
       sodipodi:type="inkscape:persp3d"
       inkscape:vp_x="0 : 296.5 : 1"
       inkscape:vp_y="0 : 1000 : 0"
       inkscape:vp_z="959 : 296.5 : 1"
       inkscape:persp3d-origin="479.5 : 197.66667 : 1"
       id="perspective58" /><inkscape:perspective
       id="perspective2449"
       inkscape:persp3d-origin="372.04724 : 350.78739 : 1"
       inkscape:vp_z="744.09448 : 526.18109 : 1"
       inkscape:vp_y="0 : 1000 : 0"
       inkscape:vp_x="0 : 526.18109 : 1"
       sodipodi:type="inkscape:persp3d" /></defs><sodipodi:namedview
     pagecolor="#ffffff"
     bordercolor="#666666"
     borderopacity="1"
     objecttolerance="10"
     gridtolerance="10"
     guidetolerance="10"
     inkscape:pageopacity="0"
     inkscape:pageshadow="2"
     inkscape:window-width="1855"
     inkscape:window-height="1176"
     id="namedview55"
     showgrid="false"
     inkscape:zoom="1.0916992"
     inkscape:cx="471.041"
     inkscape:cy="301.08425"
     inkscape:window-x="65"
     inkscape:window-y="24"
     inkscape:window-maximized="1"
     inkscape:current-layer="svg2"
     fit-margin-top="0"
     fit-margin-left="0"
     fit-margin-right="0"
     fit-margin-bottom="0" /><path
     id="HI"
     d="m 248.751,512.948 1.94,-3.557 2.263,-0.323 0.324,0.81 -2.102,3.07 h -2.425 z m 10.185,-3.719 6.144,2.587 2.102,-0.322 1.616,-3.881 -0.646,-3.395 -4.203,-0.485 -4.042,1.778 -0.971,3.718 z m 30.716,10.023 3.718,5.496 2.425,-0.323 1.132,-0.484 1.455,1.293 3.718,-0.162 0.97,-1.453 -2.91,-1.778 -1.94,-3.719 -2.102,-3.558 -5.82,2.91 -0.646,1.778 z m 20.207,8.892 1.293,-1.939 4.688,0.97 0.647,-0.484 6.143,0.646 -0.323,1.293 -2.586,1.455 -4.365,-0.323 -5.497,-1.618 z m 5.335,5.173 1.94,3.88 3.072,-1.132 0.323,-1.616 -1.617,-2.102 -3.718,-0.323 v 1.293 z m 6.951,-1.132 2.264,-2.909 4.688,2.425 4.364,1.132 4.365,2.749 v 1.938 l -3.557,1.778 -4.851,0.97 -2.425,-1.454 -4.848,-6.629 z m 16.652,15.519 1.616,-1.293 3.396,1.615 7.599,3.558 3.396,2.102 1.616,2.425 1.939,4.365 4.042,2.587 -0.323,1.293 -3.88,3.233 -4.203,1.455 -1.455,-0.646 -3.071,1.777 -2.425,3.232 -2.264,2.91 -1.778,-0.162 -3.557,-2.586 -0.323,-4.525 0.646,-2.426 -1.615,-5.657 -2.103,-1.778 -0.162,-2.587 2.265,-0.97 2.102,-3.072 0.484,-0.97 -1.616,-1.778 -0.326,-2.102 z"
     style="fill:#3072af;fill-opacity:1"
     inkscape:connector-curvature="0" /><path
     id="AK"
     d="m 173.741,447.313 -0.323,85.357 1.617,0.97 3.071,0.162 1.455,-1.132 h 2.586 l 0.162,2.909 6.952,6.789 0.485,2.588 3.395,-1.939 0.646,-0.162 0.323,-3.071 1.455,-1.616 1.132,-0.161 1.94,-1.455 3.071,2.102 0.647,2.91 1.94,1.131 1.131,2.426 3.88,1.777 3.395,5.982 2.748,3.88 2.263,2.748 1.455,3.718 5.012,1.778 5.173,2.102 0.97,4.365 0.485,3.07 -0.97,3.396 -1.778,2.264 -1.617,-0.809 -1.455,-3.071 -2.748,-1.455 -1.778,-1.132 -0.809,0.809 1.455,2.748 0.162,3.72 -1.131,0.483 -1.94,-1.938 -2.102,-1.293 0.485,1.615 1.293,1.778 -0.808,0.81 c 0,0 -0.808,-0.324 -1.293,-0.972 -0.485,-0.646 -2.102,-3.395 -2.102,-3.395 l -0.97,-2.265 c 0,0 -0.323,1.295 -0.97,0.972 -0.646,-0.323 -1.293,-1.455 -1.293,-1.455 l 1.778,-1.94 -1.455,-1.455 v -5.011 h -0.808 l -0.809,3.396 -1.132,0.484 -0.97,-3.719 -0.646,-3.718 -0.809,-0.485 0.323,5.658 v 1.132 l -1.455,-1.293 -3.557,-5.982 -2.102,-0.483 -0.647,-3.719 -1.616,-2.909 -1.617,-1.132 v -2.265 l 2.102,-1.293 -0.485,-0.323 -2.587,0.646 -3.395,-2.425 -2.587,-2.91 -4.85,-2.586 -4.042,-2.587 1.293,-3.233 v -1.616 l -1.778,1.616 -2.91,1.132 -3.718,-1.132 -5.658,-2.425 h -5.496 l -0.647,0.485 -6.466,-3.88 -2.102,-0.323 -2.749,-5.82 -3.556,0.323 -3.557,1.455 0.485,4.525 1.132,-2.909 0.97,0.323 -1.455,4.364 3.233,-2.748 0.646,1.616 -3.88,4.365 -1.293,-0.323 -0.485,-1.94 -1.293,-0.808 -1.293,1.131 -2.748,-1.778 -3.072,2.103 -1.778,2.102 -3.395,2.104 -4.688,-0.162 -0.485,-2.102 3.718,-0.646 v -1.294 l -2.263,-0.646 0.97,-2.425 2.263,-3.88 v -1.777 l 0.162,-0.809 4.365,-2.264 0.97,1.293 h 2.749 l -1.293,-2.586 -3.718,-0.323 -5.012,2.748 -2.425,3.396 -1.778,2.587 -1.131,2.263 -4.203,1.455 -3.072,2.587 -0.323,1.616 2.263,0.971 0.808,2.102 -2.748,3.232 -6.466,4.204 -7.76,4.203 -2.102,1.131 -5.335,1.132 -5.335,2.264 1.778,1.293 -1.455,1.455 -0.485,1.133 -2.748,-0.972 -3.233,0.162 -0.808,2.264 h -0.97 l 0.323,-2.426 -3.556,1.294 -2.91,0.971 -3.395,-1.294 -2.91,1.939 h -3.233 l -2.102,1.293 -1.617,0.81 -2.102,-0.323 -2.586,-1.132 -2.263,0.646 -0.97,0.971 -1.616,-1.132 v -1.939 l 3.071,-1.293 6.305,0.646 4.365,-1.616 2.102,-2.102 2.91,-0.646 1.778,-0.809 2.748,0.162 1.617,1.293 0.97,-0.323 2.263,-2.748 3.071,-0.971 3.395,-0.646 1.293,-0.322 0.646,0.484 h 0.809 l 1.293,-3.719 4.042,-1.455 1.94,-3.718 2.263,-4.526 1.617,-1.455 0.323,-2.587 -1.616,1.294 -3.395,0.646 -0.646,-2.425 -1.293,-0.323 -0.97,0.97 -0.162,2.91 -1.455,-0.162 -1.455,-5.819 -1.293,1.293 -1.131,-0.484 -0.324,-1.939 -4.042,0.161 -2.102,1.132 -2.586,-0.323 1.455,-1.454 0.485,-2.587 -0.646,-1.939 1.455,-0.97 1.293,-0.162 -0.646,-1.778 v -4.376 l -0.97,-0.971 -0.808,1.455 h -6.143 l -1.455,-1.293 -0.646,-3.88 -2.102,-3.558 v -0.97 l 2.102,-0.809 0.162,-2.103 1.131,-1.132 -0.808,-0.483 -1.293,0.483 -1.131,-2.748 0.97,-5.012 4.526,-3.233 2.587,-1.615 1.94,-3.719 2.748,-1.294 2.586,1.132 0.324,2.426 2.425,-0.323 3.233,-2.425 1.617,0.646 0.97,0.646 h 1.617 l 2.263,-1.293 0.808,-4.365 c 0,0 0.323,-2.909 0.97,-3.396 0.646,-0.484 0.97,-0.97 0.97,-0.97 l -1.131,-1.939 -2.587,0.809 -3.233,0.809 -1.94,-0.484 -3.557,-1.778 -5.012,-0.161 -3.557,-3.719 0.485,-3.88 0.646,-2.425 -2.102,-1.778 -1.94,-3.718 0.485,-0.81 6.79,-0.484 h 2.102 l 0.97,0.971 h 0.647 l -0.162,-1.617 3.88,-0.646 2.587,0.322 1.455,1.133 -1.455,2.102 -0.485,1.455 2.748,1.616 5.011,1.777 1.778,-0.97 -2.263,-4.365 -0.97,-3.232 0.97,-0.809 -3.395,-1.939 -0.485,-1.132 0.485,-1.616 -0.808,-3.88 -2.91,-4.688 -2.425,-4.203 2.91,-1.938 h 3.233 l 1.778,0.646 4.204,-0.162 3.718,-3.556 1.132,-3.072 3.718,-2.425 1.617,0.97 2.748,-0.646 3.718,-2.102 1.132,-0.161 0.97,0.808 4.526,-0.161 2.749,-3.07 h 1.131 l 3.557,2.425 1.94,2.102 -0.485,1.131 0.646,1.132 1.617,-1.615 3.88,0.322 0.323,3.719 1.94,1.455 7.113,0.646 6.305,4.203 1.455,-0.97 5.173,2.587 2.102,-0.646 1.94,-0.809 4.85,1.938 4.364,2.907 z m -115.103,28.937 2.102,5.335 -0.162,0.97 -2.91,-0.323 -1.778,-4.041 -1.778,-1.455 h -2.425 l -0.162,-2.587 1.778,-2.425 1.131,2.425 1.455,1.455 2.749,0.646 z m -2.587,33.464 3.718,0.809 3.718,0.971 0.808,0.97 -1.616,3.719 -3.072,-0.162 -3.395,-3.557 -0.161,-2.75 z m -20.692,-14.064 1.131,2.587 1.132,1.616 -1.132,0.81 -2.102,-3.072 v -1.939 l 0.971,-0.002 0,0 z m -13.741,73.071 3.395,-2.264 3.395,-0.971 2.587,0.323 0.485,1.616 1.94,0.485 1.94,-1.94 -0.323,-1.616 2.748,-0.646 2.91,2.586 -1.131,1.778 -4.365,1.132 -2.749,-0.484 -3.718,-1.132 -4.365,1.455 -1.617,0.323 -1.132,-0.645 z m 48.983,-4.527 1.616,1.94 2.102,-1.617 -1.455,-1.293 -2.263,0.97 z m 2.91,3.072 1.132,-2.264 2.102,0.323 -0.809,1.939 -2.425,0.002 0,0 z m 23.602,-1.94 1.455,1.778 0.97,-1.132 -0.808,-1.939 -1.617,1.293 z m 8.73,-12.448 1.131,5.818 2.91,0.81 5.011,-2.91 4.365,-2.587 -1.616,-2.425 0.485,-2.425 -2.102,1.293 -2.91,-0.809 1.617,-1.132 1.94,0.81 3.88,-1.778 0.485,-1.455 -2.425,-0.81 0.808,-1.938 -2.748,1.938 -4.688,3.558 -4.85,2.91 -1.293,1.132 z m 42.355,-19.885 2.425,-1.455 -0.97,-1.778 -1.778,0.97 0.323,2.263 z"
     inkscape:connector-curvature="0"
     style="fill:#d53034" /><path
     id="FL"
     d="m 771.06,439.145 2.267,7.318 3.729,9.742 5.335,9.377 3.719,6.305 4.85,5.496 4.042,3.718 1.616,2.91 -1.131,1.293 -0.81,1.294 2.91,7.438 2.909,2.908 2.587,5.335 3.557,5.82 4.526,8.244 1.293,7.599 0.485,11.963 0.646,1.778 -0.323,3.396 -2.425,1.293 0.323,1.939 -0.646,1.939 0.322,2.425 0.485,1.94 -2.749,3.232 -3.071,1.454 -3.88,0.162 -1.455,1.616 -2.425,0.971 -1.293,-0.485 -1.132,-0.97 -0.323,-2.91 -0.81,-3.395 -3.395,-5.174 -3.557,-2.264 -3.881,-0.322 -0.809,1.293 -3.071,-4.365 -0.646,-3.556 -2.587,-4.043 -1.778,-1.132 -1.616,2.103 -1.777,-0.323 -2.103,-5.012 -2.91,-3.879 -2.908,-5.335 -2.588,-3.072 -3.557,-3.719 2.103,-2.425 3.232,-5.496 -0.162,-1.616 -4.525,-0.971 -1.616,0.646 0.323,0.646 2.587,0.971 -1.455,4.526 -0.81,0.484 -1.777,-4.041 -1.294,-4.852 -0.322,-2.747 1.455,-4.688 v -9.538 l -3.072,-3.719 -1.293,-3.071 -5.173,-1.293 -1.94,-0.646 -1.616,-2.587 -3.396,-1.616 -1.131,-3.396 -2.749,-0.97 -2.425,-3.718 -4.203,-1.455 -2.91,-1.455 h -2.586 l -4.042,0.808 -0.161,1.94 0.809,0.97 -0.484,1.132 -3.071,-0.162 -3.719,3.558 -3.558,1.939 h -3.88 l -3.231,1.293 -0.323,-2.748 -1.617,-1.938 -2.91,-1.132 -1.615,-1.455 -8.083,-3.88 -7.599,-1.778 -4.365,0.646 -5.98,0.484 -5.981,2.103 -3.479,0.611 -0.237,-8.05 -2.587,-1.938 -1.778,-1.778 0.323,-3.071 10.186,-1.294 25.543,-2.909 6.789,-0.646 5.437,0.28 2.586,3.88 1.455,1.454 8.099,0.516 10.819,-0.646 21.513,-1.294 5.445,-0.674 4.577,0.027 0.162,2.91 3.824,0.809 0.322,-4.807 -1.616,-4.527 0.955,-0.731 5.112,0.454 5.17,0.326 z m 12.546,132.405 2.425,-0.646 1.294,-0.242 1.455,-2.345 2.344,-1.616 1.293,0.484 1.698,0.323 0.403,1.051 -3.477,1.213 -4.203,1.455 -2.344,1.212 -0.888,-0.889 z m 13.499,-5.012 1.213,1.051 2.748,-2.103 5.335,-4.202 3.718,-3.881 2.506,-6.628 0.97,-1.696 0.162,-3.396 -0.728,0.485 -0.972,2.829 -1.454,4.606 -3.232,5.254 -4.365,4.203 -3.395,1.939 -2.506,1.539 z"
     style="fill:#ff9999"
     inkscape:connector-curvature="0" /><path
     id="SC"
     d="m 776.894,406.576 -1.776,0.971 -2.587,-1.293 -0.646,-2.103 -1.293,-3.557 -2.264,-2.103 -2.587,-0.646 -1.616,-4.851 -2.748,-5.98 -4.203,-1.939 -2.102,-1.94 -1.294,-2.586 -2.103,-1.938 -2.263,-1.295 -2.264,-2.908 -3.071,-2.265 -4.526,-1.778 -0.484,-1.455 -2.425,-2.91 -0.484,-1.453 -3.396,-5.174 -3.395,0.162 -4.042,-2.427 -1.293,-1.293 -0.323,-1.778 0.81,-1.939 2.263,-0.969 -0.323,-2.103 6.145,-2.587 9.053,-4.525 7.273,-0.81 16.489,-0.483 2.264,1.938 1.616,3.231 4.365,-0.483 12.609,-1.455 2.909,0.81 12.609,7.598 10.108,8.122 -5.423,5.458 -2.586,6.143 -0.484,6.307 -1.616,0.808 -1.132,2.748 -2.425,0.647 -2.103,3.557 -2.748,2.748 -2.264,3.395 -1.616,0.81 -3.557,3.395 -2.91,0.162 0.97,3.233 -5.011,5.495 -2.1,1.288 z"
     style="fill:#d53034;fill-opacity:1"
     inkscape:connector-curvature="0" /><path
     id="GA"
     d="m 705.28,351.611 -4.851,0.81 -8.405,1.131 -8.568,0.89 v 2.184 l 0.162,2.102 0.646,3.395 3.396,7.922 2.425,9.861 1.455,6.144 1.617,4.85 1.455,6.952 2.102,6.305 2.586,3.396 0.485,3.395 1.938,0.81 0.162,2.102 -1.777,4.851 -0.485,3.232 -0.161,1.94 1.616,4.363 0.323,5.336 -0.809,2.425 0.646,0.809 1.455,0.81 0.646,3.395 2.586,3.88 1.455,1.455 7.922,0.161 10.819,-0.646 21.513,-1.293 5.445,-0.675 4.577,0.028 0.162,2.909 2.587,0.809 0.323,-4.364 -1.617,-4.526 1.132,-1.616 5.82,0.809 4.977,0.317 -0.774,-6.299 2.264,-10.022 1.455,-4.203 -0.485,-2.587 3.335,-6.244 -0.511,-1.352 -1.913,0.704 -2.587,-1.293 -0.646,-2.103 -1.294,-3.557 -2.264,-2.102 -2.587,-0.646 -1.616,-4.85 -2.925,-6.335 -4.203,-1.94 -2.102,-1.94 -1.294,-2.586 -2.103,-1.938 -2.263,-1.294 -2.264,-2.909 -3.071,-2.265 -4.526,-1.777 -0.484,-1.455 -2.425,-2.91 -0.485,-1.453 -3.396,-4.908 -3.395,0.16 -4.13,-3.043 -1.294,-1.293 -0.323,-1.779 0.809,-1.939 2.353,-1.234 -1.132,-1.239 0.078,-0.291 -5.819,0.971 -6.951,0.81 -6.792,0.483 z"
     inkscape:connector-curvature="0"
     style="fill:#d53034" /><path
     id="AL"
     d="m 641.262,460.409 -1.614,-15.196 -2.748,-18.753 0.161,-14.064 0.809,-31.037 -0.162,-16.652 0.165,-6.418 7.757,-0.371 27.807,-2.586 8.922,-0.662 -0.147,2.182 0.162,2.102 0.646,3.396 3.395,7.922 2.425,9.861 1.455,6.143 1.617,4.852 1.454,6.95 2.102,6.306 2.587,3.396 0.485,3.396 1.939,0.809 0.161,2.103 -1.777,4.85 -0.485,3.233 -0.161,1.938 1.616,4.365 0.323,5.335 -0.81,2.425 0.647,0.809 1.454,0.809 1.036,2.535 h -6.307 l -6.789,0.646 -25.543,2.91 -10.41,1.407 -0.098,3.752 1.778,1.778 2.587,1.938 0.581,7.937 -5.542,2.572 -2.749,-0.322 2.749,-1.94 v -0.97 l -3.072,-5.981 -2.263,-0.646 -1.455,4.365 -1.293,2.747 -0.647,-0.161 h -2.748 v -0.01 z"
     inkscape:connector-curvature="0"
     style="fill:#d53034" /><path
     id="NC"
     d="m 847.77,292.111 1.71,4.697 3.557,6.467 2.425,2.426 0.646,2.264 -2.425,0.16 0.809,0.646 -0.323,4.203 -2.587,1.294 -0.646,2.103 -1.293,2.908 -3.72,1.617 -2.425,-0.322 -1.455,-0.162 -1.616,-1.293 0.323,1.293 v 0.97 h 1.939 l 0.809,1.294 -1.938,6.305 h 4.202 l 0.646,1.616 2.263,-2.263 1.294,-0.485 -1.939,3.558 -3.071,4.85 h -1.293 l -1.132,-0.484 -2.748,0.646 -5.174,2.425 -6.466,5.335 -3.396,4.688 -1.939,6.467 -0.484,2.426 -4.688,0.484 -5.453,1.336 -9.945,-8.201 -12.61,-7.598 -2.909,-0.81 -12.608,1.455 -4.277,0.75 -1.616,-3.233 -2.971,-2.115 -16.489,0.484 -7.273,0.809 -9.054,4.525 -6.144,2.587 -1.616,0.323 -5.82,0.97 -6.95,0.81 -6.79,0.484 0.5,-4.055 1.777,-1.455 2.749,-0.646 0.646,-3.719 4.203,-2.748 3.88,-1.455 4.203,-3.557 4.364,-2.102 0.646,-3.071 3.881,-3.88 0.646,-0.162 c 0,0 0,1.133 0.808,1.133 0.809,0 1.94,0.322 1.94,0.322 l 2.263,-3.557 2.102,-0.646 2.265,0.324 1.615,-3.557 2.91,-2.588 0.485,-2.102 v -3.961 l 4.525,0.728 7.137,-1.293 15.819,-1.938 17.137,-2.588 19.922,-4 19.732,-4.164 11.364,-2.797 5.141,-1.175 z m 3.896,32.986 2.587,-2.505 3.152,-2.587 1.535,-0.646 0.161,-2.021 -0.646,-6.144 -1.455,-2.344 -0.646,-1.859 0.728,-0.242 2.748,5.496 0.404,4.445 -0.162,3.396 -3.396,1.535 -2.829,2.425 -1.132,1.213 -1.049,-0.162 z"
     inkscape:connector-curvature="0"
     style="fill:#d53034" /><path
     id="TN"
     d="m 712.717,314.267 -51.893,5.012 -15.76,1.778 -4.621,0.513 -3.868,-0.027 v 3.88 l -8.407,0.485 -6.951,0.646 -11.096,0.053 -0.265,5.836 -2.14,6.274 -0.995,3.017 -1.349,4.381 -0.323,2.586 -4.041,2.265 1.455,3.557 -0.971,4.365 -0.968,0.789 7.256,-0.194 24.087,-1.939 5.335,-0.161 8.083,-0.485 27.806,-2.586 10.171,-0.809 8.42,-0.971 8.406,-1.131 4.852,-0.81 -0.132,-4.511 1.778,-1.453 2.748,-0.647 0.646,-3.718 4.202,-2.748 3.881,-1.455 4.203,-3.556 4.364,-2.103 0.874,-3.525 4.333,-3.881 0.646,-0.162 c 0,0 0,1.134 0.809,1.134 0.81,0 1.94,0.321 1.94,0.321 l 2.263,-3.557 2.103,-0.646 2.264,0.323 1.616,-3.557 2.115,-2.246 0.6,-0.967 0.177,-3.934 -1.483,-0.287 -2.425,1.938 -7.922,0.162 -11.995,1.899 -9.828,0.852 z"
     inkscape:connector-curvature="0"
     style="fill:#d3d3d3" /><path
     id="RI"
     d="m 889.734,173.461 -0.483,-4.204 -0.809,-4.365 -1.697,-5.901 5.739,-1.536 1.615,1.131 3.396,4.365 2.908,4.446 -2.91,1.536 -1.294,-0.162 -1.132,1.778 -2.425,1.94 -2.908,0.972 z"
     inkscape:connector-curvature="0"
     style="fill:#d3d3d3" /><path
     id="CT"
     d="m 888.857,173.688 -0.628,-4.204 -0.809,-4.365 -1.617,-5.981 -4.15,0.905 -21.824,4.769 0.646,3.314 1.455,7.275 v 8.083 l -1.132,2.263 1.832,2.109 4.956,-3.401 3.557,-3.233 1.939,-2.102 0.809,0.646 2.748,-1.455 5.174,-1.132 7.044,-3.491 z"
     inkscape:connector-curvature="0"
     style="fill:#3072af" /><path
     id="MA"
     d="m 915.641,167.489 2.174,-0.686 0.457,-1.715 1.027,0.114 1.029,2.286 -1.258,0.458 -3.888,0.114 0.459,-0.571 z m -9.373,0.8 2.286,-2.629 h 1.602 l 1.829,1.486 -2.4,1.029 -2.172,1.029 -1.145,-0.915 z m -34.799,-21.988 17.459,-4.203 2.265,-0.646 2.102,-3.233 3.736,-1.663 2.89,4.413 -2.425,5.173 -0.324,1.455 1.94,2.586 1.132,-0.808 h 1.778 l 2.263,2.586 3.88,5.981 3.557,0.485 2.265,-0.97 1.777,-1.778 -0.809,-2.749 -2.102,-1.617 -1.455,0.809 -0.971,-1.293 0.484,-0.485 2.102,-0.162 1.778,0.808 1.94,2.425 0.97,2.91 0.323,2.425 -4.203,1.455 -3.88,1.94 -3.88,4.526 -1.939,1.455 v -0.97 l 2.425,-1.455 0.484,-1.778 -0.809,-3.072 -2.909,1.455 -0.81,1.455 0.485,2.263 -2.066,1 -2.747,-4.527 -3.395,-4.365 -2.071,-1.812 -6.533,1.876 -5.092,1.051 -21.824,4.769 -0.401,-4.944 0.646,-10.589 5.173,-0.889 6.791,-1.293 z"
     inkscape:connector-curvature="0"
     style="fill:#d3d3d3" /><path
     id="ME"
     d="m 938.879,70.969 1.939,2.102 2.264,3.718 v 1.94 l -2.102,4.688 -1.94,0.647 -3.395,3.071 -4.851,5.497 c 0,0 -0.646,0 -1.293,0 -0.646,0 -0.971,-2.102 -0.971,-2.102 l -1.778,0.162 -0.97,1.455 -2.425,1.455 -0.971,1.455 1.616,1.455 -0.483,0.646 -0.485,2.749 -1.94,-0.162 v -1.617 l -0.322,-1.293 -1.454,0.323 -1.778,-3.233 -2.102,1.293 1.293,1.455 0.323,1.132 -0.81,1.293 0.323,3.072 0.162,1.617 -1.616,2.586 -2.91,0.485 -0.323,2.91 -5.335,3.071 -1.293,0.485 -1.617,-1.455 -3.07,3.556 0.97,3.233 -1.455,1.293 -0.161,4.365 -1.124,6.259 -2.462,-1.156 -0.485,-3.072 -3.879,-1.131 -0.323,-2.749 -7.274,-23.441 -4.198,-13.64 1.42,-0.118 1.515,0.41 v -2.587 l 0.809,-5.496 2.587,-4.688 1.455,-4.042 -1.94,-2.425 v -5.98 l 0.81,-0.97 0.809,-2.749 -0.161,-1.455 -0.161,-4.85 1.777,-4.85 2.909,-8.892 2.103,-4.203 h 1.294 l 1.293,0.162 v 1.132 l 1.293,2.263 2.748,0.646 0.809,-0.808 v -0.97 l 4.042,-2.91 1.778,-1.778 1.454,0.162 5.98,2.425 1.94,0.97 9.053,29.907 h 5.981 l 0.809,1.94 0.161,4.85 2.91,2.263 h 0.809 l 0.161,-0.485 -0.484,-1.132 2.742,-0.159 z m -20.932,30.148 1.535,-1.536 1.375,1.051 0.564,2.425 -1.697,0.889 -1.777,-2.829 z m 6.709,-5.901 1.777,1.859 c 0,0 1.294,0.081 1.294,-0.242 0,-0.323 0.241,-2.021 0.241,-2.021 l 0.891,-0.808 -0.81,-1.778 -2.021,0.728 -1.372,2.262 z"
     inkscape:connector-curvature="0"
     style="fill:#d3d3d3" /><path
     id="NH"
     d="m 896.463,136.063 0.869,-1.077 1.09,-3.291 -2.543,-0.914 -0.483,-3.071 -3.881,-1.132 -0.322,-2.748 -7.275,-23.441 -4.602,-14.543 -0.896,-0.005 -0.646,1.617 -0.646,-0.485 -0.971,-0.97 -1.455,1.94 -0.048,5.032 0.312,5.667 1.939,2.748 v 4.042 l -3.718,5.063 -2.587,1.131 v 1.132 l 1.132,1.778 v 8.568 l -0.81,9.215 -0.161,4.85 0.971,1.293 -0.161,4.526 -0.485,1.778 1.455,0.886 16.39,-4.69 2.265,-0.646 1.534,-2.552 3.733,-1.701 z"
     inkscape:connector-curvature="0"
     style="fill:#d53034" /><path
     id="VT"
     d="m 860.008,147.365 -0.809,-5.658 -2.392,-9.972 -0.646,-0.323 -2.91,-1.293 0.81,-2.91 -0.81,-2.102 -2.7,-4.64 0.971,-3.88 -0.809,-5.173 -2.425,-6.466 -0.806,-4.922 26.247,-6.748 0.323,5.819 1.94,2.749 v 4.042 l -3.719,4.042 -2.586,1.131 v 1.132 l 1.132,1.778 v 8.568 l -0.81,9.215 -0.162,4.85 0.972,1.293 -0.162,4.526 -0.485,1.778 0.661,1.567 -6.951,1.374 -3.874,0.223 z"
     inkscape:connector-curvature="0"
     style="fill:#3072af" /><path
     id="NY"
     d="m 844.278,183.06 -1.132,-0.97 -2.586,-0.161 -2.265,-1.94 -1.631,-6.129 -3.458,0.091 -2.444,-2.708 -19.385,4.382 -43.002,8.73 -7.529,1.228 -0.737,-6.468 1.428,-1.125 1.293,-1.132 0.971,-1.617 1.778,-1.131 1.939,-1.778 0.484,-1.617 2.103,-2.748 1.132,-0.97 -0.162,-0.97 -1.293,-3.072 -1.778,-0.162 -1.939,-6.143 2.91,-1.778 4.364,-1.455 4.041,-1.293 3.233,-0.485 6.305,-0.161 1.939,1.293 1.617,0.162 2.102,-1.293 2.587,-1.131 5.173,-0.485 2.103,-1.778 1.777,-3.233 1.616,-1.94 h 2.102 l 1.94,-1.131 0.161,-2.263 -1.455,-2.102 -0.323,-1.455 1.132,-2.102 v -1.455 h -1.777 l -1.778,-0.808 -0.808,-1.132 -0.162,-2.586 5.818,-5.497 0.647,-0.808 1.454,-2.91 2.91,-4.526 2.748,-3.718 2.102,-2.425 2.415,-1.826 3.082,-1.246 5.496,-1.293 3.232,0.162 4.526,-1.455 7.564,-2.071 0.521,4.98 2.425,6.466 0.81,5.173 -0.971,3.88 2.586,4.527 0.81,2.102 -0.81,2.91 2.91,1.293 0.646,0.323 3.071,10.993 -0.536,5.06 -0.484,10.831 0.808,5.497 0.81,3.557 1.455,7.274 v 8.083 l -1.132,2.264 1.84,1.993 0.796,1.678 -1.939,1.778 0.323,1.293 1.293,-0.323 1.455,-1.293 2.264,-2.586 1.131,-0.647 1.617,0.647 2.264,0.162 7.922,-3.88 2.91,-2.748 1.293,-1.455 4.203,1.617 -3.396,3.556 -3.88,2.91 -7.113,5.335 -2.587,0.97 -5.819,1.94 -4.041,1.131 -1.176,-0.533 -0.244,-3.688 0.485,-2.748 -0.161,-2.102 -2.812,-1.699 -4.527,-0.97 -3.88,-1.131 -3.72,-1.786 z"
     inkscape:connector-curvature="0"
     style="fill:#3072af" /><path
     id="NJ"
     d="m 843.824,183.968 -2.103,2.425 v 3.072 l -1.938,3.072 -0.162,1.616 1.293,1.293 -0.161,2.425 -2.264,1.132 0.809,2.748 0.162,1.132 2.748,0.323 0.97,2.586 3.558,2.425 2.425,1.617 v 0.809 l -3.233,3.071 -1.616,2.263 -1.454,2.749 -2.265,1.293 -1.212,0.728 -0.242,1.212 -0.608,2.607 1.092,2.244 3.232,2.91 4.851,2.264 4.042,0.646 0.161,1.455 -0.809,0.97 0.323,2.748 h 0.809 l 2.102,-2.425 0.809,-4.85 2.748,-4.042 3.072,-6.466 1.131,-5.497 -0.646,-1.132 -0.161,-9.376 -1.617,-3.395 -1.132,0.808 -2.748,0.324 -0.484,-0.485 1.131,-0.97 2.103,-1.94 0.062,-1.094 -0.385,-3.434 0.485,-2.748 -0.162,-2.102 -2.586,-1.132 -4.526,-0.97 -3.88,-1.132 -3.724,-1.777 z"
     inkscape:connector-curvature="0"
     style="fill:#d3d3d3" /><path
     id="PA"
     d="m 837.871,220.098 1.132,-0.647 2.263,-0.612 1.455,-2.748 1.617,-2.263 3.232,-3.072 v -0.808 l -2.425,-1.617 -3.558,-2.425 -0.97,-2.587 -2.748,-0.323 -0.162,-1.131 -0.808,-2.749 2.263,-1.131 0.162,-2.425 -1.294,-1.293 0.162,-1.617 1.938,-3.072 v -3.071 l 2.346,-2.425 0.214,-1.083 -2.586,-0.162 -2.265,-1.94 -2.425,-5.335 -3.005,-0.931 -2.33,-2.141 -18.591,4.041 -43.002,8.73 -8.892,1.455 -0.495,-7.084 -5.487,5.63 -1.294,0.485 -4.202,3.009 2.911,19.137 2.48,9.729 3.572,19.262 3.27,-0.638 11.943,-1.503 37.928,-7.665 14.875,-2.823 8.301,-1.623 0.268,-0.238 2.103,-1.617 2.104,-0.679 z"
     inkscape:connector-curvature="0"
     style="fill:#d53034" /><path
     id="DE"
     d="m 838.018,224.061 0.589,-2.103 0.021,-1.205 -1.269,-0.088 -2.103,1.616 -1.455,1.455 1.455,4.203 2.264,5.658 2.102,9.7 1.617,6.305 5.011,-0.162 6.144,-1.212 -2.266,-7.355 -0.97,0.485 -3.558,-2.425 -1.777,-4.688 -1.939,-3.557 -2.264,-0.97 -2.102,-3.556 0.5,-2.101 z"
     inkscape:connector-curvature="0"
     style="fill:#d3d3d3" /><path
     id="MD"
     d="m 852.617,248.943 -6.141,1.292 -5.807,0.162 -1.844,-7.099 -2.103,-9.7 -2.264,-5.658 -1.288,-4.398 -7.506,1.623 -14.877,2.823 -37.451,7.551 1.132,5.012 0.971,5.658 0.322,-0.323 2.103,-2.425 2.264,-2.618 2.425,-0.616 1.455,-1.455 1.777,-2.587 1.294,0.646 2.909,-0.323 2.587,-2.102 2.007,-1.453 1.846,-0.485 1.646,1.13 2.909,1.455 1.939,1.778 1.212,1.536 4.123,1.697 v 2.91 l 5.496,1.293 1.146,0.542 1.411,-2.028 2.883,1.97 -1.278,2.482 -0.766,3.986 -1.778,2.586 v 2.102 l 0.646,1.778 5.063,1.355 4.312,-0.062 3.071,0.97 2.103,0.324 0.97,-2.102 -1.455,-2.102 v -1.778 l -2.425,-2.102 -2.103,-5.497 1.293,-5.335 -0.161,-2.102 -1.293,-1.293 c 0,0 1.454,-1.617 1.454,-2.264 0,-0.646 0.485,-2.102 0.485,-2.102 l 1.939,-1.293 1.939,-1.617 0.485,0.97 -1.455,1.616 -1.294,3.718 0.323,1.132 1.777,0.323 0.485,5.497 -2.103,0.97 0.323,3.557 0.484,-0.162 1.133,-1.94 1.615,1.778 -1.615,1.293 -0.324,3.395 2.587,3.395 3.88,0.485 1.617,-0.808 3.236,4.183 1.357,0.536 6.653,-2.797 2.008,-4.023 0.236,-4.86 z m -16.632,8.985 1.131,2.505 0.162,1.778 1.132,1.859 c 0,0 0.889,-0.889 0.889,-1.212 0,-0.323 -0.728,-3.072 -0.728,-3.072 l -0.729,-2.344 -1.857,0.486 z"
     style="fill:#99cfec;fill-opacity:1"
     inkscape:connector-curvature="0" /><path
     id="WV"
     d="m 772.225,235.605 1.112,4.945 1.083,6.906 3.561,-2.749 2.264,-3.071 2.538,-0.616 1.455,-1.455 1.777,-2.586 1.181,0.646 2.91,-0.323 2.586,-2.102 2.007,-1.453 1.846,-0.485 1.304,1.016 2.229,1.115 1.938,1.778 1.375,1.293 -0.144,4.671 -5.658,-3.072 -4.525,-1.778 -0.162,5.335 -0.484,2.102 -1.617,2.748 -0.646,1.617 -3.071,2.425 -0.485,2.263 -3.395,0.324 -0.323,3.071 -1.132,5.497 h -2.587 l -1.293,-0.808 -1.616,-2.749 -1.778,0.162 -0.322,4.365 -2.103,6.628 -5.012,10.831 0.809,1.293 -0.162,2.748 -2.102,1.94 -1.455,-0.323 -3.232,2.425 -2.586,-0.97 -1.778,4.688 c 0,0 -3.719,0.81 -4.365,0.972 -0.646,0.16 -2.425,-1.295 -2.425,-1.295 l -2.425,2.264 -2.587,0.646 -2.91,-0.809 -1.293,-1.294 -2.192,-3.022 -3.143,-1.988 -2.586,-2.748 -2.91,-3.718 -0.646,-2.263 -2.587,-1.455 -0.809,-1.617 -0.242,-5.254 2.183,-0.081 1.939,-0.808 0.162,-2.748 1.616,-1.455 0.162,-5.012 0.97,-3.88 1.293,-0.646 1.294,1.132 0.484,1.778 1.777,-0.97 0.485,-1.617 -1.132,-1.778 v -2.425 l 0.97,-1.293 2.264,-3.395 1.293,-1.455 2.103,0.485 2.264,-1.617 3.071,-3.395 2.264,-3.88 0.323,-5.658 0.483,-5.011 v -4.688 l -1.131,-3.071 0.97,-1.455 1.283,-1.293 3.491,19.827 4.631,-0.751 11.301,-1.551 z"
     inkscape:connector-curvature="0"
     style="fill:#d3d3d3" /><path
     id="KY"
     d="m 737.447,291.456 -2.325,2.683 -4.203,3.556 -4.299,5.902 -1.778,1.779 v 2.102 l -3.88,2.102 -5.658,3.396 -3.52,0.386 -51.868,4.897 -15.76,1.778 -4.621,0.513 -3.868,-0.027 -0.227,4.222 -8.181,0.145 -6.951,0.646 -10.431,0.205 1.912,-0.223 2.181,-1.762 2.059,-1.145 0.229,-3.201 0.914,-1.828 -1.605,-2.539 0.802,-1.905 2.264,-1.778 2.103,-0.646 2.748,1.293 3.557,1.294 1.131,-0.323 0.162,-2.264 -1.293,-2.426 0.323,-2.262 1.938,-1.455 2.587,-0.646 1.616,-0.646 -0.808,-1.779 -0.647,-1.938 1.132,-0.809 1.052,-3.314 2.99,-1.696 5.819,-0.97 3.557,-0.485 1.455,1.939 1.778,0.809 1.778,-3.232 2.91,-1.455 1.938,1.617 0.81,1.131 2.102,-0.484 -0.162,-3.395 2.91,-1.617 1.132,-0.808 1.132,1.616 h 4.688 l 0.809,-2.102 -0.322,-2.263 2.909,-3.557 4.688,-3.88 0.484,-4.526 2.748,-0.323 3.881,-1.778 2.747,-1.94 -0.322,-1.94 -1.455,-1.455 0.565,-2.182 4.122,-0.243 2.425,-0.808 2.91,1.617 1.616,4.365 5.82,0.323 1.777,1.778 2.103,0.162 2.425,-1.455 3.071,0.485 1.293,1.455 2.748,-2.586 1.777,-1.293 h 1.617 l 0.646,2.749 1.777,0.97 2.423,2.215 0.16,5.496 0.81,1.617 2.587,1.455 0.646,2.263 2.91,3.718 2.586,2.748 3.395,1.962 z"
     inkscape:connector-curvature="0"
     style="fill:#d53034" /><path
     id="OH"
     d="m 747.1,188.646 -6.093,4.053 -3.88,2.263 -3.396,3.718 -4.041,3.88 -3.233,0.808 -2.91,0.485 -5.496,2.586 -2.102,0.162 -3.396,-3.071 -5.174,0.646 -2.586,-1.455 -2.382,-1.351 -4.893,0.703 -10.186,1.617 -7.76,1.212 1.294,14.63 1.778,13.741 2.586,23.441 0.565,4.831 4.122,-0.129 2.425,-0.809 3.364,1.503 2.07,4.365 5.139,-0.017 1.893,2.119 1.762,-0.065 2.538,-1.341 2.504,0.372 1.975,1.455 1.728,-2.132 2.346,-1.293 2.07,-0.681 0.646,2.749 1.778,0.97 3.476,2.344 2.184,-0.081 1.146,-1.148 -0.064,-1.387 1.616,-1.455 0.162,-5.012 0.971,-3.88 1.52,-1.441 1.521,0.905 0.824,1.211 1.211,-0.176 -0.423,-2.411 -0.562,-0.644 v -2.425 l 0.97,-1.293 2.263,-3.395 1.294,-1.455 2.103,0.485 2.263,-1.617 3.072,-3.395 2.263,-3.88 0.21,-5.431 0.485,-5.011 v -4.688 l -1.132,-3.071 0.97,-1.455 0.921,-0.955 -1.405,-9.843 -2.914,-19.361 z"
     inkscape:connector-curvature="0"
     style="fill:#d53034" /><path
     id="MI"
     d="m 597.283,75.697 1.829,-2.058 2.172,-0.8 5.373,-3.887 2.286,-0.571 0.457,0.457 -5.145,5.144 -3.314,1.943 -2.059,0.915 -1.599,-1.143 z m 86.175,32.128 0.646,2.506 3.232,0.162 1.293,-1.212 c 0,0 -0.081,-1.455 -0.403,-1.617 -0.323,-0.162 -1.616,-1.859 -1.616,-1.859 l -2.184,0.243 -1.616,0.161 -0.322,1.132 0.97,0.484 z m 30.066,63.05 -3.233,-8.245 -2.264,-9.053 -2.425,-3.233 -2.587,-1.778 -1.616,1.132 -3.88,1.778 -1.939,5.011 -2.748,3.718 -1.132,0.646 -1.455,-0.646 c 0,0 -2.587,-1.455 -2.425,-2.102 0.161,-0.646 0.483,-5.012 0.483,-5.012 l 3.396,-1.293 0.808,-3.395 0.647,-2.586 2.425,-1.617 -0.323,-10.023 -1.617,-2.263 -1.293,-0.809 -0.809,-2.102 0.809,-0.808 1.616,0.323 0.162,-1.617 -2.424,-2.263 -1.294,-2.586 h -2.586 l -4.526,-1.455 -5.497,-3.395 h -2.748 l -0.646,0.647 -0.971,-0.485 -3.071,-2.264 -2.909,1.778 -2.91,2.263 0.323,3.557 0.97,0.323 2.103,0.485 0.484,0.809 -2.587,0.808 -2.586,0.324 -1.455,1.778 -0.323,2.102 0.323,1.616 0.323,5.497 -3.558,2.103 -0.646,-0.162 v -4.203 l 1.293,-2.425 0.646,-2.425 -0.809,-0.809 -1.939,0.809 -0.971,4.203 -2.748,1.131 -1.777,1.94 -0.162,0.97 0.646,0.809 -0.646,2.586 -2.264,0.485 v 1.132 l 0.809,2.425 -1.131,6.143 -1.617,4.042 0.646,4.688 0.485,1.131 -0.809,2.425 -0.323,0.808 -0.323,2.748 3.557,5.981 2.91,6.466 1.455,4.85 -0.809,4.688 -0.97,5.981 -2.426,5.173 -0.323,2.748 -3.26,3.085 4.409,-0.162 21.418,-2.264 7.278,-0.987 0.097,1.667 6.853,-1.213 10.298,-1.503 3.854,-0.461 0.139,-0.587 0.161,-1.455 2.103,-3.718 2,-1.738 -0.222,-5.052 1.597,-1.597 1.091,-0.343 0.222,-3.557 1.536,-3.031 1.052,0.606 0.161,0.646 0.809,0.162 1.939,-0.97 -0.324,-9.534 z m -130.368,-66.024 0.716,-0.581 2.749,-0.809 3.556,-2.263 v -0.97 l 0.647,-0.646 5.98,-0.97 2.426,-1.94 4.363,-2.102 0.162,-1.293 1.939,-2.91 1.777,-0.808 1.295,-1.778 2.263,-2.264 4.365,-2.425 4.688,-0.485 1.132,1.132 -0.322,0.97 -3.719,0.97 -1.455,3.071 -2.264,0.809 -0.484,2.425 -2.425,3.233 -0.323,2.587 0.809,0.485 0.97,-1.132 3.558,-2.91 1.294,1.293 h 2.263 l 3.232,0.97 1.455,1.132 1.455,3.071 2.748,2.748 3.88,-0.161 1.455,-0.97 1.616,1.293 1.617,0.485 1.293,-0.808 h 1.132 l 1.616,-0.97 4.042,-3.557 3.396,-1.131 6.628,-0.323 4.525,-1.94 2.587,-1.293 1.455,0.162 v 5.658 l 0.484,0.323 2.91,0.808 1.938,-0.485 6.145,-1.617 1.132,-1.131 1.455,0.485 v 6.951 l 3.231,3.072 1.294,0.646 1.293,0.97 -1.293,0.323 -0.809,-0.323 -3.718,-0.485 -2.103,0.647 -2.264,-0.162 -3.233,1.455 h -1.777 l -5.819,-1.293 -5.173,0.162 -1.94,2.586 -6.95,0.647 -2.426,0.808 -1.132,3.072 -1.293,1.131 -0.484,-0.162 -1.455,-1.617 -4.526,2.425 h -0.646 l -1.133,-1.617 -0.809,0.162 -1.939,4.365 -0.97,4.042 -3.182,7.001 -1.178,-1.035 -1.37,-1.031 -1.941,-10.288 -3.544,-1.37 -2.053,-2.286 -12.12,-2.744 -2.855,-1.029 -8.229,-2.173 -7.892,-1.143 -3.718,-5.145 z"
     inkscape:connector-curvature="0"
     style="fill:#d3d3d3" /><path
     id="WY"
     d="m 369.916,137.414 -10.55,-0.807 -32.088,-3.295 -16.232,-2.058 -28.349,-4.115 -19.89,-2.972 -1.419,11.176 -3.839,24.26 -5.258,30.407 -1.531,10.516 -1.669,11.889 6.523,0.928 25.879,2.5 20.569,2.307 36.784,4.115 23.821,2.86 4.504,-44.192 1.44,-25.377 1.305,-18.142 z"
     inkscape:connector-curvature="0"
     style="fill:#d3d3d3" /><path
     id="MT"
     d="m 372.335,115.912 0.647,-11.151 2.259,-24.787 c 0.457,-5.029 1.084,-8.472 1.371,-15.41 l 0.939,-14.552 -30.675,-2.808 -29.26,-3.556 -29.261,-4.042 -32.332,-5.335 -18.429,-3.395 -32.724,-6.933 -4.479,21.348 3.429,7.544 -1.372,4.572 1.829,4.573 3.201,1.372 4.621,10.77 2.695,3.177 0.457,1.143 3.429,1.143 0.458,2.058 -7.087,17.604 v 2.515 l 2.515,3.201 h 0.914 l 4.801,-2.972 0.686,-1.143 1.6,0.686 -0.229,5.258 2.744,12.574 2.972,2.515 0.915,0.686 1.829,2.286 -0.457,3.429 0.686,3.43 1.143,0.914 2.287,-2.286 h 2.743 l 3.201,1.601 2.515,-0.915 h 4.115 l 3.658,1.6 2.744,-0.457 0.457,-2.972 2.972,-0.686 1.372,1.372 0.458,3.201 1.779,1.365 1.534,-11.565 20.692,2.972 28.188,3.955 16.554,1.897 31.444,3.456 10.99,1.524 1.053,-15.428 1.409,-5.348 z"
     inkscape:connector-curvature="0"
     style="fill:#d3d3d3" /><path
     id="ID"
     d="m 177.784,174.598 c -22.611,-4.344 -14.147,-2.847 -21.141,-4.351 l 4.427,-17.502 4.344,-17.718 1.372,-4.229 2.515,-5.944 -1.257,-2.286 -2.515,0.114 -0.8,-1.029 0.457,-1.143 0.343,-3.086 4.458,-5.487 1.829,-0.458 1.144,-1.143 0.571,-3.201 0.915,-0.686 3.887,-5.83 3.886,-4.344 0.229,-3.772 -3.43,-2.629 -1.314,-4.401 0.4,-9.66 3.658,-16.46 4.458,-20.805 3.772,-13.489 0.762,-3.803 12.996,2.528 -4.158,21.508 2.948,7.705 -1.051,4.572 1.989,4.573 3.201,1.692 4.46,9.807 2.695,3.818 0.618,1.143 3.429,1.143 0.458,2.539 -6.927,16.802 0.321,3.317 2.675,2.879 1.877,0.481 4.801,-3.614 0.365,-0.501 0.156,0.847 0.253,4.135 2.583,12.895 3.454,2.676 0.433,0.846 2.15,2.447 -0.778,2.787 0.686,3.75 1.945,0.915 2.126,-1.645 2.583,-0.481 3.361,1.601 2.515,-0.594 3.794,-0.16 3.979,1.6 2.744,-0.297 0.938,-2.33 2.491,-1.649 0.73,1.693 0.618,2.238 2.308,2.539 -3.772,23.981 -5.144,29.009 -4.159,-0.319 -8.184,-1.532 -9.807,-1.829 -12.163,-2.378 -12.528,-2.504 -8.483,-1.84 -9.259,-1.668 -9.237,-1.783 z"
     inkscape:connector-curvature="0"
     style="fill:#d53034" /><path
     id="WA"
     d="m 109.237,0 4.365,1.455 9.7,2.748 8.568,1.94 20.046,5.658 22.956,5.658 15.161,3.395 -1.004,3.884 -4.093,13.81 -4.458,20.805 -3.177,16.14 -0.352,9.379 -13.181,-3.894 -15.57,-3.383 -13.667,0.596 -1.581,-1.532 -5.326,1.897 -3.977,-0.25 -2.721,-1.761 -1.579,0.525 -4.205,-0.229 -1.875,-1.372 -4.777,-1.737 -1.442,-0.207 -4.986,-1.326 -1.783,1.508 -5.691,-0.343 -4.821,-3.794 0.205,-0.8 0.068,-7.934 -2.125,-3.887 -4.115,-0.732 -0.365,-2.354 -2.514,-0.627 -2.882,-0.535 -1.778,0.97 -2.264,-2.91 0.324,-2.91 2.748,-0.323 1.617,-4.042 -2.587,-1.132 0.162,-3.718 4.365,-0.646 -2.749,-2.749 -1.455,-7.113 0.646,-2.91 v -7.922 l -1.778,-3.233 2.263,-9.376 2.102,0.485 2.425,2.91 2.749,2.586 3.233,1.94 4.527,2.102 3.071,0.646 2.91,1.455 3.395,0.97 2.263,-0.162 v -2.425 l 1.293,-1.131 2.102,-1.293 0.323,1.132 0.324,1.778 -2.264,0.485 -0.323,2.102 1.778,1.455 1.132,2.425 0.646,1.94 1.455,-0.162 0.162,-1.293 -0.97,-1.293 -0.485,-3.233 0.808,-1.778 -0.646,-1.455 V 12.61 l 1.778,-3.557 -1.132,-2.586 -2.425,-4.849 0.323,-0.809 1.13,-0.809 z m -9.456,5.979 2.021,-0.162 0.485,1.374 1.536,-1.617 h 2.344 l 0.809,1.536 -1.536,1.698 0.646,0.808 -0.728,2.021 -1.374,0.404 c 0,0 -0.889,0.081 -0.889,-0.242 0,-0.323 1.455,-2.586 1.455,-2.586 l -1.698,-0.566 -0.323,1.455 -0.728,0.647 -1.536,-2.263 -0.484,-2.507 z"
     inkscape:connector-curvature="0"
     style="fill:#3072af" /><path
     id="TX"
     d="m 372.718,327.012 22.69,1.086 31.093,1.144 -2.335,23.455 -0.297,18.154 0.068,2.081 4.344,3.817 1.736,0.822 1.81,0.254 0.687,-1.256 0.891,0.866 1.736,0.479 1.604,-0.729 1.139,0.409 -0.297,3.405 4.275,1.029 2.676,0.822 3.954,0.525 2.194,1.828 3.249,-1.575 2.786,0.364 2.034,2.787 1.074,0.321 -0.16,1.966 3.089,1.167 2.769,-1.805 1.508,0.364 2.354,0.16 0.434,1.873 4.641,1.989 2.656,-0.205 1.989,-4.114 h 0.341 l 1.143,1.896 4.438,1.007 3.337,1.211 3.293,0.754 2.149,-0.754 0.847,-2.515 h 3.702 l 1.896,0.754 3.064,-1.576 h 0.661 l 0.364,1.119 h 4.275 l 2.403,-1.256 1.668,0.297 1.416,1.873 2.88,1.669 3.521,1.075 2.743,1.418 2.447,1.622 3.293,-0.892 1.939,0.983 0.513,10.139 0.335,9.703 0.686,9.533 0.525,4.047 2.676,4.598 1.075,4.066 3.862,6.289 0.55,2.88 0.524,1.007 -0.687,7.496 -2.65,4.389 0.958,2.859 -0.364,2.516 -0.847,7.315 -1.372,2.719 0.604,4.388 -5.665,1.585 -9.861,4.525 -0.97,1.939 -2.587,1.939 -2.103,1.455 -1.293,0.81 -5.657,5.334 -2.748,2.102 -5.335,3.233 -5.658,2.425 -6.305,3.396 -1.778,1.453 -5.82,3.558 -3.395,0.646 -3.88,5.496 -4.041,0.323 -0.972,1.938 2.265,1.94 -1.455,5.496 -1.293,4.526 -1.132,3.88 -0.81,4.526 0.81,2.426 1.777,6.95 0.97,6.144 1.778,2.749 -0.97,1.454 -3.072,1.939 -5.657,-3.88 -5.497,-1.132 -1.293,0.484 -3.232,-0.646 -4.203,-3.072 -5.173,-1.131 -7.6,-3.396 -2.102,-3.881 -1.293,-6.466 -3.233,-1.939 -0.646,-2.264 0.646,-0.646 0.323,-3.396 -1.293,-0.646 -0.646,-0.97 1.293,-4.365 -1.616,-2.263 -3.231,-1.283 -3.395,-4.364 -3.558,-6.629 -4.202,-2.586 0.16,-1.94 -5.335,-12.286 -0.808,-4.203 -1.778,-1.938 -0.162,-1.455 -5.98,-5.335 -2.586,-3.071 v -1.132 l -2.587,-2.102 -6.79,-1.133 -7.438,-0.646 -3.07,-2.263 -4.526,1.776 -3.557,1.455 -2.265,3.233 -0.97,3.719 -4.364,6.143 -2.425,2.426 -2.587,-0.971 -1.777,-1.131 -1.939,-0.646 -3.881,-2.265 v -0.646 l -1.776,-1.939 -5.174,-2.102 -7.438,-7.76 -2.263,-4.688 v -8.083 l -3.233,-6.466 -0.484,-2.749 -1.616,-0.97 -1.132,-2.103 -5.011,-2.102 -1.293,-1.616 -7.113,-7.922 -1.293,-3.233 -4.688,-2.263 -1.455,-4.365 -2.586,-2.91 -1.94,-0.483 -0.649,-4.679 8.002,0.687 29.035,2.744 29.035,1.6 2.286,-23.775 3.887,-55.556 1.601,-18.748 1.372,0.029 m 98.976,233.984 -0.566,-7.113 -2.748,-7.194 -0.565,-7.031 1.535,-8.244 3.314,-6.871 3.476,-5.415 3.152,-3.557 0.646,0.241 -4.769,6.629 -4.365,6.548 -2.021,6.628 -0.323,5.173 0.889,6.144 2.587,7.193 0.485,5.174 0.161,1.454 -0.888,0.241 z"
     inkscape:connector-curvature="0"
     style="fill:#d3d3d3" /><path
     id="CA"
     d="m 152.405,380.392 3.815,-0.488 1.486,-2.012 0.732,-1.941 -3.176,-0.09 -1.099,-1.764 0.778,-1.715 -0.046,-6.15 2.218,-1.328 2.697,-2.582 0.411,-4.916 1.646,-3.498 1.943,-2.104 3.269,-1.715 1.279,-0.729 0.756,-1.483 -0.868,-0.894 -0.961,-1.51 -0.937,-5.35 -2.904,-5.236 0.097,-2.785 -2.201,-3.248 -14.999,-23.23 -19.433,-28.713 -22.427,-33.034 -12.702,-19.545 1.797,-7.208 6.812,-25.949 8.116,-31.436 -12.365,-3.337 -13.489,-3.43 -12.574,-4.115 -7.544,-2.058 -11.431,-2.972 -7.051,-2.412 -1.58,4.725 -0.162,7.437 -5.173,11.801 -3.072,2.587 -0.323,1.131 -1.778,0.809 -1.455,4.203 -0.809,3.233 2.749,4.203 1.616,4.203 1.132,3.557 -0.323,6.467 -1.778,3.071 -0.646,5.82 -0.97,3.718 1.778,3.88 2.748,4.526 2.264,4.85 1.293,4.042 -0.323,3.233 -0.323,0.485 v 2.102 l 5.658,6.305 -0.485,2.425 -0.646,2.263 -0.646,1.94 0.162,8.245 2.102,3.718 1.94,2.586 2.748,0.485 0.97,2.749 -1.132,3.557 -2.102,1.616 h -1.131 l -0.809,3.88 0.485,2.91 3.233,4.365 1.617,5.334 1.455,4.688 1.293,3.071 3.395,5.819 1.455,2.588 0.485,2.908 1.617,0.971 v 2.426 l -0.809,1.939 -1.778,7.113 -0.485,1.938 2.425,2.748 4.203,0.485 4.527,1.777 3.88,2.102 h 2.91 l 2.91,3.071 2.586,4.851 1.131,2.264 3.88,2.102 4.85,0.809 1.455,2.102 0.646,3.234 -1.455,0.646 0.323,0.969 3.233,0.809 2.748,0.162 2.91,4.688 3.88,4.203 0.808,2.264 2.586,4.203 0.324,3.232 v 9.376 l 0.485,1.779 10.023,1.455 19.723,2.747 13.907,0.977 z m -87.948,-49.717 1.293,1.535 -0.162,1.294 -3.233,-0.081 -0.566,-1.213 -0.646,-1.455 3.314,-0.08 z m 1.94,0 1.212,-0.646 3.557,2.103 3.072,1.212 -0.889,0.646 -4.526,-0.242 -1.617,-1.616 -0.809,-1.457 z m 20.693,19.803 1.778,2.346 0.808,0.969 1.536,0.566 0.566,-1.455 -0.97,-1.779 -2.667,-2.02 -1.051,0.161 v 1.212 z m -1.455,8.649 1.778,3.151 1.212,1.94 -1.455,0.242 -1.293,-1.214 c 0,0 -0.728,-1.454 -0.728,-1.858 0,-0.403 0,-2.183 0,-2.183 l 0.486,-0.078 z"
     style="fill:#99cfec;fill-opacity:1"
     inkscape:connector-curvature="0" /><path
     id="AZ"
     d="m 153.411,381.138 -2.627,2.158 -0.323,1.455 0.485,0.971 18.914,10.669 12.125,7.599 14.711,8.567 16.812,10.023 12.286,2.425 25.128,2.705 2.531,-12.507 3.753,-27.243 6.965,-52.881 4.257,-30.967 -24.597,-3.679 -27.206,-4.571 -33.429,-6.319 -2.922,18.092 -0.458,0.457 -1.714,2.629 -2.515,-0.113 -1.257,-2.744 -2.744,-0.343 -0.915,-1.144 h -0.914 l -0.915,0.572 -1.943,1.028 -0.114,6.974 -0.229,1.715 -0.571,12.574 -1.486,2.172 -0.571,3.313 2.744,4.916 1.257,5.83 0.8,1.028 1.029,0.57 -0.115,2.286 -1.6,1.372 -3.429,1.715 -1.943,1.943 -1.486,3.658 -0.571,4.914 -2.858,2.744 -2.058,0.686 -0.114,5.83 -0.458,1.715 0.458,0.801 3.658,0.57 -0.571,2.744 -1.486,2.172 -3.774,0.919 z"
     inkscape:connector-curvature="0"
     style="fill:#d53034" /><path
     id="NV"
     d="m 156.322,171.21 20.98,4.511 9.716,1.943 9.259,1.829 6.615,1.633 -0.559,5.865 -3.543,17.329 -4.093,19.98 -1.943,9.719 -2.172,13.282 -3.155,16.415 -3.521,15.685 -1.968,10.181 -2.466,16.771 -0.457,1.1 -1.073,2.469 -1.873,-0.114 -1.097,-2.744 -2.743,-0.503 -1.396,-0.982 -2.038,0.321 -0.915,0.731 -1.302,1.351 -0.435,6.974 -0.55,1.715 -0.411,12.092 -1.322,1.715 -1.876,-2.262 -14.518,-22.748 -19.433,-29.035 -22.748,-33.836 -12.381,-18.586 1.636,-6.566 6.973,-25.949 7.888,-31.348 33.607,8.143 13.717,2.972"
     style="fill:#99cfec;fill-opacity:1"
     inkscape:connector-curvature="0" /><path
     id="UT"
     d="m 268.635,302.945 -24.643,-3.473 -26.564,-4.895 -33.827,-6.02 1.588,-9.157 3.201,-15.203 3.315,-16.575 2.172,-13.603 1.943,-8.917 3.772,-20.461 3.543,-17.49 1.115,-5.573 12.717,2.258 12.002,2.058 10.288,1.829 8.345,1.372 3.678,0.479 -1.485,10.63 -2.312,13.173 7.808,0.928 16.407,1.805 8.211,0.856 -2.13,21.968 -3.201,22.565 -3.753,27.827 -1.666,11.108 -0.524,2.511 z"
     inkscape:connector-curvature="0"
     style="fill:#d53034" /><path
     id="CO"
     d="m 394.285,250.434 1.438,-21.282 -32.095,-3.064 -24.463,-2.7 -37.266,-4.115 -20.69,-2.515 -2.629,22.176 -3.201,22.405 -3.753,27.987 -1.505,11.108 -0.25,2.763 33.926,3.795 37.74,4.268 31.961,3.166 16.608,0.846"
     inkscape:connector-curvature="0"
     style="fill:#3072af" /><path
     id="NM"
     d="m 298.388,424.683 -0.65,-6.123 8.644,0.525 29.518,3.063 28.393,1.439 1.966,-22.332 3.727,-55.876 1.119,-19.391 2.014,0.351 -0.015,-11.074 -32.203,-2.403 -36.938,-4.427 -34.465,-4.114 -4.2,30.758 -6.965,53.201 -3.752,26.923 -2.049,13.309 15.46,1.989 1.293,-10.022 16.651,2.586 12.452,1.618 z"
     inkscape:connector-curvature="0"
     style="fill:#d3d3d3" /><path
     id="OR"
     d="m 155.97,170.324 4.298,-17.9 4.665,-17.879 1.051,-4.229 2.354,-5.623 -0.615,-1.163 -2.515,-0.046 -1.282,-1.67 0.458,-1.464 0.503,-3.247 4.458,-5.487 1.829,-1.099 1.143,-1.143 1.486,-3.566 4.047,-5.669 3.565,-3.862 0.229,-3.451 -3.269,-2.469 -1.209,-4.51 -13.238,-3.745 -15.089,-3.543 -15.432,0.114 -0.458,-1.372 -5.487,2.058 -4.458,-0.572 -2.401,-1.6 -1.257,0.686 -4.687,-0.229 -1.715,-1.372 -5.258,-2.058 -0.8,0.114 -4.344,-1.486 -1.943,1.829 -6.173,-0.343 -5.944,-4.115 0.686,-0.8 0.228,-7.775 -2.286,-3.887 -4.115,-0.572 -0.686,-2.515 -2.354,-0.466 -5.799,2.059 -2.263,6.466 -3.233,10.023 -3.233,6.466 -5.011,14.066 -6.467,13.58 -8.083,12.61 -1.94,2.91 -0.808,8.568 -1.293,5.981 2.708,3.527 6.729,2.251 11.592,3.293 7.866,2.539 12.414,3.634 13.328,3.59 13.168,3.565"
     inkscape:connector-curvature="0"
     style="fill:#3072af" /><path
     id="ND"
     d="m 486.97,121.306 -0.364,-7.496 -1.989,-7.316 -1.829,-13.649 -0.457,-9.831 -1.99,-3.108 -1.6,-5.351 V 64.267 l 0.686,-3.887 -2.114,-5.499 -28.425,-0.564 -18.591,-0.646 -26.513,-1.293 -24.946,-1.884 -1.261,14.23 -1.371,15.089 -2.259,24.947 -0.486,11.021 56.816,3.764 56.693,1.761 z"
     inkscape:connector-curvature="0"
     style="fill:#d53034" /><path
     id="SD"
     d="m 488.461,196.819 -0.953,-1.081 -1.521,-3.627 1.829,-3.702 1.051,-5.555 -2.583,-2.058 -0.297,-2.744 0.594,-2.996 2.15,-0.802 0.297,-5.735 -0.068,-30.086 -0.618,-2.972 -4.115,-3.59 -0.981,-1.989 v -1.921 l 1.896,-1.279 1.532,-1.854 0.184,-2.719 -57.384,-1.6 -56.174,-3.887 -0.767,5.279 -1.613,15.868 -1.345,17.947 -1.602,24.597 16.027,1.029 19.638,1.143 17.993,1.303 23.776,1.304 10.745,-0.778 2.859,2.287 4.319,2.972 0.983,0.754 3.541,-0.891 4.047,-0.297 2.743,-0.068 3.112,1.211 4.548,1.439 3.134,1.761 0.617,1.921 0.914,1.897 0.706,-0.481 h 0.786 z"
     inkscape:connector-curvature="0"
     style="fill:#d53034" /><path
     id="NE"
     d="m 499.908,240.628 1.372,2.675 0.093,2.126 2.354,3.726 2.721,3.152 h -5.05 l -43.482,-0.938 -40.787,-0.89 -21.19,-0.961 1.072,-21.328 -33.379,-2.744 4.344,-44.01 15.547,1.029 20.118,1.143 17.832,1.143 23.777,1.144 10.745,-0.458 2.058,2.286 4.802,2.972 1.144,0.915 4.344,-1.372 3.888,-0.458 2.742,-0.229 1.829,1.372 5.029,1.601 2.973,1.6 0.457,1.601 0.915,2.058 h 1.828 l 0.799,0.046 0.982,5.212 2.743,8.026 1.234,4.641 2.126,3.818 0.525,4.938 1.439,4.276 0.55,6.469"
     inkscape:connector-curvature="0"
     style="fill:#d3d3d3" /><path
     id="IA"
     d="m 582.258,195.266 0.17,1.942 2.287,1.14 1.142,1.257 0.344,1.262 3.887,3.202 0.688,2.173 -0.801,2.862 -1.487,3.544 -0.8,2.742 -2.174,1.603 -1.715,0.572 -5.484,1.485 -0.688,2.283 -0.799,2.285 0.572,1.372 1.716,1.714 -0.002,3.661 -2.169,1.601 -0.459,1.487 v 2.517 l -1.489,0.457 -1.714,1.37 -0.455,1.485 0.455,1.717 -1.374,1.205 -2.294,-2.691 -1.483,-2.626 -8.341,0.799 -10.171,0.571 -25.036,0.688 -13.035,0.229 -9.374,0.229 -1.314,0.122 -1.654,-4.472 -0.229,-6.63 -1.602,-4.115 -0.686,-5.258 -2.287,-3.658 -0.914,-4.801 -2.743,-7.544 -1.145,-5.373 -1.371,-2.172 -1.601,-2.744 1.829,-4.344 1.371,-5.716 -2.743,-2.058 -0.457,-2.743 0.914,-2.515 h 1.715 11.545 l 49.611,-0.686 19.877,-0.686 1.852,2.747 1.832,2.622 0.455,0.804 -1.83,2.749 0.455,4.222 2.516,3.886 2.969,1.824 2.405,0.23 1.313,2.172 z"
     inkscape:connector-curvature="0"
     style="fill:#d53034" /><path
     id="MS"
     d="m 640.223,460.608 -0.254,1.256 h -5.173 l -1.455,-0.809 -2.102,-0.323 -6.79,1.94 -1.778,-0.81 -2.587,4.203 -1.103,0.778 -1.123,-2.488 -1.145,-3.887 -3.43,-3.2 1.144,-7.545 -0.686,-0.914 -1.829,0.229 -8.229,0.686 -24.234,0.688 -0.457,-1.602 0.686,-8.002 3.431,-6.173 5.258,-9.145 -0.914,-2.059 h 1.144 l 0.687,-3.201 -2.286,-1.829 0.229,-1.829 -2.058,-4.571 -0.286,-5.345 1.372,-2.657 -0.399,-4.345 -1.371,-2.972 1.371,-1.372 -1.371,-2.058 0.457,-1.829 0.914,-6.173 2.973,-2.743 -0.688,-2.059 3.658,-5.258 2.743,-0.914 v -2.516 l -0.686,-1.372 2.742,-5.259 2.744,-1.143 0.107,-3.412 8.675,-0.078 24.088,-1.939 4.58,-0.229 0.009,6.371 0.161,16.651 -0.808,31.038 -0.162,14.064 2.748,18.753 1.483,15.403 z"
     inkscape:connector-curvature="0"
     style="fill:#d3d3d3" /><path
     id="IN"
     d="m 634.085,294.493 0.064,-2.859 0.484,-4.526 2.265,-2.91 1.777,-3.88 2.586,-4.203 -0.483,-5.82 -1.778,-2.748 -0.323,-3.233 0.809,-5.496 -0.484,-6.952 -1.294,-16.004 -1.293,-15.358 -0.971,-11.72 3.07,0.889 1.455,0.97 1.132,-0.323 2.103,-1.94 2.829,-1.617 5.093,-0.162 21.986,-2.263 5.574,-0.533 1.505,15.957 4.251,36.841 0.599,5.771 -0.372,2.263 1.229,1.796 0.096,1.372 -2.521,1.6 -3.54,1.551 -3.201,0.55 -0.6,4.867 -4.574,3.312 -2.797,4.01 0.323,2.377 -0.581,1.534 h -3.326 l -1.586,-1.617 -2.493,1.262 -2.683,1.503 0.161,3.054 -1.193,0.258 -0.468,-1.018 -2.167,-1.503 -3.25,1.341 -1.552,3.007 -1.438,-0.81 -1.455,-1.598 -4.465,0.483 -5.593,0.97 -2.91,1.555 z"
     style="fill:#ff9999;fill-opacity:1"
     inkscape:connector-curvature="0" /><path
     id="IL"
     d="m 633.469,295.24 v -3.604 l 0.258,-4.866 2.378,-3.137 1.777,-3.766 2.587,-3.863 -0.372,-5.252 -2.005,-3.542 -0.097,-3.347 0.695,-5.27 -0.825,-7.178 -1.066,-15.778 -1.294,-15.017 -0.922,-11.639 -0.271,-0.921 -0.81,-2.587 -1.293,-3.718 -1.617,-1.778 -1.454,-2.587 -0.232,-5.489 -9.903,1.312 -27.206,1.715 -8.688,-0.429 0.229,2.372 2.286,0.686 0.915,1.143 0.457,1.829 3.887,3.429 0.687,2.286 -0.687,3.429 -1.829,3.658 -0.687,2.515 -2.286,1.829 -1.829,0.686 -5.258,1.372 -0.687,1.829 -0.687,2.058 0.687,1.372 1.828,1.6 -0.229,4.115 -1.828,1.601 -0.688,1.601 v 2.743 l -1.828,0.457 -1.601,1.144 -0.229,1.372 0.229,2.058 -1.715,1.314 -1.029,2.801 0.457,3.658 2.287,7.316 7.315,7.545 5.486,3.658 -0.229,4.344 0.914,1.372 6.4,0.457 2.743,1.372 -0.686,3.658 -2.286,5.944 -0.686,3.201 2.285,3.886 6.401,5.259 4.572,0.687 2.058,5.029 2.059,3.2 -0.914,2.973 1.6,4.115 1.829,2.058 1.944,-0.791 0.687,-2.164 2.037,-1.438 3.236,-1.101 3.088,1.18 2.876,1.066 0.791,-0.211 -0.065,-1.242 -1.065,-2.765 0.438,-2.377 2.28,-1.567 2.358,-0.987 1.163,-0.421 -0.582,-1.323 -0.76,-2.166 1.245,-1.263 0.976,-2.72 z"
     inkscape:connector-curvature="0"
     style="fill:#d53034" /><path
     id="MN"
     d="m 487.543,122.109 -0.457,-8.459 -1.829,-7.316 -1.829,-13.489 -0.457,-9.831 -1.829,-3.429 -1.601,-5.03 V 64.267 l 0.688,-3.887 -1.821,-5.452 30.133,0.035 0.323,-8.245 0.646,-0.162 2.264,0.485 1.939,0.809 0.81,5.497 1.453,6.143 1.617,1.616 h 4.851 l 0.322,1.455 6.306,0.323 v 2.102 h 4.85 l 0.323,-1.293 1.132,-1.132 2.264,-0.646 1.293,0.97 h 2.91 l 3.88,2.587 5.335,2.425 2.426,0.485 0.483,-0.97 1.455,-0.485 0.485,2.91 2.587,1.293 0.483,-0.485 1.293,0.162 v 2.102 l 2.588,0.97 h 3.07 l 1.617,-0.809 3.233,-3.233 2.586,-0.485 0.809,1.778 0.485,1.293 h 0.97 l 0.97,-0.808 8.893,-0.323 1.777,3.071 h 0.646 l 0.714,-1.084 4.439,-0.371 -0.612,2.28 -3.938,1.837 -9.245,4.062 -4.774,2.007 -3.071,2.587 -2.425,3.556 -2.264,3.88 -1.778,0.809 -4.526,5.011 -1.293,0.162 -3.842,2.934 -2.815,3.161 -0.229,2.97 0.228,7.778 -1.598,1.6 -5.259,4.114 -1.832,5.717 2.52,3.647 0.458,2.52 -1.147,2.974 -0.228,3.659 0.458,7.084 3.426,4.107 h 2.976 l 2.51,2.293 3.202,1.365 3.659,5.035 7.088,5.023 1.83,2.062 0.234,5.502 -20.588,0.686 -60.249,0.459 -0.338,-35.677 -0.457,-2.972 -4.115,-3.429 -1.145,-1.829 v -1.601 l 2.059,-1.6 1.372,-1.372 0.223,-3.2 z"
     inkscape:connector-curvature="0"
     style="fill:#d3d3d3" /><path
     id="WI"
     d="m 628.605,190.819 0.369,-2.97 -1.615,-4.527 -0.646,-6.143 -1.132,-2.425 0.97,-3.072 0.81,-2.91 1.455,-2.586 -0.647,-3.395 -0.646,-3.557 0.484,-1.778 1.939,-2.425 0.162,-2.748 -0.81,-1.293 0.646,-2.586 0.484,-3.233 2.748,-5.658 2.91,-6.79 0.161,-2.263 -0.323,-0.97 -0.808,0.485 -4.203,6.305 -2.749,4.042 -1.939,1.778 -0.809,2.263 -1.455,0.808 -1.131,1.94 -1.455,-0.323 -0.162,-1.778 1.294,-2.425 2.103,-4.688 1.776,-1.617 1.103,-2.292 -1.631,-0.905 -1.371,-1.372 -1.602,-10.288 -3.658,-1.144 -1.371,-2.286 -12.573,-2.743 -2.517,-1.143 -8.229,-2.287 -8.229,-1.143 -4.17,-5.405 -0.528,1.261 -1.133,-0.162 -0.646,-1.132 -2.748,-0.808 -1.132,0.162 -1.778,0.97 -0.97,-0.647 0.646,-1.94 1.939,-3.071 1.132,-1.132 -1.938,-1.455 -2.103,0.808 -2.91,1.94 -7.437,3.233 -2.91,0.646 -2.909,-0.485 -0.981,-0.878 -2.116,2.835 -0.229,2.744 v 8.459 l -1.144,1.601 -5.258,3.886 -2.286,5.944 0.457,0.229 2.515,2.058 0.687,3.201 -1.829,3.201 v 3.887 l 0.458,6.63 2.972,2.972 h 3.43 l 1.829,3.201 3.43,0.458 3.887,5.715 7.088,4.115 2.057,2.744 0.915,7.43 0.687,3.315 2.286,1.601 0.229,1.372 -2.058,3.429 0.229,3.201 2.516,3.887 2.515,1.143 2.972,0.458 1.344,1.38 h 9.174 l 26.065,-1.487 10.051,-1.372 z"
     inkscape:connector-curvature="0"
     style="fill:#d53034" /><path
     id="MO"
     d="m 571.453,243.165 -2.521,-3.087 -1.143,-2.286 -7.773,0.686 -9.83,0.457 -25.378,0.915 -13.487,0.229 -7.889,0.115 -2.285,0.114 1.257,2.515 -0.229,2.286 2.516,3.887 3.087,4.115 3.086,2.743 2.286,0.229 1.372,0.915 v 2.972 l -1.829,1.601 -0.457,2.286 2.058,3.43 2.515,2.972 2.516,1.829 1.372,11.66 -0.687,35.324 0.229,4.687 0.457,5.384 23.433,-0.117 23.206,-0.686 20.805,-0.801 11.655,-0.23 2.169,3.426 -0.684,3.307 -3.088,2.404 -0.572,1.838 5.379,0.457 3.896,-0.688 1.718,-5.493 0.65,-5.856 2.318,-2.024 1.713,-1.485 2.058,-1.029 0.114,-2.861 0.574,-1.715 -1.031,-1.748 -2.745,0.145 -2.169,-2.625 -1.374,-4.229 0.803,-2.52 -1.944,-3.428 -1.831,-4.574 -4.799,-0.801 -6.969,-5.6 -1.721,-4.113 0.801,-3.201 2.06,-6.058 0.459,-2.864 -1.949,-1.031 -6.854,-0.798 -1.028,-1.712 -0.111,-4.23 -5.486,-3.431 -6.977,-7.771 -2.286,-7.316 -0.229,-4.225 0.793,-2.295 z"
     inkscape:connector-curvature="0"
     style="fill:#d53034" /><path
     id="AR"
     d="m 606.616,338.591 -3.849,0.938 -6.173,-0.457 0.688,-2.973 3.2,-2.742 0.457,-2.287 -1.828,-2.972 -10.976,0.457 -20.805,0.915 -23.319,0.686 -23.318,0.457 1.601,6.859 v 8.23 l 1.371,10.973 0.229,37.838 2.285,1.943 2.973,-1.372 2.743,1.144 0.431,10.323 22.886,-0.143 18.864,-0.802 10.121,-0.196 1.146,-2.092 -0.286,-3.55 -1.825,-2.972 1.6,-1.485 -1.6,-2.512 0.685,-2.51 1.368,-5.604 2.519,-2.062 -0.686,-2.284 3.657,-5.372 2.743,-1.368 -0.113,-1.494 -0.346,-1.824 2.856,-5.6 2.403,-1.257 0.384,-3.429 1.771,-1.24 0.857,-4.234 -1.342,-4.011 4.041,-2.376 0.551,-2.02 1.235,-4.269 0.801,-3.254 z"
     inkscape:connector-curvature="0"
     style="fill:#d53034" /><path
     id="OK"
     d="m 391.007,316.208 -10.688,-0.456 -6.432,-0.485 0.259,0.199 -0.704,10.422 21.966,1.407 32.056,1.304 -2.335,24.419 -0.457,17.833 0.229,1.6 4.344,3.658 2.058,1.144 0.688,-0.229 0.686,-2.057 1.371,1.828 h 2.06 v -1.371 l 2.742,1.371 -0.456,3.887 4.114,0.229 2.516,1.145 4.114,0.686 2.516,1.83 2.286,-2.059 3.43,0.688 2.515,3.429 h 0.914 v 2.286 l 2.286,0.686 2.287,-2.286 1.828,0.688 h 2.516 l 0.914,2.515 4.801,1.829 1.372,-0.687 1.829,-4.114 h 1.144 l 1.144,2.057 4.115,0.688 3.658,1.371 2.972,0.915 1.829,-0.915 0.686,-2.516 h 4.345 l 2.058,0.914 2.744,-2.057 h 1.143 l 0.688,1.6 h 4.115 l 1.6,-2.057 1.829,0.457 2.058,2.515 3.201,1.829 3.2,0.914 1.941,1.119 -0.39,-37.218 -1.372,-10.975 -0.161,-8.872 -1.438,-6.538 -0.778,-7.18 -0.067,-3.816 -12.138,0.319 -46.41,-0.457 -45.038,-2.058 -24.303,-1.378 z"
     style="fill:#d53034;fill-opacity:1"
     inkscape:connector-curvature="0" /><path
     id="KS"
     d="m 519.045,318.769 -12.618,0.204 -46.09,-0.458 -44.557,-2.057 -24.63,-1.258 4.144,-64.721 21.833,0.8 40.466,1.372 44.125,0.457 h 5.097 l 3.247,3.225 2.768,0.229 0.89,1.075 v 2.009 l -1.828,1.601 -0.457,2.607 2.219,3.59 2.515,3.133 2.515,1.989 1.052,11.178 -0.691,35.025 z"
     inkscape:connector-curvature="0"
     style="fill:#d53034" /><path
     id="LA"
     d="m 617.866,466.633 -1.029,-2.616 -1.144,-3.093 -3.315,-3.541 0.916,-6.75 -0.118,-1.142 -1.262,0.342 -8.229,0.913 -25.028,0.459 -0.686,-2.396 0.913,-8.456 3.315,-5.944 5.031,-8.691 -0.573,-2.398 1.256,-0.681 0.459,-1.952 -2.286,-2.056 -0.111,-1.942 -1.83,-4.346 -0.456,-5.941 -9.726,0.113 -19.205,0.915 -22.205,0.028 0.029,9.574 0.686,9.372 0.687,3.888 2.516,4.115 0.914,5.028 4.345,5.487 0.229,3.2 0.688,0.687 -0.688,8.459 -2.972,5.029 1.601,2.058 -0.687,2.516 -0.687,7.315 -1.372,3.2 0.123,3.617 4.688,-1.521 8.083,-0.322 10.346,3.557 6.467,1.132 3.718,-1.455 3.233,1.132 3.233,0.971 0.809,-2.103 -3.233,-1.132 -2.587,0.485 -2.748,-1.617 c 0,0 0.161,-1.293 0.81,-1.455 0.646,-0.161 3.071,-0.97 3.071,-0.97 l 1.777,1.455 1.778,-0.971 3.232,0.646 1.454,2.425 0.324,2.264 4.526,0.323 1.777,1.778 -0.809,1.616 -1.293,0.809 1.616,1.616 8.405,3.557 3.558,-1.293 0.97,-2.425 2.587,-0.647 1.778,-1.453 1.293,0.97 0.809,2.91 -2.264,0.808 0.646,0.646 3.396,-1.293 2.263,-3.396 0.81,-0.485 -2.103,-0.322 0.81,-1.616 -0.162,-1.455 2.102,-0.485 1.133,-1.293 0.646,0.809 c 0,0 -0.161,3.071 0.646,3.071 0.809,0 4.202,0.646 4.202,0.646 l 4.042,1.938 0.971,1.455 h 2.91 l 1.132,0.972 2.263,-3.072 v -1.455 h -1.293 l -3.396,-2.748 -5.818,-0.809 -3.233,-2.264 1.132,-2.748 2.265,0.323 0.161,-0.646 -1.778,-0.972 v -0.483 h 3.233 l 1.777,-3.071 -1.293,-1.939 -0.323,-2.748 -1.455,0.16 -1.939,2.103 -0.646,2.587 -3.07,-0.646 -0.972,-1.777 1.778,-1.94 2.021,-1.776 -0.365,-0.731 z"
     style="fill:#ff9999;fill-opacity:1"
     inkscape:connector-curvature="0" /><path
     id="VA"
     d="m 844.57,262.884 -0.145,-1.947 6.453,-2.55 -0.771,3.218 -2.92,3.779 -0.418,4.586 0.462,3.391 -1.828,4.978 -2.164,1.916 -1.471,-4.641 0.445,-5.449 1.587,-4.183 0.77,-3.098 z m 2.282,28.301 -58.176,12.576 -37.427,5.277 -6.679,-0.375 -2.585,1.928 -7.339,0.221 -8.383,0.979 -8.927,0.951 8.48,-4.949 -0.014,-2.073 1.521,-2.146 10.554,-11.502 3.947,4.479 3.783,0.963 2.543,-1.141 2.236,-1.312 2.537,1.345 3.914,-1.429 1.877,-4.557 2.602,0.541 2.854,-2.131 1.799,0.493 2.827,-3.676 0.35,-2.083 -0.964,-1.276 1.003,-1.867 5.273,-12.277 0.616,-5.735 1.229,-0.523 2.179,2.443 3.937,-0.301 1.93,-7.573 2.794,-0.561 1.05,-2.741 2.58,-2.347 1.268,-2.342 1.504,-3.353 0.085,-5.067 9.822,3.823 c 0.681,0.34 0.655,-4.784 0.655,-4.784 l 4.051,1.377 -0.462,2.629 8.156,2.939 1.293,1.794 -0.868,3.682 -1.264,1.326 -0.506,1.746 0.494,2.403 1.959,1.278 3.918,1.445 2.948,0.968 4.856,0.942 2.152,2.088 3.189,0.402 0.868,1.2 -0.439,4.69 1.374,1.103 -0.479,1.931 1.229,0.79 -0.222,1.385 -2.694,-0.095 0.09,1.616 2.28,1.543 0.121,1.412 1.773,1.786 0.491,2.524 -2.554,1.381 1.572,1.494 5.801,-1.686 3.618,6.009 z"
     inkscape:connector-curvature="0"
     style="fill:#d3d3d3" /><path
     id="DC"
     d="m 817.421,247.482 -1.077,-1.637 -1.014,-0.842 1.1,-1.616 2.232,1.511 -1.241,2.584 z"
     inkscape:connector-curvature="0"
     style="fill:#d3d3d3" /><path
     id="path57"
     d="m 226.664,486.638 v 55 L 274.89,601.92 M 0,418.638 h 159.664 l 67,68 h 86 l 53,54 v 58.308"
     inkscape:connector-curvature="0"
     style="fill:none;stroke:#a9a9a9;stroke-width:2" /></svg>