<?xml version="1.0" encoding="UTF-8"?>
<svg xmlns="http://www.w3.org/2000/svg" xmlns:xlink="http://www.w3.org/1999/xlink" width="30pt" height="20pt" viewBox="0 0 30 20" version="1.1">
<g id="surface1">
<rect x="0" y="0" width="30" height="20" style="fill:rgb(74.901961%,3.921569%,18.823529%);fill-opacity:1;stroke:none;"/>
<path style=" stroke:none;fill-rule:nonzero;fill:rgb(0%,15.686275%,40.784314%);fill-opacity:1;" d="M 2.5 9.921875 L 14.949219 18.332031 L 27.5 9.90625 L 14.949219 1.667969 Z M 2.5 9.921875 "/>
<path style=" stroke:none;fill-rule:nonzero;fill:rgb(100%,100%,100%);fill-opacity:1;" d="M 5.601562 9.941406 L 14.960938 16.265625 L 24.398438 9.929688 L 14.960938 3.734375 Z M 5.601562 9.941406 "/>
<path style=" stroke:none;fill-rule:nonzero;fill:rgb(0%,15.686275%,40.784314%);fill-opacity:1;" d="M 9.878906 9.667969 L 10.402344 9.667969 L 10.492188 9.960938 L 10.8125 9.960938 L 10.3125 8.542969 L 9.972656 8.542969 L 9.46875 9.960938 L 9.78125 9.960938 Z M 10.136719 8.863281 L 10.140625 8.863281 L 10.316406 9.421875 L 9.957031 9.421875 Z M 11.003906 9.960938 L 11.292969 9.960938 L 11.292969 9.40625 L 11.597656 9.40625 C 11.703125 9.40625 11.769531 9.425781 11.796875 9.46875 C 11.820312 9.507812 11.832031 9.578125 11.828125 9.671875 C 11.828125 9.746094 11.832031 9.800781 11.835938 9.847656 C 11.84375 9.890625 11.851562 9.925781 11.859375 9.960938 L 12.1875 9.960938 L 12.1875 9.921875 C 12.15625 9.914062 12.140625 9.886719 12.132812 9.851562 C 12.125 9.8125 12.125 9.742188 12.125 9.640625 C 12.125 9.511719 12.109375 9.425781 12.078125 9.378906 C 12.046875 9.335938 12.003906 9.300781 11.945312 9.28125 C 12.015625 9.257812 12.070312 9.214844 12.105469 9.152344 C 12.144531 9.09375 12.164062 9.023438 12.164062 8.945312 C 12.164062 8.902344 12.15625 8.847656 12.132812 8.785156 C 12.109375 8.722656 12.066406 8.667969 12 8.621094 C 11.9375 8.574219 11.84375 8.546875 11.71875 8.542969 L 11.003906 8.542969 Z M 11.292969 9.167969 L 11.292969 8.789062 L 11.660156 8.789062 C 11.746094 8.792969 11.800781 8.8125 11.828125 8.851562 C 11.859375 8.894531 11.871094 8.933594 11.867188 8.972656 C 11.867188 9.042969 11.851562 9.09375 11.8125 9.121094 C 11.773438 9.152344 11.714844 9.167969 11.640625 9.167969 Z M 12.746094 9.480469 L 12.882812 9.339844 L 13.320312 9.960938 L 13.699219 9.960938 L 13.089844 9.125 L 13.667969 8.542969 L 13.285156 8.542969 L 12.746094 9.121094 L 12.746094 8.542969 L 12.449219 8.542969 L 12.449219 9.960938 L 12.746094 9.960938 Z M 14.152344 9.667969 L 14.671875 9.667969 L 14.765625 9.960938 L 15.085938 9.960938 L 14.585938 8.542969 L 14.246094 8.542969 L 13.742188 9.960938 L 14.054688 9.960938 Z M 14.410156 8.863281 L 14.414062 8.863281 L 14.589844 9.421875 L 14.230469 9.421875 Z M 16.140625 9.53125 L 16.136719 9.53125 L 15.574219 8.542969 L 15.261719 8.542969 L 15.261719 9.960938 L 15.539062 9.960938 L 15.539062 8.949219 L 15.542969 8.949219 L 16.121094 9.960938 L 16.414062 9.960938 L 16.414062 8.542969 L 16.140625 8.542969 Z M 16.628906 9.523438 C 16.625 9.585938 16.640625 9.652344 16.667969 9.722656 C 16.699219 9.796875 16.757812 9.859375 16.847656 9.914062 C 16.933594 9.964844 17.0625 9.996094 17.234375 9.996094 C 17.277344 10 17.34375 9.992188 17.433594 9.972656 C 17.519531 9.953125 17.601562 9.910156 17.671875 9.84375 C 17.746094 9.777344 17.785156 9.671875 17.789062 9.535156 C 17.789062 9.410156 17.75 9.320312 17.679688 9.265625 C 17.605469 9.210938 17.519531 9.171875 17.421875 9.152344 L 17.074219 9.070312 C 17.042969 9.0625 17.011719 9.050781 16.976562 9.03125 C 16.945312 9.011719 16.929688 8.972656 16.925781 8.921875 C 16.929688 8.859375 16.957031 8.8125 17.007812 8.789062 C 17.058594 8.761719 17.113281 8.75 17.171875 8.75 C 17.296875 8.757812 17.375 8.785156 17.410156 8.832031 C 17.445312 8.882812 17.460938 8.925781 17.460938 8.964844 L 17.746094 8.964844 C 17.746094 8.902344 17.730469 8.839844 17.699219 8.769531 C 17.664062 8.699219 17.609375 8.636719 17.527344 8.585938 C 17.449219 8.535156 17.335938 8.507812 17.195312 8.507812 C 17.042969 8.507812 16.925781 8.535156 16.847656 8.585938 C 16.769531 8.632812 16.714844 8.691406 16.6875 8.757812 C 16.660156 8.828125 16.648438 8.886719 16.648438 8.941406 C 16.652344 9.09375 16.699219 9.195312 16.789062 9.246094 C 16.875 9.300781 16.980469 9.335938 17.097656 9.359375 L 17.25 9.394531 C 17.328125 9.410156 17.386719 9.429688 17.433594 9.453125 C 17.480469 9.476562 17.503906 9.515625 17.507812 9.570312 C 17.503906 9.640625 17.472656 9.691406 17.410156 9.71875 C 17.351562 9.742188 17.285156 9.753906 17.210938 9.753906 C 17.085938 9.746094 17.003906 9.71875 16.964844 9.667969 C 16.925781 9.617188 16.910156 9.566406 16.910156 9.523438 Z M 18.316406 9.667969 L 18.839844 9.667969 L 18.929688 9.960938 L 19.25 9.960938 L 18.753906 8.542969 L 18.410156 8.542969 L 17.90625 9.960938 L 18.21875 9.960938 Z M 18.578125 8.863281 L 18.582031 8.863281 L 18.757812 9.421875 L 18.394531 9.421875 Z M 19.367188 9.523438 C 19.367188 9.585938 19.378906 9.652344 19.410156 9.722656 C 19.441406 9.796875 19.5 9.859375 19.585938 9.914062 C 19.675781 9.964844 19.804688 9.996094 19.972656 9.996094 C 20.019531 10 20.085938 9.992188 20.171875 9.972656 C 20.261719 9.953125 20.339844 9.910156 20.414062 9.84375 C 20.488281 9.777344 20.527344 9.671875 20.53125 9.535156 C 20.527344 9.410156 20.492188 9.320312 20.417969 9.265625 C 20.347656 9.210938 20.261719 9.171875 20.160156 9.152344 L 19.816406 9.070312 C 19.785156 9.0625 19.75 9.050781 19.71875 9.03125 C 19.6875 9.011719 19.667969 8.972656 19.667969 8.921875 C 19.667969 8.859375 19.695312 8.8125 19.746094 8.789062 C 19.796875 8.761719 19.851562 8.75 19.914062 8.75 C 20.039062 8.757812 20.117188 8.785156 20.152344 8.832031 C 20.1875 8.882812 20.203125 8.925781 20.203125 8.964844 L 20.484375 8.964844 C 20.488281 8.902344 20.472656 8.839844 20.4375 8.769531 C 20.40625 8.699219 20.351562 8.636719 20.269531 8.585938 C 20.191406 8.535156 20.078125 8.507812 19.933594 8.507812 C 19.78125 8.507812 19.667969 8.535156 19.589844 8.585938 C 19.511719 8.632812 19.457031 8.691406 19.429688 8.757812 C 19.402344 8.828125 19.386719 8.886719 19.390625 8.941406 C 19.394531 9.09375 19.441406 9.195312 19.53125 9.246094 C 19.617188 9.300781 19.722656 9.335938 19.839844 9.359375 L 19.992188 9.394531 C 20.066406 9.410156 20.128906 9.429688 20.175781 9.453125 C 20.222656 9.476562 20.246094 9.515625 20.246094 9.570312 C 20.246094 9.640625 20.210938 9.691406 20.152344 9.71875 C 20.09375 9.742188 20.027344 9.753906 19.953125 9.753906 C 19.828125 9.746094 19.746094 9.71875 19.707031 9.667969 C 19.667969 9.617188 19.648438 9.566406 19.652344 9.523438 Z M 19.367188 9.523438 "/>
<path style=" stroke:none;fill-rule:nonzero;fill:rgb(100%,100%,100%);fill-opacity:1;" d="M 15.300781 3.332031 L 14.929688 3.066406 L 14.5625 3.332031 L 14.703125 2.902344 L 14.335938 2.632812 L 14.789062 2.632812 L 14.929688 2.199219 L 15.070312 2.632812 L 15.523438 2.632812 L 15.15625 2.898438 Z M 15.300781 3.332031 "/>
<path style=" stroke:none;fill-rule:nonzero;fill:rgb(0%,15.686275%,40.784314%);fill-opacity:1;" d="M 15.664062 12.667969 L 15 13.140625 L 14.335938 12.667969 L 14.589844 13.429688 L 13.925781 13.902344 L 14.746094 13.902344 L 15 14.667969 L 15.253906 13.902344 L 16.074219 13.902344 L 15.410156 13.429688 Z M 15.664062 12.667969 "/>
<path style=" stroke:none;fill-rule:nonzero;fill:rgb(0%,15.686275%,40.784314%);fill-opacity:1;" d="M 13.511719 12.667969 L 12.847656 12.195312 L 12.183594 12.667969 L 12.4375 11.902344 L 11.773438 11.429688 L 12.59375 11.429688 L 12.847656 10.667969 L 13.101562 11.429688 L 13.925781 11.429688 L 13.261719 11.902344 Z M 13.511719 12.667969 "/>
<path style=" stroke:none;fill-rule:nonzero;fill:rgb(100%,100%,100%);fill-opacity:1;" d="M 14.398438 16.234375 L 14.132812 16.605469 L 14.398438 16.972656 L 13.96875 16.832031 L 13.699219 17.199219 L 13.699219 16.746094 L 13.265625 16.605469 L 13.699219 16.464844 L 13.699219 16.011719 L 13.964844 16.378906 Z M 14.398438 16.234375 "/>
<path style=" stroke:none;fill-rule:nonzero;fill:rgb(100%,100%,100%);fill-opacity:1;" d="M 15.535156 16.234375 L 15.800781 16.605469 L 15.535156 16.972656 L 15.964844 16.832031 L 16.234375 17.199219 L 16.234375 16.746094 L 16.667969 16.605469 L 16.234375 16.464844 L 16.234375 16.011719 L 15.96875 16.378906 Z M 15.535156 16.234375 "/>
<path style=" stroke:none;fill-rule:nonzero;fill:rgb(0%,15.686275%,40.784314%);fill-opacity:1;" d="M 17.816406 12.667969 L 17.152344 12.195312 L 16.484375 12.667969 L 16.738281 11.902344 L 16.074219 11.429688 L 16.898438 11.429688 L 17.152344 10.667969 L 17.40625 11.429688 L 18.226562 11.429688 L 17.5625 11.902344 Z M 17.816406 12.667969 "/>
<path style=" stroke:none;fill-rule:nonzero;fill:rgb(0%,15.686275%,40.784314%);fill-opacity:1;" d="M 15.664062 7 L 15 6.527344 L 14.335938 7 L 14.589844 6.234375 L 13.925781 5.761719 L 14.746094 5.765625 L 15 5 L 15.253906 5.761719 L 16.074219 5.765625 L 15.410156 6.234375 Z M 15.664062 7 "/>
<path style=" stroke:none;fill-rule:nonzero;fill:rgb(100%,100%,100%);fill-opacity:1;" d="M 24.496094 8.304688 L 24.230469 8.671875 L 24.5 9.039062 L 24.066406 8.898438 L 23.800781 9.265625 L 23.796875 8.8125 L 23.363281 8.671875 L 23.796875 8.53125 L 23.796875 8.078125 L 24.066406 8.445312 Z M 24.496094 8.304688 "/>
<path style=" stroke:none;fill-rule:nonzero;fill:rgb(100%,100%,100%);fill-opacity:1;" d="M 22.695312 7.101562 L 22.429688 7.472656 L 22.699219 7.839844 L 22.265625 7.699219 L 22 8.066406 L 22 7.613281 L 21.566406 7.472656 L 21.996094 7.332031 L 21.996094 6.875 L 22.265625 7.242188 Z M 22.695312 7.101562 "/>
<path style=" stroke:none;fill-rule:nonzero;fill:rgb(100%,100%,100%);fill-opacity:1;" d="M 20.898438 5.902344 L 20.628906 6.269531 L 20.898438 6.636719 L 20.464844 6.5 L 20.199219 6.867188 L 20.199219 6.414062 L 19.765625 6.273438 L 20.199219 6.132812 L 20.195312 5.675781 L 20.464844 6.042969 Z M 20.898438 5.902344 "/>
<path style=" stroke:none;fill-rule:nonzero;fill:rgb(100%,100%,100%);fill-opacity:1;" d="M 19.097656 4.769531 L 18.832031 5.136719 L 19.097656 5.503906 L 18.664062 5.363281 L 18.398438 5.734375 L 18.398438 5.277344 L 17.964844 5.140625 L 18.398438 4.996094 L 18.398438 4.542969 L 18.664062 4.910156 Z M 19.097656 4.769531 "/>
<path style=" stroke:none;fill-rule:nonzero;fill:rgb(100%,100%,100%);fill-opacity:1;" d="M 17.296875 3.570312 L 17.03125 3.9375 L 17.296875 4.304688 L 16.867188 4.164062 L 16.597656 4.535156 L 16.597656 4.078125 L 16.164062 3.9375 L 16.597656 3.796875 L 16.597656 3.34375 L 16.863281 3.710938 Z M 17.296875 3.570312 "/>
<path style=" stroke:none;fill-rule:nonzero;fill:rgb(100%,100%,100%);fill-opacity:1;" d="M 6.398438 10.769531 L 6.132812 11.136719 L 6.398438 11.503906 L 5.96875 11.363281 L 5.699219 11.734375 L 5.699219 11.277344 L 5.265625 11.140625 L 5.699219 10.996094 L 5.699219 10.542969 L 5.964844 10.910156 Z M 6.398438 10.769531 "/>
<path style=" stroke:none;fill-rule:nonzero;fill:rgb(100%,100%,100%);fill-opacity:1;" d="M 8 11.835938 L 7.730469 12.203125 L 8 12.570312 L 7.566406 12.433594 L 7.300781 12.800781 L 7.300781 12.34375 L 6.867188 12.207031 L 7.300781 12.066406 L 7.296875 11.609375 L 7.566406 11.976562 Z M 8 11.835938 "/>
<path style=" stroke:none;fill-rule:nonzero;fill:rgb(100%,100%,100%);fill-opacity:1;" d="M 9.597656 12.902344 L 9.332031 13.269531 L 9.601562 13.636719 L 9.167969 13.5 L 8.898438 13.867188 L 8.898438 13.414062 L 8.464844 13.273438 L 8.898438 13.132812 L 8.898438 12.675781 L 9.167969 13.042969 Z M 9.597656 12.902344 "/>
<path style=" stroke:none;fill-rule:nonzero;fill:rgb(100%,100%,100%);fill-opacity:1;" d="M 11.199219 14.035156 L 10.933594 14.402344 L 11.199219 14.773438 L 10.765625 14.632812 L 10.5 15 L 10.5 14.546875 L 10.066406 14.40625 L 10.5 14.265625 L 10.5 13.808594 L 10.765625 14.175781 Z M 11.199219 14.035156 "/>
<path style=" stroke:none;fill-rule:nonzero;fill:rgb(100%,100%,100%);fill-opacity:1;" d="M 12.796875 15.101562 L 12.53125 15.472656 L 12.800781 15.839844 L 12.367188 15.699219 L 12.101562 16.066406 L 12.097656 15.613281 L 11.667969 15.472656 L 12.097656 15.332031 L 12.097656 14.875 L 12.367188 15.242188 Z M 12.796875 15.101562 "/>
<path style=" stroke:none;fill-rule:nonzero;fill:rgb(100%,100%,100%);fill-opacity:1;" d="M 4.796875 9.632812 L 4.53125 10 L 4.800781 10.367188 L 4.367188 10.226562 L 4.101562 10.59375 L 4.097656 10.140625 L 3.667969 10 L 4.097656 9.859375 L 4.097656 9.40625 L 4.367188 9.773438 Z M 4.796875 9.632812 "/>
<path style=" stroke:none;fill-rule:nonzero;fill:rgb(100%,100%,100%);fill-opacity:1;" d="M 5.46875 8.304688 L 5.734375 8.671875 L 5.464844 9.039062 L 5.898438 8.898438 L 6.167969 9.265625 L 6.167969 8.8125 L 6.601562 8.671875 L 6.167969 8.53125 L 6.167969 8.078125 L 5.902344 8.445312 Z M 5.46875 8.304688 "/>
<path style=" stroke:none;fill-rule:nonzero;fill:rgb(100%,100%,100%);fill-opacity:1;" d="M 7.269531 7.101562 L 7.535156 7.472656 L 7.265625 7.839844 L 7.699219 7.699219 L 7.964844 8.066406 L 7.96875 7.613281 L 8.398438 7.472656 L 7.96875 7.332031 L 7.96875 6.875 L 7.699219 7.242188 Z M 7.269531 7.101562 "/>
<path style=" stroke:none;fill-rule:nonzero;fill:rgb(100%,100%,100%);fill-opacity:1;" d="M 9.066406 5.902344 L 9.335938 6.269531 L 9.066406 6.636719 L 9.5 6.5 L 9.765625 6.867188 L 9.765625 6.414062 L 10.199219 6.273438 L 9.769531 6.132812 L 9.769531 5.675781 L 9.5 6.042969 Z M 9.066406 5.902344 "/>
<path style=" stroke:none;fill-rule:nonzero;fill:rgb(100%,100%,100%);fill-opacity:1;" d="M 10.867188 4.769531 L 11.132812 5.136719 L 10.867188 5.503906 L 11.300781 5.363281 L 11.566406 5.734375 L 11.566406 5.277344 L 12 5.140625 L 11.566406 4.996094 L 11.570312 4.542969 L 11.300781 4.910156 Z M 10.867188 4.769531 "/>
<path style=" stroke:none;fill-rule:nonzero;fill:rgb(100%,100%,100%);fill-opacity:1;" d="M 12.667969 3.570312 L 12.933594 3.9375 L 12.667969 4.304688 L 13.097656 4.164062 L 13.367188 4.535156 L 13.367188 4.078125 L 13.800781 3.9375 L 13.367188 3.796875 L 13.367188 3.34375 L 13.101562 3.710938 Z M 12.667969 3.570312 "/>
<path style=" stroke:none;fill-rule:nonzero;fill:rgb(100%,100%,100%);fill-opacity:1;" d="M 25.132812 9.632812 L 25.402344 10 L 25.132812 10.367188 L 25.566406 10.226562 L 25.832031 10.59375 L 25.832031 10.140625 L 26.265625 10 L 25.835938 9.859375 L 25.835938 9.40625 L 25.566406 9.773438 Z M 25.132812 9.632812 "/>
<path style=" stroke:none;fill-rule:nonzero;fill:rgb(100%,100%,100%);fill-opacity:1;" d="M 23.535156 10.769531 L 23.800781 11.136719 L 23.535156 11.503906 L 23.964844 11.363281 L 24.234375 11.734375 L 24.234375 11.277344 L 24.667969 11.140625 L 24.234375 10.996094 L 24.234375 10.542969 L 23.96875 10.910156 Z M 23.535156 10.769531 "/>
<path style=" stroke:none;fill-rule:nonzero;fill:rgb(100%,100%,100%);fill-opacity:1;" d="M 21.933594 11.835938 L 22.203125 12.203125 L 21.933594 12.570312 L 22.367188 12.433594 L 22.632812 12.800781 L 22.632812 12.34375 L 23.066406 12.207031 L 22.632812 12.066406 L 22.636719 11.609375 L 22.367188 11.976562 Z M 21.933594 11.835938 "/>
<path style=" stroke:none;fill-rule:nonzero;fill:rgb(100%,100%,100%);fill-opacity:1;" d="M 20.335938 12.902344 L 20.601562 13.269531 L 20.332031 13.636719 L 20.765625 13.5 L 21.03125 13.867188 L 21.035156 13.414062 L 21.464844 13.273438 L 21.035156 13.132812 L 21.035156 12.675781 L 20.765625 13.042969 Z M 20.335938 12.902344 "/>
<path style=" stroke:none;fill-rule:nonzero;fill:rgb(100%,100%,100%);fill-opacity:1;" d="M 18.734375 14.035156 L 19 14.402344 L 18.734375 14.773438 L 19.167969 14.632812 L 19.433594 15 L 19.433594 14.546875 L 19.867188 14.40625 L 19.433594 14.265625 L 19.433594 13.808594 L 19.167969 14.175781 Z M 18.734375 14.035156 "/>
<path style=" stroke:none;fill-rule:nonzero;fill:rgb(100%,100%,100%);fill-opacity:1;" d="M 17.132812 15.101562 L 17.402344 15.472656 L 17.132812 15.839844 L 17.566406 15.699219 L 17.832031 16.066406 L 17.832031 15.613281 L 18.265625 15.472656 L 17.835938 15.332031 L 17.835938 14.875 L 17.566406 15.242188 Z M 17.132812 15.101562 "/>
</g>
</svg>
