<?xml version="1.0" encoding="UTF-8"?>
<svg xmlns="http://www.w3.org/2000/svg" xmlns:xlink="http://www.w3.org/1999/xlink" width="32pt" height="20pt" viewBox="0 0 32 20" version="1.1">
<g id="surface1">
<rect x="0" y="0" width="32" height="20" style="fill:rgb(100%,100%,100%);fill-opacity:1;stroke:none;"/>
<path style=" stroke:none;fill-rule:nonzero;fill:rgb(70.980392%,0%,15.294118%);fill-opacity:1;" d="M 0 0 L 32 0 L 32 6.667969 L 0 6.667969 Z M 0 0 "/>
<path style=" stroke:none;fill-rule:nonzero;fill:rgb(0%,14.509804%,46.666667%);fill-opacity:1;" d="M 0 0 L 13.332031 0 L 13.332031 13.332031 L 0 13.332031 Z M 0 0 "/>
<path style=" stroke:none;fill-rule:evenodd;fill:rgb(100%,100%,100%);fill-opacity:1;" d="M 6.6875 0.925781 L 6.5 1.476562 L 5.917969 1.464844 L 6.382812 1.816406 L 6.195312 2.363281 L 6.671875 2.03125 L 7.136719 2.378906 L 6.964844 1.824219 L 7.441406 1.488281 L 6.859375 1.480469 Z M 6.6875 0.925781 "/>
<path style=" stroke:none;fill-rule:evenodd;fill:rgb(100%,100%,100%);fill-opacity:1;" d="M 4.015625 1.566406 L 4.105469 2.140625 L 3.589844 2.402344 L 4.164062 2.496094 L 4.253906 3.070312 L 4.515625 2.550781 L 5.089844 2.644531 L 4.679688 2.230469 L 4.945312 1.714844 L 4.425781 1.976562 Z M 4.015625 1.566406 "/>
<path style=" stroke:none;fill-rule:evenodd;fill:rgb(100%,100%,100%);fill-opacity:1;" d="M 1.945312 3.386719 L 2.289062 3.851562 L 1.953125 4.324219 L 2.503906 4.140625 L 2.851562 4.605469 L 2.84375 4.027344 L 3.394531 3.839844 L 2.839844 3.667969 L 2.835938 3.085938 L 2.5 3.558594 Z M 1.945312 3.386719 "/>
<path style=" stroke:none;fill-rule:evenodd;fill:rgb(100%,100%,100%);fill-opacity:1;" d="M 0.96875 5.957031 L 1.492188 6.207031 L 1.414062 6.785156 L 1.816406 6.363281 L 2.339844 6.617188 L 2.0625 6.105469 L 2.464844 5.683594 L 1.894531 5.789062 L 1.617188 5.277344 L 1.539062 5.851562 Z M 0.96875 5.957031 "/>
<path style=" stroke:none;fill-rule:evenodd;fill:rgb(100%,100%,100%);fill-opacity:1;" d="M 1.285156 8.679688 L 1.867188 8.660156 L 2.066406 9.207031 L 2.226562 8.648438 L 2.804688 8.628906 L 2.324219 8.300781 L 2.484375 7.742188 L 2.027344 8.101562 L 1.546875 7.773438 L 1.742188 8.320312 Z M 1.285156 8.679688 "/>
<path style=" stroke:none;fill-rule:evenodd;fill:rgb(100%,100%,100%);fill-opacity:1;" d="M 2.839844 10.957031 L 3.34375 10.667969 L 3.773438 11.0625 L 3.65625 10.492188 L 4.160156 10.203125 L 3.582031 10.140625 L 3.464844 9.570312 L 3.226562 10.101562 L 2.648438 10.035156 L 3.078125 10.425781 Z M 2.839844 10.957031 "/>
<path style=" stroke:none;fill-rule:evenodd;fill:rgb(100%,100%,100%);fill-opacity:1;" d="M 5.273438 12.238281 L 5.589844 11.75 L 6.152344 11.898438 L 5.78125 11.449219 L 6.097656 10.957031 L 5.554688 11.167969 L 5.1875 10.71875 L 5.21875 11.300781 L 4.679688 11.511719 L 5.242188 11.660156 Z M 5.273438 12.238281 "/>
<path style=" stroke:none;fill-rule:evenodd;fill:rgb(100%,100%,100%);fill-opacity:1;" d="M 8.015625 12.25 L 8.066406 11.671875 L 8.632812 11.539062 L 8.097656 11.3125 L 8.148438 10.734375 L 7.765625 11.171875 L 7.230469 10.945312 L 7.53125 11.441406 L 7.148438 11.882812 L 7.714844 11.75 Z M 8.015625 12.25 "/>
<path style=" stroke:none;fill-rule:evenodd;fill:rgb(100%,100%,100%);fill-opacity:1;" d="M 10.460938 10.984375 L 10.238281 10.449219 L 10.675781 10.070312 L 10.097656 10.117188 L 9.875 9.582031 L 9.738281 10.148438 L 9.160156 10.195312 L 9.65625 10.496094 L 9.523438 11.0625 L 9.964844 10.683594 Z M 10.460938 10.984375 "/>
<path style=" stroke:none;fill-rule:evenodd;fill:rgb(100%,100%,100%);fill-opacity:1;" d="M 12.03125 8.71875 L 11.582031 8.351562 L 11.796875 7.808594 L 11.308594 8.121094 L 10.859375 7.75 L 11.003906 8.3125 L 10.511719 8.625 L 11.09375 8.660156 L 11.238281 9.222656 L 11.453125 8.683594 Z M 12.03125 8.71875 "/>
<path style=" stroke:none;fill-rule:evenodd;fill:rgb(100%,100%,100%);fill-opacity:1;" d="M 11.414062 3.421875 L 10.851562 3.582031 L 10.53125 3.097656 L 10.507812 3.679688 L 9.949219 3.835938 L 10.492188 4.039062 L 10.472656 4.617188 L 10.832031 4.160156 L 11.375 4.363281 L 11.054688 3.878906 Z M 11.414062 3.421875 "/>
<path style=" stroke:none;fill-rule:evenodd;fill:rgb(100%,100%,100%);fill-opacity:1;" d="M 9.355469 1.589844 L 8.933594 1.988281 L 8.421875 1.710938 L 8.671875 2.234375 L 8.25 2.632812 L 8.828125 2.558594 L 9.078125 3.082031 L 9.183594 2.511719 L 9.757812 2.4375 L 9.25 2.160156 Z M 9.355469 1.589844 "/>
<path style=" stroke:none;fill-rule:evenodd;fill:rgb(100%,100%,100%);fill-opacity:1;" d="M 12.367188 6 L 11.800781 5.878906 L 11.738281 5.300781 L 11.449219 5.804688 L 10.878906 5.683594 L 11.269531 6.117188 L 10.980469 6.621094 L 11.511719 6.382812 L 11.898438 6.8125 L 11.839844 6.234375 Z M 12.367188 6 "/>
<path style="fill-rule:evenodd;fill:rgb(98.039216%,71.764706%,0%);fill-opacity:1;stroke-width:1.6333;stroke-linecap:butt;stroke-linejoin:miter;stroke:rgb(98.039216%,71.764706%,0%);stroke-opacity:1;stroke-miterlimit:3.8637;" d="M 918.84375 2089.96875 L 882.5625 2089.96875 L 882.5625 2085.75 C 883.40625 2085.75 885.09375 2085.75 886.78125 2085.75 C 888.46875 2085.75 890.15625 2084.90625 891 2084.90625 C 891.84375 2084.0625 892.6875 2084.0625 893.53125 2083.21875 C 894.375 2082.375 894.375 2080.6875 894.375 2079 L 894.375 2020.78125 C 894.375 2019.09375 894.375 2018.25 893.53125 2017.40625 C 893.53125 2016.5625 892.6875 2015.71875 891 2014.875 C 889.3125 2014.875 888.46875 2014.03125 886.78125 2014.03125 C 885.09375 2013.1875 883.40625 2013.1875 882.5625 2013.1875 L 882.5625 2008.96875 L 918.84375 2008.96875 L 918.84375 2013.1875 C 917.15625 2013.1875 916.3125 2013.1875 914.625 2014.03125 C 912.9375 2014.03125 911.25 2014.03125 910.40625 2014.875 C 908.71875 2014.875 907.875 2015.71875 907.03125 2016.5625 C 907.03125 2018.25 906.1875 2019.09375 906.1875 2019.9375 L 906.1875 2079 C 906.1875 2079.84375 907.03125 2081.53125 907.03125 2082.375 C 907.875 2083.21875 908.71875 2084.0625 910.40625 2084.0625 C 911.25 2084.90625 912.09375 2084.90625 913.78125 2085.75 C 915.46875 2085.75 917.15625 2085.75 918.84375 2085.75 Z M 918.84375 2089.96875 " transform="matrix(0.00462963,0,0,0.00462963,0,0)"/>
<path style="fill-rule:evenodd;fill:rgb(98.039216%,71.764706%,0%);fill-opacity:1;stroke-width:1.6333;stroke-linecap:butt;stroke-linejoin:miter;stroke:rgb(98.039216%,71.764706%,0%);stroke-opacity:1;stroke-miterlimit:3.8637;" d="M 1018.40625 2013.1875 C 1017.5625 2013.1875 1015.875 2013.1875 1013.34375 2014.03125 C 1010.8125 2014.875 1009.96875 2015.71875 1008.28125 2015.71875 C 1007.4375 2016.5625 1006.59375 2019.09375 1005.75 2021.625 C 1005.75 2024.15625 1004.90625 2027.53125 1004.90625 2031.75 L 1004.90625 2090.8125 L 999.84375 2090.8125 L 950.90625 2025 L 950.90625 2066.34375 C 950.90625 2071.40625 951.75 2074.78125 952.59375 2077.3125 C 952.59375 2079.84375 953.4375 2081.53125 955.125 2082.375 C 955.96875 2083.21875 957.65625 2084.0625 960.1875 2084.90625 C 962.71875 2085.75 965.25 2085.75 966.09375 2085.75 L 966.09375 2089.96875 L 932.34375 2089.96875 L 932.34375 2085.75 C 934.03125 2085.75 935.71875 2085.75 937.40625 2084.90625 C 939.9375 2084.0625 941.625 2083.21875 942.46875 2083.21875 C 943.3125 2082.375 944.15625 2080.6875 945 2078.15625 C 945.84375 2075.625 945.84375 2072.25 945.84375 2067.1875 L 945.84375 2027.53125 C 945.84375 2025.84375 945.84375 2023.3125 945 2021.625 C 944.15625 2019.9375 943.3125 2019.09375 942.46875 2018.25 C 940.78125 2016.5625 939.09375 2015.71875 936.5625 2014.875 C 934.875 2014.03125 932.34375 2013.1875 931.5 2013.1875 L 931.5 2008.96875 L 954.28125 2008.96875 L 999.84375 2070.5625 L 999.84375 2032.59375 C 999.84375 2027.53125 999 2024.15625 999 2021.625 C 998.15625 2019.09375 997.3125 2017.40625 996.46875 2016.5625 C 994.78125 2015.71875 993.09375 2014.875 990.5625 2014.03125 C 988.875 2014.03125 986.34375 2013.1875 985.5 2013.1875 L 985.5 2008.96875 L 1018.40625 2008.96875 Z M 1018.40625 2013.1875 " transform="matrix(0.00462963,0,0,0.00462963,0,0)"/>
<path style="fill-rule:evenodd;fill:rgb(98.039216%,71.764706%,0%);fill-opacity:1;stroke-width:1.6333;stroke-linecap:butt;stroke-linejoin:miter;stroke:rgb(98.039216%,71.764706%,0%);stroke-opacity:1;stroke-miterlimit:3.8637;" d="M 1137.375 2057.90625 C 1136.53125 2057.90625 1134.84375 2057.90625 1134 2057.90625 C 1132.3125 2058.75 1130.625 2058.75 1129.78125 2059.59375 C 1128.9375 2059.59375 1128.09375 2060.4375 1127.25 2062.125 C 1127.25 2062.96875 1127.25 2063.8125 1127.25 2065.5 L 1127.25 2071.40625 C 1127.25 2076.46875 1127.25 2079 1127.25 2080.6875 C 1127.25 2082.375 1127.25 2084.0625 1127.25 2084.90625 C 1122.1875 2087.4375 1117.125 2089.125 1112.0625 2089.96875 C 1107 2091.65625 1101.9375 2091.65625 1097.71875 2091.65625 C 1091.8125 2091.65625 1087.59375 2090.8125 1082.53125 2089.125 C 1077.46875 2087.4375 1073.25 2084.0625 1069.875 2080.6875 C 1066.5 2077.3125 1063.125 2073.09375 1061.4375 2067.1875 C 1058.90625 2062.125 1058.0625 2056.21875 1058.0625 2050.3125 C 1058.0625 2044.40625 1058.90625 2038.5 1061.4375 2033.4375 C 1063.125 2027.53125 1065.65625 2023.3125 1069.875 2019.09375 C 1073.25 2015.71875 1077.46875 2012.34375 1082.53125 2010.65625 C 1087.59375 2008.125 1092.65625 2007.28125 1098.5625 2007.28125 C 1103.625 2007.28125 1107 2008.125 1110.375 2008.96875 C 1113.75 2009.8125 1117.125 2011.5 1119.65625 2013.1875 L 1122.1875 2008.96875 L 1126.40625 2008.96875 L 1127.25 2037.65625 L 1122.1875 2037.65625 C 1121.34375 2034.28125 1120.5 2030.90625 1119.65625 2028.375 C 1117.96875 2025 1116.28125 2022.46875 1114.59375 2019.9375 C 1112.90625 2017.40625 1110.375 2015.71875 1107.84375 2014.03125 C 1105.3125 2013.1875 1101.9375 2012.34375 1098.5625 2012.34375 C 1094.34375 2012.34375 1090.96875 2013.1875 1087.59375 2014.875 C 1084.21875 2016.5625 1081.6875 2019.09375 1079.15625 2022.46875 C 1076.625 2025 1074.9375 2029.21875 1074.09375 2034.28125 C 1072.40625 2038.5 1071.5625 2043.5625 1071.5625 2049.46875 C 1071.5625 2054.53125 1072.40625 2059.59375 1074.09375 2063.8125 C 1074.9375 2068.875 1076.625 2072.25 1079.15625 2075.625 C 1081.6875 2079 1084.21875 2082.375 1087.59375 2084.0625 C 1091.8125 2085.75 1095.1875 2086.59375 1100.25 2086.59375 C 1103.625 2086.59375 1106.15625 2086.59375 1108.6875 2084.90625 C 1112.0625 2084.0625 1113.75 2083.21875 1114.59375 2082.375 C 1115.4375 2079.84375 1115.4375 2078.15625 1115.4375 2076.46875 C 1115.4375 2073.9375 1115.4375 2072.25 1115.4375 2070.5625 L 1115.4375 2066.34375 C 1115.4375 2064.65625 1115.4375 2063.8125 1114.59375 2062.125 C 1114.59375 2061.28125 1113.75 2060.4375 1112.0625 2059.59375 C 1111.21875 2058.75 1109.53125 2058.75 1107 2057.90625 C 1104.46875 2057.90625 1102.78125 2057.90625 1101.9375 2057.90625 L 1101.9375 2053.6875 L 1137.375 2053.6875 Z M 1137.375 2057.90625 " transform="matrix(0.00462963,0,0,0.00462963,0,0)"/>
<path style="fill-rule:evenodd;fill:rgb(98.039216%,71.764706%,0%);fill-opacity:1;stroke-width:1.6333;stroke-linecap:butt;stroke-linejoin:miter;stroke:rgb(98.039216%,71.764706%,0%);stroke-opacity:1;stroke-miterlimit:3.8637;" d="M 1216.6875 2019.09375 C 1220.0625 2022.46875 1223.4375 2026.6875 1225.125 2032.59375 C 1226.8125 2037.65625 1228.5 2043.5625 1228.5 2049.46875 C 1228.5 2056.21875 1226.8125 2062.125 1225.125 2067.1875 C 1223.4375 2072.25 1220.0625 2076.46875 1216.6875 2080.6875 C 1213.3125 2084.0625 1209.09375 2087.4375 1204.03125 2089.125 C 1199.8125 2090.8125 1194.75 2091.65625 1189.6875 2091.65625 C 1183.78125 2091.65625 1178.71875 2090.8125 1173.65625 2089.125 C 1168.59375 2086.59375 1165.21875 2084.0625 1161.84375 2079.84375 C 1158.46875 2076.46875 1155.09375 2072.25 1153.40625 2066.34375 C 1151.71875 2061.28125 1150.875 2055.375 1150.875 2049.46875 C 1150.875 2042.71875 1151.71875 2037.65625 1153.40625 2031.75 C 1155.9375 2026.6875 1158.46875 2022.46875 1161.84375 2019.09375 C 1166.0625 2014.875 1169.4375 2012.34375 1174.5 2009.8125 C 1179.5625 2008.125 1183.78125 2007.28125 1189.6875 2007.28125 C 1194.75 2007.28125 1199.8125 2008.125 1204.875 2010.65625 C 1209.09375 2012.34375 1213.3125 2014.875 1216.6875 2019.09375 Z M 1208.25 2076.46875 C 1210.78125 2072.25 1211.625 2068.875 1212.46875 2064.65625 C 1214.15625 2059.59375 1214.15625 2055.375 1214.15625 2049.46875 C 1214.15625 2044.40625 1214.15625 2039.34375 1212.46875 2034.28125 C 1211.625 2030.0625 1209.9375 2025.84375 1208.25 2022.46875 C 1205.71875 2019.09375 1203.1875 2016.5625 1199.8125 2014.875 C 1197.28125 2013.1875 1193.0625 2012.34375 1189.6875 2012.34375 C 1184.625 2012.34375 1181.25 2013.1875 1177.875 2015.71875 C 1174.5 2017.40625 1171.96875 2019.9375 1170.28125 2024.15625 C 1167.75 2027.53125 1166.90625 2030.90625 1166.0625 2035.96875 C 1164.375 2040.1875 1164.375 2044.40625 1164.375 2049.46875 C 1164.375 2055.375 1164.375 2060.4375 1166.0625 2064.65625 C 1166.90625 2068.875 1168.59375 2073.09375 1170.28125 2076.46875 C 1172.8125 2079.84375 1175.34375 2082.375 1177.875 2084.0625 C 1181.25 2085.75 1184.625 2086.59375 1189.6875 2086.59375 C 1193.0625 2086.59375 1197.28125 2085.75 1200.65625 2084.0625 C 1203.1875 2082.375 1206.5625 2079.84375 1208.25 2076.46875 Z M 1208.25 2076.46875 " transform="matrix(0.00462963,0,0,0.00462963,0,0)"/>
<path style="fill-rule:evenodd;fill:rgb(98.039216%,71.764706%,0%);fill-opacity:1;stroke-width:1.6333;stroke-linecap:butt;stroke-linejoin:miter;stroke:rgb(98.039216%,71.764706%,0%);stroke-opacity:1;stroke-miterlimit:3.8637;" d="M 1317.9375 2050.3125 C 1317.9375 2057.0625 1316.25 2062.96875 1313.71875 2068.03125 C 1311.1875 2073.09375 1307.8125 2077.3125 1303.59375 2080.6875 C 1299.375 2083.21875 1295.15625 2085.75 1289.25 2087.4375 C 1284.1875 2089.125 1279.125 2089.96875 1273.21875 2089.96875 L 1240.3125 2089.96875 L 1240.3125 2085.75 C 1241.15625 2085.75 1242.84375 2085.75 1244.53125 2085.75 C 1246.21875 2085.75 1247.0625 2084.90625 1247.90625 2084.90625 C 1248.75 2084.0625 1249.59375 2084.0625 1250.4375 2082.375 C 1250.4375 2081.53125 1251.28125 2080.6875 1251.28125 2079 L 1251.28125 2020.78125 C 1251.28125 2019.9375 1250.4375 2018.25 1250.4375 2017.40625 C 1249.59375 2016.5625 1248.75 2015.71875 1247.90625 2014.875 C 1247.0625 2014.03125 1245.375 2014.03125 1243.6875 2014.03125 C 1242.84375 2013.1875 1241.15625 2013.1875 1240.3125 2013.1875 L 1240.3125 2008.96875 L 1275.75 2008.96875 C 1280.8125 2008.96875 1285.03125 2009.8125 1290.09375 2011.5 C 1295.15625 2013.1875 1298.53125 2014.875 1302.75 2017.40625 C 1306.96875 2020.78125 1311.1875 2025 1313.71875 2030.90625 C 1316.25 2035.96875 1317.9375 2042.71875 1317.9375 2050.3125 Z M 1303.59375 2050.3125 C 1303.59375 2044.40625 1302.75 2039.34375 1301.0625 2035.125 C 1300.21875 2030.90625 1297.6875 2026.6875 1295.15625 2024.15625 C 1292.625 2020.78125 1289.25 2018.25 1285.875 2016.5625 C 1281.65625 2014.875 1277.4375 2014.03125 1273.21875 2014.03125 C 1271.53125 2014.03125 1269.84375 2014.03125 1267.3125 2014.03125 C 1265.625 2014.03125 1263.9375 2014.03125 1263.09375 2014.03125 L 1263.09375 2076.46875 C 1263.09375 2079.84375 1263.9375 2082.375 1266.46875 2083.21875 C 1268.15625 2084.90625 1271.53125 2085.75 1275.75 2085.75 C 1279.96875 2085.75 1284.1875 2084.90625 1288.40625 2082.375 C 1291.78125 2080.6875 1294.3125 2079 1296.84375 2075.625 C 1299.375 2072.25 1301.0625 2068.875 1301.90625 2064.65625 C 1302.75 2060.4375 1303.59375 2055.375 1303.59375 2050.3125 Z M 1303.59375 2050.3125 " transform="matrix(0.00462963,0,0,0.00462963,0,0)"/>
<path style="fill-rule:evenodd;fill:rgb(98.039216%,71.764706%,0%);fill-opacity:1;stroke-width:1.6333;stroke-linecap:butt;stroke-linejoin:miter;stroke:rgb(98.039216%,71.764706%,0%);stroke-opacity:1;stroke-miterlimit:3.8637;" d="M 1471.5 2013.1875 C 1470.65625 2013.1875 1469.8125 2013.1875 1468.125 2014.03125 C 1467.28125 2014.03125 1466.4375 2014.875 1464.75 2015.71875 C 1463.90625 2016.5625 1462.21875 2017.40625 1461.375 2018.25 C 1460.53125 2019.09375 1460.53125 2020.78125 1459.6875 2022.46875 C 1457.15625 2031.75 1453.78125 2041.875 1450.40625 2053.6875 C 1447.03125 2065.5 1442.8125 2078.15625 1438.59375 2090.8125 L 1433.53125 2090.8125 L 1413.28125 2029.21875 L 1392.1875 2090.8125 L 1387.125 2090.8125 C 1382.90625 2078.15625 1379.53125 2063.8125 1375.3125 2049.46875 C 1371.09375 2035.125 1368.5625 2025.84375 1366.875 2020.78125 C 1366.875 2019.9375 1366.03125 2019.09375 1365.1875 2017.40625 C 1365.1875 2016.5625 1364.34375 2015.71875 1362.65625 2014.875 C 1361.8125 2014.875 1360.96875 2014.03125 1359.28125 2014.03125 C 1358.4375 2013.1875 1356.75 2013.1875 1355.90625 2013.1875 L 1355.90625 2008.96875 L 1388.8125 2008.96875 L 1388.8125 2013.1875 C 1386.28125 2013.1875 1383.75 2014.03125 1382.0625 2014.03125 C 1379.53125 2014.875 1378.6875 2014.875 1378.6875 2016.5625 C 1378.6875 2016.5625 1378.6875 2017.40625 1378.6875 2017.40625 C 1378.6875 2018.25 1378.6875 2019.09375 1379.53125 2019.09375 C 1380.375 2022.46875 1381.21875 2028.375 1383.75 2035.96875 C 1386.28125 2043.5625 1389.65625 2055.375 1393.875 2070.5625 L 1414.125 2010.65625 L 1419.1875 2010.65625 L 1439.4375 2071.40625 C 1442.8125 2062.125 1444.5 2053.6875 1447.03125 2046.9375 C 1448.71875 2040.1875 1450.40625 2033.4375 1451.25 2029.21875 C 1452.9375 2025 1452.9375 2023.3125 1452.9375 2021.625 C 1453.78125 2019.9375 1453.78125 2019.09375 1453.78125 2018.25 C 1453.78125 2016.5625 1452.9375 2015.71875 1451.25 2014.875 C 1449.5625 2014.03125 1446.1875 2013.1875 1442.8125 2013.1875 L 1442.8125 2008.96875 L 1471.5 2008.96875 Z M 1471.5 2013.1875 " transform="matrix(0.00462963,0,0,0.00462963,0,0)"/>
<path style="fill-rule:evenodd;fill:rgb(98.039216%,71.764706%,0%);fill-opacity:1;stroke-width:1.6333;stroke-linecap:butt;stroke-linejoin:miter;stroke:rgb(98.039216%,71.764706%,0%);stroke-opacity:1;stroke-miterlimit:3.8637;" d="M 1549.96875 2066.34375 L 1548.28125 2089.96875 L 1481.625 2089.96875 L 1481.625 2085.75 C 1482.46875 2085.75 1484.15625 2085.75 1485.84375 2085.75 C 1488.375 2084.90625 1489.21875 2084.90625 1490.0625 2084.90625 C 1490.90625 2084.0625 1491.75 2083.21875 1492.59375 2082.375 C 1492.59375 2081.53125 1493.4375 2080.6875 1493.4375 2079 L 1493.4375 2020.78125 C 1493.4375 2019.9375 1492.59375 2018.25 1492.59375 2017.40625 C 1491.75 2016.5625 1490.90625 2015.71875 1490.0625 2014.875 C 1489.21875 2014.875 1487.53125 2014.03125 1485.84375 2014.03125 C 1484.15625 2013.1875 1482.46875 2013.1875 1481.625 2013.1875 L 1481.625 2008.96875 L 1544.0625 2008.96875 L 1544.0625 2028.375 L 1539.84375 2028.375 C 1539 2025.84375 1537.3125 2022.46875 1534.78125 2019.09375 C 1532.25 2016.5625 1529.71875 2014.03125 1528.03125 2014.03125 C 1526.34375 2014.03125 1525.5 2014.03125 1523.8125 2014.03125 C 1522.125 2014.03125 1519.59375 2014.03125 1517.90625 2014.03125 L 1505.25 2014.03125 L 1505.25 2046.09375 L 1514.53125 2046.09375 C 1517.0625 2046.09375 1519.59375 2045.25 1520.4375 2045.25 C 1522.125 2044.40625 1522.96875 2043.5625 1524.65625 2041.875 C 1525.5 2041.03125 1525.5 2039.34375 1526.34375 2037.65625 C 1527.1875 2035.96875 1527.1875 2034.28125 1527.1875 2032.59375 L 1532.25 2032.59375 L 1532.25 2063.8125 L 1527.1875 2063.8125 C 1527.1875 2062.125 1527.1875 2060.4375 1526.34375 2058.75 C 1525.5 2056.21875 1524.65625 2054.53125 1524.65625 2053.6875 C 1522.96875 2052.84375 1522.125 2051.15625 1520.4375 2051.15625 C 1518.75 2050.3125 1517.0625 2050.3125 1514.53125 2050.3125 L 1505.25 2050.3125 L 1505.25 2074.78125 C 1505.25 2077.3125 1505.25 2079 1506.09375 2080.6875 C 1506.09375 2081.53125 1506.9375 2083.21875 1507.78125 2083.21875 C 1508.625 2084.0625 1510.3125 2084.90625 1512 2084.90625 C 1513.6875 2084.90625 1516.21875 2085.75 1518.75 2085.75 C 1520.4375 2085.75 1522.125 2085.75 1523.8125 2085.75 C 1526.34375 2085.75 1528.03125 2084.90625 1528.875 2084.90625 C 1530.5625 2084.90625 1532.25 2084.90625 1533.9375 2084.0625 C 1534.78125 2084.0625 1536.46875 2083.21875 1537.3125 2082.375 C 1539 2080.6875 1540.6875 2078.15625 1542.375 2074.78125 C 1544.0625 2070.5625 1545.75 2068.03125 1545.75 2066.34375 Z M 1549.96875 2066.34375 " transform="matrix(0.00462963,0,0,0.00462963,0,0)"/>
<path style="fill-rule:evenodd;fill:rgb(98.039216%,71.764706%,0%);fill-opacity:1;stroke-width:1.6333;stroke-linecap:butt;stroke-linejoin:miter;stroke:rgb(98.039216%,71.764706%,0%);stroke-opacity:1;stroke-miterlimit:3.8637;" d="M 1668.9375 2030.90625 L 1664.71875 2030.90625 C 1664.71875 2030.0625 1663.875 2028.375 1663.03125 2026.6875 C 1662.1875 2024.15625 1661.34375 2022.46875 1660.5 2020.78125 C 1658.8125 2019.09375 1657.96875 2017.40625 1656.28125 2016.5625 C 1655.4375 2014.875 1653.75 2014.03125 1652.90625 2014.03125 C 1651.21875 2014.03125 1649.53125 2014.03125 1647.84375 2014.03125 C 1646.15625 2014.03125 1644.46875 2014.03125 1642.78125 2014.03125 L 1640.25 2014.03125 L 1640.25 2078.15625 C 1640.25 2079.84375 1640.25 2080.6875 1640.25 2081.53125 C 1641.09375 2082.375 1641.9375 2083.21875 1643.625 2084.0625 C 1644.46875 2084.0625 1645.3125 2084.90625 1647.84375 2084.90625 C 1649.53125 2085.75 1651.21875 2085.75 1652.90625 2085.75 L 1652.90625 2089.96875 L 1614.9375 2089.96875 L 1614.9375 2085.75 C 1615.78125 2085.75 1617.46875 2085.75 1619.15625 2085.75 C 1621.6875 2084.90625 1623.375 2084.90625 1624.21875 2084.90625 C 1625.0625 2084.0625 1625.90625 2083.21875 1626.75 2082.375 C 1627.59375 2081.53125 1627.59375 2080.6875 1627.59375 2079 L 1627.59375 2014.03125 L 1624.21875 2014.03125 C 1623.375 2014.03125 1621.6875 2014.03125 1620 2014.03125 C 1618.3125 2014.03125 1616.625 2014.03125 1614.9375 2014.03125 C 1614.09375 2014.03125 1612.40625 2014.875 1610.71875 2016.5625 C 1609.875 2017.40625 1608.1875 2019.09375 1607.34375 2020.78125 C 1606.5 2022.46875 1605.65625 2024.15625 1603.96875 2026.6875 C 1603.125 2028.375 1603.125 2030.0625 1602.28125 2030.90625 L 1598.90625 2030.90625 L 1598.90625 2008.96875 L 1668.9375 2008.96875 Z M 1668.9375 2030.90625 " transform="matrix(0.00462963,0,0,0.00462963,0,0)"/>
<path style="fill-rule:evenodd;fill:rgb(98.039216%,71.764706%,0%);fill-opacity:1;stroke-width:1.6333;stroke-linecap:butt;stroke-linejoin:miter;stroke:rgb(98.039216%,71.764706%,0%);stroke-opacity:1;stroke-miterlimit:3.8637;" d="M 1760.90625 2089.96875 L 1738.96875 2089.96875 C 1733.90625 2082.375 1729.6875 2075.625 1725.46875 2070.5625 C 1722.09375 2064.65625 1717.875 2059.59375 1712.8125 2053.6875 L 1705.21875 2053.6875 L 1705.21875 2079 C 1705.21875 2080.6875 1705.21875 2081.53125 1705.21875 2082.375 C 1706.0625 2083.21875 1706.90625 2084.0625 1708.59375 2084.90625 C 1708.59375 2084.90625 1710.28125 2085.75 1711.96875 2085.75 C 1713.65625 2085.75 1715.34375 2085.75 1716.1875 2085.75 L 1716.1875 2089.96875 L 1682.4375 2089.96875 L 1682.4375 2085.75 C 1683.28125 2085.75 1684.125 2085.75 1685.8125 2085.75 C 1687.5 2085.75 1689.1875 2084.90625 1690.03125 2084.90625 C 1690.875 2084.0625 1691.71875 2083.21875 1691.71875 2082.375 C 1692.5625 2081.53125 1692.5625 2080.6875 1692.5625 2079 L 1692.5625 2020.78125 C 1692.5625 2019.09375 1692.5625 2018.25 1692.5625 2017.40625 C 1691.71875 2015.71875 1690.875 2014.875 1690.03125 2014.875 C 1688.34375 2014.03125 1687.5 2014.03125 1685.8125 2014.03125 C 1684.125 2013.1875 1683.28125 2013.1875 1682.4375 2013.1875 L 1682.4375 2008.96875 L 1719.5625 2008.96875 C 1722.9375 2008.96875 1726.3125 2009.8125 1728.84375 2010.65625 C 1732.21875 2010.65625 1734.75 2012.34375 1737.28125 2014.03125 C 1739.8125 2014.875 1741.5 2017.40625 1742.34375 2019.9375 C 1744.03125 2021.625 1744.875 2025 1744.875 2028.375 C 1744.875 2031.75 1744.03125 2034.28125 1743.1875 2036.8125 C 1742.34375 2039.34375 1740.65625 2041.03125 1738.96875 2042.71875 C 1737.28125 2044.40625 1735.59375 2046.09375 1733.0625 2046.9375 C 1730.53125 2048.625 1728 2049.46875 1725.46875 2050.3125 C 1728.84375 2055.375 1732.21875 2059.59375 1734.75 2063.8125 C 1737.28125 2067.1875 1740.65625 2071.40625 1744.875 2076.46875 C 1746.5625 2079 1748.25 2080.6875 1749.09375 2081.53125 C 1750.78125 2083.21875 1751.625 2084.0625 1753.3125 2084.0625 C 1754.15625 2084.90625 1755.84375 2084.90625 1756.6875 2085.75 C 1758.375 2085.75 1760.0625 2085.75 1760.90625 2085.75 Z M 1730.53125 2030.0625 C 1730.53125 2025 1729.6875 2020.78125 1726.3125 2018.25 C 1723.78125 2014.875 1719.5625 2014.03125 1714.5 2014.03125 L 1705.21875 2014.03125 L 1705.21875 2048.625 L 1712.8125 2048.625 C 1717.875 2048.625 1722.09375 2046.9375 1725.46875 2043.5625 C 1728.84375 2040.1875 1730.53125 2035.125 1730.53125 2030.0625 Z M 1730.53125 2030.0625 " transform="matrix(0.00462963,0,0,0.00462963,0,0)"/>
<path style="fill-rule:evenodd;fill:rgb(98.039216%,71.764706%,0%);fill-opacity:1;stroke-width:1.6333;stroke-linecap:butt;stroke-linejoin:miter;stroke:rgb(98.039216%,71.764706%,0%);stroke-opacity:1;stroke-miterlimit:3.8637;" d="M 1845.28125 2013.1875 C 1844.4375 2013.1875 1842.75 2013.1875 1840.21875 2014.03125 C 1838.53125 2014.03125 1836.84375 2014.875 1835.15625 2015.71875 C 1834.3125 2016.5625 1833.46875 2018.25 1832.625 2021.625 C 1832.625 2024.15625 1831.78125 2027.53125 1831.78125 2030.90625 L 1831.78125 2066.34375 C 1831.78125 2070.5625 1830.9375 2074.78125 1829.25 2078.15625 C 1827.5625 2081.53125 1825.03125 2084.0625 1821.65625 2086.59375 C 1819.125 2088.28125 1815.75 2089.96875 1812.375 2090.8125 C 1809 2091.65625 1805.625 2091.65625 1803.09375 2091.65625 C 1798.03125 2091.65625 1793.8125 2091.65625 1789.59375 2089.96875 C 1786.21875 2089.125 1782.84375 2087.4375 1780.3125 2084.90625 C 1777.78125 2082.375 1776.09375 2079.84375 1774.40625 2077.3125 C 1773.5625 2074.78125 1772.71875 2071.40625 1772.71875 2068.875 L 1772.71875 2020.78125 C 1772.71875 2019.9375 1772.71875 2018.25 1771.875 2017.40625 C 1771.875 2016.5625 1771.03125 2015.71875 1769.34375 2014.875 C 1768.5 2014.875 1766.8125 2014.03125 1765.96875 2014.03125 C 1764.28125 2013.1875 1763.4375 2013.1875 1761.75 2013.1875 L 1761.75 2008.96875 L 1795.5 2008.96875 L 1795.5 2013.1875 C 1794.65625 2013.1875 1792.96875 2013.1875 1791.28125 2014.03125 C 1790.4375 2014.03125 1788.75 2014.03125 1787.90625 2014.875 C 1787.0625 2014.875 1786.21875 2015.71875 1785.375 2016.5625 C 1785.375 2018.25 1784.53125 2019.09375 1784.53125 2019.9375 L 1784.53125 2064.65625 C 1784.53125 2067.1875 1785.375 2069.71875 1785.375 2072.25 C 1786.21875 2073.9375 1787.0625 2076.46875 1788.75 2078.15625 C 1789.59375 2080.6875 1792.125 2082.375 1794.65625 2083.21875 C 1797.1875 2084.90625 1800.5625 2085.75 1804.78125 2085.75 C 1809 2085.75 1812.375 2084.90625 1815.75 2083.21875 C 1818.28125 2082.375 1820.8125 2080.6875 1822.5 2078.15625 C 1823.34375 2076.46875 1825.03125 2073.9375 1825.03125 2072.25 C 1825.875 2069.71875 1826.71875 2067.1875 1826.71875 2065.5 L 1826.71875 2031.75 C 1826.71875 2027.53125 1825.875 2024.15625 1825.875 2021.625 C 1825.03125 2019.09375 1824.1875 2017.40625 1822.5 2016.5625 C 1821.65625 2015.71875 1819.96875 2014.875 1817.4375 2014.03125 C 1814.90625 2013.1875 1813.21875 2013.1875 1812.375 2013.1875 L 1812.375 2008.96875 L 1845.28125 2008.96875 Z M 1845.28125 2013.1875 " transform="matrix(0.00462963,0,0,0.00462963,0,0)"/>
<path style="fill-rule:evenodd;fill:rgb(98.039216%,71.764706%,0%);fill-opacity:1;stroke-width:1.6333;stroke-linecap:butt;stroke-linejoin:miter;stroke:rgb(98.039216%,71.764706%,0%);stroke-opacity:1;stroke-miterlimit:3.8637;" d="M 1905.1875 2052.84375 C 1906.875 2054.53125 1907.71875 2057.0625 1908.5625 2059.59375 C 1909.40625 2061.28125 1910.25 2063.8125 1910.25 2067.1875 C 1910.25 2073.9375 1907.71875 2079.84375 1901.8125 2084.90625 C 1896.75 2089.125 1890 2091.65625 1882.40625 2091.65625 C 1879.03125 2091.65625 1875.65625 2090.8125 1871.4375 2089.96875 C 1868.0625 2089.125 1864.6875 2087.4375 1862.15625 2085.75 L 1859.625 2089.96875 L 1855.40625 2089.96875 L 1854.5625 2062.125 L 1858.78125 2062.125 C 1860.46875 2065.5 1861.3125 2068.875 1862.15625 2071.40625 C 1863.84375 2074.78125 1865.53125 2077.3125 1867.21875 2079 C 1869.75 2081.53125 1871.4375 2083.21875 1873.96875 2084.90625 C 1877.34375 2085.75 1879.875 2086.59375 1883.25 2086.59375 C 1886.625 2086.59375 1888.3125 2086.59375 1890.84375 2085.75 C 1892.53125 2084.90625 1894.21875 2084.0625 1895.0625 2082.375 C 1896.75 2081.53125 1897.59375 2079.84375 1897.59375 2078.15625 C 1898.4375 2076.46875 1898.4375 2074.78125 1898.4375 2072.25 C 1898.4375 2069.71875 1897.59375 2066.34375 1895.90625 2063.8125 C 1894.21875 2060.4375 1891.6875 2058.75 1888.3125 2057.0625 C 1885.78125 2056.21875 1882.40625 2055.375 1879.03125 2053.6875 C 1876.5 2052.84375 1873.125 2051.15625 1871.4375 2050.3125 C 1866.375 2048.625 1863 2046.09375 1860.46875 2042.71875 C 1857.9375 2039.34375 1857.09375 2035.125 1857.09375 2029.21875 C 1857.09375 2026.6875 1857.09375 2023.3125 1858.78125 2020.78125 C 1859.625 2018.25 1861.3125 2015.71875 1863.84375 2014.03125 C 1866.375 2011.5 1868.90625 2009.8125 1871.4375 2008.96875 C 1874.8125 2008.125 1878.1875 2007.28125 1881.5625 2007.28125 C 1884.9375 2007.28125 1888.3125 2008.125 1890.84375 2008.96875 C 1894.21875 2009.8125 1896.75 2011.5 1899.28125 2013.1875 L 1901.8125 2008.96875 L 1906.03125 2008.96875 L 1906.875 2035.96875 L 1901.8125 2035.96875 C 1900.96875 2032.59375 1900.125 2030.0625 1899.28125 2027.53125 C 1898.4375 2024.15625 1896.75 2021.625 1895.0625 2019.9375 C 1893.375 2017.40625 1891.6875 2015.71875 1889.15625 2014.03125 C 1886.625 2013.1875 1884.09375 2012.34375 1880.71875 2012.34375 C 1876.5 2012.34375 1873.96875 2013.1875 1871.4375 2015.71875 C 1868.90625 2018.25 1867.21875 2020.78125 1867.21875 2024.15625 C 1867.21875 2027.53125 1868.0625 2030.90625 1869.75 2032.59375 C 1871.4375 2035.125 1873.96875 2036.8125 1877.34375 2038.5 C 1879.875 2040.1875 1882.40625 2041.03125 1884.9375 2041.875 C 1887.46875 2042.71875 1890.84375 2044.40625 1892.53125 2045.25 C 1895.0625 2046.09375 1897.59375 2046.9375 1899.28125 2048.625 C 1901.8125 2049.46875 1903.5 2051.15625 1905.1875 2052.84375 Z M 1905.1875 2052.84375 " transform="matrix(0.00462963,0,0,0.00462963,0,0)"/>
<path style="fill-rule:evenodd;fill:rgb(98.039216%,71.764706%,0%);fill-opacity:1;stroke-width:1.6333;stroke-linecap:butt;stroke-linejoin:miter;stroke:rgb(98.039216%,71.764706%,0%);stroke-opacity:1;stroke-miterlimit:3.8637;" d="M 1992.09375 2030.90625 L 1988.71875 2030.90625 C 1987.875 2030.0625 1987.875 2028.375 1986.1875 2026.6875 C 1985.34375 2024.15625 1984.5 2022.46875 1983.65625 2020.78125 C 1982.8125 2019.09375 1981.125 2017.40625 1979.4375 2016.5625 C 1978.59375 2014.875 1976.90625 2014.03125 1976.0625 2014.03125 C 1975.21875 2014.03125 1973.53125 2014.03125 1971.84375 2014.03125 C 1970.15625 2014.03125 1968.46875 2014.03125 1966.78125 2014.03125 L 1963.40625 2014.03125 L 1963.40625 2078.15625 C 1963.40625 2079.84375 1963.40625 2080.6875 1964.25 2081.53125 C 1964.25 2082.375 1965.9375 2083.21875 1966.78125 2084.0625 C 1967.625 2084.0625 1969.3125 2084.90625 1971 2084.90625 C 1973.53125 2085.75 1975.21875 2085.75 1976.0625 2085.75 L 1976.0625 2089.96875 L 1938.09375 2089.96875 L 1938.09375 2085.75 C 1938.9375 2085.75 1940.625 2085.75 1943.15625 2085.75 C 1944.84375 2084.90625 1946.53125 2084.90625 1947.375 2084.90625 C 1949.0625 2084.0625 1949.90625 2083.21875 1949.90625 2082.375 C 1950.75 2081.53125 1951.59375 2080.6875 1951.59375 2079 L 1951.59375 2014.03125 L 1948.21875 2014.03125 C 1946.53125 2014.03125 1944.84375 2014.03125 1943.15625 2014.03125 C 1941.46875 2014.03125 1939.78125 2014.03125 1938.09375 2014.03125 C 1937.25 2014.03125 1935.5625 2014.875 1934.71875 2016.5625 C 1933.03125 2017.40625 1932.1875 2019.09375 1930.5 2020.78125 C 1929.65625 2022.46875 1928.8125 2024.15625 1927.96875 2026.6875 C 1927.125 2028.375 1926.28125 2030.0625 1926.28125 2030.90625 L 1922.0625 2030.90625 L 1922.0625 2008.96875 L 1992.09375 2008.96875 Z M 1992.09375 2030.90625 " transform="matrix(0.00462963,0,0,0.00462963,0,0)"/>
<path style=" stroke:none;fill-rule:nonzero;fill:rgb(98.039216%,71.764706%,0%);fill-opacity:1;" d="M 6.679688 4.9375 C 6.679688 4.933594 6.726562 4.953125 6.726562 5.023438 C 6.769531 5.015625 6.785156 5.039062 6.777344 5.089844 C 6.777344 5.089844 6.730469 5.074219 6.722656 5.105469 C 6.710938 5.136719 6.71875 5.160156 6.75 5.183594 C 6.75 5.183594 6.800781 5.222656 6.832031 5.144531 C 6.863281 5.070312 6.875 5.042969 6.875 5.042969 C 6.882812 5.015625 6.933594 4.953125 6.984375 4.941406 C 7 4.933594 7.019531 4.9375 7.039062 4.941406 C 7.039062 4.941406 7.078125 4.949219 7.082031 4.984375 C 7.082031 5.019531 7.066406 5.035156 7.042969 5.046875 C 7.019531 5.054688 6.984375 5.03125 6.984375 5.03125 C 6.976562 5.03125 6.972656 5.035156 6.964844 5.039062 C 6.960938 5.039062 6.949219 5.054688 6.941406 5.070312 C 6.941406 5.070312 6.917969 5.121094 6.90625 5.160156 C 6.898438 5.1875 6.878906 5.277344 6.789062 5.289062 L 6.574219 5.289062 C 6.484375 5.277344 6.464844 5.1875 6.457031 5.160156 C 6.445312 5.121094 6.421875 5.070312 6.421875 5.070312 C 6.414062 5.054688 6.402344 5.039062 6.398438 5.039062 C 6.390625 5.035156 6.386719 5.03125 6.375 5.03125 C 6.375 5.03125 6.34375 5.054688 6.320312 5.046875 C 6.292969 5.035156 6.28125 5.019531 6.28125 4.984375 C 6.28125 4.949219 6.324219 4.941406 6.324219 4.941406 C 6.34375 4.9375 6.363281 4.933594 6.378906 4.941406 C 6.425781 4.953125 6.480469 5.015625 6.488281 5.042969 C 6.488281 5.042969 6.5 5.070312 6.53125 5.144531 C 6.5625 5.222656 6.613281 5.183594 6.613281 5.183594 C 6.644531 5.160156 6.652344 5.136719 6.640625 5.105469 C 6.632812 5.074219 6.585938 5.089844 6.585938 5.089844 C 6.578125 5.039062 6.59375 5.015625 6.632812 5.023438 C 6.636719 4.953125 6.679688 4.933594 6.679688 4.9375 C 6.679688 4.9375 6.683594 4.9375 6.683594 4.9375 Z M 6.679688 4.9375 "/>
<path style="fill-rule:evenodd;fill:rgb(98.039216%,71.764706%,0%);fill-opacity:1;stroke-width:8.4891;stroke-linecap:butt;stroke-linejoin:miter;stroke:rgb(0%,14.509804%,46.666667%);stroke-opacity:1;stroke-miterlimit:3.8637;" d="M 1402.3125 2278.089 L 1487.53125 2278.089 L 1500.1875 2712.62025 L 1388.8125 2712.62025 Z M 1402.3125 2278.089 " transform="matrix(0.00462963,0,0,0.00462963,0,-5.187333)"/>
<path style="fill-rule:evenodd;fill:rgb(98.039216%,71.764706%,0%);fill-opacity:1;stroke-width:8.4891;stroke-linecap:butt;stroke-linejoin:miter;stroke:rgb(0%,14.509804%,46.666667%);stroke-opacity:1;stroke-miterlimit:3.8637;" d="M 1381.21875 2756.49525 L 1499.34375 2756.49525 L 1499.34375 2953.93275 L 1381.21875 2953.93275 Z M 1381.21875 2756.49525 " transform="matrix(0.00462963,0,0,0.00462963,0,-5.187333)"/>
<path style="fill-rule:nonzero;fill:rgb(98.039216%,71.764706%,0%);fill-opacity:1;stroke-width:8.4891;stroke-linecap:butt;stroke-linejoin:miter;stroke:rgb(0%,14.509804%,46.666667%);stroke-opacity:1;stroke-miterlimit:3.8637;" d="M 1379.53125 1614.09375 L 1499.34375 1614.09375 C 1507.78125 1614.09375 1514.53125 1619.15625 1514.53125 1625.0625 C 1514.53125 1631.8125 1507.78125 1636.875 1499.34375 1636.875 L 1379.53125 1636.875 C 1371.09375 1636.875 1364.34375 1631.8125 1364.34375 1625.0625 C 1364.34375 1619.15625 1371.09375 1614.09375 1379.53125 1614.09375 Z M 1379.53125 1614.09375 " transform="matrix(0.00462963,0,0,0.00462963,0,0)"/>
<path style="fill-rule:evenodd;fill:rgb(98.039216%,71.764706%,0%);fill-opacity:1;stroke-width:8.4891;stroke-linecap:butt;stroke-linejoin:miter;stroke:rgb(0%,14.509804%,46.666667%);stroke-opacity:1;stroke-miterlimit:3.8637;" d="M 1387.96875 1592.15625 L 1493.4375 1592.15625 C 1500.1875 1592.15625 1506.09375 1597.21875 1506.09375 1603.125 C 1506.09375 1609.03125 1500.1875 1614.09375 1493.4375 1614.09375 L 1387.96875 1614.09375 C 1381.21875 1614.09375 1374.46875 1609.03125 1374.46875 1603.125 C 1374.46875 1597.21875 1381.21875 1592.15625 1387.96875 1592.15625 Z M 1387.96875 1592.15625 " transform="matrix(0.00462963,0,0,0.00462963,0,0)"/>
<path style="fill:none;stroke-width:8.4891;stroke-linecap:butt;stroke-linejoin:miter;stroke:rgb(0%,14.509804%,46.666667%);stroke-opacity:1;stroke-miterlimit:3.8637;" d="M 1408.21875 1673.15625 L 1471.5 1673.15625 L 1471.5 1803.09375 L 1408.21875 1803.09375 Z M 1408.21875 1673.15625 " transform="matrix(0.00462963,0,0,0.00462963,0,0)"/>
<path style="fill-rule:nonzero;fill:rgb(98.039216%,71.764706%,0%);fill-opacity:1;stroke-width:4.8999;stroke-linecap:butt;stroke-linejoin:miter;stroke:rgb(0%,14.509804%,46.666667%);stroke-opacity:1;stroke-miterlimit:3.8637;" d="M 1406.53125 1142.4375 L 1479.09375 1142.4375 C 1485 1142.4375 1490.0625 1145.8125 1490.0625 1150.03125 C 1490.0625 1154.25 1485 1157.625 1479.09375 1157.625 L 1406.53125 1157.625 C 1400.625 1157.625 1395.5625 1154.25 1395.5625 1150.03125 C 1395.5625 1145.8125 1400.625 1142.4375 1406.53125 1142.4375 Z M 1406.53125 1142.4375 " transform="matrix(0.00462963,0,0,0.00462963,0,0)"/>
<path style="fill-rule:evenodd;fill:rgb(98.039216%,71.764706%,0%);fill-opacity:1;stroke-width:10;stroke-linecap:butt;stroke-linejoin:miter;stroke:rgb(0%,14.509804%,46.666667%);stroke-opacity:1;stroke-miterlimit:3.8637;" d="M 847.96875 1857.09375 L 2053.6875 1857.09375 L 2053.6875 1897.59375 L 847.96875 1897.59375 Z M 847.96875 1857.09375 " transform="matrix(0.00462963,0,0,0.00462963,0,0)"/>
<path style="fill-rule:nonzero;fill:rgb(98.039216%,71.764706%,0%);fill-opacity:1;stroke-width:6.0001;stroke-linecap:butt;stroke-linejoin:miter;stroke:rgb(0%,14.509804%,46.666667%);stroke-opacity:1;stroke-miterlimit:3.8637;" d="M 796.5 1897.59375 L 2106 1897.59375 L 2106 1940.625 L 796.5 1940.625 Z M 796.5 1897.59375 " transform="matrix(0.00462963,0,0,0.00462963,0,0)"/>
<path style="fill-rule:evenodd;fill:rgb(98.039216%,71.764706%,0%);fill-opacity:1;stroke-width:9.5504;stroke-linecap:butt;stroke-linejoin:miter;stroke:rgb(0%,14.509804%,46.666667%);stroke-opacity:1;stroke-miterlimit:3.8637;" d="M 883.40625 974.53125 L 2008.96875 974.53125 L 2008.96875 999 L 883.40625 999 Z M 883.40625 974.53125 " transform="matrix(0.00462963,0,0,0.00462963,0,0)"/>
<path style="fill-rule:evenodd;fill:rgb(98.039216%,71.764706%,0%);fill-opacity:1;stroke-width:4.8999;stroke-linecap:butt;stroke-linejoin:round;stroke:rgb(0%,14.509804%,46.666667%);stroke-opacity:1;stroke-miterlimit:3.8637;" d="M 1797.1875 973.6875 C 1738.96875 833.625 1603.125 736.59375 1445.34375 736.59375 C 1288.40625 736.59375 1152.5625 834.46875 1094.34375 973.6875 L 954.28125 973.6875 C 1019.25 758.53125 1215 601.59375 1445.34375 601.59375 C 1676.53125 601.59375 1872.28125 758.53125 1937.25 973.6875 Z M 1797.1875 973.6875 " transform="matrix(0.00462963,0,0,0.00462963,0,0)"/>
<path style="fill-rule:evenodd;fill:rgb(98.039216%,71.764706%,0%);fill-opacity:1;stroke-width:6.0001;stroke-linecap:butt;stroke-linejoin:miter;stroke:rgb(0%,14.509804%,46.666667%);stroke-opacity:1;stroke-miterlimit:3.8637;" d="M 913.78125 999.84375 C 913.78125 999.84375 933.1875 1011.65625 949.21875 1046.25 L 1950.75 1046.25 C 1950.75 1046.25 1967.625 1007.4375 1989.5625 999.84375 Z M 913.78125 999.84375 " transform="matrix(0.00462963,0,0,0.00462963,0,0)"/>
<path style="fill-rule:evenodd;fill:rgb(98.039216%,71.764706%,0%);fill-opacity:1;stroke-width:4.8999;stroke-linecap:butt;stroke-linejoin:round;stroke:rgb(0%,14.509804%,46.666667%);stroke-opacity:1;stroke-miterlimit:3.8637;" d="M 1161.84375 1054.6875 C 1161.84375 1054.6875 1254.65625 1214.15625 1443.65625 1211.625 C 1630.125 1209.9375 1724.625 1060.59375 1724.625 1060.59375 L 1774.40625 1134 C 1774.40625 1134 1792.96875 1159.3125 1757.53125 1190.53125 C 1631.8125 1301.0625 1531.40625 1323 1443.65625 1322.15625 C 1313.71875 1315.40625 1208.25 1271.53125 1128.9375 1190.53125 C 1114.59375 1178.71875 1111.21875 1162.6875 1115.4375 1150.03125 Z M 1161.84375 1054.6875 " transform="matrix(0.00462963,0,0,0.00462963,0,0)"/>
<path style="fill:none;stroke-width:6.3669;stroke-linecap:butt;stroke-linejoin:miter;stroke:rgb(0%,14.509804%,46.666667%);stroke-opacity:1;stroke-miterlimit:3.8637;" d="M 1113.75 1166.0625 C 1113.75 1166.0625 1107.84375 1134 1158.46875 1160.15625 L 1162.6875 1055.53125 " transform="matrix(0.00462963,0,0,0.00462963,0,0)"/>
<path style="fill:none;stroke-width:6.3669;stroke-linecap:butt;stroke-linejoin:miter;stroke:rgb(0%,14.509804%,46.666667%);stroke-opacity:1;stroke-miterlimit:3.8637;" d="M 1777.78125 1144.125 C 1761.75 1109.53125 1732.21875 1152.5625 1732.21875 1152.5625 L 1724.625 1060.59375 " transform="matrix(0.00462963,0,0,0.00462963,0,0)"/>
<path style="fill-rule:nonzero;fill:rgb(98.039216%,71.764706%,0%);fill-opacity:1;stroke-width:5;stroke-linecap:butt;stroke-linejoin:miter;stroke:rgb(0%,14.509804%,46.666667%);stroke-opacity:1;stroke-miterlimit:3.8637;" d="M 944.15625 1047.9375 L 1950.75 1047.9375 C 1954.125 1047.9375 1957.5 1050.46875 1957.5 1054.6875 L 1957.5 1057.21875 C 1957.5 1060.59375 1954.125 1063.96875 1950.75 1063.96875 L 944.15625 1063.96875 C 939.9375 1063.96875 937.40625 1060.59375 937.40625 1057.21875 L 937.40625 1054.6875 C 937.40625 1050.46875 939.9375 1047.9375 944.15625 1047.9375 Z M 944.15625 1047.9375 " transform="matrix(0.00462963,0,0,0.00462963,0,0)"/>
<path style=" stroke:none;fill-rule:nonzero;fill:rgb(98.039216%,71.764706%,0%);fill-opacity:1;" d="M 4.78125 4.929688 C 4.785156 4.929688 4.828125 4.945312 4.828125 5.019531 C 4.871094 5.011719 4.886719 5.03125 4.878906 5.082031 C 4.878906 5.082031 4.832031 5.070312 4.824219 5.097656 C 4.8125 5.128906 4.820312 5.15625 4.851562 5.175781 C 4.851562 5.175781 4.902344 5.214844 4.933594 5.140625 C 4.964844 5.066406 4.976562 5.039062 4.976562 5.039062 C 4.984375 5.011719 5.035156 4.945312 5.085938 4.9375 C 5.101562 4.929688 5.121094 4.929688 5.140625 4.933594 C 5.140625 4.933594 5.179688 4.945312 5.183594 4.980469 C 5.183594 5.015625 5.167969 5.027344 5.144531 5.039062 C 5.121094 5.050781 5.089844 5.027344 5.089844 5.027344 C 5.078125 5.023438 5.074219 5.027344 5.066406 5.03125 C 5.0625 5.035156 5.050781 5.050781 5.042969 5.066406 C 5.042969 5.066406 5.019531 5.113281 5.007812 5.152344 C 5 5.183594 4.980469 5.269531 4.890625 5.285156 L 4.675781 5.285156 C 4.585938 5.269531 4.566406 5.183594 4.558594 5.152344 C 4.546875 5.113281 4.523438 5.066406 4.523438 5.066406 C 4.515625 5.050781 4.503906 5.035156 4.5 5.03125 C 4.492188 5.027344 4.488281 5.023438 4.476562 5.027344 C 4.476562 5.027344 4.445312 5.050781 4.421875 5.039062 C 4.398438 5.027344 4.382812 5.015625 4.382812 4.980469 C 4.386719 4.945312 4.425781 4.933594 4.425781 4.933594 C 4.445312 4.929688 4.464844 4.929688 4.480469 4.9375 C 4.53125 4.945312 4.582031 5.011719 4.589844 5.039062 C 4.589844 5.039062 4.601562 5.066406 4.632812 5.140625 C 4.664062 5.214844 4.714844 5.175781 4.714844 5.175781 C 4.746094 5.15625 4.753906 5.128906 4.742188 5.097656 C 4.734375 5.070312 4.6875 5.082031 4.6875 5.082031 C 4.679688 5.03125 4.695312 5.011719 4.738281 5.019531 C 4.738281 4.945312 4.78125 4.929688 4.785156 4.929688 Z M 4.78125 4.929688 "/>
<path style="fill-rule:evenodd;fill:rgb(98.039216%,71.764706%,0%);fill-opacity:1;stroke-width:8.4891;stroke-linecap:butt;stroke-linejoin:miter;stroke:rgb(0%,14.509804%,46.666667%);stroke-opacity:1;stroke-miterlimit:3.8637;" d="M 992.25 2278.089 L 1074.9375 2278.089 L 1089.28125 2712.62025 L 977.0625 2712.62025 Z M 992.25 2278.089 " transform="matrix(0.00462963,0,0,0.00462963,0,-5.187333)"/>
<path style="fill-rule:evenodd;fill:rgb(98.039216%,71.764706%,0%);fill-opacity:1;stroke-width:8.4891;stroke-linecap:butt;stroke-linejoin:miter;stroke:rgb(0%,14.509804%,46.666667%);stroke-opacity:1;stroke-miterlimit:3.8637;" d="M 973.6875 2756.49525 L 1092.65625 2756.49525 L 1092.65625 2953.93275 L 973.6875 2953.93275 Z M 973.6875 2756.49525 " transform="matrix(0.00462963,0,0,0.00462963,0,-5.187333)"/>
<path style="fill-rule:evenodd;fill:rgb(98.039216%,71.764706%,0%);fill-opacity:1;stroke-width:8.4891;stroke-linecap:butt;stroke-linejoin:miter;stroke:rgb(0%,14.509804%,46.666667%);stroke-opacity:1;stroke-miterlimit:3.8637;" d="M 972.84375 1614.09375 L 1093.5 1614.09375 C 1101.09375 1614.09375 1107.84375 1619.15625 1107.84375 1625.0625 C 1107.84375 1631.8125 1101.09375 1636.875 1093.5 1636.875 L 972.84375 1636.875 C 965.25 1636.875 958.5 1631.8125 958.5 1625.0625 C 958.5 1619.15625 965.25 1614.09375 972.84375 1614.09375 Z M 972.84375 1614.09375 " transform="matrix(0.00462963,0,0,0.00462963,0,0)"/>
<path style="fill-rule:evenodd;fill:rgb(98.039216%,71.764706%,0%);fill-opacity:1;stroke-width:8.4891;stroke-linecap:butt;stroke-linejoin:miter;stroke:rgb(0%,14.509804%,46.666667%);stroke-opacity:1;stroke-miterlimit:3.8637;" d="M 980.4375 1592.15625 L 1085.90625 1592.15625 C 1092.65625 1592.15625 1098.5625 1597.21875 1098.5625 1603.125 C 1098.5625 1609.03125 1092.65625 1614.09375 1085.90625 1614.09375 L 980.4375 1614.09375 C 973.6875 1614.09375 966.9375 1609.03125 966.9375 1603.125 C 966.9375 1597.21875 973.6875 1592.15625 980.4375 1592.15625 Z M 980.4375 1592.15625 " transform="matrix(0.00462963,0,0,0.00462963,0,0)"/>
<path style="fill:none;stroke-width:8.4891;stroke-linecap:butt;stroke-linejoin:miter;stroke:rgb(0%,14.509804%,46.666667%);stroke-opacity:1;stroke-miterlimit:3.8637;" d="M 1001.53125 1673.15625 L 1064.8125 1673.15625 L 1064.8125 1803.09375 L 1001.53125 1803.09375 Z M 1001.53125 1673.15625 " transform="matrix(0.00462963,0,0,0.00462963,0,0)"/>
<path style="fill-rule:nonzero;fill:rgb(98.039216%,71.764706%,0%);fill-opacity:1;stroke-width:4.8999;stroke-linecap:butt;stroke-linejoin:miter;stroke:rgb(0%,14.509804%,46.666667%);stroke-opacity:1;stroke-miterlimit:3.8637;" d="M 996.46875 1144.125 L 1069.875 1144.125 C 1075.78125 1144.125 1080 1147.5 1080 1151.71875 C 1080 1155.9375 1075.78125 1159.3125 1069.875 1159.3125 L 996.46875 1159.3125 C 990.5625 1159.3125 986.34375 1155.9375 986.34375 1151.71875 C 986.34375 1147.5 990.5625 1144.125 996.46875 1144.125 Z M 996.46875 1144.125 " transform="matrix(0.00462963,0,0,0.00462963,0,0)"/>
<path style="fill-rule:evenodd;fill:rgb(98.039216%,71.764706%,0%);fill-opacity:1;stroke-width:4.0833;stroke-linecap:butt;stroke-linejoin:miter;stroke:rgb(0%,14.509804%,46.666667%);stroke-opacity:1;stroke-miterlimit:3.8637;" d="M 949.21875 1834.3125 L 1117.125 1834.3125 L 1117.125 1857.09375 L 949.21875 1857.09375 Z M 949.21875 1834.3125 " transform="matrix(0.00462963,0,0,0.00462963,0,0)"/>
<path style=" stroke:none;fill-rule:nonzero;fill:rgb(98.039216%,71.764706%,0%);fill-opacity:1;" d="M 8.605469 4.9375 C 8.605469 4.9375 8.609375 4.9375 8.609375 4.9375 C 8.609375 4.933594 8.652344 4.953125 8.65625 5.023438 C 8.695312 5.015625 8.710938 5.039062 8.703125 5.089844 C 8.703125 5.089844 8.65625 5.074219 8.648438 5.105469 C 8.636719 5.136719 8.644531 5.160156 8.675781 5.183594 C 8.675781 5.183594 8.726562 5.222656 8.757812 5.144531 C 8.789062 5.070312 8.800781 5.042969 8.800781 5.042969 C 8.808594 5.015625 8.863281 4.953125 8.910156 4.941406 C 8.925781 4.933594 8.945312 4.9375 8.964844 4.941406 C 8.964844 4.941406 9.007812 4.949219 9.007812 4.984375 C 9.007812 5.019531 8.996094 5.035156 8.972656 5.046875 C 8.945312 5.054688 8.914062 5.03125 8.914062 5.03125 C 8.902344 5.03125 8.898438 5.035156 8.890625 5.039062 C 8.886719 5.039062 8.875 5.054688 8.867188 5.070312 C 8.867188 5.070312 8.84375 5.121094 8.832031 5.160156 C 8.824219 5.1875 8.804688 5.277344 8.714844 5.289062 L 8.5 5.289062 C 8.410156 5.277344 8.390625 5.1875 8.382812 5.160156 C 8.371094 5.121094 8.347656 5.070312 8.347656 5.070312 C 8.339844 5.054688 8.328125 5.039062 8.324219 5.039062 C 8.316406 5.035156 8.3125 5.03125 8.304688 5.03125 C 8.304688 5.03125 8.269531 5.054688 8.246094 5.046875 C 8.222656 5.035156 8.207031 5.019531 8.207031 4.984375 C 8.210938 4.949219 8.25 4.941406 8.25 4.941406 C 8.269531 4.9375 8.289062 4.933594 8.304688 4.941406 C 8.355469 4.953125 8.40625 5.015625 8.414062 5.042969 C 8.414062 5.042969 8.425781 5.070312 8.457031 5.144531 C 8.492188 5.222656 8.539062 5.183594 8.539062 5.183594 C 8.570312 5.160156 8.578125 5.136719 8.566406 5.105469 C 8.558594 5.074219 8.511719 5.089844 8.511719 5.089844 C 8.503906 5.039062 8.519531 5.015625 8.5625 5.023438 C 8.5625 4.953125 8.609375 4.933594 8.609375 4.9375 Z M 8.605469 4.9375 "/>
<path style="fill-rule:evenodd;fill:rgb(98.039216%,71.764706%,0%);fill-opacity:1;stroke-width:8.4891;stroke-linecap:butt;stroke-linejoin:miter;stroke:rgb(0%,14.509804%,46.666667%);stroke-opacity:1;stroke-miterlimit:3.8637;" d="M 1820.8125 2278.089 L 1902.65625 2278.089 L 1917 2712.62025 L 1805.625 2712.62025 Z M 1820.8125 2278.089 " transform="matrix(0.00462963,0,0,0.00462963,0,-5.187333)"/>
<path style="fill-rule:evenodd;fill:rgb(98.039216%,71.764706%,0%);fill-opacity:1;stroke-width:8.4891;stroke-linecap:butt;stroke-linejoin:miter;stroke:rgb(0%,14.509804%,46.666667%);stroke-opacity:1;stroke-miterlimit:3.8637;" d="M 1803.9375 2756.49525 L 1922.90625 2756.49525 L 1922.90625 2953.93275 L 1804.78125 2953.93275 Z M 1803.9375 2756.49525 " transform="matrix(0.00462963,0,0,0.00462963,0,-5.187333)"/>
<path style="fill-rule:nonzero;fill:rgb(98.039216%,71.764706%,0%);fill-opacity:1;stroke-width:8.4891;stroke-linecap:butt;stroke-linejoin:miter;stroke:rgb(0%,14.509804%,46.666667%);stroke-opacity:1;stroke-miterlimit:3.8637;" d="M 1803.9375 1614.09375 L 1923.75 1614.09375 C 1932.1875 1614.09375 1938.9375 1619.15625 1938.9375 1625.0625 C 1938.9375 1631.8125 1932.1875 1636.875 1923.75 1636.875 L 1803.9375 1636.875 C 1795.5 1636.875 1788.75 1631.8125 1788.75 1625.0625 C 1788.75 1619.15625 1795.5 1614.09375 1803.9375 1614.09375 Z M 1803.9375 1614.09375 " transform="matrix(0.00462963,0,0,0.00462963,0,0)"/>
<path style="fill-rule:evenodd;fill:rgb(98.039216%,71.764706%,0%);fill-opacity:1;stroke-width:8.4891;stroke-linecap:butt;stroke-linejoin:miter;stroke:rgb(0%,14.509804%,46.666667%);stroke-opacity:1;stroke-miterlimit:3.8637;" d="M 1809.84375 1592.15625 L 1914.46875 1592.15625 C 1922.0625 1592.15625 1927.96875 1597.21875 1927.96875 1603.125 C 1927.96875 1609.03125 1922.0625 1614.09375 1914.46875 1614.09375 L 1809.84375 1614.09375 C 1802.25 1614.09375 1796.34375 1609.03125 1796.34375 1603.125 C 1796.34375 1597.21875 1802.25 1592.15625 1809.84375 1592.15625 Z M 1809.84375 1592.15625 " transform="matrix(0.00462963,0,0,0.00462963,0,0)"/>
<path style="fill:none;stroke-width:8.4891;stroke-linecap:butt;stroke-linejoin:miter;stroke:rgb(0%,14.509804%,46.666667%);stroke-opacity:1;stroke-miterlimit:3.8637;" d="M 1831.78125 1673.15625 L 1894.21875 1673.15625 L 1894.21875 1803.09375 L 1831.78125 1803.09375 Z M 1831.78125 1673.15625 " transform="matrix(0.00462963,0,0,0.00462963,0,0)"/>
<path style="fill-rule:nonzero;fill:rgb(98.039216%,71.764706%,0%);fill-opacity:1;stroke-width:4.8999;stroke-linecap:butt;stroke-linejoin:miter;stroke:rgb(0%,14.509804%,46.666667%);stroke-opacity:1;stroke-miterlimit:3.8637;" d="M 1824.1875 1142.4375 L 1896.75 1142.4375 C 1903.5 1142.4375 1907.71875 1145.8125 1907.71875 1150.03125 C 1907.71875 1154.25 1903.5 1157.625 1896.75 1157.625 L 1824.1875 1157.625 C 1818.28125 1157.625 1814.0625 1154.25 1814.0625 1150.03125 C 1814.0625 1145.8125 1818.28125 1142.4375 1824.1875 1142.4375 Z M 1824.1875 1142.4375 " transform="matrix(0.00462963,0,0,0.00462963,0,0)"/>
<path style="fill-rule:evenodd;fill:rgb(98.039216%,71.764706%,0%);fill-opacity:1;stroke-width:4.0833;stroke-linecap:butt;stroke-linejoin:miter;stroke:rgb(0%,14.509804%,46.666667%);stroke-opacity:1;stroke-miterlimit:3.8637;" d="M 1353.375 1834.3125 L 1522.125 1834.3125 L 1522.125 1857.09375 L 1353.375 1857.09375 Z M 1353.375 1834.3125 " transform="matrix(0.00462963,0,0,0.00462963,0,0)"/>
<path style="fill-rule:evenodd;fill:rgb(98.039216%,71.764706%,0%);fill-opacity:1;stroke-width:7.428;stroke-linecap:butt;stroke-linejoin:miter;stroke:rgb(0%,14.509804%,46.666667%);stroke-opacity:1;stroke-miterlimit:3.8637;" d="M 728.15625 1526.34375 C 699.46875 1505.25 669.09375 1511.15625 669.09375 1511.15625 C 669.09375 1511.15625 691.03125 1481.625 725.625 1495.96875 C 747.5625 1505.25 766.96875 1539.84375 822.65625 1503.5625 C 879.1875 1468.125 901.125 1449.5625 950.0625 1433.53125 C 1001.53125 1416.65625 1041.1875 1412.4375 1053 1408.21875 C 1064.8125 1404 1083.375 1397.25 1092.65625 1339.875 C 1095.1875 1327.21875 1146.65625 1448.71875 1146.65625 1448.71875 C 1146.65625 1448.71875 1139.0625 1488.375 1090.125 1511.15625 C 1040.34375 1533.9375 954.28125 1547.4375 906.1875 1586.25 C 890.15625 1598.90625 858.9375 1621.6875 839.53125 1649.53125 C 795.65625 1714.5 749.25 1721.25 749.25 1721.25 C 749.25 1721.25 791.4375 1684.96875 803.25 1635.1875 C 804.9375 1625.90625 801.5625 1584.5625 817.59375 1568.53125 C 800.71875 1585.40625 756 1550.8125 761.90625 1555.875 C 761.90625 1555.875 756 1546.59375 728.15625 1526.34375 Z M 728.15625 1526.34375 " transform="matrix(0.00462963,0,0,0.00462963,0,0)"/>
<path style="fill-rule:evenodd;fill:rgb(98.039216%,71.764706%,0%);fill-opacity:1;stroke-width:7.428;stroke-linecap:butt;stroke-linejoin:miter;stroke:rgb(0%,14.509804%,46.666667%);stroke-opacity:1;stroke-miterlimit:3.8637;" d="M 1799.71875 1341.5625 C 1799.71875 1341.5625 1809 1390.5 1905.1875 1415.8125 C 2002.21875 1440.28125 2017.40625 1471.5 2032.59375 1479.09375 C 2048.625 1486.6875 2089.125 1516.21875 2133 1501.875 C 2149.875 1495.96875 2197.96875 1482.46875 2202.1875 1485.84375 C 2203.03125 1488.375 2187.84375 1513.6875 2186.15625 1515.375 C 2154.09375 1553.34375 2142.28125 1559.25 2130.46875 1565.15625 C 2104.3125 1578.65625 2101.78125 1580.34375 2084.0625 1581.1875 C 2084.0625 1581.1875 2100.9375 1603.125 2103.46875 1637.71875 C 2106 1673.15625 2153.25 1708.59375 2153.25 1708.59375 C 2153.25 1708.59375 2090.8125 1692.5625 2062.96875 1655.4375 C 2035.96875 1618.3125 1990.40625 1586.25 1973.53125 1577.8125 C 1956.65625 1569.375 1871.4375 1540.6875 1853.71875 1533.09375 C 1836 1526.34375 1780.3125 1496.8125 1772.71875 1450.40625 C 1765.125 1403.15625 1799.71875 1341.5625 1799.71875 1341.5625 Z M 1799.71875 1341.5625 " transform="matrix(0.00462963,0,0,0.00462963,0,0)"/>
<path style="fill-rule:nonzero;fill:rgb(98.039216%,71.764706%,0%);fill-opacity:1;stroke-width:7.428;stroke-linecap:butt;stroke-linejoin:miter;stroke:rgb(0%,14.509804%,46.666667%);stroke-opacity:1;stroke-miterlimit:3.8637;" d="M 883.40625 1379.53125 C 817.59375 1353.375 837.84375 1336.5 837.84375 1336.5 C 853.875 1306.96875 874.96875 1270.6875 955.125 1240.3125 C 1062.28125 1198.96875 1171.125 1217.53125 1142.4375 1264.78125 C 1124.71875 1294.3125 1093.5 1344.9375 1093.5 1344.9375 C 1093.5 1344.9375 1080.84375 1310.34375 1022.625 1332.28125 C 964.40625 1354.21875 946.6875 1362.65625 943.3125 1374.46875 C 937.40625 1392.1875 939.9375 1404 982.125 1397.25 C 954.28125 1406.53125 923.90625 1397.25 889.3125 1381.21875 Z M 883.40625 1379.53125 " transform="matrix(0.00462963,0,0,0.00462963,0,0)"/>
<path style="fill-rule:nonzero;fill:rgb(98.039216%,71.764706%,0%);fill-opacity:1;stroke-width:6.3671;stroke-linecap:butt;stroke-linejoin:round;stroke:rgb(0%,14.509804%,46.666667%);stroke-opacity:1;stroke-miterlimit:3.8637;" d="M 1883.25 1330.59375 C 1895.90625 1333.96875 1916.15625 1344.09375 1928.8125 1352.53125 C 1987.875 1395.5625 1976.90625 1432.6875 1960.875 1433.53125 C 1942.3125 1434.375 2077.3125 1431 2093.34375 1421.71875 C 2109.375 1413.28125 2115.28125 1404 2105.15625 1382.90625 C 2095.875 1362.65625 2022.46875 1236.9375 1901.8125 1213.3125 C 1782 1189.6875 1734.75 1239.46875 1744.875 1257.1875 C 1755 1273.21875 1798.875 1327.21875 1800.5625 1349.15625 C 1813.21875 1326.375 1840.21875 1319.625 1883.25 1330.59375 Z M 1883.25 1330.59375 " transform="matrix(0.00462963,0,0,0.00462963,0,0)"/>
<path style=" stroke:none;fill-rule:evenodd;fill:rgb(0%,14.509804%,46.666667%);fill-opacity:1;" d="M 8.539062 5.738281 L 8.578125 5.730469 L 8.628906 6.023438 L 8.570312 6.03125 L 8.542969 5.867188 L 8.484375 6.046875 L 8.453125 6.050781 L 8.347656 5.898438 L 8.375 6.066406 L 8.332031 6.074219 L 8.28125 5.78125 L 8.328125 5.773438 L 8.46875 5.96875 Z M 8.539062 5.738281 "/>
<path style=" stroke:none;fill-rule:evenodd;fill:rgb(0%,14.509804%,46.666667%);fill-opacity:1;" d="M 8.898438 5.941406 C 8.886719 5.988281 8.871094 6.019531 8.84375 6.039062 C 8.820312 6.058594 8.789062 6.066406 8.753906 6.058594 C 8.722656 6.050781 8.699219 6.035156 8.679688 6.003906 C 8.664062 5.976562 8.664062 5.941406 8.671875 5.894531 L 8.675781 5.878906 C 8.683594 5.835938 8.699219 5.804688 8.722656 5.78125 C 8.75 5.761719 8.78125 5.753906 8.816406 5.761719 C 8.855469 5.769531 8.878906 5.785156 8.890625 5.816406 C 8.90625 5.847656 8.90625 5.882812 8.898438 5.925781 Z M 8.835938 5.925781 L 8.835938 5.917969 C 8.84375 5.878906 8.847656 5.855469 8.84375 5.835938 C 8.839844 5.816406 8.828125 5.804688 8.808594 5.800781 C 8.789062 5.796875 8.773438 5.800781 8.761719 5.816406 C 8.753906 5.828125 8.746094 5.855469 8.734375 5.894531 L 8.734375 5.902344 C 8.726562 5.941406 8.722656 5.972656 8.726562 5.988281 C 8.730469 6.003906 8.742188 6.011719 8.765625 6.015625 C 8.78125 6.019531 8.796875 6.015625 8.808594 6 C 8.816406 5.988281 8.828125 5.960938 8.835938 5.925781 Z M 8.835938 5.925781 "/>
<path style=" stroke:none;fill-rule:evenodd;fill:rgb(0%,14.509804%,46.666667%);fill-opacity:1;" d="M 9.132812 6.070312 C 9.109375 6.109375 9.085938 6.136719 9.058594 6.148438 C 9.03125 6.160156 9.003906 6.160156 8.972656 6.140625 L 8.882812 6.09375 L 9.023438 5.832031 L 9.101562 5.878906 C 9.140625 5.898438 9.160156 5.921875 9.164062 5.953125 C 9.167969 5.984375 9.160156 6.019531 9.140625 6.058594 Z M 9.078125 6.035156 L 9.082031 6.03125 C 9.097656 6 9.105469 5.976562 9.105469 5.957031 C 9.101562 5.9375 9.09375 5.921875 9.078125 5.914062 L 9.058594 5.902344 L 8.957031 6.085938 L 8.984375 6.097656 C 9 6.105469 9.015625 6.105469 9.027344 6.097656 C 9.042969 6.089844 9.058594 6.070312 9.078125 6.035156 Z M 9.078125 6.035156 "/>
<path style=" stroke:none;fill-rule:evenodd;fill:rgb(0%,14.509804%,46.666667%);fill-opacity:1;" d="M 9.230469 6.308594 L 9.199219 6.339844 L 9.074219 6.214844 L 9.28125 6.003906 L 9.402344 6.125 L 9.371094 6.15625 L 9.292969 6.082031 L 9.238281 6.136719 L 9.296875 6.195312 L 9.265625 6.226562 L 9.207031 6.167969 L 9.148438 6.230469 Z M 9.230469 6.308594 "/>
<path style=" stroke:none;fill-rule:evenodd;fill:rgb(0%,14.509804%,46.666667%);fill-opacity:1;" d="M 9.324219 6.546875 L 9.292969 6.496094 C 9.332031 6.46875 9.359375 6.449219 9.371094 6.429688 C 9.386719 6.414062 9.390625 6.398438 9.378906 6.382812 L 9.371094 6.371094 L 9.257812 6.4375 L 9.226562 6.382812 L 9.480469 6.234375 L 9.535156 6.328125 C 9.550781 6.351562 9.554688 6.371094 9.550781 6.386719 C 9.542969 6.402344 9.535156 6.414062 9.519531 6.421875 L 9.503906 6.433594 C 9.492188 6.441406 9.476562 6.441406 9.460938 6.441406 C 9.449219 6.4375 9.4375 6.425781 9.425781 6.410156 C 9.429688 6.433594 9.425781 6.457031 9.410156 6.476562 C 9.394531 6.5 9.367188 6.523438 9.324219 6.546875 Z M 9.46875 6.382812 L 9.476562 6.378906 C 9.484375 6.371094 9.492188 6.363281 9.492188 6.355469 C 9.496094 6.347656 9.492188 6.335938 9.488281 6.324219 L 9.476562 6.308594 L 9.410156 6.347656 L 9.417969 6.363281 C 9.425781 6.375 9.433594 6.382812 9.441406 6.386719 C 9.449219 6.390625 9.457031 6.386719 9.46875 6.382812 Z M 9.46875 6.382812 "/>
<path style=" stroke:none;fill-rule:evenodd;fill:rgb(0%,14.509804%,46.666667%);fill-opacity:1;" d="M 8.527344 6.914062 L 8.472656 6.875 L 8.5 6.804688 L 8.425781 6.75 L 8.363281 6.796875 L 8.324219 6.765625 L 8.574219 6.582031 L 8.621094 6.617188 Z M 8.511719 6.761719 L 8.546875 6.65625 L 8.457031 6.722656 Z M 8.511719 6.761719 "/>
<path style=" stroke:none;fill-rule:evenodd;fill:rgb(0%,14.509804%,46.666667%);fill-opacity:1;" d="M 8.6875 6.988281 L 8.632812 6.960938 L 8.742188 6.734375 L 8.6875 6.707031 L 8.707031 6.667969 L 8.875 6.75 L 8.855469 6.789062 L 8.800781 6.761719 Z M 8.6875 6.988281 "/>
<path style=" stroke:none;fill-rule:evenodd;fill:rgb(0%,14.509804%,46.666667%);fill-opacity:1;" d="M 8.816406 7.042969 L 8.929688 6.769531 L 8.988281 6.796875 L 8.875 7.066406 Z M 8.816406 7.042969 "/>
<path style=" stroke:none;fill-rule:evenodd;fill:rgb(0%,14.509804%,46.666667%);fill-opacity:1;" d="M 9.210938 7.066406 C 9.195312 7.109375 9.167969 7.136719 9.140625 7.152344 C 9.113281 7.164062 9.082031 7.164062 9.050781 7.148438 C 9.019531 7.136719 9 7.113281 8.988281 7.082031 C 8.980469 7.050781 8.984375 7.015625 9.003906 6.972656 L 9.007812 6.957031 C 9.027344 6.917969 9.050781 6.890625 9.078125 6.875 C 9.109375 6.859375 9.140625 6.855469 9.175781 6.871094 C 9.207031 6.886719 9.230469 6.910156 9.234375 6.945312 C 9.242188 6.976562 9.234375 7.011719 9.21875 7.050781 Z M 9.15625 7.035156 L 9.160156 7.027344 C 9.175781 6.996094 9.183594 6.96875 9.183594 6.953125 C 9.1875 6.933594 9.175781 6.917969 9.15625 6.910156 C 9.136719 6.902344 9.121094 6.902344 9.109375 6.914062 C 9.097656 6.925781 9.082031 6.949219 9.066406 6.988281 L 9.0625 6.992188 C 9.046875 7.03125 9.039062 7.058594 9.039062 7.074219 C 9.035156 7.089844 9.046875 7.101562 9.066406 7.113281 C 9.082031 7.121094 9.097656 7.117188 9.113281 7.105469 C 9.125 7.09375 9.140625 7.070312 9.15625 7.035156 Z M 9.15625 7.035156 "/>
<path style=" stroke:none;fill-rule:evenodd;fill:rgb(0%,14.509804%,46.666667%);fill-opacity:1;" d="M 9.386719 7.316406 L 9.363281 7.304688 L 9.335938 7.074219 L 9.242188 7.234375 L 9.203125 7.210938 L 9.351562 6.957031 L 9.382812 6.972656 L 9.410156 7.191406 L 9.496094 7.039062 L 9.535156 7.0625 Z M 9.386719 7.316406 "/>
<path style=" stroke:none;fill-rule:evenodd;fill:rgb(0%,14.509804%,46.666667%);fill-opacity:1;" d="M 4.445312 6.042969 L 4.386719 5.859375 L 4.429688 5.832031 L 4.515625 6.125 L 4.476562 6.148438 L 4.328125 6.015625 L 4.375 6.210938 L 4.335938 6.234375 L 4.117188 6.023438 L 4.171875 5.988281 L 4.308594 6.125 L 4.261719 5.933594 L 4.300781 5.910156 Z M 4.445312 6.042969 "/>
<path style=" stroke:none;fill-rule:evenodd;fill:rgb(0%,14.509804%,46.666667%);fill-opacity:1;" d="M 4.617188 6.09375 L 4.53125 5.8125 L 4.59375 5.792969 L 4.679688 6.074219 Z M 4.617188 6.09375 "/>
<path style=" stroke:none;fill-rule:evenodd;fill:rgb(0%,14.509804%,46.666667%);fill-opacity:1;" d="M 4.933594 5.945312 C 4.9375 5.976562 4.929688 6 4.910156 6.015625 C 4.894531 6.035156 4.867188 6.046875 4.832031 6.050781 C 4.8125 6.054688 4.796875 6.054688 4.78125 6.054688 C 4.769531 6.054688 4.757812 6.050781 4.746094 6.050781 L 4.738281 6 C 4.746094 6.003906 4.757812 6.003906 4.773438 6.007812 C 4.789062 6.007812 4.804688 6.007812 4.820312 6.007812 C 4.839844 6.003906 4.851562 6 4.859375 5.992188 C 4.867188 5.984375 4.871094 5.976562 4.867188 5.960938 C 4.867188 5.953125 4.863281 5.945312 4.855469 5.941406 C 4.851562 5.933594 4.832031 5.929688 4.804688 5.921875 C 4.785156 5.914062 4.765625 5.90625 4.753906 5.894531 C 4.738281 5.882812 4.730469 5.863281 4.726562 5.839844 C 4.726562 5.816406 4.730469 5.796875 4.746094 5.78125 C 4.761719 5.761719 4.789062 5.75 4.820312 5.746094 C 4.835938 5.742188 4.847656 5.742188 4.863281 5.746094 C 4.875 5.746094 4.882812 5.746094 4.890625 5.746094 L 4.894531 5.792969 C 4.886719 5.789062 4.875 5.789062 4.863281 5.789062 C 4.851562 5.789062 4.839844 5.789062 4.828125 5.789062 C 4.8125 5.792969 4.800781 5.796875 4.792969 5.804688 C 4.789062 5.8125 4.785156 5.816406 4.785156 5.824219 C 4.789062 5.835938 4.792969 5.84375 4.796875 5.847656 C 4.804688 5.851562 4.820312 5.859375 4.851562 5.863281 C 4.875 5.871094 4.894531 5.878906 4.910156 5.894531 C 4.921875 5.90625 4.929688 5.921875 4.933594 5.945312 Z M 4.933594 5.945312 "/>
<path style=" stroke:none;fill-rule:evenodd;fill:rgb(0%,14.509804%,46.666667%);fill-opacity:1;" d="M 5.84375 5.742188 C 5.835938 5.761719 5.820312 5.773438 5.804688 5.78125 C 5.785156 5.785156 5.765625 5.785156 5.742188 5.773438 C 5.730469 5.765625 5.71875 5.757812 5.714844 5.753906 C 5.707031 5.746094 5.699219 5.742188 5.695312 5.734375 L 5.71875 5.695312 C 5.722656 5.699219 5.726562 5.703125 5.730469 5.710938 C 5.738281 5.714844 5.746094 5.71875 5.753906 5.722656 C 5.757812 5.726562 5.765625 5.726562 5.773438 5.726562 C 5.78125 5.722656 5.785156 5.71875 5.789062 5.710938 L 5.890625 5.511719 L 5.945312 5.539062 Z M 5.84375 5.742188 "/>
<path style=" stroke:none;fill-rule:evenodd;fill:rgb(0%,14.509804%,46.666667%);fill-opacity:1;" d="M 6.164062 5.859375 C 6.15625 5.886719 6.140625 5.90625 6.117188 5.914062 C 6.097656 5.921875 6.070312 5.921875 6.039062 5.910156 C 6.003906 5.894531 5.984375 5.878906 5.976562 5.855469 C 5.964844 5.835938 5.96875 5.808594 5.980469 5.777344 L 6.050781 5.59375 L 6.109375 5.613281 L 6.035156 5.808594 C 6.03125 5.824219 6.027344 5.835938 6.03125 5.847656 C 6.035156 5.855469 6.046875 5.863281 6.0625 5.871094 C 6.074219 5.875 6.089844 5.875 6.097656 5.871094 C 6.109375 5.867188 6.117188 5.859375 6.121094 5.839844 L 6.195312 5.648438 L 6.238281 5.664062 Z M 6.164062 5.859375 "/>
<path style=" stroke:none;fill-rule:evenodd;fill:rgb(0%,14.509804%,46.666667%);fill-opacity:1;" d="M 6.476562 5.925781 C 6.472656 5.957031 6.460938 5.976562 6.4375 5.992188 C 6.417969 6.003906 6.386719 6.007812 6.355469 6.003906 C 6.332031 6 6.316406 5.996094 6.304688 5.992188 C 6.289062 5.988281 6.277344 5.984375 6.269531 5.980469 L 6.277344 5.929688 C 6.28125 5.933594 6.292969 5.9375 6.308594 5.945312 C 6.324219 5.949219 6.335938 5.953125 6.351562 5.957031 C 6.371094 5.957031 6.386719 5.957031 6.394531 5.953125 C 6.402344 5.949219 6.40625 5.9375 6.410156 5.925781 C 6.410156 5.917969 6.410156 5.910156 6.402344 5.902344 C 6.398438 5.894531 6.386719 5.882812 6.359375 5.871094 C 6.339844 5.859375 6.324219 5.84375 6.316406 5.832031 C 6.308594 5.816406 6.304688 5.796875 6.304688 5.773438 C 6.308594 5.75 6.320312 5.730469 6.339844 5.71875 C 6.359375 5.707031 6.386719 5.699219 6.417969 5.703125 C 6.433594 5.707031 6.449219 5.710938 6.460938 5.714844 C 6.472656 5.71875 6.480469 5.722656 6.484375 5.722656 L 6.480469 5.769531 C 6.46875 5.765625 6.460938 5.761719 6.449219 5.757812 C 6.441406 5.753906 6.429688 5.753906 6.417969 5.75 C 6.398438 5.75 6.386719 5.75 6.378906 5.753906 C 6.371094 5.757812 6.367188 5.765625 6.367188 5.773438 C 6.363281 5.785156 6.367188 5.792969 6.371094 5.796875 C 6.375 5.804688 6.390625 5.8125 6.417969 5.828125 C 6.441406 5.839844 6.457031 5.855469 6.464844 5.871094 C 6.476562 5.886719 6.480469 5.90625 6.476562 5.925781 Z M 6.476562 5.925781 "/>
<path style=" stroke:none;fill-rule:evenodd;fill:rgb(0%,14.509804%,46.666667%);fill-opacity:1;" d="M 6.703125 6.027344 L 6.636719 6.027344 L 6.644531 5.777344 L 6.582031 5.773438 L 6.582031 5.730469 L 6.765625 5.734375 L 6.765625 5.777344 L 6.707031 5.777344 Z M 6.703125 6.027344 "/>
<path style=" stroke:none;fill-rule:evenodd;fill:rgb(0%,14.509804%,46.666667%);fill-opacity:1;" d="M 6.914062 6.019531 L 6.875 5.726562 L 6.9375 5.71875 L 6.976562 6.011719 Z M 6.914062 6.019531 "/>
<path style=" stroke:none;fill-rule:evenodd;fill:rgb(0%,14.509804%,46.666667%);fill-opacity:1;" d="M 7.292969 5.921875 C 7.289062 5.925781 7.28125 5.933594 7.273438 5.9375 C 7.261719 5.945312 7.25 5.949219 7.234375 5.953125 C 7.199219 5.964844 7.164062 5.960938 7.136719 5.945312 C 7.105469 5.929688 7.085938 5.898438 7.070312 5.851562 L 7.066406 5.839844 C 7.054688 5.796875 7.054688 5.761719 7.070312 5.726562 C 7.085938 5.695312 7.109375 5.671875 7.144531 5.664062 C 7.160156 5.660156 7.171875 5.65625 7.183594 5.652344 C 7.195312 5.652344 7.203125 5.652344 7.210938 5.652344 L 7.222656 5.699219 C 7.21875 5.699219 7.210938 5.699219 7.199219 5.699219 C 7.191406 5.699219 7.179688 5.699219 7.167969 5.703125 C 7.148438 5.710938 7.132812 5.726562 7.125 5.746094 C 7.117188 5.769531 7.121094 5.792969 7.128906 5.824219 L 7.132812 5.828125 C 7.140625 5.863281 7.15625 5.886719 7.171875 5.898438 C 7.1875 5.910156 7.207031 5.914062 7.226562 5.910156 C 7.238281 5.90625 7.25 5.898438 7.257812 5.894531 C 7.265625 5.890625 7.273438 5.882812 7.277344 5.878906 Z M 7.292969 5.921875 "/>
<path style=" stroke:none;fill-rule:evenodd;fill:rgb(0%,14.509804%,46.666667%);fill-opacity:1;" d="M 7.574219 5.742188 L 7.59375 5.78125 L 7.4375 5.863281 L 7.304688 5.597656 L 7.453125 5.523438 L 7.476562 5.5625 L 7.378906 5.609375 L 7.414062 5.679688 L 7.488281 5.644531 L 7.507812 5.683594 L 7.433594 5.71875 L 7.472656 5.792969 Z M 7.574219 5.742188 "/>
<path style=" stroke:none;fill-rule:evenodd;fill:rgb(0%,14.509804%,46.666667%);fill-opacity:1;" d="M 4.269531 7.015625 C 4.292969 7.058594 4.304688 7.09375 4.300781 7.125 C 4.292969 7.152344 4.277344 7.175781 4.246094 7.191406 L 4.15625 7.242188 L 4.011719 6.984375 L 4.09375 6.941406 C 4.128906 6.917969 4.164062 6.914062 4.191406 6.929688 C 4.21875 6.941406 4.242188 6.96875 4.265625 7.007812 Z M 4.214844 7.046875 L 4.210938 7.039062 C 4.195312 7.011719 4.179688 6.992188 4.160156 6.980469 C 4.144531 6.972656 4.125 6.972656 4.109375 6.980469 L 4.089844 6.992188 L 4.191406 7.171875 L 4.214844 7.160156 C 4.230469 7.152344 4.238281 7.136719 4.242188 7.121094 C 4.242188 7.105469 4.234375 7.082031 4.214844 7.046875 Z M 4.214844 7.046875 "/>
<path style=" stroke:none;fill-rule:evenodd;fill:rgb(0%,14.509804%,46.666667%);fill-opacity:1;" d="M 4.539062 6.90625 C 4.554688 6.949219 4.558594 6.984375 4.550781 7.015625 C 4.539062 7.046875 4.519531 7.070312 4.488281 7.082031 C 4.457031 7.097656 4.425781 7.097656 4.398438 7.082031 C 4.367188 7.066406 4.34375 7.039062 4.328125 6.996094 L 4.320312 6.980469 C 4.304688 6.941406 4.296875 6.90625 4.304688 6.875 C 4.3125 6.839844 4.335938 6.816406 4.371094 6.800781 C 4.40625 6.789062 4.4375 6.789062 4.464844 6.808594 C 4.492188 6.824219 4.515625 6.851562 4.53125 6.890625 Z M 4.476562 6.925781 L 4.472656 6.917969 C 4.460938 6.886719 4.445312 6.863281 4.433594 6.847656 C 4.421875 6.835938 4.40625 6.832031 4.386719 6.839844 C 4.367188 6.847656 4.355469 6.863281 4.355469 6.878906 C 4.355469 6.894531 4.363281 6.921875 4.378906 6.960938 L 4.382812 6.964844 C 4.398438 7.003906 4.410156 7.027344 4.421875 7.039062 C 4.433594 7.050781 4.449219 7.054688 4.472656 7.042969 C 4.488281 7.039062 4.496094 7.023438 4.496094 7.007812 C 4.5 6.988281 4.492188 6.960938 4.476562 6.925781 Z M 4.476562 6.925781 "/>
<path style=" stroke:none;fill-rule:evenodd;fill:rgb(0%,14.509804%,46.666667%);fill-opacity:1;" d="M 4.796875 6.65625 L 4.835938 6.644531 L 4.933594 6.921875 L 4.882812 6.941406 L 4.824219 6.78125 L 4.800781 6.96875 L 4.769531 6.980469 L 4.636719 6.847656 L 4.695312 7.007812 L 4.652344 7.023438 L 4.550781 6.746094 L 4.597656 6.730469 L 4.769531 6.894531 Z M 4.796875 6.65625 "/>
<path style=" stroke:none;fill-rule:evenodd;fill:rgb(0%,14.509804%,46.666667%);fill-opacity:1;" d="M 5.15625 4.054688 C 5.15625 4.0625 5.15625 4.070312 5.148438 4.085938 C 5.144531 4.097656 5.136719 4.109375 5.128906 4.125 C 5.101562 4.160156 5.070312 4.183594 5.03125 4.191406 C 4.992188 4.195312 4.953125 4.183594 4.910156 4.15625 L 4.898438 4.148438 C 4.859375 4.121094 4.832031 4.085938 4.824219 4.042969 C 4.816406 4.003906 4.824219 3.964844 4.851562 3.929688 C 4.859375 3.917969 4.871094 3.90625 4.878906 3.894531 C 4.886719 3.886719 4.894531 3.878906 4.902344 3.875 L 4.945312 3.90625 C 4.9375 3.910156 4.929688 3.914062 4.921875 3.921875 C 4.914062 3.929688 4.90625 3.9375 4.898438 3.949219 C 4.882812 3.972656 4.878906 3.996094 4.886719 4.019531 C 4.898438 4.042969 4.914062 4.066406 4.945312 4.085938 L 4.949219 4.089844 C 4.980469 4.113281 5.007812 4.125 5.03125 4.121094 C 5.054688 4.121094 5.074219 4.113281 5.089844 4.09375 C 5.097656 4.078125 5.105469 4.066406 5.109375 4.054688 C 5.113281 4.042969 5.113281 4.035156 5.117188 4.027344 Z M 5.15625 4.054688 "/>
<path style=" stroke:none;fill-rule:evenodd;fill:rgb(0%,14.509804%,46.666667%);fill-opacity:1;" d="M 5.316406 3.660156 C 5.355469 3.695312 5.375 3.734375 5.378906 3.769531 C 5.378906 3.808594 5.367188 3.839844 5.339844 3.867188 C 5.3125 3.898438 5.277344 3.910156 5.242188 3.910156 C 5.207031 3.910156 5.167969 3.890625 5.132812 3.855469 L 5.117188 3.84375 C 5.085938 3.808594 5.066406 3.773438 5.058594 3.738281 C 5.054688 3.699219 5.066406 3.664062 5.097656 3.632812 C 5.128906 3.601562 5.160156 3.589844 5.199219 3.59375 C 5.238281 3.597656 5.273438 3.617188 5.304688 3.648438 Z M 5.261719 3.710938 L 5.257812 3.707031 C 5.226562 3.675781 5.203125 3.660156 5.183594 3.652344 C 5.167969 3.640625 5.148438 3.648438 5.128906 3.664062 C 5.113281 3.683594 5.109375 3.699219 5.113281 3.71875 C 5.121094 3.738281 5.140625 3.761719 5.171875 3.792969 L 5.179688 3.796875 C 5.210938 3.828125 5.238281 3.847656 5.253906 3.855469 C 5.269531 3.859375 5.289062 3.855469 5.304688 3.835938 C 5.320312 3.820312 5.324219 3.804688 5.316406 3.785156 C 5.3125 3.765625 5.292969 3.742188 5.261719 3.710938 Z M 5.261719 3.710938 "/>
<path style=" stroke:none;fill-rule:evenodd;fill:rgb(0%,14.509804%,46.666667%);fill-opacity:1;" d="M 5.730469 3.539062 L 5.707031 3.554688 L 5.453125 3.484375 L 5.574219 3.652344 L 5.53125 3.683594 L 5.339844 3.417969 L 5.371094 3.394531 L 5.609375 3.460938 L 5.496094 3.304688 L 5.539062 3.273438 Z M 5.730469 3.539062 "/>
<path style=" stroke:none;fill-rule:evenodd;fill:rgb(0%,14.509804%,46.666667%);fill-opacity:1;" d="M 6.019531 3.292969 C 6.035156 3.324219 6.035156 3.351562 6.019531 3.378906 C 6.007812 3.402344 5.980469 3.425781 5.941406 3.441406 C 5.921875 3.453125 5.902344 3.457031 5.886719 3.464844 C 5.871094 3.46875 5.855469 3.46875 5.847656 3.46875 L 5.820312 3.417969 C 5.832031 3.421875 5.84375 3.417969 5.863281 3.414062 C 5.882812 3.410156 5.898438 3.40625 5.914062 3.398438 C 5.933594 3.390625 5.949219 3.378906 5.953125 3.371094 C 5.960938 3.359375 5.960938 3.347656 5.953125 3.335938 C 5.949219 3.328125 5.941406 3.320312 5.933594 3.316406 C 5.925781 3.3125 5.902344 3.3125 5.871094 3.3125 C 5.84375 3.316406 5.820312 3.3125 5.804688 3.304688 C 5.785156 3.292969 5.769531 3.277344 5.757812 3.253906 C 5.75 3.230469 5.75 3.207031 5.761719 3.183594 C 5.773438 3.160156 5.796875 3.136719 5.832031 3.121094 C 5.847656 3.113281 5.863281 3.109375 5.878906 3.105469 C 5.894531 3.101562 5.902344 3.097656 5.910156 3.097656 L 5.929688 3.144531 C 5.917969 3.148438 5.90625 3.148438 5.894531 3.152344 C 5.882812 3.15625 5.867188 3.160156 5.855469 3.167969 C 5.839844 3.175781 5.828125 3.183594 5.820312 3.191406 C 5.816406 3.203125 5.816406 3.210938 5.820312 3.21875 C 5.824219 3.230469 5.832031 3.234375 5.839844 3.238281 C 5.847656 3.242188 5.867188 3.242188 5.902344 3.238281 C 5.933594 3.234375 5.957031 3.238281 5.976562 3.25 C 5.996094 3.257812 6.007812 3.273438 6.019531 3.292969 Z M 6.019531 3.292969 "/>
<path style=" stroke:none;fill-rule:evenodd;fill:rgb(0%,14.509804%,46.666667%);fill-opacity:1;" d="M 6.304688 3.308594 L 6.234375 3.328125 L 6.164062 3.058594 L 6.09375 3.078125 L 6.078125 3.03125 L 6.289062 2.976562 L 6.300781 3.023438 L 6.234375 3.039062 Z M 6.304688 3.308594 "/>
<path style=" stroke:none;fill-rule:evenodd;fill:rgb(0%,14.509804%,46.666667%);fill-opacity:1;" d="M 6.496094 2.949219 L 6.566406 2.945312 L 6.589844 3.269531 L 6.515625 3.277344 Z M 6.496094 2.949219 "/>
<path style=" stroke:none;fill-rule:evenodd;fill:rgb(0%,14.509804%,46.666667%);fill-opacity:1;" d="M 6.871094 3.28125 L 6.796875 3.273438 L 6.816406 2.996094 L 6.746094 2.992188 L 6.75 2.941406 L 6.964844 2.957031 L 6.964844 3.007812 L 6.890625 3 Z M 6.871094 3.28125 "/>
<path style=" stroke:none;fill-rule:evenodd;fill:rgb(0%,14.509804%,46.666667%);fill-opacity:1;" d="M 7.320312 3.289062 C 7.3125 3.316406 7.296875 3.335938 7.273438 3.347656 C 7.25 3.359375 7.21875 3.359375 7.179688 3.347656 C 7.140625 3.335938 7.113281 3.316406 7.101562 3.292969 C 7.089844 3.269531 7.089844 3.242188 7.097656 3.207031 L 7.164062 2.996094 L 7.234375 3.015625 L 7.167969 3.234375 C 7.160156 3.253906 7.160156 3.265625 7.167969 3.277344 C 7.171875 3.289062 7.183594 3.296875 7.203125 3.304688 C 7.21875 3.308594 7.234375 3.308594 7.246094 3.304688 C 7.257812 3.296875 7.265625 3.285156 7.269531 3.265625 L 7.335938 3.046875 L 7.390625 3.0625 Z M 7.320312 3.289062 "/>
<path style=" stroke:none;fill-rule:evenodd;fill:rgb(0%,14.509804%,46.666667%);fill-opacity:1;" d="M 7.542969 3.484375 L 7.476562 3.449219 L 7.605469 3.199219 L 7.539062 3.167969 L 7.5625 3.125 L 7.757812 3.222656 L 7.734375 3.265625 L 7.671875 3.234375 Z M 7.542969 3.484375 "/>
<path style=" stroke:none;fill-rule:evenodd;fill:rgb(0%,14.509804%,46.666667%);fill-opacity:1;" d="M 7.914062 3.324219 L 7.976562 3.367188 L 7.78125 3.632812 L 7.722656 3.589844 Z M 7.914062 3.324219 "/>
<path style=" stroke:none;fill-rule:evenodd;fill:rgb(0%,14.509804%,46.666667%);fill-opacity:1;" d="M 8.203125 3.804688 C 8.164062 3.839844 8.128906 3.859375 8.09375 3.863281 C 8.054688 3.863281 8.023438 3.851562 7.996094 3.820312 C 7.964844 3.792969 7.953125 3.761719 7.953125 3.726562 C 7.957031 3.6875 7.976562 3.652344 8.011719 3.617188 L 8.023438 3.601562 C 8.058594 3.570312 8.09375 3.550781 8.132812 3.542969 C 8.167969 3.539062 8.203125 3.554688 8.234375 3.585938 C 8.265625 3.617188 8.277344 3.648438 8.273438 3.6875 C 8.265625 3.722656 8.246094 3.757812 8.214844 3.792969 Z M 8.152344 3.75 L 8.160156 3.742188 C 8.1875 3.714844 8.207031 3.691406 8.214844 3.671875 C 8.222656 3.652344 8.21875 3.632812 8.199219 3.617188 C 8.183594 3.597656 8.167969 3.59375 8.148438 3.601562 C 8.128906 3.605469 8.105469 3.625 8.074219 3.65625 L 8.070312 3.664062 C 8.035156 3.695312 8.015625 3.71875 8.011719 3.738281 C 8.003906 3.753906 8.007812 3.769531 8.027344 3.789062 C 8.042969 3.804688 8.058594 3.808594 8.078125 3.800781 C 8.097656 3.796875 8.125 3.777344 8.152344 3.75 Z M 8.152344 3.75 "/>
<path style=" stroke:none;fill-rule:evenodd;fill:rgb(0%,14.509804%,46.666667%);fill-opacity:1;" d="M 8.328125 4.210938 L 8.308594 4.1875 L 8.378906 3.933594 L 8.214844 4.054688 L 8.183594 4.011719 L 8.449219 3.816406 L 8.472656 3.851562 L 8.40625 4.089844 L 8.5625 3.976562 L 8.59375 4.019531 Z M 8.328125 4.210938 "/>
<path style="fill-rule:evenodd;fill:rgb(98.039216%,71.764706%,0%);fill-opacity:1;stroke-width:1.6333;stroke-linecap:butt;stroke-linejoin:miter;stroke:rgb(98.039216%,71.764706%,0%);stroke-opacity:1;stroke-miterlimit:3.8637;" d="M 1673.15625 1398.9375 C 1673.15625 1398.9375 1677.375 1394.71875 1678.21875 1398.09375 C 1679.90625 1400.625 1679.90625 1404 1679.0625 1404.84375 C 1677.375 1405.6875 1677.375 1406.53125 1676.53125 1409.0625 C 1674.84375 1410.75 1675.6875 1411.59375 1674 1412.4375 C 1672.3125 1413.28125 1671.46875 1413.28125 1669.78125 1413.28125 L 1669.78125 1418.34375 L 1668.09375 1421.71875 L 1668.9375 1425.9375 L 1671.46875 1431.84375 L 1669.78125 1427.625 L 1672.3125 1432.6875 C 1674.84375 1438.59375 1695.9375 1444.5 1704.375 1447.875 C 1720.40625 1455.46875 1717.875 1489.21875 1719.5625 1492.59375 C 1721.25 1495.96875 1728 1541.53125 1728 1549.125 C 1728 1556.71875 1719.5625 1598.0625 1718.71875 1606.5 C 1717.875 1610.71875 1717.03125 1620.84375 1716.1875 1630.96875 C 1715.34375 1633.5 1712.8125 1630.96875 1711.96875 1632.65625 C 1710.28125 1635.1875 1711.125 1641.9375 1711.125 1644.46875 C 1710.28125 1649.53125 1709.4375 1652.90625 1708.59375 1655.4375 C 1707.75 1664.71875 1699.3125 1665.5625 1699.3125 1665.5625 C 1699.3125 1665.5625 1699.3125 1697.625 1697.625 1705.21875 C 1695.9375 1712.8125 1694.25 1714.5 1697.625 1735.59375 C 1700.15625 1756.6875 1693.40625 1782.84375 1693.40625 1782.84375 C 1693.40625 1782.84375 1684.96875 1821.65625 1683.28125 1827.5625 C 1681.59375 1833.46875 1684.125 1839.375 1684.96875 1843.59375 C 1685.8125 1847.8125 1685.8125 1854.5625 1685.8125 1854.5625 L 1611.5625 1854.5625 C 1609.875 1854.5625 1613.25 1847.8125 1614.9375 1842.75 C 1616.625 1841.0625 1620 1837.6875 1625.0625 1836.84375 C 1630.125 1836 1630.96875 1830.09375 1633.5 1823.34375 C 1636.875 1816.59375 1635.1875 1802.25 1632.65625 1793.8125 C 1630.125 1784.53125 1626.75 1762.59375 1626.75 1755 C 1626.75 1747.40625 1622.53125 1730.53125 1618.3125 1718.71875 C 1614.09375 1706.0625 1612.40625 1680.75 1612.40625 1678.21875 C 1612.40625 1676.53125 1611.5625 1675.6875 1610.71875 1673.15625 C 1609.03125 1670.625 1609.03125 1666.40625 1606.5 1659.65625 C 1602.28125 1647 1603.125 1632.65625 1602.28125 1620.84375 C 1602.28125 1608.1875 1597.21875 1594.6875 1595.53125 1592.15625 L 1593.84375 1586.25 L 1581.1875 1590.46875 L 1568.53125 1600.59375 C 1565.15625 1603.125 1562.625 1603.125 1557.5625 1603.96875 C 1547.4375 1604.8125 1537.3125 1593 1534.78125 1576.125 C 1532.25 1557.5625 1536.46875 1549.96875 1556.71875 1549.96875 L 1577.8125 1549.96875 C 1577.8125 1549.96875 1580.34375 1555.03125 1576.96875 1555.875 C 1572.75 1557.5625 1571.90625 1558.40625 1571.90625 1558.40625 L 1576.96875 1563.46875 C 1576.96875 1563.46875 1579.5 1561.78125 1587.09375 1557.5625 L 1589.625 1550.8125 C 1589.625 1546.59375 1590.46875 1545.75 1589.625 1540.6875 C 1588.78125 1536.46875 1587.09375 1509.46875 1587.09375 1502.71875 C 1587.09375 1496.8125 1587.09375 1489.21875 1587.9375 1481.625 C 1587.9375 1474.875 1587.9375 1460.53125 1591.3125 1453.78125 C 1595.53125 1446.1875 1617.46875 1442.8125 1617.46875 1442.8125 C 1617.46875 1442.8125 1626.75 1441.125 1628.4375 1438.59375 C 1628.4375 1437.75 1630.96875 1434.375 1631.8125 1432.6875 C 1625.90625 1430.15625 1624.21875 1422.5625 1623.375 1420.875 C 1621.6875 1419.1875 1620 1410.75 1620 1409.90625 C 1620 1408.21875 1618.3125 1400.625 1616.625 1397.25 C 1615.78125 1393.875 1616.625 1388.8125 1616.625 1388.8125 L 1609.875 1387.96875 L 1601.4375 1387.125 C 1601.4375 1387.125 1597.21875 1386.28125 1595.53125 1386.28125 C 1594.6875 1385.4375 1590.46875 1384.59375 1590.46875 1384.59375 C 1590.46875 1384.59375 1583.71875 1378.6875 1590.46875 1374.46875 C 1597.21875 1369.40625 1604.8125 1365.1875 1605.65625 1365.1875 C 1607.34375 1364.34375 1607.34375 1362.65625 1607.34375 1362.65625 L 1607.34375 1360.96875 C 1605.65625 1358.4375 1604.8125 1355.90625 1602.28125 1349.15625 C 1600.59375 1342.40625 1619.15625 1339.03125 1619.15625 1339.03125 C 1624.21875 1339.03125 1641.09375 1340.71875 1639.40625 1340.71875 C 1643.625 1341.5625 1645.3125 1341.5625 1652.90625 1341.5625 C 1659.65625 1341.5625 1668.9375 1344.09375 1674 1344.9375 C 1679.0625 1345.78125 1684.125 1350.84375 1686.65625 1355.0625 C 1689.1875 1360.125 1699.3125 1366.03125 1702.6875 1369.40625 C 1707.75 1373.625 1712.8125 1383.75 1715.34375 1387.125 C 1718.71875 1393.03125 1715.34375 1391.34375 1713.65625 1392.1875 C 1707.75 1395.5625 1674.84375 1388.8125 1678.21875 1388.8125 C 1679.90625 1388.8125 1679.90625 1387.96875 1677.375 1387.125 L 1677.375 1389.65625 L 1674.84375 1396.40625 Z M 1673.15625 1398.9375 " transform="matrix(0.00462963,0,0,0.00462963,0,0)"/>
<path style="fill:none;stroke-width:4.0833;stroke-linecap:butt;stroke-linejoin:miter;stroke:rgb(0%,14.509804%,46.666667%);stroke-opacity:1;stroke-miterlimit:3.8637;" d="M 1638.5625 1490.90625 C 1639.40625 1473.1875 1641.09375 1458.84375 1643.625 1447.875 C 1644.46875 1444.5 1643.625 1442.8125 1643.625 1442.8125 C 1638.5625 1442.8125 1636.03125 1441.96875 1630.96875 1436.90625 " transform="matrix(0.00462963,0,0,0.00462963,0,0)"/>
<path style="fill:none;stroke-width:4.8999;stroke-linecap:butt;stroke-linejoin:miter;stroke:rgb(0%,14.509804%,46.666667%);stroke-opacity:1;stroke-miterlimit:3.8637;" d="M 1609.875 1680.75 L 1610.71875 1673.15625 C 1610.71875 1673.15625 1613.25 1668.9375 1612.40625 1661.34375 C 1610.71875 1652.90625 1612.40625 1630.125 1614.09375 1619.15625 C 1615.78125 1608.1875 1633.5 1574.4375 1635.1875 1565.15625 C 1636.03125 1557.5625 1636.875 1532.25 1636.875 1529.71875 C 1636.875 1528.875 1636.03125 1526.34375 1636.03125 1517.0625 " transform="matrix(0.00462963,0,0,0.00462963,0,0)"/>
<path style="fill:none;stroke-width:5.4207;stroke-linecap:butt;stroke-linejoin:round;stroke:rgb(0%,14.509804%,46.666667%);stroke-opacity:1;stroke-miterlimit:3.8637;" d="M 1631.8125 1432.6875 L 1628.4375 1438.59375 C 1628.4375 1438.59375 1595.53125 1446.1875 1591.3125 1453.78125 C 1587.9375 1460.53125 1587.09375 1496.8125 1587.09375 1502.71875 C 1587.09375 1509.46875 1588.78125 1536.46875 1589.625 1540.6875 C 1590.46875 1545.75 1589.625 1546.59375 1589.625 1550.8125 " transform="matrix(0.00462963,0,0,0.00462963,0,0)"/>
<path style="fill:none;stroke-width:4.8999;stroke-linecap:butt;stroke-linejoin:miter;stroke:rgb(0%,14.509804%,46.666667%);stroke-opacity:1;stroke-miterlimit:3.8637;" d="M 1650.375 1539 C 1651.21875 1542.375 1650.375 1564.3125 1658.8125 1577.8125 C 1663.03125 1583.71875 1679.90625 1615.78125 1683.28125 1620 C 1685.8125 1622.53125 1690.875 1623.375 1692.5625 1626.75 C 1700.15625 1644.46875 1691.71875 1661.34375 1702.6875 1663.875 L 1705.21875 1674 " transform="matrix(0.00462963,0,0,0.00462963,0,0)"/>
<path style="fill:none;stroke-width:4.0833;stroke-linecap:butt;stroke-linejoin:miter;stroke:rgb(0%,14.509804%,46.666667%);stroke-opacity:1;stroke-miterlimit:3.8637;" d="M 1674 1431.84375 C 1672.3125 1434.375 1660.5 1441.96875 1652.90625 1441.96875 C 1650.375 1441.96875 1652.0625 1447.03125 1651.21875 1452.9375 C 1649.53125 1459.6875 1649.53125 1495.96875 1650.375 1501.03125 C 1651.21875 1502.71875 1650.375 1503.5625 1650.375 1509.46875 " transform="matrix(0.00462963,0,0,0.00462963,0,0)"/>
<path style="fill:none;stroke-width:4.8999;stroke-linecap:round;stroke-linejoin:round;stroke:rgb(0%,14.509804%,46.666667%);stroke-opacity:1;stroke-miterlimit:3.8637;" d="M 1684.96875 1477.40625 L 1689.1875 1494.28125 L 1695.09375 1526.34375 L 1697.625 1544.90625 L 1697.625 1576.125 L 1695.9375 1587.09375 L 1693.40625 1596.375 L 1689.1875 1626.75 C 1701.84375 1623.375 1710.28125 1626.75 1716.1875 1630.96875 " transform="matrix(0.00462963,0,0,0.00462963,0,0)"/>
<path style="fill:none;stroke-width:4.8999;stroke-linecap:butt;stroke-linejoin:miter;stroke:rgb(0%,14.509804%,46.666667%);stroke-opacity:1;stroke-miterlimit:3.8637;" d="M 1603.96875 1446.1875 L 1604.8125 1449.5625 C 1603.125 1442.8125 1624.21875 1533.9375 1694.25 1576.125 L 1697.625 1577.8125 " transform="matrix(0.00462963,0,0,0.00462963,0,0)"/>
<path style="fill:none;stroke-width:4.8999;stroke-linecap:butt;stroke-linejoin:miter;stroke:rgb(0%,14.509804%,46.666667%);stroke-opacity:1;stroke-miterlimit:3.8637;" d="M 1617.46875 1442.8125 C 1625.0625 1465.59375 1647 1524.65625 1696.78125 1555.03125 L 1697.625 1559.25 " transform="matrix(0.00462963,0,0,0.00462963,0,0)"/>
<path style="fill:none;stroke-width:4.8999;stroke-linecap:butt;stroke-linejoin:miter;stroke:rgb(0%,14.509804%,46.666667%);stroke-opacity:1;stroke-miterlimit:3.8637;" d="M 1627.59375 1582.03125 C 1641.09375 1584.5625 1649.53125 1584.5625 1660.5 1581.1875 " transform="matrix(0.00462963,0,0,0.00462963,0,0)"/>
<path style="fill:none;stroke-width:4.8999;stroke-linecap:butt;stroke-linejoin:miter;stroke:rgb(0%,14.509804%,46.666667%);stroke-opacity:1;stroke-miterlimit:3.8637;" d="M 1647.84375 1647.84375 C 1650.375 1665.5625 1653.75 1686.65625 1654.59375 1690.03125 C 1656.28125 1695.9375 1657.96875 1725.46875 1657.96875 1725.46875 L 1658.8125 1754.15625 L 1659.65625 1791.28125 L 1659.65625 1833.46875 C 1652.90625 1838.53125 1649.53125 1845.28125 1648.6875 1855.40625 " transform="matrix(0.00462963,0,0,0.00462963,0,0)"/>
<path style="fill:none;stroke-width:4.5172;stroke-linecap:butt;stroke-linejoin:round;stroke:rgb(0%,14.509804%,46.666667%);stroke-opacity:1;stroke-miterlimit:3.8637;" d="M 1578.65625 1556.71875 C 1573.59375 1563.46875 1552.5 1550.8125 1551.65625 1569.375 C 1550.8125 1583.71875 1553.34375 1599.75 1566.84375 1601.4375 L 1576.96875 1594.6875 L 1580.34375 1592.15625 " transform="matrix(0.00462963,0,0,0.00462963,0,0)"/>
<path style=" stroke:none;fill-rule:evenodd;fill:rgb(98.039216%,71.764706%,0%);fill-opacity:1;" d="M 7.25 7.171875 C 7.222656 6.746094 7.234375 6.371094 7.304688 6.089844 C 7.113281 6.367188 7.191406 7.171875 7.191406 7.171875 Z M 7.25 7.171875 "/>
<path style="fill:none;stroke-width:5.4207;stroke-linecap:butt;stroke-linejoin:round;stroke:rgb(0%,14.509804%,46.666667%);stroke-opacity:1;stroke-miterlimit:3.8637;" d="M 1589.625 1549.125 L 1587.09375 1557.5625 C 1579.5 1561.78125 1576.96875 1561.78125 1576.96875 1561.78125 " transform="matrix(0.00462963,0,0,0.00462963,0,0)"/>
<path style="fill:none;stroke-width:4.5172;stroke-linecap:butt;stroke-linejoin:round;stroke:rgb(0%,14.509804%,46.666667%);stroke-opacity:1;stroke-miterlimit:3.8637;" d="M 1576.125 1560.09375 C 1576.125 1560.09375 1583.71875 1579.5 1576.96875 1594.6875 " transform="matrix(0.00462963,0,0,0.00462963,0,0)"/>
<path style="fill:none;stroke-width:3.4882;stroke-linecap:butt;stroke-linejoin:round;stroke:rgb(0%,14.509804%,46.666667%);stroke-opacity:1;stroke-miterlimit:3.8637;" d="M 1566 1549.96875 L 1577.8125 1549.96875 C 1577.8125 1549.96875 1580.34375 1555.03125 1576.96875 1555.875 C 1572.75 1557.5625 1571.0625 1557.5625 1571.0625 1557.5625 " transform="matrix(0.00462963,0,0,0.00462963,0,0)"/>
<path style="fill:none;stroke-width:3.4882;stroke-linecap:butt;stroke-linejoin:miter;stroke:rgb(0%,14.509804%,46.666667%);stroke-opacity:1;stroke-miterlimit:3.8637;" d="M 1568.53125 1600.59375 C 1565.15625 1603.125 1562.625 1603.125 1557.5625 1603.96875 C 1547.4375 1604.8125 1537.3125 1593 1534.78125 1576.125 C 1532.25 1557.5625 1534.78125 1549.96875 1553.34375 1549.125 " transform="matrix(0.00462963,0,0,0.00462963,0,0)"/>
<path style="fill:none;stroke-width:3.4882;stroke-linecap:butt;stroke-linejoin:miter;stroke:rgb(0%,14.509804%,46.666667%);stroke-opacity:1;stroke-miterlimit:3.8637;" d="M 1571.0625 1557.5625 L 1558.40625 1557.5625 C 1558.40625 1557.5625 1551.65625 1559.25 1550.8125 1565.15625 C 1550.8125 1574.4375 1549.96875 1587.09375 1554.1875 1592.15625 L 1558.40625 1596.375 " transform="matrix(0.00462963,0,0,0.00462963,0,0)"/>
<path style="fill:none;stroke-width:4.0833;stroke-linecap:butt;stroke-linejoin:miter;stroke:rgb(0%,14.509804%,46.666667%);stroke-opacity:1;stroke-miterlimit:3.8637;" d="M 1616.625 1380.375 L 1618.3125 1387.125 L 1616.625 1389.65625 L 1600.59375 1389.65625 C 1600.59375 1389.65625 1596.375 1388.8125 1594.6875 1388.8125 C 1593.84375 1387.96875 1589.625 1387.125 1589.625 1387.125 C 1589.625 1387.125 1583.71875 1379.53125 1589.625 1374.46875 C 1596.375 1369.40625 1603.125 1366.03125 1603.96875 1365.1875 C 1605.65625 1364.34375 1605.65625 1365.1875 1605.65625 1365.1875 " transform="matrix(0.00462963,0,0,0.00462963,0,0)"/>
<path style="fill:none;stroke-width:1.6333;stroke-linecap:butt;stroke-linejoin:miter;stroke:rgb(0%,14.509804%,46.666667%);stroke-opacity:1;stroke-miterlimit:3.8637;" d="M 1616.625 1382.0625 L 1616.625 1389.65625 " transform="matrix(0.00462963,0,0,0.00462963,0,0)"/>
<path style="fill:none;stroke-width:3.2666;stroke-linecap:butt;stroke-linejoin:miter;stroke:rgb(0%,14.509804%,46.666667%);stroke-opacity:1;stroke-miterlimit:3.8637;" d="M 1617.46875 1387.125 C 1617.46875 1387.125 1615.78125 1393.875 1616.625 1397.25 C 1618.3125 1400.625 1620 1408.21875 1620 1409.90625 C 1620 1410.75 1621.6875 1419.1875 1623.375 1420.875 C 1624.21875 1422.5625 1625.90625 1431 1632.65625 1432.6875 C 1639.40625 1434.375 1647 1433.53125 1651.21875 1430.15625 " transform="matrix(0.00462963,0,0,0.00462963,0,0)"/>
<path style="fill:none;stroke-width:2.45;stroke-linecap:butt;stroke-linejoin:miter;stroke:rgb(0%,14.509804%,46.666667%);stroke-opacity:1;stroke-miterlimit:3.8637;" d="M 1630.96875 1416.65625 C 1630.96875 1416.65625 1634.34375 1415.8125 1635.1875 1416.65625 C 1636.03125 1416.65625 1639.40625 1417.5 1639.40625 1417.5 C 1639.40625 1417.5 1643.625 1416.65625 1644.46875 1416.65625 C 1646.15625 1417.5 1647.84375 1417.5 1648.6875 1417.5 " transform="matrix(0.00462963,0,0,0.00462963,0,0)"/>
<path style="fill:none;stroke-width:2.45;stroke-linecap:butt;stroke-linejoin:miter;stroke:rgb(0%,14.509804%,46.666667%);stroke-opacity:1;stroke-miterlimit:3.8637;" d="M 1633.5 1420.875 C 1633.5 1420.875 1641.09375 1422.5625 1644.46875 1421.71875 " transform="matrix(0.00462963,0,0,0.00462963,0,0)"/>
<path style="fill:none;stroke-width:2.45;stroke-linecap:butt;stroke-linejoin:miter;stroke:rgb(0%,14.509804%,46.666667%);stroke-opacity:1;stroke-miterlimit:3.8637;" d="M 1644.46875 1387.96875 C 1644.46875 1387.96875 1651.21875 1385.4375 1657.125 1389.65625 " transform="matrix(0.00462963,0,0,0.00462963,0,0)"/>
<path style="fill:none;stroke-width:1.9598;stroke-linecap:butt;stroke-linejoin:miter;stroke:rgb(0%,14.509804%,46.666667%);stroke-opacity:1;stroke-miterlimit:3.8637;" d="M 1635.1875 1387.96875 C 1636.03125 1388.8125 1635.1875 1393.03125 1634.34375 1394.71875 C 1633.5 1396.40625 1632.65625 1399.78125 1632.65625 1401.46875 C 1631.8125 1402.3125 1630.96875 1404.84375 1630.96875 1405.6875 C 1630.96875 1407.375 1630.96875 1407.375 1632.65625 1408.21875 C 1635.1875 1409.0625 1636.03125 1408.21875 1637.71875 1407.375 C 1639.40625 1407.375 1640.25 1406.53125 1641.9375 1407.375 C 1642.78125 1407.375 1644.46875 1406.53125 1644.46875 1404.84375 C 1644.46875 1404 1644.46875 1402.3125 1643.625 1401.46875 C 1642.78125 1400.625 1641.09375 1398.9375 1641.09375 1398.9375 " transform="matrix(0.00462963,0,0,0.00462963,0,0)"/>
<path style="fill:none;stroke-width:2.45;stroke-linecap:butt;stroke-linejoin:miter;stroke:rgb(0%,14.509804%,46.666667%);stroke-opacity:1;stroke-miterlimit:3.8637;" d="M 1622.53125 1388.8125 C 1623.375 1387.96875 1630.125 1384.59375 1636.03125 1388.8125 " transform="matrix(0.00462963,0,0,0.00462963,0,0)"/>
<path style="fill-rule:nonzero;fill:rgb(0%,14.509804%,46.666667%);fill-opacity:1;stroke-width:1.6333;stroke-linecap:butt;stroke-linejoin:miter;stroke:rgb(0%,14.509804%,46.666667%);stroke-opacity:1;stroke-miterlimit:3.8637;" d="M 1632.977002 2513.33752 C 1632.962235 2512.49386 1630.431254 2512.538161 1627.900273 2512.582462 C 1625.369292 2512.626763 1623.681972 2512.656297 1623.696739 2513.499957 C 1623.711506 2514.343617 1625.398826 2514.314083 1627.929807 2514.269782 C 1630.460788 2514.225481 1632.991769 2514.18118 1632.977002 2513.33752 Z M 1632.977002 2513.33752 " transform="matrix(-0.0046287,-0.0000810185,0.0000810185,-0.0046287,14.870565,18.215015)"/>
<path style="fill:none;stroke-width:3.2666;stroke-linecap:butt;stroke-linejoin:miter;stroke:rgb(0%,14.509804%,46.666667%);stroke-opacity:1;stroke-miterlimit:3.8637;" d="M 1631.8125 1432.6875 C 1631.8125 1432.6875 1632.65625 1432.6875 1632.65625 1432.6875 C 1639.40625 1434.375 1647 1433.53125 1651.21875 1430.15625 " transform="matrix(0.00462963,0,0,0.00462963,0,0)"/>
<path style="fill:none;stroke-width:3.2651;stroke-linecap:butt;stroke-linejoin:miter;stroke:rgb(0%,14.509804%,46.666667%);stroke-opacity:1;stroke-miterlimit:3.8637;" d="M 1615.78125 1339.03125 C 1615.78125 1339.03125 1598.0625 1344.09375 1600.59375 1350.84375 C 1602.28125 1357.59375 1603.96875 1360.96875 1605.65625 1363.5 C 1607.34375 1365.1875 1610.71875 1374.46875 1611.5625 1377 C 1612.40625 1379.53125 1611.5625 1383.75 1615.78125 1381.21875 C 1639.40625 1370.25 1688.34375 1389.65625 1678.21875 1388.8125 C 1674.84375 1388.8125 1710.28125 1396.40625 1715.34375 1392.1875 C 1717.03125 1391.34375 1719.5625 1389.65625 1715.34375 1383.75 C 1712.8125 1380.375 1706.0625 1371.9375 1701 1366.875 C 1697.625 1364.34375 1688.34375 1358.4375 1685.8125 1353.375 C 1683.28125 1349.15625 1676.53125 1344.9375 1670.625 1344.09375 C 1665.5625 1343.25 1657.125 1340.71875 1649.53125 1341.5625 C 1642.78125 1341.5625 1641.09375 1340.71875 1636.875 1340.71875 C 1638.5625 1340.71875 1620.84375 1338.1875 1615.78125 1339.03125 Z M 1615.78125 1339.03125 " transform="matrix(0.00462963,0,0,0.00462963,0,0)"/>
<path style="fill:none;stroke-width:4.9001;stroke-linecap:butt;stroke-linejoin:miter;stroke:rgb(0%,14.509804%,46.666667%);stroke-opacity:1;stroke-miterlimit:3.8637;" d="M 1657.125 1706.0625 C 1657.125 1706.0625 1675.6875 1717.03125 1697.625 1705.21875 C 1717.875 1694.25 1701 1703.53125 1701 1703.53125 " transform="matrix(0.00462963,0,0,0.00462963,0,0)"/>
<path style="fill:none;stroke-width:4.9001;stroke-linecap:butt;stroke-linejoin:miter;stroke:rgb(0%,14.509804%,46.666667%);stroke-opacity:1;stroke-miterlimit:3.8637;" d="M 1614.09375 1708.59375 C 1614.09375 1708.59375 1634.34375 1717.875 1655.4375 1706.90625 " transform="matrix(0.00462963,0,0,0.00462963,0,0)"/>
<path style="fill-rule:nonzero;fill:rgb(0%,14.509804%,46.666667%);fill-opacity:1;stroke-width:1.6333;stroke-linecap:butt;stroke-linejoin:miter;stroke:rgb(0%,14.509804%,46.666667%);stroke-opacity:1;stroke-miterlimit:3.8637;" d="M 1655.548647 2514.165673 C 1655.460388 2513.326539 1652.854729 2512.752182 1650.337329 2513.016959 C 1647.819929 2513.281735 1645.302529 2513.546511 1645.390788 2514.385645 C 1645.390788 2514.385645 1647.996447 2514.960002 1650.602106 2515.534359 C 1653.119506 2515.269582 1655.636906 2515.004806 1655.548647 2514.165673 Z M 1655.548647 2514.165673 " transform="matrix(-0.00460417,-0.000484259,0.000484259,-0.00460417,14.022101,18.826571)"/>
<path style="fill:none;stroke-width:4.8999;stroke-linecap:butt;stroke-linejoin:miter;stroke:rgb(0%,14.509804%,46.666667%);stroke-opacity:1;stroke-miterlimit:3.8637;" d="M 1623.375 1593 C 1636.03125 1598.0625 1655.4375 1596.375 1667.25 1593 " transform="matrix(0.00462963,0,0,0.00462963,0,0)"/>
<path style="fill-rule:evenodd;fill:rgb(98.039216%,71.764706%,0%);fill-opacity:1;stroke-width:0.6805;stroke-linecap:butt;stroke-linejoin:miter;stroke:rgb(0%,14.509804%,46.666667%);stroke-opacity:1;stroke-miterlimit:3.8637;" d="M 1779.46875 1834.3125 L 1948.21875 1834.3125 L 1948.21875 1857.09375 L 1779.46875 1857.09375 Z M 1779.46875 1834.3125 " transform="matrix(0.00462963,0,0,0.00462963,0,0)"/>
<path style=" stroke:none;fill-rule:nonzero;fill:rgb(70.980392%,0%,15.294118%);fill-opacity:1;" d="M 0 13.332031 L 32 13.332031 L 32 20 L 0 20 Z M 0 13.332031 "/>
</g>
</svg>
