<?xml version="1.0" encoding="UTF-8"?>
<svg xmlns="http://www.w3.org/2000/svg" xmlns:xlink="http://www.w3.org/1999/xlink" width="30pt" height="20pt" viewBox="0 0 30 20" version="1.1">
<g id="surface1">
<rect x="0" y="0" width="30" height="20" style="fill:rgb(0%,5.882353%,36.470588%);fill-opacity:1;stroke:none;"/>
<path style=" stroke:none;fill-rule:nonzero;fill:rgb(83.529412%,62.352941%,5.882353%);fill-opacity:1;" d="M 17.996094 2.777344 L 18.636719 2.777344 L 18.847656 2.152344 L 19.042969 2.777344 L 19.683594 2.777344 L 19.1875 3.183594 L 19.367188 3.773438 L 18.839844 3.417969 L 18.316406 3.777344 L 18.496094 3.179688 Z M 17.996094 2.777344 "/>
<path style=" stroke:none;fill-rule:nonzero;fill:rgb(83.529412%,62.352941%,5.882353%);fill-opacity:1;" d="M 20.800781 5.28125 L 21.441406 5.28125 L 21.652344 4.65625 L 21.84375 5.285156 L 22.488281 5.28125 L 21.988281 5.6875 L 22.171875 6.28125 L 21.644531 5.925781 L 21.121094 6.28125 L 21.300781 5.683594 Z M 20.800781 5.28125 "/>
<path style=" stroke:none;fill-rule:nonzero;fill:rgb(83.529412%,62.352941%,5.882353%);fill-opacity:1;" d="M 22.289062 8.886719 L 22.929688 8.886719 L 23.140625 8.261719 L 23.332031 8.890625 L 23.976562 8.886719 L 23.480469 9.292969 L 23.660156 9.886719 L 23.132812 9.53125 L 22.609375 9.886719 L 22.789062 9.289062 Z M 22.289062 8.886719 "/>
<path style=" stroke:none;fill-rule:nonzero;fill:rgb(83.529412%,62.352941%,5.882353%);fill-opacity:1;" d="M 19.253906 9.820312 L 19.894531 9.820312 L 20.105469 9.199219 L 20.300781 9.824219 L 20.941406 9.824219 L 20.445312 10.226562 L 20.625 10.820312 L 20.097656 10.464844 L 19.574219 10.824219 L 19.753906 10.222656 Z M 19.253906 9.820312 "/>
<path style=" stroke:none;fill-rule:nonzero;fill:rgb(83.529412%,62.352941%,5.882353%);fill-opacity:1;" d="M 21.710938 12.875 L 22.351562 12.875 L 22.5625 12.253906 L 22.757812 12.878906 L 23.398438 12.878906 L 22.902344 13.28125 L 23.082031 13.875 L 22.554688 13.519531 L 22.03125 13.878906 L 22.210938 13.277344 Z M 21.710938 12.875 "/>
<path style=" stroke:none;fill-rule:nonzero;fill:rgb(83.529412%,62.352941%,5.882353%);fill-opacity:1;" d="M 19.464844 15.960938 L 20.101562 15.960938 L 20.3125 15.335938 L 20.507812 15.960938 L 21.152344 15.960938 L 20.652344 16.367188 L 20.832031 16.960938 L 20.304688 16.605469 L 19.785156 16.960938 L 19.960938 16.363281 Z M 19.464844 15.960938 "/>
<path style=" stroke:none;fill-rule:nonzero;fill:rgb(83.529412%,62.352941%,5.882353%);fill-opacity:1;" d="M 17.746094 13.394531 L 18.386719 13.394531 L 18.59375 12.773438 L 18.789062 13.398438 L 19.433594 13.398438 L 18.933594 13.800781 L 19.117188 14.394531 L 18.589844 14.039062 L 18.066406 14.398438 L 18.246094 13.796875 Z M 17.746094 13.394531 "/>
<path style=" stroke:none;fill-rule:nonzero;fill:rgb(83.529412%,62.352941%,5.882353%);fill-opacity:1;" d="M 16.117188 17.875 L 16.753906 17.875 L 16.964844 17.253906 L 17.160156 17.878906 L 17.804688 17.878906 L 17.304688 18.28125 L 17.484375 18.875 L 16.960938 18.519531 L 16.4375 18.878906 L 16.613281 18.277344 Z M 16.117188 17.875 "/>
<path style=" stroke:none;fill-rule:nonzero;fill:rgb(83.529412%,62.352941%,5.882353%);fill-opacity:1;" d="M 12.082031 17.875 L 12.71875 17.875 L 12.929688 17.253906 L 13.125 17.878906 L 13.765625 17.878906 L 13.269531 18.28125 L 13.449219 18.875 L 12.921875 18.519531 L 12.402344 18.878906 L 12.578125 18.277344 Z M 12.082031 17.875 "/>
<path style=" stroke:none;fill-rule:nonzero;fill:rgb(83.529412%,62.352941%,5.882353%);fill-opacity:1;" d="M 10.640625 13.394531 L 11.277344 13.394531 L 11.488281 12.773438 L 11.683594 13.398438 L 12.328125 13.398438 L 11.828125 13.800781 L 12.007812 14.394531 L 11.484375 14.039062 L 10.960938 14.398438 L 11.136719 13.796875 Z M 10.640625 13.394531 "/>
<path style=" stroke:none;fill-rule:nonzero;fill:rgb(83.529412%,62.352941%,5.882353%);fill-opacity:1;" d="M 8.726562 15.960938 L 9.363281 15.960938 L 9.574219 15.335938 L 9.769531 15.960938 L 10.414062 15.960938 L 9.914062 16.367188 L 10.09375 16.960938 L 9.570312 16.605469 L 9.046875 16.960938 L 9.222656 16.363281 Z M 8.726562 15.960938 "/>
<path style=" stroke:none;fill-rule:nonzero;fill:rgb(83.529412%,62.352941%,5.882353%);fill-opacity:1;" d="M 6.519531 12.875 L 7.160156 12.875 L 7.367188 12.253906 L 7.5625 12.878906 L 8.207031 12.878906 L 7.707031 13.28125 L 7.890625 13.875 L 7.363281 13.519531 L 6.839844 13.878906 L 7.019531 13.277344 Z M 6.519531 12.875 "/>
<path style=" stroke:none;fill-rule:nonzero;fill:rgb(83.529412%,62.352941%,5.882353%);fill-opacity:1;" d="M 6.023438 8.886719 L 6.660156 8.886719 L 6.871094 8.261719 L 7.066406 8.890625 L 7.710938 8.886719 L 7.210938 9.292969 L 7.390625 9.886719 L 6.867188 9.53125 L 6.34375 9.886719 L 6.519531 9.289062 Z M 6.023438 8.886719 "/>
<path style=" stroke:none;fill-rule:nonzero;fill:rgb(83.529412%,62.352941%,5.882353%);fill-opacity:1;" d="M 9.117188 9.820312 L 9.753906 9.820312 L 9.964844 9.199219 L 10.160156 9.824219 L 10.800781 9.824219 L 10.304688 10.226562 L 10.484375 10.820312 L 9.957031 10.464844 L 9.4375 10.824219 L 9.613281 10.222656 Z M 9.117188 9.820312 "/>
<path style=" stroke:none;fill-rule:nonzero;fill:rgb(83.529412%,62.352941%,5.882353%);fill-opacity:1;" d="M 7.542969 5.28125 L 8.183594 5.28125 L 8.394531 4.65625 L 8.585938 5.285156 L 9.230469 5.28125 L 8.734375 5.6875 L 8.914062 6.28125 L 8.386719 5.925781 L 7.863281 6.28125 L 8.042969 5.683594 Z M 7.542969 5.28125 "/>
<path style=" stroke:none;fill-rule:nonzero;fill:rgb(83.529412%,62.352941%,5.882353%);fill-opacity:1;" d="M 10.367188 2.777344 L 11.003906 2.777344 L 11.214844 2.152344 L 11.410156 2.777344 L 12.050781 2.777344 L 11.554688 3.183594 L 11.734375 3.773438 L 11.207031 3.417969 L 10.6875 3.777344 L 10.863281 3.179688 Z M 10.367188 2.777344 "/>
<path style=" stroke:none;fill-rule:nonzero;fill:rgb(83.529412%,62.352941%,5.882353%);fill-opacity:1;" d="M 14.1875 1.730469 L 14.828125 1.730469 L 15.039062 1.105469 L 15.230469 1.730469 L 15.875 1.730469 L 15.375 2.136719 L 15.558594 2.730469 L 15.03125 2.371094 L 14.507812 2.730469 L 14.6875 2.132812 Z M 14.1875 1.730469 "/>
<path style=" stroke:none;fill-rule:nonzero;fill:rgb(83.529412%,62.352941%,5.882353%);fill-opacity:1;" d="M 18.339844 3.945312 L 16.453125 6.632812 L 16.335938 6.550781 L 18.222656 3.863281 Z M 18.339844 3.945312 "/>
<path style=" stroke:none;fill-rule:nonzero;fill:rgb(83.529412%,62.352941%,5.882353%);fill-opacity:1;" d="M 21.039062 5.828125 L 16.65625 7.511719 L 16.601562 7.378906 L 20.984375 5.695312 Z M 21.039062 5.828125 "/>
<path style=" stroke:none;fill-rule:nonzero;fill:rgb(83.529412%,62.352941%,5.882353%);fill-opacity:1;" d="M 22.042969 9.0625 L 16.714844 8.421875 L 16.730469 8.28125 L 22.0625 8.917969 Z M 22.042969 9.0625 "/>
<path style=" stroke:none;fill-rule:nonzero;fill:rgb(83.529412%,62.352941%,5.882353%);fill-opacity:1;" d="M 14.199219 14.878906 L 14.835938 14.878906 L 15.046875 14.257812 L 15.242188 14.882812 L 15.882812 14.882812 L 15.386719 15.285156 L 15.566406 15.878906 L 15.039062 15.523438 L 14.519531 15.882812 L 14.695312 15.28125 Z M 14.199219 14.878906 "/>
<path style=" stroke:none;fill-rule:nonzero;fill:rgb(83.529412%,62.352941%,5.882353%);fill-opacity:1;" d="M 13.855469 4.585938 L 14.753906 4.589844 L 15.050781 3.707031 L 15.324219 4.589844 L 16.230469 4.589844 L 15.527344 5.160156 L 15.78125 5.992188 L 15.042969 5.492188 L 14.304688 5.996094 L 14.554688 5.152344 Z M 13.855469 4.585938 "/>
<path style=" stroke:none;fill-rule:nonzero;fill:rgb(83.529412%,62.352941%,5.882353%);fill-opacity:1;" d="M 13.902344 8.90625 C 13.898438 8.90625 13.898438 8.902344 13.898438 8.902344 C 13.171875 7.945312 13.910156 7.589844 13.925781 6.914062 C 14.402344 7.804688 13.699219 8.082031 14.535156 8.910156 Z M 13.902344 8.90625 "/>
<path style=" stroke:none;fill-rule:nonzero;fill:rgb(83.529412%,62.352941%,5.882353%);fill-opacity:1;" d="M 14.703125 8.910156 C 14.445312 8.550781 14.269531 7.976562 14.34375 7.601562 C 14.421875 7.226562 14.679688 6.859375 14.644531 6.574219 C 14.777344 6.894531 14.90625 7.015625 14.867188 7.25 C 15.070312 6.644531 15.535156 6.332031 16.167969 6.300781 C 15.03125 7.167969 16.515625 7.832031 15.535156 8.910156 Z M 14.703125 8.910156 "/>
<path style=" stroke:none;fill-rule:nonzero;fill:rgb(83.529412%,62.352941%,5.882353%);fill-opacity:1;" d="M 15.746094 8.910156 C 16.648438 7.820312 15.5 7.261719 16.546875 6.773438 C 16.585938 7.09375 16.328125 7.09375 16.441406 7.488281 C 16.460938 7.660156 16.4375 7.800781 16.382812 7.917969 C 16.488281 7.789062 16.695312 7.539062 16.828125 7.445312 C 16.515625 7.914062 16.851562 8.324219 16.101562 8.910156 L 15.730469 8.910156 "/>
<path style=" stroke:none;fill-rule:nonzero;fill:rgb(83.529412%,62.352941%,5.882353%);fill-opacity:1;" d="M 15.59375 11.261719 C 15.632812 10.242188 15.851562 9.929688 16.265625 9.5 C 15.460938 9.5 14.5625 9.5 13.832031 9.5 C 14.242188 9.925781 14.460938 10.238281 14.5 11.261719 C 14.863281 11.261719 15.230469 11.261719 15.59375 11.261719 Z M 15.59375 11.261719 "/>
<path style=" stroke:none;fill-rule:nonzero;fill:rgb(83.529412%,62.352941%,5.882353%);fill-opacity:1;" d="M 15.042969 13.757812 L 15.359375 14.757812 L 15.539062 11.796875 C 15.210938 11.792969 14.882812 11.792969 14.554688 11.792969 L 14.722656 14.757812 Z M 15.042969 13.757812 "/>
<path style=" stroke:none;fill-rule:nonzero;fill:rgb(83.529412%,62.352941%,5.882353%);fill-opacity:1;" d="M 15.039062 18.238281 C 15.179688 18.109375 15.21875 17.683594 15.21875 17.683594 L 15.304688 15.953125 L 15.039062 15.765625 L 14.773438 15.949219 L 14.859375 17.683594 C 14.859375 17.683594 14.898438 18.105469 15.039062 18.238281 Z M 15.039062 18.238281 "/>
<path style=" stroke:none;fill-rule:nonzero;fill:rgb(83.529412%,62.352941%,5.882353%);fill-opacity:1;" d="M 16.460938 9.316406 L 13.632812 9.316406 L 13.632812 9.046875 L 16.460938 9.050781 Z M 16.460938 9.316406 "/>
<path style=" stroke:none;fill-rule:nonzero;fill:rgb(83.529412%,62.352941%,5.882353%);fill-opacity:1;" d="M 15.773438 11.707031 L 14.28125 11.703125 L 14.28125 11.371094 L 15.773438 11.371094 Z M 15.773438 11.707031 "/>
<path style=" stroke:none;fill-rule:nonzero;fill:rgb(83.529412%,62.352941%,5.882353%);fill-opacity:1;" d="M 8.023438 9.0625 L 13.351562 8.421875 L 13.335938 8.28125 L 8.003906 8.917969 Z M 8.023438 9.0625 "/>
<path style=" stroke:none;fill-rule:nonzero;fill:rgb(83.529412%,62.352941%,5.882353%);fill-opacity:1;" d="M 9.035156 5.828125 L 13.417969 7.511719 L 13.46875 7.378906 L 9.089844 5.695312 Z M 9.035156 5.828125 "/>
<path style=" stroke:none;fill-rule:nonzero;fill:rgb(83.529412%,62.352941%,5.882353%);fill-opacity:1;" d="M 11.75 3.945312 L 13.636719 6.632812 L 13.753906 6.550781 L 11.867188 3.863281 Z M 11.75 3.945312 "/>
<path style=" stroke:none;fill-rule:nonzero;fill:rgb(83.529412%,62.352941%,5.882353%);fill-opacity:1;" d="M 14.957031 5.707031 L 14.953125 6.6875 L 15.097656 6.6875 L 15.097656 5.707031 Z M 14.957031 5.707031 "/>
<path style=" stroke:none;fill-rule:nonzero;fill:rgb(83.529412%,62.352941%,5.882353%);fill-opacity:1;" d="M 13.476562 4.601562 L 12.855469 4.28125 L 12.898438 4.199219 L 13.519531 4.515625 L 13.476562 4.601562 M 13.582031 4.371094 L 13.078125 3.886719 L 13.152344 3.8125 L 13.742188 3.929688 C 13.753906 3.933594 13.765625 3.9375 13.777344 3.9375 C 13.789062 3.941406 13.796875 3.945312 13.804688 3.949219 L 13.398438 3.554688 L 13.460938 3.492188 L 13.960938 3.976562 L 13.890625 4.050781 L 13.292969 3.929688 C 13.28125 3.929688 13.273438 3.925781 13.265625 3.925781 C 13.253906 3.921875 13.246094 3.917969 13.238281 3.914062 L 13.644531 4.304688 L 13.582031 4.371094 M 14.109375 3.222656 L 13.957031 3.28125 L 14.148438 3.777344 L 14.300781 3.71875 C 14.367188 3.691406 14.40625 3.652344 14.421875 3.597656 C 14.441406 3.542969 14.433594 3.472656 14.402344 3.390625 C 14.371094 3.3125 14.328125 3.257812 14.277344 3.230469 C 14.230469 3.199219 14.171875 3.199219 14.109375 3.222656 M 14.09375 3.890625 L 13.839844 3.242188 L 14.085938 3.144531 C 14.175781 3.109375 14.257812 3.109375 14.324219 3.144531 C 14.394531 3.179688 14.449219 3.25 14.488281 3.351562 C 14.53125 3.457031 14.535156 3.546875 14.511719 3.625 C 14.484375 3.703125 14.425781 3.761719 14.335938 3.796875 L 14.09375 3.890625 M 14.746094 3.691406 L 14.691406 3 L 14.785156 2.992188 L 14.839844 3.6875 L 14.746094 3.691406 M 15.171875 3.410156 L 15.386719 3.449219 L 15.335938 3.128906 L 15.171875 3.410156 M 14.921875 3.65625 L 15.304688 3.019531 L 15.40625 3.039062 L 15.53125 3.773438 L 15.429688 3.753906 L 15.398438 3.535156 L 15.128906 3.484375 L 15.015625 3.671875 L 14.921875 3.65625 M 15.601562 3.808594 L 15.996094 3.234375 L 16.078125 3.292969 L 16.0625 3.894531 C 16.0625 3.90625 16.0625 3.917969 16.058594 3.929688 C 16.058594 3.941406 16.058594 3.953125 16.054688 3.960938 L 16.375 3.496094 L 16.449219 3.546875 L 16.054688 4.121094 L 15.96875 4.0625 L 15.984375 3.453125 C 15.988281 3.441406 15.988281 3.433594 15.988281 3.421875 C 15.988281 3.414062 15.992188 3.402344 15.992188 3.394531 L 15.675781 3.859375 L 15.601562 3.808594 M 16.464844 4.1875 L 16.582031 4.371094 L 16.785156 4.117188 L 16.464844 4.1875 M 16.113281 4.171875 L 16.839844 4.019531 L 16.898438 4.109375 L 16.445312 4.699219 L 16.390625 4.609375 L 16.527344 4.4375 L 16.382812 4.207031 L 16.167969 4.253906 L 16.113281 4.171875 "/>
</g>
</svg>
