<?xml version="1.0" encoding="UTF-8"?>
<svg xmlns="http://www.w3.org/2000/svg" xmlns:xlink="http://www.w3.org/1999/xlink" width="30pt" height="20pt" viewBox="0 0 30 20" version="1.1">
<g id="surface1">
<path style=" stroke:none;fill-rule:nonzero;fill:rgb(0%,0%,0%);fill-opacity:1;" d="M 0 0 L 15 0 L 15 10 L 0 10 Z M 0 0 "/>
<path style=" stroke:none;fill-rule:nonzero;fill:rgb(91.764706%,67.058824%,0%);fill-opacity:1;" d="M 0 10 L 0 1.667969 L 2.5 3.332031 L 2.5 10 L 5 10 L 5 0 L 7.5 0 L 7.5 10 L 10 10 L 10 0 L 12.5 0 L 12.5 10 L 15 10 L 15 8.332031 L 2.5 0 L 2.5 3.332031 L 12.5 10 Z M 0 10 "/>
<path style=" stroke:none;fill-rule:nonzero;fill:rgb(100%,100%,100%);fill-opacity:1;" d="M 15 0 L 30 0 L 30 10 L 15 10 Z M 15 0 "/>
<path style=" stroke:none;fill-rule:nonzero;fill:rgb(59.607843%,11.764706%,19.607843%);fill-opacity:1;" d="M 22.5 0 L 30 0 L 30 5 L 15 5 L 15 10 L 22.5 10 Z M 22.5 0 "/>
<path style=" stroke:none;fill-rule:nonzero;fill:rgb(59.607843%,11.764706%,19.607843%);fill-opacity:1;" d="M 22.5 9.300781 C 22.851562 9.300781 23.140625 9.011719 23.140625 8.660156 L 23.140625 8.339844 L 23.761719 8.339844 C 24.113281 8.339844 24.398438 8.054688 24.398438 7.699219 C 24.398438 7.347656 24.113281 7.058594 23.761719 7.058594 L 23.140625 7.058594 L 23.140625 5.640625 L 27.121094 5.640625 L 27.121094 6.261719 C 27.121094 6.613281 27.40625 6.898438 27.761719 6.898438 C 28.113281 6.898438 28.398438 6.613281 28.398438 6.261719 L 28.398438 5.640625 L 28.960938 5.640625 C 29.3125 5.640625 29.601562 5.351562 29.601562 5 L 22.5 5 Z M 22.5 9.300781 "/>
<path style=" stroke:none;fill-rule:nonzero;fill:rgb(100%,100%,100%);fill-opacity:1;" d="M 22.5 9.300781 C 22.148438 9.300781 21.859375 9.011719 21.859375 8.660156 L 21.859375 8.339844 L 21.238281 8.339844 C 20.886719 8.339844 20.601562 8.054688 20.601562 7.699219 C 20.601562 7.347656 20.886719 7.058594 21.238281 7.058594 L 21.859375 7.058594 L 21.859375 5.640625 L 17.878906 5.640625 L 17.878906 6.261719 C 17.878906 6.613281 17.59375 6.898438 17.238281 6.898438 C 16.886719 6.898438 16.601562 6.613281 16.601562 6.261719 L 16.601562 5.640625 L 16.039062 5.640625 C 15.6875 5.640625 15.398438 5.351562 15.398438 5 L 22.5 5 Z M 22.5 9.300781 "/>
<path style=" stroke:none;fill-rule:nonzero;fill:rgb(100%,100%,100%);fill-opacity:1;" d="M 22.5 0.699219 C 22.851562 0.699219 23.140625 0.988281 23.140625 1.339844 L 23.140625 1.660156 L 23.761719 1.660156 C 24.113281 1.660156 24.398438 1.945312 24.398438 2.300781 C 24.398438 2.652344 24.113281 2.941406 23.761719 2.941406 L 23.140625 2.941406 L 23.140625 4.359375 L 27.121094 4.359375 L 27.121094 3.738281 C 27.121094 3.386719 27.40625 3.101562 27.761719 3.101562 C 28.113281 3.101562 28.398438 3.386719 28.398438 3.738281 L 28.398438 4.359375 L 28.960938 4.359375 C 29.3125 4.359375 29.601562 4.648438 29.601562 5 L 22.5 5 Z M 22.5 0.699219 "/>
<path style=" stroke:none;fill-rule:nonzero;fill:rgb(59.607843%,11.764706%,19.607843%);fill-opacity:1;" d="M 22.5 0.699219 C 22.148438 0.699219 21.859375 0.988281 21.859375 1.339844 L 21.859375 1.660156 L 21.238281 1.660156 C 20.886719 1.660156 20.601562 1.945312 20.601562 2.300781 C 20.601562 2.652344 20.886719 2.941406 21.238281 2.941406 L 21.859375 2.941406 L 21.859375 4.359375 L 17.878906 4.359375 L 17.878906 3.738281 C 17.878906 3.386719 17.59375 3.101562 17.238281 3.101562 C 16.886719 3.101562 16.601562 3.386719 16.601562 3.738281 L 16.601562 4.359375 L 16.039062 4.359375 C 15.6875 4.359375 15.398438 4.648438 15.398438 5 L 22.5 5 Z M 22.5 0.699219 "/>
<path style=" stroke:none;fill-rule:nonzero;fill:rgb(100%,100%,100%);fill-opacity:1;" d="M 0 10 L 15 10 L 15 20 L 0 20 Z M 0 10 "/>
<path style=" stroke:none;fill-rule:nonzero;fill:rgb(59.607843%,11.764706%,19.607843%);fill-opacity:1;" d="M 7.5 10 L 15 10 L 15 15 L 0 15 L 0 20 L 7.5 20 Z M 7.5 10 "/>
<path style=" stroke:none;fill-rule:nonzero;fill:rgb(59.607843%,11.764706%,19.607843%);fill-opacity:1;" d="M 7.5 19.300781 C 7.851562 19.300781 8.140625 19.011719 8.140625 18.660156 L 8.140625 18.339844 L 8.761719 18.339844 C 9.113281 18.339844 9.398438 18.054688 9.398438 17.699219 C 9.398438 17.347656 9.113281 17.058594 8.761719 17.058594 L 8.140625 17.058594 L 8.140625 15.640625 L 12.121094 15.640625 L 12.121094 16.261719 C 12.121094 16.613281 12.40625 16.898438 12.761719 16.898438 C 13.113281 16.898438 13.398438 16.613281 13.398438 16.261719 L 13.398438 15.640625 L 13.960938 15.640625 C 14.3125 15.640625 14.601562 15.351562 14.601562 15 L 7.5 15 Z M 7.5 19.300781 "/>
<path style=" stroke:none;fill-rule:nonzero;fill:rgb(100%,100%,100%);fill-opacity:1;" d="M 7.5 19.300781 C 7.148438 19.300781 6.859375 19.011719 6.859375 18.660156 L 6.859375 18.339844 L 6.238281 18.339844 C 5.886719 18.339844 5.601562 18.054688 5.601562 17.699219 C 5.601562 17.347656 5.886719 17.058594 6.238281 17.058594 L 6.859375 17.058594 L 6.859375 15.640625 L 2.878906 15.640625 L 2.878906 16.261719 C 2.878906 16.613281 2.59375 16.898438 2.238281 16.898438 C 1.886719 16.898438 1.601562 16.613281 1.601562 16.261719 L 1.601562 15.640625 L 1.039062 15.640625 C 0.6875 15.640625 0.398438 15.351562 0.398438 15 L 7.5 15 Z M 7.5 19.300781 "/>
<path style=" stroke:none;fill-rule:nonzero;fill:rgb(100%,100%,100%);fill-opacity:1;" d="M 7.5 10.699219 C 7.851562 10.699219 8.140625 10.988281 8.140625 11.339844 L 8.140625 11.660156 L 8.761719 11.660156 C 9.113281 11.660156 9.398438 11.945312 9.398438 12.300781 C 9.398438 12.652344 9.113281 12.941406 8.761719 12.941406 L 8.140625 12.941406 L 8.140625 14.359375 L 12.121094 14.359375 L 12.121094 13.738281 C 12.121094 13.386719 12.40625 13.101562 12.761719 13.101562 C 13.113281 13.101562 13.398438 13.386719 13.398438 13.738281 L 13.398438 14.359375 L 13.960938 14.359375 C 14.3125 14.359375 14.601562 14.648438 14.601562 15 L 7.5 15 Z M 7.5 10.699219 "/>
<path style=" stroke:none;fill-rule:nonzero;fill:rgb(59.607843%,11.764706%,19.607843%);fill-opacity:1;" d="M 7.5 10.699219 C 7.148438 10.699219 6.859375 10.988281 6.859375 11.339844 L 6.859375 11.660156 L 6.238281 11.660156 C 5.886719 11.660156 5.601562 11.945312 5.601562 12.300781 C 5.601562 12.652344 5.886719 12.941406 6.238281 12.941406 L 6.859375 12.941406 L 6.859375 14.359375 L 2.878906 14.359375 L 2.878906 13.738281 C 2.878906 13.386719 2.59375 13.101562 2.238281 13.101562 C 1.886719 13.101562 1.601562 13.386719 1.601562 13.738281 L 1.601562 14.359375 L 1.039062 14.359375 C 0.6875 14.359375 0.398438 14.648438 0.398438 15 L 7.5 15 Z M 7.5 10.699219 "/>
<path style=" stroke:none;fill-rule:nonzero;fill:rgb(0%,0%,0%);fill-opacity:1;" d="M 15 10 L 30 10 L 30 20 L 15 20 Z M 15 10 "/>
<path style=" stroke:none;fill-rule:nonzero;fill:rgb(91.764706%,67.058824%,0%);fill-opacity:1;" d="M 15 20 L 15 11.667969 L 17.5 13.332031 L 17.5 20 L 20 20 L 20 10 L 22.5 10 L 22.5 20 L 25 20 L 25 10 L 27.5 10 L 27.5 20 L 30 20 L 30 18.332031 L 17.5 10 L 17.5 13.332031 L 27.5 20 Z M 15 20 "/>
</g>
</svg>
