<?xml version="1.0" encoding="UTF-8"?>
<svg xmlns="http://www.w3.org/2000/svg" xmlns:xlink="http://www.w3.org/1999/xlink" width="30pt" height="20pt" viewBox="0 0 30 20" version="1.1">
<defs>
<radialGradient id="radial0" gradientUnits="userSpaceOnUse" cx="79.311195" cy="182.97906" fx="79.311195" fy="182.97906" r="10.848755" gradientTransform="matrix(1,-0.000000000000000043,0.000000000000000002,0.948274,0.000000000000000679,9.464744)">
<stop offset="0" style="stop-color:rgb(0.392157%,25.098039%,1.568627%);stop-opacity:1;"/>
<stop offset="1" style="stop-color:rgb(0.392157%,25.098039%,1.568627%);stop-opacity:0;"/>
</radialGradient>
<radialGradient id="radial1" gradientUnits="userSpaceOnUse" cx="86.411697" cy="158.86601" fx="86.411697" fy="158.86601" r="10.747751" gradientTransform="matrix(1,0.000000000000000001,-0.000000000000000002,1.016389,-0.000000000000001252,-2.603596)">
<stop offset="0" style="stop-color:rgb(0.392157%,25.098039%,1.568627%);stop-opacity:1;"/>
<stop offset="1" style="stop-color:rgb(0.392157%,25.098039%,1.568627%);stop-opacity:0;"/>
</radialGradient>
<radialGradient id="radial2" gradientUnits="userSpaceOnUse" cx="63.26545" cy="165.39787" fx="63.26545" fy="165.39787" r="6.975572" gradientTransform="matrix(1,-0.000000000000000043,0.000000000000000005,1.351548,-0.000000000000001083,-58.145304)">
<stop offset="0" style="stop-color:rgb(0.392157%,25.098039%,1.568627%);stop-opacity:1;"/>
<stop offset="1" style="stop-color:rgb(0.392157%,25.098039%,1.568627%);stop-opacity:0;"/>
</radialGradient>
<radialGradient id="radial3" gradientUnits="userSpaceOnUse" cx="62.873631" cy="141.39333" fx="62.873631" fy="141.39333" r="9.732916" gradientTransform="matrix(1,-0.000000000000000043,0.000000000000000009,0.725878,-0.000000000000000173,38.759054)">
<stop offset="0" style="stop-color:rgb(0.392157%,25.098039%,1.568627%);stop-opacity:1;"/>
<stop offset="1" style="stop-color:rgb(0.392157%,25.098039%,1.568627%);stop-opacity:0;"/>
</radialGradient>
<radialGradient id="radial4" gradientUnits="userSpaceOnUse" cx="59.14267" cy="118.90606" fx="59.14267" fy="118.90606" r="6.907371" gradientTransform="matrix(1,0.000000000000000001,-0.000000000000000003,1.157971,-0.000000000000000264,-18.783666)">
<stop offset="0" style="stop-color:rgb(0.392157%,25.098039%,1.568627%);stop-opacity:1;"/>
<stop offset="1" style="stop-color:rgb(0.392157%,25.098039%,1.568627%);stop-opacity:0;"/>
</radialGradient>
<radialGradient id="radial5" gradientUnits="userSpaceOnUse" cx="77.340126" cy="102.59047" fx="77.340126" fy="102.59047" r="8.255014" gradientTransform="matrix(1,0.000000000000000001,-0.000000000000000005,0.694891,-0.000000000000000626,31.30127)">
<stop offset="0" style="stop-color:rgb(0.392157%,25.098039%,1.568627%);stop-opacity:1;"/>
<stop offset="1" style="stop-color:rgb(0.392157%,25.098039%,1.568627%);stop-opacity:0;"/>
</radialGradient>
<radialGradient id="radial6" gradientUnits="userSpaceOnUse" cx="95.646194" cy="127.45675" fx="95.646194" fy="127.45675" r="9.389383" gradientTransform="matrix(1,-0.000000000000000043,-0.000000000000000006,0.977248,-0.000000000000000236,2.89989)">
<stop offset="0" style="stop-color:rgb(0.392157%,25.098039%,1.568627%);stop-opacity:1;"/>
<stop offset="1" style="stop-color:rgb(0.392157%,25.098039%,1.568627%);stop-opacity:0;"/>
</radialGradient>
<radialGradient id="radial7" gradientUnits="userSpaceOnUse" cx="79.311195" cy="182.97906" fx="79.311195" fy="182.97906" r="10.848755" gradientTransform="matrix(1,0.000000000000000031,-0.000000000000000004,0.948274,-0.00000000000001335,9.464744)">
<stop offset="0" style="stop-color:rgb(0.392157%,25.098039%,1.568627%);stop-opacity:1;"/>
<stop offset="1" style="stop-color:rgb(0.392157%,25.098039%,1.568627%);stop-opacity:0;"/>
</radialGradient>
<radialGradient id="radial8" gradientUnits="userSpaceOnUse" cx="86.411697" cy="158.86601" fx="86.411697" fy="158.86601" r="10.747751" gradientTransform="matrix(1,0.000000000000000031,0.000000000000000007,1.016389,0.000000000000011019,-2.603596)">
<stop offset="0" style="stop-color:rgb(0.392157%,25.098039%,1.568627%);stop-opacity:1;"/>
<stop offset="1" style="stop-color:rgb(0.392157%,25.098039%,1.568627%);stop-opacity:0;"/>
</radialGradient>
<radialGradient id="radial9" gradientUnits="userSpaceOnUse" cx="63.26545" cy="165.39787" fx="63.26545" fy="165.39787" r="6.975572" gradientTransform="matrix(1,0.000000000000000031,-0.000000000000000004,1.351548,0.000000000000021427,-58.145304)">
<stop offset="0" style="stop-color:rgb(0.392157%,25.098039%,1.568627%);stop-opacity:1;"/>
<stop offset="1" style="stop-color:rgb(0.392157%,25.098039%,1.568627%);stop-opacity:0;"/>
</radialGradient>
<radialGradient id="radial10" gradientUnits="userSpaceOnUse" cx="62.873631" cy="141.39333" fx="62.873631" fy="141.39333" r="9.732916" gradientTransform="matrix(1,-0.000000000000000012,-0.000000000000000006,0.725878,-0.000000000000000305,38.759054)">
<stop offset="0" style="stop-color:rgb(0.392157%,25.098039%,1.568627%);stop-opacity:1;"/>
<stop offset="1" style="stop-color:rgb(0.392157%,25.098039%,1.568627%);stop-opacity:0;"/>
</radialGradient>
<radialGradient id="radial11" gradientUnits="userSpaceOnUse" cx="59.14267" cy="118.90606" fx="59.14267" fy="118.90606" r="6.907371" gradientTransform="matrix(1,0.000000000000000031,0.000000000000000003,1.157971,0.000000000000022121,-18.783666)">
<stop offset="0" style="stop-color:rgb(0.392157%,25.098039%,1.568627%);stop-opacity:1;"/>
<stop offset="1" style="stop-color:rgb(0.392157%,25.098039%,1.568627%);stop-opacity:0;"/>
</radialGradient>
<radialGradient id="radial12" gradientUnits="userSpaceOnUse" cx="77.340126" cy="102.59047" fx="77.340126" fy="102.59047" r="8.255014" gradientTransform="matrix(1,0.000000000000000031,0.000000000000000005,0.694891,0.00000000000000655,31.30127)">
<stop offset="0" style="stop-color:rgb(0.392157%,25.098039%,1.568627%);stop-opacity:1;"/>
<stop offset="1" style="stop-color:rgb(0.392157%,25.098039%,1.568627%);stop-opacity:0;"/>
</radialGradient>
<radialGradient id="radial13" gradientUnits="userSpaceOnUse" cx="95.646194" cy="127.45675" fx="95.646194" fy="127.45675" r="9.389383" gradientTransform="matrix(1,-0.000000000000000012,-0.000000000000000003,0.977248,-0.000000000000008216,2.89989)">
<stop offset="0" style="stop-color:rgb(0.392157%,25.098039%,1.568627%);stop-opacity:1;"/>
<stop offset="1" style="stop-color:rgb(0.392157%,25.098039%,1.568627%);stop-opacity:0;"/>
</radialGradient>
</defs>
<g id="surface1">
<rect x="0" y="0" width="30" height="20" style="fill:rgb(0%,27.843137%,67.058824%);fill-opacity:1;stroke:none;"/>
<path style="fill-rule:evenodd;fill:rgb(100%,87.45098%,0%);fill-opacity:0.941176;stroke-width:1.25;stroke-linecap:butt;stroke-linejoin:miter;stroke:rgb(0%,0%,0%);stroke-opacity:1;stroke-miterlimit:4;" d="M 61.416027 74.364905 C 54.455211 86.791646 35.022931 86.791646 33.959473 91.319219 C 32.992692 95.846791 36.956491 100.08537 36.956491 100.08537 C 36.956491 100.08537 65.66986 91.030225 71.663896 82.071411 C 77.657933 73.112598 61.416027 74.364905 61.416027 74.364905 Z M 61.416027 74.364905 " transform="matrix(-0.0404047,0,0,0.0405502,12.129936,0.386836)"/>
<path style="fill-rule:evenodd;fill:rgb(100%,87.45098%,0%);fill-opacity:1;stroke-width:1.25;stroke-linecap:butt;stroke-linejoin:miter;stroke:rgb(0%,0%,0%);stroke-opacity:1;stroke-miterlimit:4;" d="M 33.862795 92.956851 C 33.476083 96.135785 45.174122 92.089869 47.68775 92.282532 C 50.201378 92.571526 52.715006 95.557797 51.748226 97.291761 C 50.684768 99.025725 44.497376 101.819333 41.210323 102.108327 C 38.019949 102.30099 33.282727 96.617442 33.862795 92.956851 Z M 33.862795 92.956851 " transform="matrix(-0.0404047,0,0,0.0405502,12.129936,0.386836)"/>
<path style="fill-rule:evenodd;fill:rgb(100%,87.45098%,0%);fill-opacity:0.941176;stroke-width:1.25;stroke-linecap:butt;stroke-linejoin:miter;stroke:rgb(0%,0%,0%);stroke-opacity:1;stroke-miterlimit:4;" d="M 39.953509 111.163472 C 36.956491 101.915665 54.068499 95.365134 47.591072 93.631171 C 51.07148 93.438508 56.292093 97.580755 53.681786 101.145014 C 52.811684 102.397321 40.726933 105.19093 39.953509 111.163472 Z M 39.953509 111.163472 " transform="matrix(-0.0404047,0,0,0.0405502,12.129936,0.386836)"/>
<path style="fill-rule:evenodd;fill:rgb(100%,87.45098%,0%);fill-opacity:1;stroke-width:1.25;stroke-linecap:butt;stroke-linejoin:miter;stroke:rgb(0%,0%,0%);stroke-opacity:1;stroke-miterlimit:4;" d="M 61.495533 74.325208 C 54.438038 86.848281 35.005758 86.848281 33.9423 91.279522 C 32.97552 95.807094 36.939319 100.045673 36.939319 100.045673 C 36.939319 100.045673 65.749365 91.086859 71.743402 82.031714 C 77.737438 73.072901 61.495533 74.325208 61.495533 74.325208 Z M 61.495533 74.325208 " transform="matrix(0.0404047,0,0,0.0405502,0.491851,0.365008)"/>
<path style="fill-rule:evenodd;fill:rgb(100%,87.45098%,0%);fill-opacity:0.941176;stroke-width:1.25;stroke-linecap:butt;stroke-linejoin:miter;stroke:rgb(0%,0%,0%);stroke-opacity:1;stroke-miterlimit:4;" d="M 33.845622 92.917154 C 33.45891 96.192419 45.253627 92.050172 47.767256 92.339166 C 50.184206 92.531829 52.697834 95.614431 51.731054 97.348395 C 50.764274 99.082359 44.480203 101.779636 41.193151 102.06863 C 38.002777 102.357624 33.265554 96.577745 33.845622 92.917154 Z M 33.845622 92.917154 " transform="matrix(0.0404047,0,0,0.0405502,0.491851,0.365008)"/>
<path style="fill-rule:evenodd;fill:rgb(100%,87.45098%,0%);fill-opacity:1;stroke-width:1.25;stroke-linecap:butt;stroke-linejoin:miter;stroke:rgb(0%,0%,0%);stroke-opacity:1;stroke-miterlimit:4;" d="M 39.936337 109.775137 C 36.939319 100.527329 54.051326 94.07313 47.5739 92.339166 C 51.054308 92.146504 56.371598 96.288751 53.761292 99.85301 C 52.794512 101.105317 40.709761 103.802594 39.936337 109.775137 Z M 39.936337 109.775137 " transform="matrix(0.0404047,0,0,0.0405502,0.491851,0.365008)"/>
<path style="fill-rule:evenodd;fill:rgb(100%,87.45098%,0%);fill-opacity:1;stroke-width:1.25;stroke-linecap:butt;stroke-linejoin:miter;stroke:rgb(0%,0%,0%);stroke-opacity:1;stroke-miterlimit:4;" d="M 37.193649 56.029359 C 32.359748 45.721906 49.76179 33.873153 33.229851 42.542973 C 34.776699 32.90984 46.668094 37.24475 46.668094 41.001671 C 46.668094 44.662262 41.737515 48.322852 41.737515 51.309123 C 41.834193 54.295395 46.764772 56.414684 46.764772 56.414684 Z M 37.193649 56.029359 " transform="matrix(-0.0404047,0,0,0.0405502,12.09655,0.353001)"/>
<path style="fill-rule:evenodd;fill:rgb(100%,87.45098%,0%);fill-opacity:1;stroke-width:1.25;stroke-linecap:butt;stroke-linejoin:miter;stroke:rgb(0%,0%,0%);stroke-opacity:1;stroke-miterlimit:4;" d="M 63.006677 38.497057 C 53.338877 37.437412 48.118264 55.451371 37.193649 56.222021 C 36.903615 57.281666 39.707277 60.075274 45.217924 60.075274 C 53.435555 60.171606 69.774138 43.891611 69.774138 43.891611 Z M 63.006677 38.497057 " transform="matrix(-0.0404047,0,0,0.0405502,12.09655,0.353001)"/>
<path style="fill-rule:evenodd;fill:rgb(100%,87.45098%,0%);fill-opacity:1;stroke-width:1.25;stroke-linecap:butt;stroke-linejoin:miter;stroke:rgb(0%,0%,0%);stroke-opacity:1;stroke-miterlimit:4;" d="M 51.598672 68.841425 C 51.792028 61.809238 65.423628 52.465099 66.583764 44.951256 C 67.453866 39.556701 62.426609 38.497057 62.426609 38.497057 C 62.426609 38.497057 68.904036 36.474099 83.019025 55.933027 C 97.134015 75.488287 51.69535 68.841425 51.598672 68.841425 Z M 51.598672 68.841425 " transform="matrix(-0.0404047,0,0,0.0405502,12.09655,0.353001)"/>
<path style="fill-rule:evenodd;fill:rgb(100%,87.45098%,0%);fill-opacity:1;stroke-width:1.25;stroke-linecap:butt;stroke-linejoin:miter;stroke:rgb(0%,0%,0%);stroke-opacity:1;stroke-miterlimit:4;" d="M 37.132675 56.022256 C 32.298774 45.714803 49.797494 33.86605 33.265554 42.53587 C 34.812402 32.902737 46.607119 37.237647 46.607119 40.994568 C 46.607119 44.655159 41.676541 48.315749 41.773219 51.30202 C 41.869897 54.288292 46.800475 56.407581 46.800475 56.407581 Z M 37.132675 56.022256 " transform="matrix(0.0404047,0,0,0.0405502,0.491851,0.365008)"/>
<path style="fill-rule:evenodd;fill:rgb(100%,87.45098%,0%);fill-opacity:1;stroke-width:1.25;stroke-linecap:butt;stroke-linejoin:miter;stroke:rgb(0%,0%,0%);stroke-opacity:1;stroke-miterlimit:4;" d="M 63.042381 38.489954 C 53.277902 37.430309 48.153968 55.444268 37.229353 56.31125 C 36.842641 57.274563 39.742981 60.068171 45.253627 60.068171 C 53.37458 60.164503 69.809842 43.884508 69.809842 43.884508 Z M 63.042381 38.489954 " transform="matrix(0.0404047,0,0,0.0405502,0.491851,0.365008)"/>
<path style="fill-rule:evenodd;fill:rgb(100%,87.45098%,0%);fill-opacity:1;stroke-width:1.25;stroke-linecap:butt;stroke-linejoin:miter;stroke:rgb(0%,0%,0%);stroke-opacity:1;stroke-miterlimit:4;" d="M 51.537698 68.834322 C 51.827732 61.802135 65.459331 52.457996 66.619467 44.944153 C 67.489569 39.64593 62.365635 38.489954 62.365635 38.489954 C 62.365635 38.489954 68.843062 36.466996 82.958051 56.022256 C 97.07304 75.481184 51.731054 68.834322 51.537698 68.834322 Z M 51.537698 68.834322 " transform="matrix(0.0404047,0,0,0.0405502,0.491851,0.365008)"/>
<path style="fill-rule:evenodd;fill:rgb(100%,87.45098%,0%);fill-opacity:1;stroke-width:1.25;stroke-linecap:butt;stroke-linejoin:miter;stroke:rgb(0%,0%,0%);stroke-opacity:1;stroke-miterlimit:4;" d="M 52.214444 68.64166 C 71.646724 68.930654 94.366056 31.072442 143.768519 31.072442 C 193.26766 31.072442 220.43418 67.293021 234.452492 67.96734 C 241.31663 68.256334 216.373704 91.953841 212.603261 92.242835 C 204.385631 92.62816 173.35199 59.008527 144.251909 59.008527 C 119.018948 59.008527 91.175682 90.990528 75.127132 90.605202 C 72.130114 90.508871 47.187188 68.64166 52.214444 68.64166 Z M 52.214444 68.64166 " transform="matrix(0.0404047,0,0,0.0405502,0.491851,0.365008)"/>
<path style=" stroke:none;fill-rule:nonzero;fill:rgb(0%,0%,0%);fill-opacity:1;" d="M 9.003906 3.007812 L 8.570312 3.554688 L 8.464844 3.46875 L 8.597656 3.171875 L 8.398438 3.417969 L 8.300781 3.335938 L 8.734375 2.789062 L 8.835938 2.871094 L 8.707031 3.171875 L 8.902344 2.925781 L 9.003906 3.007812 "/>
<path style=" stroke:none;fill-rule:nonzero;fill:rgb(0%,0%,0%);fill-opacity:1;" d="M 8.246094 2.460938 L 8.339844 2.519531 C 8.402344 2.558594 8.441406 2.589844 8.460938 2.609375 C 8.476562 2.628906 8.488281 2.652344 8.484375 2.683594 C 8.484375 2.71875 8.46875 2.757812 8.4375 2.808594 C 8.410156 2.855469 8.386719 2.882812 8.363281 2.894531 C 8.34375 2.902344 8.320312 2.898438 8.289062 2.886719 C 8.3125 2.910156 8.320312 2.929688 8.324219 2.949219 C 8.324219 2.964844 8.324219 2.980469 8.316406 2.992188 C 8.3125 3.003906 8.296875 3.035156 8.265625 3.082031 L 8.167969 3.238281 L 8.046875 3.164062 L 8.171875 2.964844 C 8.191406 2.933594 8.199219 2.914062 8.199219 2.902344 C 8.199219 2.894531 8.191406 2.882812 8.175781 2.871094 L 8.007812 3.136719 L 7.875 3.054688 L 8.246094 2.460938 M 8.3125 2.648438 L 8.230469 2.777344 C 8.246094 2.789062 8.257812 2.792969 8.265625 2.792969 C 8.277344 2.789062 8.289062 2.777344 8.304688 2.75 L 8.324219 2.71875 C 8.335938 2.699219 8.339844 2.683594 8.339844 2.675781 C 8.335938 2.664062 8.328125 2.65625 8.3125 2.648438 "/>
<path style=" stroke:none;fill-rule:nonzero;fill:rgb(0%,0%,0%);fill-opacity:1;" d="M 7.847656 2.714844 C 7.820312 2.777344 7.800781 2.820312 7.785156 2.847656 C 7.769531 2.871094 7.753906 2.890625 7.730469 2.90625 C 7.707031 2.921875 7.679688 2.933594 7.652344 2.933594 C 7.625 2.933594 7.597656 2.929688 7.566406 2.914062 C 7.539062 2.902344 7.515625 2.886719 7.496094 2.863281 C 7.480469 2.84375 7.46875 2.820312 7.464844 2.789062 C 7.460938 2.761719 7.460938 2.734375 7.472656 2.707031 C 7.480469 2.679688 7.5 2.636719 7.527344 2.570312 L 7.574219 2.460938 C 7.601562 2.398438 7.625 2.355469 7.636719 2.332031 C 7.652344 2.304688 7.671875 2.285156 7.695312 2.269531 C 7.71875 2.253906 7.742188 2.246094 7.769531 2.242188 C 7.796875 2.242188 7.828125 2.25 7.859375 2.261719 C 7.886719 2.273438 7.910156 2.292969 7.925781 2.3125 C 7.945312 2.335938 7.957031 2.359375 7.960938 2.386719 C 7.964844 2.414062 7.960938 2.441406 7.953125 2.46875 C 7.945312 2.496094 7.925781 2.542969 7.898438 2.605469 L 7.847656 2.714844 M 7.800781 2.445312 C 7.816406 2.417969 7.820312 2.398438 7.824219 2.386719 C 7.824219 2.378906 7.820312 2.371094 7.8125 2.367188 C 7.804688 2.363281 7.796875 2.367188 7.789062 2.371094 C 7.78125 2.375 7.773438 2.394531 7.757812 2.425781 L 7.628906 2.71875 C 7.609375 2.757812 7.601562 2.777344 7.601562 2.789062 C 7.601562 2.796875 7.605469 2.804688 7.613281 2.808594 C 7.621094 2.8125 7.632812 2.8125 7.636719 2.804688 C 7.644531 2.792969 7.65625 2.769531 7.671875 2.734375 L 7.800781 2.445312 "/>
<path style=" stroke:none;fill-rule:nonzero;fill:rgb(0%,0%,0%);fill-opacity:1;" d="M 7.121094 2 L 7.269531 2.042969 C 7.316406 2.054688 7.347656 2.070312 7.371094 2.085938 C 7.394531 2.101562 7.40625 2.125 7.414062 2.15625 C 7.421875 2.183594 7.417969 2.230469 7.402344 2.289062 C 7.390625 2.328125 7.375 2.351562 7.363281 2.367188 C 7.347656 2.378906 7.324219 2.382812 7.289062 2.382812 C 7.320312 2.402344 7.339844 2.425781 7.347656 2.449219 C 7.351562 2.472656 7.347656 2.507812 7.335938 2.550781 L 7.320312 2.613281 C 7.304688 2.660156 7.292969 2.691406 7.277344 2.710938 C 7.261719 2.730469 7.242188 2.742188 7.222656 2.742188 C 7.199219 2.746094 7.160156 2.738281 7.101562 2.722656 L 6.925781 2.671875 L 7.121094 2 M 7.234375 2.15625 L 7.191406 2.308594 C 7.199219 2.308594 7.203125 2.308594 7.207031 2.3125 C 7.222656 2.316406 7.234375 2.3125 7.238281 2.308594 C 7.246094 2.300781 7.253906 2.277344 7.265625 2.234375 C 7.273438 2.214844 7.273438 2.199219 7.273438 2.191406 C 7.273438 2.179688 7.269531 2.175781 7.265625 2.171875 C 7.261719 2.167969 7.25 2.164062 7.234375 2.15625 M 7.164062 2.410156 L 7.109375 2.601562 C 7.128906 2.605469 7.144531 2.605469 7.152344 2.601562 C 7.160156 2.59375 7.167969 2.578125 7.175781 2.550781 L 7.195312 2.488281 C 7.203125 2.460938 7.203125 2.441406 7.199219 2.433594 C 7.199219 2.425781 7.183594 2.417969 7.164062 2.410156 "/>
<path style=" stroke:none;fill-rule:nonzero;fill:rgb(0%,0%,0%);fill-opacity:1;" d="M 6.15625 1.867188 L 6.417969 1.867188 L 6.417969 2.007812 L 6.3125 2.007812 L 6.3125 2.140625 L 6.410156 2.140625 L 6.410156 2.273438 L 6.3125 2.273438 L 6.3125 2.398438 L 6.429688 2.398438 L 6.429688 2.539062 L 6.15625 2.539062 L 6.15625 1.867188 "/>
<path style=" stroke:none;fill-rule:nonzero;fill:rgb(0%,0%,0%);fill-opacity:1;" d="M 5.765625 1.914062 L 5.867188 2.449219 L 6.019531 2.417969 L 6.046875 2.550781 L 5.746094 2.613281 L 5.617188 1.945312 L 5.765625 1.914062 "/>
<path style=" stroke:none;fill-rule:nonzero;fill:rgb(0%,0%,0%);fill-opacity:1;" d="M 5.359375 2.015625 L 5.410156 2.148438 L 5.324219 2.179688 L 5.515625 2.703125 L 5.367188 2.757812 L 5.175781 2.234375 L 5.089844 2.265625 L 5.042969 2.132812 L 5.359375 2.015625 "/>
<path style=" stroke:none;fill-rule:nonzero;fill:rgb(0%,0%,0%);fill-opacity:1;" d="M 4.847656 2.222656 L 4.910156 2.347656 L 4.828125 2.386719 L 5.078125 2.886719 L 4.941406 2.957031 L 4.691406 2.457031 L 4.609375 2.5 L 4.546875 2.375 L 4.847656 2.222656 "/>
<path style=" stroke:none;fill-rule:nonzero;fill:rgb(0%,0%,0%);fill-opacity:1;" d="M 4.308594 2.535156 L 4.765625 3.074219 L 4.628906 3.160156 L 4.554688 3.058594 L 4.507812 3.089844 L 4.570312 3.199219 L 4.433594 3.289062 L 4.121094 2.65625 L 4.308594 2.535156 M 4.484375 2.957031 C 4.4375 2.894531 4.375 2.816406 4.304688 2.722656 C 4.367188 2.84375 4.410156 2.933594 4.441406 2.984375 L 4.484375 2.957031 "/>
<path style=" stroke:none;fill-rule:nonzero;fill:rgb(0%,0%,0%);fill-opacity:1;" d="M 3.597656 2.980469 L 3.722656 2.890625 C 3.765625 2.863281 3.796875 2.84375 3.824219 2.839844 C 3.847656 2.832031 3.875 2.835938 3.902344 2.847656 C 3.933594 2.863281 3.964844 2.894531 3.996094 2.941406 C 4.019531 2.976562 4.03125 3.003906 4.03125 3.023438 C 4.03125 3.042969 4.023438 3.0625 4 3.089844 C 4.035156 3.078125 4.066406 3.074219 4.089844 3.085938 C 4.109375 3.097656 4.136719 3.121094 4.160156 3.160156 L 4.199219 3.210938 C 4.226562 3.25 4.242188 3.28125 4.246094 3.304688 C 4.253906 3.328125 4.25 3.351562 4.238281 3.371094 C 4.226562 3.386719 4.195312 3.414062 4.144531 3.449219 L 3.996094 3.554688 L 3.597656 2.980469 M 3.792969 2.988281 L 3.882812 3.117188 C 3.886719 3.113281 3.890625 3.109375 3.894531 3.105469 C 3.90625 3.097656 3.910156 3.089844 3.910156 3.078125 C 3.910156 3.070312 3.894531 3.046875 3.871094 3.015625 C 3.859375 2.996094 3.851562 2.984375 3.84375 2.980469 C 3.835938 2.972656 3.828125 2.972656 3.820312 2.972656 C 3.816406 2.976562 3.804688 2.980469 3.792969 2.988281 M 3.945312 3.207031 L 4.054688 3.367188 C 4.074219 3.351562 4.082031 3.34375 4.082031 3.332031 C 4.082031 3.324219 4.074219 3.308594 4.058594 3.285156 L 4.023438 3.230469 C 4.003906 3.207031 3.992188 3.191406 3.984375 3.191406 C 3.976562 3.1875 3.960938 3.195312 3.945312 3.207031 "/>
<path style=" stroke:none;fill-rule:evenodd;fill:rgb(78.823529%,75.294118%,73.333333%);fill-opacity:1;" d="M 6.292969 3.144531 L 6.65625 4.148438 L 7.695312 4.148438 L 6.824219 4.792969 L 7.175781 5.800781 L 6.34375 5.15625 L 5.449219 5.789062 L 5.773438 4.792969 L 4.902344 4.148438 L 5.992188 4.125 Z M 6.292969 3.144531 "/>
<path style="fill-rule:evenodd;fill:rgb(0.392157%,48.235294%,12.941176%);fill-opacity:1;stroke-width:1.250264;stroke-linecap:butt;stroke-linejoin:miter;stroke:rgb(0.392157%,25.098039%,1.568627%);stroke-opacity:1;stroke-miterlimit:4;" d="M 178.511275 223.052474 C 173.826046 226.406951 165.289618 209.831563 142.736112 206.390783 C 120.076949 203.069804 122.285363 224.328385 111.137019 217.478471 C 100.078426 210.70479 126.486708 206.837793 126.486708 206.837793 C 126.486708 206.837793 119.734962 207.284515 115.449658 206.89258 C 111.172307 206.402627 103.883166 211.10763 98.858267 211.554301 C 93.743617 211.924739 91.138599 208.559592 90.260427 205.194392 C 89.487912 201.709391 89.058491 198.725352 89.058491 198.725352 C 89.058491 198.725352 95.414843 204.333871 98.836724 204.725832 C 102.258604 205.117794 109.002398 204.769088 109.002398 204.769088 C 109.002398 204.769088 103.458327 202.155487 99.25029 199.628972 C 94.952503 197.026224 90.26959 193.258183 90.26959 193.258183 C 90.26959 193.258183 82.254496 197.451345 74.587077 196.177365 C 66.919658 194.903385 61.780093 182.575267 61.780093 182.575267 C 61.780093 182.575267 69.397477 191.559865 74.994955 192.332935 C 80.486776 193.225807 83.959799 190.622824 83.959799 190.622824 C 83.959799 190.622824 78.33509 184.273716 75.41879 180.01554 C 72.404788 175.779149 71.976473 177.510783 72.404788 175.779149 C 72.833102 174.047514 72.878556 172.305001 72.878556 172.305001 L 66.911859 170.170604 L 63.034433 165.934238 C 63.034433 165.934238 57.916412 160.434589 57.552881 157.820832 C 57.083694 155.326876 62.645988 150.621925 64.781819 151.493116 C 66.819947 152.386092 63.478705 155.729638 63.908126 158.713677 C 64.337547 161.697716 71.122213 165.574601 71.122213 165.574601 C 71.122213 165.574601 67.770804 159.584817 67.692431 157.003723 C 67.703807 154.498861 67.334588 153.137535 67.334588 153.137535 C 67.334588 153.137535 68.18437 154.487956 65.164679 151.503995 C 62.144988 148.520035 56.647478 148.879594 56.63273 145.514368 C 56.617982 142.149142 56.182873 140.417533 56.182873 140.417533 C 56.182873 140.417533 58.339141 143.40152 60.883957 145.143956 C 63.436726 146.788374 65.546433 146.799201 65.546433 146.799201 C 65.546433 146.799201 63.007305 143.804335 60.091005 139.546159 C 57.077002 135.309768 46.461471 130.169678 46.823895 128.067762 C 47.284022 125.944061 48.509869 123.842119 48.509869 123.842119 C 48.509869 123.842119 49.797025 128.078563 54.114142 128.078432 C 58.333556 128.100086 58.357467 119.529104 58.357467 119.529104 C 58.357467 119.529104 60.937467 126.74956 63.430034 126.771266 C 66.020304 126.771188 69.018452 122.92668 69.018452 122.92668 C 69.018452 122.92668 68.170884 131.007606 66.464473 133.120453 C 64.75011 135.331317 62.180276 137.444191 63.895746 139.949 C 65.603263 142.551826 69.020563 148.911892 69.020563 148.911892 C 69.020563 148.911892 70.29297 149.78311 72.013022 146.319815 C 73.725121 142.954537 76.28816 137.37842 73.683142 134.013273 C 71.175827 130.62634 68.124323 128.034446 68.124323 128.034446 C 68.124323 128.034446 71.981313 130.158016 72.818612 129.297625 C 73.647957 128.535251 71.965458 122.077116 70.275005 115.716998 C 68.584553 109.35688 64.720768 103.770067 64.720768 103.770067 C 64.720768 103.770067 68.57207 107.146068 74.959128 107.646847 C 81.354138 108.04961 88.560324 106.731618 88.560324 106.731618 C 88.560324 106.731618 83.87283 108.931681 81.308684 109.792124 C 78.850195 110.532766 76.629144 111.89417 76.629144 111.89417 C 76.629144 111.89417 81.783559 111.033649 81.355245 112.765283 C 80.934884 114.398901 74.56031 116.108934 74.98973 119.092973 C 75.419151 122.077012 81.818744 116.511671 86.017721 114.420529 C 90.314402 112.307603 95.877802 112.318326 95.877802 112.318326 C 95.877802 112.318326 90.304132 119.528138 87.708174 120.780647 C 85.201965 122.109388 78.40703 125.453039 78.40703 125.453039 C 78.40703 125.453039 80.471282 127.206379 83.067241 125.95387 C 85.573449 124.625129 87.760423 122.501376 87.760423 122.501376 C 87.760423 122.501376 86.055119 129.329897 83.062659 131.921975 C 80.078153 134.416035 77.070945 133.642886 77.070945 133.642886 C 77.070945 133.642886 76.682396 134.884438 76.697144 138.249664 C 76.703939 141.712907 75.82914 144.217794 75.82914 144.217794 C 75.82914 144.217794 81.748169 138.663358 83.103532 136.147565 C 84.369145 133.55554 89.880296 131.845534 89.880296 131.845534 L 88.595353 137.040437 L 95.383494 130.233544 L 97.079635 135.341231 C 97.079635 135.341231 97.522697 136.974823 100.112967 136.974744 C 102.605534 136.99645 103.909755 137.475602 103.909755 137.475602 C 103.909755 137.475602 97.925994 139.098497 92.420531 139.556073 C 86.915068 140.013649 83.889688 138.282119 83.046701 140.39494 C 82.203714 142.507762 83.053496 143.858183 80.509787 146.831421 C 77.966078 149.804659 75.391662 157.885637 75.40641 161.250863 C 75.413205 164.714106 76.693567 165.487307 76.693567 165.487307 C 76.693567 165.487307 76.653801 165.977389 78.820338 161.740841 C 80.897125 157.428061 85.595996 152.723136 85.595996 152.723136 C 85.595996 152.723136 82.242219 162.132803 80.886856 164.648596 C 79.621243 167.240621 77.558097 170.202954 79.201988 173.589912 C 80.93563 177.053103 89.833374 186.810902 94.125473 190.66608 C 98.417572 194.521258 102.651734 197.908138 102.651734 197.908138 C 102.651734 197.908138 100.118295 193.660842 101.766768 191.079696 C 103.504991 188.574782 108.654825 193.682365 110.338483 196.579241 C 112.014187 199.574133 113.747829 203.037323 115.88366 203.908515 C 118.027445 204.68169 117.578694 204.300529 117.578694 204.300529 L 117.102712 198.34333 C 117.102712 198.34333 119.707731 201.708477 122.706985 202.579643 C 125.608537 203.472593 129.510981 203.853649 129.510981 203.853649 C 129.510981 203.853649 124.355459 199.998497 120.91883 196.241309 C 117.587857 192.36432 114.5284 189.870442 113.316195 190.621937 C 111.998332 191.493233 110.732719 194.085258 108.576452 191.101271 C 106.517887 188.0955 104.776292 184.730326 101.842928 184.229443 C 98.803907 183.84836 96.695307 188.553206 96.695307 188.553206 C 96.695307 188.553206 95.830777 183.837559 95.88192 180.842615 C 95.835359 177.869455 100.054772 177.891109 99.268616 175.756555 C 98.384756 173.643786 96.243237 174.025025 94.547096 168.917338 C 92.850955 163.80965 88.590669 159.562406 88.590669 159.562406 C 88.590669 159.562406 95.804756 166.423329 97.954228 165.944074 C 100.095748 165.562834 104.359509 159.126301 104.359509 159.126301 C 104.359509 159.126301 103.46538 164.234067 103.492611 169.810105 C 103.527795 175.288126 103.457323 180.885949 106.015781 181.277937 C 108.566285 181.767941 107.799458 177.030509 110.761212 179.546172 C 113.715013 182.159851 116.2632 189.772374 118.839829 191.122743 C 121.424411 192.375095 122.690024 189.78307 121.428992 186.406991 C 120.070258 183.052696 116.682454 183.423082 116.324612 179.556894 C 115.869067 175.712491 116.738178 174.460034 116.738178 174.460034 C 116.738178 174.460034 118.428631 180.820152 120.155478 180.8201 C 121.784621 180.841832 123.520631 168.905572 123.520631 168.905572 C 123.520631 168.905572 129.44298 177.498155 129.100993 181.712867 C 128.661302 185.949363 124.758858 185.568306 124.773606 188.933532 C 124.780401 192.396775 124.335022 197.885702 126.476542 197.504462 C 128.626015 197.025207 131.609415 189.815473 131.609415 189.815473 C 131.609415 189.815473 132.513711 194.041037 134.189415 197.035929 C 135.865119 200.030821 137.540824 203.025713 137.540824 203.025713 C 137.540824 203.025713 138.890499 201.762351 137.616984 196.17546 C 136.335516 190.686586 134.562108 187.713478 134.132687 184.729439 C 133.703266 181.7454 135.903882 178.2712 138.039713 179.142391 C 140.175544 180.013583 140.092589 183.400593 139.705148 189.357818 C 139.317706 195.315043 138.858686 202.154417 140.585533 202.154365 C 142.214676 202.176097 154.193524 204.702378 162.699348 209.831641 C 171.205173 214.960904 180.165436 219.218897 178.511275 223.052474 Z M 178.511275 223.052474 " transform="matrix(0.0407174,0.00904951,0.00330386,0.0405873,-0.505446,-0.141183)"/>
<path style="fill-rule:evenodd;fill:rgb(100%,87.45098%,0%);fill-opacity:1;stroke-width:1;stroke-linecap:butt;stroke-linejoin:miter;stroke:url(#radial0);stroke-miterlimit:4;" d="M 73.501067 182.367989 C 70.808564 180.081024 67.388948 180.843476 69.679313 177.445508 C 71.977632 173.949524 75.016652 174.330606 77.292218 175.844345 C 79.55983 177.4561 75.81192 172.805884 79.233801 173.197846 C 82.655682 173.589808 87.977063 178.947872 86.099106 180.810238 C 84.123445 182.694389 88.725718 182.726922 89.472109 185.351559 C 90.210546 188.074212 88.307571 193.791887 84.566456 192.604914 C 80.727637 191.439725 76.151488 192.267556 75.795911 189.555783 C 75.43238 186.942025 73.877132 178.915626 73.501067 182.367989 Z M 73.501067 182.367989 " transform="matrix(0.0407174,0.00904951,0.00330386,0.0405873,-0.505446,-0.141183)"/>
<path style="fill-rule:evenodd;fill:rgb(100%,87.45098%,0%);fill-opacity:1;stroke-width:1;stroke-linecap:butt;stroke-linejoin:miter;stroke:url(#radial1);stroke-miterlimit:4;" d="M 79.07937 160.91314 C 81.912715 168.558327 84.806313 169.549293 88.764429 169.244234 C 92.730499 168.841158 98.830187 159.877927 95.955918 156.284082 C 93.081649 152.690238 88.403215 159.507958 88.403215 159.507958 C 88.403215 159.507958 88.350966 157.787229 87.638654 155.924941 C 86.918388 154.160669 85.093838 154.182505 85.093838 154.182505 C 85.093838 154.182505 87.279653 155.620012 90.184628 154.106117 C 93.081649 152.690238 93.420213 150.882371 91.617258 149.455744 C 89.814303 148.029117 83.387479 148.01842 79.790628 149.782823 C 76.185823 151.645241 76.194883 156.262898 76.207367 158.47371 C 76.1301 160.60829 76.185772 159.922174 79.07937 160.91314 Z M 79.07937 160.91314 " transform="matrix(0.0407174,0.00904951,0.00330386,0.0405873,-0.505446,-0.141183)"/>
<path style="fill-rule:evenodd;fill:rgb(100%,87.45098%,0%);fill-opacity:1;stroke-width:1;stroke-linecap:butt;stroke-linejoin:miter;stroke:url(#radial2);stroke-miterlimit:4;" d="M 60.89402 171.031151 C 55.343103 173.23124 56.204313 163.799867 58.748022 160.826629 C 61.291731 157.853391 62.166531 155.348503 64.33644 156.982043 C 66.400693 158.735383 63.025373 161.316581 65.589519 160.456139 C 68.153664 159.595696 66.451835 155.740439 68.587667 156.611631 C 70.723498 157.482822 69.420384 161.719344 68.571709 165.084596 C 67.71508 168.547865 66.89253 172.773482 64.711244 173.644804 C 62.627662 174.494341 60.063516 175.354784 60.89402 171.031151 Z M 60.89402 171.031151 " transform="matrix(0.0407174,0.00904951,0.00330386,0.0405873,-0.505446,-0.141183)"/>
<path style="fill-rule:evenodd;fill:rgb(100%,87.45098%,0%);fill-opacity:1;stroke-width:1;stroke-linecap:butt;stroke-linejoin:miter;stroke:url(#radial3);stroke-miterlimit:4;" d="M 63.0141 147.267578 C 56.204416 147.246002 57.107605 146.755893 56.606606 144.654003 C 56.203309 142.530329 59.585424 143.412373 57.112187 140.787789 C 54.533293 138.283006 54.067478 141.659137 53.638057 138.675098 C 53.208636 135.691059 57.940426 135.309742 61.336182 134.841339 C 64.723985 134.470953 62.563136 137.45507 65.633969 137.444087 C 68.6071 137.454887 70.307822 136.594471 70.307822 136.594471 L 69.03652 140.438926 C 69.03652 140.438926 72.789012 139.121038 71.97215 142.094224 C 71.155287 145.06741 70.29297 149.78311 63.0141 147.267578 Z M 63.0141 147.267578 " transform="matrix(0.0407174,0.00904951,0.00330386,0.0405873,-0.505446,-0.141183)"/>
<path style="fill-rule:evenodd;fill:rgb(100%,87.45098%,0%);fill-opacity:1;stroke-width:1;stroke-linecap:butt;stroke-linejoin:miter;stroke:url(#radial4);stroke-miterlimit:4;" d="M 58.325654 119.92117 C 57.080477 124.62599 59.59348 126.760492 55.78874 126.357651 C 51.983999 125.95481 52.774737 122.121259 52.799755 118.26595 C 52.824772 114.410642 54.919731 111.056242 58.822175 111.437299 C 62.626916 111.84014 65.575028 115.70625 63.511882 118.668583 C 61.351033 121.6527 67.705172 117.829872 64.778602 120.792231 C 61.75433 123.776374 60.059296 123.38436 58.325654 119.92117 Z M 58.325654 119.92117 " transform="matrix(0.0407174,0.00904951,0.00330386,0.0405873,-0.505446,-0.141183)"/>
<path style="fill-rule:evenodd;fill:rgb(100%,87.45098%,0%);fill-opacity:1;stroke-width:1;stroke-linecap:butt;stroke-linejoin:miter;stroke:url(#radial5);stroke-miterlimit:4;" d="M 70.67161 97.823565 C 71.990579 101.667942 66.428285 106.372893 72.368857 107.646926 C 78.407133 108.899174 86.844853 104.226808 84.754476 101.613103 C 82.656146 99.097415 80.046546 101.700371 76.690556 101.678691 C 73.236862 101.678795 74.104867 95.710665 70.67161 97.823565 Z M 70.67161 97.823565 " transform="matrix(0.0407174,0.00904951,0.00330386,0.0405873,-0.505446,-0.141183)"/>
<path style="fill-rule:evenodd;fill:rgb(100%,87.45098%,0%);fill-opacity:1;stroke-width:1;stroke-linecap:butt;stroke-linejoin:miter;stroke:url(#radial6);stroke-miterlimit:4;" d="M 103.960897 134.480658 C 101.353563 138.238028 98.397497 134.469935 94.98357 133.979957 C 91.561689 133.587995 87.783073 134.045518 86.873088 131.072385 C 86.060807 128.077467 89.405421 130.604008 91.560582 128.872321 C 93.70779 127.238651 91.611724 125.877377 93.721431 125.888204 C 95.831138 125.899031 95.408512 126.378235 97.097858 128.022679 C 98.77925 129.765141 96.225375 123.405049 97.548925 121.281322 C 98.782725 119.081363 102.696546 116.957558 103.120278 121.194028 C 103.536058 125.528514 101.784193 129.383875 100.915082 130.636332 C 100.143673 131.867005 106.458046 128.534259 103.960897 134.480658 Z M 103.960897 134.480658 " transform="matrix(0.0407174,0.00904951,0.00330386,0.0405873,-0.505446,-0.141183)"/>
<path style="fill-rule:evenodd;fill:rgb(0.392157%,48.235294%,12.941176%);fill-opacity:1;stroke-width:1.250264;stroke-linecap:butt;stroke-linejoin:miter;stroke:rgb(0.392157%,25.098039%,1.568627%);stroke-opacity:1;stroke-miterlimit:4;" d="M 178.474207 223.036303 C 173.781026 226.488797 165.252552 209.815392 142.691095 206.472628 C 120.137591 203.031848 122.248301 224.312213 111.189709 217.538531 C 100.139069 210.666833 126.54735 206.799837 126.54735 206.799837 C 126.54735 206.799837 119.697901 207.268344 115.412597 206.876408 C 111.127293 206.484472 103.94381 211.069674 98.821207 211.538129 C 93.698605 212.006584 91.199243 208.521635 90.321072 205.156435 C 89.450854 201.693218 89.01348 198.807196 89.01348 198.807196 C 89.01348 198.807196 95.377784 204.317698 98.799664 204.70966 C 102.213592 205.199638 109.063041 204.731131 109.063041 204.731131 C 109.063041 204.731131 103.518971 202.117531 99.213231 199.6128 C 95.005194 197.086284 90.330235 193.220226 90.330235 193.220226 C 90.330235 193.220226 82.217438 197.435173 74.55002 196.161192 C 66.882602 194.887212 61.743038 182.559094 61.743038 182.559094 C 61.743038 182.559094 69.458124 191.521907 74.949945 192.414779 C 80.547422 193.18785 83.914789 190.704668 83.914789 190.704668 C 83.914789 190.704668 78.395736 184.235759 75.381734 179.999367 C 72.367731 175.762976 71.939417 177.49461 72.367731 175.762976 C 72.796045 174.031341 72.833546 172.386844 72.833546 172.386844 L 66.86685 170.252447 L 62.989425 166.016082 C 62.989425 166.016082 57.97706 160.396631 57.507873 157.902675 C 57.04664 155.310702 62.608933 150.605751 64.744764 151.476943 C 66.880595 152.348135 63.44165 155.713465 63.871071 158.697504 C 64.300492 161.681543 71.085157 165.558428 71.085157 165.558428 C 71.085157 165.558428 67.733749 159.568643 67.753078 156.965765 C 67.764455 154.460904 67.28958 153.219378 67.28958 153.219378 C 67.28958 153.219378 68.147315 154.471783 65.127624 151.487822 C 62.205636 148.482077 56.602471 148.961437 56.693379 145.47641 C 56.678631 142.111184 56.243522 140.379576 56.243522 140.379576 C 56.243522 140.379576 58.399789 143.363563 60.944605 145.105998 C 63.497374 146.750417 65.607081 146.761244 65.607081 146.761244 C 65.607081 146.761244 63.067953 143.766378 60.053951 139.529986 C 57.039948 135.293594 46.424418 130.153504 46.884545 128.029804 C 47.246968 125.927887 48.570519 123.804161 48.570519 123.804161 C 48.570519 123.804161 49.857675 128.040605 54.077088 128.062259 C 58.394204 128.062128 58.320412 119.51293 58.320412 119.51293 C 58.320412 119.51293 60.900412 126.733387 63.490682 126.733309 C 65.983249 126.755015 68.981397 122.910507 68.981397 122.910507 C 68.981397 122.910507 68.125875 131.089449 66.419465 133.202297 C 64.713054 135.315144 62.143221 137.428018 63.850738 140.030844 C 65.566208 142.535653 68.983507 148.895719 68.983507 148.895719 C 68.983507 148.895719 70.255915 149.766937 71.968013 146.401658 C 73.688065 142.938364 76.24315 137.460264 73.646085 133.997099 C 71.138771 130.610167 68.177017 128.094505 68.177017 128.094505 C 68.177017 128.094505 71.936304 130.239859 72.871306 129.357684 C 73.708604 128.497294 72.026105 122.039159 70.23795 115.700825 C 68.547497 109.340707 64.781416 103.73211 64.781416 103.73211 C 64.781416 103.73211 68.527061 107.227912 74.922071 107.630674 C 81.317082 108.033437 88.613016 106.791677 88.613016 106.791677 C 88.613016 106.791677 83.933476 108.893723 81.369331 109.754166 C 78.805186 110.614609 76.689791 111.856213 76.689791 111.856213 C 76.689791 111.856213 81.746503 111.017476 81.318188 112.749111 C 80.889874 114.480745 74.523253 116.092761 74.952674 119.0768 C 75.382095 122.060839 81.773734 116.593514 86.078367 114.382572 C 90.277344 112.291431 95.840744 112.302153 95.840744 112.302153 C 95.840744 112.302153 90.267074 119.511965 87.760866 120.840707 C 85.164908 122.093216 78.36202 125.534883 78.36202 125.534883 C 78.36202 125.534883 80.531929 127.168422 83.030184 125.937697 C 85.626142 124.685189 87.723365 122.485204 87.723365 122.485204 C 87.723365 122.485204 86.018062 129.313724 83.025602 131.905802 C 80.033143 134.497879 77.131591 133.604929 77.131591 133.604929 C 77.131591 133.604929 76.64534 134.868265 76.660088 138.233491 C 76.666883 141.696734 75.792083 144.201621 75.792083 144.201621 C 75.792083 144.201621 81.800862 138.723417 83.066475 136.131392 C 84.324135 133.637384 89.835285 131.927377 89.835285 131.927377 L 88.558296 137.024264 L 95.444139 130.195587 L 97.14028 135.303274 C 97.14028 135.303274 97.575389 137.034882 100.075909 136.958572 C 102.666178 136.958494 103.970399 137.437645 103.970399 137.437645 C 103.970399 137.437645 97.978685 139.158557 92.383473 139.5399 C 86.87801 139.997476 83.950334 138.244162 83.107347 140.356983 C 82.158704 142.589605 83.016439 143.84201 80.47273 146.815248 C 77.929021 149.788486 75.354606 157.869464 75.369354 161.23469 C 75.376149 164.697933 76.648557 165.56915 76.648557 165.56915 C 76.648557 165.56915 76.714447 165.939432 78.783281 161.724668 C 80.957772 157.390104 85.648688 152.783196 85.648688 152.783196 C 85.648688 152.783196 82.205162 162.11663 80.939549 164.708655 C 79.681889 167.202664 77.52104 170.186781 79.254681 173.649972 C 80.898573 177.03693 89.886066 186.870961 94.088415 190.649908 C 98.380513 194.505086 102.614675 197.891966 102.614675 197.891966 C 102.614675 197.891966 100.081235 193.644669 101.827412 191.041739 C 103.467931 188.55861 108.617765 193.666193 110.293469 196.661085 C 112.066877 199.634193 113.710768 203.021151 115.846599 203.892343 C 117.98243 204.763534 117.541633 204.284357 117.541633 204.284357 L 117.163355 198.305373 C 117.163355 198.305373 119.662716 201.790322 122.669924 202.563471 C 125.669178 203.434637 129.473919 203.837478 129.473919 203.837478 C 129.473919 203.837478 124.408147 200.058557 120.979471 196.203353 C 117.550796 192.348148 114.589043 189.832486 113.271181 190.703782 C 112.051022 191.553293 110.695659 194.069086 108.637095 191.063315 C 106.480827 188.079328 104.739233 184.714154 101.797915 184.311287 C 98.864552 183.810403 96.658248 188.537034 96.658248 188.537034 C 96.658248 188.537034 95.793718 183.821387 95.844861 180.826442 C 95.7983 177.853282 100.115416 177.853152 99.231557 175.740383 C 98.347697 173.627614 96.295928 174.085085 94.599787 168.977398 C 92.805944 163.891494 88.553611 159.546233 88.553611 159.546233 C 88.553611 159.546233 95.8654 166.385373 98.014873 165.906117 C 100.058689 165.546662 104.32245 159.110129 104.32245 159.110129 C 104.32245 159.110129 103.51807 164.294127 103.455552 169.793933 C 103.482783 175.369971 103.517967 180.847992 106.068471 181.337997 C 108.626928 181.729985 107.762398 177.014337 110.716198 179.628016 C 113.677952 182.143679 116.315889 189.832434 118.802768 191.106571 C 121.387349 192.358923 122.645009 189.864915 121.391931 186.390819 C 120.1309 183.01474 116.743097 183.385126 116.279598 179.638739 C 115.824053 175.794335 116.701118 174.443862 116.701118 174.443862 C 116.701118 174.443862 118.383617 180.901997 120.110463 180.901944 C 121.83731 180.901892 123.475616 168.987416 123.475616 168.987416 C 123.475616 168.987416 129.503621 177.460199 129.063931 181.696695 C 128.616287 186.031208 124.8195 185.53035 124.826294 188.993593 C 124.841043 192.358819 124.38771 197.945762 126.537183 197.466506 C 128.580999 197.107051 131.572352 189.799301 131.572352 189.799301 C 131.572352 189.799301 132.476648 194.024865 134.152352 197.019758 C 135.828056 200.01465 137.601464 202.987757 137.601464 202.987757 C 137.601464 202.987757 138.853435 201.74618 137.579921 196.159289 C 136.298453 190.670414 134.622749 187.675522 134.193328 184.691483 C 133.763907 181.707444 135.858866 178.353045 138.00265 179.12622 C 140.138481 179.997411 140.145276 183.460654 139.660131 189.439663 C 139.27269 195.396889 138.821622 202.138246 140.548469 202.138194 C 142.275316 202.138142 154.156459 204.686207 162.662282 209.81547 C 171.265809 214.922949 180.128368 219.202727 178.474207 223.036303 Z M 178.474207 223.036303 " transform="matrix(-0.0407174,0.00904951,-0.00330386,0.0405873,13.105446,-0.101129)"/>
<path style="fill-rule:evenodd;fill:rgb(100%,87.45098%,0%);fill-opacity:1;stroke-width:1;stroke-linecap:butt;stroke-linejoin:miter;stroke:url(#radial7);stroke-miterlimit:4;" d="M 73.561714 182.330032 C 70.869211 180.043066 67.449595 180.805519 69.73996 177.407551 C 72.030325 174.009583 75.069346 174.390666 77.344911 175.904404 C 79.620477 177.418143 75.76691 172.887728 79.196744 173.181673 C 82.618624 173.573635 87.940005 178.931699 86.062048 180.794066 C 84.176137 182.754449 88.68866 182.71075 89.524801 185.411618 C 90.271191 188.036255 88.368216 193.75393 84.529398 192.588741 C 80.78033 191.499784 76.212134 192.229599 75.758854 189.53961 C 75.395324 186.925852 73.937779 178.877669 73.561714 182.330032 Z M 73.561714 182.330032 " transform="matrix(-0.0407174,0.00904951,-0.00330386,0.0405873,13.105446,-0.101129)"/>
<path style="fill-rule:evenodd;fill:rgb(100%,87.45098%,0%);fill-opacity:1;stroke-width:1;stroke-linecap:butt;stroke-linejoin:miter;stroke:url(#radial8);stroke-miterlimit:4;" d="M 79.03436 160.994984 C 81.875657 168.542154 84.761302 169.631137 88.727371 169.228061 C 92.693441 168.824985 98.793128 159.861754 95.918859 156.26791 C 93.044591 152.674065 88.366158 159.491785 88.366158 159.491785 C 88.366158 159.491785 88.411612 157.749272 87.699299 155.886984 C 86.979033 154.122712 85.154483 154.144548 85.154483 154.144548 C 85.154483 154.144548 87.340299 155.582055 90.139617 154.187961 C 93.044591 152.674065 93.375202 150.964215 91.5802 149.439572 C 89.777245 148.012944 83.350422 148.002248 79.745618 149.864666 C 76.148767 151.629068 76.149874 156.344742 76.17031 158.457537 C 76.190746 160.570333 76.148715 159.906001 79.03436 160.994984 Z M 79.03436 160.994984 " transform="matrix(-0.0407174,0.00904951,-0.00330386,0.0405873,13.105446,-0.101129)"/>
<path style="fill-rule:evenodd;fill:rgb(100%,87.45098%,0%);fill-opacity:1;stroke-width:1;stroke-linecap:butt;stroke-linejoin:miter;stroke:url(#radial9);stroke-miterlimit:4;" d="M 60.946715 171.09121 C 55.403752 173.193282 56.257008 163.859926 58.800717 160.886688 C 61.344426 157.91345 62.227179 155.310546 64.291432 157.063886 C 66.461341 158.697426 63.086021 161.278624 65.552463 160.439965 C 68.116609 159.579523 66.41478 155.724266 68.550611 156.595457 C 70.686442 157.466649 69.383328 161.703171 68.5267 165.16644 C 67.678025 168.531692 66.855474 172.757309 64.771892 173.606846 C 62.590606 174.478168 60.026461 175.338611 60.946715 171.09121 Z M 60.946715 171.09121 " transform="matrix(-0.0407174,0.00904951,-0.00330386,0.0405873,13.105446,-0.101129)"/>
<path style="fill-rule:evenodd;fill:rgb(100%,87.45098%,0%);fill-opacity:1;stroke-width:1;stroke-linecap:butt;stroke-linejoin:miter;stroke:url(#radial10);stroke-miterlimit:4;" d="M 63.074748 147.22962 C 56.265065 147.208044 57.062598 146.837736 56.667255 144.616045 C 56.263958 142.492371 59.646073 143.374416 57.067179 140.869632 C 54.496239 138.266832 54.120174 141.719196 53.690753 138.735157 C 53.261332 135.751118 57.903371 135.293568 61.291174 134.923182 C 64.784633 134.432995 62.623784 137.417112 65.596914 137.427913 C 68.570044 137.438714 70.270766 136.578297 70.270766 136.578297 L 68.999465 140.422753 C 68.999465 140.422753 72.849659 139.083081 72.032797 142.056267 C 71.118231 145.051237 70.255915 149.766937 63.074748 147.22962 Z M 63.074748 147.22962 " transform="matrix(-0.0407174,0.00904951,-0.00330386,0.0405873,13.105446,-0.101129)"/>
<path style="fill-rule:evenodd;fill:rgb(100%,87.45098%,0%);fill-opacity:1;stroke-width:1;stroke-linecap:butt;stroke-linejoin:miter;stroke:url(#radial11);stroke-miterlimit:4;" d="M 58.37835 119.981229 C 57.043423 124.609817 59.646176 126.82055 55.751685 126.341477 C 51.946945 125.938636 52.835386 122.083301 52.860404 118.227992 C 52.787719 114.394468 54.98038 111.018285 58.785121 111.421126 C 62.581908 111.921983 65.635677 115.668292 63.474828 118.652409 C 61.313978 121.636527 67.765819 117.791914 64.741547 120.776058 C 61.717275 123.760201 60.022241 123.368187 58.37835 119.981229 Z M 58.37835 119.981229 " transform="matrix(-0.0407174,0.00904951,-0.00330386,0.0405873,13.105446,-0.101129)"/>
<path style="fill-rule:evenodd;fill:rgb(100%,87.45098%,0%);fill-opacity:1;stroke-width:1;stroke-linecap:butt;stroke-linejoin:miter;stroke:url(#radial12);stroke-miterlimit:4;" d="M 70.732258 97.785607 C 71.953523 101.651769 66.488933 106.334936 72.429505 107.608968 C 78.370076 108.883001 86.905499 104.188851 84.709466 101.694947 C 82.619089 99.081242 80.107193 101.662414 76.6535 101.662518 C 73.29751 101.640838 74.067811 95.694492 70.732258 97.785607 Z M 70.732258 97.785607 " transform="matrix(-0.0407174,0.00904951,-0.00330386,0.0405873,13.105446,-0.101129)"/>
<path style="fill-rule:evenodd;fill:rgb(100%,87.45098%,0%);fill-opacity:1;stroke-width:1;stroke-linecap:butt;stroke-linejoin:miter;stroke:url(#radial13);stroke-miterlimit:4;" d="M 103.923838 134.464485 C 101.406254 138.298088 98.360438 134.453763 94.938558 134.061801 C 91.622334 133.550038 87.746015 134.029346 86.933734 131.034428 C 86.02375 128.061294 89.466067 130.566051 91.613274 128.932381 C 93.670732 127.222479 91.566713 125.959221 93.67642 125.970048 C 95.786127 125.980875 95.371454 126.362062 97.150549 128.082739 C 98.839895 129.727184 96.28602 123.367092 97.511866 121.26515 C 98.835417 119.141423 102.659487 116.941386 103.075266 121.275872 C 103.498999 125.512342 101.844838 129.345919 100.975726 130.598375 C 100.106615 131.850832 106.51869 128.496303 103.923838 134.464485 Z M 103.923838 134.464485 " transform="matrix(-0.0407174,0.00904951,-0.00330386,0.0405873,13.105446,-0.101129)"/>
<path style=" stroke:none;fill-rule:nonzero;fill:rgb(100%,87.45098%,0%);fill-opacity:1;" d="M 7.5625 5.941406 L 7.996094 6.347656 L 7.855469 6.457031 L 7.785156 6.378906 L 7.734375 6.414062 L 7.789062 6.503906 L 7.648438 6.613281 L 7.363281 6.09375 L 7.5625 5.941406 M 7.71875 6.296875 C 7.671875 6.25 7.613281 6.1875 7.546875 6.117188 C 7.601562 6.214844 7.640625 6.289062 7.671875 6.332031 L 7.71875 6.296875 "/>
<path style=" stroke:none;fill-rule:nonzero;fill:rgb(100%,87.45098%,0%);fill-opacity:1;" d="M 6.84375 6.402344 L 6.953125 6.34375 C 7.027344 6.304688 7.078125 6.28125 7.105469 6.273438 C 7.132812 6.265625 7.160156 6.265625 7.179688 6.269531 C 7.199219 6.277344 7.214844 6.289062 7.230469 6.300781 C 7.242188 6.316406 7.261719 6.347656 7.285156 6.398438 L 7.382812 6.578125 C 7.410156 6.625 7.425781 6.65625 7.425781 6.675781 C 7.429688 6.695312 7.429688 6.710938 7.421875 6.726562 C 7.414062 6.742188 7.402344 6.757812 7.386719 6.769531 C 7.371094 6.78125 7.347656 6.800781 7.308594 6.820312 L 7.121094 6.921875 L 6.84375 6.402344 M 7.039062 6.410156 L 7.222656 6.75 C 7.246094 6.738281 7.257812 6.730469 7.257812 6.71875 C 7.257812 6.707031 7.25 6.683594 7.230469 6.652344 L 7.121094 6.449219 C 7.109375 6.425781 7.101562 6.410156 7.09375 6.40625 C 7.089844 6.402344 7.082031 6.398438 7.074219 6.398438 C 7.070312 6.398438 7.054688 6.402344 7.039062 6.410156 "/>
<path style=" stroke:none;fill-rule:nonzero;fill:rgb(100%,87.45098%,0%);fill-opacity:1;" d="M 6.621094 6.449219 L 6.84375 7 L 6.671875 7.039062 L 6.640625 6.9375 L 6.578125 6.953125 L 6.589844 7.058594 L 6.414062 7.097656 L 6.375 6.503906 L 6.621094 6.449219 M 6.613281 6.835938 C 6.589844 6.773438 6.5625 6.695312 6.53125 6.601562 C 6.539062 6.714844 6.546875 6.796875 6.554688 6.851562 L 6.613281 6.835938 "/>
<path style=" stroke:none;fill-rule:nonzero;fill:rgb(100%,87.45098%,0%);fill-opacity:1;" d="M 6.316406 6.5 L 6.148438 7.070312 L 5.878906 7.035156 L 5.851562 6.4375 L 6.039062 6.464844 C 6.039062 6.628906 6.039062 6.765625 6.03125 6.878906 C 6.054688 6.765625 6.078125 6.667969 6.101562 6.582031 L 6.128906 6.476562 L 6.316406 6.5 "/>
<path style=" stroke:none;fill-rule:nonzero;fill:rgb(100%,87.45098%,0%);fill-opacity:1;" d="M 5.382812 6.296875 L 5.761719 6.421875 L 5.726562 6.535156 L 5.574219 6.484375 L 5.542969 6.589844 L 5.683594 6.636719 L 5.652344 6.742188 L 5.507812 6.695312 L 5.46875 6.820312 L 5.636719 6.875 L 5.601562 6.988281 L 5.207031 6.855469 L 5.382812 6.296875 "/>
<path style=" stroke:none;fill-rule:nonzero;fill:rgb(100%,87.45098%,0%);fill-opacity:1;" d="M 5.335938 6.265625 L 5 6.746094 L 4.84375 6.636719 L 4.90625 6.355469 L 4.753906 6.574219 L 4.605469 6.46875 L 4.941406 5.988281 L 5.089844 6.089844 L 5.035156 6.378906 L 5.1875 6.160156 L 5.335938 6.265625 "/>
</g>
</svg>
