<?xml version="1.0" encoding="UTF-8"?>
<svg xmlns="http://www.w3.org/2000/svg" xmlns:xlink="http://www.w3.org/1999/xlink" width="30pt" height="20pt" viewBox="0 0 30 20" version="1.1">
<g id="surface1">
<rect x="0" y="0" width="30" height="20" style="fill:rgb(0%,20%,40%);fill-opacity:1;stroke:none;"/>
<path style=" stroke:none;fill-rule:evenodd;fill:rgb(100%,100%,100%);fill-opacity:1;" d="M 1.660156 3.734375 C 0.816406 6.554688 4.214844 8.832031 6.53125 6.789062 C 8.960938 4.238281 6.25 0.789062 3.433594 1.890625 C 5.492188 1.539062 6.714844 3.910156 5.332031 5.394531 C 4 6.757812 1.566406 5.859375 1.660156 3.734375 Z M 1.660156 3.734375 "/>
<path style=" stroke:none;fill-rule:evenodd;fill:rgb(100%,100%,100%);fill-opacity:1;" d="M 16.503906 3.382812 C 16.394531 3.433594 16.316406 3.582031 16.269531 3.695312 C 16.160156 4.015625 16.050781 4.335938 15.941406 4.65625 C 15.886719 4.800781 15.832031 4.949219 15.773438 5.09375 C 15.667969 5.078125 15.816406 4.898438 15.808594 4.824219 C 15.839844 4.664062 15.917969 4.511719 15.925781 4.351562 C 15.898438 4.230469 15.929688 4.074219 15.867188 3.976562 C 15.78125 4.183594 15.667969 4.378906 15.589844 4.589844 C 15.53125 4.839844 15.457031 5.089844 15.421875 5.347656 C 15.402344 5.480469 15.378906 5.609375 15.335938 5.738281 C 15.230469 5.726562 15.257812 5.539062 15.195312 5.460938 C 15.140625 5.28125 15.023438 5.125 14.941406 4.957031 C 14.898438 4.914062 14.804688 4.617188 14.804688 4.78125 C 14.796875 4.902344 14.785156 5.019531 14.777344 5.140625 C 14.539062 4.699219 14.300781 4.253906 14.066406 3.8125 C 14.085938 3.957031 14.0625 4.113281 14.117188 4.246094 C 14.230469 4.496094 14.335938 4.746094 14.445312 4.996094 C 14.386719 5.050781 14.375 4.960938 14.347656 4.925781 C 14.128906 4.539062 13.910156 4.152344 13.691406 3.765625 C 13.601562 3.828125 13.664062 3.941406 13.652344 4.03125 C 13.6875 4.15625 13.773438 4.269531 13.828125 4.386719 C 13.933594 4.582031 14.039062 4.777344 14.144531 4.96875 C 14.070312 5.050781 14.027344 4.8125 13.972656 4.757812 C 13.773438 4.417969 13.578125 4.070312 13.375 3.730469 C 13.285156 3.761719 13.257812 3.828125 13.273438 3.914062 C 13.257812 4 13.292969 4.074219 13.34375 4.144531 C 13.496094 4.410156 13.652344 4.675781 13.808594 4.9375 C 13.753906 5 13.738281 4.910156 13.707031 4.875 C 13.460938 4.480469 13.210938 4.089844 12.960938 3.695312 C 12.902344 3.667969 12.816406 3.59375 12.835938 3.714844 C 12.808594 3.867188 12.972656 3.972656 13.023438 4.101562 C 13.246094 4.445312 13.472656 4.789062 13.695312 5.128906 C 13.648438 5.1875 13.625 5.109375 13.597656 5.074219 C 13.457031 4.878906 13.316406 4.679688 13.179688 4.480469 C 13.125 4.46875 13.058594 4.433594 13.078125 4.519531 C 13.074219 4.574219 13.0625 4.628906 13.105469 4.667969 C 13.328125 5.003906 13.558594 5.339844 13.777344 5.675781 C 13.851562 5.820312 13.914062 5.972656 13.992188 6.117188 C 14.117188 6.246094 14.246094 6.378906 14.375 6.511719 C 14.28125 6.582031 14.1875 6.351562 14.097656 6.308594 C 14 6.199219 13.871094 6.113281 13.816406 5.972656 C 13.75 5.867188 13.710938 5.746094 13.609375 5.667969 C 13.496094 5.585938 13.410156 5.429688 13.277344 5.390625 C 13.234375 5.484375 13.269531 5.695312 13.398438 5.769531 C 13.410156 5.804688 13.589844 5.921875 13.492188 5.898438 C 13.300781 5.878906 13.117188 5.808594 12.9375 5.742188 C 12.828125 5.847656 13.199219 5.929688 12.992188 5.972656 C 12.84375 5.976562 12.726562 5.839844 12.589844 5.789062 C 12.25 5.605469 11.902344 5.433594 11.550781 5.261719 C 11.480469 5.238281 11.40625 5.21875 11.335938 5.195312 C 11.316406 5.324219 11.511719 5.359375 11.578125 5.445312 C 11.84375 5.589844 12.113281 5.726562 12.378906 5.867188 C 12.367188 5.949219 12.296875 5.886719 12.25 5.878906 C 11.753906 5.71875 11.257812 5.5625 10.761719 5.402344 C 10.679688 5.382812 10.695312 5.425781 10.726562 5.480469 C 10.734375 5.546875 10.800781 5.550781 10.851562 5.566406 C 11.238281 5.699219 11.628906 5.832031 12.019531 5.960938 C 12.03125 6.019531 12.046875 6.082031 12.058594 6.144531 C 11.972656 6.074219 11.882812 5.988281 11.761719 5.980469 C 11.507812 5.917969 11.25 5.972656 10.992188 5.972656 C 10.855469 5.941406 10.835938 6.050781 10.972656 6.074219 C 11.082031 6.160156 11.222656 6.113281 11.351562 6.121094 C 11.558594 6.113281 11.765625 6.105469 11.972656 6.101562 C 12.011719 6.21875 11.769531 6.140625 11.761719 6.234375 C 11.738281 6.347656 11.953125 6.347656 12.03125 6.324219 C 12.148438 6.328125 12.230469 6.152344 12.332031 6.179688 C 12.304688 6.292969 12.109375 6.320312 12.085938 6.4375 C 12.070312 6.554688 12.308594 6.519531 12.378906 6.46875 C 12.457031 6.402344 12.59375 6.304688 12.601562 6.480469 C 12.625 6.640625 12.835938 6.578125 12.953125 6.632812 C 13.15625 6.664062 13.367188 6.675781 13.570312 6.710938 C 13.765625 6.796875 13.960938 6.886719 14.152344 6.972656 C 14.113281 7.085938 13.941406 6.917969 13.855469 6.925781 C 13.707031 6.882812 13.570312 6.800781 13.414062 6.796875 C 13.28125 6.773438 13.144531 6.777344 13.011719 6.792969 C 12.601562 6.828125 12.1875 6.855469 11.78125 6.890625 C 11.398438 6.957031 11.015625 7.019531 10.636719 7.082031 C 10.539062 7.113281 10.328125 7.167969 10.53125 7.207031 C 10.960938 7.1875 11.394531 7.152344 11.828125 7.117188 C 11.859375 7.195312 11.765625 7.167969 11.71875 7.179688 C 11.359375 7.214844 11 7.253906 10.640625 7.289062 C 10.53125 7.371094 10.382812 7.414062 10.324219 7.550781 C 10.339844 7.738281 10.578125 7.566406 10.695312 7.578125 C 11.007812 7.527344 11.316406 7.476562 11.617188 7.378906 C 11.707031 7.386719 11.929688 7.230469 11.941406 7.34375 C 11.601562 7.449219 11.265625 7.554688 10.921875 7.648438 C 10.847656 7.664062 10.777344 7.683594 10.703125 7.699219 C 10.683594 7.875 10.945312 7.773438 11.054688 7.800781 C 11.292969 7.746094 11.519531 7.648438 11.753906 7.582031 C 11.878906 7.570312 12.066406 7.425781 12.15625 7.484375 C 12.078125 7.566406 11.890625 7.609375 11.773438 7.679688 C 11.53125 7.785156 11.289062 7.882812 11.050781 8 C 10.898438 8.15625 11.21875 8.144531 11.296875 8.0625 C 11.546875 7.949219 11.792969 7.824219 12.042969 7.703125 C 12.101562 7.75 12.011719 7.777344 11.980469 7.808594 C 11.839844 7.921875 11.703125 8.035156 11.546875 8.121094 C 11.488281 8.167969 11.390625 8.183594 11.378906 8.273438 C 11.515625 8.351562 11.644531 8.257812 11.769531 8.195312 C 12.089844 7.988281 12.414062 7.785156 12.742188 7.585938 C 12.882812 7.523438 13.027344 7.46875 13.171875 7.410156 C 13.226562 7.464844 13.136719 7.480469 13.101562 7.515625 C 12.945312 7.621094 12.785156 7.726562 12.628906 7.832031 C 12.457031 8.007812 12.300781 8.207031 12.097656 8.351562 C 12.003906 8.429688 11.90625 8.5 11.832031 8.589844 C 11.683594 8.738281 11.527344 8.882812 11.382812 9.03125 C 11.335938 9.1875 11.238281 9.328125 11.246094 9.492188 C 11.25 9.667969 11.230469 9.847656 11.246094 10.023438 C 11.265625 10.09375 11.304688 10.261719 11.320312 10.09375 C 11.328125 10.019531 11.378906 9.757812 11.4375 9.941406 C 11.46875 10.007812 11.496094 10.214844 11.535156 10.179688 C 11.589844 10.074219 11.597656 9.925781 11.683594 9.84375 C 11.761719 9.890625 11.820312 10 11.894531 9.871094 C 11.988281 9.765625 11.972656 9.601562 12.019531 9.472656 C 12.058594 9.300781 12.101562 9.128906 12.140625 8.957031 C 12.210938 8.9375 12.195312 9.027344 12.214844 9.070312 C 12.238281 9.175781 12.261719 9.28125 12.28125 9.386719 C 12.441406 9.316406 12.378906 9.101562 12.429688 8.96875 C 12.4375 8.867188 12.472656 8.597656 12.578125 8.800781 C 12.644531 8.957031 12.820312 8.777344 12.816406 8.667969 C 12.851562 8.488281 12.886719 8.3125 12.925781 8.132812 C 12.972656 8.21875 13.023438 8.304688 13.070312 8.386719 C 13.238281 8.378906 13.292969 8.214844 13.402344 8.113281 C 13.496094 8.015625 13.585938 7.898438 13.691406 7.8125 C 13.8125 7.75 13.929688 7.664062 14.054688 7.609375 C 14.175781 7.722656 13.992188 7.875 13.921875 7.972656 C 13.765625 8.164062 13.574219 8.324219 13.410156 8.511719 C 13.347656 8.585938 13.246094 8.644531 13.273438 8.757812 C 13.355469 8.792969 13.441406 8.828125 13.523438 8.863281 C 13.398438 8.925781 13.265625 8.980469 13.148438 9.054688 C 13.039062 9.152344 12.917969 9.234375 12.804688 9.324219 C 12.769531 9.410156 12.75 9.503906 12.875 9.46875 C 12.964844 9.453125 13.207031 9.492188 13.015625 9.582031 C 12.839844 9.695312 12.632812 9.769531 12.457031 9.882812 C 12.410156 9.949219 12.277344 10.050781 12.4375 10.046875 C 12.542969 10.03125 12.703125 9.867188 12.78125 9.949219 C 12.671875 10.074219 12.527344 10.195312 12.402344 10.316406 C 12.339844 10.363281 12.203125 10.5 12.285156 10.535156 C 12.480469 10.445312 12.613281 10.269531 12.78125 10.136719 C 12.835938 10.046875 12.992188 9.964844 12.945312 10.144531 C 12.753906 10.382812 12.566406 10.625 12.371094 10.859375 C 12.390625 11.09375 12.539062 10.792969 12.613281 10.730469 C 12.730469 10.59375 12.835938 10.449219 12.988281 10.347656 C 13.039062 10.335938 13.175781 10.140625 13.183594 10.222656 C 13.179688 10.289062 13.203125 10.363281 13.144531 10.414062 C 13.023438 10.574219 12.945312 10.757812 12.847656 10.933594 C 12.832031 11.007812 12.816406 11.222656 12.921875 11.121094 C 13.050781 10.878906 13.210938 10.65625 13.3125 10.402344 C 13.414062 10.183594 13.484375 9.949219 13.574219 9.722656 C 13.644531 9.613281 13.683594 9.652344 13.671875 9.765625 C 13.683594 9.871094 13.679688 10.101562 13.753906 10.117188 C 13.886719 9.8125 14.054688 9.523438 14.195312 9.222656 C 14.246094 9.074219 14.304688 8.929688 14.367188 8.789062 C 14.441406 8.78125 14.40625 8.863281 14.414062 8.910156 C 14.410156 9.007812 14.425781 9.109375 14.40625 9.203125 C 14.324219 9.441406 14.261719 9.6875 14.148438 9.914062 C 14.078125 10.058594 13.976562 10.1875 13.910156 10.332031 C 13.84375 10.421875 13.867188 10.421875 13.945312 10.371094 C 14.078125 10.308594 14.171875 10.191406 14.265625 10.082031 C 14.410156 9.964844 14.300781 10.230469 14.269531 10.289062 C 14.1875 10.515625 14.136719 10.753906 14.042969 10.980469 C 14.042969 11.046875 14.019531 11.203125 14.105469 11.085938 C 14.269531 10.957031 14.328125 10.753906 14.425781 10.578125 C 14.484375 10.664062 14.597656 10.714844 14.648438 10.609375 C 14.640625 10.476562 14.578125 10.335938 14.640625 10.207031 C 14.699219 9.992188 14.75 9.769531 14.78125 9.550781 C 14.796875 9.417969 14.808594 9.28125 14.824219 9.148438 C 14.898438 9.109375 14.867188 9.226562 14.871094 9.273438 C 14.871094 9.375 14.871094 9.476562 14.871094 9.578125 C 14.945312 9.585938 15.082031 9.457031 15.117188 9.542969 C 15.042969 9.605469 14.933594 9.644531 14.863281 9.714844 C 14.863281 9.800781 14.859375 9.886719 14.855469 9.96875 C 14.949219 9.914062 15.039062 9.859375 15.128906 9.804688 C 15.195312 9.851562 15.109375 9.882812 15.078125 9.917969 C 15.003906 9.988281 14.929688 10.058594 14.855469 10.128906 C 14.855469 10.1875 14.851562 10.25 14.851562 10.308594 C 14.914062 10.289062 14.980469 10.269531 15.042969 10.25 C 15.09375 10.308594 15.003906 10.324219 14.964844 10.351562 C 14.925781 10.390625 14.832031 10.398438 14.84375 10.472656 C 14.839844 10.65625 14.832031 10.839844 14.824219 11.023438 C 14.859375 10.960938 14.976562 10.800781 14.957031 10.792969 C 14.921875 10.867188 14.78125 10.871094 14.875 10.792969 C 14.914062 10.746094 15.132812 10.589844 15.054688 10.746094 C 14.980469 10.851562 14.914062 10.996094 14.835938 11.082031 C 14.816406 11.082031 14.789062 11.238281 14.855469 11.207031 C 14.910156 11.246094 15.085938 11.261719 14.964844 11.328125 C 14.914062 11.378906 14.851562 11.425781 14.808594 11.480469 C 14.8125 11.636719 14.773438 11.890625 14.800781 11.980469 C 14.847656 11.917969 14.996094 11.800781 14.964844 11.773438 C 14.902344 11.800781 14.710938 11.789062 14.84375 11.738281 C 14.925781 11.707031 15.15625 11.699219 15.011719 11.828125 C 14.933594 11.96875 14.746094 12.011719 14.78125 12.164062 C 14.78125 12.277344 14.734375 12.34375 14.875 12.324219 C 15.03125 12.308594 15.042969 12.464844 14.898438 12.503906 C 14.800781 12.5625 14.71875 12.558594 14.777344 12.6875 C 14.804688 12.773438 15.015625 12.828125 14.964844 12.917969 C 14.957031 12.820312 14.933594 12.957031 14.878906 12.855469 C 14.8125 12.804688 14.726562 12.675781 14.753906 12.84375 C 14.742188 13.164062 14.730469 13.484375 14.71875 13.804688 C 14.78125 13.785156 14.898438 13.878906 14.902344 13.921875 C 14.832031 13.984375 14.671875 13.707031 14.710938 13.925781 C 14.714844 14.027344 14.6875 14.207031 14.710938 14.253906 C 14.742188 14.226562 14.792969 14.304688 14.835938 14.320312 C 14.878906 14.351562 14.925781 14.382812 14.972656 14.414062 C 14.945312 14.492188 14.894531 14.410156 14.851562 14.390625 C 14.800781 14.355469 14.75 14.320312 14.699219 14.285156 C 14.710938 14.414062 14.652344 14.65625 14.707031 14.722656 C 14.765625 14.765625 14.921875 14.894531 14.917969 14.964844 C 14.839844 14.984375 14.726562 14.753906 14.679688 14.769531 C 14.671875 14.960938 14.664062 15.15625 14.65625 15.351562 C 14.738281 15.378906 14.902344 15.484375 14.945312 15.550781 C 14.871094 15.613281 14.71875 15.382812 14.65625 15.410156 C 14.644531 15.570312 14.652344 15.730469 14.628906 15.882812 C 14.601562 15.996094 14.910156 15.96875 14.84375 16.085938 C 14.730469 16.046875 14.570312 15.882812 14.570312 16.09375 C 14.542969 16.265625 14.390625 16.4375 14.511719 16.597656 C 14.554688 16.726562 14.703125 16.78125 14.816406 16.847656 C 14.945312 16.828125 15.070312 16.765625 15.207031 16.757812 C 15.40625 16.726562 15.613281 16.714844 15.8125 16.683594 C 15.894531 16.621094 16 16.5625 15.875 16.484375 C 15.773438 16.359375 15.796875 16.183594 15.738281 16.042969 C 15.738281 15.925781 15.714844 15.878906 15.613281 15.960938 C 15.53125 15.976562 15.410156 16.144531 15.363281 16.039062 C 15.484375 15.984375 15.589844 15.90625 15.710938 15.851562 C 15.695312 15.703125 15.667969 15.550781 15.671875 15.402344 C 15.574219 15.460938 15.4375 15.589844 15.34375 15.570312 C 15.382812 15.488281 15.5625 15.449219 15.640625 15.359375 C 15.695312 15.359375 15.660156 15.28125 15.667969 15.234375 C 15.667969 15.101562 15.667969 14.96875 15.664062 14.839844 C 15.578125 14.9375 15.472656 15.007812 15.339844 15.03125 C 15.242188 14.945312 15.492188 14.976562 15.523438 14.902344 C 15.582031 14.835938 15.691406 14.792969 15.664062 14.6875 C 15.664062 14.570312 15.660156 14.453125 15.660156 14.339844 C 15.582031 14.390625 15.441406 14.574219 15.367188 14.496094 C 15.449219 14.425781 15.621094 14.355469 15.660156 14.25 C 15.65625 14.097656 15.65625 13.949219 15.65625 13.796875 C 15.570312 13.910156 15.457031 13.984375 15.324219 14.019531 C 15.257812 14.09375 15.121094 14.027344 15.257812 13.992188 C 15.386719 13.949219 15.519531 13.902344 15.601562 13.78125 C 15.675781 13.742188 15.648438 13.671875 15.652344 13.597656 C 15.652344 13.492188 15.652344 13.382812 15.648438 13.277344 C 15.492188 13.414062 15.351562 13.570312 15.195312 13.710938 C 15.113281 13.625 15.347656 13.546875 15.382812 13.460938 C 15.457031 13.371094 15.589844 13.28125 15.648438 13.199219 C 15.648438 13.082031 15.648438 12.96875 15.644531 12.851562 C 15.585938 12.90625 15.488281 12.976562 15.613281 12.910156 C 15.667969 12.96875 15.570312 12.976562 15.53125 13.003906 C 15.472656 13.03125 15.417969 13.054688 15.363281 13.082031 C 15.304688 12.972656 15.550781 12.917969 15.601562 12.824219 C 15.664062 12.839844 15.640625 12.777344 15.644531 12.714844 C 15.644531 12.632812 15.644531 12.550781 15.640625 12.46875 C 15.558594 12.617188 15.398438 12.53125 15.265625 12.503906 C 15.171875 12.496094 15.261719 12.46875 15.300781 12.441406 C 15.40625 12.386719 15.507812 12.332031 15.609375 12.277344 C 15.667969 12.335938 15.574219 12.347656 15.535156 12.375 C 15.472656 12.40625 15.410156 12.441406 15.351562 12.472656 C 15.464844 12.535156 15.605469 12.496094 15.640625 12.382812 C 15.640625 12.1875 15.636719 11.996094 15.625 11.800781 C 15.535156 11.890625 15.484375 11.988281 15.371094 12.03125 C 15.421875 12.003906 15.640625 12.035156 15.496094 12.074219 C 15.410156 12.089844 15.132812 12.101562 15.328125 11.996094 C 15.425781 11.957031 15.492188 11.882812 15.554688 11.800781 C 15.628906 11.757812 15.628906 11.726562 15.621094 11.640625 C 15.613281 11.519531 15.609375 11.398438 15.605469 11.277344 C 15.558594 11.332031 15.363281 11.488281 15.414062 11.488281 C 15.472656 11.449219 15.699219 11.4375 15.5625 11.503906 C 15.476562 11.5 15.289062 11.621094 15.257812 11.515625 C 15.378906 11.445312 15.46875 11.335938 15.570312 11.242188 C 15.628906 11.246094 15.589844 11.160156 15.597656 11.105469 C 15.582031 10.746094 15.566406 10.382812 15.554688 10.019531 C 15.496094 10.070312 15.257812 10.261719 15.34375 10.070312 C 15.402344 10.003906 15.464844 9.886719 15.527344 9.863281 C 15.570312 9.84375 15.53125 9.761719 15.542969 9.71875 C 15.550781 9.609375 15.484375 9.511719 15.449219 9.410156 C 15.449219 9.371094 15.371094 9.296875 15.4375 9.285156 C 15.507812 9.347656 15.542969 9.511719 15.601562 9.609375 C 15.691406 9.816406 15.792969 10.019531 15.871094 10.230469 C 15.914062 10.402344 15.960938 10.578125 15.964844 10.757812 C 16.011719 10.742188 16.09375 10.769531 16.089844 10.699219 C 16.101562 10.632812 16.148438 10.5625 16.105469 10.496094 C 15.914062 9.964844 15.691406 9.445312 15.484375 8.917969 C 15.535156 8.867188 15.550781 8.9375 15.570312 8.980469 C 15.6875 9.21875 15.765625 9.476562 15.867188 9.722656 C 15.96875 9.992188 16.074219 10.257812 16.195312 10.519531 C 16.382812 10.410156 16.230469 10.214844 16.203125 10.054688 C 16.113281 9.765625 15.996094 9.484375 15.894531 9.199219 C 15.863281 9.148438 15.796875 9.125 15.753906 9.082031 C 15.691406 9.035156 15.625 8.988281 15.558594 8.941406 C 15.613281 8.839844 15.730469 9.015625 15.8125 9.023438 C 15.953125 9.171875 15.984375 8.945312 16.109375 8.917969 C 16.144531 9.046875 15.910156 9.148438 16.035156 9.296875 C 16.125 9.605469 16.207031 9.917969 16.324219 10.214844 C 16.347656 10.269531 16.367188 10.324219 16.386719 10.378906 C 16.34375 10.4375 16.402344 10.6875 16.484375 10.621094 C 16.511719 10.488281 16.601562 10.355469 16.527344 10.21875 C 16.417969 9.808594 16.273438 9.410156 16.148438 9.003906 C 16.148438 8.855469 16.242188 9.066406 16.253906 9.128906 C 16.394531 9.519531 16.550781 9.902344 16.675781 10.292969 C 16.648438 10.410156 16.648438 10.652344 16.800781 10.515625 C 16.804688 10.363281 16.816406 10.203125 16.753906 10.058594 C 16.625 9.710938 16.519531 9.355469 16.40625 9.003906 C 16.339844 9.074219 16.214844 9.007812 16.195312 8.925781 C 16.214844 8.75 16.070312 8.757812 15.941406 8.769531 C 15.882812 8.761719 16.042969 8.679688 16.058594 8.652344 C 16.128906 8.613281 16.28125 8.492188 16.136719 8.460938 C 16.089844 8.441406 16.042969 8.417969 15.996094 8.398438 C 16.066406 8.277344 16.136719 8.160156 16.230469 8.058594 C 16.285156 7.957031 16.242188 7.769531 16.132812 7.707031 C 16.054688 7.664062 16.0625 7.5625 16.03125 7.488281 C 15.988281 7.445312 16.03125 7.359375 16.0625 7.425781 C 16.085938 7.496094 16.105469 7.566406 16.125 7.636719 C 16.246094 7.703125 16.300781 7.808594 16.296875 7.941406 C 16.351562 8.0625 16.210938 8.136719 16.15625 8.230469 C 16.125 8.277344 16.097656 8.328125 16.070312 8.375 C 16.136719 8.40625 16.203125 8.433594 16.269531 8.46875 C 16.28125 8.59375 16.066406 8.675781 16.082031 8.71875 C 16.292969 8.664062 16.164062 8.953125 16.324219 8.976562 C 16.375 8.976562 16.421875 8.925781 16.472656 8.902344 C 16.566406 8.917969 16.4375 8.960938 16.457031 9.003906 C 16.625 9.460938 16.800781 9.921875 16.960938 10.382812 C 16.945312 10.550781 17.105469 10.570312 17.203125 10.640625 C 17.21875 10.730469 17.261719 10.898438 17.355469 10.863281 C 17.359375 10.625 17.371094 10.386719 17.375 10.148438 C 17.386719 10.066406 17.25 9.871094 17.363281 9.859375 C 17.425781 10.046875 17.507812 10.226562 17.554688 10.417969 C 17.585938 10.542969 17.523438 10.746094 17.703125 10.765625 C 17.78125 10.796875 17.71875 10.511719 17.804688 10.589844 C 17.851562 10.625 17.898438 10.664062 17.945312 10.699219 C 18.132812 10.703125 17.992188 10.496094 17.996094 10.390625 C 17.933594 10.242188 17.878906 10.09375 17.820312 9.945312 C 17.90625 9.910156 17.773438 9.957031 17.796875 9.863281 C 17.777344 9.71875 17.683594 9.609375 17.597656 9.492188 C 17.5625 9.417969 17.566406 9.324219 17.496094 9.433594 C 17.417969 9.5 17.453125 9.609375 17.507812 9.679688 C 17.601562 9.820312 17.589844 10.007812 17.707031 10.132812 C 17.753906 10.21875 17.824219 10.300781 17.804688 10.402344 C 17.808594 10.449219 17.8125 10.542969 17.753906 10.496094 C 17.746094 10.417969 17.777344 10.332031 17.726562 10.269531 C 17.667969 10.148438 17.578125 10.074219 17.554688 9.941406 C 17.53125 9.808594 17.453125 9.691406 17.398438 9.570312 C 17.410156 9.542969 17.210938 9.585938 17.226562 9.523438 C 17.28125 9.515625 17.273438 9.492188 17.367188 9.515625 C 17.4375 9.453125 17.4375 9.339844 17.386719 9.265625 C 17.292969 9.054688 17.148438 8.867188 17.042969 8.660156 C 17.015625 8.527344 17.070312 8.363281 16.941406 8.269531 C 16.808594 8.140625 16.742188 7.964844 16.667969 7.800781 C 16.582031 7.679688 16.441406 7.609375 16.34375 7.503906 C 16.289062 7.519531 16.085938 7.527344 16.1875 7.464844 C 16.324219 7.410156 16.421875 7.488281 16.511719 7.582031 C 16.609375 7.660156 16.71875 7.742188 16.753906 7.871094 C 16.816406 8.023438 16.898438 8.164062 17.015625 8.277344 C 17.117188 8.375 17.0625 8.527344 17.089844 8.652344 C 17.21875 8.882812 17.386719 9.09375 17.472656 9.34375 C 17.453125 9.453125 17.503906 9.308594 17.554688 9.320312 C 17.550781 9.195312 17.59375 9.027344 17.511719 8.914062 C 17.429688 8.757812 17.332031 8.609375 17.257812 8.449219 C 17.203125 8.335938 17.140625 8.195312 17.082031 8.070312 C 17.019531 7.925781 16.929688 7.800781 16.84375 7.667969 C 16.929688 7.582031 16.972656 7.835938 17.039062 7.878906 C 17.1875 8.140625 17.277344 8.429688 17.441406 8.679688 C 17.488281 8.792969 17.585938 8.890625 17.609375 9.007812 C 17.625 9.078125 17.578125 9.308594 17.636719 9.289062 C 17.664062 9.234375 17.695312 9.179688 17.722656 9.125 C 17.769531 9.101562 17.859375 9.117188 17.871094 9.066406 C 17.886719 8.910156 17.730469 8.796875 17.714844 8.648438 C 17.671875 8.441406 17.589844 8.242188 17.484375 8.058594 C 17.375 7.816406 17.214844 7.601562 17.125 7.347656 C 17.101562 7.203125 17.222656 7.390625 17.226562 7.457031 C 17.308594 7.652344 17.433594 7.824219 17.523438 8.019531 C 17.605469 8.175781 17.683594 8.332031 17.730469 8.507812 C 17.761719 8.667969 17.828125 8.820312 17.914062 8.960938 C 17.929688 9.027344 17.914062 9.078125 17.96875 9.082031 C 17.992188 9.140625 17.871094 9.113281 17.917969 9.203125 C 17.933594 9.261719 17.902344 9.476562 17.859375 9.355469 C 17.863281 9.253906 17.914062 9.085938 17.765625 9.164062 C 17.730469 9.199219 17.714844 9.261719 17.683594 9.308594 C 17.660156 9.367188 17.570312 9.363281 17.628906 9.449219 C 17.710938 9.570312 17.820312 9.679688 17.839844 9.828125 C 17.859375 9.964844 17.96875 10.054688 18.039062 10.171875 C 18.109375 10.246094 18.195312 10.476562 18.269531 10.433594 C 18.304688 10.292969 18.175781 10.195312 18.132812 10.074219 C 18.035156 9.863281 17.945312 9.648438 17.851562 9.4375 C 17.925781 9.492188 18.023438 9.523438 18.066406 9.613281 C 18.242188 9.84375 18.414062 10.082031 18.59375 10.308594 C 18.78125 10.398438 18.664062 10.164062 18.609375 10.089844 C 18.464844 9.800781 18.269531 9.542969 18.097656 9.269531 C 18.0625 9.230469 17.945312 9.050781 18.054688 9.105469 C 18.246094 9.34375 18.441406 9.582031 18.632812 9.820312 C 18.699219 9.867188 18.816406 9.902344 18.777344 9.792969 C 18.613281 9.488281 18.402344 9.214844 18.21875 8.921875 C 18.023438 8.648438 17.859375 8.355469 17.6875 8.066406 C 17.777344 7.992188 17.898438 8.179688 18 8.203125 C 18.160156 8.292969 18.304688 8.40625 18.4375 8.53125 C 18.664062 8.726562 18.878906 8.933594 19.113281 9.117188 C 19.226562 9.179688 19.320312 9.292969 19.445312 9.332031 C 19.445312 9.292969 19.316406 9.132812 19.371094 9.136719 C 19.5 9.171875 19.625 9.226562 19.746094 9.285156 C 19.828125 9.328125 20.078125 9.421875 19.953125 9.257812 C 19.914062 9.175781 19.71875 9.128906 19.75 9.039062 C 19.789062 9.019531 19.84375 9.082031 19.890625 9.09375 C 19.992188 9.152344 20.105469 9.179688 20.222656 9.199219 C 20.394531 9.191406 20.285156 9.011719 20.171875 9.011719 C 19.90625 8.871094 19.644531 8.726562 19.378906 8.582031 C 19.433594 8.472656 19.613281 8.648438 19.714844 8.640625 C 19.777344 8.621094 19.996094 8.667969 19.921875 8.5625 C 19.886719 8.523438 19.820312 8.523438 19.773438 8.5 C 19.414062 8.367188 19.050781 8.238281 18.691406 8.105469 C 18.539062 8.003906 18.382812 7.902344 18.226562 7.800781 C 18.25 7.707031 18.40625 7.828125 18.480469 7.820312 C 18.617188 7.855469 18.753906 7.882812 18.894531 7.882812 C 18.984375 7.882812 19.171875 7.90625 19.203125 7.890625 C 19.144531 7.859375 18.882812 7.785156 19.03125 7.742188 C 19.105469 7.738281 19.34375 7.734375 19.140625 7.726562 C 19 7.710938 18.847656 7.714844 18.710938 7.679688 C 18.730469 7.625 18.800781 7.644531 18.894531 7.65625 C 18.996094 7.691406 19.203125 7.632812 19.242188 7.714844 C 19.34375 7.75 19.519531 7.707031 19.652344 7.714844 C 19.832031 7.699219 20.03125 7.722656 20.199219 7.679688 C 20.257812 7.589844 20.433594 7.558594 20.429688 7.4375 C 20.417969 7.328125 20.417969 7.214844 20.398438 7.105469 C 20.363281 7.066406 20.355469 6.980469 20.289062 6.980469 C 20.121094 6.949219 19.957031 6.902344 19.796875 6.847656 C 19.460938 6.835938 19.121094 6.839844 18.789062 6.820312 C 18.679688 6.8125 18.550781 6.910156 18.425781 6.90625 C 18.234375 6.925781 18.035156 6.910156 17.847656 6.96875 C 17.777344 7.023438 17.675781 6.945312 17.792969 6.929688 C 17.9375 6.890625 18.082031 6.863281 18.234375 6.867188 C 18.382812 6.863281 18.539062 6.851562 18.679688 6.789062 C 18.765625 6.730469 18.785156 6.828125 18.800781 6.71875 C 18.882812 6.691406 19.132812 6.710938 19.074219 6.628906 C 18.761719 6.640625 18.449219 6.644531 18.136719 6.648438 C 18.023438 6.636719 17.878906 6.707031 17.769531 6.761719 C 17.636719 6.8125 17.746094 6.679688 17.828125 6.675781 C 17.964844 6.59375 18.136719 6.617188 18.273438 6.527344 C 18.480469 6.429688 18.679688 6.304688 18.882812 6.195312 C 18.9375 6.148438 19.085938 6.074219 18.929688 6.0625 C 18.804688 6.03125 18.675781 6.101562 18.546875 6.105469 C 18.378906 6.132812 18.546875 5.988281 18.609375 5.960938 C 18.808594 5.859375 19 5.75 19.1875 5.632812 C 19.246094 5.585938 19.421875 5.554688 19.367188 5.480469 C 19.207031 5.53125 19.046875 5.609375 18.886719 5.652344 C 18.832031 5.667969 18.582031 5.695312 18.703125 5.601562 C 18.945312 5.441406 19.179688 5.277344 19.417969 5.117188 C 19.496094 5.007812 19.441406 5.007812 19.34375 5.050781 C 19.234375 5.082031 19.152344 5.171875 19.050781 5.226562 C 19.015625 5.289062 18.816406 5.339844 18.921875 5.234375 C 19.027344 5.140625 19.132812 5.046875 19.242188 4.957031 C 19.300781 4.878906 19.355469 4.695312 19.203125 4.78125 C 19.105469 4.832031 18.980469 4.839844 18.910156 4.9375 C 18.792969 5.0625 18.667969 5.1875 18.546875 5.3125 C 18.460938 5.230469 18.6875 5.140625 18.714844 5.054688 C 18.8125 4.941406 18.917969 4.832031 19.003906 4.714844 C 19.023438 4.613281 19.027344 4.546875 18.925781 4.613281 C 18.878906 4.636719 18.828125 4.65625 18.78125 4.675781 C 18.796875 4.777344 18.582031 4.882812 18.511719 4.984375 C 18.394531 5.082031 18.238281 5.125 18.136719 5.242188 C 18.054688 5.15625 18.28125 5.089844 18.335938 5.039062 C 18.5 4.960938 18.609375 4.8125 18.742188 4.691406 C 18.597656 4.71875 18.433594 4.714844 18.347656 4.855469 C 18.132812 5.0625 17.921875 5.277344 17.699219 5.476562 C 17.425781 5.664062 17.152344 5.847656 16.875 6.023438 C 16.746094 6.074219 16.566406 6.035156 16.503906 6.1875 C 16.398438 6.335938 16.273438 6.46875 16.15625 6.609375 C 16.28125 6.582031 16.402344 6.609375 16.519531 6.667969 C 16.628906 6.707031 16.722656 6.78125 16.828125 6.828125 C 16.804688 6.933594 16.660156 7.015625 16.546875 6.996094 C 16.472656 6.992188 16.410156 6.945312 16.339844 6.925781 C 16.347656 6.839844 16.417969 6.90625 16.464844 6.917969 C 16.554688 6.96875 16.679688 6.949219 16.75 6.867188 C 16.714844 6.796875 16.527344 6.722656 16.417969 6.683594 C 16.316406 6.621094 16.203125 6.664062 16.097656 6.664062 C 15.96875 6.695312 16.132812 6.582031 16.152344 6.539062 C 16.292969 6.378906 16.425781 6.21875 16.546875 6.042969 C 16.539062 5.917969 16.679688 5.828125 16.726562 5.710938 C 16.867188 5.503906 16.9375 5.265625 17.042969 5.042969 C 17.089844 4.949219 17.066406 4.84375 17.078125 4.742188 C 17.074219 4.6875 17.09375 4.628906 17.074219 4.578125 C 16.976562 4.757812 16.875 4.941406 16.78125 5.125 C 16.664062 5.128906 16.765625 4.945312 16.800781 4.898438 C 16.890625 4.714844 16.992188 4.539062 17.074219 4.355469 C 17.078125 4.28125 17.082031 4.203125 17.082031 4.125 C 17.007812 4.0625 16.96875 4.285156 16.910156 4.335938 C 16.777344 4.554688 16.65625 4.78125 16.519531 4.996094 C 16.507812 5.066406 16.363281 5.121094 16.421875 5.019531 C 16.617188 4.660156 16.816406 4.300781 17.015625 3.945312 C 17.097656 3.800781 17.070312 3.636719 17.082031 3.480469 C 17.003906 3.355469 16.953125 3.542969 16.890625 3.59375 C 16.808594 3.691406 16.78125 3.820312 16.71875 3.929688 C 16.621094 4.144531 16.519531 4.359375 16.417969 4.570312 C 16.308594 4.523438 16.484375 4.355469 16.484375 4.261719 C 16.582031 4.015625 16.675781 3.765625 16.773438 3.519531 C 16.726562 3.417969 16.617188 3.679688 16.566406 3.742188 C 16.476562 3.945312 16.371094 4.144531 16.269531 4.34375 C 16.160156 4.292969 16.335938 4.128906 16.328125 4.039062 C 16.382812 3.886719 16.449219 3.738281 16.5 3.589844 C 16.492188 3.53125 16.574219 3.386719 16.503906 3.382812 Z M 17.195312 6.09375 C 17.21875 6.191406 17.070312 6.238281 17.007812 6.3125 C 16.929688 6.34375 16.65625 6.410156 16.773438 6.472656 C 16.851562 6.429688 16.929688 6.390625 17.007812 6.347656 C 17.109375 6.441406 17.261719 6.546875 17.25 6.691406 C 17.15625 6.714844 17.195312 6.503906 17.082031 6.484375 C 17.03125 6.394531 16.964844 6.417969 16.894531 6.464844 C 16.835938 6.496094 16.777344 6.523438 16.722656 6.554688 C 16.628906 6.429688 16.734375 6.324219 16.871094 6.308594 C 17.003906 6.289062 17.082031 6.171875 17.183594 6.097656 L 17.183594 6.09375 Z M 17.90625 6.367188 C 17.917969 6.480469 17.71875 6.433594 17.664062 6.527344 C 17.578125 6.570312 17.492188 6.695312 17.417969 6.695312 C 17.332031 6.679688 17.519531 6.597656 17.546875 6.550781 C 17.65625 6.464844 17.765625 6.386719 17.90625 6.367188 Z M 18.820312 6.808594 C 18.796875 6.828125 18.8125 6.824219 18.820312 6.808594 Z M 16.238281 6.917969 C 16.355469 6.960938 16.480469 6.988281 16.578125 7.070312 C 16.707031 7.113281 16.714844 7.261719 16.75 7.371094 C 16.753906 7.441406 16.691406 7.667969 16.628906 7.621094 C 16.652344 7.515625 16.746094 7.386719 16.667969 7.269531 C 16.660156 7.136719 16.523438 7.101562 16.429688 7.035156 C 16.359375 7.011719 16.292969 6.988281 16.222656 6.964844 C 16.226562 6.949219 16.234375 6.933594 16.238281 6.917969 Z M 19.527344 6.929688 C 19.765625 6.9375 20.003906 6.949219 20.242188 6.972656 C 20.265625 7 20.195312 7 20.203125 7.015625 C 19.898438 7.003906 19.59375 6.964844 19.289062 6.988281 C 19.144531 6.972656 19.019531 7.082031 18.875 7.050781 C 18.796875 7.066406 18.621094 7.023438 18.742188 6.992188 C 18.878906 7.007812 19.023438 7.007812 19.152344 6.949219 C 19.273438 6.925781 19.402344 6.941406 19.527344 6.929688 Z M 19.164062 7.128906 C 19.410156 7.164062 19.65625 7.183594 19.902344 7.179688 C 20.058594 7.191406 20.242188 7.175781 20.382812 7.199219 C 20.359375 7.304688 20.140625 7.203125 20.046875 7.234375 C 19.773438 7.230469 19.496094 7.230469 19.222656 7.1875 C 19.171875 7.1875 19.15625 7.179688 19.164062 7.128906 Z M 19.429688 7.402344 C 19.53125 7.507812 19.675781 7.527344 19.820312 7.503906 C 19.992188 7.492188 20.164062 7.539062 20.332031 7.472656 C 20.476562 7.460938 20.320312 7.554688 20.246094 7.546875 C 20.078125 7.582031 19.90625 7.535156 19.738281 7.554688 C 19.601562 7.605469 19.492188 7.488281 19.394531 7.464844 C 19.324219 7.507812 19.242188 7.515625 19.160156 7.511719 C 19.042969 7.511719 18.925781 7.511719 18.808594 7.511719 C 18.785156 7.433594 18.875 7.46875 18.921875 7.460938 C 19.039062 7.460938 19.15625 7.460938 19.273438 7.457031 C 19.324219 7.4375 19.375 7.414062 19.429688 7.402344 Z M 14.617188 7.5625 C 14.742188 7.613281 14.519531 7.734375 14.554688 7.8125 C 14.5625 7.898438 14.570312 7.957031 14.609375 7.839844 C 14.628906 7.789062 14.644531 7.734375 14.664062 7.679688 C 14.714844 7.761719 14.777344 7.804688 14.871094 7.808594 C 14.914062 7.875 14.933594 8.03125 14.976562 7.886719 C 15.011719 7.8125 15.042969 7.726562 15.097656 7.667969 C 15.191406 7.71875 15.085938 7.902344 15.113281 7.996094 C 15.105469 8.144531 15.136719 8.296875 15.117188 8.445312 C 15.128906 8.535156 15.042969 8.761719 15.199219 8.652344 C 15.253906 8.625 15.261719 8.550781 15.292969 8.5 C 15.355469 8.382812 15.332031 8.242188 15.371094 8.117188 C 15.488281 8.085938 15.382812 8.441406 15.496094 8.328125 C 15.53125 8.210938 15.441406 8.109375 15.429688 7.976562 C 15.429688 7.894531 15.429688 7.816406 15.429688 7.738281 C 15.507812 7.714844 15.472656 7.804688 15.480469 7.851562 C 15.476562 7.945312 15.484375 8.039062 15.527344 8.128906 C 15.65625 8.199219 15.632812 7.957031 15.738281 7.910156 C 15.847656 7.863281 15.785156 7.632812 15.898438 7.65625 C 15.890625 7.800781 15.808594 7.917969 15.710938 8.019531 C 15.667969 8.085938 15.648438 8.25 15.535156 8.183594 C 15.617188 8.273438 15.523438 8.453125 15.417969 8.421875 C 15.394531 8.347656 15.394531 8.253906 15.378906 8.386719 C 15.375 8.496094 15.300781 8.585938 15.261719 8.683594 C 15.164062 8.734375 14.996094 8.792969 15.058594 8.617188 C 15.070312 8.425781 15.082031 8.238281 15.058594 8.046875 C 15.058594 7.984375 15.089844 7.789062 15.058594 7.828125 C 15.015625 7.917969 14.972656 8.007812 14.929688 8.09375 C 14.875 8.015625 14.898438 7.824219 14.769531 7.84375 C 14.699219 7.828125 14.675781 7.742188 14.65625 7.859375 C 14.625 7.894531 14.585938 8.082031 14.53125 7.996094 C 14.515625 7.894531 14.523438 7.730469 14.40625 7.859375 C 14.382812 7.773438 14.363281 7.6875 14.339844 7.601562 C 14.410156 7.558594 14.398438 7.65625 14.417969 7.699219 C 14.414062 7.84375 14.566406 7.703125 14.585938 7.628906 C 14.597656 7.605469 14.609375 7.585938 14.617188 7.5625 Z M 16.59375 8.199219 C 16.726562 8.472656 16.867188 8.742188 17.011719 9.007812 C 17.089844 9.199219 17.183594 9.382812 17.214844 9.585938 C 17.1875 9.683594 17.414062 9.816406 17.304688 9.839844 C 17.179688 9.746094 17.167969 9.589844 17.132812 9.449219 C 17.050781 9.199219 16.9375 8.960938 16.808594 8.730469 C 16.714844 8.566406 16.636719 8.394531 16.550781 8.226562 C 16.5625 8.21875 16.578125 8.207031 16.59375 8.199219 Z M 16.316406 8.496094 C 16.445312 8.511719 16.199219 8.644531 16.359375 8.660156 C 16.441406 8.671875 16.421875 8.789062 16.496094 8.808594 C 16.683594 8.820312 16.476562 9.089844 16.667969 9.050781 C 16.761719 9.121094 16.664062 9.3125 16.8125 9.359375 C 16.933594 9.417969 16.898438 9.5625 16.953125 9.660156 C 16.96875 9.738281 17.011719 9.726562 17.0625 9.6875 C 17.101562 9.664062 17.179688 9.621094 17.167969 9.695312 C 17.097656 9.726562 17.03125 9.761719 16.960938 9.796875 C 16.90625 9.691406 16.859375 9.582031 16.847656 9.460938 C 16.742188 9.382812 16.644531 9.292969 16.660156 9.144531 C 16.6875 9.035156 16.472656 9.148438 16.527344 9.007812 C 16.601562 8.863281 16.4375 8.882812 16.402344 8.785156 C 16.394531 8.6875 16.246094 8.703125 16.238281 8.617188 C 16.261719 8.578125 16.292969 8.539062 16.316406 8.496094 Z M 15.546875 9.886719 C 15.527344 9.949219 15.328125 10.136719 15.476562 10.015625 C 15.550781 9.96875 15.5625 10 15.550781 9.898438 Z M 15.519531 10.332031 C 15.664062 10.355469 15.335938 10.496094 15.40625 10.5 C 15.449219 10.46875 15.542969 10.472656 15.496094 10.527344 C 15.421875 10.546875 15.351562 10.570312 15.28125 10.59375 C 15.230469 10.480469 15.460938 10.421875 15.515625 10.335938 Z M 15.535156 10.8125 C 15.652344 10.816406 15.46875 10.9375 15.433594 10.988281 C 15.304688 11.097656 15.589844 10.886719 15.566406 10.988281 C 15.511719 11.027344 15.3125 11.152344 15.246094 11.082031 C 15.332031 10.984375 15.453125 10.921875 15.535156 10.8125 Z M 14.816406 11.246094 C 14.808594 11.335938 14.792969 11.453125 14.878906 11.339844 C 14.980469 11.277344 14.871094 11.28125 14.816406 11.246094 Z M 14.773438 12.359375 C 14.769531 12.445312 14.738281 12.582031 14.851562 12.476562 C 14.9375 12.4375 15 12.371094 14.863281 12.371094 C 14.835938 12.367188 14.804688 12.363281 14.773438 12.359375 Z M 14.753906 13.304688 C 14.828125 13.347656 15.023438 13.359375 15.015625 13.445312 C 14.960938 13.4375 14.761719 13.390625 14.753906 13.328125 C 14.753906 13.320312 14.753906 13.3125 14.753906 13.304688 Z M 14.40625 16.484375 C 14.109375 16.492188 13.8125 16.480469 13.515625 16.492188 C 13.386719 16.574219 13.238281 16.628906 13.136719 16.746094 C 13.0625 16.851562 13.265625 16.941406 13.367188 16.917969 C 13.421875 16.953125 13.609375 16.886719 13.578125 16.984375 C 13.527344 17.128906 13.367188 17.152344 13.261719 17.238281 C 13.195312 17.375 13.351562 17.542969 13.46875 17.414062 C 13.539062 17.347656 13.597656 17.339844 13.644531 17.421875 C 13.726562 17.484375 13.589844 17.65625 13.765625 17.648438 C 13.882812 17.589844 13.984375 17.488281 14.09375 17.410156 C 14.167969 17.316406 14.285156 17.214844 14.328125 17.390625 C 14.433594 17.480469 14.566406 17.457031 14.695312 17.449219 C 14.851562 17.441406 15.019531 17.421875 15.109375 17.277344 C 15.257812 17.207031 15.394531 17.347656 15.46875 17.460938 C 15.566406 17.527344 15.730469 17.535156 15.679688 17.371094 C 15.640625 17.265625 15.675781 17.152344 15.804688 17.222656 C 15.945312 17.246094 16.054688 17.355469 16.1875 17.390625 C 16.179688 17.289062 16.179688 17.09375 16.320312 17.226562 C 16.441406 17.3125 16.566406 17.398438 16.710938 17.4375 C 16.714844 17.375 16.699219 17.308594 16.71875 17.253906 C 16.8125 17.15625 17 17.4375 16.960938 17.222656 C 16.980469 17.148438 16.878906 16.988281 16.980469 17 C 17.121094 17.058594 17.273438 17.101562 17.421875 17.128906 C 17.324219 16.960938 17.144531 16.867188 16.992188 16.757812 C 16.84375 16.695312 16.691406 16.648438 16.527344 16.648438 C 16.355469 16.632812 16.175781 16.640625 16.003906 16.617188 C 15.933594 16.5625 15.945312 16.609375 15.957031 16.625 C 15.855469 16.773438 15.671875 16.746094 15.515625 16.773438 C 15.300781 16.792969 15.082031 16.816406 14.875 16.890625 C 14.734375 16.910156 14.609375 16.785156 14.507812 16.699219 C 14.460938 16.636719 14.441406 16.554688 14.40625 16.484375 Z M 14.40625 16.484375 "/>
</g>
</svg>
