<?xml version="1.0" encoding="UTF-8"?>
<svg xmlns="http://www.w3.org/2000/svg" xmlns:xlink="http://www.w3.org/1999/xlink" width="35pt" height="25pt" viewBox="0 0 35 25" version="1.1">
<g id="surface1">
<rect x="0" y="0" width="35" height="25" style="fill:rgb(89.411765%,11.764706%,12.54902%);fill-opacity:1;stroke:none;"/>
<path style=" stroke:none;fill-rule:nonzero;fill:rgb(0%,0%,0%);fill-opacity:1;" d="M 15.003906 4.859375 C 14.761719 4.855469 14.359375 4.9375 14.367188 5.125 C 13.691406 5.007812 13.621094 5.289062 13.660156 5.535156 C 13.722656 5.4375 13.800781 5.382812 13.863281 5.375 C 13.953125 5.359375 14.046875 5.386719 14.144531 5.449219 C 14.242188 5.507812 14.347656 5.601562 14.394531 5.660156 C 14.15625 5.71875 13.96875 5.683594 13.78125 5.648438 C 13.691406 5.632812 13.5625 5.582031 13.484375 5.527344 C 13.40625 5.472656 13.382812 5.421875 13.261719 5.300781 C 13.121094 5.152344 12.96875 5.195312 13.015625 5.421875 C 13.125 5.632812 13.308594 5.726562 13.539062 5.761719 C 13.648438 5.78125 13.8125 5.820312 14 5.820312 C 14.1875 5.820312 14.398438 5.792969 14.511719 5.816406 C 14.441406 5.859375 14.363281 5.933594 14.210938 5.964844 C 14.054688 5.996094 13.816406 5.871094 13.671875 5.839844 C 13.691406 5.960938 13.84375 6.074219 14.148438 6.132812 C 14.644531 6.242188 15.058594 6.324219 15.332031 6.472656 C 15.605469 6.621094 15.777344 6.808594 15.898438 6.953125 C 16.144531 7.242188 16.15625 7.464844 16.171875 7.511719 C 16.222656 7.976562 16.0625 8.238281 15.761719 8.316406 C 15.613281 8.355469 15.347656 8.28125 15.25 8.167969 C 15.152344 8.050781 15.054688 7.855469 15.082031 7.546875 C 15.109375 7.425781 15.246094 7.109375 15.128906 7.042969 C 14.585938 6.746094 13.925781 6.441406 13.449219 6.261719 C 13.320312 6.210938 13.210938 6.386719 13.171875 6.457031 C 12.359375 6.359375 11.628906 5.808594 11.300781 5.226562 C 11.074219 4.828125 10.707031 5.226562 10.769531 5.601562 C 10.867188 6.023438 11.1875 6.324219 11.570312 6.539062 C 11.964844 6.757812 12.457031 6.96875 12.953125 6.957031 C 13.222656 7.007812 13.21875 7.355469 12.898438 7.421875 C 12.269531 7.425781 11.769531 7.410156 11.292969 6.953125 C 10.933594 6.625 10.730469 7.015625 10.835938 7.238281 C 11.011719 7.917969 11.984375 8.109375 12.972656 7.890625 C 13.355469 7.828125 13.125 8.234375 13.015625 8.238281 C 12.605469 8.535156 11.867188 8.824219 11.21875 8.238281 C 10.921875 8.007812 10.722656 8.199219 10.832031 8.527344 C 11.121094 9.386719 12.222656 9.207031 12.976562 8.785156 C 13.171875 8.675781 13.351562 8.925781 13.113281 9.121094 C 12.171875 9.777344 11.699219 9.785156 11.277344 9.53125 C 10.746094 9.324219 10.699219 9.910156 11.015625 10.105469 C 11.363281 10.320312 12.257812 10.160156 12.914062 9.746094 C 13.191406 9.539062 13.207031 9.867188 13.027344 9.996094 C 12.25 10.667969 11.945312 10.84375 11.132812 10.734375 C 10.734375 10.703125 10.738281 11.199219 11.054688 11.390625 C 11.484375 11.65625 12.328125 11.21875 12.984375 10.675781 C 13.257812 10.527344 13.304688 10.769531 13.167969 11.054688 C 12.769531 11.558594 12.390625 11.855469 12.03125 11.992188 C 11.671875 12.128906 11.324219 12.109375 11.078125 12.023438 C 10.777344 11.921875 10.738281 12.234375 10.90625 12.515625 C 11.003906 12.6875 11.417969 12.742188 11.867188 12.582031 C 12.3125 12.425781 12.792969 12.054688 13.121094 11.617188 C 13.410156 11.367188 13.371094 11.703125 13.242188 11.941406 C 12.582031 12.984375 11.980469 13.371094 11.183594 13.304688 C 10.832031 13.246094 10.753906 13.519531 10.976562 13.773438 C 11.371094 14.101562 11.863281 14.089844 12.296875 13.765625 C 12.679688 13.398438 13.414062 12.601562 13.796875 12.175781 C 14.066406 11.957031 14.15625 12.171875 14.074219 12.609375 C 14.003906 12.863281 13.820312 13.125 13.328125 13.320312 C 12.992188 13.511719 13.246094 13.777344 13.496094 13.78125 C 13.636719 13.785156 13.917969 13.621094 14.132812 13.378906 C 14.417969 13.058594 14.433594 12.84375 14.59375 12.347656 C 14.742188 12.101562 15.003906 12.214844 15.003906 12.472656 C 14.878906 12.96875 14.769531 13.058594 14.511719 13.261719 C 14.265625 13.492188 14.683594 13.570312 14.824219 13.476562 C 15.230469 13.203125 15.378906 12.847656 15.511719 12.527344 C 15.609375 12.296875 15.894531 12.40625 15.761719 12.785156 C 15.449219 13.691406 14.933594 14.050781 14.027344 14.230469 C 13.9375 14.25 13.878906 14.300781 13.914062 14.410156 C 14.035156 14.535156 14.15625 14.648438 14.277344 14.773438 C 13.71875 14.9375 13.265625 15.027344 12.703125 15.191406 C 12.429688 15.011719 12.207031 14.859375 11.933594 14.679688 C 11.863281 14.511719 11.828125 14.25 11.421875 14.433594 C 11.148438 14.308594 11.023438 14.351562 10.871094 14.480469 C 11.089844 14.488281 11.1875 14.546875 11.273438 14.648438 C 11.382812 14.945312 11.644531 14.972656 11.910156 14.886719 C 12.082031 15.035156 12.175781 15.144531 12.347656 15.292969 C 12.023438 15.28125 11.800781 15.273438 11.476562 15.265625 C 11.171875 14.933594 10.925781 14.953125 10.707031 15.210938 C 10.539062 15.238281 10.46875 15.242188 10.351562 15.445312 C 10.535156 15.371094 10.648438 15.347656 10.726562 15.429688 C 11.050781 15.617188 11.265625 15.574219 11.425781 15.429688 C 11.742188 15.449219 12.023438 15.464844 12.339844 15.484375 C 12.226562 15.582031 12.066406 15.636719 11.949219 15.734375 C 11.476562 15.601562 11.230469 15.78125 11.148438 16.167969 C 11.082031 16.324219 11.054688 16.484375 11.082031 16.652344 C 11.128906 16.5 11.199219 16.367188 11.335938 16.285156 C 11.757812 16.390625 11.917969 16.21875 11.9375 15.96875 C 12.140625 15.800781 12.449219 15.765625 12.652344 15.597656 C 12.890625 15.671875 13.003906 15.71875 13.242188 15.796875 C 13.328125 16.054688 13.519531 16.15625 13.832031 16.089844 C 14.203125 16.101562 14.136719 16.253906 14.167969 16.375 C 14.265625 16.199219 14.261719 16.03125 14.035156 15.875 C 13.949219 15.648438 13.765625 15.546875 13.523438 15.675781 C 13.296875 15.613281 13.238281 15.519531 13.011719 15.457031 C 13.585938 15.273438 13.992188 15.230469 14.5625 15.050781 C 14.707031 15.183594 14.820312 15.28125 14.964844 15.402344 C 15.042969 15.449219 15.113281 15.460938 15.160156 15.402344 C 15.519531 14.882812 15.679688 14.425781 16.011719 14.082031 C 16.140625 13.941406 16.300781 13.75 16.480469 13.703125 C 16.570312 13.679688 16.679688 13.691406 16.75 13.769531 C 16.820312 13.847656 16.875 13.988281 16.851562 14.195312 C 16.816406 14.496094 16.742188 14.59375 16.660156 14.773438 C 16.574219 14.953125 16.472656 15.0625 16.367188 15.203125 C 16.152344 15.480469 15.875 15.640625 15.707031 15.746094 C 15.375 15.964844 15.234375 15.871094 14.980469 15.855469 C 14.648438 15.894531 14.558594 16.054688 14.832031 16.277344 C 15.085938 16.410156 15.3125 16.425781 15.5 16.390625 C 15.65625 16.363281 15.84375 16.15625 15.976562 16.046875 C 16.125 15.875 16.375 16.078125 16.203125 16.277344 C 15.898438 16.644531 15.589844 16.882812 15.210938 16.878906 C 14.816406 16.933594 14.890625 17.15625 15.152344 17.265625 C 15.628906 17.460938 16.058594 17.09375 16.273438 16.851562 C 16.441406 16.667969 16.5625 16.660156 16.53125 16.945312 C 16.367188 17.460938 16.136719 17.660156 15.765625 17.6875 C 15.464844 17.660156 15.460938 17.890625 15.679688 18.050781 C 16.183594 18.398438 16.546875 17.804688 16.71875 17.445312 C 16.839844 17.121094 17.027344 17.277344 17.046875 17.542969 C 17.046875 17.898438 16.886719 18.191406 16.457031 18.554688 C 16.785156 19.078125 17.171875 19.613281 17.5 20.140625 L 18.5 9 L 17.5 7.238281 C 17.394531 7.144531 17.042969 6.726562 16.953125 6.671875 C 16.917969 6.636719 16.898438 6.609375 16.945312 6.589844 C 16.996094 6.574219 17.105469 6.554688 17.179688 6.539062 C 16.96875 6.328125 16.789062 6.257812 16.386719 6.144531 C 16.484375 6.101562 16.578125 6.125 16.867188 6.113281 C 16.753906 5.949219 16.496094 5.699219 16.167969 5.582031 C 16.386719 5.425781 16.429688 5.414062 16.644531 5.234375 C 16.269531 5.207031 15.949219 5.136719 15.628906 5.039062 C 15.425781 4.941406 15.144531 4.863281 15.003906 4.859375 Z M 15.039062 5.296875 C 15.238281 5.296875 15.359375 5.363281 15.359375 5.445312 C 15.359375 5.53125 15.238281 5.597656 15.039062 5.597656 C 14.84375 5.597656 14.71875 5.523438 14.71875 5.441406 C 14.71875 5.359375 14.84375 5.296875 15.039062 5.296875 Z M 15.039062 5.296875 "/>
<path style=" stroke:none;fill-rule:nonzero;fill:rgb(0%,0%,0%);fill-opacity:1;" d="M 19.996094 4.859375 C 20.238281 4.855469 20.640625 4.9375 20.632812 5.125 C 21.308594 5.007812 21.378906 5.289062 21.339844 5.535156 C 21.277344 5.4375 21.199219 5.382812 21.136719 5.375 C 21.046875 5.359375 20.953125 5.386719 20.855469 5.449219 C 20.757812 5.507812 20.652344 5.601562 20.605469 5.660156 C 20.84375 5.71875 21.03125 5.683594 21.21875 5.648438 C 21.308594 5.632812 21.4375 5.582031 21.515625 5.527344 C 21.59375 5.472656 21.617188 5.421875 21.738281 5.300781 C 21.878906 5.152344 22.03125 5.195312 21.984375 5.421875 C 21.875 5.632812 21.691406 5.726562 21.460938 5.761719 C 21.351562 5.78125 21.1875 5.820312 21 5.820312 C 20.8125 5.820312 20.601562 5.792969 20.488281 5.816406 C 20.558594 5.859375 20.636719 5.933594 20.789062 5.964844 C 20.945312 5.996094 21.183594 5.871094 21.328125 5.839844 C 21.308594 5.960938 21.15625 6.074219 20.851562 6.132812 C 20.355469 6.242188 19.941406 6.324219 19.667969 6.472656 C 19.394531 6.621094 19.222656 6.808594 19.101562 6.953125 C 18.855469 7.242188 18.84375 7.464844 18.828125 7.511719 C 18.777344 7.976562 18.9375 8.238281 19.238281 8.316406 C 19.386719 8.355469 19.652344 8.28125 19.75 8.167969 C 19.847656 8.050781 19.945312 7.855469 19.917969 7.546875 C 19.890625 7.425781 19.753906 7.109375 19.871094 7.042969 C 20.414062 6.746094 21.074219 6.441406 21.550781 6.261719 C 21.679688 6.210938 21.789062 6.386719 21.828125 6.457031 C 22.640625 6.359375 23.371094 5.808594 23.699219 5.226562 C 23.925781 4.828125 24.292969 5.226562 24.230469 5.601562 C 24.132812 6.023438 23.8125 6.324219 23.429688 6.539062 C 23.035156 6.757812 22.542969 6.96875 22.046875 6.957031 C 21.777344 7.007812 21.78125 7.355469 22.101562 7.421875 C 22.730469 7.425781 23.230469 7.410156 23.707031 6.953125 C 24.066406 6.625 24.269531 7.015625 24.164062 7.238281 C 23.988281 7.917969 23.015625 8.109375 22.027344 7.890625 C 21.644531 7.828125 21.875 8.234375 21.984375 8.238281 C 22.394531 8.535156 23.132812 8.824219 23.78125 8.238281 C 24.078125 8.007812 24.277344 8.199219 24.167969 8.527344 C 23.878906 9.386719 22.777344 9.207031 22.023438 8.785156 C 21.828125 8.675781 21.648438 8.925781 21.886719 9.121094 C 22.828125 9.777344 23.300781 9.785156 23.722656 9.53125 C 24.253906 9.324219 24.300781 9.910156 23.984375 10.105469 C 23.636719 10.320312 22.742188 10.160156 22.085938 9.746094 C 21.808594 9.539062 21.792969 9.867188 21.972656 9.996094 C 22.75 10.667969 23.054688 10.84375 23.867188 10.734375 C 24.265625 10.703125 24.261719 11.199219 23.945312 11.390625 C 23.515625 11.65625 22.671875 11.21875 22.015625 10.675781 C 21.742188 10.527344 21.695312 10.769531 21.832031 11.054688 C 22.230469 11.558594 22.609375 11.855469 22.96875 11.992188 C 23.328125 12.128906 23.675781 12.109375 23.921875 12.023438 C 24.222656 11.921875 24.261719 12.234375 24.09375 12.515625 C 23.996094 12.6875 23.582031 12.742188 23.132812 12.582031 C 22.6875 12.425781 22.207031 12.054688 21.878906 11.617188 C 21.589844 11.367188 21.628906 11.703125 21.757812 11.941406 C 22.417969 12.984375 23.019531 13.371094 23.816406 13.304688 C 24.167969 13.246094 24.246094 13.519531 24.023438 13.773438 C 23.628906 14.101562 23.136719 14.089844 22.703125 13.765625 C 22.320312 13.398438 21.585938 12.601562 21.203125 12.175781 C 20.933594 11.957031 20.84375 12.171875 20.925781 12.609375 C 20.996094 12.863281 21.179688 13.125 21.671875 13.320312 C 22.007812 13.511719 21.753906 13.777344 21.503906 13.78125 C 21.363281 13.785156 21.082031 13.621094 20.867188 13.378906 C 20.582031 13.058594 20.566406 12.84375 20.40625 12.347656 C 20.257812 12.101562 19.996094 12.214844 19.996094 12.472656 C 20.121094 12.96875 20.230469 13.058594 20.488281 13.261719 C 20.734375 13.492188 20.316406 13.570312 20.175781 13.476562 C 19.769531 13.203125 19.621094 12.847656 19.488281 12.527344 C 19.390625 12.296875 19.105469 12.40625 19.238281 12.785156 C 19.550781 13.691406 20.066406 14.050781 20.972656 14.230469 C 21.0625 14.25 21.121094 14.300781 21.085938 14.410156 C 20.964844 14.535156 20.84375 14.648438 20.722656 14.773438 C 21.28125 14.9375 21.734375 15.027344 22.296875 15.191406 C 22.570312 15.011719 22.792969 14.859375 23.066406 14.679688 C 23.136719 14.511719 23.171875 14.25 23.578125 14.433594 C 23.851562 14.308594 23.976562 14.351562 24.128906 14.480469 C 23.910156 14.488281 23.8125 14.546875 23.726562 14.648438 C 23.617188 14.945312 23.355469 14.972656 23.089844 14.886719 C 22.917969 15.035156 22.824219 15.144531 22.652344 15.292969 C 22.976562 15.28125 23.199219 15.273438 23.523438 15.265625 C 23.828125 14.933594 24.074219 14.953125 24.292969 15.210938 C 24.460938 15.238281 24.53125 15.242188 24.648438 15.445312 C 24.464844 15.371094 24.351562 15.347656 24.273438 15.429688 C 23.949219 15.617188 23.734375 15.574219 23.574219 15.429688 C 23.257812 15.449219 22.976562 15.464844 22.660156 15.484375 C 22.773438 15.582031 22.933594 15.636719 23.050781 15.734375 C 23.523438 15.601562 23.769531 15.78125 23.851562 16.167969 C 23.917969 16.324219 23.945312 16.484375 23.917969 16.652344 C 23.871094 16.5 23.800781 16.367188 23.664062 16.285156 C 23.242188 16.390625 23.082031 16.21875 23.0625 15.96875 C 22.859375 15.800781 22.550781 15.765625 22.347656 15.597656 C 22.109375 15.671875 21.996094 15.71875 21.757812 15.796875 C 21.671875 16.054688 21.480469 16.15625 21.167969 16.089844 C 20.796875 16.101562 20.863281 16.253906 20.832031 16.375 C 20.734375 16.199219 20.738281 16.03125 20.964844 15.875 C 21.050781 15.648438 21.234375 15.546875 21.476562 15.675781 C 21.703125 15.613281 21.761719 15.519531 21.988281 15.457031 C 21.414062 15.273438 21.007812 15.230469 20.4375 15.050781 C 20.292969 15.183594 20.179688 15.28125 20.035156 15.402344 C 19.957031 15.449219 19.886719 15.460938 19.839844 15.402344 C 19.480469 14.882812 19.320312 14.425781 18.988281 14.082031 C 18.859375 13.941406 18.699219 13.75 18.519531 13.703125 C 18.429688 13.679688 18.320312 13.691406 18.25 13.769531 C 18.179688 13.847656 18.125 13.988281 18.148438 14.195312 C 18.183594 14.496094 18.257812 14.59375 18.339844 14.773438 C 18.425781 14.953125 18.527344 15.0625 18.632812 15.203125 C 18.847656 15.480469 19.125 15.640625 19.292969 15.746094 C 19.625 15.964844 19.765625 15.871094 20.019531 15.855469 C 20.351562 15.894531 20.441406 16.054688 20.167969 16.277344 C 19.914062 16.410156 19.6875 16.425781 19.5 16.390625 C 19.34375 16.363281 19.15625 16.15625 19.023438 16.046875 C 18.875 15.875 18.625 16.078125 18.796875 16.277344 C 19.101562 16.644531 19.410156 16.882812 19.789062 16.878906 C 20.183594 16.933594 20.109375 17.15625 19.847656 17.265625 C 19.371094 17.460938 18.941406 17.09375 18.726562 16.851562 C 18.558594 16.667969 18.4375 16.660156 18.46875 16.945312 C 18.632812 17.460938 18.863281 17.660156 19.234375 17.6875 C 19.535156 17.660156 19.539062 17.890625 19.320312 18.050781 C 18.816406 18.398438 18.453125 17.804688 18.28125 17.445312 C 18.160156 17.121094 17.972656 17.277344 17.953125 17.542969 C 17.953125 17.898438 18.113281 18.191406 18.542969 18.554688 C 18.214844 19.078125 17.828125 19.613281 17.5 20.140625 L 16.5 9 L 17.5 7.238281 C 17.605469 7.144531 17.957031 6.726562 18.046875 6.671875 C 18.082031 6.636719 18.101562 6.609375 18.054688 6.589844 C 18.003906 6.574219 17.894531 6.554688 17.820312 6.539062 C 18.03125 6.328125 18.210938 6.257812 18.613281 6.144531 C 18.515625 6.101562 18.421875 6.125 18.132812 6.113281 C 18.246094 5.949219 18.503906 5.699219 18.832031 5.582031 C 18.613281 5.425781 18.570312 5.414062 18.355469 5.234375 C 18.730469 5.207031 19.050781 5.136719 19.371094 5.039062 C 19.574219 4.941406 19.855469 4.863281 19.996094 4.859375 Z M 19.960938 5.296875 C 19.761719 5.296875 19.640625 5.363281 19.640625 5.445312 C 19.640625 5.53125 19.761719 5.597656 19.960938 5.597656 C 20.15625 5.597656 20.28125 5.523438 20.28125 5.441406 C 20.28125 5.359375 20.15625 5.296875 19.960938 5.296875 Z M 19.960938 5.296875 "/>
</g>
</svg>
