<?xml version="1.0" encoding="UTF-8"?>
<svg xmlns="http://www.w3.org/2000/svg" xmlns:xlink="http://www.w3.org/1999/xlink" width="38pt" height="25pt" viewBox="0 0 38 25" version="1.1">
<defs>
<clipPath id="clip1">
  <path d="M 12 6 L 26 6 L 26 19 L 12 19 Z M 12 6 "/>
</clipPath>
<clipPath id="clip2">
  <path d="M 0 0 L 38 0 L 38 25 L 0 25 Z M 20.53125 17.5 C 23.328125 17.5 25.597656 15.261719 25.597656 12.5 C 25.597656 9.738281 23.328125 7.5 20.53125 7.5 C 17.730469 7.5 15.464844 9.738281 15.464844 12.5 C 15.464844 15.261719 17.730469 17.5 20.53125 17.5 "/>
</clipPath>
</defs>
<g id="surface1">
<rect x="0" y="0" width="38" height="25" style="fill:rgb(100%,100%,100%);fill-opacity:1;stroke:none;"/>
<path style=" stroke:none;fill-rule:nonzero;fill:rgb(0%,38.431373%,20%);fill-opacity:1;" d="M 0 0 L 19 0 L 19 25 L 0 25 Z M 0 0 "/>
<g clip-path="url(#clip1)" clip-rule="nonzero">
<g clip-path="url(#clip2)" clip-rule="nonzero">
<path style=" stroke:none;fill-rule:nonzero;fill:rgb(82.352941%,6.27451%,20.392157%);fill-opacity:1;" d="M 25.332031 12.5 C 25.332031 15.953125 22.496094 18.75 19 18.75 C 15.503906 18.75 12.667969 15.953125 12.667969 12.5 C 12.667969 9.046875 15.503906 6.25 19 6.25 C 22.496094 6.25 25.332031 9.046875 25.332031 12.5 Z M 25.332031 12.5 "/>
</g>
</g>
<path style=" stroke:none;fill-rule:nonzero;fill:rgb(82.352941%,6.27451%,20.392157%);fill-opacity:1;" d="M 24.730469 12.5 L 21.71875 11.535156 L 21.128906 13.316406 Z M 24.730469 12.5 "/>
<path style=" stroke:none;fill-rule:nonzero;fill:rgb(82.352941%,6.27451%,20.392157%);fill-opacity:1;" d="M 24.730469 12.5 L 21.71875 13.464844 L 21.128906 11.683594 Z M 24.730469 12.5 "/>
<path style=" stroke:none;fill-rule:nonzero;fill:rgb(82.352941%,6.27451%,20.392157%);fill-opacity:1;" d="M 22.539062 15.472656 L 22.539062 12.347656 L 20.640625 12.347656 Z M 22.539062 15.472656 "/>
<path style=" stroke:none;fill-rule:nonzero;fill:rgb(82.352941%,6.27451%,20.392157%);fill-opacity:1;" d="M 22.539062 15.472656 L 20.679688 12.945312 L 22.214844 11.839844 Z M 22.539062 15.472656 "/>
<path style=" stroke:none;fill-rule:nonzero;fill:rgb(82.352941%,6.27451%,20.392157%);fill-opacity:1;" d="M 22.539062 9.527344 L 20.679688 12.054688 L 22.214844 13.160156 Z M 22.539062 9.527344 "/>
<path style=" stroke:none;fill-rule:nonzero;fill:rgb(82.352941%,6.27451%,20.392157%);fill-opacity:1;" d="M 22.539062 9.527344 L 22.539062 12.652344 L 20.640625 12.652344 Z M 22.539062 9.527344 "/>
<path style=" stroke:none;fill-rule:nonzero;fill:rgb(82.352941%,6.27451%,20.392157%);fill-opacity:1;" d="M 19 14.335938 L 22.011719 13.371094 L 21.425781 11.589844 Z M 19 14.335938 "/>
<path style=" stroke:none;fill-rule:nonzero;fill:rgb(82.352941%,6.27451%,20.392157%);fill-opacity:1;" d="M 19 14.335938 L 20.859375 11.808594 L 22.398438 12.910156 Z M 19 14.335938 "/>
<path style=" stroke:none;fill-rule:nonzero;fill:rgb(82.352941%,6.27451%,20.392157%);fill-opacity:1;" d="M 19 10.664062 L 20.859375 13.191406 L 22.398438 12.089844 Z M 19 10.664062 "/>
<path style=" stroke:none;fill-rule:nonzero;fill:rgb(82.352941%,6.27451%,20.392157%);fill-opacity:1;" d="M 19 10.664062 L 22.011719 11.628906 L 21.425781 13.410156 Z M 19 10.664062 "/>
</g>
</svg>
