<?xml version="1.0" encoding="UTF-8"?>
<svg xmlns="http://www.w3.org/2000/svg" xmlns:xlink="http://www.w3.org/1999/xlink" width="38pt" height="25pt" viewBox="0 0 38 25" version="1.1">
<g id="surface1">
<rect x="0" y="0" width="38" height="25" style="fill:rgb(0%,0%,0%);fill-opacity:1;stroke:none;"/>
<path style=" stroke:none;fill-rule:nonzero;fill:rgb(80.784314%,6.666667%,14.901961%);fill-opacity:1;" d="M 0 0 L 38 0 L 38 12.5 L 0 12.5 Z M 0 0 "/>
<path style=" stroke:none;fill-rule:nonzero;fill:rgb(97.647059%,83.921569%,8.627451%);fill-opacity:1;" d="M 19.515625 7.652344 C 21.617188 7.871094 23.34375 9.382812 23.816406 11.414062 C 24.285156 13.445312 23.398438 15.546875 21.601562 16.644531 C 19.804688 17.742188 17.5 17.589844 15.867188 16.269531 L 15.144531 17.140625 C 17.15625 18.765625 19.992188 18.953125 22.203125 17.601562 C 24.410156 16.25 25.507812 13.664062 24.925781 11.160156 C 24.347656 8.660156 22.21875 6.800781 19.636719 6.53125 Z M 19.515625 7.652344 "/>
<path style=" stroke:none;fill-rule:nonzero;fill:rgb(97.647059%,83.921569%,8.627451%);fill-opacity:1;" d="M 25.554688 11.863281 C 25.597656 12.285156 25.597656 12.714844 25.554688 13.136719 L 24.292969 13.015625 C 24.328125 12.671875 24.328125 12.328125 24.292969 11.984375 Z M 25.554688 11.863281 "/>
<path style=" stroke:none;fill-rule:nonzero;fill:rgb(97.647059%,83.921569%,8.627451%);fill-opacity:1;" d="M 25.304688 14.386719 C 25.179688 14.792969 25.011719 15.1875 24.808594 15.5625 L 23.691406 14.976562 C 23.855469 14.671875 23.988281 14.351562 24.089844 14.023438 Z M 25.304688 14.386719 "/>
<path style=" stroke:none;fill-rule:nonzero;fill:rgb(97.647059%,83.921569%,8.627451%);fill-opacity:1;" d="M 24.089844 16.625 C 23.816406 16.953125 23.511719 17.253906 23.179688 17.523438 L 22.375 16.558594 C 22.644531 16.339844 22.890625 16.097656 23.113281 15.832031 Z M 24.089844 16.625 "/>
<path style=" stroke:none;fill-rule:nonzero;fill:rgb(97.647059%,83.921569%,8.627451%);fill-opacity:1;" d="M 20.910156 6.28125 C 21.324219 6.402344 21.722656 6.566406 22.105469 6.765625 L 21.507812 7.871094 C 21.199219 7.707031 20.878906 7.574219 20.542969 7.476562 Z M 20.910156 6.28125 "/>
<path style=" stroke:none;fill-rule:nonzero;fill:rgb(97.647059%,83.921569%,8.627451%);fill-opacity:1;" d="M 23.179688 7.476562 C 23.511719 7.746094 23.816406 8.046875 24.089844 8.375 L 23.113281 9.167969 C 22.890625 8.902344 22.644531 8.660156 22.375 8.441406 Z M 23.179688 7.476562 "/>
<path style=" stroke:none;fill-rule:nonzero;fill:rgb(97.647059%,83.921569%,8.627451%);fill-opacity:1;" d="M 24.808594 9.4375 C 25.011719 9.8125 25.179688 10.207031 25.304688 10.613281 L 24.089844 10.976562 C 23.988281 10.648438 23.855469 10.328125 23.691406 10.023438 Z M 24.808594 9.4375 "/>
<path style=" stroke:none;fill-rule:nonzero;fill:rgb(97.647059%,83.921569%,8.627451%);fill-opacity:1;" d="M 22.105469 18.234375 C 21.722656 18.433594 21.324219 18.597656 20.910156 18.71875 L 20.542969 17.523438 C 20.878906 17.425781 21.199219 17.292969 21.507812 17.128906 Z M 22.105469 18.234375 "/>
<path style=" stroke:none;fill-rule:nonzero;fill:rgb(97.647059%,83.921569%,8.627451%);fill-opacity:1;" d="M 19.644531 18.96875 C 19.214844 19.011719 18.785156 19.011719 18.355469 18.96875 L 18.480469 17.726562 C 18.824219 17.757812 19.175781 17.757812 19.519531 17.726562 Z M 19.644531 18.96875 "/>
<path style=" stroke:none;fill-rule:nonzero;fill:rgb(97.647059%,83.921569%,8.627451%);fill-opacity:1;" d="M 17.089844 18.71875 C 16.675781 18.597656 16.277344 18.433594 15.894531 18.234375 L 16.492188 17.128906 C 16.800781 17.292969 17.121094 17.425781 17.457031 17.523438 Z M 17.089844 18.71875 "/>
<path style=" stroke:none;fill-rule:nonzero;fill:rgb(97.647059%,83.921569%,8.627451%);fill-opacity:1;" d="M 16.832031 9.554688 L 21.167969 9.554688 L 17.660156 12.070312 L 19 8 L 20.339844 12.070312 Z M 16.832031 9.554688 "/>
<path style=" stroke:none;fill-rule:nonzero;fill:rgb(97.647059%,83.921569%,8.627451%);fill-opacity:1;" d="M 24.308594 18.027344 C 24.632812 18.335938 25.070312 18.640625 25.386719 18.917969 C 25.703125 19.195312 25.945312 19.425781 26.140625 19.742188 C 26.429688 20.203125 26.105469 20.726562 25.660156 20.417969 C 25.417969 20.253906 25.265625 19.804688 24.894531 19.433594 C 24.617188 19.203125 24.402344 18.960938 23.710938 18.84375 C 23.675781 18.839844 23.667969 18.769531 23.695312 18.738281 Z M 24.308594 18.027344 "/>
<path style=" stroke:none;fill-rule:nonzero;fill:rgb(0%,0%,0%);fill-opacity:1;" d="M 19.539062 16.488281 L 21.246094 17.484375 L 21.617188 18.90625 L 23.582031 18.761719 L 24.445312 17.761719 L 21.246094 15.578125 Z M 19.539062 16.488281 "/>
<path style=" stroke:none;fill-rule:nonzero;fill:rgb(97.647059%,83.921569%,8.627451%);fill-opacity:1;" d="M 23.617188 18.640625 C 21.417969 17.199219 20.019531 16.417969 17.914062 15.238281 C 17.085938 14.773438 15.800781 13.605469 16.8125 11.652344 C 16.878906 12.933594 22.011719 16.453125 24.183594 17.984375 Z M 23.617188 18.640625 "/>
<path style="fill:none;stroke-width:1.5;stroke-linecap:round;stroke-linejoin:miter;stroke:rgb(0%,0%,0%);stroke-opacity:1;stroke-miterlimit:4;" d="M 216.072163 167.53125 C 236.148232 186.421875 261.358964 201.84375 283.886719 218.859375 " transform="matrix(0.0844444,0,0,0.0833333,0,0)"/>
<path style=" stroke:none;fill-rule:nonzero;fill:rgb(0%,0%,0%);fill-opacity:1;" d="M 24.609375 18.523438 C 24.609375 18.570312 24.570312 18.609375 24.523438 18.609375 C 24.476562 18.609375 24.4375 18.570312 24.4375 18.523438 C 24.4375 18.476562 24.476562 18.441406 24.523438 18.441406 C 24.570312 18.441406 24.609375 18.476562 24.609375 18.523438 Z M 24.609375 18.523438 "/>
<path style=" stroke:none;fill-rule:nonzero;fill:rgb(0%,0%,0%);fill-opacity:1;" d="M 25.234375 19.0625 C 25.234375 19.109375 25.195312 19.148438 25.148438 19.148438 C 25.101562 19.148438 25.0625 19.109375 25.0625 19.0625 C 25.0625 19.015625 25.101562 18.980469 25.148438 18.980469 C 25.195312 18.980469 25.234375 19.015625 25.234375 19.0625 Z M 25.234375 19.0625 "/>
<path style=" stroke:none;fill-rule:nonzero;fill:rgb(0%,0%,0%);fill-opacity:1;" d="M 25.785156 19.617188 C 25.785156 19.660156 25.746094 19.699219 25.699219 19.699219 C 25.652344 19.699219 25.613281 19.660156 25.613281 19.617188 C 25.613281 19.570312 25.652344 19.53125 25.699219 19.53125 C 25.746094 19.53125 25.785156 19.570312 25.785156 19.617188 Z M 25.785156 19.617188 "/>
</g>
</svg>
