<?xml version="1.0" encoding="UTF-8"?>
<svg xmlns="http://www.w3.org/2000/svg" xmlns:xlink="http://www.w3.org/1999/xlink" width="38pt" height="25pt" viewBox="0 0 38 25" version="1.1">
<g id="surface1">
<rect x="0" y="0" width="38" height="25" style="fill:rgb(100%,100%,100%);fill-opacity:1;stroke:none;"/>
<path style=" stroke:none;fill-rule:nonzero;fill:rgb(0%,0%,0%);fill-opacity:1;" d="M 0 0 L 38 0 L 38 9.78125 L 0 9.78125 Z M 0 0 "/>
<path style=" stroke:none;fill-rule:nonzero;fill:rgb(98.823529%,81.960784%,8.627451%);fill-opacity:1;" d="M 10.738281 9.78125 L 19 8.222656 L 19 11.34375 Z M 10.738281 9.78125 "/>
<path style=" stroke:none;fill-rule:nonzero;fill:rgb(98.823529%,81.960784%,8.627451%);fill-opacity:1;" d="M 11.367188 6.664062 L 19.605469 8.339844 L 18.394531 11.222656 Z M 11.367188 6.664062 "/>
<path style=" stroke:none;fill-rule:nonzero;fill:rgb(98.823529%,81.960784%,8.627451%);fill-opacity:1;" d="M 13.160156 4.019531 L 20.117188 8.679688 L 17.882812 10.886719 Z M 13.160156 4.019531 "/>
<path style=" stroke:none;fill-rule:nonzero;fill:rgb(98.823529%,81.960784%,8.627451%);fill-opacity:1;" d="M 15.839844 2.25 L 20.460938 9.183594 L 17.539062 10.378906 Z M 15.839844 2.25 "/>
<path style=" stroke:none;fill-rule:nonzero;fill:rgb(98.823529%,81.960784%,8.627451%);fill-opacity:1;" d="M 19 1.628906 L 20.582031 9.78125 L 17.417969 9.78125 Z M 19 1.628906 "/>
<path style=" stroke:none;fill-rule:nonzero;fill:rgb(98.823529%,81.960784%,8.627451%);fill-opacity:1;" d="M 22.160156 2.25 L 20.460938 10.378906 L 17.539062 9.183594 Z M 22.160156 2.25 "/>
<path style=" stroke:none;fill-rule:nonzero;fill:rgb(98.823529%,81.960784%,8.627451%);fill-opacity:1;" d="M 24.839844 4.019531 L 20.117188 10.886719 L 17.882812 8.679688 Z M 24.839844 4.019531 "/>
<path style=" stroke:none;fill-rule:nonzero;fill:rgb(98.823529%,81.960784%,8.627451%);fill-opacity:1;" d="M 26.632812 6.664062 L 19.605469 11.222656 L 18.394531 8.339844 Z M 26.632812 6.664062 "/>
<path style=" stroke:none;fill-rule:nonzero;fill:rgb(98.823529%,81.960784%,8.627451%);fill-opacity:1;" d="M 27.261719 9.78125 L 19 11.34375 L 19 8.222656 Z M 27.261719 9.78125 "/>
<path style=" stroke:none;fill-rule:nonzero;fill:rgb(0%,44.705882%,77.647059%);fill-opacity:1;" d="M 0 9.78125 L 38 9.78125 L 38 15.21875 L 0 15.21875 Z M 0 9.78125 "/>
<path style=" stroke:none;fill-rule:nonzero;fill:rgb(80.784314%,6.666667%,14.901961%);fill-opacity:1;" d="M 0 0 L 0 25 L 38 25 L 38 0 L 19 25 Z M 0 0 "/>
</g>
</svg>
