<?xml version="1.0" encoding="UTF-8"?>
<svg xmlns="http://www.w3.org/2000/svg" xmlns:xlink="http://www.w3.org/1999/xlink" width="40pt" height="25pt" viewBox="0 0 40 25" version="1.1">
<g id="surface1">
<rect x="0" y="0" width="40" height="25" style="fill:rgb(45.490196%,67.45098%,87.45098%);fill-opacity:1;stroke:none;"/>
<path style=" stroke:none;fill-rule:nonzero;fill:rgb(100%,100%,100%);fill-opacity:1;" d="M 0 8.332031 L 40 8.332031 L 40 16.667969 L 0 16.667969 Z M 0 8.332031 "/>
<path style="fill-rule:nonzero;fill:rgb(96.470588%,70.588235%,5.490196%);fill-opacity:1;stroke-width:1.1116;stroke-linecap:butt;stroke-linejoin:miter;stroke:rgb(52.156863%,20.392157%,3.921569%);stroke-opacity:1;stroke-miterlimit:4;" d="M 396.875 251.328125 L 425.3125 313.28125 C 425.3125 313.28125 425.78125 314.453125 426.5625 314.140625 C 427.34375 313.828125 426.875 312.65625 426.875 312.65625 L 403.125 248.671875 M 402.5 272.8125 C 402.109375 282.265625 407.96875 287.421875 407.1875 295.859375 C 406.40625 304.296875 411.015625 309.0625 412.109375 312.265625 C 413.203125 315.546875 410.9375 317.5 411.875 317.96875 C 412.890625 318.4375 415 315.859375 414.296875 311.25 C 413.59375 306.5625 410.078125 305.15625 410.9375 294.921875 C 411.71875 284.609375 406.71875 282.1875 407.890625 272.8125 " transform="matrix(0.05,0,0,0.05,0,0)"/>
<path style="fill-rule:nonzero;fill:rgb(96.470588%,70.588235%,5.490196%);fill-opacity:1;stroke-width:1.1116;stroke-linecap:butt;stroke-linejoin:miter;stroke:rgb(52.156863%,20.392157%,3.921569%);stroke-opacity:1;stroke-miterlimit:4;" d="M 396.824164 251.315474 L 425.27635 313.268162 C 425.27635 313.268162 425.784601 314.495189 426.57856 314.166321 C 427.372519 313.837452 426.864268 312.610425 426.864268 312.610425 L 403.175836 248.684526 M 402.512391 272.805787 C 402.119994 282.270131 407.884498 287.408403 407.145719 295.832357 C 406.406941 304.256311 411.006336 309.031568 412.105276 312.297096 C 413.204216 315.562623 410.96457 317.505057 411.913144 317.957764 C 412.891616 318.482648 415.006543 315.830817 414.283002 311.225928 C 413.631639 306.591142 410.088903 305.183487 410.891726 294.872644 C 411.724445 284.633979 406.675348 282.243603 407.939012 272.841178 " transform="matrix(0.046194,0.0191342,-0.0191342,0.046194,6.305952,-6.702163)"/>
<path style="fill-rule:nonzero;fill:rgb(96.470588%,70.588235%,5.490196%);fill-opacity:1;stroke-width:1.1116;stroke-linecap:butt;stroke-linejoin:miter;stroke:rgb(52.156863%,20.392157%,3.921569%);stroke-opacity:1;stroke-miterlimit:4;" d="M 396.851165 251.270582 L 425.301165 313.308154 C 425.301165 313.308154 425.798349 314.468251 426.571747 314.136795 C 427.345145 313.805338 426.847961 312.645241 426.847961 312.645241 L 403.148835 248.729418 M 402.485922 272.815242 C 402.099223 282.261747 407.954951 287.454562 407.181553 295.851455 C 406.408155 304.248348 411.048543 308.999222 412.098155 312.258542 C 413.203009 315.573105 410.938058 317.506601 411.877184 318.003785 C 412.871553 318.445727 414.970776 315.904562 414.307864 311.264173 C 413.589708 306.568542 410.109417 305.187475 410.882815 294.912329 C 411.766699 284.637184 406.684369 282.206504 407.954951 272.870485 " transform="matrix(0.0353553,0.0353553,-0.0353553,0.0353553,14.696699,-10.48097)"/>
<path style="fill-rule:nonzero;fill:rgb(96.470588%,70.588235%,5.490196%);fill-opacity:1;stroke-width:1.1116;stroke-linecap:butt;stroke-linejoin:miter;stroke:rgb(52.156863%,20.392157%,3.921569%);stroke-opacity:1;stroke-miterlimit:4;" d="M 396.835668 251.310709 L 425.270741 313.318665 C 425.270741 313.318665 425.80801 314.47139 426.594715 314.205321 C 427.339138 313.837176 426.903945 312.64217 426.903945 312.64217 L 403.164332 248.689291 M 402.463648 272.837444 C 402.11675 282.249248 407.914885 287.441456 407.145178 295.832508 C 406.447649 304.253457 411.061037 309.039489 412.095418 312.258486 C 413.172079 315.579558 410.928549 317.525362 411.909145 318.0161 C 412.889741 318.506838 414.981661 315.906302 414.298792 311.22623 C 413.615923 306.546158 410.049299 305.153376 410.899318 294.935229 C 411.707057 284.615007 406.702001 282.203598 407.962446 272.83195 " transform="matrix(0.0191342,0.046194,-0.046194,0.0191342,23.894826,-10.761134)"/>
<path style=" stroke:none;fill-rule:nonzero;fill:rgb(52.156863%,20.392157%,3.921569%);fill-opacity:1;" d="M 20.214844 13.71875 C 20.238281 14.171875 20.496094 14.375 20.445312 14.785156 C 20.554688 14.460938 20.289062 14.207031 20.304688 13.726562 M 19.921875 12.539062 L 20.894531 14.667969 L 20.078125 12.472656 "/>
<path style=" stroke:none;fill-rule:nonzero;fill:rgb(52.156863%,20.392157%,3.921569%);fill-opacity:1;" d="M 19.730469 13.710938 C 19.578125 14.136719 19.738281 14.421875 19.535156 14.78125 C 19.761719 14.523438 19.613281 14.1875 19.8125 13.75 M 19.914062 12.503906 L 20 14.84375 L 20.082031 12.503906 "/>
<path style=" stroke:none;fill-rule:nonzero;fill:rgb(52.156863%,20.392157%,3.921569%);fill-opacity:1;" d="M 19.289062 13.515625 C 18.984375 13.851562 19.023438 14.175781 18.699219 14.429688 C 19.007812 14.277344 18.996094 13.910156 19.347656 13.582031 M 19.917969 12.46875 L 19.101562 14.664062 L 20.074219 12.535156 "/>
<path style=" stroke:none;fill-rule:nonzero;fill:rgb(52.156863%,20.392157%,3.921569%);fill-opacity:1;" d="M 18.953125 13.167969 C 18.546875 13.359375 18.457031 13.675781 18.058594 13.785156 C 18.402344 13.761719 18.535156 13.417969 18.984375 13.25 M 19.933594 12.441406 L 18.339844 14.15625 L 20.054688 12.5625 "/>
<path style="fill-rule:nonzero;fill:rgb(96.470588%,70.588235%,5.490196%);fill-opacity:1;stroke-width:1.1116;stroke-linecap:butt;stroke-linejoin:miter;stroke:rgb(52.156863%,20.392157%,3.921569%);stroke-opacity:1;stroke-miterlimit:4;" d="M 396.875 251.328125 L 425.3125 313.28125 C 425.3125 313.28125 425.78125 314.453125 426.5625 314.140625 C 427.34375 313.828125 426.875 312.65625 426.875 312.65625 L 403.125 248.671875 M 402.5 272.8125 C 402.109375 282.265625 407.96875 287.421875 407.1875 295.859375 C 406.40625 304.296875 411.015625 309.0625 412.109375 312.265625 C 413.203125 315.546875 410.9375 317.5 411.875 317.96875 C 412.890625 318.4375 415 315.859375 414.296875 311.25 C 413.59375 306.5625 410.078125 305.15625 410.9375 294.921875 C 411.71875 284.609375 406.71875 282.1875 407.890625 272.8125 " transform="matrix(0.000000000000000003,0.05,-0.05,0.000000000000000003,32.5,-7.5)"/>
<path style="fill-rule:nonzero;fill:rgb(96.470588%,70.588235%,5.490196%);fill-opacity:1;stroke-width:1.1116;stroke-linecap:butt;stroke-linejoin:miter;stroke:rgb(52.156863%,20.392157%,3.921569%);stroke-opacity:1;stroke-miterlimit:4;" d="M 396.824164 251.315474 L 425.27635 313.268162 C 425.27635 313.268162 425.784601 314.495189 426.57856 314.166321 C 427.372519 313.837452 426.864268 312.610425 426.864268 312.610425 L 403.175836 248.684526 M 402.512391 272.805787 C 402.119994 282.270131 407.884498 287.408403 407.145719 295.832357 C 406.406941 304.256311 411.006336 309.031568 412.105276 312.297096 C 413.204216 315.562623 410.96457 317.505057 411.913144 317.957764 C 412.891616 318.482648 415.006543 315.830817 414.283002 311.225928 C 413.631639 306.591142 410.088903 305.183487 410.891726 294.872644 C 411.724445 284.633979 406.675348 282.243603 407.939012 272.841178 " transform="matrix(-0.0191342,0.046194,-0.046194,-0.0191342,39.202163,-1.194048)"/>
<path style="fill-rule:nonzero;fill:rgb(96.470588%,70.588235%,5.490196%);fill-opacity:1;stroke-width:1.1116;stroke-linecap:butt;stroke-linejoin:miter;stroke:rgb(52.156863%,20.392157%,3.921569%);stroke-opacity:1;stroke-miterlimit:4;" d="M 396.851165 251.270582 L 425.301165 313.308154 C 425.301165 313.308154 425.798349 314.468251 426.571747 314.136795 C 427.345145 313.805338 426.847961 312.645241 426.847961 312.645241 L 403.148835 248.729418 M 402.485922 272.815242 C 402.099223 282.261747 407.954951 287.454562 407.181553 295.851455 C 406.408155 304.248348 411.048543 308.999222 412.098155 312.258542 C 413.203009 315.573105 410.938058 317.506601 411.877184 318.003785 C 412.871553 318.445727 414.970776 315.904562 414.307864 311.264173 C 413.589708 306.568542 410.109417 305.187475 410.882815 294.912329 C 411.766699 284.637184 406.684369 282.206504 407.954951 272.870485 " transform="matrix(-0.0353553,0.0353553,-0.0353553,-0.0353553,42.98097,7.196699)"/>
<path style="fill-rule:nonzero;fill:rgb(96.470588%,70.588235%,5.490196%);fill-opacity:1;stroke-width:1.1116;stroke-linecap:butt;stroke-linejoin:miter;stroke:rgb(52.156863%,20.392157%,3.921569%);stroke-opacity:1;stroke-miterlimit:4;" d="M 396.835668 251.310709 L 425.270741 313.318665 C 425.270741 313.318665 425.80801 314.47139 426.594715 314.205321 C 427.339138 313.837176 426.903945 312.64217 426.903945 312.64217 L 403.164332 248.689291 M 402.463648 272.837444 C 402.11675 282.249248 407.914885 287.441456 407.145178 295.832508 C 406.447649 304.253457 411.061037 309.039489 412.095418 312.258486 C 413.172079 315.579558 410.928549 317.525362 411.909145 318.0161 C 412.889741 318.506838 414.981661 315.906302 414.298792 311.22623 C 413.615923 306.546158 410.049299 305.153376 410.899318 294.935229 C 411.707057 284.615007 406.702001 282.203598 407.962446 272.83195 " transform="matrix(-0.046194,0.0191342,-0.0191342,-0.046194,43.261134,16.394826)"/>
<path style=" stroke:none;fill-rule:nonzero;fill:rgb(52.156863%,20.392157%,3.921569%);fill-opacity:1;" d="M 18.78125 12.714844 C 18.328125 12.738281 18.125 12.996094 17.714844 12.945312 C 18.039062 13.054688 18.292969 12.789062 18.773438 12.804688 M 19.960938 12.421875 L 17.832031 13.394531 L 20.027344 12.578125 "/>
<path style=" stroke:none;fill-rule:nonzero;fill:rgb(52.156863%,20.392157%,3.921569%);fill-opacity:1;" d="M 18.789062 12.230469 C 18.363281 12.078125 18.078125 12.238281 17.71875 12.035156 C 17.976562 12.261719 18.3125 12.113281 18.75 12.3125 M 19.996094 12.414062 L 17.65625 12.5 L 19.996094 12.582031 "/>
<path style=" stroke:none;fill-rule:nonzero;fill:rgb(52.156863%,20.392157%,3.921569%);fill-opacity:1;" d="M 18.984375 11.789062 C 18.648438 11.484375 18.324219 11.523438 18.070312 11.199219 C 18.222656 11.507812 18.589844 11.496094 18.917969 11.847656 M 20.03125 12.417969 L 17.835938 11.601562 L 19.964844 12.574219 "/>
<path style=" stroke:none;fill-rule:nonzero;fill:rgb(52.156863%,20.392157%,3.921569%);fill-opacity:1;" d="M 19.332031 11.453125 C 19.140625 11.046875 18.824219 10.957031 18.714844 10.558594 C 18.738281 10.902344 19.082031 11.035156 19.25 11.484375 M 20.058594 12.433594 L 18.34375 10.839844 L 19.9375 12.554688 "/>
<path style="fill-rule:nonzero;fill:rgb(96.470588%,70.588235%,5.490196%);fill-opacity:1;stroke-width:1.1116;stroke-linecap:butt;stroke-linejoin:miter;stroke:rgb(52.156863%,20.392157%,3.921569%);stroke-opacity:1;stroke-miterlimit:4;" d="M 396.875 251.328125 L 425.3125 313.28125 C 425.3125 313.28125 425.78125 314.453125 426.5625 314.140625 C 427.34375 313.828125 426.875 312.65625 426.875 312.65625 L 403.125 248.671875 M 402.5 272.8125 C 402.109375 282.265625 407.96875 287.421875 407.1875 295.859375 C 406.40625 304.296875 411.015625 309.0625 412.109375 312.265625 C 413.203125 315.546875 410.9375 317.5 411.875 317.96875 C 412.890625 318.4375 415 315.859375 414.296875 311.25 C 413.59375 306.5625 410.078125 305.15625 410.9375 294.921875 C 411.71875 284.609375 406.71875 282.1875 407.890625 272.8125 " transform="matrix(-0.05,0.000000000000000006,-0.000000000000000006,-0.05,40,25)"/>
<path style="fill-rule:nonzero;fill:rgb(96.470588%,70.588235%,5.490196%);fill-opacity:1;stroke-width:1.1116;stroke-linecap:butt;stroke-linejoin:miter;stroke:rgb(52.156863%,20.392157%,3.921569%);stroke-opacity:1;stroke-miterlimit:4;" d="M 396.824164 251.315474 L 425.27635 313.268162 C 425.27635 313.268162 425.784601 314.495189 426.57856 314.166321 C 427.372519 313.837452 426.864268 312.610425 426.864268 312.610425 L 403.175836 248.684526 M 402.512391 272.805787 C 402.119994 282.270131 407.884498 287.408403 407.145719 295.832357 C 406.406941 304.256311 411.006336 309.031568 412.105276 312.297096 C 413.204216 315.562623 410.96457 317.505057 411.913144 317.957764 C 412.891616 318.482648 415.006543 315.830817 414.283002 311.225928 C 413.631639 306.591142 410.088903 305.183487 410.891726 294.872644 C 411.724445 284.633979 406.675348 282.243603 407.939012 272.841178 " transform="matrix(-0.046194,-0.0191342,0.0191342,-0.046194,33.694048,31.702163)"/>
<path style="fill-rule:nonzero;fill:rgb(96.470588%,70.588235%,5.490196%);fill-opacity:1;stroke-width:1.1116;stroke-linecap:butt;stroke-linejoin:miter;stroke:rgb(52.156863%,20.392157%,3.921569%);stroke-opacity:1;stroke-miterlimit:4;" d="M 396.851165 251.270582 L 425.301165 313.308154 C 425.301165 313.308154 425.798349 314.468251 426.571747 314.136795 C 427.345145 313.805338 426.847961 312.645241 426.847961 312.645241 L 403.148835 248.729418 M 402.485922 272.815242 C 402.099223 282.261747 407.954951 287.454562 407.181553 295.851455 C 406.408155 304.248348 411.048543 308.999222 412.098155 312.258542 C 413.203009 315.573105 410.938058 317.506601 411.877184 318.003785 C 412.871553 318.445727 414.970776 315.904562 414.307864 311.264173 C 413.589708 306.568542 410.109417 305.187475 410.882815 294.912329 C 411.766699 284.637184 406.684369 282.206504 407.954951 272.870485 " transform="matrix(-0.0353553,-0.0353553,0.0353553,-0.0353553,25.303301,35.48097)"/>
<path style="fill-rule:nonzero;fill:rgb(96.470588%,70.588235%,5.490196%);fill-opacity:1;stroke-width:1.1116;stroke-linecap:butt;stroke-linejoin:miter;stroke:rgb(52.156863%,20.392157%,3.921569%);stroke-opacity:1;stroke-miterlimit:4;" d="M 396.835668 251.310709 L 425.270741 313.318665 C 425.270741 313.318665 425.80801 314.47139 426.594715 314.205321 C 427.339138 313.837176 426.903945 312.64217 426.903945 312.64217 L 403.164332 248.689291 M 402.463648 272.837444 C 402.11675 282.249248 407.914885 287.441456 407.145178 295.832508 C 406.447649 304.253457 411.061037 309.039489 412.095418 312.258486 C 413.172079 315.579558 410.928549 317.525362 411.909145 318.0161 C 412.889741 318.506838 414.981661 315.906302 414.298792 311.22623 C 413.615923 306.546158 410.049299 305.153376 410.899318 294.935229 C 411.707057 284.615007 406.702001 282.203598 407.962446 272.83195 " transform="matrix(-0.0191342,-0.046194,0.046194,-0.0191342,16.105174,35.761134)"/>
<path style=" stroke:none;fill-rule:nonzero;fill:rgb(52.156863%,20.392157%,3.921569%);fill-opacity:1;" d="M 19.785156 11.28125 C 19.761719 10.828125 19.503906 10.625 19.554688 10.214844 C 19.445312 10.539062 19.710938 10.792969 19.695312 11.273438 M 20.078125 12.460938 L 19.105469 10.332031 L 19.921875 12.527344 "/>
<path style=" stroke:none;fill-rule:nonzero;fill:rgb(52.156863%,20.392157%,3.921569%);fill-opacity:1;" d="M 20.269531 11.289062 C 20.421875 10.863281 20.261719 10.578125 20.464844 10.21875 C 20.238281 10.476562 20.386719 10.8125 20.1875 11.25 M 20.085938 12.496094 L 20 10.15625 L 19.917969 12.496094 "/>
<path style=" stroke:none;fill-rule:nonzero;fill:rgb(52.156863%,20.392157%,3.921569%);fill-opacity:1;" d="M 20.710938 11.484375 C 21.015625 11.148438 20.976562 10.824219 21.300781 10.570312 C 20.992188 10.722656 21.003906 11.089844 20.652344 11.417969 M 20.082031 12.53125 L 20.898438 10.335938 L 19.925781 12.464844 "/>
<path style=" stroke:none;fill-rule:nonzero;fill:rgb(52.156863%,20.392157%,3.921569%);fill-opacity:1;" d="M 21.046875 11.832031 C 21.453125 11.640625 21.542969 11.324219 21.941406 11.214844 C 21.597656 11.238281 21.464844 11.582031 21.015625 11.75 M 20.066406 12.558594 L 21.660156 10.84375 L 19.945312 12.4375 "/>
<path style="fill-rule:nonzero;fill:rgb(96.470588%,70.588235%,5.490196%);fill-opacity:1;stroke-width:1.1116;stroke-linecap:butt;stroke-linejoin:miter;stroke:rgb(52.156863%,20.392157%,3.921569%);stroke-opacity:1;stroke-miterlimit:4;" d="M 396.875 251.328125 L 425.3125 313.28125 C 425.3125 313.28125 425.78125 314.453125 426.5625 314.140625 C 427.34375 313.828125 426.875 312.65625 426.875 312.65625 L 403.125 248.671875 M 402.5 272.8125 C 402.109375 282.265625 407.96875 287.421875 407.1875 295.859375 C 406.40625 304.296875 411.015625 309.0625 412.109375 312.265625 C 413.203125 315.546875 410.9375 317.5 411.875 317.96875 C 412.890625 318.4375 415 315.859375 414.296875 311.25 C 413.59375 306.5625 410.078125 305.15625 410.9375 294.921875 C 411.71875 284.609375 406.71875 282.1875 407.890625 272.8125 " transform="matrix(-0.000000000000000009,-0.05,0.05,-0.000000000000000009,7.5,32.5)"/>
<path style="fill-rule:nonzero;fill:rgb(96.470588%,70.588235%,5.490196%);fill-opacity:1;stroke-width:1.1116;stroke-linecap:butt;stroke-linejoin:miter;stroke:rgb(52.156863%,20.392157%,3.921569%);stroke-opacity:1;stroke-miterlimit:4;" d="M 396.824164 251.315474 L 425.27635 313.268162 C 425.27635 313.268162 425.784601 314.495189 426.57856 314.166321 C 427.372519 313.837452 426.864268 312.610425 426.864268 312.610425 L 403.175836 248.684526 M 402.512391 272.805787 C 402.119994 282.270131 407.884498 287.408403 407.145719 295.832357 C 406.406941 304.256311 411.006336 309.031568 412.105276 312.297096 C 413.204216 315.562623 410.96457 317.505057 411.913144 317.957764 C 412.891616 318.482648 415.006543 315.830817 414.283002 311.225928 C 413.631639 306.591142 410.088903 305.183487 410.891726 294.872644 C 411.724445 284.633979 406.675348 282.243603 407.939012 272.841178 " transform="matrix(0.0191342,-0.046194,0.046194,0.0191342,0.797837,26.194048)"/>
<path style="fill-rule:nonzero;fill:rgb(96.470588%,70.588235%,5.490196%);fill-opacity:1;stroke-width:1.1116;stroke-linecap:butt;stroke-linejoin:miter;stroke:rgb(52.156863%,20.392157%,3.921569%);stroke-opacity:1;stroke-miterlimit:4;" d="M 396.851165 251.270582 L 425.301165 313.308154 C 425.301165 313.308154 425.798349 314.468251 426.571747 314.136795 C 427.345145 313.805338 426.847961 312.645241 426.847961 312.645241 L 403.148835 248.729418 M 402.485922 272.815242 C 402.099223 282.261747 407.954951 287.454562 407.181553 295.851455 C 406.408155 304.248348 411.048543 308.999222 412.098155 312.258542 C 413.203009 315.573105 410.938058 317.506601 411.877184 318.003785 C 412.871553 318.445727 414.970776 315.904562 414.307864 311.264173 C 413.589708 306.568542 410.109417 305.187475 410.882815 294.912329 C 411.766699 284.637184 406.684369 282.206504 407.954951 272.870485 " transform="matrix(0.0353553,-0.0353553,0.0353553,0.0353553,-2.98097,17.803301)"/>
<path style="fill-rule:nonzero;fill:rgb(96.470588%,70.588235%,5.490196%);fill-opacity:1;stroke-width:1.1116;stroke-linecap:butt;stroke-linejoin:miter;stroke:rgb(52.156863%,20.392157%,3.921569%);stroke-opacity:1;stroke-miterlimit:4;" d="M 396.835668 251.310709 L 425.270741 313.318665 C 425.270741 313.318665 425.80801 314.47139 426.594715 314.205321 C 427.339138 313.837176 426.903945 312.64217 426.903945 312.64217 L 403.164332 248.689291 M 402.463648 272.837444 C 402.11675 282.249248 407.914885 287.441456 407.145178 295.832508 C 406.447649 304.253457 411.061037 309.039489 412.095418 312.258486 C 413.172079 315.579558 410.928549 317.525362 411.909145 318.0161 C 412.889741 318.506838 414.981661 315.906302 414.298792 311.22623 C 413.615923 306.546158 410.049299 305.153376 410.899318 294.935229 C 411.707057 284.615007 406.702001 282.203598 407.962446 272.83195 " transform="matrix(0.046194,-0.0191342,0.0191342,0.046194,-3.261134,8.605174)"/>
<path style=" stroke:none;fill-rule:nonzero;fill:rgb(52.156863%,20.392157%,3.921569%);fill-opacity:1;" d="M 21.21875 12.285156 C 21.671875 12.261719 21.875 12.003906 22.285156 12.054688 C 21.960938 11.945312 21.707031 12.210938 21.226562 12.195312 M 20.039062 12.578125 L 22.167969 11.605469 L 19.972656 12.421875 "/>
<path style=" stroke:none;fill-rule:nonzero;fill:rgb(52.156863%,20.392157%,3.921569%);fill-opacity:1;" d="M 21.210938 12.769531 C 21.636719 12.921875 21.921875 12.761719 22.28125 12.964844 C 22.023438 12.738281 21.6875 12.886719 21.25 12.6875 M 20.003906 12.585938 L 22.34375 12.5 L 20.003906 12.417969 "/>
<path style=" stroke:none;fill-rule:nonzero;fill:rgb(52.156863%,20.392157%,3.921569%);fill-opacity:1;" d="M 21.015625 13.210938 C 21.351562 13.515625 21.675781 13.476562 21.929688 13.800781 C 21.777344 13.492188 21.410156 13.503906 21.082031 13.152344 M 19.96875 12.582031 L 22.164062 13.398438 L 20.035156 12.425781 "/>
<path style=" stroke:none;fill-rule:nonzero;fill:rgb(52.156863%,20.392157%,3.921569%);fill-opacity:1;" d="M 20.667969 13.546875 C 20.859375 13.953125 21.175781 14.042969 21.285156 14.441406 C 21.261719 14.097656 20.917969 13.964844 20.75 13.515625 M 19.941406 12.566406 L 21.65625 14.160156 L 20.0625 12.445312 "/>
<path style="fill-rule:nonzero;fill:rgb(96.470588%,70.588235%,5.490196%);fill-opacity:1;stroke-width:1.5;stroke-linecap:butt;stroke-linejoin:miter;stroke:rgb(52.156863%,20.392157%,3.921569%);stroke-opacity:1;stroke-miterlimit:4;" d="M 427.8125 250 C 427.8125 265.3125 415.3125 277.8125 400 277.8125 C 384.6875 277.8125 372.1875 265.3125 372.1875 250 C 372.1875 234.6875 384.6875 222.1875 400 222.1875 C 415.3125 222.1875 427.8125 234.6875 427.8125 250 Z M 427.8125 250 " transform="matrix(0.05,0,0,0.05,0,0)"/>
<path style=" stroke:none;fill-rule:nonzero;fill:rgb(51.764706%,20.784314%,6.666667%);fill-opacity:1;" d="M 20.472656 12.203125 C 20.378906 12.203125 20.289062 12.242188 20.234375 12.328125 C 20.339844 12.425781 20.578125 12.4375 20.738281 12.320312 C 20.667969 12.242188 20.566406 12.203125 20.472656 12.203125 Z M 20.472656 12.226562 C 20.5625 12.222656 20.652344 12.265625 20.664062 12.308594 C 20.554688 12.425781 20.386719 12.414062 20.277344 12.328125 C 20.324219 12.253906 20.398438 12.226562 20.472656 12.226562 Z M 20.472656 12.226562 "/>
<path style=" stroke:none;fill-rule:nonzero;fill:rgb(52.156863%,20.392157%,3.921569%);fill-opacity:1;" d="M 20.492188 12.136719 C 20.351562 12.136719 20.320312 12.167969 20.257812 12.222656 C 20.191406 12.277344 20.160156 12.265625 20.148438 12.277344 C 20.140625 12.285156 20.148438 12.320312 20.171875 12.308594 C 20.191406 12.296875 20.234375 12.277344 20.300781 12.222656 C 20.363281 12.167969 20.425781 12.167969 20.492188 12.167969 C 20.683594 12.167969 20.789062 12.328125 20.8125 12.320312 C 20.832031 12.308594 20.703125 12.136719 20.492188 12.136719 Z M 20.492188 12.136719 "/>
<path style=" stroke:none;fill-rule:nonzero;fill:rgb(52.156863%,20.392157%,3.921569%);fill-opacity:1;" d="M 20.875 12.199219 C 20.628906 11.988281 20.320312 11.957031 20.148438 12.117188 C 20.109375 12.171875 20.082031 12.230469 20.070312 12.292969 C 20.046875 12.414062 20.085938 12.546875 20.183594 12.683594 C 20.171875 12.683594 20.148438 12.691406 20.140625 12.703125 C 20.054688 12.539062 20.023438 12.375 20.050781 12.214844 C 20.058594 12.175781 20.070312 12.132812 20.085938 12.09375 C 20.320312 11.902344 20.640625 11.878906 20.875 12.199219 Z M 20.875 12.199219 "/>
<path style=" stroke:none;fill-rule:nonzero;fill:rgb(52.156863%,20.392157%,3.921569%);fill-opacity:1;" d="M 20.566406 12.308594 C 20.566406 12.359375 20.523438 12.402344 20.46875 12.402344 C 20.417969 12.402344 20.375 12.359375 20.375 12.308594 C 20.375 12.253906 20.417969 12.210938 20.46875 12.210938 C 20.523438 12.210938 20.566406 12.253906 20.566406 12.308594 Z M 20.566406 12.308594 "/>
<path style=" stroke:none;fill-rule:nonzero;fill:rgb(52.156863%,20.392157%,3.921569%);fill-opacity:1;" d="M 20.746094 12.371094 C 20.566406 12.511719 20.382812 12.5 20.277344 12.4375 C 20.171875 12.371094 20.171875 12.351562 20.191406 12.351562 C 20.214844 12.351562 20.234375 12.371094 20.320312 12.414062 C 20.40625 12.457031 20.535156 12.457031 20.746094 12.371094 Z M 20.746094 12.371094 "/>
<path style=" stroke:none;fill-rule:nonzero;fill:rgb(52.156863%,20.392157%,3.921569%);fill-opacity:1;" d="M 19.789062 12.691406 C 19.742188 12.699219 19.710938 12.742188 19.710938 12.789062 C 19.710938 12.839844 19.753906 12.882812 19.804688 12.882812 C 19.835938 12.882812 19.867188 12.867188 19.882812 12.84375 C 19.921875 12.871094 19.972656 12.871094 20 12.875 C 20.003906 12.875 20.007812 12.875 20.011719 12.875 C 20.039062 12.871094 20.089844 12.871094 20.128906 12.84375 C 20.144531 12.867188 20.175781 12.882812 20.207031 12.882812 C 20.257812 12.882812 20.304688 12.839844 20.304688 12.789062 C 20.304688 12.742188 20.269531 12.699219 20.226562 12.691406 C 20.25 12.699219 20.265625 12.726562 20.265625 12.753906 C 20.265625 12.789062 20.238281 12.816406 20.203125 12.816406 C 20.167969 12.816406 20.140625 12.789062 20.140625 12.757812 C 20.128906 12.777344 20.085938 12.839844 20.007812 12.84375 C 19.925781 12.839844 19.882812 12.777344 19.875 12.757812 C 19.871094 12.789062 19.84375 12.816406 19.808594 12.816406 C 19.773438 12.816406 19.746094 12.789062 19.746094 12.753906 C 19.746094 12.726562 19.761719 12.699219 19.789062 12.691406 Z M 19.789062 12.691406 "/>
<path style=" stroke:none;fill-rule:nonzero;fill:rgb(52.156863%,20.392157%,3.921569%);fill-opacity:1;" d="M 19.890625 12.976562 C 19.785156 12.976562 19.742188 13.074219 19.648438 13.136719 C 19.699219 13.117188 19.742188 13.074219 19.816406 13.03125 C 19.890625 12.988281 19.957031 13.039062 20 13.039062 C 20.042969 13.039062 20.105469 12.988281 20.179688 13.03125 C 20.257812 13.074219 20.300781 13.117188 20.351562 13.136719 C 20.257812 13.074219 20.214844 12.976562 20.105469 12.976562 C 20.085938 12.976562 20.042969 12.988281 20 13.007812 C 19.957031 12.988281 19.914062 12.976562 19.890625 12.976562 Z M 19.890625 12.976562 "/>
<path style=" stroke:none;fill-rule:nonzero;fill:rgb(52.156863%,20.392157%,3.921569%);fill-opacity:1;" d="M 19.855469 13.101562 C 19.8125 13.105469 19.757812 13.113281 19.679688 13.136719 C 19.871094 13.09375 19.914062 13.160156 20 13.160156 C 20.085938 13.160156 20.128906 13.09375 20.320312 13.136719 C 20.105469 13.074219 20.0625 13.117188 20 13.117188 C 19.957031 13.117188 19.925781 13.101562 19.855469 13.101562 Z M 19.855469 13.101562 "/>
<path style=" stroke:none;fill-rule:nonzero;fill:rgb(52.156863%,20.392157%,3.921569%);fill-opacity:1;" d="M 19.6875 13.136719 C 19.675781 13.136719 19.660156 13.136719 19.648438 13.136719 C 19.871094 13.160156 19.761719 13.289062 20 13.289062 C 20.234375 13.289062 20.128906 13.160156 20.351562 13.136719 C 20.117188 13.117188 20.191406 13.253906 20 13.253906 C 19.816406 13.253906 19.875 13.132812 19.6875 13.136719 Z M 19.6875 13.136719 "/>
<path style=" stroke:none;fill-rule:nonzero;fill:rgb(52.156863%,20.392157%,3.921569%);fill-opacity:1;" d="M 20.191406 13.484375 C 20.191406 13.375 20.105469 13.289062 20 13.289062 C 19.894531 13.289062 19.808594 13.375 19.808594 13.484375 C 19.828125 13.394531 19.910156 13.332031 20 13.332031 C 20.09375 13.332031 20.171875 13.394531 20.191406 13.484375 Z M 20.191406 13.484375 "/>
<path style=" stroke:none;fill-rule:nonzero;fill:rgb(52.156863%,20.392157%,3.921569%);fill-opacity:1;" d="M 19.136719 12.199219 C 19.382812 11.988281 19.691406 11.957031 19.863281 12.117188 C 19.90625 12.171875 19.933594 12.230469 19.941406 12.292969 C 19.964844 12.414062 19.925781 12.546875 19.832031 12.683594 C 19.839844 12.683594 19.863281 12.691406 19.875 12.703125 C 19.957031 12.539062 19.988281 12.375 19.960938 12.214844 C 19.953125 12.175781 19.941406 12.132812 19.925781 12.09375 C 19.691406 11.902344 19.371094 11.878906 19.136719 12.199219 Z M 19.136719 12.199219 "/>
<path style=" stroke:none;fill-rule:nonzero;fill:rgb(52.156863%,20.392157%,3.921569%);fill-opacity:1;" d="M 19.519531 12.136719 C 19.660156 12.136719 19.691406 12.167969 19.757812 12.222656 C 19.820312 12.277344 19.851562 12.265625 19.863281 12.277344 C 19.875 12.285156 19.863281 12.320312 19.839844 12.308594 C 19.820312 12.296875 19.777344 12.277344 19.714844 12.222656 C 19.648438 12.167969 19.585938 12.167969 19.519531 12.167969 C 19.328125 12.167969 19.222656 12.328125 19.199219 12.320312 C 19.179688 12.308594 19.308594 12.136719 19.519531 12.136719 Z M 19.519531 12.136719 "/>
<path style=" stroke:none;fill-rule:nonzero;fill:rgb(51.764706%,20.784314%,6.666667%);fill-opacity:1;" d="M 19.515625 12.203125 C 19.417969 12.203125 19.328125 12.242188 19.273438 12.328125 C 19.382812 12.425781 19.617188 12.4375 19.777344 12.320312 C 19.710938 12.242188 19.609375 12.203125 19.515625 12.203125 Z M 19.511719 12.226562 C 19.605469 12.222656 19.691406 12.265625 19.703125 12.308594 C 19.597656 12.425781 19.425781 12.414062 19.320312 12.328125 C 19.367188 12.253906 19.441406 12.226562 19.511719 12.226562 Z M 19.511719 12.226562 "/>
<path style=" stroke:none;fill-rule:nonzero;fill:rgb(52.156863%,20.392157%,3.921569%);fill-opacity:1;" d="M 19.625 12.308594 C 19.625 12.359375 19.582031 12.402344 19.527344 12.402344 C 19.472656 12.402344 19.429688 12.359375 19.429688 12.308594 C 19.429688 12.253906 19.472656 12.210938 19.527344 12.210938 C 19.582031 12.210938 19.625 12.253906 19.625 12.308594 Z M 19.625 12.308594 "/>
<path style=" stroke:none;fill-rule:nonzero;fill:rgb(52.156863%,20.392157%,3.921569%);fill-opacity:1;" d="M 19.265625 12.371094 C 19.445312 12.511719 19.628906 12.5 19.734375 12.4375 C 19.839844 12.371094 19.839844 12.351562 19.820312 12.351562 C 19.796875 12.351562 19.777344 12.371094 19.691406 12.414062 C 19.605469 12.457031 19.476562 12.457031 19.265625 12.371094 Z M 19.265625 12.371094 "/>
</g>
</svg>
