<?xml version="1.0" encoding="UTF-8"?>
<svg xmlns="http://www.w3.org/2000/svg" xmlns:xlink="http://www.w3.org/1999/xlink" width="50pt" height="25pt" viewBox="0 0 50 25" version="1.1">
<g id="surface1">
<rect x="0" y="0" width="50" height="25" style="fill:rgb(0%,0%,54.509804%);fill-opacity:1;stroke:none;"/>
<path style=" stroke:none;fill-rule:nonzero;fill:rgb(100%,100%,100%);fill-opacity:1;" d="M 12.5 15 L 13.222656 17.25 L 15.433594 16.410156 L 14.125 18.378906 L 16.15625 19.585938 L 13.804688 19.789062 L 14.128906 22.128906 L 12.5 20.417969 L 10.871094 22.128906 L 11.195312 19.789062 L 8.84375 19.585938 L 10.875 18.378906 L 9.566406 16.410156 L 11.777344 17.25 Z M 12.5 15 "/>
<path style=" stroke:none;fill-rule:nonzero;fill:rgb(100%,100%,100%);fill-opacity:1;" d="M 37.5 19.046875 L 37.84375 20.117188 L 38.894531 19.71875 L 38.273438 20.65625 L 39.242188 21.230469 L 38.121094 21.328125 L 38.273438 22.441406 L 37.5 21.628906 L 36.726562 22.441406 L 36.878906 21.328125 L 35.757812 21.230469 L 36.726562 20.65625 L 36.105469 19.71875 L 37.15625 20.117188 Z M 37.5 19.046875 "/>
<path style=" stroke:none;fill-rule:nonzero;fill:rgb(100%,100%,100%);fill-opacity:1;" d="M 31.25 9.152344 L 31.59375 10.222656 L 32.644531 9.824219 L 32.023438 10.761719 L 32.992188 11.335938 L 31.871094 11.433594 L 32.023438 12.546875 L 31.25 11.730469 L 30.476562 12.546875 L 30.628906 11.433594 L 29.507812 11.335938 L 30.476562 10.761719 L 29.855469 9.824219 L 30.90625 10.222656 Z M 31.25 9.152344 "/>
<path style=" stroke:none;fill-rule:nonzero;fill:rgb(100%,100%,100%);fill-opacity:1;" d="M 37.5 2.382812 L 37.84375 3.453125 L 38.894531 3.054688 L 38.273438 3.988281 L 39.242188 4.5625 L 38.121094 4.660156 L 38.273438 5.777344 L 37.5 4.960938 L 36.726562 5.777344 L 36.878906 4.660156 L 35.757812 4.5625 L 36.726562 3.988281 L 36.105469 3.054688 L 37.15625 3.453125 Z M 37.5 2.382812 "/>
<path style=" stroke:none;fill-rule:nonzero;fill:rgb(100%,100%,100%);fill-opacity:1;" d="M 43.054688 7.484375 L 43.398438 8.554688 L 44.453125 8.15625 L 43.828125 9.09375 L 44.796875 9.667969 L 43.675781 9.765625 L 43.832031 10.878906 L 43.054688 10.066406 L 42.28125 10.878906 L 42.433594 9.765625 L 41.316406 9.667969 L 42.28125 9.09375 L 41.660156 8.15625 L 42.710938 8.554688 Z M 43.054688 7.484375 "/>
<path style=" stroke:none;fill-rule:nonzero;fill:rgb(100%,100%,100%);fill-opacity:1;" d="M 40 12.5 L 40.273438 13.167969 L 40.992188 13.21875 L 40.441406 13.683594 L 40.613281 14.382812 L 40 14.003906 L 39.386719 14.382812 L 39.558594 13.683594 L 39.007812 13.21875 L 39.726562 13.167969 Z M 40 12.5 "/>
<path style=" stroke:none;fill-rule:nonzero;fill:rgb(100%,100%,100%);fill-opacity:1;" d="M 10.417969 0 L 14.582031 0 L 14.582031 4.167969 L 25 4.167969 L 25 8.332031 L 14.582031 8.332031 L 14.582031 12.5 L 10.417969 12.5 L 10.417969 8.332031 L 0 8.332031 L 0 4.167969 L 10.417969 4.167969 Z M 10.417969 0 "/>
<path style=" stroke:none;fill-rule:nonzero;fill:rgb(100%,100%,100%);fill-opacity:1;" d="M 0 0 L 2.796875 0 L 25 11.101562 L 25 12.5 L 22.203125 12.5 L 0 1.398438 Z M 0 0 "/>
<path style=" stroke:none;fill-rule:nonzero;fill:rgb(100%,100%,100%);fill-opacity:1;" d="M 25 0 L 22.203125 0 L 0 11.101562 L 0 12.5 L 2.796875 12.5 L 25 1.398438 Z M 25 0 "/>
<path style=" stroke:none;fill-rule:nonzero;fill:rgb(100%,0%,0%);fill-opacity:1;" d="M 11.25 0 L 13.75 0 L 13.75 5 L 25 5 L 25 7.5 L 13.75 7.5 L 13.75 12.5 L 11.25 12.5 L 11.25 7.5 L 0 7.5 L 0 5 L 11.25 5 Z M 11.25 0 "/>
<path style=" stroke:none;fill-rule:nonzero;fill:rgb(100%,0%,0%);fill-opacity:1;" d="M 0 0 L 8.332031 4.167969 L 6.46875 4.167969 L 0 0.933594 Z M 25 0 L 23.136719 0 L 14.804688 4.167969 L 16.667969 4.167969 Z M 25 0 "/>
<path style=" stroke:none;fill-rule:nonzero;fill:rgb(100%,0%,0%);fill-opacity:1;" d="M 25 12.5 L 16.667969 8.332031 L 18.53125 8.332031 L 25 11.566406 Z M 0 12.5 L 1.863281 12.5 L 10.195312 8.332031 L 8.332031 8.332031 Z M 0 12.5 "/>
</g>
</svg>
