<?xml version="1.0" encoding="UTF-8"?>
<svg xmlns="http://www.w3.org/2000/svg" xmlns:xlink="http://www.w3.org/1999/xlink" width="50pt" height="25pt" viewBox="0 0 50 25" version="1.1">
<g id="surface1">
<rect x="0" y="0" width="50" height="25" style="fill:rgb(0%,59.607843%,76.470588%);fill-opacity:1;stroke:none;"/>
<path style=" stroke:none;fill-rule:nonzero;fill:rgb(87.843137%,0%,20.392157%);fill-opacity:1;" d="M 0 8.332031 L 50 8.332031 L 50 16.667969 L 0 16.667969 Z M 0 8.332031 "/>
<path style=" stroke:none;fill-rule:nonzero;fill:rgb(0%,68.235294%,39.607843%);fill-opacity:1;" d="M 0 16.667969 L 50 16.667969 L 50 25 L 0 25 Z M 0 16.667969 "/>
<path style=" stroke:none;fill-rule:nonzero;fill:rgb(100%,100%,100%);fill-opacity:1;" d="M 27.957031 12.5 C 27.957031 14.570312 26.28125 16.25 24.207031 16.25 C 22.136719 16.25 20.457031 14.570312 20.457031 12.5 C 20.457031 10.429688 22.136719 8.75 24.207031 8.75 C 26.28125 8.75 27.957031 10.429688 27.957031 12.5 Z M 27.957031 12.5 "/>
<path style=" stroke:none;fill-rule:nonzero;fill:rgb(87.843137%,0%,20.392157%);fill-opacity:1;" d="M 28.125 12.5 C 28.125 14.226562 26.726562 15.625 25 15.625 C 23.273438 15.625 21.875 14.226562 21.875 12.5 C 21.875 10.773438 23.273438 9.375 25 9.375 C 26.726562 9.375 28.125 10.773438 28.125 12.5 Z M 28.125 12.5 "/>
<path style=" stroke:none;fill-rule:nonzero;fill:rgb(100%,100%,100%);fill-opacity:1;" d="M 29.847656 13.972656 L 28.773438 13.460938 L 28.375 14.582031 L 27.976562 13.460938 L 26.902344 13.972656 L 27.414062 12.898438 L 26.292969 12.5 L 27.414062 12.101562 L 26.902344 11.027344 L 27.976562 11.539062 L 28.375 10.417969 L 28.773438 11.539062 L 29.847656 11.027344 L 29.335938 12.101562 L 30.457031 12.5 L 29.335938 12.898438 Z M 29.847656 13.972656 "/>
</g>
</svg>
