<?xml version="1.0" encoding="UTF-8"?>
<svg xmlns="http://www.w3.org/2000/svg" xmlns:xlink="http://www.w3.org/1999/xlink" width="38pt" height="25pt" viewBox="0 0 38 25" version="1.1">
<g id="surface1">
<rect x="0" y="0" width="38" height="25" style="fill:rgb(0%,14.901961%,49.803922%);fill-opacity:1;stroke:none;"/>
<path style=" stroke:none;fill-rule:nonzero;fill:rgb(100%,78.039216%,14.901961%);fill-opacity:1;" d="M 12.667969 0 L 25.332031 0 L 25.332031 25 L 12.667969 25 Z M 12.667969 0 "/>
<path style=" stroke:none;fill-rule:nonzero;fill:rgb(0%,0%,0%);fill-opacity:1;" d="M 19 6.445312 C 18.589844 7.550781 18.167969 8.703125 17.269531 9.585938 C 17.550781 9.496094 18.039062 9.414062 18.351562 9.421875 L 18.351562 14.082031 L 17.019531 14.277344 C 16.96875 14.273438 16.953125 14.199219 16.953125 14.101562 C 16.824219 12.652344 16.480469 11.4375 16.082031 10.179688 C 16.050781 10.007812 15.546875 9.351562 15.9375 9.46875 C 15.984375 9.472656 16.503906 9.683594 16.421875 9.582031 C 15.714844 8.859375 14.675781 8.335938 13.667969 8.179688 C 13.582031 8.160156 13.527344 8.203125 13.605469 8.304688 C 14.945312 10.335938 16.0625 12.730469 16.050781 15.570312 C 16.570312 15.570312 17.828125 15.269531 18.351562 15.269531 C 18.351562 15.269531 18.351562 18.554688 18.351562 18.554688 L 19.007812 18.554688 L 19.160156 9.375 Z M 19 6.445312 "/>
<path style=" stroke:none;fill-rule:nonzero;fill:rgb(0%,0%,0%);fill-opacity:1;" d="M 19 6.445312 C 19.410156 7.550781 19.832031 8.703125 20.730469 9.585938 C 20.449219 9.496094 19.960938 9.414062 19.648438 9.421875 L 19.648438 14.082031 L 20.980469 14.277344 C 21.03125 14.273438 21.046875 14.199219 21.046875 14.101562 C 21.175781 12.652344 21.519531 11.4375 21.917969 10.179688 C 21.949219 10.007812 22.453125 9.351562 22.0625 9.46875 C 22.015625 9.472656 21.496094 9.683594 21.578125 9.582031 C 22.285156 8.859375 23.324219 8.335938 24.332031 8.179688 C 24.417969 8.160156 24.472656 8.203125 24.394531 8.304688 C 23.054688 10.335938 21.9375 12.730469 21.949219 15.570312 C 21.429688 15.570312 20.171875 15.269531 19.648438 15.269531 C 19.648438 15.269531 19.648438 18.554688 19.648438 18.554688 L 18.992188 18.554688 L 18.839844 9.375 Z M 19 6.445312 "/>
</g>
</svg>
