<?xml version="1.0" encoding="UTF-8"?>
<svg xmlns="http://www.w3.org/2000/svg" xmlns:xlink="http://www.w3.org/1999/xlink" width="50pt" height="25pt" viewBox="0 0 50 25" version="1.1">
<g id="surface1">
<rect x="0" y="0" width="50" height="25" style="fill:rgb(78.431373%,19.215686%,24.313725%);fill-opacity:1;stroke:none;"/>
<path style=" stroke:none;fill-rule:nonzero;fill:rgb(29.019608%,65.098039%,34.117647%);fill-opacity:1;" d="M 0 16.667969 L 50 16.667969 L 50 25 L 0 25 Z M 0 16.667969 "/>
<path style=" stroke:none;fill-rule:nonzero;fill:rgb(100%,100%,100%);fill-opacity:1;" d="M 0 0 L 5.554688 0 L 5.554688 25 L 0 25 Z M 0 0 "/>
<path style=" stroke:none;fill-rule:evenodd;fill:rgb(78.431373%,19.215686%,24.313725%);fill-opacity:1;" d="M 0.964844 0 L 1.691406 0 L 1.691406 0.410156 L 1.933594 0.410156 L 1.933594 0.820312 L 2.175781 0.820312 L 2.175781 1.230469 L 2.414062 1.230469 L 2.414062 1.640625 L 2.65625 1.640625 L 2.65625 2.050781 L 2.414062 2.050781 L 2.414062 2.460938 L 2.175781 2.460938 L 2.175781 2.867188 L 1.933594 2.867188 L 1.933594 3.277344 L 1.691406 3.277344 L 1.691406 3.6875 L 1.449219 3.6875 L 1.449219 4.097656 L 1.207031 4.097656 L 1.207031 3.6875 L 0.964844 3.6875 L 0.964844 3.277344 L 0.726562 3.277344 L 0.726562 2.867188 L 0.484375 2.867188 L 0.484375 2.460938 L 0.242188 2.460938 L 0.242188 2.050781 L 0 2.050781 L 0 1.640625 L 0.242188 1.640625 L 0.242188 1.230469 L 0.484375 1.230469 L 0.484375 0.820312 L 0.726562 0.820312 L 0.726562 0.410156 L 0.964844 0.410156 Z M 1.207031 0.820312 L 1.449219 0.820312 L 1.449219 1.230469 L 1.691406 1.230469 L 1.691406 1.640625 L 1.933594 1.640625 L 1.933594 2.050781 L 1.691406 2.050781 L 1.691406 2.460938 L 1.449219 2.460938 L 1.449219 2.867188 L 1.207031 2.867188 L 1.207031 2.460938 L 0.964844 2.460938 L 0.964844 2.050781 L 0.726562 2.050781 L 0.726562 1.640625 L 0.964844 1.640625 L 0.964844 1.230469 L 1.207031 1.230469 Z M 1.207031 1.640625 L 1.449219 1.640625 L 1.449219 2.050781 L 1.207031 2.050781 Z M 0 0.410156 L 0.242188 0.410156 L 0.242188 0.820312 L 0 0.820312 Z M 0 2.867188 L 0.242188 2.867188 L 0.242188 3.277344 L 0 3.277344 Z M 2.65625 0 L 2.800781 0 L 2.800781 0.820312 L 2.65625 0.820312 Z M 2.65625 2.867188 L 2.800781 2.867188 L 2.800781 3.6875 L 2.65625 3.6875 Z M 0.484375 3.6875 L 0.726562 3.6875 L 0.726562 4.097656 L 0.964844 4.097656 L 0.964844 4.507812 L 1.207031 4.507812 L 1.207031 4.917969 L 0.964844 4.917969 L 0.964844 5.328125 L 0.726562 5.328125 L 0.726562 5.738281 L 0.484375 5.738281 L 0.484375 5.328125 L 0.242188 5.328125 L 0.242188 4.917969 L 0 4.917969 L 0 4.507812 L 0.242188 4.507812 L 0.242188 4.097656 L 0.484375 4.097656 Z M 0.484375 4.507812 L 0.726562 4.507812 L 0.726562 4.917969 L 0.484375 4.917969 Z M 1.933594 3.6875 L 2.175781 3.6875 L 2.175781 4.097656 L 2.414062 4.097656 L 2.414062 4.507812 L 2.65625 4.507812 L 2.65625 4.917969 L 2.414062 4.917969 L 2.414062 5.328125 L 2.175781 5.328125 L 2.175781 5.738281 L 1.933594 5.738281 L 1.933594 5.328125 L 1.691406 5.328125 L 1.691406 4.917969 L 1.449219 4.917969 L 1.449219 4.507812 L 1.691406 4.507812 L 1.691406 4.097656 L 1.933594 4.097656 Z M 1.933594 4.507812 L 2.175781 4.507812 L 2.175781 4.917969 L 1.933594 4.917969 Z M 0 6.148438 L 0.242188 6.148438 L 0.242188 6.558594 L 0 6.558594 Z M 2.65625 5.738281 L 2.800781 5.738281 L 2.800781 6.558594 L 2.65625 6.558594 Z M 2.65625 5.738281 "/>
<path style=" stroke:none;fill-rule:evenodd;fill:rgb(78.431373%,19.215686%,24.313725%);fill-opacity:1;" d="M 0 7.378906 L 0.242188 7.378906 L 0.242188 6.96875 L 0.484375 6.96875 L 0.484375 6.558594 L 0.726562 6.558594 L 0.726562 6.148438 L 0.964844 6.148438 L 0.964844 5.738281 L 1.207031 5.738281 L 1.207031 5.328125 L 1.449219 5.328125 L 1.449219 5.738281 L 1.691406 5.738281 L 1.691406 6.148438 L 1.933594 6.148438 L 1.933594 6.558594 L 2.175781 6.558594 L 2.175781 6.96875 L 2.414062 6.96875 L 2.414062 7.378906 L 2.65625 7.378906 L 2.65625 7.785156 L 2.800781 7.785156 L 2.800781 9.425781 L 2.65625 9.425781 L 2.65625 9.835938 L 2.414062 9.835938 L 2.414062 10.246094 L 2.175781 10.246094 L 2.175781 10.65625 L 1.933594 10.65625 L 1.933594 11.066406 L 1.691406 11.066406 L 1.691406 11.476562 L 1.449219 11.476562 L 1.449219 12.539062 L 0.964844 12.539062 L 0.964844 12.296875 L 0.726562 12.296875 L 0.726562 11.886719 L 0.484375 11.886719 L 0.484375 11.476562 L 0.242188 11.476562 L 0.242188 11.066406 L 0 11.066406 L 0 9.835938 L 0.242188 9.835938 L 0.242188 10.246094 L 0.484375 10.246094 L 0.484375 10.65625 L 0.726562 10.65625 L 0.726562 11.066406 L 0.964844 11.066406 L 0.964844 10.65625 L 1.207031 10.65625 L 1.207031 10.246094 L 1.449219 10.246094 L 1.449219 9.835938 L 1.691406 9.835938 L 1.691406 9.425781 L 1.933594 9.425781 L 1.933594 9.015625 L 2.175781 9.015625 L 2.175781 8.605469 L 1.933594 8.605469 L 1.933594 8.195312 L 1.691406 8.195312 L 1.691406 7.785156 L 0.964844 7.785156 L 0.964844 8.195312 L 1.449219 8.195312 L 1.449219 8.605469 L 1.207031 8.605469 L 1.207031 9.015625 L 0.964844 9.015625 L 0.964844 9.425781 L 0.726562 9.425781 L 0.726562 9.015625 L 0.484375 9.015625 L 0.484375 8.605469 L 0.242188 8.605469 L 0.242188 8.195312 L 0 8.195312 Z M 0 9.015625 L 0.242188 9.015625 L 0.242188 9.425781 L 0 9.425781 Z M 2.65625 10.246094 L 2.800781 10.246094 L 2.800781 10.65625 L 2.65625 10.65625 Z M 2.175781 11.066406 L 2.414062 11.066406 L 2.414062 11.476562 L 2.65625 11.476562 L 2.65625 11.886719 L 2.800781 11.886719 L 2.800781 12.539062 L 2.65625 12.539062 L 2.65625 12.296875 L 2.414062 12.296875 L 2.414062 11.886719 L 2.175781 11.886719 Z M 1.691406 12.296875 L 1.933594 12.296875 L 1.933594 12.539062 L 1.691406 12.539062 Z M 1.691406 12.296875 "/>
<path style=" stroke:none;fill-rule:evenodd;fill:rgb(78.431373%,19.215686%,24.313725%);fill-opacity:1;" d="M 4.589844 0 L 3.863281 0 L 3.863281 0.410156 L 3.625 0.410156 L 3.625 0.820312 L 3.382812 0.820312 L 3.382812 1.230469 L 3.140625 1.230469 L 3.140625 1.640625 L 2.898438 1.640625 L 2.898438 2.050781 L 3.140625 2.050781 L 3.140625 2.460938 L 3.382812 2.460938 L 3.382812 2.867188 L 3.625 2.867188 L 3.625 3.277344 L 3.863281 3.277344 L 3.863281 3.6875 L 4.105469 3.6875 L 4.105469 4.097656 L 4.347656 4.097656 L 4.347656 3.6875 L 4.589844 3.6875 L 4.589844 3.277344 L 4.832031 3.277344 L 4.832031 2.867188 L 5.074219 2.867188 L 5.074219 2.460938 L 5.3125 2.460938 L 5.3125 2.050781 L 5.554688 2.050781 L 5.554688 1.640625 L 5.3125 1.640625 L 5.3125 1.230469 L 5.074219 1.230469 L 5.074219 0.820312 L 4.832031 0.820312 L 4.832031 0.410156 L 4.589844 0.410156 Z M 4.347656 0.820312 L 4.105469 0.820312 L 4.105469 1.230469 L 3.863281 1.230469 L 3.863281 1.640625 L 3.625 1.640625 L 3.625 2.050781 L 3.863281 2.050781 L 3.863281 2.460938 L 4.105469 2.460938 L 4.105469 2.867188 L 4.347656 2.867188 L 4.347656 2.460938 L 4.589844 2.460938 L 4.589844 2.050781 L 4.832031 2.050781 L 4.832031 1.640625 L 4.589844 1.640625 L 4.589844 1.230469 L 4.347656 1.230469 Z M 4.347656 1.640625 L 4.105469 1.640625 L 4.105469 2.050781 L 4.347656 2.050781 Z M 5.554688 0.410156 L 5.3125 0.410156 L 5.3125 0.820312 L 5.554688 0.820312 Z M 5.554688 2.867188 L 5.3125 2.867188 L 5.3125 3.277344 L 5.554688 3.277344 Z M 2.898438 0 L 2.753906 0 L 2.753906 0.820312 L 2.898438 0.820312 Z M 2.898438 2.867188 L 2.753906 2.867188 L 2.753906 3.6875 L 2.898438 3.6875 Z M 5.074219 3.6875 L 4.832031 3.6875 L 4.832031 4.097656 L 4.589844 4.097656 L 4.589844 4.507812 L 4.347656 4.507812 L 4.347656 4.917969 L 4.589844 4.917969 L 4.589844 5.328125 L 4.832031 5.328125 L 4.832031 5.738281 L 5.074219 5.738281 L 5.074219 5.328125 L 5.3125 5.328125 L 5.3125 4.917969 L 5.554688 4.917969 L 5.554688 4.507812 L 5.3125 4.507812 L 5.3125 4.097656 L 5.074219 4.097656 Z M 5.074219 4.507812 L 4.832031 4.507812 L 4.832031 4.917969 L 5.074219 4.917969 Z M 3.625 3.6875 L 3.382812 3.6875 L 3.382812 4.097656 L 3.140625 4.097656 L 3.140625 4.507812 L 2.898438 4.507812 L 2.898438 4.917969 L 3.140625 4.917969 L 3.140625 5.328125 L 3.382812 5.328125 L 3.382812 5.738281 L 3.625 5.738281 L 3.625 5.328125 L 3.863281 5.328125 L 3.863281 4.917969 L 4.105469 4.917969 L 4.105469 4.507812 L 3.863281 4.507812 L 3.863281 4.097656 L 3.625 4.097656 Z M 3.625 4.507812 L 3.382812 4.507812 L 3.382812 4.917969 L 3.625 4.917969 Z M 5.554688 6.148438 L 5.3125 6.148438 L 5.3125 6.558594 L 5.554688 6.558594 Z M 2.898438 5.738281 L 2.753906 5.738281 L 2.753906 6.558594 L 2.898438 6.558594 Z M 2.898438 5.738281 "/>
<path style=" stroke:none;fill-rule:evenodd;fill:rgb(78.431373%,19.215686%,24.313725%);fill-opacity:1;" d="M 5.554688 7.378906 L 5.3125 7.378906 L 5.3125 6.96875 L 5.074219 6.96875 L 5.074219 6.558594 L 4.832031 6.558594 L 4.832031 6.148438 L 4.589844 6.148438 L 4.589844 5.738281 L 4.347656 5.738281 L 4.347656 5.328125 L 4.105469 5.328125 L 4.105469 5.738281 L 3.863281 5.738281 L 3.863281 6.148438 L 3.625 6.148438 L 3.625 6.558594 L 3.382812 6.558594 L 3.382812 6.96875 L 3.140625 6.96875 L 3.140625 7.378906 L 2.898438 7.378906 L 2.898438 7.785156 L 2.753906 7.785156 L 2.753906 9.425781 L 2.898438 9.425781 L 2.898438 9.835938 L 3.140625 9.835938 L 3.140625 10.246094 L 3.382812 10.246094 L 3.382812 10.65625 L 3.625 10.65625 L 3.625 11.066406 L 3.863281 11.066406 L 3.863281 11.476562 L 4.105469 11.476562 L 4.105469 12.539062 L 4.589844 12.539062 L 4.589844 12.296875 L 4.832031 12.296875 L 4.832031 11.886719 L 5.074219 11.886719 L 5.074219 11.476562 L 5.3125 11.476562 L 5.3125 11.066406 L 5.554688 11.066406 L 5.554688 9.835938 L 5.3125 9.835938 L 5.3125 10.246094 L 5.074219 10.246094 L 5.074219 10.65625 L 4.832031 10.65625 L 4.832031 11.066406 L 4.589844 11.066406 L 4.589844 10.65625 L 4.347656 10.65625 L 4.347656 10.246094 L 4.105469 10.246094 L 4.105469 9.835938 L 3.863281 9.835938 L 3.863281 9.425781 L 3.625 9.425781 L 3.625 9.015625 L 3.382812 9.015625 L 3.382812 8.605469 L 3.625 8.605469 L 3.625 8.195312 L 3.863281 8.195312 L 3.863281 7.785156 L 4.589844 7.785156 L 4.589844 8.195312 L 4.105469 8.195312 L 4.105469 8.605469 L 4.347656 8.605469 L 4.347656 9.015625 L 4.589844 9.015625 L 4.589844 9.425781 L 4.832031 9.425781 L 4.832031 9.015625 L 5.074219 9.015625 L 5.074219 8.605469 L 5.3125 8.605469 L 5.3125 8.195312 L 5.554688 8.195312 Z M 5.554688 9.015625 L 5.3125 9.015625 L 5.3125 9.425781 L 5.554688 9.425781 Z M 2.898438 10.246094 L 2.753906 10.246094 L 2.753906 10.65625 L 2.898438 10.65625 Z M 3.382812 11.066406 L 3.140625 11.066406 L 3.140625 11.476562 L 2.898438 11.476562 L 2.898438 11.886719 L 2.753906 11.886719 L 2.753906 12.539062 L 2.898438 12.539062 L 2.898438 12.296875 L 3.140625 12.296875 L 3.140625 11.886719 L 3.382812 11.886719 Z M 3.863281 12.296875 L 3.625 12.296875 L 3.625 12.539062 L 3.863281 12.539062 Z M 3.863281 12.296875 "/>
<path style=" stroke:none;fill-rule:evenodd;fill:rgb(78.431373%,19.215686%,24.313725%);fill-opacity:1;" d="M 0.964844 25 L 1.691406 25 L 1.691406 24.589844 L 1.933594 24.589844 L 1.933594 24.179688 L 2.175781 24.179688 L 2.175781 23.769531 L 2.414062 23.769531 L 2.414062 23.359375 L 2.65625 23.359375 L 2.65625 22.949219 L 2.414062 22.949219 L 2.414062 22.539062 L 2.175781 22.539062 L 2.175781 22.132812 L 1.933594 22.132812 L 1.933594 21.722656 L 1.691406 21.722656 L 1.691406 21.3125 L 1.449219 21.3125 L 1.449219 20.902344 L 1.207031 20.902344 L 1.207031 21.3125 L 0.964844 21.3125 L 0.964844 21.722656 L 0.726562 21.722656 L 0.726562 22.132812 L 0.484375 22.132812 L 0.484375 22.539062 L 0.242188 22.539062 L 0.242188 22.949219 L 0 22.949219 L 0 23.359375 L 0.242188 23.359375 L 0.242188 23.769531 L 0.484375 23.769531 L 0.484375 24.179688 L 0.726562 24.179688 L 0.726562 24.589844 L 0.964844 24.589844 Z M 1.207031 24.179688 L 1.449219 24.179688 L 1.449219 23.769531 L 1.691406 23.769531 L 1.691406 23.359375 L 1.933594 23.359375 L 1.933594 22.949219 L 1.691406 22.949219 L 1.691406 22.539062 L 1.449219 22.539062 L 1.449219 22.132812 L 1.207031 22.132812 L 1.207031 22.539062 L 0.964844 22.539062 L 0.964844 22.949219 L 0.726562 22.949219 L 0.726562 23.359375 L 0.964844 23.359375 L 0.964844 23.769531 L 1.207031 23.769531 Z M 1.207031 23.359375 L 1.449219 23.359375 L 1.449219 22.949219 L 1.207031 22.949219 Z M 0 24.589844 L 0.242188 24.589844 L 0.242188 24.179688 L 0 24.179688 Z M 0 22.132812 L 0.242188 22.132812 L 0.242188 21.722656 L 0 21.722656 Z M 2.65625 25 L 2.800781 25 L 2.800781 24.179688 L 2.65625 24.179688 Z M 2.65625 22.132812 L 2.800781 22.132812 L 2.800781 21.3125 L 2.65625 21.3125 Z M 0.484375 21.3125 L 0.726562 21.3125 L 0.726562 20.902344 L 0.964844 20.902344 L 0.964844 20.492188 L 1.207031 20.492188 L 1.207031 20.082031 L 0.964844 20.082031 L 0.964844 19.671875 L 0.726562 19.671875 L 0.726562 19.261719 L 0.484375 19.261719 L 0.484375 19.671875 L 0.242188 19.671875 L 0.242188 20.082031 L 0 20.082031 L 0 20.492188 L 0.242188 20.492188 L 0.242188 20.902344 L 0.484375 20.902344 Z M 0.484375 20.492188 L 0.726562 20.492188 L 0.726562 20.082031 L 0.484375 20.082031 Z M 1.933594 21.3125 L 2.175781 21.3125 L 2.175781 20.902344 L 2.414062 20.902344 L 2.414062 20.492188 L 2.65625 20.492188 L 2.65625 20.082031 L 2.414062 20.082031 L 2.414062 19.671875 L 2.175781 19.671875 L 2.175781 19.261719 L 1.933594 19.261719 L 1.933594 19.671875 L 1.691406 19.671875 L 1.691406 20.082031 L 1.449219 20.082031 L 1.449219 20.492188 L 1.691406 20.492188 L 1.691406 20.902344 L 1.933594 20.902344 Z M 1.933594 20.492188 L 2.175781 20.492188 L 2.175781 20.082031 L 1.933594 20.082031 Z M 0 18.851562 L 0.242188 18.851562 L 0.242188 18.441406 L 0 18.441406 Z M 2.65625 19.261719 L 2.800781 19.261719 L 2.800781 18.441406 L 2.65625 18.441406 Z M 2.65625 19.261719 "/>
<path style=" stroke:none;fill-rule:evenodd;fill:rgb(78.431373%,19.215686%,24.313725%);fill-opacity:1;" d="M 0 17.621094 L 0.242188 17.621094 L 0.242188 18.03125 L 0.484375 18.03125 L 0.484375 18.441406 L 0.726562 18.441406 L 0.726562 18.851562 L 0.964844 18.851562 L 0.964844 19.261719 L 1.207031 19.261719 L 1.207031 19.671875 L 1.449219 19.671875 L 1.449219 19.261719 L 1.691406 19.261719 L 1.691406 18.851562 L 1.933594 18.851562 L 1.933594 18.441406 L 2.175781 18.441406 L 2.175781 18.03125 L 2.414062 18.03125 L 2.414062 17.621094 L 2.65625 17.621094 L 2.65625 17.214844 L 2.800781 17.214844 L 2.800781 15.574219 L 2.65625 15.574219 L 2.65625 15.164062 L 2.414062 15.164062 L 2.414062 14.753906 L 2.175781 14.753906 L 2.175781 14.34375 L 1.933594 14.34375 L 1.933594 13.933594 L 1.691406 13.933594 L 1.691406 13.523438 L 1.449219 13.523438 L 1.449219 12.460938 L 0.964844 12.460938 L 0.964844 12.703125 L 0.726562 12.703125 L 0.726562 13.113281 L 0.484375 13.113281 L 0.484375 13.523438 L 0.242188 13.523438 L 0.242188 13.933594 L 0 13.933594 L 0 15.164062 L 0.242188 15.164062 L 0.242188 14.753906 L 0.484375 14.753906 L 0.484375 14.34375 L 0.726562 14.34375 L 0.726562 13.933594 L 0.964844 13.933594 L 0.964844 14.34375 L 1.207031 14.34375 L 1.207031 14.753906 L 1.449219 14.753906 L 1.449219 15.164062 L 1.691406 15.164062 L 1.691406 15.574219 L 1.933594 15.574219 L 1.933594 15.984375 L 2.175781 15.984375 L 2.175781 16.394531 L 1.933594 16.394531 L 1.933594 16.804688 L 1.691406 16.804688 L 1.691406 17.214844 L 0.964844 17.214844 L 0.964844 16.804688 L 1.449219 16.804688 L 1.449219 16.394531 L 1.207031 16.394531 L 1.207031 15.984375 L 0.964844 15.984375 L 0.964844 15.574219 L 0.726562 15.574219 L 0.726562 15.984375 L 0.484375 15.984375 L 0.484375 16.394531 L 0.242188 16.394531 L 0.242188 16.804688 L 0 16.804688 Z M 0 15.984375 L 0.242188 15.984375 L 0.242188 15.574219 L 0 15.574219 Z M 2.65625 14.753906 L 2.800781 14.753906 L 2.800781 14.34375 L 2.65625 14.34375 Z M 2.175781 13.933594 L 2.414062 13.933594 L 2.414062 13.523438 L 2.65625 13.523438 L 2.65625 13.113281 L 2.800781 13.113281 L 2.800781 12.460938 L 2.65625 12.460938 L 2.65625 12.703125 L 2.414062 12.703125 L 2.414062 13.113281 L 2.175781 13.113281 Z M 1.691406 12.703125 L 1.933594 12.703125 L 1.933594 12.460938 L 1.691406 12.460938 Z M 1.691406 12.703125 "/>
<path style=" stroke:none;fill-rule:evenodd;fill:rgb(78.431373%,19.215686%,24.313725%);fill-opacity:1;" d="M 4.589844 25 L 3.863281 25 L 3.863281 24.589844 L 3.625 24.589844 L 3.625 24.179688 L 3.382812 24.179688 L 3.382812 23.769531 L 3.140625 23.769531 L 3.140625 23.359375 L 2.898438 23.359375 L 2.898438 22.949219 L 3.140625 22.949219 L 3.140625 22.539062 L 3.382812 22.539062 L 3.382812 22.132812 L 3.625 22.132812 L 3.625 21.722656 L 3.863281 21.722656 L 3.863281 21.3125 L 4.105469 21.3125 L 4.105469 20.902344 L 4.347656 20.902344 L 4.347656 21.3125 L 4.589844 21.3125 L 4.589844 21.722656 L 4.832031 21.722656 L 4.832031 22.132812 L 5.074219 22.132812 L 5.074219 22.539062 L 5.3125 22.539062 L 5.3125 22.949219 L 5.554688 22.949219 L 5.554688 23.359375 L 5.3125 23.359375 L 5.3125 23.769531 L 5.074219 23.769531 L 5.074219 24.179688 L 4.832031 24.179688 L 4.832031 24.589844 L 4.589844 24.589844 Z M 4.347656 24.179688 L 4.105469 24.179688 L 4.105469 23.769531 L 3.863281 23.769531 L 3.863281 23.359375 L 3.625 23.359375 L 3.625 22.949219 L 3.863281 22.949219 L 3.863281 22.539062 L 4.105469 22.539062 L 4.105469 22.132812 L 4.347656 22.132812 L 4.347656 22.539062 L 4.589844 22.539062 L 4.589844 22.949219 L 4.832031 22.949219 L 4.832031 23.359375 L 4.589844 23.359375 L 4.589844 23.769531 L 4.347656 23.769531 Z M 4.347656 23.359375 L 4.105469 23.359375 L 4.105469 22.949219 L 4.347656 22.949219 Z M 5.554688 24.589844 L 5.3125 24.589844 L 5.3125 24.179688 L 5.554688 24.179688 Z M 5.554688 22.132812 L 5.3125 22.132812 L 5.3125 21.722656 L 5.554688 21.722656 Z M 2.898438 25 L 2.753906 25 L 2.753906 24.179688 L 2.898438 24.179688 Z M 2.898438 22.132812 L 2.753906 22.132812 L 2.753906 21.3125 L 2.898438 21.3125 Z M 5.074219 21.3125 L 4.832031 21.3125 L 4.832031 20.902344 L 4.589844 20.902344 L 4.589844 20.492188 L 4.347656 20.492188 L 4.347656 20.082031 L 4.589844 20.082031 L 4.589844 19.671875 L 4.832031 19.671875 L 4.832031 19.261719 L 5.074219 19.261719 L 5.074219 19.671875 L 5.3125 19.671875 L 5.3125 20.082031 L 5.554688 20.082031 L 5.554688 20.492188 L 5.3125 20.492188 L 5.3125 20.902344 L 5.074219 20.902344 Z M 5.074219 20.492188 L 4.832031 20.492188 L 4.832031 20.082031 L 5.074219 20.082031 Z M 3.625 21.3125 L 3.382812 21.3125 L 3.382812 20.902344 L 3.140625 20.902344 L 3.140625 20.492188 L 2.898438 20.492188 L 2.898438 20.082031 L 3.140625 20.082031 L 3.140625 19.671875 L 3.382812 19.671875 L 3.382812 19.261719 L 3.625 19.261719 L 3.625 19.671875 L 3.863281 19.671875 L 3.863281 20.082031 L 4.105469 20.082031 L 4.105469 20.492188 L 3.863281 20.492188 L 3.863281 20.902344 L 3.625 20.902344 Z M 3.625 20.492188 L 3.382812 20.492188 L 3.382812 20.082031 L 3.625 20.082031 Z M 5.554688 18.851562 L 5.3125 18.851562 L 5.3125 18.441406 L 5.554688 18.441406 Z M 2.898438 19.261719 L 2.753906 19.261719 L 2.753906 18.441406 L 2.898438 18.441406 Z M 2.898438 19.261719 "/>
<path style=" stroke:none;fill-rule:evenodd;fill:rgb(78.431373%,19.215686%,24.313725%);fill-opacity:1;" d="M 5.554688 17.621094 L 5.3125 17.621094 L 5.3125 18.03125 L 5.074219 18.03125 L 5.074219 18.441406 L 4.832031 18.441406 L 4.832031 18.851562 L 4.589844 18.851562 L 4.589844 19.261719 L 4.347656 19.261719 L 4.347656 19.671875 L 4.105469 19.671875 L 4.105469 19.261719 L 3.863281 19.261719 L 3.863281 18.851562 L 3.625 18.851562 L 3.625 18.441406 L 3.382812 18.441406 L 3.382812 18.03125 L 3.140625 18.03125 L 3.140625 17.621094 L 2.898438 17.621094 L 2.898438 17.214844 L 2.753906 17.214844 L 2.753906 15.574219 L 2.898438 15.574219 L 2.898438 15.164062 L 3.140625 15.164062 L 3.140625 14.753906 L 3.382812 14.753906 L 3.382812 14.34375 L 3.625 14.34375 L 3.625 13.933594 L 3.863281 13.933594 L 3.863281 13.523438 L 4.105469 13.523438 L 4.105469 12.460938 L 4.589844 12.460938 L 4.589844 12.703125 L 4.832031 12.703125 L 4.832031 13.113281 L 5.074219 13.113281 L 5.074219 13.523438 L 5.3125 13.523438 L 5.3125 13.933594 L 5.554688 13.933594 L 5.554688 15.164062 L 5.3125 15.164062 L 5.3125 14.753906 L 5.074219 14.753906 L 5.074219 14.34375 L 4.832031 14.34375 L 4.832031 13.933594 L 4.589844 13.933594 L 4.589844 14.34375 L 4.347656 14.34375 L 4.347656 14.753906 L 4.105469 14.753906 L 4.105469 15.164062 L 3.863281 15.164062 L 3.863281 15.574219 L 3.625 15.574219 L 3.625 15.984375 L 3.382812 15.984375 L 3.382812 16.394531 L 3.625 16.394531 L 3.625 16.804688 L 3.863281 16.804688 L 3.863281 17.214844 L 4.589844 17.214844 L 4.589844 16.804688 L 4.105469 16.804688 L 4.105469 16.394531 L 4.347656 16.394531 L 4.347656 15.984375 L 4.589844 15.984375 L 4.589844 15.574219 L 4.832031 15.574219 L 4.832031 15.984375 L 5.074219 15.984375 L 5.074219 16.394531 L 5.3125 16.394531 L 5.3125 16.804688 L 5.554688 16.804688 Z M 5.554688 15.984375 L 5.3125 15.984375 L 5.3125 15.574219 L 5.554688 15.574219 Z M 2.898438 14.753906 L 2.753906 14.753906 L 2.753906 14.34375 L 2.898438 14.34375 Z M 3.382812 13.933594 L 3.140625 13.933594 L 3.140625 13.523438 L 2.898438 13.523438 L 2.898438 13.113281 L 2.753906 13.113281 L 2.753906 12.460938 L 2.898438 12.460938 L 2.898438 12.703125 L 3.140625 12.703125 L 3.140625 13.113281 L 3.382812 13.113281 Z M 3.863281 12.703125 L 3.625 12.703125 L 3.625 12.460938 L 3.863281 12.460938 Z M 3.863281 12.703125 "/>
</g>
</svg>
