<?xml version="1.0" encoding="UTF-8"?>
<svg xmlns="http://www.w3.org/2000/svg" xmlns:xlink="http://www.w3.org/1999/xlink" width="36pt" height="25pt" viewBox="0 0 36 25" version="1.1">
<defs>
<clipPath id="clip1">
  <path d="M 11 9 L 25 9 L 25 19 L 11 19 Z M 11 9 "/>
</clipPath>
<clipPath id="clip2">
  <path d="M 24.300781 12.5 C 24.300781 15.953125 21.480469 18.75 18 18.75 C 14.519531 18.75 11.699219 15.953125 11.699219 12.5 C 11.699219 9.046875 14.519531 6.25 18 6.25 C 21.480469 6.25 24.300781 9.046875 24.300781 12.5 Z M 24.300781 12.5 "/>
</clipPath>
<clipPath id="clip3">
  <path d="M 20 11 L 21 11 L 21 12 L 20 12 Z M 20 11 "/>
</clipPath>
<clipPath id="clip4">
  <path d="M 19.953125 11.65625 L 20.195312 11.109375 L 20.6875 11.324219 L 20.449219 11.871094 Z M 20.363281 11.394531 L 20.320312 11.488281 L 20.570312 11.597656 L 20.609375 11.503906 Z M 20.363281 11.394531 "/>
</clipPath>
</defs>
<g id="surface1">
<rect x="0" y="0" width="36" height="25" style="fill:rgb(0%,60.784314%,22.745098%);fill-opacity:1;stroke:none;"/>
<path style=" stroke:none;fill-rule:nonzero;fill:rgb(99.607843%,87.45098%,0%);fill-opacity:1;" d="M 3.058594 12.5 L 18 21.964844 L 32.941406 12.5 L 18 3.035156 Z M 3.058594 12.5 "/>
<path style=" stroke:none;fill-rule:nonzero;fill:rgb(0%,15.294118%,46.27451%);fill-opacity:1;" d="M 24.300781 12.5 C 24.300781 15.953125 21.480469 18.75 18 18.75 C 14.519531 18.75 11.699219 15.953125 11.699219 12.5 C 11.699219 9.046875 14.519531 6.25 18 6.25 C 21.480469 6.25 24.300781 9.046875 24.300781 12.5 Z M 24.300781 12.5 "/>
<g clip-path="url(#clip1)" clip-rule="nonzero">
<g clip-path="url(#clip2)" clip-rule="nonzero">
<path style=" stroke:none;fill-rule:nonzero;fill:rgb(100%,100%,100%);fill-opacity:1;" d="M -0.898438 25 C -0.898438 16.617188 5.949219 9.820312 14.398438 9.820312 C 22.851562 9.820312 29.699219 16.617188 29.699219 25 L 28.800781 25 C 28.800781 17.109375 22.351562 10.714844 14.398438 10.714844 C 6.445312 10.714844 0 17.109375 0 25 Z M -0.898438 25 "/>
</g>
</g>
<path style=" stroke:none;fill-rule:evenodd;fill:rgb(0%,60.784314%,22.745098%);fill-opacity:1;" d="M 12.625 10.671875 C 12.773438 10.65625 12.878906 10.507812 12.859375 10.34375 C 12.839844 10.183594 12.703125 10.0625 12.554688 10.082031 C 12.40625 10.101562 12.300781 10.246094 12.320312 10.410156 C 12.34375 10.574219 12.480469 10.691406 12.625 10.671875 M 12.613281 10.5625 C 12.699219 10.554688 12.761719 10.460938 12.746094 10.359375 C 12.734375 10.257812 12.652344 10.179688 12.566406 10.191406 C 12.480469 10.203125 12.421875 10.292969 12.433594 10.398438 C 12.445312 10.5 12.527344 10.574219 12.613281 10.5625 "/>
<path style=" stroke:none;fill-rule:evenodd;fill:rgb(0%,60.784314%,22.745098%);fill-opacity:1;" d="M 13.117188 10.621094 L 13.226562 10.613281 L 13.210938 10.390625 L 13.449219 10.375 C 13.554688 10.367188 13.632812 10.277344 13.625 10.175781 C 13.617188 10.070312 13.527344 9.992188 13.425781 10 L 13.082031 10.023438 Z M 13.203125 10.28125 L 13.433594 10.265625 C 13.476562 10.261719 13.507812 10.226562 13.507812 10.183594 C 13.503906 10.140625 13.464844 10.109375 13.421875 10.113281 L 13.191406 10.128906 Z M 13.203125 10.28125 "/>
<path style=" stroke:none;fill-rule:nonzero;fill:rgb(0%,60.784314%,22.745098%);fill-opacity:1;" d="M 13.625 10.585938 C 13.617188 10.5 13.605469 10.3125 13.476562 10.320312 L 13.316406 10.332031 C 13.503906 10.320312 13.515625 10.507812 13.523438 10.589844 "/>
<path style=" stroke:none;fill-rule:evenodd;fill:rgb(0%,60.784314%,22.745098%);fill-opacity:1;" d="M 13.875 10.574219 L 14.160156 10.566406 C 14.300781 10.566406 14.414062 10.449219 14.410156 10.308594 L 14.410156 10.222656 C 14.40625 10.082031 14.289062 9.96875 14.148438 9.972656 L 13.867188 9.976562 Z M 13.984375 10.460938 L 14.148438 10.457031 C 14.238281 10.457031 14.308594 10.382812 14.308594 10.292969 L 14.308594 10.242188 C 14.304688 10.152344 14.230469 10.082031 14.140625 10.082031 L 13.980469 10.085938 Z M 13.984375 10.460938 "/>
<path style=" stroke:none;fill-rule:nonzero;fill:rgb(0%,60.784314%,22.745098%);fill-opacity:1;" d="M 14.636719 10.566406 L 15.175781 10.582031 L 15.179688 10.472656 L 14.746094 10.457031 L 14.75 10.304688 L 15.09375 10.316406 L 15.097656 10.214844 L 14.753906 10.203125 L 14.757812 10.085938 L 15.167969 10.097656 L 15.171875 9.988281 L 14.660156 9.96875 Z M 14.636719 10.566406 "/>
<path style=" stroke:none;fill-rule:nonzero;fill:rgb(0%,60.784314%,22.745098%);fill-opacity:1;" d="M 15.398438 10.597656 L 15.5 10.605469 L 15.539062 10.199219 L 15.621094 10.617188 L 15.714844 10.625 L 15.871094 10.226562 L 15.835938 10.636719 L 15.9375 10.644531 L 15.988281 10.050781 L 15.839844 10.039062 L 15.683594 10.433594 L 15.601562 10.015625 L 15.453125 10.003906 Z M 15.398438 10.597656 "/>
<path style=" stroke:none;fill-rule:nonzero;fill:rgb(0%,60.784314%,22.745098%);fill-opacity:1;" d="M 16.640625 10.734375 L 17.085938 10.8125 L 17.101562 10.710938 L 16.761719 10.652344 L 16.785156 10.519531 L 17.0625 10.566406 L 17.082031 10.464844 L 16.800781 10.417969 L 16.816406 10.324219 L 17.148438 10.382812 L 17.167969 10.28125 L 16.734375 10.207031 Z M 16.640625 10.734375 "/>
<path style=" stroke:none;fill-rule:evenodd;fill:rgb(0%,60.784314%,22.745098%);fill-opacity:1;" d="M 17.78125 10.957031 L 17.890625 10.984375 L 17.945312 10.773438 L 18.175781 10.832031 C 18.277344 10.855469 18.382812 10.796875 18.40625 10.695312 C 18.433594 10.597656 18.371094 10.496094 18.273438 10.46875 L 17.941406 10.382812 Z M 17.972656 10.664062 L 18.195312 10.722656 C 18.238281 10.734375 18.28125 10.707031 18.292969 10.667969 C 18.300781 10.625 18.277344 10.585938 18.234375 10.574219 L 18.011719 10.515625 Z M 17.972656 10.664062 "/>
<path style=" stroke:none;fill-rule:evenodd;fill:rgb(0%,60.784314%,22.745098%);fill-opacity:1;" d="M 18.519531 11.152344 L 18.625 11.1875 L 18.691406 10.976562 L 18.921875 11.046875 C 19.019531 11.078125 19.125 11.023438 19.15625 10.925781 C 19.1875 10.828125 19.132812 10.722656 19.035156 10.691406 L 18.707031 10.585938 Z M 18.722656 10.871094 L 18.945312 10.9375 C 18.984375 10.953125 19.027344 10.929688 19.042969 10.890625 C 19.054688 10.847656 19.03125 10.804688 18.992188 10.792969 L 18.769531 10.722656 Z M 18.722656 10.871094 "/>
<path style=" stroke:none;fill-rule:nonzero;fill:rgb(0%,60.784314%,22.745098%);fill-opacity:1;" d="M 19.003906 11.304688 C 19.03125 11.222656 19.085938 11.046875 18.964844 11.007812 L 18.808594 10.957031 C 18.988281 11.015625 18.933594 11.195312 18.90625 11.273438 "/>
<path style=" stroke:none;fill-rule:evenodd;fill:rgb(0%,60.784314%,22.745098%);fill-opacity:1;" d="M 19.496094 11.480469 C 19.636719 11.53125 19.796875 11.449219 19.851562 11.292969 C 19.910156 11.140625 19.84375 10.972656 19.707031 10.921875 C 19.566406 10.871094 19.40625 10.953125 19.347656 11.105469 C 19.289062 11.261719 19.355469 11.429688 19.496094 11.480469 M 19.535156 11.375 C 19.617188 11.40625 19.710938 11.351562 19.75 11.257812 C 19.785156 11.160156 19.75 11.054688 19.667969 11.027344 C 19.585938 10.996094 19.488281 11.050781 19.453125 11.144531 C 19.414062 11.242188 19.453125 11.34375 19.535156 11.375 "/>
<g clip-path="url(#clip3)" clip-rule="nonzero">
<g clip-path="url(#clip4)" clip-rule="nonzero">
<path style=" stroke:none;fill-rule:evenodd;fill:rgb(0%,60.784314%,22.745098%);fill-opacity:1;" d="M 20.203125 11.761719 C 20.339844 11.820312 20.503906 11.746094 20.570312 11.597656 C 20.636719 11.445312 20.578125 11.277344 20.441406 11.21875 C 20.304688 11.15625 20.140625 11.230469 20.074219 11.382812 C 20.007812 11.535156 20.066406 11.703125 20.203125 11.761719 M 20.246094 11.660156 C 20.328125 11.695312 20.425781 11.648438 20.46875 11.550781 C 20.507812 11.457031 20.476562 11.351562 20.398438 11.316406 C 20.316406 11.285156 20.21875 11.332031 20.175781 11.425781 C 20.132812 11.523438 20.164062 11.625 20.246094 11.660156 "/>
</g>
</g>
<path style=" stroke:none;fill-rule:nonzero;fill:rgb(0%,60.784314%,22.745098%);fill-opacity:1;" d="M 20.359375 11.507812 L 20.570312 11.597656 L 20.535156 11.675781 L 20.328125 11.585938 Z M 20.359375 11.507812 "/>
<path style=" stroke:none;fill-rule:nonzero;fill:rgb(0%,60.784314%,22.745098%);fill-opacity:1;" d="M 20.492188 11.5625 L 20.570312 11.597656 L 20.449219 11.871094 L 20.371094 11.835938 Z M 20.492188 11.5625 "/>
<path style=" stroke:none;fill-rule:evenodd;fill:rgb(0%,60.784314%,22.745098%);fill-opacity:1;" d="M 20.652344 11.960938 L 20.75 12.011719 L 20.851562 11.8125 L 21.066406 11.921875 C 21.15625 11.964844 21.269531 11.929688 21.316406 11.835938 C 21.363281 11.742188 21.324219 11.632812 21.234375 11.585938 L 20.925781 11.433594 Z M 20.898438 11.714844 L 21.105469 11.816406 C 21.144531 11.835938 21.191406 11.820312 21.210938 11.78125 C 21.230469 11.746094 21.214844 11.699219 21.175781 11.679688 L 20.96875 11.578125 Z M 20.898438 11.714844 "/>
<path style=" stroke:none;fill-rule:nonzero;fill:rgb(0%,60.784314%,22.745098%);fill-opacity:1;" d="M 21.105469 12.1875 C 21.144531 12.113281 21.230469 11.945312 21.113281 11.886719 L 20.96875 11.816406 C 21.136719 11.898438 21.054688 12.066406 21.015625 12.144531 "/>
<path style=" stroke:none;fill-rule:nonzero;fill:rgb(0%,60.784314%,22.745098%);fill-opacity:1;" d="M 21.328125 12.304688 L 21.800781 12.570312 L 21.855469 12.472656 L 21.472656 12.257812 L 21.550781 12.125 L 21.847656 12.292969 L 21.898438 12.203125 L 21.601562 12.035156 L 21.660156 11.933594 L 22.019531 12.132812 L 22.074219 12.039062 L 21.625 11.785156 Z M 21.328125 12.304688 "/>
<path style=" stroke:none;fill-rule:nonzero;fill:rgb(0%,60.784314%,22.745098%);fill-opacity:1;" d="M 22.207031 12.597656 C 22.171875 12.648438 22.207031 12.703125 22.277344 12.75 C 22.351562 12.792969 22.398438 12.792969 22.421875 12.761719 C 22.484375 12.65625 22.105469 12.507812 22.222656 12.332031 C 22.324219 12.175781 22.496094 12.296875 22.5625 12.335938 C 22.625 12.378906 22.730469 12.484375 22.648438 12.609375 L 22.539062 12.539062 C 22.574219 12.484375 22.535156 12.433594 22.480469 12.394531 C 22.421875 12.359375 22.378906 12.34375 22.34375 12.398438 C 22.289062 12.480469 22.660156 12.636719 22.546875 12.8125 C 22.460938 12.945312 22.316406 12.886719 22.21875 12.824219 C 22.132812 12.773438 22.011719 12.648438 22.089844 12.523438 Z M 22.207031 12.597656 "/>
<path style=" stroke:none;fill-rule:nonzero;fill:rgb(0%,60.784314%,22.745098%);fill-opacity:1;" d="M 22.847656 13.019531 C 22.8125 13.066406 22.84375 13.125 22.914062 13.175781 C 22.984375 13.222656 23.03125 13.222656 23.054688 13.191406 C 23.125 13.09375 22.753906 12.925781 22.882812 12.753906 C 22.988281 12.605469 23.15625 12.734375 23.21875 12.777344 C 23.28125 12.824219 23.378906 12.933594 23.292969 13.054688 L 23.1875 12.976562 C 23.222656 12.925781 23.1875 12.871094 23.132812 12.832031 C 23.078125 12.792969 23.035156 12.777344 22.996094 12.828125 C 22.9375 12.90625 23.300781 13.082031 23.175781 13.253906 C 23.085938 13.378906 22.945312 13.316406 22.847656 13.25 C 22.769531 13.191406 22.652344 13.0625 22.738281 12.941406 Z M 22.847656 13.019531 "/>
<path style=" stroke:none;fill-rule:evenodd;fill:rgb(0%,60.784314%,22.745098%);fill-opacity:1;" d="M 23.457031 13.703125 C 23.574219 13.796875 23.753906 13.765625 23.855469 13.636719 C 23.957031 13.507812 23.949219 13.328125 23.832031 13.238281 C 23.714844 13.144531 23.535156 13.175781 23.433594 13.304688 C 23.328125 13.433594 23.339844 13.613281 23.457031 13.703125 M 23.527344 13.617188 C 23.59375 13.671875 23.703125 13.648438 23.769531 13.570312 C 23.832031 13.488281 23.832031 13.378906 23.761719 13.324219 C 23.691406 13.269531 23.585938 13.292969 23.519531 13.371094 C 23.457031 13.453125 23.457031 13.5625 23.527344 13.617188 "/>
<path style=" stroke:none;fill-rule:nonzero;fill:rgb(100%,100%,100%);fill-opacity:1;" d="M 12.855469 11.109375 L 12.773438 11.363281 L 12.902344 11.40625 "/>
<path style=" stroke:none;fill-rule:nonzero;fill:rgb(100%,100%,100%);fill-opacity:1;" d="M 12.855469 11.109375 L 12.941406 11.363281 L 12.8125 11.40625 "/>
<path style=" stroke:none;fill-rule:nonzero;fill:rgb(100%,100%,100%);fill-opacity:1;" d="M 13.113281 11.292969 L 12.84375 11.292969 L 12.84375 11.429688 "/>
<path style=" stroke:none;fill-rule:nonzero;fill:rgb(100%,100%,100%);fill-opacity:1;" d="M 13.113281 11.292969 L 12.894531 11.453125 L 12.816406 11.34375 "/>
<path style=" stroke:none;fill-rule:nonzero;fill:rgb(100%,100%,100%);fill-opacity:1;" d="M 12.601562 11.292969 L 12.820312 11.453125 L 12.898438 11.34375 "/>
<path style=" stroke:none;fill-rule:nonzero;fill:rgb(100%,100%,100%);fill-opacity:1;" d="M 12.601562 11.292969 L 12.871094 11.292969 L 12.871094 11.429688 "/>
<path style=" stroke:none;fill-rule:nonzero;fill:rgb(100%,100%,100%);fill-opacity:1;" d="M 13.015625 11.59375 L 12.933594 11.339844 L 12.804688 11.382812 "/>
<path style=" stroke:none;fill-rule:nonzero;fill:rgb(100%,100%,100%);fill-opacity:1;" d="M 13.015625 11.59375 L 12.796875 11.4375 L 12.875 11.328125 "/>
<path style=" stroke:none;fill-rule:nonzero;fill:rgb(100%,100%,100%);fill-opacity:1;" d="M 12.699219 11.59375 L 12.917969 11.4375 L 12.835938 11.328125 "/>
<path style=" stroke:none;fill-rule:nonzero;fill:rgb(100%,100%,100%);fill-opacity:1;" d="M 12.699219 11.59375 L 12.78125 11.339844 L 12.910156 11.382812 "/>
<path style=" stroke:none;fill-rule:nonzero;fill:rgb(100%,100%,100%);fill-opacity:1;" d="M 13.414062 13.738281 L 13.332031 13.992188 L 13.460938 14.035156 "/>
<path style=" stroke:none;fill-rule:nonzero;fill:rgb(100%,100%,100%);fill-opacity:1;" d="M 13.414062 13.738281 L 13.496094 13.992188 L 13.371094 14.035156 "/>
<path style=" stroke:none;fill-rule:nonzero;fill:rgb(100%,100%,100%);fill-opacity:1;" d="M 13.671875 13.921875 L 13.402344 13.921875 L 13.402344 14.054688 "/>
<path style=" stroke:none;fill-rule:nonzero;fill:rgb(100%,100%,100%);fill-opacity:1;" d="M 13.671875 13.921875 L 13.453125 14.078125 L 13.375 13.972656 "/>
<path style=" stroke:none;fill-rule:nonzero;fill:rgb(100%,100%,100%);fill-opacity:1;" d="M 13.15625 13.921875 L 13.375 14.078125 L 13.457031 13.972656 "/>
<path style=" stroke:none;fill-rule:nonzero;fill:rgb(100%,100%,100%);fill-opacity:1;" d="M 13.15625 13.921875 L 13.425781 13.921875 L 13.425781 14.054688 "/>
<path style=" stroke:none;fill-rule:nonzero;fill:rgb(100%,100%,100%);fill-opacity:1;" d="M 13.574219 14.222656 L 13.488281 13.96875 L 13.359375 14.007812 "/>
<path style=" stroke:none;fill-rule:nonzero;fill:rgb(100%,100%,100%);fill-opacity:1;" d="M 13.574219 14.222656 L 13.355469 14.0625 L 13.433594 13.957031 "/>
<path style=" stroke:none;fill-rule:nonzero;fill:rgb(100%,100%,100%);fill-opacity:1;" d="M 13.253906 14.222656 L 13.472656 14.0625 L 13.394531 13.957031 "/>
<path style=" stroke:none;fill-rule:nonzero;fill:rgb(100%,100%,100%);fill-opacity:1;" d="M 13.253906 14.222656 L 13.339844 13.96875 L 13.46875 14.007812 "/>
<path style=" stroke:none;fill-rule:nonzero;fill:rgb(100%,100%,100%);fill-opacity:1;" d="M 12.644531 14.34375 L 12.574219 14.554688 L 12.679688 14.589844 "/>
<path style=" stroke:none;fill-rule:nonzero;fill:rgb(100%,100%,100%);fill-opacity:1;" d="M 12.644531 14.34375 L 12.710938 14.554688 L 12.605469 14.589844 "/>
<path style=" stroke:none;fill-rule:nonzero;fill:rgb(100%,100%,100%);fill-opacity:1;" d="M 12.855469 14.496094 L 12.632812 14.496094 L 12.632812 14.609375 "/>
<path style=" stroke:none;fill-rule:nonzero;fill:rgb(100%,100%,100%);fill-opacity:1;" d="M 12.855469 14.496094 L 12.675781 14.628906 L 12.609375 14.539062 "/>
<path style=" stroke:none;fill-rule:nonzero;fill:rgb(100%,100%,100%);fill-opacity:1;" d="M 12.429688 14.496094 L 12.609375 14.628906 L 12.675781 14.539062 "/>
<path style=" stroke:none;fill-rule:nonzero;fill:rgb(100%,100%,100%);fill-opacity:1;" d="M 12.429688 14.496094 L 12.652344 14.496094 L 12.652344 14.609375 "/>
<path style=" stroke:none;fill-rule:nonzero;fill:rgb(100%,100%,100%);fill-opacity:1;" d="M 12.773438 14.746094 L 12.707031 14.535156 L 12.597656 14.570312 "/>
<path style=" stroke:none;fill-rule:nonzero;fill:rgb(100%,100%,100%);fill-opacity:1;" d="M 12.773438 14.746094 L 12.59375 14.617188 L 12.660156 14.527344 "/>
<path style=" stroke:none;fill-rule:nonzero;fill:rgb(100%,100%,100%);fill-opacity:1;" d="M 12.511719 14.746094 L 12.691406 14.617188 L 12.625 14.527344 "/>
<path style=" stroke:none;fill-rule:nonzero;fill:rgb(100%,100%,100%);fill-opacity:1;" d="M 12.511719 14.746094 L 12.582031 14.535156 L 12.6875 14.570312 "/>
<path style=" stroke:none;fill-rule:nonzero;fill:rgb(100%,100%,100%);fill-opacity:1;" d="M 14.03125 13.496094 L 13.992188 13.617188 L 14.054688 13.636719 "/>
<path style=" stroke:none;fill-rule:nonzero;fill:rgb(100%,100%,100%);fill-opacity:1;" d="M 14.03125 13.496094 L 14.070312 13.617188 L 14.011719 13.636719 "/>
<path style=" stroke:none;fill-rule:nonzero;fill:rgb(100%,100%,100%);fill-opacity:1;" d="M 14.152344 13.582031 L 14.023438 13.582031 L 14.023438 13.648438 "/>
<path style=" stroke:none;fill-rule:nonzero;fill:rgb(100%,100%,100%);fill-opacity:1;" d="M 14.152344 13.582031 L 14.050781 13.65625 L 14.011719 13.605469 "/>
<path style=" stroke:none;fill-rule:nonzero;fill:rgb(100%,100%,100%);fill-opacity:1;" d="M 13.910156 13.582031 L 14.011719 13.65625 L 14.050781 13.605469 "/>
<path style=" stroke:none;fill-rule:nonzero;fill:rgb(100%,100%,100%);fill-opacity:1;" d="M 13.910156 13.582031 L 14.039062 13.582031 L 14.039062 13.648438 "/>
<path style=" stroke:none;fill-rule:nonzero;fill:rgb(100%,100%,100%);fill-opacity:1;" d="M 14.105469 13.726562 L 14.066406 13.605469 L 14.007812 13.625 "/>
<path style=" stroke:none;fill-rule:nonzero;fill:rgb(100%,100%,100%);fill-opacity:1;" d="M 14.105469 13.726562 L 14.003906 13.652344 L 14.039062 13.597656 "/>
<path style=" stroke:none;fill-rule:nonzero;fill:rgb(100%,100%,100%);fill-opacity:1;" d="M 13.957031 13.726562 L 14.058594 13.652344 L 14.023438 13.597656 "/>
<path style=" stroke:none;fill-rule:nonzero;fill:rgb(100%,100%,100%);fill-opacity:1;" d="M 13.957031 13.726562 L 13.996094 13.605469 L 14.058594 13.625 "/>
<path style=" stroke:none;fill-rule:nonzero;fill:rgb(100%,100%,100%);fill-opacity:1;" d="M 14.726562 14.402344 L 14.65625 14.613281 L 14.761719 14.648438 "/>
<path style=" stroke:none;fill-rule:nonzero;fill:rgb(100%,100%,100%);fill-opacity:1;" d="M 14.726562 14.402344 L 14.796875 14.613281 L 14.6875 14.648438 "/>
<path style=" stroke:none;fill-rule:nonzero;fill:rgb(100%,100%,100%);fill-opacity:1;" d="M 14.941406 14.558594 L 14.714844 14.558594 L 14.714844 14.667969 "/>
<path style=" stroke:none;fill-rule:nonzero;fill:rgb(100%,100%,100%);fill-opacity:1;" d="M 14.941406 14.558594 L 14.757812 14.6875 L 14.691406 14.597656 "/>
<path style=" stroke:none;fill-rule:nonzero;fill:rgb(100%,100%,100%);fill-opacity:1;" d="M 14.511719 14.558594 L 14.695312 14.6875 L 14.761719 14.597656 "/>
<path style=" stroke:none;fill-rule:nonzero;fill:rgb(100%,100%,100%);fill-opacity:1;" d="M 14.511719 14.558594 L 14.738281 14.558594 L 14.738281 14.667969 "/>
<path style=" stroke:none;fill-rule:nonzero;fill:rgb(100%,100%,100%);fill-opacity:1;" d="M 14.859375 14.804688 L 14.789062 14.59375 L 14.679688 14.628906 "/>
<path style=" stroke:none;fill-rule:nonzero;fill:rgb(100%,100%,100%);fill-opacity:1;" d="M 14.859375 14.804688 L 14.675781 14.675781 L 14.742188 14.585938 "/>
<path style=" stroke:none;fill-rule:nonzero;fill:rgb(100%,100%,100%);fill-opacity:1;" d="M 14.59375 14.804688 L 14.777344 14.675781 L 14.710938 14.585938 "/>
<path style=" stroke:none;fill-rule:nonzero;fill:rgb(100%,100%,100%);fill-opacity:1;" d="M 14.59375 14.804688 L 14.664062 14.59375 L 14.769531 14.628906 "/>
<path style=" stroke:none;fill-rule:nonzero;fill:rgb(100%,100%,100%);fill-opacity:1;" d="M 14.539062 15.066406 L 14.480469 15.238281 L 14.566406 15.265625 "/>
<path style=" stroke:none;fill-rule:nonzero;fill:rgb(100%,100%,100%);fill-opacity:1;" d="M 14.539062 15.066406 L 14.59375 15.238281 L 14.507812 15.265625 "/>
<path style=" stroke:none;fill-rule:nonzero;fill:rgb(100%,100%,100%);fill-opacity:1;" d="M 14.707031 15.191406 L 14.527344 15.191406 L 14.527344 15.28125 "/>
<path style=" stroke:none;fill-rule:nonzero;fill:rgb(100%,100%,100%);fill-opacity:1;" d="M 14.707031 15.191406 L 14.5625 15.296875 L 14.511719 15.222656 "/>
<path style=" stroke:none;fill-rule:nonzero;fill:rgb(100%,100%,100%);fill-opacity:1;" d="M 14.367188 15.191406 L 14.511719 15.296875 L 14.566406 15.222656 "/>
<path style=" stroke:none;fill-rule:nonzero;fill:rgb(100%,100%,100%);fill-opacity:1;" d="M 14.367188 15.191406 L 14.546875 15.191406 L 14.546875 15.28125 "/>
<path style=" stroke:none;fill-rule:nonzero;fill:rgb(100%,100%,100%);fill-opacity:1;" d="M 14.644531 15.390625 L 14.585938 15.222656 L 14.5 15.25 "/>
<path style=" stroke:none;fill-rule:nonzero;fill:rgb(100%,100%,100%);fill-opacity:1;" d="M 14.644531 15.390625 L 14.496094 15.285156 L 14.550781 15.214844 "/>
<path style=" stroke:none;fill-rule:nonzero;fill:rgb(100%,100%,100%);fill-opacity:1;" d="M 14.429688 15.390625 L 14.578125 15.285156 L 14.523438 15.214844 "/>
<path style=" stroke:none;fill-rule:nonzero;fill:rgb(100%,100%,100%);fill-opacity:1;" d="M 14.429688 15.390625 L 14.488281 15.222656 L 14.574219 15.25 "/>
<path style=" stroke:none;fill-rule:nonzero;fill:rgb(100%,100%,100%);fill-opacity:1;" d="M 19.953125 10.292969 L 19.871094 10.546875 L 20 10.589844 "/>
<path style=" stroke:none;fill-rule:nonzero;fill:rgb(100%,100%,100%);fill-opacity:1;" d="M 19.953125 10.292969 L 20.039062 10.546875 L 19.910156 10.589844 "/>
<path style=" stroke:none;fill-rule:nonzero;fill:rgb(100%,100%,100%);fill-opacity:1;" d="M 20.210938 10.476562 L 19.941406 10.476562 L 19.941406 10.613281 "/>
<path style=" stroke:none;fill-rule:nonzero;fill:rgb(100%,100%,100%);fill-opacity:1;" d="M 20.210938 10.476562 L 19.992188 10.636719 L 19.914062 10.527344 "/>
<path style=" stroke:none;fill-rule:nonzero;fill:rgb(100%,100%,100%);fill-opacity:1;" d="M 19.699219 10.476562 L 19.914062 10.636719 L 19.996094 10.527344 "/>
<path style=" stroke:none;fill-rule:nonzero;fill:rgb(100%,100%,100%);fill-opacity:1;" d="M 19.699219 10.476562 L 19.96875 10.476562 L 19.96875 10.613281 "/>
<path style=" stroke:none;fill-rule:nonzero;fill:rgb(100%,100%,100%);fill-opacity:1;" d="M 20.113281 10.777344 L 20.03125 10.523438 L 19.902344 10.566406 "/>
<path style=" stroke:none;fill-rule:nonzero;fill:rgb(100%,100%,100%);fill-opacity:1;" d="M 20.113281 10.777344 L 19.894531 10.621094 L 19.972656 10.511719 "/>
<path style=" stroke:none;fill-rule:nonzero;fill:rgb(100%,100%,100%);fill-opacity:1;" d="M 19.796875 10.777344 L 20.015625 10.621094 L 19.933594 10.511719 "/>
<path style=" stroke:none;fill-rule:nonzero;fill:rgb(100%,100%,100%);fill-opacity:1;" d="M 19.796875 10.777344 L 19.878906 10.523438 L 20.007812 10.566406 "/>
<path style=" stroke:none;fill-rule:nonzero;fill:rgb(100%,100%,100%);fill-opacity:1;" d="M 22.414062 14.425781 L 22.332031 14.679688 L 22.460938 14.722656 "/>
<path style=" stroke:none;fill-rule:nonzero;fill:rgb(100%,100%,100%);fill-opacity:1;" d="M 22.414062 14.425781 L 22.496094 14.679688 L 22.371094 14.722656 "/>
<path style=" stroke:none;fill-rule:nonzero;fill:rgb(100%,100%,100%);fill-opacity:1;" d="M 22.671875 14.609375 L 22.402344 14.609375 L 22.402344 14.746094 "/>
<path style=" stroke:none;fill-rule:nonzero;fill:rgb(100%,100%,100%);fill-opacity:1;" d="M 22.671875 14.609375 L 22.453125 14.769531 L 22.375 14.660156 "/>
<path style=" stroke:none;fill-rule:nonzero;fill:rgb(100%,100%,100%);fill-opacity:1;" d="M 22.15625 14.609375 L 22.375 14.769531 L 22.457031 14.660156 "/>
<path style=" stroke:none;fill-rule:nonzero;fill:rgb(100%,100%,100%);fill-opacity:1;" d="M 22.15625 14.609375 L 22.425781 14.609375 L 22.425781 14.746094 "/>
<path style=" stroke:none;fill-rule:nonzero;fill:rgb(100%,100%,100%);fill-opacity:1;" d="M 22.574219 14.910156 L 22.488281 14.65625 L 22.359375 14.695312 "/>
<path style=" stroke:none;fill-rule:nonzero;fill:rgb(100%,100%,100%);fill-opacity:1;" d="M 22.574219 14.910156 L 22.355469 14.753906 L 22.433594 14.644531 "/>
<path style=" stroke:none;fill-rule:nonzero;fill:rgb(100%,100%,100%);fill-opacity:1;" d="M 22.253906 14.910156 L 22.472656 14.753906 L 22.394531 14.644531 "/>
<path style=" stroke:none;fill-rule:nonzero;fill:rgb(100%,100%,100%);fill-opacity:1;" d="M 22.253906 14.910156 L 22.339844 14.65625 L 22.46875 14.695312 "/>
<path style=" stroke:none;fill-rule:nonzero;fill:rgb(100%,100%,100%);fill-opacity:1;" d="M 23.289062 14.574219 L 23.234375 14.746094 L 23.320312 14.773438 "/>
<path style=" stroke:none;fill-rule:nonzero;fill:rgb(100%,100%,100%);fill-opacity:1;" d="M 23.289062 14.574219 L 23.34375 14.746094 L 23.257812 14.773438 "/>
<path style=" stroke:none;fill-rule:nonzero;fill:rgb(100%,100%,100%);fill-opacity:1;" d="M 23.460938 14.699219 L 23.28125 14.699219 L 23.28125 14.789062 "/>
<path style=" stroke:none;fill-rule:nonzero;fill:rgb(100%,100%,100%);fill-opacity:1;" d="M 23.460938 14.699219 L 23.3125 14.804688 L 23.261719 14.730469 "/>
<path style=" stroke:none;fill-rule:nonzero;fill:rgb(100%,100%,100%);fill-opacity:1;" d="M 23.117188 14.699219 L 23.261719 14.804688 L 23.316406 14.730469 "/>
<path style=" stroke:none;fill-rule:nonzero;fill:rgb(100%,100%,100%);fill-opacity:1;" d="M 23.117188 14.699219 L 23.296875 14.699219 L 23.296875 14.789062 "/>
<path style=" stroke:none;fill-rule:nonzero;fill:rgb(100%,100%,100%);fill-opacity:1;" d="M 23.394531 14.898438 L 23.339844 14.726562 L 23.253906 14.753906 "/>
<path style=" stroke:none;fill-rule:nonzero;fill:rgb(100%,100%,100%);fill-opacity:1;" d="M 23.394531 14.898438 L 23.25 14.792969 L 23.300781 14.71875 "/>
<path style=" stroke:none;fill-rule:nonzero;fill:rgb(100%,100%,100%);fill-opacity:1;" d="M 23.183594 14.898438 L 23.328125 14.792969 L 23.277344 14.71875 "/>
<path style=" stroke:none;fill-rule:nonzero;fill:rgb(100%,100%,100%);fill-opacity:1;" d="M 23.183594 14.898438 L 23.238281 14.726562 L 23.324219 14.753906 "/>
<path style=" stroke:none;fill-rule:nonzero;fill:rgb(100%,100%,100%);fill-opacity:1;" d="M 22.671875 15.023438 L 22.601562 15.234375 L 22.707031 15.269531 "/>
<path style=" stroke:none;fill-rule:nonzero;fill:rgb(100%,100%,100%);fill-opacity:1;" d="M 22.671875 15.023438 L 22.742188 15.234375 L 22.632812 15.269531 "/>
<path style=" stroke:none;fill-rule:nonzero;fill:rgb(100%,100%,100%);fill-opacity:1;" d="M 22.886719 15.175781 L 22.660156 15.175781 L 22.660156 15.289062 "/>
<path style=" stroke:none;fill-rule:nonzero;fill:rgb(100%,100%,100%);fill-opacity:1;" d="M 22.886719 15.175781 L 22.703125 15.308594 L 22.636719 15.21875 "/>
<path style=" stroke:none;fill-rule:nonzero;fill:rgb(100%,100%,100%);fill-opacity:1;" d="M 22.457031 15.175781 L 22.640625 15.308594 L 22.707031 15.21875 "/>
<path style=" stroke:none;fill-rule:nonzero;fill:rgb(100%,100%,100%);fill-opacity:1;" d="M 22.457031 15.175781 L 22.683594 15.175781 L 22.683594 15.289062 "/>
<path style=" stroke:none;fill-rule:nonzero;fill:rgb(100%,100%,100%);fill-opacity:1;" d="M 22.804688 15.425781 L 22.734375 15.214844 L 22.628906 15.25 "/>
<path style=" stroke:none;fill-rule:nonzero;fill:rgb(100%,100%,100%);fill-opacity:1;" d="M 22.804688 15.425781 L 22.621094 15.296875 L 22.6875 15.207031 "/>
<path style=" stroke:none;fill-rule:nonzero;fill:rgb(100%,100%,100%);fill-opacity:1;" d="M 22.539062 15.425781 L 22.722656 15.296875 L 22.65625 15.207031 "/>
<path style=" stroke:none;fill-rule:nonzero;fill:rgb(100%,100%,100%);fill-opacity:1;" d="M 22.539062 15.425781 L 22.609375 15.214844 L 22.714844 15.25 "/>
<path style=" stroke:none;fill-rule:nonzero;fill:rgb(100%,100%,100%);fill-opacity:1;" d="M 21.152344 16.332031 L 21.085938 16.546875 L 21.191406 16.578125 "/>
<path style=" stroke:none;fill-rule:nonzero;fill:rgb(100%,100%,100%);fill-opacity:1;" d="M 21.152344 16.332031 L 21.222656 16.546875 L 21.117188 16.578125 "/>
<path style=" stroke:none;fill-rule:nonzero;fill:rgb(100%,100%,100%);fill-opacity:1;" d="M 21.367188 16.488281 L 21.144531 16.488281 L 21.144531 16.597656 "/>
<path style=" stroke:none;fill-rule:nonzero;fill:rgb(100%,100%,100%);fill-opacity:1;" d="M 21.367188 16.488281 L 21.1875 16.617188 L 21.121094 16.527344 "/>
<path style=" stroke:none;fill-rule:nonzero;fill:rgb(100%,100%,100%);fill-opacity:1;" d="M 20.941406 16.488281 L 21.121094 16.617188 L 21.1875 16.527344 "/>
<path style=" stroke:none;fill-rule:nonzero;fill:rgb(100%,100%,100%);fill-opacity:1;" d="M 20.941406 16.488281 L 21.164062 16.488281 L 21.164062 16.597656 "/>
<path style=" stroke:none;fill-rule:nonzero;fill:rgb(100%,100%,100%);fill-opacity:1;" d="M 21.285156 16.738281 L 21.21875 16.523438 L 21.109375 16.558594 "/>
<path style=" stroke:none;fill-rule:nonzero;fill:rgb(100%,100%,100%);fill-opacity:1;" d="M 21.285156 16.738281 L 21.105469 16.605469 L 21.171875 16.515625 "/>
<path style=" stroke:none;fill-rule:nonzero;fill:rgb(100%,100%,100%);fill-opacity:1;" d="M 21.023438 16.738281 L 21.203125 16.605469 L 21.136719 16.515625 "/>
<path style=" stroke:none;fill-rule:nonzero;fill:rgb(100%,100%,100%);fill-opacity:1;" d="M 21.023438 16.738281 L 21.089844 16.523438 L 21.199219 16.558594 "/>
<path style=" stroke:none;fill-rule:nonzero;fill:rgb(100%,100%,100%);fill-opacity:1;" d="M 21.144531 17.007812 L 21.089844 17.175781 L 21.175781 17.203125 "/>
<path style=" stroke:none;fill-rule:nonzero;fill:rgb(100%,100%,100%);fill-opacity:1;" d="M 21.144531 17.007812 L 21.203125 17.175781 L 21.117188 17.203125 "/>
<path style=" stroke:none;fill-rule:nonzero;fill:rgb(100%,100%,100%);fill-opacity:1;" d="M 21.316406 17.128906 L 21.136719 17.128906 L 21.136719 17.21875 "/>
<path style=" stroke:none;fill-rule:nonzero;fill:rgb(100%,100%,100%);fill-opacity:1;" d="M 21.316406 17.128906 L 21.171875 17.234375 L 21.117188 17.164062 "/>
<path style=" stroke:none;fill-rule:nonzero;fill:rgb(100%,100%,100%);fill-opacity:1;" d="M 20.972656 17.128906 L 21.121094 17.234375 L 21.171875 17.164062 "/>
<path style=" stroke:none;fill-rule:nonzero;fill:rgb(100%,100%,100%);fill-opacity:1;" d="M 20.972656 17.128906 L 21.15625 17.128906 L 21.15625 17.21875 "/>
<path style=" stroke:none;fill-rule:nonzero;fill:rgb(100%,100%,100%);fill-opacity:1;" d="M 21.25 17.328125 L 21.195312 17.160156 L 21.109375 17.1875 "/>
<path style=" stroke:none;fill-rule:nonzero;fill:rgb(100%,100%,100%);fill-opacity:1;" d="M 21.25 17.328125 L 21.105469 17.226562 L 21.160156 17.152344 "/>
<path style=" stroke:none;fill-rule:nonzero;fill:rgb(100%,100%,100%);fill-opacity:1;" d="M 21.039062 17.328125 L 21.183594 17.226562 L 21.132812 17.152344 "/>
<path style=" stroke:none;fill-rule:nonzero;fill:rgb(100%,100%,100%);fill-opacity:1;" d="M 21.039062 17.328125 L 21.09375 17.160156 L 21.179688 17.1875 "/>
<path style=" stroke:none;fill-rule:nonzero;fill:rgb(100%,100%,100%);fill-opacity:1;" d="M 21.78125 15.882812 L 21.722656 16.054688 L 21.808594 16.082031 "/>
<path style=" stroke:none;fill-rule:nonzero;fill:rgb(100%,100%,100%);fill-opacity:1;" d="M 21.78125 15.882812 L 21.835938 16.054688 L 21.75 16.082031 "/>
<path style=" stroke:none;fill-rule:nonzero;fill:rgb(100%,100%,100%);fill-opacity:1;" d="M 21.953125 16.007812 L 21.769531 16.007812 L 21.769531 16.097656 "/>
<path style=" stroke:none;fill-rule:nonzero;fill:rgb(100%,100%,100%);fill-opacity:1;" d="M 21.953125 16.007812 L 21.804688 16.113281 L 21.753906 16.039062 "/>
<path style=" stroke:none;fill-rule:nonzero;fill:rgb(100%,100%,100%);fill-opacity:1;" d="M 21.609375 16.007812 L 21.753906 16.113281 L 21.808594 16.039062 "/>
<path style=" stroke:none;fill-rule:nonzero;fill:rgb(100%,100%,100%);fill-opacity:1;" d="M 21.609375 16.007812 L 21.789062 16.007812 L 21.789062 16.097656 "/>
<path style=" stroke:none;fill-rule:nonzero;fill:rgb(100%,100%,100%);fill-opacity:1;" d="M 21.886719 16.207031 L 21.832031 16.039062 L 21.746094 16.066406 "/>
<path style=" stroke:none;fill-rule:nonzero;fill:rgb(100%,100%,100%);fill-opacity:1;" d="M 21.886719 16.207031 L 21.738281 16.101562 L 21.792969 16.03125 "/>
<path style=" stroke:none;fill-rule:nonzero;fill:rgb(100%,100%,100%);fill-opacity:1;" d="M 21.675781 16.207031 L 21.820312 16.101562 L 21.765625 16.03125 "/>
<path style=" stroke:none;fill-rule:nonzero;fill:rgb(100%,100%,100%);fill-opacity:1;" d="M 21.675781 16.207031 L 21.730469 16.039062 L 21.816406 16.066406 "/>
<path style=" stroke:none;fill-rule:nonzero;fill:rgb(100%,100%,100%);fill-opacity:1;" d="M 22.285156 15.523438 L 22.214844 15.738281 L 22.324219 15.773438 "/>
<path style=" stroke:none;fill-rule:nonzero;fill:rgb(100%,100%,100%);fill-opacity:1;" d="M 22.285156 15.523438 L 22.355469 15.738281 L 22.25 15.773438 "/>
<path style=" stroke:none;fill-rule:nonzero;fill:rgb(100%,100%,100%);fill-opacity:1;" d="M 22.5 15.679688 L 22.273438 15.679688 L 22.273438 15.789062 "/>
<path style=" stroke:none;fill-rule:nonzero;fill:rgb(100%,100%,100%);fill-opacity:1;" d="M 22.5 15.679688 L 22.316406 15.808594 L 22.25 15.71875 "/>
<path style=" stroke:none;fill-rule:nonzero;fill:rgb(100%,100%,100%);fill-opacity:1;" d="M 22.070312 15.679688 L 22.253906 15.808594 L 22.320312 15.71875 "/>
<path style=" stroke:none;fill-rule:nonzero;fill:rgb(100%,100%,100%);fill-opacity:1;" d="M 22.070312 15.679688 L 22.296875 15.679688 L 22.296875 15.789062 "/>
<path style=" stroke:none;fill-rule:nonzero;fill:rgb(100%,100%,100%);fill-opacity:1;" d="M 22.417969 15.929688 L 22.347656 15.714844 L 22.242188 15.75 "/>
<path style=" stroke:none;fill-rule:nonzero;fill:rgb(100%,100%,100%);fill-opacity:1;" d="M 22.417969 15.929688 L 22.234375 15.796875 L 22.300781 15.707031 "/>
<path style=" stroke:none;fill-rule:nonzero;fill:rgb(100%,100%,100%);fill-opacity:1;" d="M 22.152344 15.929688 L 22.335938 15.796875 L 22.269531 15.707031 "/>
<path style=" stroke:none;fill-rule:nonzero;fill:rgb(100%,100%,100%);fill-opacity:1;" d="M 22.152344 15.929688 L 22.222656 15.714844 L 22.328125 15.75 "/>
<path style=" stroke:none;fill-rule:nonzero;fill:rgb(100%,100%,100%);fill-opacity:1;" d="M 21.128906 15.765625 L 21.074219 15.933594 L 21.160156 15.960938 "/>
<path style=" stroke:none;fill-rule:nonzero;fill:rgb(100%,100%,100%);fill-opacity:1;" d="M 21.128906 15.765625 L 21.183594 15.933594 L 21.097656 15.960938 "/>
<path style=" stroke:none;fill-rule:nonzero;fill:rgb(100%,100%,100%);fill-opacity:1;" d="M 21.300781 15.890625 L 21.121094 15.890625 L 21.121094 15.976562 "/>
<path style=" stroke:none;fill-rule:nonzero;fill:rgb(100%,100%,100%);fill-opacity:1;" d="M 21.300781 15.890625 L 21.152344 15.992188 L 21.101562 15.921875 "/>
<path style=" stroke:none;fill-rule:nonzero;fill:rgb(100%,100%,100%);fill-opacity:1;" d="M 20.957031 15.890625 L 21.101562 15.992188 L 21.15625 15.921875 "/>
<path style=" stroke:none;fill-rule:nonzero;fill:rgb(100%,100%,100%);fill-opacity:1;" d="M 20.957031 15.890625 L 21.136719 15.890625 L 21.136719 15.976562 "/>
<path style=" stroke:none;fill-rule:nonzero;fill:rgb(100%,100%,100%);fill-opacity:1;" d="M 21.234375 16.089844 L 21.179688 15.917969 L 21.09375 15.945312 "/>
<path style=" stroke:none;fill-rule:nonzero;fill:rgb(100%,100%,100%);fill-opacity:1;" d="M 21.234375 16.089844 L 21.089844 15.984375 L 21.140625 15.910156 "/>
<path style=" stroke:none;fill-rule:nonzero;fill:rgb(100%,100%,100%);fill-opacity:1;" d="M 21.023438 16.089844 L 21.167969 15.984375 L 21.117188 15.910156 "/>
<path style=" stroke:none;fill-rule:nonzero;fill:rgb(100%,100%,100%);fill-opacity:1;" d="M 21.023438 16.089844 L 21.078125 15.917969 L 21.164062 15.945312 "/>
<path style=" stroke:none;fill-rule:nonzero;fill:rgb(100%,100%,100%);fill-opacity:1;" d="M 15.601562 12.53125 L 15.53125 12.746094 L 15.636719 12.777344 "/>
<path style=" stroke:none;fill-rule:nonzero;fill:rgb(100%,100%,100%);fill-opacity:1;" d="M 15.601562 12.53125 L 15.667969 12.746094 L 15.5625 12.777344 "/>
<path style=" stroke:none;fill-rule:nonzero;fill:rgb(100%,100%,100%);fill-opacity:1;" d="M 15.8125 12.6875 L 15.589844 12.6875 L 15.589844 12.796875 "/>
<path style=" stroke:none;fill-rule:nonzero;fill:rgb(100%,100%,100%);fill-opacity:1;" d="M 15.8125 12.6875 L 15.632812 12.816406 L 15.566406 12.726562 "/>
<path style=" stroke:none;fill-rule:nonzero;fill:rgb(100%,100%,100%);fill-opacity:1;" d="M 15.386719 12.6875 L 15.566406 12.816406 L 15.632812 12.726562 "/>
<path style=" stroke:none;fill-rule:nonzero;fill:rgb(100%,100%,100%);fill-opacity:1;" d="M 15.386719 12.6875 L 15.609375 12.6875 L 15.609375 12.796875 "/>
<path style=" stroke:none;fill-rule:nonzero;fill:rgb(100%,100%,100%);fill-opacity:1;" d="M 15.730469 12.9375 L 15.664062 12.722656 L 15.554688 12.757812 "/>
<path style=" stroke:none;fill-rule:nonzero;fill:rgb(100%,100%,100%);fill-opacity:1;" d="M 15.730469 12.9375 L 15.550781 12.804688 L 15.617188 12.714844 "/>
<path style=" stroke:none;fill-rule:nonzero;fill:rgb(100%,100%,100%);fill-opacity:1;" d="M 15.46875 12.9375 L 15.648438 12.804688 L 15.582031 12.714844 "/>
<path style=" stroke:none;fill-rule:nonzero;fill:rgb(100%,100%,100%);fill-opacity:1;" d="M 15.46875 12.9375 L 15.539062 12.722656 L 15.644531 12.757812 "/>
<path style=" stroke:none;fill-rule:nonzero;fill:rgb(100%,100%,100%);fill-opacity:1;" d="M 19.714844 12.007812 L 19.660156 12.175781 L 19.746094 12.203125 "/>
<path style=" stroke:none;fill-rule:nonzero;fill:rgb(100%,100%,100%);fill-opacity:1;" d="M 19.714844 12.007812 L 19.769531 12.175781 L 19.683594 12.203125 "/>
<path style=" stroke:none;fill-rule:nonzero;fill:rgb(100%,100%,100%);fill-opacity:1;" d="M 19.886719 12.128906 L 19.707031 12.128906 L 19.707031 12.21875 "/>
<path style=" stroke:none;fill-rule:nonzero;fill:rgb(100%,100%,100%);fill-opacity:1;" d="M 19.886719 12.128906 L 19.738281 12.234375 L 19.6875 12.164062 "/>
<path style=" stroke:none;fill-rule:nonzero;fill:rgb(100%,100%,100%);fill-opacity:1;" d="M 19.542969 12.128906 L 19.6875 12.234375 L 19.742188 12.164062 "/>
<path style=" stroke:none;fill-rule:nonzero;fill:rgb(100%,100%,100%);fill-opacity:1;" d="M 19.542969 12.128906 L 19.722656 12.128906 L 19.722656 12.21875 "/>
<path style=" stroke:none;fill-rule:nonzero;fill:rgb(100%,100%,100%);fill-opacity:1;" d="M 19.820312 12.328125 L 19.765625 12.160156 L 19.679688 12.1875 "/>
<path style=" stroke:none;fill-rule:nonzero;fill:rgb(100%,100%,100%);fill-opacity:1;" d="M 19.820312 12.328125 L 19.675781 12.226562 L 19.726562 12.152344 "/>
<path style=" stroke:none;fill-rule:nonzero;fill:rgb(100%,100%,100%);fill-opacity:1;" d="M 19.609375 12.328125 L 19.753906 12.226562 L 19.703125 12.152344 "/>
<path style=" stroke:none;fill-rule:nonzero;fill:rgb(100%,100%,100%);fill-opacity:1;" d="M 19.609375 12.328125 L 19.664062 12.160156 L 19.75 12.1875 "/>
<path style=" stroke:none;fill-rule:nonzero;fill:rgb(100%,100%,100%);fill-opacity:1;" d="M 18 15.039062 L 17.917969 15.292969 L 18.046875 15.335938 "/>
<path style=" stroke:none;fill-rule:nonzero;fill:rgb(100%,100%,100%);fill-opacity:1;" d="M 18 15.039062 L 18.082031 15.292969 L 17.953125 15.335938 "/>
<path style=" stroke:none;fill-rule:nonzero;fill:rgb(100%,100%,100%);fill-opacity:1;" d="M 18.257812 15.222656 L 17.988281 15.222656 L 17.988281 15.355469 "/>
<path style=" stroke:none;fill-rule:nonzero;fill:rgb(100%,100%,100%);fill-opacity:1;" d="M 18.257812 15.222656 L 18.039062 15.378906 L 17.960938 15.273438 "/>
<path style=" stroke:none;fill-rule:nonzero;fill:rgb(100%,100%,100%);fill-opacity:1;" d="M 17.742188 15.222656 L 17.960938 15.378906 L 18.039062 15.273438 "/>
<path style=" stroke:none;fill-rule:nonzero;fill:rgb(100%,100%,100%);fill-opacity:1;" d="M 17.742188 15.222656 L 18.011719 15.222656 L 18.011719 15.355469 "/>
<path style=" stroke:none;fill-rule:nonzero;fill:rgb(100%,100%,100%);fill-opacity:1;" d="M 18.160156 15.523438 L 18.074219 15.269531 L 17.945312 15.308594 "/>
<path style=" stroke:none;fill-rule:nonzero;fill:rgb(100%,100%,100%);fill-opacity:1;" d="M 18.160156 15.523438 L 17.941406 15.367188 L 18.019531 15.257812 "/>
<path style=" stroke:none;fill-rule:nonzero;fill:rgb(100%,100%,100%);fill-opacity:1;" d="M 17.839844 15.523438 L 18.058594 15.367188 L 17.980469 15.257812 "/>
<path style=" stroke:none;fill-rule:nonzero;fill:rgb(100%,100%,100%);fill-opacity:1;" d="M 17.839844 15.523438 L 17.925781 15.269531 L 18.054688 15.308594 "/>
<path style=" stroke:none;fill-rule:nonzero;fill:rgb(100%,100%,100%);fill-opacity:1;" d="M 18.730469 13.839844 L 18.660156 14.054688 L 18.765625 14.089844 "/>
<path style=" stroke:none;fill-rule:nonzero;fill:rgb(100%,100%,100%);fill-opacity:1;" d="M 18.730469 13.839844 L 18.796875 14.054688 L 18.691406 14.089844 "/>
<path style=" stroke:none;fill-rule:nonzero;fill:rgb(100%,100%,100%);fill-opacity:1;" d="M 18.941406 13.996094 L 18.71875 13.996094 L 18.71875 14.105469 "/>
<path style=" stroke:none;fill-rule:nonzero;fill:rgb(100%,100%,100%);fill-opacity:1;" d="M 18.941406 13.996094 L 18.761719 14.125 L 18.695312 14.035156 "/>
<path style=" stroke:none;fill-rule:nonzero;fill:rgb(100%,100%,100%);fill-opacity:1;" d="M 18.515625 13.996094 L 18.695312 14.125 L 18.761719 14.035156 "/>
<path style=" stroke:none;fill-rule:nonzero;fill:rgb(100%,100%,100%);fill-opacity:1;" d="M 18.515625 13.996094 L 18.738281 13.996094 L 18.738281 14.105469 "/>
<path style=" stroke:none;fill-rule:nonzero;fill:rgb(100%,100%,100%);fill-opacity:1;" d="M 18.859375 14.246094 L 18.792969 14.03125 L 18.683594 14.066406 "/>
<path style=" stroke:none;fill-rule:nonzero;fill:rgb(100%,100%,100%);fill-opacity:1;" d="M 18.859375 14.246094 L 18.679688 14.113281 L 18.746094 14.023438 "/>
<path style=" stroke:none;fill-rule:nonzero;fill:rgb(100%,100%,100%);fill-opacity:1;" d="M 18.597656 14.246094 L 18.777344 14.113281 L 18.710938 14.023438 "/>
<path style=" stroke:none;fill-rule:nonzero;fill:rgb(100%,100%,100%);fill-opacity:1;" d="M 18.597656 14.246094 L 18.664062 14.03125 L 18.773438 14.066406 "/>
<path style=" stroke:none;fill-rule:nonzero;fill:rgb(100%,100%,100%);fill-opacity:1;" d="M 18 13.28125 L 17.929688 13.492188 L 18.039062 13.527344 "/>
<path style=" stroke:none;fill-rule:nonzero;fill:rgb(100%,100%,100%);fill-opacity:1;" d="M 18 13.28125 L 18.070312 13.492188 L 17.960938 13.527344 "/>
<path style=" stroke:none;fill-rule:nonzero;fill:rgb(100%,100%,100%);fill-opacity:1;" d="M 18.214844 13.433594 L 17.988281 13.433594 L 17.988281 13.546875 "/>
<path style=" stroke:none;fill-rule:nonzero;fill:rgb(100%,100%,100%);fill-opacity:1;" d="M 18.214844 13.433594 L 18.03125 13.566406 L 17.964844 13.476562 "/>
<path style=" stroke:none;fill-rule:nonzero;fill:rgb(100%,100%,100%);fill-opacity:1;" d="M 17.785156 13.433594 L 17.96875 13.566406 L 18.035156 13.476562 "/>
<path style=" stroke:none;fill-rule:nonzero;fill:rgb(100%,100%,100%);fill-opacity:1;" d="M 17.785156 13.433594 L 18.011719 13.433594 L 18.011719 13.546875 "/>
<path style=" stroke:none;fill-rule:nonzero;fill:rgb(100%,100%,100%);fill-opacity:1;" d="M 18.132812 13.683594 L 18.0625 13.472656 L 17.957031 13.507812 "/>
<path style=" stroke:none;fill-rule:nonzero;fill:rgb(100%,100%,100%);fill-opacity:1;" d="M 18.132812 13.683594 L 17.949219 13.554688 L 18.015625 13.460938 "/>
<path style=" stroke:none;fill-rule:nonzero;fill:rgb(100%,100%,100%);fill-opacity:1;" d="M 17.867188 13.683594 L 18.050781 13.554688 L 17.984375 13.460938 "/>
<path style=" stroke:none;fill-rule:nonzero;fill:rgb(100%,100%,100%);fill-opacity:1;" d="M 17.867188 13.683594 L 17.9375 13.472656 L 18.042969 13.507812 "/>
<path style=" stroke:none;fill-rule:nonzero;fill:rgb(100%,100%,100%);fill-opacity:1;" d="M 17.367188 13.886719 L 17.308594 14.054688 L 17.394531 14.082031 "/>
<path style=" stroke:none;fill-rule:nonzero;fill:rgb(100%,100%,100%);fill-opacity:1;" d="M 17.367188 13.886719 L 17.421875 14.054688 L 17.335938 14.082031 "/>
<path style=" stroke:none;fill-rule:nonzero;fill:rgb(100%,100%,100%);fill-opacity:1;" d="M 17.535156 14.007812 L 17.355469 14.007812 L 17.355469 14.097656 "/>
<path style=" stroke:none;fill-rule:nonzero;fill:rgb(100%,100%,100%);fill-opacity:1;" d="M 17.535156 14.007812 L 17.390625 14.113281 L 17.339844 14.042969 "/>
<path style=" stroke:none;fill-rule:nonzero;fill:rgb(100%,100%,100%);fill-opacity:1;" d="M 17.195312 14.007812 L 17.339844 14.113281 L 17.394531 14.042969 "/>
<path style=" stroke:none;fill-rule:nonzero;fill:rgb(100%,100%,100%);fill-opacity:1;" d="M 17.195312 14.007812 L 17.375 14.007812 L 17.375 14.097656 "/>
<path style=" stroke:none;fill-rule:nonzero;fill:rgb(100%,100%,100%);fill-opacity:1;" d="M 17.472656 14.210938 L 17.414062 14.039062 L 17.332031 14.066406 "/>
<path style=" stroke:none;fill-rule:nonzero;fill:rgb(100%,100%,100%);fill-opacity:1;" d="M 17.472656 14.210938 L 17.324219 14.105469 L 17.378906 14.03125 "/>
<path style=" stroke:none;fill-rule:nonzero;fill:rgb(100%,100%,100%);fill-opacity:1;" d="M 17.261719 14.210938 L 17.40625 14.105469 L 17.351562 14.03125 "/>
<path style=" stroke:none;fill-rule:nonzero;fill:rgb(100%,100%,100%);fill-opacity:1;" d="M 17.261719 14.210938 L 17.316406 14.039062 L 17.402344 14.066406 "/>
<path style=" stroke:none;fill-rule:nonzero;fill:rgb(100%,100%,100%);fill-opacity:1;" d="M 17.683594 14.371094 L 17.644531 14.492188 L 17.703125 14.511719 "/>
<path style=" stroke:none;fill-rule:nonzero;fill:rgb(100%,100%,100%);fill-opacity:1;" d="M 17.683594 14.371094 L 17.722656 14.492188 L 17.660156 14.511719 "/>
<path style=" stroke:none;fill-rule:nonzero;fill:rgb(100%,100%,100%);fill-opacity:1;" d="M 17.804688 14.457031 L 17.675781 14.457031 L 17.675781 14.523438 "/>
<path style=" stroke:none;fill-rule:nonzero;fill:rgb(100%,100%,100%);fill-opacity:1;" d="M 17.804688 14.457031 L 17.699219 14.535156 L 17.664062 14.480469 "/>
<path style=" stroke:none;fill-rule:nonzero;fill:rgb(100%,100%,100%);fill-opacity:1;" d="M 17.5625 14.457031 L 17.664062 14.535156 L 17.703125 14.480469 "/>
<path style=" stroke:none;fill-rule:nonzero;fill:rgb(100%,100%,100%);fill-opacity:1;" d="M 17.5625 14.457031 L 17.6875 14.457031 L 17.6875 14.523438 "/>
<path style=" stroke:none;fill-rule:nonzero;fill:rgb(100%,100%,100%);fill-opacity:1;" d="M 17.757812 14.601562 L 17.71875 14.480469 L 17.65625 14.5 "/>
<path style=" stroke:none;fill-rule:nonzero;fill:rgb(100%,100%,100%);fill-opacity:1;" d="M 17.757812 14.601562 L 17.65625 14.527344 L 17.691406 14.476562 "/>
<path style=" stroke:none;fill-rule:nonzero;fill:rgb(100%,100%,100%);fill-opacity:1;" d="M 17.605469 14.601562 L 17.710938 14.527344 L 17.671875 14.476562 "/>
<path style=" stroke:none;fill-rule:nonzero;fill:rgb(100%,100%,100%);fill-opacity:1;" d="M 17.605469 14.601562 L 17.648438 14.480469 L 17.707031 14.5 "/>
<path style=" stroke:none;fill-rule:nonzero;fill:rgb(100%,100%,100%);fill-opacity:1;" d="M 19.886719 16.484375 L 19.816406 16.699219 L 19.921875 16.734375 "/>
<path style=" stroke:none;fill-rule:nonzero;fill:rgb(100%,100%,100%);fill-opacity:1;" d="M 19.886719 16.484375 L 19.957031 16.699219 L 19.847656 16.734375 "/>
<path style=" stroke:none;fill-rule:nonzero;fill:rgb(100%,100%,100%);fill-opacity:1;" d="M 20.101562 16.640625 L 19.875 16.640625 L 19.875 16.75 "/>
<path style=" stroke:none;fill-rule:nonzero;fill:rgb(100%,100%,100%);fill-opacity:1;" d="M 20.101562 16.640625 L 19.917969 16.769531 L 19.851562 16.679688 "/>
<path style=" stroke:none;fill-rule:nonzero;fill:rgb(100%,100%,100%);fill-opacity:1;" d="M 19.671875 16.640625 L 19.855469 16.769531 L 19.917969 16.679688 "/>
<path style=" stroke:none;fill-rule:nonzero;fill:rgb(100%,100%,100%);fill-opacity:1;" d="M 19.671875 16.640625 L 19.898438 16.640625 L 19.898438 16.75 "/>
<path style=" stroke:none;fill-rule:nonzero;fill:rgb(100%,100%,100%);fill-opacity:1;" d="M 20.019531 16.890625 L 19.949219 16.675781 L 19.839844 16.710938 "/>
<path style=" stroke:none;fill-rule:nonzero;fill:rgb(100%,100%,100%);fill-opacity:1;" d="M 20.019531 16.890625 L 19.835938 16.757812 L 19.902344 16.667969 "/>
<path style=" stroke:none;fill-rule:nonzero;fill:rgb(100%,100%,100%);fill-opacity:1;" d="M 19.753906 16.890625 L 19.933594 16.757812 L 19.871094 16.667969 "/>
<path style=" stroke:none;fill-rule:nonzero;fill:rgb(100%,100%,100%);fill-opacity:1;" d="M 19.753906 16.890625 L 19.824219 16.675781 L 19.929688 16.710938 "/>
<path style=" stroke:none;fill-rule:nonzero;fill:rgb(100%,100%,100%);fill-opacity:1;" d="M 20.425781 15.976562 L 20.371094 16.148438 L 20.457031 16.175781 "/>
<path style=" stroke:none;fill-rule:nonzero;fill:rgb(100%,100%,100%);fill-opacity:1;" d="M 20.425781 15.976562 L 20.480469 16.148438 L 20.394531 16.175781 "/>
<path style=" stroke:none;fill-rule:nonzero;fill:rgb(100%,100%,100%);fill-opacity:1;" d="M 20.597656 16.101562 L 20.417969 16.101562 L 20.417969 16.191406 "/>
<path style=" stroke:none;fill-rule:nonzero;fill:rgb(100%,100%,100%);fill-opacity:1;" d="M 20.597656 16.101562 L 20.453125 16.207031 L 20.398438 16.132812 "/>
<path style=" stroke:none;fill-rule:nonzero;fill:rgb(100%,100%,100%);fill-opacity:1;" d="M 20.253906 16.101562 L 20.398438 16.207031 L 20.453125 16.132812 "/>
<path style=" stroke:none;fill-rule:nonzero;fill:rgb(100%,100%,100%);fill-opacity:1;" d="M 20.253906 16.101562 L 20.433594 16.101562 L 20.433594 16.191406 "/>
<path style=" stroke:none;fill-rule:nonzero;fill:rgb(100%,100%,100%);fill-opacity:1;" d="M 20.53125 16.300781 L 20.476562 16.132812 L 20.390625 16.160156 "/>
<path style=" stroke:none;fill-rule:nonzero;fill:rgb(100%,100%,100%);fill-opacity:1;" d="M 20.53125 16.300781 L 20.386719 16.195312 L 20.4375 16.125 "/>
<path style=" stroke:none;fill-rule:nonzero;fill:rgb(100%,100%,100%);fill-opacity:1;" d="M 20.320312 16.300781 L 20.464844 16.195312 L 20.414062 16.125 "/>
<path style=" stroke:none;fill-rule:nonzero;fill:rgb(100%,100%,100%);fill-opacity:1;" d="M 20.320312 16.300781 L 20.375 16.132812 L 20.460938 16.160156 "/>
<path style=" stroke:none;fill-rule:nonzero;fill:rgb(100%,100%,100%);fill-opacity:1;" d="M 19.386719 15.824219 L 19.332031 15.996094 L 19.417969 16.023438 "/>
<path style=" stroke:none;fill-rule:nonzero;fill:rgb(100%,100%,100%);fill-opacity:1;" d="M 19.386719 15.824219 L 19.445312 15.996094 L 19.359375 16.023438 "/>
<path style=" stroke:none;fill-rule:nonzero;fill:rgb(100%,100%,100%);fill-opacity:1;" d="M 19.558594 15.949219 L 19.378906 15.949219 L 19.378906 16.039062 "/>
<path style=" stroke:none;fill-rule:nonzero;fill:rgb(100%,100%,100%);fill-opacity:1;" d="M 19.558594 15.949219 L 19.414062 16.054688 L 19.359375 15.980469 "/>
<path style=" stroke:none;fill-rule:nonzero;fill:rgb(100%,100%,100%);fill-opacity:1;" d="M 19.21875 15.949219 L 19.363281 16.054688 L 19.414062 15.980469 "/>
<path style=" stroke:none;fill-rule:nonzero;fill:rgb(100%,100%,100%);fill-opacity:1;" d="M 19.21875 15.949219 L 19.398438 15.949219 L 19.398438 16.039062 "/>
<path style=" stroke:none;fill-rule:nonzero;fill:rgb(100%,100%,100%);fill-opacity:1;" d="M 19.496094 16.148438 L 19.4375 15.976562 L 19.351562 16.003906 "/>
<path style=" stroke:none;fill-rule:nonzero;fill:rgb(100%,100%,100%);fill-opacity:1;" d="M 19.496094 16.148438 L 19.347656 16.042969 L 19.402344 15.96875 "/>
<path style=" stroke:none;fill-rule:nonzero;fill:rgb(100%,100%,100%);fill-opacity:1;" d="M 19.28125 16.148438 L 19.429688 16.042969 L 19.375 15.96875 "/>
<path style=" stroke:none;fill-rule:nonzero;fill:rgb(100%,100%,100%);fill-opacity:1;" d="M 19.28125 16.148438 L 19.339844 15.976562 L 19.425781 16.003906 "/>
<path style=" stroke:none;fill-rule:nonzero;fill:rgb(100%,100%,100%);fill-opacity:1;" d="M 15.472656 15.546875 L 15.386719 15.804688 L 15.515625 15.84375 "/>
<path style=" stroke:none;fill-rule:nonzero;fill:rgb(100%,100%,100%);fill-opacity:1;" d="M 15.472656 15.546875 L 15.554688 15.804688 L 15.425781 15.84375 "/>
<path style=" stroke:none;fill-rule:nonzero;fill:rgb(100%,100%,100%);fill-opacity:1;" d="M 15.726562 15.734375 L 15.457031 15.734375 L 15.457031 15.867188 "/>
<path style=" stroke:none;fill-rule:nonzero;fill:rgb(100%,100%,100%);fill-opacity:1;" d="M 15.726562 15.734375 L 15.511719 15.890625 L 15.429688 15.78125 "/>
<path style=" stroke:none;fill-rule:nonzero;fill:rgb(100%,100%,100%);fill-opacity:1;" d="M 15.214844 15.734375 L 15.433594 15.890625 L 15.511719 15.78125 "/>
<path style=" stroke:none;fill-rule:nonzero;fill:rgb(100%,100%,100%);fill-opacity:1;" d="M 15.214844 15.734375 L 15.484375 15.734375 L 15.484375 15.867188 "/>
<path style=" stroke:none;fill-rule:nonzero;fill:rgb(100%,100%,100%);fill-opacity:1;" d="M 15.628906 16.03125 L 15.546875 15.777344 L 15.417969 15.820312 "/>
<path style=" stroke:none;fill-rule:nonzero;fill:rgb(100%,100%,100%);fill-opacity:1;" d="M 15.628906 16.03125 L 15.410156 15.875 L 15.492188 15.765625 "/>
<path style=" stroke:none;fill-rule:nonzero;fill:rgb(100%,100%,100%);fill-opacity:1;" d="M 15.3125 16.03125 L 15.53125 15.875 L 15.453125 15.765625 "/>
<path style=" stroke:none;fill-rule:nonzero;fill:rgb(100%,100%,100%);fill-opacity:1;" d="M 15.3125 16.03125 L 15.394531 15.777344 L 15.523438 15.820312 "/>
<path style=" stroke:none;fill-rule:nonzero;fill:rgb(100%,100%,100%);fill-opacity:1;" d="M 18 17.300781 L 17.972656 17.386719 L 18.015625 17.398438 "/>
<path style=" stroke:none;fill-rule:nonzero;fill:rgb(100%,100%,100%);fill-opacity:1;" d="M 18 17.300781 L 18.027344 17.386719 L 17.984375 17.398438 "/>
<path style=" stroke:none;fill-rule:nonzero;fill:rgb(100%,100%,100%);fill-opacity:1;" d="M 18.085938 17.363281 L 17.996094 17.363281 L 17.996094 17.40625 "/>
<path style=" stroke:none;fill-rule:nonzero;fill:rgb(100%,100%,100%);fill-opacity:1;" d="M 18.085938 17.363281 L 18.011719 17.414062 L 17.988281 17.378906 "/>
<path style=" stroke:none;fill-rule:nonzero;fill:rgb(100%,100%,100%);fill-opacity:1;" d="M 17.914062 17.363281 L 17.988281 17.414062 L 18.011719 17.378906 "/>
<path style=" stroke:none;fill-rule:nonzero;fill:rgb(100%,100%,100%);fill-opacity:1;" d="M 17.914062 17.363281 L 18.003906 17.363281 L 18.003906 17.40625 "/>
<path style=" stroke:none;fill-rule:nonzero;fill:rgb(100%,100%,100%);fill-opacity:1;" d="M 18.054688 17.460938 L 18.023438 17.375 L 17.980469 17.390625 "/>
<path style=" stroke:none;fill-rule:nonzero;fill:rgb(100%,100%,100%);fill-opacity:1;" d="M 18.054688 17.460938 L 17.980469 17.410156 L 18.007812 17.375 "/>
<path style=" stroke:none;fill-rule:nonzero;fill:rgb(100%,100%,100%);fill-opacity:1;" d="M 17.945312 17.460938 L 18.019531 17.410156 L 17.992188 17.375 "/>
<path style=" stroke:none;fill-rule:nonzero;fill:rgb(100%,100%,100%);fill-opacity:1;" d="M 17.945312 17.460938 L 17.976562 17.375 L 18.019531 17.390625 "/>
</g>
</svg>
