<?xml version="1.0" encoding="UTF-8"?>
<svg xmlns="http://www.w3.org/2000/svg" xmlns:xlink="http://www.w3.org/1999/xlink" width="50pt" height="25pt" viewBox="0 0 50 25" version="1.1">
<g id="surface1">
<rect x="0" y="0" width="50" height="25" style="fill:rgb(96.862745%,87.843137%,9.019608%);fill-opacity:1;stroke:none;"/>
<path style=" stroke:none;fill-rule:nonzero;fill:rgb(100%,100%,100%);fill-opacity:1;" d="M 0 1.734375 L 0 12.847656 L 50 18.054688 L 50 12.152344 Z M 0 1.734375 "/>
<path style=" stroke:none;fill-rule:nonzero;fill:rgb(0%,0%,0%);fill-opacity:1;" d="M 0 7.640625 L 0 12.847656 L 50 23.265625 L 50 18.054688 Z M 0 7.640625 "/>
<path style=" stroke:none;fill-rule:nonzero;fill:rgb(81.176471%,6.666667%,14.901961%);fill-opacity:1;" d="M 24.15625 19.78125 C 23.484375 19.691406 22.867188 19.480469 22.441406 19.1875 C 22.359375 19.128906 22.28125 19.082031 22.269531 19.082031 C 22.253906 19.082031 22.246094 19.144531 22.246094 19.222656 C 22.246094 19.445312 22.15625 19.554688 21.933594 19.613281 C 21.71875 19.667969 21.390625 19.558594 21.128906 19.339844 C 20.855469 19.109375 20.539062 18.9375 20.269531 18.867188 C 20.050781 18.808594 19.757812 18.820312 19.546875 18.890625 C 19.445312 18.921875 19.335938 18.96875 19.296875 18.992188 C 19.257812 19.019531 19.214844 19.039062 19.199219 19.039062 C 19.164062 19.039062 19.167969 18.800781 19.207031 18.722656 C 19.257812 18.625 19.386719 18.523438 19.535156 18.472656 C 19.609375 18.445312 19.671875 18.410156 19.671875 18.394531 C 19.671875 18.378906 19.644531 18.320312 19.617188 18.265625 C 19.515625 18.089844 19.554688 17.917969 19.730469 17.785156 C 19.910156 17.648438 20.214844 17.625 20.484375 17.726562 C 20.554688 17.75 20.617188 17.773438 20.625 17.773438 C 20.660156 17.773438 20.640625 17.722656 20.542969 17.582031 C 20.429688 17.417969 20.40625 17.335938 20.421875 17.140625 C 20.4375 16.890625 20.640625 16.6875 20.886719 16.671875 C 21.089844 16.65625 21.214844 16.722656 21.515625 17.007812 C 22.40625 17.859375 23.375 18.324219 24.503906 18.453125 C 24.789062 18.484375 25.363281 18.46875 25.699219 18.417969 C 26.714844 18.261719 27.738281 17.753906 28.539062 17 C 28.757812 16.789062 28.867188 16.734375 29.046875 16.734375 C 29.207031 16.734375 29.316406 16.785156 29.429688 16.910156 C 29.53125 17.023438 29.566406 17.132812 29.558594 17.308594 C 29.550781 17.417969 29.53125 17.472656 29.464844 17.582031 C 29.367188 17.742188 29.382812 17.753906 29.578125 17.679688 C 29.839844 17.578125 30.164062 17.625 30.335938 17.789062 C 30.488281 17.9375 30.503906 18.082031 30.382812 18.277344 C 30.339844 18.351562 30.304688 18.417969 30.304688 18.429688 C 30.304688 18.449219 30.339844 18.460938 30.496094 18.484375 C 30.707031 18.519531 30.824219 18.671875 30.824219 18.910156 C 30.824219 18.980469 30.816406 19.039062 30.804688 19.039062 C 30.796875 19.039062 30.714844 19.007812 30.628906 18.972656 C 30.386719 18.871094 30.25 18.847656 29.96875 18.847656 C 29.75 18.851562 29.675781 18.859375 29.527344 18.910156 C 29.296875 18.984375 29.050781 19.128906 28.851562 19.308594 C 28.628906 19.507812 28.488281 19.566406 28.273438 19.566406 C 28.074219 19.5625 27.9375 19.507812 27.863281 19.390625 C 27.828125 19.332031 27.820312 19.292969 27.832031 19.15625 C 27.835938 19.066406 27.835938 18.992188 27.828125 18.992188 C 27.820312 18.992188 27.742188 19.042969 27.65625 19.101562 C 27.425781 19.261719 27.277344 19.339844 27.011719 19.445312 C 26.207031 19.761719 25.046875 19.898438 24.15625 19.78125 Z M 24.15625 19.78125 "/>
<path style=" stroke:none;fill-rule:nonzero;fill:rgb(81.176471%,6.666667%,14.901961%);fill-opacity:1;" d="M 24.527344 18.234375 C 23.1875 18.105469 21.90625 17.410156 21.125 16.300781 C 20.277344 15.148438 20.011719 13.625 20.269531 12.230469 C 20.40625 11.597656 20.683594 10.960938 21.15625 10.511719 C 20.78125 11.308594 20.652344 12.226562 20.855469 13.089844 C 21.167969 14.816406 22.625 16.28125 24.375 16.535156 C 25.0625 16.734375 25.777344 16.523438 26.4375 16.308594 C 27.894531 15.792969 29.003906 14.414062 29.140625 12.867188 C 29.253906 12.03125 29.128906 11.164062 28.75 10.40625 C 28.964844 10.519531 29.234375 10.964844 29.394531 11.261719 C 29.953125 12.339844 29.976562 13.628906 29.648438 14.777344 C 29.207031 16.242188 28.089844 17.519531 26.609375 17.984375 C 25.941406 18.207031 25.226562 18.273438 24.527344 18.234375 Z M 24.527344 18.234375 "/>
<path style=" stroke:none;fill-rule:nonzero;fill:rgb(81.176471%,6.666667%,14.901961%);fill-opacity:1;" d="M 17.777344 16.316406 C 17.691406 16.300781 17.59375 16.386719 17.628906 16.480469 C 17.691406 16.570312 17.800781 16.613281 17.898438 16.660156 C 18.132812 16.753906 18.390625 16.789062 18.644531 16.785156 C 18.554688 16.785156 18.671875 16.785156 18.707031 16.785156 C 18.90625 16.785156 19.105469 16.75 19.292969 16.679688 C 19.398438 16.644531 19.53125 16.609375 19.574219 16.496094 C 19.617188 16.417969 19.542969 16.34375 19.464844 16.359375 C 19.359375 16.382812 19.257812 16.429688 19.152344 16.457031 C 18.925781 16.523438 18.683594 16.546875 18.449219 16.527344 C 18.273438 16.507812 18.105469 16.453125 17.949219 16.382812 C 17.890625 16.359375 17.839844 16.324219 17.777344 16.316406 Z M 17.777344 16.316406 "/>
<path style=" stroke:none;fill-rule:nonzero;fill:rgb(81.176471%,6.666667%,14.901961%);fill-opacity:1;" d="M 17.875 15.957031 C 17.789062 15.941406 17.710938 16.042969 17.746094 16.125 C 17.816406 16.226562 17.929688 16.277344 18.039062 16.324219 C 18.222656 16.398438 18.425781 16.429688 18.628906 16.421875 C 18.550781 16.421875 18.652344 16.425781 18.683594 16.421875 C 18.851562 16.425781 19.023438 16.390625 19.179688 16.324219 C 19.277344 16.289062 19.394531 16.25 19.433594 16.144531 C 19.464844 16.085938 19.441406 16.003906 19.367188 16 C 19.300781 15.996094 19.242188 16.039062 19.179688 16.054688 C 18.957031 16.148438 18.707031 16.1875 18.464844 16.167969 C 18.3125 16.148438 18.167969 16.09375 18.03125 16.027344 C 17.980469 16.003906 17.933594 15.964844 17.875 15.957031 Z M 17.875 15.957031 "/>
<path style=" stroke:none;fill-rule:nonzero;fill:rgb(81.176471%,6.666667%,14.901961%);fill-opacity:1;" d="M 17.996094 15.609375 C 17.917969 15.601562 17.867188 15.6875 17.878906 15.753906 C 17.890625 15.816406 17.945312 15.855469 17.992188 15.894531 C 18.175781 16.027344 18.410156 16.085938 18.636719 16.078125 C 18.546875 16.078125 18.753906 16.078125 18.691406 16.078125 C 18.835938 16.078125 18.976562 16.042969 19.109375 15.980469 C 19.195312 15.941406 19.296875 15.898438 19.324219 15.800781 C 19.339844 15.753906 19.347656 15.6875 19.296875 15.664062 C 19.242188 15.632812 19.1875 15.679688 19.136719 15.699219 C 18.972656 15.78125 18.785156 15.828125 18.601562 15.828125 C 18.4375 15.832031 18.285156 15.765625 18.144531 15.691406 C 18.09375 15.667969 18.054688 15.621094 17.996094 15.609375 Z M 17.996094 15.609375 "/>
<path style=" stroke:none;fill-rule:nonzero;fill:rgb(81.176471%,6.666667%,14.901961%);fill-opacity:1;" d="M 16.71875 10.511719 C 16.605469 10.625 16.691406 10.832031 16.6875 10.980469 C 16.746094 11.4375 16.816406 11.898438 16.988281 12.332031 C 17.199219 12.75 17.640625 12.976562 17.910156 13.347656 C 18.007812 13.527344 17.972656 13.742188 17.992188 13.9375 C 18.007812 14.46875 18.003906 15.003906 17.992188 15.539062 C 18.234375 15.660156 18.496094 15.78125 18.773438 15.734375 C 18.9375 15.695312 19.242188 15.671875 19.277344 15.507812 C 19.265625 14.585938 19.253906 13.664062 19.242188 12.746094 C 19.148438 12.464844 18.863281 12.316406 18.648438 12.136719 C 18.472656 11.964844 18.304688 11.777344 18.15625 11.578125 C 18.066406 11.425781 17.707031 11.371094 17.835938 11.636719 C 17.914062 11.867188 18.105469 12.039062 18.152344 12.28125 C 18.164062 12.414062 18.324219 12.660156 18.1875 12.738281 C 18.101562 12.589844 17.976562 12.46875 17.816406 12.390625 C 17.664062 12.277344 17.410156 12.230469 17.351562 12.027344 C 17.3125 11.738281 17.164062 11.480469 16.976562 11.265625 C 17.023438 11.003906 16.976562 10.683594 16.75 10.519531 Z M 16.71875 10.511719 "/>
<path style=" stroke:none;fill-rule:nonzero;fill:rgb(81.176471%,6.666667%,14.901961%);fill-opacity:1;" d="M 17.0625 10.5625 C 16.960938 10.578125 16.964844 10.710938 17.011719 10.777344 C 17.0625 10.925781 17.078125 11.089844 17.050781 11.246094 C 17.230469 11.457031 17.375 11.714844 17.417969 11.996094 C 17.417969 12.101562 17.527344 12.136719 17.601562 12.1875 C 17.769531 12.296875 17.960938 12.375 18.109375 12.507812 C 18.140625 12.542969 18.167969 12.578125 18.144531 12.511719 C 18.121094 12.421875 18.109375 12.324219 18.039062 12.257812 C 17.945312 12.15625 17.824219 12.0625 17.6875 12.035156 C 17.675781 11.890625 17.609375 11.757812 17.542969 11.632812 C 17.476562 11.511719 17.402344 11.382812 17.28125 11.304688 C 17.289062 11.09375 17.285156 10.871094 17.191406 10.675781 C 17.167969 10.625 17.128906 10.566406 17.0625 10.5625 Z M 17.0625 10.5625 "/>
<path style=" stroke:none;fill-rule:nonzero;fill:rgb(81.176471%,6.666667%,14.901961%);fill-opacity:1;" d="M 17.351562 10.648438 C 17.28125 10.667969 17.292969 10.757812 17.316406 10.808594 C 17.351562 10.960938 17.355469 11.113281 17.351562 11.269531 C 17.484375 11.371094 17.566406 11.523438 17.640625 11.671875 C 17.6875 11.769531 17.734375 11.871094 17.75 11.976562 C 17.859375 12.011719 17.953125 12.082031 18.035156 12.15625 C 18.003906 12.054688 17.929688 11.976562 17.878906 11.886719 C 17.824219 11.789062 17.773438 11.691406 17.75 11.582031 C 17.648438 11.472656 17.589844 11.320312 17.613281 11.167969 C 17.617188 11.003906 17.566406 10.832031 17.453125 10.707031 C 17.425781 10.679688 17.394531 10.648438 17.351562 10.648438 Z M 17.351562 10.648438 "/>
<path style=" stroke:none;fill-rule:nonzero;fill:rgb(81.176471%,6.666667%,14.901961%);fill-opacity:1;" d="M 17.679688 10.695312 C 17.640625 10.699219 17.617188 10.738281 17.59375 10.769531 C 17.585938 10.796875 17.625 10.832031 17.628906 10.863281 C 17.675781 10.976562 17.695312 11.101562 17.679688 11.226562 C 17.675781 11.3125 17.707031 11.398438 17.753906 11.472656 C 17.765625 11.417969 17.816406 11.378906 17.871094 11.371094 C 17.890625 11.367188 17.917969 11.378906 17.90625 11.347656 C 17.894531 11.183594 17.867188 11.015625 17.808594 10.859375 C 17.789062 10.800781 17.761719 10.742188 17.714844 10.703125 C 17.703125 10.699219 17.691406 10.691406 17.679688 10.695312 Z M 17.679688 10.695312 "/>
<path style=" stroke:none;fill-rule:nonzero;fill:rgb(81.176471%,6.666667%,14.901961%);fill-opacity:1;" d="M 32.222656 16.316406 C 32.308594 16.300781 32.40625 16.386719 32.371094 16.480469 C 32.308594 16.570312 32.199219 16.613281 32.101562 16.660156 C 31.867188 16.753906 31.609375 16.789062 31.355469 16.785156 C 31.445312 16.785156 31.328125 16.785156 31.292969 16.785156 C 31.09375 16.785156 30.894531 16.75 30.707031 16.679688 C 30.601562 16.644531 30.46875 16.609375 30.425781 16.496094 C 30.382812 16.417969 30.457031 16.34375 30.535156 16.359375 C 30.640625 16.382812 30.742188 16.429688 30.847656 16.457031 C 31.074219 16.523438 31.316406 16.546875 31.550781 16.527344 C 31.726562 16.507812 31.894531 16.453125 32.050781 16.382812 C 32.109375 16.359375 32.160156 16.324219 32.222656 16.316406 Z M 32.222656 16.316406 "/>
<path style=" stroke:none;fill-rule:nonzero;fill:rgb(81.176471%,6.666667%,14.901961%);fill-opacity:1;" d="M 32.125 15.957031 C 32.210938 15.941406 32.289062 16.042969 32.253906 16.125 C 32.183594 16.226562 32.070312 16.277344 31.960938 16.324219 C 31.777344 16.398438 31.574219 16.429688 31.371094 16.421875 C 31.449219 16.421875 31.347656 16.425781 31.316406 16.421875 C 31.148438 16.425781 30.976562 16.390625 30.820312 16.324219 C 30.722656 16.289062 30.605469 16.25 30.566406 16.144531 C 30.535156 16.085938 30.558594 16.003906 30.632812 16 C 30.699219 15.996094 30.757812 16.039062 30.820312 16.054688 C 31.042969 16.148438 31.292969 16.1875 31.535156 16.167969 C 31.6875 16.148438 31.832031 16.09375 31.96875 16.027344 C 32.019531 16.003906 32.066406 15.964844 32.125 15.957031 Z M 32.125 15.957031 "/>
<path style=" stroke:none;fill-rule:nonzero;fill:rgb(81.176471%,6.666667%,14.901961%);fill-opacity:1;" d="M 32.003906 15.609375 C 32.082031 15.601562 32.132812 15.6875 32.121094 15.753906 C 32.109375 15.816406 32.054688 15.855469 32.007812 15.894531 C 31.824219 16.027344 31.589844 16.085938 31.363281 16.078125 C 31.453125 16.078125 31.246094 16.078125 31.308594 16.078125 C 31.164062 16.078125 31.023438 16.042969 30.890625 15.980469 C 30.804688 15.941406 30.703125 15.898438 30.675781 15.800781 C 30.660156 15.753906 30.652344 15.6875 30.703125 15.664062 C 30.757812 15.632812 30.8125 15.679688 30.863281 15.699219 C 31.027344 15.78125 31.214844 15.828125 31.398438 15.828125 C 31.5625 15.832031 31.714844 15.765625 31.855469 15.691406 C 31.90625 15.667969 31.945312 15.621094 32.003906 15.609375 Z M 32.003906 15.609375 "/>
<path style=" stroke:none;fill-rule:nonzero;fill:rgb(81.176471%,6.666667%,14.901961%);fill-opacity:1;" d="M 33.28125 10.511719 C 33.394531 10.625 33.308594 10.832031 33.3125 10.980469 C 33.253906 11.4375 33.183594 11.898438 33.011719 12.332031 C 32.800781 12.75 32.359375 12.976562 32.089844 13.347656 C 31.992188 13.527344 32.027344 13.742188 32.007812 13.9375 C 31.992188 14.46875 31.996094 15.003906 32.007812 15.539062 C 31.765625 15.660156 31.503906 15.78125 31.226562 15.734375 C 31.0625 15.695312 30.757812 15.671875 30.722656 15.507812 C 30.734375 14.585938 30.746094 13.664062 30.757812 12.746094 C 30.851562 12.464844 31.136719 12.316406 31.351562 12.136719 C 31.527344 11.964844 31.695312 11.777344 31.84375 11.578125 C 31.933594 11.425781 32.292969 11.371094 32.164062 11.636719 C 32.085938 11.867188 31.894531 12.039062 31.847656 12.28125 C 31.835938 12.414062 31.675781 12.660156 31.8125 12.738281 C 31.898438 12.589844 32.023438 12.46875 32.183594 12.390625 C 32.335938 12.277344 32.589844 12.230469 32.648438 12.027344 C 32.6875 11.738281 32.835938 11.480469 33.023438 11.265625 C 32.976562 11.003906 33.023438 10.683594 33.25 10.519531 Z M 33.28125 10.511719 "/>
<path style=" stroke:none;fill-rule:nonzero;fill:rgb(81.176471%,6.666667%,14.901961%);fill-opacity:1;" d="M 32.9375 10.5625 C 33.039062 10.578125 33.035156 10.710938 32.988281 10.777344 C 32.9375 10.925781 32.921875 11.089844 32.949219 11.246094 C 32.769531 11.457031 32.625 11.714844 32.582031 11.996094 C 32.582031 12.101562 32.472656 12.136719 32.398438 12.1875 C 32.230469 12.296875 32.039062 12.375 31.890625 12.507812 C 31.859375 12.542969 31.832031 12.578125 31.855469 12.511719 C 31.878906 12.421875 31.890625 12.324219 31.960938 12.257812 C 32.054688 12.15625 32.175781 12.0625 32.3125 12.035156 C 32.324219 11.890625 32.390625 11.757812 32.457031 11.632812 C 32.523438 11.511719 32.597656 11.382812 32.71875 11.304688 C 32.710938 11.09375 32.714844 10.871094 32.808594 10.675781 C 32.832031 10.625 32.871094 10.566406 32.9375 10.5625 Z M 32.9375 10.5625 "/>
<path style=" stroke:none;fill-rule:nonzero;fill:rgb(81.176471%,6.666667%,14.901961%);fill-opacity:1;" d="M 32.648438 10.648438 C 32.71875 10.667969 32.707031 10.757812 32.683594 10.808594 C 32.648438 10.960938 32.644531 11.113281 32.648438 11.269531 C 32.515625 11.371094 32.433594 11.523438 32.359375 11.671875 C 32.3125 11.769531 32.265625 11.871094 32.25 11.976562 C 32.140625 12.011719 32.046875 12.082031 31.964844 12.15625 C 31.996094 12.054688 32.070312 11.976562 32.121094 11.886719 C 32.175781 11.789062 32.226562 11.691406 32.25 11.582031 C 32.351562 11.472656 32.410156 11.320312 32.386719 11.167969 C 32.382812 11.003906 32.433594 10.832031 32.546875 10.707031 C 32.574219 10.679688 32.605469 10.648438 32.648438 10.648438 Z M 32.648438 10.648438 "/>
<path style=" stroke:none;fill-rule:nonzero;fill:rgb(81.176471%,6.666667%,14.901961%);fill-opacity:1;" d="M 32.320312 10.695312 C 32.359375 10.699219 32.382812 10.738281 32.40625 10.769531 C 32.414062 10.796875 32.375 10.832031 32.371094 10.863281 C 32.324219 10.976562 32.304688 11.101562 32.320312 11.226562 C 32.324219 11.3125 32.292969 11.398438 32.246094 11.472656 C 32.234375 11.417969 32.183594 11.378906 32.128906 11.371094 C 32.109375 11.367188 32.082031 11.378906 32.09375 11.347656 C 32.105469 11.183594 32.132812 11.015625 32.191406 10.859375 C 32.210938 10.800781 32.238281 10.742188 32.285156 10.703125 C 32.296875 10.699219 32.308594 10.691406 32.320312 10.695312 Z M 32.320312 10.695312 "/>
<path style=" stroke:none;fill-rule:nonzero;fill:rgb(81.176471%,6.666667%,14.901961%);fill-opacity:1;" d="M 24.851562 16.527344 C 24.382812 16.484375 23.957031 16.140625 23.8125 15.695312 C 23.820312 15.617188 23.917969 15.738281 23.964844 15.746094 C 24.046875 15.792969 24.140625 15.832031 24.238281 15.835938 C 24.363281 15.890625 24.4375 16.011719 24.554688 16.074219 C 24.609375 16.117188 24.804688 16.203125 24.769531 16.066406 C 24.722656 15.996094 24.691406 15.90625 24.730469 15.824219 C 24.796875 15.679688 24.898438 15.554688 25 15.433594 C 25.074219 15.410156 25.125 15.558594 25.175781 15.605469 C 25.25 15.71875 25.339844 15.859375 25.296875 16 C 25.253906 16.054688 25.226562 16.210938 25.339844 16.15625 C 25.480469 16.097656 25.59375 15.992188 25.710938 15.898438 C 25.8125 15.828125 25.941406 15.820312 26.046875 15.757812 C 26.097656 15.746094 26.199219 15.648438 26.21875 15.703125 C 26.164062 15.859375 26.066406 16 25.960938 16.125 C 25.792969 16.320312 25.5625 16.464844 25.308594 16.503906 C 25.15625 16.53125 25.003906 16.539062 24.851562 16.527344 Z M 24.851562 16.527344 "/>
<path style=" stroke:none;fill-rule:nonzero;fill:rgb(81.176471%,6.666667%,14.901961%);fill-opacity:1;" d="M 25.398438 15.980469 C 25.410156 15.886719 25.390625 15.789062 25.339844 15.703125 C 25.265625 15.554688 25.164062 15.421875 25.0625 15.289062 C 24.964844 15.234375 24.914062 15.417969 24.847656 15.46875 C 24.75 15.617188 24.625 15.769531 24.621094 15.957031 C 24.5625 16.042969 24.460938 15.886719 24.414062 15.832031 C 24.328125 15.710938 24.265625 15.570312 24.273438 15.417969 C 24.265625 15.171875 24.3125 14.929688 24.402344 14.703125 C 24.46875 14.507812 24.578125 14.320312 24.566406 14.109375 C 24.574219 13.949219 24.542969 13.773438 24.410156 13.664062 C 24.289062 13.570312 24.492188 13.550781 24.554688 13.597656 C 24.664062 13.605469 24.726562 13.789062 24.824219 13.742188 C 24.867188 13.648438 24.875 13.535156 24.957031 13.460938 C 25.039062 13.351562 25.121094 13.507812 25.148438 13.582031 C 25.207031 13.648438 25.148438 13.808594 25.238281 13.8125 C 25.351562 13.734375 25.429688 13.601562 25.574219 13.574219 C 25.628906 13.542969 25.730469 13.570312 25.652344 13.636719 C 25.546875 13.734375 25.457031 13.859375 25.4375 14.003906 C 25.40625 14.191406 25.453125 14.375 25.53125 14.542969 C 25.6875 14.867188 25.804688 15.238281 25.726562 15.601562 C 25.691406 15.761719 25.582031 15.898438 25.449219 15.992188 C 25.433594 16.003906 25.40625 16.003906 25.398438 15.980469 Z M 25.398438 15.980469 "/>
<path style=" stroke:none;fill-rule:nonzero;fill:rgb(81.176471%,6.666667%,14.901961%);fill-opacity:1;" d="M 25.234375 13.527344 C 25.183594 13.4375 25.121094 13.347656 25.035156 13.285156 C 24.953125 13.285156 24.902344 13.390625 24.847656 13.445312 C 24.808594 13.519531 24.757812 13.640625 24.664062 13.542969 C 24.507812 13.453125 24.480469 13.257812 24.480469 13.09375 C 24.472656 12.832031 24.578125 12.585938 24.671875 12.34375 C 24.734375 12.195312 24.71875 12.027344 24.679688 11.871094 C 24.636719 11.695312 24.492188 11.574219 24.382812 11.433594 C 24.390625 11.382812 24.53125 11.410156 24.582031 11.421875 C 24.699219 11.449219 24.769531 11.554688 24.855469 11.625 C 24.917969 11.609375 24.894531 11.484375 24.921875 11.421875 C 24.925781 11.339844 25.035156 11.230469 25.078125 11.351562 C 25.148438 11.425781 25.078125 11.574219 25.164062 11.621094 C 25.25 11.589844 25.289062 11.5 25.371094 11.457031 C 25.445312 11.40625 25.554688 11.398438 25.640625 11.441406 C 25.667969 11.515625 25.546875 11.582031 25.511719 11.648438 C 25.371094 11.820312 25.324219 12.0625 25.382812 12.277344 C 25.429688 12.445312 25.515625 12.605469 25.542969 12.777344 C 25.578125 12.972656 25.578125 13.179688 25.527344 13.375 C 25.496094 13.492188 25.394531 13.570312 25.289062 13.617188 C 25.265625 13.59375 25.25 13.558594 25.234375 13.527344 Z M 25.234375 13.527344 "/>
<path style=" stroke:none;fill-rule:nonzero;fill:rgb(81.176471%,6.666667%,14.901961%);fill-opacity:1;" d="M 24.707031 11.351562 C 24.59375 11.265625 24.554688 11.183594 24.554688 11.023438 C 24.554688 10.9375 24.570312 10.894531 24.625 10.820312 C 24.703125 10.707031 24.6875 10.671875 24.574219 10.707031 C 24.394531 10.757812 24.304688 10.710938 24.300781 10.554688 C 24.296875 10.480469 24.3125 10.445312 24.414062 10.324219 C 24.496094 10.226562 24.527344 10.171875 24.511719 10.15625 C 24.496094 10.140625 24.398438 10.226562 24.199219 10.425781 C 24.039062 10.589844 23.863281 10.753906 23.800781 10.792969 C 23.460938 11.023438 23.132812 11.058594 22.984375 10.882812 C 22.910156 10.792969 22.914062 10.742188 23 10.6875 C 23.042969 10.660156 23.109375 10.605469 23.152344 10.558594 C 23.257812 10.453125 23.5625 10.230469 23.710938 10.15625 C 23.835938 10.09375 23.863281 10.050781 23.785156 10.050781 C 23.679688 10.050781 23.347656 10.265625 23.097656 10.5 C 23.023438 10.566406 22.917969 10.644531 22.859375 10.667969 C 22.734375 10.722656 22.488281 10.742188 22.378906 10.707031 C 22.300781 10.679688 22.160156 10.546875 22.160156 10.5 C 22.160156 10.488281 22.191406 10.460938 22.230469 10.4375 C 22.269531 10.417969 22.339844 10.367188 22.386719 10.328125 C 22.589844 10.148438 22.972656 9.96875 23.273438 9.90625 C 23.371094 9.882812 23.335938 9.835938 23.226562 9.839844 C 23.019531 9.851562 22.605469 10.042969 22.359375 10.246094 C 22.070312 10.484375 21.636719 10.460938 21.496094 10.203125 C 21.46875 10.15625 21.457031 10.113281 21.464844 10.109375 C 21.46875 10.101562 21.554688 10.074219 21.652344 10.050781 C 21.761719 10.023438 21.96875 9.9375 22.171875 9.835938 C 22.488281 9.679688 22.582031 9.644531 22.800781 9.609375 C 22.898438 9.59375 22.902344 9.546875 22.808594 9.535156 C 22.683594 9.519531 22.496094 9.582031 22.164062 9.746094 C 21.738281 9.957031 21.617188 9.992188 21.394531 9.976562 C 21.191406 9.964844 21.074219 9.914062 20.90625 9.757812 C 20.800781 9.652344 20.644531 9.390625 20.675781 9.359375 C 20.683594 9.355469 20.730469 9.359375 20.785156 9.375 C 20.847656 9.394531 21.015625 9.40625 21.222656 9.40625 C 21.511719 9.40625 21.589844 9.398438 21.742188 9.355469 C 22 9.28125 22.339844 9.105469 22.574219 8.933594 C 23.023438 8.597656 23.386719 8.464844 23.851562 8.460938 C 24.28125 8.460938 24.554688 8.558594 24.796875 8.804688 C 24.878906 8.886719 24.949219 8.941406 24.960938 8.929688 C 24.972656 8.917969 24.984375 8.773438 24.988281 8.605469 C 24.988281 8.605469 25.113281 8.59375 25.140625 8.628906 C 25.140625 8.902344 25.144531 8.921875 25.183594 8.921875 C 25.207031 8.921875 25.234375 8.894531 25.253906 8.855469 C 25.289062 8.765625 25.425781 8.644531 25.570312 8.570312 C 25.886719 8.410156 26.429688 8.40625 26.867188 8.558594 C 27.050781 8.625 27.253906 8.738281 27.449219 8.890625 C 27.644531 9.039062 28.042969 9.238281 28.277344 9.308594 C 28.515625 9.375 28.9375 9.390625 29.152344 9.34375 C 29.242188 9.324219 29.324219 9.304688 29.339844 9.304688 C 29.417969 9.304688 29.28125 9.570312 29.125 9.726562 C 28.832031 10.011719 28.457031 10.007812 27.921875 9.722656 C 27.589844 9.542969 27.195312 9.445312 27.195312 9.542969 C 27.195312 9.5625 27.214844 9.578125 27.246094 9.578125 C 27.363281 9.578125 27.585938 9.652344 27.894531 9.800781 C 28.230469 9.960938 28.417969 10.027344 28.53125 10.027344 C 28.613281 10.027344 28.613281 10.078125 28.539062 10.191406 C 28.460938 10.308594 28.324219 10.367188 28.128906 10.367188 C 27.945312 10.367188 27.84375 10.324219 27.679688 10.1875 C 27.40625 9.960938 26.722656 9.707031 26.746094 9.84375 C 26.753906 9.867188 26.785156 9.886719 26.855469 9.898438 C 27.09375 9.933594 27.375 10.066406 27.660156 10.28125 C 27.75 10.347656 27.839844 10.414062 27.863281 10.425781 C 27.902344 10.449219 27.902344 10.457031 27.871094 10.515625 C 27.820312 10.609375 27.691406 10.683594 27.550781 10.699219 C 27.371094 10.71875 27.210938 10.664062 27.046875 10.527344 C 26.703125 10.238281 26.378906 10.027344 26.273438 10.027344 C 26.1875 10.027344 26.226562 10.074219 26.375 10.15625 C 26.574219 10.257812 26.777344 10.402344 26.925781 10.539062 C 26.996094 10.601562 27.074219 10.667969 27.101562 10.683594 C 27.164062 10.714844 27.164062 10.765625 27.09375 10.855469 C 27.023438 10.945312 26.90625 10.984375 26.757812 10.96875 C 26.457031 10.9375 26.222656 10.792969 25.855469 10.414062 C 25.710938 10.261719 25.582031 10.140625 25.570312 10.140625 C 25.523438 10.140625 25.550781 10.207031 25.644531 10.3125 C 25.761719 10.445312 25.785156 10.519531 25.742188 10.625 C 25.703125 10.71875 25.636719 10.742188 25.503906 10.707031 C 25.363281 10.667969 25.34375 10.703125 25.433594 10.8125 C 25.566406 10.980469 25.546875 11.1875 25.382812 11.328125 C 25.332031 11.371094 25.277344 11.40625 25.265625 11.40625 C 25.25 11.40625 25.214844 11.367188 25.183594 11.324219 C 25.078125 11.164062 24.984375 11.164062 24.882812 11.324219 C 24.847656 11.382812 24.816406 11.429688 24.816406 11.429688 C 24.8125 11.425781 24.765625 11.394531 24.707031 11.351562 Z M 24.707031 11.351562 "/>
<path style=" stroke:none;fill-rule:nonzero;fill:rgb(81.176471%,6.666667%,14.901961%);fill-opacity:1;" d="M 25.230469 8.089844 L 25.054688 8.230469 L 24.894531 8.113281 L 24.894531 9.074219 L 25.230469 9.078125 Z M 25.230469 8.089844 "/>
<path style=" stroke:none;fill-rule:nonzero;fill:rgb(81.176471%,6.666667%,14.901961%);fill-opacity:1;" d="M 24.128906 7.09375 C 24.09375 7.546875 23.976562 7.863281 23.816406 8.214844 L 24.203125 7.859375 L 24.46875 8.175781 L 24.761719 7.851562 L 25.054688 8.125 L 25.339844 7.839844 L 25.636719 8.1875 L 25.894531 7.902344 L 26.328125 8.214844 C 26.171875 7.863281 25.957031 7.566406 25.984375 7.074219 C 25.5625 7.386719 24.558594 7.445312 24.128906 7.09375 Z M 24.128906 7.09375 "/>
<path style=" stroke:none;fill-rule:nonzero;fill:rgb(81.176471%,6.666667%,14.901961%);fill-opacity:1;" d="M 24.894531 6.859375 C 24.738281 6.863281 24.574219 6.863281 24.429688 6.894531 C 24.328125 6.914062 24.234375 6.945312 24.15625 7 C 24.171875 7.296875 25.582031 7.421875 25.960938 7.007812 C 25.878906 6.949219 25.785156 6.914062 25.675781 6.894531 C 25.535156 6.867188 25.378906 6.863281 25.230469 6.859375 C 25.230469 6.941406 25.230469 7.023438 25.230469 7.105469 L 24.894531 7.105469 Z M 24.894531 6.859375 "/>
<path style=" stroke:none;fill-rule:nonzero;fill:rgb(81.176471%,6.666667%,14.901961%);fill-opacity:1;" d="M 25.171875 5.347656 L 24.949219 5.347656 L 24.949219 7.0625 L 25.175781 7.0625 Z M 25.171875 5.347656 "/>
<path style=" stroke:none;fill-rule:nonzero;fill:rgb(81.176471%,6.666667%,14.901961%);fill-opacity:1;" d="M 25.167969 5.390625 L 25.085938 6.210938 L 25.929688 6.625 L 25.503906 6.050781 L 26.085938 5.863281 Z M 25.167969 5.390625 "/>
<path style=" stroke:none;fill-rule:nonzero;fill:rgb(81.176471%,6.666667%,14.901961%);fill-opacity:1;" d="M 25.074219 5.175781 C 24.949219 5.175781 24.851562 5.222656 24.851562 5.28125 C 24.851562 5.339844 24.949219 5.386719 25.074219 5.386719 C 25.203125 5.386719 25.296875 5.339844 25.296875 5.28125 C 25.296875 5.222656 25.203125 5.175781 25.074219 5.175781 Z M 25.074219 5.175781 "/>
<path style=" stroke:none;fill-rule:nonzero;fill:rgb(96.862745%,87.843137%,9.019608%);fill-opacity:1;" d="M 24.6875 19.578125 C 24.828125 19.53125 24.90625 19.445312 24.964844 19.285156 C 24.992188 19.203125 25.011719 19.121094 25.003906 19.097656 C 24.992188 19.046875 24.933594 19.050781 24.867188 19.105469 C 24.824219 19.144531 24.816406 19.164062 24.832031 19.238281 C 24.863281 19.433594 24.792969 19.480469 24.425781 19.523438 C 24.390625 19.523438 24.285156 19.519531 24.191406 19.507812 C 24.015625 19.484375 23.953125 19.503906 24.015625 19.554688 C 24.035156 19.570312 24.085938 19.59375 24.125 19.601562 C 24.222656 19.628906 24.585938 19.613281 24.6875 19.578125 Z M 24.6875 19.578125 "/>
<path style=" stroke:none;fill-rule:nonzero;fill:rgb(96.862745%,87.843137%,9.019608%);fill-opacity:1;" d="M 25.453125 19.542969 C 25.472656 19.527344 25.542969 19.492188 25.609375 19.472656 C 25.699219 19.441406 25.746094 19.414062 25.785156 19.355469 C 25.890625 19.195312 25.871094 19.058594 25.710938 18.871094 C 25.625 18.769531 25.589844 18.773438 25.519531 18.882812 C 25.460938 18.980469 25.460938 18.988281 25.546875 19.007812 C 25.589844 19.019531 25.632812 19.054688 25.660156 19.09375 C 25.75 19.257812 25.722656 19.355469 25.585938 19.355469 C 25.460938 19.359375 25.425781 19.375 25.394531 19.457031 C 25.375 19.5 25.359375 19.542969 25.359375 19.554688 C 25.359375 19.589844 25.410156 19.585938 25.453125 19.542969 Z M 25.453125 19.542969 "/>
<path style=" stroke:none;fill-rule:nonzero;fill:rgb(96.862745%,87.843137%,9.019608%);fill-opacity:1;" d="M 25.203125 19.363281 C 25.226562 19.300781 25.234375 19.183594 25.230469 18.949219 C 25.230469 18.769531 25.222656 18.621094 25.214844 18.613281 C 25.195312 18.59375 25.089844 18.660156 25.078125 18.699219 C 25.070312 18.722656 25.082031 18.773438 25.101562 18.816406 C 25.136719 18.878906 25.140625 18.933594 25.128906 19.179688 C 25.117188 19.484375 25.136719 19.539062 25.203125 19.363281 Z M 25.203125 19.363281 "/>
<path style=" stroke:none;fill-rule:nonzero;fill:rgb(96.862745%,87.843137%,9.019608%);fill-opacity:1;" d="M 24.613281 19.214844 C 24.625 19.160156 24.644531 19.042969 24.648438 18.957031 C 24.65625 18.871094 24.675781 18.761719 24.6875 18.714844 C 24.722656 18.59375 24.6875 18.5625 24.59375 18.628906 L 24.523438 18.679688 L 24.539062 18.851562 C 24.550781 19.007812 24.527344 19.300781 24.492188 19.410156 C 24.480469 19.441406 24.496094 19.433594 24.535156 19.386719 C 24.566406 19.351562 24.601562 19.273438 24.613281 19.214844 Z M 24.613281 19.214844 "/>
<path style=" stroke:none;fill-rule:nonzero;fill:rgb(96.862745%,87.843137%,9.019608%);fill-opacity:1;" d="M 24.09375 19.300781 C 24.21875 19.195312 24.207031 19.011719 24.234375 18.867188 C 24.230469 18.765625 24.296875 18.648438 24.253906 18.5625 C 24.136719 18.585938 24.0625 18.699219 24.121094 18.808594 C 24.128906 18.9375 24.125 19.082031 24.054688 19.195312 C 24.003906 19.269531 23.828125 19.25 23.835938 19.144531 C 23.878906 18.984375 23.6875 19.0625 23.613281 19.105469 C 23.554688 19.144531 23.433594 19.148438 23.476562 19.046875 C 23.449219 18.914062 23.277344 18.996094 23.183594 18.996094 C 23.09375 18.996094 23.175781 18.816406 23.046875 18.847656 C 22.8125 18.828125 22.550781 18.851562 22.347656 18.707031 C 22.226562 18.648438 22.242188 18.507812 22.304688 18.414062 C 22.378906 18.285156 22.402344 18.125 22.519531 18.027344 C 22.636719 17.914062 22.410156 17.964844 22.359375 18 C 22.246094 18.0625 22.351562 18.222656 22.257812 18.3125 C 22.203125 18.40625 22.132812 18.53125 22.003906 18.515625 C 21.824219 18.480469 21.71875 18.3125 21.585938 18.199219 C 21.476562 18.175781 21.539062 18.378906 21.597656 18.421875 C 21.710938 18.507812 21.84375 18.570312 21.980469 18.605469 C 22.117188 18.585938 22.121094 18.765625 22.238281 18.792969 C 22.453125 18.894531 22.695312 18.921875 22.929688 18.933594 C 23.019531 18.941406 22.96875 19.105469 23.089844 19.074219 C 23.15625 19.089844 23.308594 19.050781 23.316406 19.128906 C 23.214844 19.25 23.417969 19.246094 23.492188 19.226562 C 23.585938 19.210938 23.707031 19.171875 23.734375 19.304688 C 23.8125 19.386719 23.957031 19.375 24.054688 19.328125 C 24.070312 19.320312 24.082031 19.3125 24.09375 19.300781 Z M 24.09375 19.300781 "/>
<path style=" stroke:none;fill-rule:nonzero;fill:rgb(96.862745%,87.843137%,9.019608%);fill-opacity:1;" d="M 22.019531 18.25 C 22.054688 18.199219 22.113281 18.101562 22.144531 18.027344 C 22.179688 17.957031 22.226562 17.875 22.25 17.847656 C 22.3125 17.78125 22.277344 17.738281 22.179688 17.761719 C 22.128906 17.773438 22.105469 17.792969 22.097656 17.835938 C 22.070312 17.984375 22.015625 18.132812 21.96875 18.203125 C 21.882812 18.332031 21.878906 18.335938 21.914062 18.335938 C 21.933594 18.335938 21.980469 18.296875 22.019531 18.25 Z M 22.019531 18.25 "/>
<path style=" stroke:none;fill-rule:nonzero;fill:rgb(96.862745%,87.843137%,9.019608%);fill-opacity:1;" d="M 20.71875 17.433594 C 20.621094 17.433594 20.617188 17.496094 20.710938 17.527344 C 20.757812 17.542969 20.796875 17.582031 20.828125 17.644531 C 20.917969 17.828125 20.972656 17.863281 21.21875 17.882812 L 21.375 17.898438 L 21.382812 17.992188 C 21.386719 18.046875 21.398438 18.089844 21.410156 18.089844 C 21.425781 18.089844 21.484375 18.0625 21.546875 18.03125 C 21.660156 17.972656 21.769531 17.835938 21.769531 17.753906 C 21.769531 17.699219 21.679688 17.636719 21.59375 17.636719 C 21.558594 17.636719 21.488281 17.667969 21.429688 17.707031 C 21.257812 17.835938 21.070312 17.808594 20.964844 17.644531 C 20.882812 17.507812 20.792969 17.433594 20.71875 17.433594 Z M 21.566406 17.773438 C 21.613281 17.773438 21.625 17.804688 21.597656 17.871094 C 21.582031 17.917969 21.523438 17.917969 21.507812 17.875 C 21.488281 17.820312 21.515625 17.773438 21.566406 17.773438 Z M 21.566406 17.773438 "/>
<path style=" stroke:none;fill-rule:nonzero;fill:rgb(96.862745%,87.843137%,9.019608%);fill-opacity:1;" d="M 28.152344 17.558594 C 28.089844 17.5625 28.070312 17.574219 28.03125 17.632812 C 27.964844 17.734375 27.960938 17.945312 28.019531 18.019531 C 28.058594 18.066406 28.0625 18.066406 28.144531 18.035156 C 28.253906 17.988281 28.273438 17.988281 28.273438 18.050781 C 28.273438 18.203125 28.054688 18.5 27.820312 18.65625 C 27.761719 18.699219 27.703125 18.746094 27.699219 18.761719 C 27.683594 18.804688 27.765625 18.792969 27.871094 18.742188 C 28.015625 18.667969 28.203125 18.476562 28.28125 18.324219 C 28.339844 18.207031 28.351562 18.164062 28.355469 17.953125 C 28.363281 17.757812 28.359375 17.703125 28.324219 17.636719 C 28.289062 17.566406 28.277344 17.558594 28.183594 17.558594 C 28.171875 17.558594 28.164062 17.558594 28.152344 17.558594 Z M 28.160156 17.695312 C 28.210938 17.695312 28.21875 17.703125 28.222656 17.773438 C 28.226562 17.832031 28.21875 17.867188 28.1875 17.894531 C 28.144531 17.933594 28.140625 17.933594 28.101562 17.875 C 28.046875 17.792969 28.082031 17.695312 28.160156 17.695312 Z M 28.160156 17.695312 "/>
<path style=" stroke:none;fill-rule:nonzero;fill:rgb(96.862745%,87.843137%,9.019608%);fill-opacity:1;" d="M 27.109375 19.175781 C 27.3125 19.074219 27.429688 18.964844 27.507812 18.800781 C 27.542969 18.722656 27.574219 18.648438 27.574219 18.636719 C 27.574219 18.609375 27.472656 18.5625 27.414062 18.5625 C 27.355469 18.5625 27.34375 18.523438 27.367188 18.40625 C 27.394531 18.296875 27.363281 18.15625 27.3125 18.15625 C 27.296875 18.15625 27.265625 18.183594 27.242188 18.214844 C 27.210938 18.261719 27.210938 18.285156 27.234375 18.355469 C 27.269531 18.460938 27.242188 18.539062 27.148438 18.605469 C 27.101562 18.640625 27.078125 18.675781 27.078125 18.710938 C 27.078125 18.742188 27.082031 18.765625 27.085938 18.765625 C 27.089844 18.765625 27.140625 18.742188 27.195312 18.710938 L 27.296875 18.652344 L 27.355469 18.699219 C 27.390625 18.726562 27.414062 18.769531 27.414062 18.792969 C 27.414062 18.917969 27.0625 19.125 26.820312 19.144531 C 26.691406 19.15625 26.671875 19.148438 26.625 19.105469 C 26.589844 19.070312 26.578125 19.039062 26.589844 18.996094 C 26.59375 18.960938 26.609375 18.902344 26.617188 18.863281 C 26.636719 18.753906 26.59375 18.769531 26.511719 18.894531 C 26.445312 19 26.425781 19.109375 26.464844 19.167969 C 26.492188 19.214844 26.695312 19.261719 26.835938 19.253906 C 26.925781 19.246094 27.015625 19.222656 27.109375 19.175781 Z M 27.109375 19.175781 "/>
<path style=" stroke:none;fill-rule:nonzero;fill:rgb(96.862745%,87.843137%,9.019608%);fill-opacity:1;" d="M 28.464844 18.417969 C 28.589844 18.292969 28.644531 18.136719 28.644531 17.898438 L 28.644531 17.71875 L 28.75 17.667969 C 28.890625 17.601562 29.019531 17.472656 29.019531 17.398438 C 29.019531 17.324219 28.984375 17.328125 28.925781 17.410156 C 28.882812 17.46875 28.824219 17.503906 28.613281 17.601562 C 28.558594 17.625 28.554688 17.640625 28.542969 17.863281 C 28.527344 18.121094 28.492188 18.21875 28.351562 18.394531 C 28.261719 18.503906 28.257812 18.519531 28.320312 18.519531 C 28.34375 18.519531 28.410156 18.472656 28.464844 18.417969 Z M 28.464844 18.417969 "/>
<path style=" stroke:none;fill-rule:nonzero;fill:rgb(96.862745%,87.843137%,9.019608%);fill-opacity:1;" d="M 27.070312 18.273438 C 27.082031 18.238281 27.011719 18.210938 26.984375 18.242188 C 26.96875 18.253906 26.964844 18.277344 26.976562 18.292969 C 26.996094 18.324219 27.058594 18.3125 27.070312 18.273438 Z M 27.070312 18.273438 "/>
<path style=" stroke:none;fill-rule:nonzero;fill:rgb(96.862745%,87.843137%,9.019608%);fill-opacity:1;" d="M 28.992188 17.777344 C 29.003906 17.742188 28.933594 17.714844 28.902344 17.746094 C 28.890625 17.757812 28.886719 17.78125 28.894531 17.792969 C 28.914062 17.828125 28.976562 17.816406 28.992188 17.777344 Z M 28.992188 17.777344 "/>
<path style=" stroke:none;fill-rule:nonzero;fill:rgb(96.862745%,87.843137%,9.019608%);fill-opacity:1;" d="M 26.679688 16.433594 C 26.632812 16.457031 26.605469 16.511719 26.570312 16.550781 C 26.546875 16.570312 26.566406 16.585938 26.582031 16.601562 C 26.667969 16.695312 26.703125 16.820312 26.746094 16.941406 C 26.789062 17.082031 26.839844 17.230469 26.796875 17.378906 C 26.78125 17.433594 26.734375 17.492188 26.667969 17.472656 C 26.5625 17.464844 26.460938 17.4375 26.355469 17.441406 C 26.261719 17.445312 26.1875 17.53125 26.09375 17.519531 C 26.03125 17.523438 26.035156 17.394531 25.976562 17.429688 C 25.949219 17.496094 25.960938 17.574219 25.960938 17.644531 C 25.96875 17.65625 26 17.644531 26.019531 17.648438 L 26.207031 17.648438 C 26.21875 17.714844 26.21875 17.789062 26.265625 17.839844 C 26.332031 17.863281 26.40625 17.84375 26.46875 17.816406 C 26.535156 17.789062 26.542969 17.707031 26.5625 17.644531 C 26.582031 17.578125 26.671875 17.59375 26.722656 17.566406 C 26.847656 17.53125 26.933594 17.398438 26.925781 17.269531 C 26.917969 17.070312 26.839844 16.882812 26.785156 16.695312 C 26.753906 16.613281 26.734375 16.527344 26.703125 16.445312 C 26.695312 16.4375 26.6875 16.433594 26.679688 16.433594 Z M 26.367188 17.570312 C 26.4375 17.566406 26.46875 17.652344 26.453125 17.710938 C 26.425781 17.789062 26.328125 17.738281 26.308594 17.679688 C 26.273438 17.628906 26.296875 17.5625 26.367188 17.570312 Z M 26.367188 17.570312 "/>
<path style=" stroke:none;fill-rule:nonzero;fill:rgb(96.862745%,87.843137%,9.019608%);fill-opacity:1;" d="M 23.746094 16.917969 C 23.714844 16.917969 23.679688 16.929688 23.644531 16.953125 C 23.460938 17.082031 23.414062 17.234375 23.539062 17.292969 C 23.632812 17.339844 23.609375 17.390625 23.464844 17.464844 C 23.257812 17.566406 23.074219 17.554688 22.726562 17.410156 C 22.640625 17.375 22.617188 17.386719 22.636719 17.464844 C 22.65625 17.542969 22.726562 17.585938 22.902344 17.625 C 23.089844 17.667969 23.316406 17.652344 23.460938 17.589844 C 23.53125 17.558594 23.617188 17.496094 23.6875 17.417969 L 23.800781 17.292969 L 23.933594 17.3125 C 24.09375 17.332031 24.097656 17.332031 24.097656 17.410156 C 24.097656 17.472656 24.101562 17.472656 24.25 17.488281 C 24.332031 17.496094 24.441406 17.503906 24.496094 17.503906 C 24.558594 17.503906 24.597656 17.515625 24.617188 17.542969 C 24.648438 17.585938 24.664062 17.585938 24.910156 17.566406 C 25.136719 17.542969 25.183594 17.546875 25.285156 17.582031 C 25.359375 17.605469 25.441406 17.617188 25.5 17.609375 C 25.675781 17.589844 25.917969 17.445312 25.953125 17.339844 C 25.957031 17.328125 26.019531 17.304688 26.09375 17.292969 C 26.269531 17.257812 26.277344 17.21875 26.113281 17.195312 C 26.042969 17.1875 25.933594 17.164062 25.875 17.136719 C 25.816406 17.113281 25.734375 17.09375 25.691406 17.09375 C 25.601562 17.09375 25.519531 17.152344 25.519531 17.207031 C 25.519531 17.246094 25.53125 17.25 25.636719 17.238281 C 25.738281 17.226562 25.765625 17.234375 25.816406 17.273438 C 25.851562 17.300781 25.875 17.335938 25.867188 17.347656 C 25.84375 17.382812 25.636719 17.476562 25.546875 17.492188 C 25.484375 17.503906 25.4375 17.496094 25.386719 17.472656 C 25.308594 17.429688 25.191406 17.421875 25.167969 17.457031 C 25.160156 17.472656 25.132812 17.464844 25.097656 17.429688 L 25.042969 17.378906 L 24.921875 17.429688 C 24.796875 17.484375 24.75 17.480469 24.75 17.421875 C 24.75 17.394531 24.714844 17.390625 24.53125 17.402344 C 24.328125 17.417969 24.308594 17.414062 24.269531 17.371094 C 24.234375 17.332031 24.234375 17.320312 24.257812 17.277344 C 24.28125 17.242188 24.28125 17.226562 24.261719 17.203125 C 24.238281 17.183594 24.210938 17.183594 24.128906 17.203125 C 23.929688 17.257812 23.871094 17.226562 23.871094 17.070312 C 23.871094 16.976562 23.816406 16.917969 23.746094 16.917969 Z M 23.699219 17.0625 C 23.707031 17.0625 23.71875 17.070312 23.730469 17.082031 C 23.75 17.101562 23.757812 17.132812 23.75 17.152344 C 23.734375 17.199219 23.648438 17.195312 23.628906 17.148438 C 23.621094 17.125 23.632812 17.101562 23.65625 17.082031 C 23.675781 17.066406 23.6875 17.0625 23.699219 17.0625 Z M 23.699219 17.0625 "/>
<path style=" stroke:none;fill-rule:nonzero;fill:rgb(96.862745%,87.843137%,9.019608%);fill-opacity:1;" d="M 23.335938 17.207031 C 23.460938 17.128906 23.457031 17.136719 23.472656 16.921875 C 23.488281 16.769531 23.484375 16.757812 23.441406 16.757812 C 23.382812 16.757812 23.351562 16.824219 23.351562 16.949219 C 23.351562 17.027344 23.339844 17.066406 23.296875 17.109375 C 23.195312 17.210938 22.941406 17.164062 22.910156 17.035156 C 22.898438 16.992188 22.910156 16.953125 22.964844 16.878906 C 23.074219 16.722656 23.050781 16.683594 22.914062 16.800781 C 22.820312 16.882812 22.804688 16.886719 22.824219 16.816406 C 22.839844 16.75 22.804688 16.726562 22.730469 16.742188 C 22.691406 16.753906 22.667969 16.777344 22.660156 16.824219 C 22.648438 16.871094 22.628906 16.898438 22.59375 16.90625 C 22.53125 16.921875 22.425781 16.863281 22.425781 16.8125 C 22.425781 16.777344 22.582031 16.585938 22.785156 16.375 C 22.859375 16.296875 22.921875 16.222656 22.921875 16.210938 C 22.921875 16.203125 22.882812 16.191406 22.832031 16.191406 C 22.757812 16.191406 22.742188 16.199219 22.742188 16.234375 C 22.742188 16.257812 22.640625 16.390625 22.515625 16.53125 C 22.257812 16.820312 22.234375 16.882812 22.363281 16.960938 C 22.46875 17.023438 22.597656 17.019531 22.703125 16.949219 L 22.789062 16.890625 L 22.789062 16.996094 C 22.789062 17.128906 22.8125 17.175781 22.917969 17.230469 C 23.046875 17.300781 23.207031 17.289062 23.335938 17.207031 Z M 23.335938 17.207031 "/>
<path style=" stroke:none;fill-rule:nonzero;fill:rgb(96.862745%,87.843137%,9.019608%);fill-opacity:1;" d="M 28.773438 15.40625 C 28.675781 15.464844 28.753906 15.582031 28.765625 15.664062 C 28.726562 15.773438 28.585938 15.800781 28.484375 15.824219 C 28.339844 15.847656 28.238281 15.96875 28.183594 16.097656 C 28.152344 16.179688 28.078125 16.308594 28 16.183594 C 27.933594 16.113281 27.808594 16.058594 27.726562 16.140625 C 27.664062 16.199219 27.648438 16.285156 27.628906 16.363281 C 27.589844 16.300781 27.574219 16.210938 27.496094 16.195312 C 27.375 16.210938 27.417969 16.367188 27.476562 16.429688 C 27.53125 16.503906 27.578125 16.601562 27.527344 16.6875 C 27.484375 16.796875 27.328125 16.867188 27.234375 16.777344 C 27.148438 16.730469 27.207031 16.570312 27.121094 16.558594 C 27.082031 16.589844 27.078125 16.757812 27.011719 16.667969 C 26.960938 16.589844 26.988281 16.480469 26.929688 16.410156 C 26.859375 16.421875 26.800781 16.539062 26.824219 16.605469 C 26.917969 16.730469 26.957031 16.886719 26.992188 17.039062 C 27.015625 17.097656 26.988281 17.21875 27.046875 17.242188 C 27.085938 17.148438 27.046875 17.035156 27.078125 16.941406 C 27.171875 16.929688 27.269531 16.96875 27.367188 16.949219 C 27.503906 16.929688 27.609375 16.816406 27.65625 16.691406 C 27.671875 16.601562 27.652344 16.507812 27.652344 16.414062 C 27.757812 16.429688 27.871094 16.429688 27.972656 16.464844 C 28.027344 16.542969 27.957031 16.65625 27.945312 16.742188 C 27.890625 16.917969 27.753906 17.042969 27.617188 17.160156 C 27.5625 17.195312 27.554688 17.28125 27.636719 17.234375 C 27.816406 17.15625 27.953125 16.996094 28.027344 16.820312 C 28.085938 16.683594 28.039062 16.53125 28.074219 16.394531 C 28.128906 16.289062 28.261719 16.3125 28.355469 16.3125 C 28.457031 16.308594 28.542969 16.191406 28.507812 16.09375 C 28.476562 15.980469 28.597656 15.925781 28.679688 15.886719 C 28.785156 15.832031 28.871094 15.722656 28.859375 15.597656 C 28.855469 15.53125 28.859375 15.410156 28.773438 15.40625 Z M 28.390625 16.058594 C 28.503906 16.085938 28.367188 16.308594 28.308594 16.167969 C 28.289062 16.117188 28.332031 16.054688 28.390625 16.058594 Z M 27.851562 16.214844 C 28.003906 16.207031 27.949219 16.425781 27.820312 16.328125 C 27.757812 16.292969 27.777344 16.210938 27.851562 16.214844 Z M 27.851562 16.214844 "/>
<path style=" stroke:none;fill-rule:nonzero;fill:rgb(96.862745%,87.843137%,9.019608%);fill-opacity:1;" d="M 22.398438 17.066406 C 22.402344 17.042969 22.390625 17.027344 22.371094 17.027344 C 22.332031 17.027344 22.304688 17.066406 22.324219 17.097656 C 22.34375 17.128906 22.390625 17.109375 22.398438 17.066406 Z M 22.398438 17.066406 "/>
<path style=" stroke:none;fill-rule:nonzero;fill:rgb(96.862745%,87.843137%,9.019608%);fill-opacity:1;" d="M 24.164062 16.867188 C 24.164062 16.835938 24.152344 16.824219 24.125 16.828125 C 24.066406 16.839844 24.058594 16.914062 24.117188 16.914062 C 24.148438 16.914062 24.164062 16.898438 24.164062 16.867188 Z M 24.164062 16.867188 "/>
<path style=" stroke:none;fill-rule:nonzero;fill:rgb(96.862745%,87.843137%,9.019608%);fill-opacity:1;" d="M 21.980469 15.808594 C 21.910156 15.792969 21.867188 15.851562 21.839844 15.910156 C 21.789062 16 21.722656 16.089844 21.628906 16.136719 C 21.5625 16.15625 21.488281 16.128906 21.429688 16.09375 C 21.359375 16.058594 21.375 15.976562 21.34375 15.917969 C 21.292969 15.878906 21.203125 15.933594 21.207031 15.996094 C 21.199219 16.078125 21.277344 16.125 21.34375 16.160156 C 21.398438 16.191406 21.476562 16.210938 21.5 16.277344 C 21.496094 16.335938 21.519531 16.402344 21.589844 16.378906 C 21.667969 16.378906 21.6875 16.472656 21.65625 16.53125 C 21.625 16.597656 21.605469 16.671875 21.617188 16.742188 C 21.65625 16.777344 21.695312 16.691406 21.722656 16.667969 C 21.742188 16.640625 21.757812 16.617188 21.777344 16.59375 C 21.917969 16.601562 22.054688 16.617188 22.195312 16.613281 C 22.292969 16.613281 22.378906 16.550781 22.441406 16.480469 C 22.527344 16.386719 22.601562 16.277344 22.703125 16.195312 C 22.777344 16.179688 22.738281 16.042969 22.660156 16.082031 C 22.59375 16.105469 22.574219 16.183594 22.523438 16.234375 C 22.445312 16.332031 22.363281 16.429688 22.261719 16.503906 C 22.1875 16.535156 22.101562 16.523438 22.027344 16.503906 C 21.996094 16.476562 22.089844 16.453125 22.101562 16.425781 C 22.144531 16.378906 22.199219 16.339844 22.222656 16.28125 C 22.199219 16.230469 22.125 16.226562 22.074219 16.222656 C 21.945312 16.238281 21.847656 16.347656 21.71875 16.359375 C 21.621094 16.359375 21.671875 16.253906 21.714844 16.21875 C 21.800781 16.117188 21.894531 16.019531 21.984375 15.917969 C 22.011719 15.890625 22.105469 15.859375 22.046875 15.816406 C 22.023438 15.808594 22.003906 15.808594 21.980469 15.808594 Z M 22.042969 16.328125 C 22.109375 16.363281 22.003906 16.421875 21.957031 16.414062 C 21.898438 16.433594 21.898438 16.375 21.949219 16.363281 C 21.980469 16.347656 22.011719 16.332031 22.042969 16.328125 Z M 21.84375 16.464844 C 21.882812 16.464844 21.957031 16.5 21.886719 16.519531 C 21.835938 16.558594 21.777344 16.480469 21.84375 16.464844 Z M 21.84375 16.464844 "/>
<path style=" stroke:none;fill-rule:nonzero;fill:rgb(96.862745%,87.843137%,9.019608%);fill-opacity:1;" d="M 23.40625 16.554688 C 23.40625 16.503906 23.320312 16.511719 23.308594 16.5625 C 23.304688 16.59375 23.3125 16.601562 23.355469 16.59375 C 23.382812 16.589844 23.40625 16.570312 23.40625 16.554688 Z M 23.40625 16.554688 "/>
<path style=" stroke:none;fill-rule:nonzero;fill:rgb(96.862745%,87.843137%,9.019608%);fill-opacity:1;" d="M 27.296875 16.210938 C 27.308594 16.164062 27.242188 16.132812 27.207031 16.164062 C 27.171875 16.199219 27.207031 16.265625 27.25 16.257812 C 27.273438 16.25 27.292969 16.230469 27.296875 16.210938 Z M 27.296875 16.210938 "/>
<path style=" stroke:none;fill-rule:nonzero;fill:rgb(96.862745%,87.843137%,9.019608%);fill-opacity:1;" d="M 21.242188 15.730469 C 21.304688 15.679688 21.304688 15.675781 21.277344 15.5625 C 21.242188 15.398438 21.242188 15.382812 21.304688 15.367188 C 21.382812 15.347656 21.582031 15.453125 21.625 15.539062 C 21.660156 15.601562 21.65625 15.609375 21.601562 15.660156 C 21.539062 15.71875 21.539062 15.785156 21.601562 15.785156 C 21.652344 15.785156 21.792969 15.652344 21.792969 15.601562 C 21.792969 15.535156 21.636719 15.378906 21.511719 15.320312 C 21.433594 15.285156 21.355469 15.265625 21.269531 15.265625 C 21.109375 15.265625 21.085938 15.300781 21.128906 15.488281 C 21.179688 15.703125 21.113281 15.734375 20.9375 15.570312 C 20.804688 15.449219 20.753906 15.320312 20.753906 15.121094 C 20.757812 14.90625 20.835938 14.800781 21.023438 14.777344 C 21.144531 14.761719 21.140625 14.730469 21.015625 14.710938 C 20.832031 14.683594 20.675781 14.808594 20.617188 15.027344 C 20.550781 15.269531 20.703125 15.566406 20.96875 15.71875 C 21.105469 15.800781 21.164062 15.800781 21.242188 15.730469 Z M 21.242188 15.730469 "/>
<path style=" stroke:none;fill-rule:nonzero;fill:rgb(96.862745%,87.843137%,9.019608%);fill-opacity:1;" d="M 28.496094 15.464844 C 28.511719 15.449219 28.523438 15.417969 28.523438 15.390625 C 28.523438 15.363281 28.546875 15.308594 28.578125 15.265625 C 28.609375 15.226562 28.636719 15.179688 28.636719 15.171875 C 28.636719 15.128906 28.566406 15.128906 28.507812 15.175781 C 28.453125 15.21875 28.410156 15.21875 28.410156 15.175781 C 28.410156 15.164062 28.4375 15.144531 28.46875 15.125 C 28.550781 15.085938 28.558594 15.046875 28.488281 15.015625 C 28.398438 14.972656 28.308594 15.046875 28.300781 15.171875 C 28.292969 15.253906 28.300781 15.265625 28.363281 15.304688 C 28.421875 15.339844 28.433594 15.355469 28.421875 15.40625 C 28.40625 15.488281 28.441406 15.519531 28.496094 15.464844 Z M 28.496094 15.464844 "/>
<path style=" stroke:none;fill-rule:nonzero;fill:rgb(96.862745%,87.843137%,9.019608%);fill-opacity:1;" d="M 29.175781 15.386719 C 29.226562 15.34375 29.265625 15.292969 29.265625 15.273438 C 29.265625 15.257812 29.308594 15.214844 29.363281 15.175781 C 29.511719 15.066406 29.546875 14.960938 29.480469 14.792969 C 29.453125 14.726562 29.371094 14.636719 29.191406 14.476562 C 29.054688 14.351562 28.929688 14.25 28.914062 14.25 C 28.863281 14.25 28.875 14.429688 28.921875 14.445312 C 29.011719 14.472656 29.066406 14.511719 29.207031 14.636719 C 29.367188 14.78125 29.441406 14.921875 29.402344 14.996094 C 29.363281 15.070312 29.3125 15.046875 29.167969 14.894531 C 29.09375 14.8125 29.015625 14.746094 29.003906 14.746094 C 28.984375 14.746094 28.972656 14.777344 28.972656 14.816406 C 28.972656 14.867188 29 14.917969 29.074219 15 C 29.195312 15.136719 29.207031 15.214844 29.117188 15.289062 C 29.085938 15.3125 29.050781 15.335938 29.042969 15.335938 C 29.035156 15.335938 29.007812 15.292969 28.984375 15.246094 C 28.933594 15.140625 28.621094 14.816406 28.578125 14.816406 C 28.554688 14.816406 28.542969 14.839844 28.542969 14.894531 C 28.542969 14.957031 28.558594 14.976562 28.605469 15.003906 C 28.667969 15.035156 28.820312 15.1875 28.972656 15.375 C 29.015625 15.425781 29.058594 15.46875 29.070312 15.46875 C 29.078125 15.46875 29.128906 15.433594 29.175781 15.386719 Z M 29.175781 15.386719 "/>
<path style=" stroke:none;fill-rule:nonzero;fill:rgb(96.862745%,87.843137%,9.019608%);fill-opacity:1;" d="M 29.480469 14.519531 C 29.460938 14.453125 29.042969 14.023438 29.003906 14.023438 C 28.980469 14.023438 28.972656 14.050781 28.976562 14.117188 C 28.984375 14.203125 28.992188 14.214844 29.050781 14.230469 C 29.085938 14.242188 29.195312 14.328125 29.292969 14.421875 C 29.390625 14.515625 29.476562 14.589844 29.484375 14.582031 C 29.492188 14.574219 29.488281 14.546875 29.480469 14.519531 Z M 29.480469 14.519531 "/>
<path style=" stroke:none;fill-rule:nonzero;fill:rgb(96.862745%,87.843137%,9.019608%);fill-opacity:1;" d="M 26.996094 19.335938 C 26.996094 19.367188 26.96875 19.394531 26.933594 19.394531 C 26.902344 19.394531 26.871094 19.367188 26.871094 19.335938 C 26.871094 19.304688 26.902344 19.28125 26.933594 19.28125 C 26.96875 19.28125 26.996094 19.304688 26.996094 19.335938 Z M 26.996094 19.335938 "/>
<path style=" stroke:none;fill-rule:nonzero;fill:rgb(96.862745%,87.843137%,9.019608%);fill-opacity:1;" d="M 27.214844 19.261719 C 27.214844 19.292969 27.1875 19.320312 27.152344 19.320312 C 27.117188 19.320312 27.089844 19.292969 27.089844 19.261719 C 27.089844 19.230469 27.117188 19.207031 27.152344 19.207031 C 27.1875 19.207031 27.214844 19.230469 27.214844 19.261719 Z M 27.214844 19.261719 "/>
</g>
</svg>
