<?xml version="1.0" encoding="UTF-8"?>
<svg xmlns="http://www.w3.org/2000/svg" xmlns:xlink="http://www.w3.org/1999/xlink" width="38pt" height="25pt" viewBox="0 0 38 25" version="1.1">
<g id="surface1">
<path style=" stroke:none;fill-rule:nonzero;fill:rgb(99.607843%,79.607843%,0%);fill-opacity:1;" d="M 0 0 L 38 0 L 38 12.5 L 0 12.5 Z M 0 0 "/>
<path style=" stroke:none;fill-rule:nonzero;fill:rgb(91.764706%,15.686275%,22.352941%);fill-opacity:1;" d="M 0 12.5 L 38 12.5 L 38 25 L 0 25 Z M 0 12.5 "/>
<path style=" stroke:none;fill-rule:nonzero;fill:rgb(20.392157%,69.803922%,20%);fill-opacity:1;" d="M 0 8.332031 L 38 8.332031 L 38 16.667969 L 0 16.667969 Z M 0 8.332031 "/>
<path style=" stroke:none;fill-rule:nonzero;fill:rgb(100%,100%,100%);fill-opacity:1;" d="M 15.964844 13.378906 L 19 4.167969 L 22.035156 13.378906 Z M 15.964844 13.378906 "/>
<path style=" stroke:none;fill-rule:nonzero;fill:rgb(100%,100%,100%);fill-opacity:1;" d="M 21.453125 15.136719 L 13.511719 20.832031 L 16.546875 11.621094 Z M 21.453125 15.136719 "/>
<path style=" stroke:none;fill-rule:nonzero;fill:rgb(100%,100%,100%);fill-opacity:1;" d="M 18.0625 16.226562 L 10.121094 10.53125 L 19.9375 10.53125 Z M 18.0625 16.226562 "/>
<path style=" stroke:none;fill-rule:nonzero;fill:rgb(100%,100%,100%);fill-opacity:1;" d="M 18.0625 10.53125 L 27.878906 10.53125 L 19.9375 16.226562 Z M 18.0625 10.53125 "/>
<path style=" stroke:none;fill-rule:nonzero;fill:rgb(100%,100%,100%);fill-opacity:1;" d="M 21.453125 11.621094 L 24.488281 20.832031 L 16.546875 15.136719 Z M 21.453125 11.621094 "/>
</g>
</svg>
