<?xml version="1.0" encoding="UTF-8"?>
<svg xmlns="http://www.w3.org/2000/svg" xmlns:xlink="http://www.w3.org/1999/xlink" width="42pt" height="25pt" viewBox="0 0 42 25" version="1.1">
<g id="surface1">
<path style=" stroke:none;fill-rule:nonzero;fill:rgb(80.784314%,6.666667%,14.901961%);fill-opacity:1;" d="M 0 0 L 42 0 L 0 25 L 42 25 Z M 0 0 "/>
<path style=" stroke:none;fill-rule:nonzero;fill:rgb(11.764706%,70.980392%,22.745098%);fill-opacity:1;" d="M 0 0 L 0 25 L 42 0 L 42 25 Z M 0 0 "/>
<path style="fill-rule:nonzero;fill:rgb(0%,0%,0%);fill-opacity:1;stroke-width:40;stroke-linecap:butt;stroke-linejoin:miter;stroke:rgb(100%,100%,100%);stroke-opacity:1;stroke-miterlimit:4;" d="M 0 0 L 500 300 M 500 0 L 0 300 " transform="matrix(0.084,0,0,0.0833333,0,0)"/>
<path style=" stroke:none;fill-rule:nonzero;fill:rgb(100%,100%,100%);fill-opacity:1;" d="M 28.140625 12.5 C 28.140625 16.410156 24.941406 19.582031 21 19.582031 C 17.058594 19.582031 13.859375 16.410156 13.859375 12.5 C 13.859375 8.589844 17.058594 5.417969 21 5.417969 C 24.941406 5.417969 28.140625 8.589844 28.140625 12.5 Z M 28.140625 12.5 "/>
<path style=" stroke:none;fill-rule:nonzero;fill:rgb(11.764706%,70.980392%,22.745098%);fill-opacity:1;" d="M 21 7.167969 L 20.160156 8.609375 L 21.613281 9.445312 "/>
<path style=" stroke:none;fill-rule:nonzero;fill:rgb(11.764706%,70.980392%,22.745098%);fill-opacity:1;" d="M 21 7.167969 L 21.839844 8.609375 L 20.386719 9.445312 "/>
<path style=" stroke:none;fill-rule:nonzero;fill:rgb(11.764706%,70.980392%,22.745098%);fill-opacity:1;" d="M 22.453125 9.667969 L 21.613281 8.222656 L 20.160156 9.054688 "/>
<path style=" stroke:none;fill-rule:nonzero;fill:rgb(11.764706%,70.980392%,22.745098%);fill-opacity:1;" d="M 22.453125 9.667969 L 20.773438 9.667969 L 20.773438 8 "/>
<path style=" stroke:none;fill-rule:nonzero;fill:rgb(11.764706%,70.980392%,22.745098%);fill-opacity:1;" d="M 19.546875 9.667969 L 21.226562 9.667969 L 21.226562 8 "/>
<path style=" stroke:none;fill-rule:nonzero;fill:rgb(11.764706%,70.980392%,22.745098%);fill-opacity:1;" d="M 19.546875 9.667969 L 20.386719 8.222656 L 21.839844 9.054688 "/>
<path style=" stroke:none;fill-rule:nonzero;fill:rgb(11.764706%,70.980392%,22.745098%);fill-opacity:1;" d="M 21 10.5 L 21.839844 9.054688 L 20.386719 8.222656 "/>
<path style=" stroke:none;fill-rule:nonzero;fill:rgb(11.764706%,70.980392%,22.745098%);fill-opacity:1;" d="M 21 10.5 L 20.160156 9.054688 L 21.613281 8.222656 "/>
<path style=" stroke:none;fill-rule:nonzero;fill:rgb(11.764706%,70.980392%,22.745098%);fill-opacity:1;" d="M 19.546875 8 L 20.386719 9.445312 L 21.839844 8.609375 "/>
<path style=" stroke:none;fill-rule:nonzero;fill:rgb(11.764706%,70.980392%,22.745098%);fill-opacity:1;" d="M 19.546875 8 L 21.226562 8 L 21.226562 9.667969 "/>
<path style=" stroke:none;fill-rule:nonzero;fill:rgb(11.764706%,70.980392%,22.745098%);fill-opacity:1;" d="M 22.453125 8 L 20.773438 8 L 20.773438 9.667969 "/>
<path style=" stroke:none;fill-rule:nonzero;fill:rgb(11.764706%,70.980392%,22.745098%);fill-opacity:1;" d="M 22.453125 8 L 21.613281 9.445312 L 20.160156 8.609375 "/>
<path style=" stroke:none;fill-rule:nonzero;fill:rgb(80.784314%,6.666667%,14.901961%);fill-opacity:1;" d="M 21 7.464844 L 20.3125 8.648438 L 21.503906 9.332031 "/>
<path style=" stroke:none;fill-rule:nonzero;fill:rgb(80.784314%,6.666667%,14.901961%);fill-opacity:1;" d="M 21 7.464844 L 21.6875 8.648438 L 20.496094 9.332031 "/>
<path style=" stroke:none;fill-rule:nonzero;fill:rgb(80.784314%,6.666667%,14.901961%);fill-opacity:1;" d="M 22.191406 9.515625 L 21.503906 8.332031 L 20.3125 9.015625 "/>
<path style=" stroke:none;fill-rule:nonzero;fill:rgb(80.784314%,6.666667%,14.901961%);fill-opacity:1;" d="M 22.191406 9.515625 L 20.816406 9.515625 L 20.816406 8.148438 "/>
<path style=" stroke:none;fill-rule:nonzero;fill:rgb(80.784314%,6.666667%,14.901961%);fill-opacity:1;" d="M 19.808594 9.515625 L 21.183594 9.515625 L 21.183594 8.148438 "/>
<path style=" stroke:none;fill-rule:nonzero;fill:rgb(80.784314%,6.666667%,14.901961%);fill-opacity:1;" d="M 19.808594 9.515625 L 20.496094 8.332031 L 21.6875 9.015625 "/>
<path style=" stroke:none;fill-rule:nonzero;fill:rgb(80.784314%,6.666667%,14.901961%);fill-opacity:1;" d="M 21 10.199219 L 21.6875 9.015625 L 20.496094 8.332031 "/>
<path style=" stroke:none;fill-rule:nonzero;fill:rgb(80.784314%,6.666667%,14.901961%);fill-opacity:1;" d="M 21 10.199219 L 20.3125 9.015625 L 21.503906 8.332031 "/>
<path style=" stroke:none;fill-rule:nonzero;fill:rgb(80.784314%,6.666667%,14.901961%);fill-opacity:1;" d="M 19.808594 8.148438 L 20.496094 9.332031 L 21.6875 8.648438 "/>
<path style=" stroke:none;fill-rule:nonzero;fill:rgb(80.784314%,6.666667%,14.901961%);fill-opacity:1;" d="M 19.808594 8.148438 L 21.183594 8.148438 L 21.183594 9.515625 "/>
<path style=" stroke:none;fill-rule:nonzero;fill:rgb(80.784314%,6.666667%,14.901961%);fill-opacity:1;" d="M 22.191406 8.148438 L 20.816406 8.148438 L 20.816406 9.515625 "/>
<path style=" stroke:none;fill-rule:nonzero;fill:rgb(80.784314%,6.666667%,14.901961%);fill-opacity:1;" d="M 22.191406 8.148438 L 21.503906 9.332031 L 20.3125 8.648438 "/>
<path style=" stroke:none;fill-rule:nonzero;fill:rgb(11.764706%,70.980392%,22.745098%);fill-opacity:1;" d="M 25.65625 15.167969 L 24.816406 13.722656 L 23.359375 14.554688 "/>
<path style=" stroke:none;fill-rule:nonzero;fill:rgb(11.764706%,70.980392%,22.745098%);fill-opacity:1;" d="M 25.65625 15.167969 L 23.976562 15.167969 L 23.976562 13.5 "/>
<path style=" stroke:none;fill-rule:nonzero;fill:rgb(11.764706%,70.980392%,22.745098%);fill-opacity:1;" d="M 22.746094 15.167969 L 24.425781 15.167969 L 24.425781 13.5 "/>
<path style=" stroke:none;fill-rule:nonzero;fill:rgb(11.764706%,70.980392%,22.745098%);fill-opacity:1;" d="M 22.746094 15.167969 L 23.585938 13.722656 L 25.039062 14.554688 "/>
<path style=" stroke:none;fill-rule:nonzero;fill:rgb(11.764706%,70.980392%,22.745098%);fill-opacity:1;" d="M 24.199219 12.667969 L 23.359375 14.109375 L 24.816406 14.945312 "/>
<path style=" stroke:none;fill-rule:nonzero;fill:rgb(11.764706%,70.980392%,22.745098%);fill-opacity:1;" d="M 24.199219 12.667969 L 25.039062 14.109375 L 23.585938 14.945312 "/>
<path style=" stroke:none;fill-rule:nonzero;fill:rgb(11.764706%,70.980392%,22.745098%);fill-opacity:1;" d="M 22.746094 13.5 L 23.585938 14.945312 L 25.039062 14.109375 "/>
<path style=" stroke:none;fill-rule:nonzero;fill:rgb(11.764706%,70.980392%,22.745098%);fill-opacity:1;" d="M 22.746094 13.5 L 24.425781 13.5 L 24.425781 15.167969 "/>
<path style=" stroke:none;fill-rule:nonzero;fill:rgb(11.764706%,70.980392%,22.745098%);fill-opacity:1;" d="M 25.65625 13.5 L 23.976562 13.5 L 23.976562 15.167969 "/>
<path style=" stroke:none;fill-rule:nonzero;fill:rgb(11.764706%,70.980392%,22.745098%);fill-opacity:1;" d="M 25.65625 13.5 L 24.816406 14.945312 L 23.359375 14.109375 "/>
<path style=" stroke:none;fill-rule:nonzero;fill:rgb(11.764706%,70.980392%,22.745098%);fill-opacity:1;" d="M 24.199219 16 L 25.039062 14.554688 L 23.585938 13.722656 "/>
<path style=" stroke:none;fill-rule:nonzero;fill:rgb(11.764706%,70.980392%,22.745098%);fill-opacity:1;" d="M 24.199219 16 L 23.359375 14.554688 L 24.816406 13.722656 "/>
<path style=" stroke:none;fill-rule:nonzero;fill:rgb(80.784314%,6.666667%,14.901961%);fill-opacity:1;" d="M 25.394531 15.015625 L 24.703125 13.832031 L 23.511719 14.515625 "/>
<path style=" stroke:none;fill-rule:nonzero;fill:rgb(80.784314%,6.666667%,14.901961%);fill-opacity:1;" d="M 25.394531 15.015625 L 24.015625 15.015625 L 24.015625 13.648438 "/>
<path style=" stroke:none;fill-rule:nonzero;fill:rgb(80.784314%,6.666667%,14.901961%);fill-opacity:1;" d="M 23.007812 15.015625 L 24.386719 15.015625 L 24.386719 13.648438 "/>
<path style=" stroke:none;fill-rule:nonzero;fill:rgb(80.784314%,6.666667%,14.901961%);fill-opacity:1;" d="M 23.007812 15.015625 L 23.695312 13.832031 L 24.890625 14.515625 "/>
<path style=" stroke:none;fill-rule:nonzero;fill:rgb(80.784314%,6.666667%,14.901961%);fill-opacity:1;" d="M 24.199219 12.964844 L 23.511719 14.148438 L 24.703125 14.832031 "/>
<path style=" stroke:none;fill-rule:nonzero;fill:rgb(80.784314%,6.666667%,14.901961%);fill-opacity:1;" d="M 24.199219 12.964844 L 24.890625 14.148438 L 23.695312 14.832031 "/>
<path style=" stroke:none;fill-rule:nonzero;fill:rgb(80.784314%,6.666667%,14.901961%);fill-opacity:1;" d="M 23.007812 13.648438 L 23.695312 14.832031 L 24.890625 14.148438 "/>
<path style=" stroke:none;fill-rule:nonzero;fill:rgb(80.784314%,6.666667%,14.901961%);fill-opacity:1;" d="M 23.007812 13.648438 L 24.386719 13.648438 L 24.386719 15.015625 "/>
<path style=" stroke:none;fill-rule:nonzero;fill:rgb(80.784314%,6.666667%,14.901961%);fill-opacity:1;" d="M 25.394531 13.648438 L 24.015625 13.648438 L 24.015625 15.015625 "/>
<path style=" stroke:none;fill-rule:nonzero;fill:rgb(80.784314%,6.666667%,14.901961%);fill-opacity:1;" d="M 25.394531 13.648438 L 24.703125 14.832031 L 23.511719 14.148438 "/>
<path style=" stroke:none;fill-rule:nonzero;fill:rgb(80.784314%,6.666667%,14.901961%);fill-opacity:1;" d="M 24.199219 15.699219 L 24.890625 14.515625 L 23.695312 13.832031 "/>
<path style=" stroke:none;fill-rule:nonzero;fill:rgb(80.784314%,6.666667%,14.901961%);fill-opacity:1;" d="M 24.199219 15.699219 L 23.511719 14.515625 L 24.703125 13.832031 "/>
<path style=" stroke:none;fill-rule:nonzero;fill:rgb(11.764706%,70.980392%,22.745098%);fill-opacity:1;" d="M 16.34375 15.167969 L 18.023438 15.167969 L 18.023438 13.5 "/>
<path style=" stroke:none;fill-rule:nonzero;fill:rgb(11.764706%,70.980392%,22.745098%);fill-opacity:1;" d="M 16.34375 15.167969 L 17.183594 13.722656 L 18.640625 14.554688 "/>
<path style=" stroke:none;fill-rule:nonzero;fill:rgb(11.764706%,70.980392%,22.745098%);fill-opacity:1;" d="M 17.800781 12.667969 L 16.960938 14.109375 L 18.414062 14.945312 "/>
<path style=" stroke:none;fill-rule:nonzero;fill:rgb(11.764706%,70.980392%,22.745098%);fill-opacity:1;" d="M 17.800781 12.667969 L 18.640625 14.109375 L 17.183594 14.945312 "/>
<path style=" stroke:none;fill-rule:nonzero;fill:rgb(11.764706%,70.980392%,22.745098%);fill-opacity:1;" d="M 19.253906 15.167969 L 18.414062 13.722656 L 16.960938 14.554688 "/>
<path style=" stroke:none;fill-rule:nonzero;fill:rgb(11.764706%,70.980392%,22.745098%);fill-opacity:1;" d="M 19.253906 15.167969 L 17.574219 15.167969 L 17.574219 13.5 "/>
<path style=" stroke:none;fill-rule:nonzero;fill:rgb(11.764706%,70.980392%,22.745098%);fill-opacity:1;" d="M 19.253906 13.5 L 17.574219 13.5 L 17.574219 15.167969 "/>
<path style=" stroke:none;fill-rule:nonzero;fill:rgb(11.764706%,70.980392%,22.745098%);fill-opacity:1;" d="M 19.253906 13.5 L 18.414062 14.945312 L 16.960938 14.109375 "/>
<path style=" stroke:none;fill-rule:nonzero;fill:rgb(11.764706%,70.980392%,22.745098%);fill-opacity:1;" d="M 17.800781 16 L 18.640625 14.554688 L 17.183594 13.722656 "/>
<path style=" stroke:none;fill-rule:nonzero;fill:rgb(11.764706%,70.980392%,22.745098%);fill-opacity:1;" d="M 17.800781 16 L 16.960938 14.554688 L 18.414062 13.722656 "/>
<path style=" stroke:none;fill-rule:nonzero;fill:rgb(11.764706%,70.980392%,22.745098%);fill-opacity:1;" d="M 16.34375 13.5 L 17.183594 14.945312 L 18.640625 14.109375 "/>
<path style=" stroke:none;fill-rule:nonzero;fill:rgb(11.764706%,70.980392%,22.745098%);fill-opacity:1;" d="M 16.34375 13.5 L 18.023438 13.5 L 18.023438 15.167969 "/>
<path style=" stroke:none;fill-rule:nonzero;fill:rgb(80.784314%,6.666667%,14.901961%);fill-opacity:1;" d="M 16.605469 15.015625 L 17.984375 15.015625 L 17.984375 13.648438 "/>
<path style=" stroke:none;fill-rule:nonzero;fill:rgb(80.784314%,6.666667%,14.901961%);fill-opacity:1;" d="M 16.605469 15.015625 L 17.296875 13.832031 L 18.488281 14.515625 "/>
<path style=" stroke:none;fill-rule:nonzero;fill:rgb(80.784314%,6.666667%,14.901961%);fill-opacity:1;" d="M 17.800781 12.964844 L 17.109375 14.148438 L 18.304688 14.832031 "/>
<path style=" stroke:none;fill-rule:nonzero;fill:rgb(80.784314%,6.666667%,14.901961%);fill-opacity:1;" d="M 17.800781 12.964844 L 18.488281 14.148438 L 17.296875 14.832031 "/>
<path style=" stroke:none;fill-rule:nonzero;fill:rgb(80.784314%,6.666667%,14.901961%);fill-opacity:1;" d="M 18.992188 15.015625 L 18.304688 13.832031 L 17.109375 14.515625 "/>
<path style=" stroke:none;fill-rule:nonzero;fill:rgb(80.784314%,6.666667%,14.901961%);fill-opacity:1;" d="M 18.992188 15.015625 L 17.613281 15.015625 L 17.613281 13.648438 "/>
<path style=" stroke:none;fill-rule:nonzero;fill:rgb(80.784314%,6.666667%,14.901961%);fill-opacity:1;" d="M 18.992188 13.648438 L 17.613281 13.648438 L 17.613281 15.015625 "/>
<path style=" stroke:none;fill-rule:nonzero;fill:rgb(80.784314%,6.666667%,14.901961%);fill-opacity:1;" d="M 18.992188 13.648438 L 18.304688 14.832031 L 17.109375 14.148438 "/>
<path style=" stroke:none;fill-rule:nonzero;fill:rgb(80.784314%,6.666667%,14.901961%);fill-opacity:1;" d="M 17.800781 15.699219 L 18.488281 14.515625 L 17.296875 13.832031 "/>
<path style=" stroke:none;fill-rule:nonzero;fill:rgb(80.784314%,6.666667%,14.901961%);fill-opacity:1;" d="M 17.800781 15.699219 L 17.109375 14.515625 L 18.304688 13.832031 "/>
<path style=" stroke:none;fill-rule:nonzero;fill:rgb(80.784314%,6.666667%,14.901961%);fill-opacity:1;" d="M 16.605469 13.648438 L 17.296875 14.832031 L 18.488281 14.148438 "/>
<path style=" stroke:none;fill-rule:nonzero;fill:rgb(80.784314%,6.666667%,14.901961%);fill-opacity:1;" d="M 16.605469 13.648438 L 17.984375 13.648438 L 17.984375 15.015625 "/>
</g>
</svg>
