<?xml version="1.0" encoding="UTF-8"?>
<svg xmlns="http://www.w3.org/2000/svg" xmlns:xlink="http://www.w3.org/1999/xlink" width="39pt" height="25pt" viewBox="0 0 39 25" version="1.1">
<g id="surface1">
<rect x="0" y="0" width="39" height="25" style="fill:rgb(1.176471%,18.039216%,63.137255%);fill-opacity:1;stroke:none;"/>
<path style=" stroke:none;fill-rule:nonzero;fill:rgb(87.843137%,0%,14.509804%);fill-opacity:1;" d="M 0 6.25 L 39 6.25 L 39 18.75 L 0 18.75 Z M 0 6.25 "/>
<path style="fill-rule:nonzero;fill:rgb(100%,100%,100%);fill-opacity:1;stroke-width:0.96;stroke-linecap:butt;stroke-linejoin:bevel;stroke:rgb(0%,0%,0%);stroke-opacity:1;stroke-miterlimit:4;" d="M 139.016996 623.4336 L 252.824087 623.4336 L 252.824087 667.2461 L 139.016996 667.2461 Z M 139.016996 623.4336 " transform="matrix(0.0624,0,0,0.0625,7.309714,-27.18335)"/>
<path style="fill-rule:nonzero;fill:rgb(100%,100%,100%);fill-opacity:1;stroke-width:0.96;stroke-linecap:butt;stroke-linejoin:bevel;stroke:rgb(0%,0%,0%);stroke-opacity:1;stroke-miterlimit:4;" d="M 246.939672 647.6211 L 250.507881 647.6211 L 250.507881 664.1211 L 246.939672 664.1211 Z M 246.939672 647.6211 " transform="matrix(0.0624,0,0,0.0625,7.309714,-27.18335)"/>
<path style="fill-rule:nonzero;fill:rgb(100%,100%,100%);fill-opacity:1;stroke-width:0.96;stroke-linecap:butt;stroke-linejoin:bevel;stroke:rgb(0%,0%,0%);stroke-opacity:1;stroke-miterlimit:4;" d="M 139.016996 639.4961 L 252.824087 639.4961 L 252.824087 644.5586 L 139.016996 644.5586 Z M 139.016996 639.4961 " transform="matrix(0.0624,0,0,0.0625,7.309714,-27.18335)"/>
<path style="fill-rule:nonzero;fill:rgb(100%,100%,100%);fill-opacity:1;stroke-width:0.96;stroke-linecap:butt;stroke-linejoin:bevel;stroke:rgb(0%,0%,0%);stroke-opacity:1;stroke-miterlimit:4;" d="M 139.016996 632.6211 L 252.824087 632.6211 L 252.824087 637.0586 L 139.016996 637.0586 Z M 139.016996 632.6211 " transform="matrix(0.0624,0,0,0.0625,7.309714,-27.18335)"/>
<path style="fill-rule:nonzero;fill:rgb(100%,100%,100%);fill-opacity:1;stroke-width:0.94545;stroke-linecap:butt;stroke-linejoin:bevel;stroke:rgb(0%,0%,0%);stroke-opacity:1;stroke-miterlimit:4;" d="M 139.016996 625.6836 L 252.824087 625.6836 L 252.824087 630.0586 L 139.016996 630.0586 Z M 139.016996 625.6836 " transform="matrix(0.0624,0,0,0.0625,7.309714,-27.18335)"/>
<path style="fill-rule:nonzero;fill:rgb(100%,100%,100%);fill-opacity:1;stroke-width:0.96;stroke-linecap:butt;stroke-linejoin:bevel;stroke:rgb(0%,0%,0%);stroke-opacity:1;stroke-miterlimit:4;" d="M 169.002473 647.6211 L 172.570682 647.6211 L 172.570682 664.1211 L 169.002473 664.1211 Z M 169.002473 647.6211 " transform="matrix(0.0624,0,0,0.0625,7.309714,-27.18335)"/>
<path style="fill-rule:nonzero;fill:rgb(100%,100%,100%);fill-opacity:1;stroke-width:0.96;stroke-linecap:butt;stroke-linejoin:bevel;stroke:rgb(0%,0%,0%);stroke-opacity:1;stroke-miterlimit:4;" d="M 217.955798 647.6211 L 221.586607 647.6211 L 221.586607 664.1211 L 217.955798 664.1211 Z M 217.955798 647.6211 " transform="matrix(0.0624,0,0,0.0625,7.309714,-27.18335)"/>
<path style="fill-rule:nonzero;fill:rgb(100%,100%,100%);fill-opacity:1;stroke-width:0.96;stroke-linecap:butt;stroke-linejoin:bevel;stroke:rgb(0%,0%,0%);stroke-opacity:1;stroke-miterlimit:4;" d="M 139.893398 647.6211 L 143.524207 647.6211 L 143.524207 664.1211 L 139.893398 664.1211 Z M 139.893398 647.6211 " transform="matrix(0.0624,0,0,0.0625,7.309714,-27.18335)"/>
<path style="fill-rule:nonzero;fill:rgb(100%,100%,100%);fill-opacity:1;stroke-width:0.96;stroke-linecap:butt;stroke-linejoin:bevel;stroke:rgb(0%,0%,0%);stroke-opacity:1;stroke-miterlimit:4;" d="M 146.967216 647.6211 L 150.535425 647.6211 L 150.535425 664.1211 L 146.967216 664.1211 Z M 146.967216 647.6211 " transform="matrix(0.0624,0,0,0.0625,7.309714,-27.18335)"/>
<path style="fill-rule:nonzero;fill:rgb(100%,100%,100%);fill-opacity:1;stroke-width:0.96;stroke-linecap:butt;stroke-linejoin:bevel;stroke:rgb(0%,0%,0%);stroke-opacity:1;stroke-miterlimit:4;" d="M 154.479235 647.6211 L 158.047444 647.6211 L 158.047444 664.1211 L 154.479235 664.1211 Z M 154.479235 647.6211 " transform="matrix(0.0624,0,0,0.0625,7.309714,-27.18335)"/>
<path style="fill-rule:nonzero;fill:rgb(100%,100%,100%);fill-opacity:1;stroke-width:0.96;stroke-linecap:butt;stroke-linejoin:bevel;stroke:rgb(0%,0%,0%);stroke-opacity:1;stroke-miterlimit:4;" d="M 161.928654 647.6211 L 165.559464 647.6211 L 165.559464 664.1211 L 161.928654 664.1211 Z M 161.928654 647.6211 " transform="matrix(0.0624,0,0,0.0625,7.309714,-27.18335)"/>
<path style="fill-rule:nonzero;fill:rgb(100%,100%,100%);fill-opacity:1;stroke-width:0.96;stroke-linecap:butt;stroke-linejoin:bevel;stroke:rgb(0%,0%,0%);stroke-opacity:1;stroke-miterlimit:4;" d="M 224.779215 647.6211 L 228.347424 647.6211 L 228.347424 664.1211 L 224.779215 664.1211 Z M 224.779215 647.6211 " transform="matrix(0.0624,0,0,0.0625,7.309714,-27.18335)"/>
<path style="fill-rule:nonzero;fill:rgb(100%,100%,100%);fill-opacity:1;stroke-width:0.96;stroke-linecap:butt;stroke-linejoin:bevel;stroke:rgb(0%,0%,0%);stroke-opacity:1;stroke-miterlimit:4;" d="M 232.291235 647.6211 L 235.859444 647.6211 L 235.859444 664.1211 L 232.291235 664.1211 Z M 232.291235 647.6211 " transform="matrix(0.0624,0,0,0.0625,7.309714,-27.18335)"/>
<path style="fill-rule:nonzero;fill:rgb(100%,100%,100%);fill-opacity:1;stroke-width:0.96;stroke-linecap:butt;stroke-linejoin:bevel;stroke:rgb(0%,0%,0%);stroke-opacity:1;stroke-miterlimit:4;" d="M 239.740654 647.6211 L 243.371463 647.6211 L 243.371463 664.1211 L 239.740654 664.1211 Z M 239.740654 647.6211 " transform="matrix(0.0624,0,0,0.0625,7.309714,-27.18335)"/>
<path style="fill-rule:nonzero;fill:rgb(100%,100%,100%);fill-opacity:1;stroke-width:0.96;stroke-linecap:butt;stroke-linejoin:miter;stroke:rgb(0%,0%,0%);stroke-opacity:1;stroke-miterlimit:4;" d="M 94.508282 669.5586 C 96.261086 668.6836 98.264291 666.5586 98.952893 664.2461 L 292.011787 664.2461 C 292.637789 666.5586 294.640994 668.6836 296.456399 669.5586 Z M 94.508282 669.5586 " transform="matrix(0.0624,0,0,0.0625,7.309714,-27.18335)"/>
<path style="fill-rule:nonzero;fill:rgb(100%,100%,100%);fill-opacity:1;stroke-width:0.96;stroke-linecap:butt;stroke-linejoin:miter;stroke:rgb(0%,0%,0%);stroke-opacity:1;stroke-miterlimit:4;" d="M 192.978334 556.8086 C 192.978334 556.8086 192.853134 552.6836 195.23194 552.6211 C 197.673346 552.6836 197.485545 556.8086 197.485545 556.8086 Z M 192.978334 556.8086 " transform="matrix(0.0624,0,0,0.0625,7.309714,-27.18335)"/>
<path style="fill-rule:nonzero;fill:rgb(100%,100%,100%);fill-opacity:1;stroke-width:0.96;stroke-linecap:butt;stroke-linejoin:miter;stroke:rgb(0%,0%,0%);stroke-opacity:1;stroke-miterlimit:4;" d="M 180.520902 611.3711 L 180.520902 605.8086 C 180.458302 603.0586 177.766495 602.8086 177.641295 600.8086 C 177.641295 600.8086 177.328294 597.8086 178.142096 596.4336 C 179.206299 600.4336 181.209504 599.6836 181.209504 598.0586 C 181.209504 596.6211 180.082701 595.2461 177.766495 591.7461 C 177.015293 590.6211 177.516094 587.0586 178.517697 585.8086 C 178.893298 588.8711 179.394099 590.3086 180.708703 590.3086 C 181.522505 590.3086 182.148506 589.8086 182.148506 588.2461 C 182.148506 586.3086 180.833903 585.3086 180.145301 583.5586 C 179.394099 581.4961 179.957501 579.3711 181.209504 578.1836 C 181.772905 581.1836 181.585105 582.4336 182.899708 582.4336 C 185.654115 581.5586 182.899708 577.6211 182.336307 576.6211 C 181.710305 575.4961 183.275309 573.1836 183.275309 573.1836 C 184.089111 575.8711 184.402112 576.0586 185.341114 575.8086 C 186.467917 575.4961 186.342717 573.7461 184.902913 572.3711 C 184.026511 571.4961 184.089111 570.1836 185.090714 569.1211 C 186.029716 570.9961 187.281719 570.8711 187.40692 569.7461 L 186.655718 565.3711 L 203.870762 565.3711 L 202.99436 569.6211 C 202.806559 570.8086 204.434163 571.0586 205.435766 569.1211 C 206.437368 570.1836 206.499969 571.4961 205.623566 572.3711 C 204.183763 573.7461 203.995962 575.4961 205.185365 575.8086 C 206.124368 576.0586 206.374768 575.8711 207.25117 573.1836 C 207.25117 573.1836 208.690974 574.7461 208.190173 576.6211 C 207.564171 577.6211 204.872364 581.5586 207.564171 582.4336 C 208.941375 582.4336 208.753574 581.1836 209.316976 578.1836 C 210.568979 579.3711 211.06978 581.4961 210.318578 583.5586 C 209.692577 585.3086 208.377973 586.3086 208.377973 588.2461 C 208.377973 589.8086 209.003975 590.3086 209.817777 590.3086 C 211.13238 590.3086 211.570582 588.8711 212.008783 585.8086 C 213.010385 587.0586 213.448586 590.6211 212.759985 591.7461 C 210.443779 595.2461 209.316976 596.6211 209.316976 598.0586 C 209.316976 599.6836 211.320181 600.4336 212.384384 596.4336 C 213.198186 597.8086 212.822585 600.8086 212.822585 600.8086 C 212.759985 602.8086 210.068178 603.0586 210.005578 605.8086 L 210.005578 611.3711 Z M 180.520902 611.3711 " transform="matrix(0.0624,0,0,0.0625,7.309714,-27.18335)"/>
<path style="fill-rule:nonzero;fill:rgb(100%,100%,100%);fill-opacity:1;stroke-width:0.96;stroke-linecap:butt;stroke-linejoin:miter;stroke:rgb(0%,0%,0%);stroke-opacity:1;stroke-miterlimit:4;" d="M 187.71992 565.3086 L 187.344319 562.1836 L 203.18216 562.1836 L 202.743959 565.3086 Z M 187.71992 565.3086 " transform="matrix(0.0624,0,0,0.0625,7.309714,-27.18335)"/>
<path style="fill-rule:nonzero;fill:rgb(100%,100%,100%);fill-opacity:1;stroke-width:0.96;stroke-linecap:butt;stroke-linejoin:miter;stroke:rgb(0%,0%,0%);stroke-opacity:1;stroke-miterlimit:4;" d="M 188.784123 562.1211 L 188.471122 559.5586 L 202.055357 559.5586 L 201.742356 562.1211 Z M 188.784123 562.1211 " transform="matrix(0.0624,0,0,0.0625,7.309714,-27.18335)"/>
<path style="fill-rule:nonzero;fill:rgb(100%,100%,100%);fill-opacity:1;stroke-width:0.96;stroke-linecap:butt;stroke-linejoin:miter;stroke:rgb(0%,0%,0%);stroke-opacity:1;stroke-miterlimit:4;" d="M 190.975129 559.4961 L 190.724728 556.8711 L 199.801751 556.8711 L 199.551351 559.4961 Z M 190.975129 559.4961 " transform="matrix(0.0624,0,0,0.0625,7.309714,-27.18335)"/>
<path style="fill-rule:nonzero;fill:rgb(100%,100%,100%);fill-opacity:1;stroke-width:0.96;stroke-linecap:butt;stroke-linejoin:miter;stroke:rgb(0%,0%,0%);stroke-opacity:1;stroke-miterlimit:4;" d="M 223.965413 669.5586 C 221.962208 668.7461 219.020001 666.6211 219.020001 664.4961 L 219.020001 640.1836 L 221.649207 636.8086 L 168.877272 636.8086 L 171.381279 640.1836 L 171.381279 664.4961 C 171.381279 666.6211 169.378073 668.7461 167.312268 669.5586 Z M 223.965413 669.5586 " transform="matrix(0.0624,0,0,0.0625,7.309714,-27.18335)"/>
<path style="fill-rule:nonzero;fill:rgb(100%,100%,100%);fill-opacity:1;stroke-width:0.96;stroke-linecap:butt;stroke-linejoin:bevel;stroke:rgb(0%,0%,0%);stroke-opacity:1;stroke-miterlimit:4;" d="M 178.267296 647.6211 L 181.835505 647.6211 L 181.835505 664.1211 L 178.267296 664.1211 Z M 178.267296 647.6211 " transform="matrix(0.0624,0,0,0.0625,7.309714,-27.18335)"/>
<path style="fill-rule:nonzero;fill:rgb(100%,100%,100%);fill-opacity:1;stroke-width:0.96;stroke-linecap:butt;stroke-linejoin:bevel;stroke:rgb(0%,0%,0%);stroke-opacity:1;stroke-miterlimit:4;" d="M 208.565774 647.6211 L 212.133983 647.6211 L 212.133983 664.1211 L 208.565774 664.1211 Z M 208.565774 647.6211 " transform="matrix(0.0624,0,0,0.0625,7.309714,-27.18335)"/>
<path style="fill-rule:nonzero;fill:rgb(100%,100%,100%);fill-opacity:1;stroke-width:0.96;stroke-linecap:butt;stroke-linejoin:miter;stroke:rgb(0%,0%,0%);stroke-opacity:1;stroke-miterlimit:4;" d="M 167.93827 609.1836 L 167.93827 636.8086 L 221.962208 636.8086 L 221.962208 630.8711 L 222.024808 609.1836 C 219.771203 610.0586 219.395602 612.0586 219.395602 612.0586 L 219.395602 623.8086 L 170.692677 623.8086 L 170.692677 612.0586 C 170.692677 612.0586 170.129275 610.0586 167.93827 609.1836 Z M 167.93827 609.1836 " transform="matrix(0.0624,0,0,0.0625,7.309714,-27.18335)"/>
<path style="fill-rule:nonzero;fill:rgb(100%,100%,100%);fill-opacity:1;stroke-width:0.96;stroke-linecap:butt;stroke-linejoin:miter;stroke:rgb(0%,0%,0%);stroke-opacity:1;stroke-miterlimit:4;" d="M 214.575389 669.5586 C 212.822585 668.7461 209.003975 666.6211 209.003975 664.4961 L 209.003975 637.3086 C 209.379576 635.7461 211.445381 634.8711 212.759985 633.9336 L 176.952693 633.9336 C 178.642897 634.8086 180.520902 635.5586 181.209504 637.3086 L 181.209504 664.4961 C 181.209504 666.6211 178.142096 668.7461 176.389291 669.5586 Z M 214.575389 669.5586 " transform="matrix(0.0624,0,0,0.0625,7.309714,-27.18335)"/>
<path style="fill-rule:nonzero;fill:rgb(100%,100%,100%);fill-opacity:1;stroke-width:0.96;stroke-linecap:butt;stroke-linejoin:miter;stroke:rgb(0%,0%,0%);stroke-opacity:1;stroke-miterlimit:4;" d="M 219.395602 634.2461 L 219.395602 614.6211 L 214.512789 614.6211 L 214.512789 612.7461 L 175.63809 612.7461 L 175.63809 614.6211 L 170.755277 614.6211 L 170.755277 634.2461 Z M 219.395602 634.2461 " transform="matrix(0.0624,0,0,0.0625,7.309714,-27.18335)"/>
<path style="fill-rule:nonzero;fill:rgb(100%,100%,100%);fill-opacity:1;stroke-width:0.96;stroke-linecap:butt;stroke-linejoin:miter;stroke:rgb(0%,0%,0%);stroke-opacity:1;stroke-miterlimit:4;" d="M 206.875569 669.5586 C 205.122765 668.7461 202.618759 666.6211 202.618759 664.4961 L 202.618759 641.2461 L 204.058562 639.1836 L 186.342717 639.1836 L 187.782521 641.2461 L 187.782521 664.4961 C 187.782521 666.6211 185.215914 668.7461 183.52571 669.5586 Z M 206.875569 669.5586 " transform="matrix(0.0624,0,0,0.0625,7.309714,-27.18335)"/>
<path style="fill-rule:nonzero;fill:rgb(100%,100%,100%);fill-opacity:1;stroke-width:0.981;stroke-linecap:butt;stroke-linejoin:miter;stroke:rgb(0%,0%,0%);stroke-opacity:1;stroke-miterlimit:4;" d="M 190.724728 639.1836 L 199.676551 639.1836 L 199.676551 669.5586 L 190.724728 669.5586 Z M 190.724728 639.1836 " transform="matrix(0.0624,0,0,0.0625,7.309714,-27.18335)"/>
<path style="fill-rule:nonzero;fill:rgb(100%,100%,100%);fill-opacity:1;stroke-width:0.96;stroke-linecap:butt;stroke-linejoin:bevel;stroke:rgb(0%,0%,0%);stroke-opacity:1;stroke-miterlimit:4;" d="M 204.371563 632.4961 C 204.371563 630.4961 210.193378 630.3711 213.198186 628.6836 L 177.265694 628.6836 C 180.270501 630.3711 185.904516 630.5586 185.904516 632.4961 L 187.156519 636.3711 L 202.055357 636.9336 Z M 204.371563 632.4961 " transform="matrix(0.0624,0,0,0.0625,7.309714,-27.18335)"/>
<path style="fill-rule:nonzero;fill:rgb(100%,100%,100%);fill-opacity:1;stroke-width:0.96;stroke-linecap:butt;stroke-linejoin:miter;stroke:rgb(0%,0%,0%);stroke-opacity:1;stroke-miterlimit:4;" d="M 211.382781 611.3711 C 211.382781 606.4336 211.633182 604.5586 213.135586 604.5586 L 213.135586 620.1211 C 209.442176 621.4961 206.812969 626.1836 206.812969 626.1836 L 183.58831 626.1836 C 183.58831 626.1836 180.959103 621.4961 177.265694 620.1211 L 177.265694 604.5586 C 179.143698 604.5586 179.143698 606.4961 179.143698 611.3711 Z M 211.382781 611.3711 " transform="matrix(0.0624,0,0,0.0625,7.309714,-27.18335)"/>
<path style="fill-rule:nonzero;fill:rgb(100%,100%,100%);fill-opacity:1;stroke-width:0.96;stroke-linecap:butt;stroke-linejoin:miter;stroke:rgb(0%,0%,0%);stroke-opacity:1;stroke-miterlimit:4;" d="M 213.135586 609.3086 C 213.135586 603.6836 217.955798 603.0586 217.955798 603.0586 L 217.955798 608.0586 C 216.140393 607.9961 215.263991 609.6836 215.263991 612.1211 C 215.263991 614.6211 216.703795 614.6211 216.703795 614.6211 L 216.703795 628.8086 L 213.135586 628.8086 Z M 213.135586 609.3086 " transform="matrix(0.0624,0,0,0.0625,7.309714,-27.18335)"/>
<path style="fill-rule:nonzero;fill:rgb(100%,100%,100%);fill-opacity:1;stroke-width:0.96;stroke-linecap:butt;stroke-linejoin:miter;stroke:rgb(0%,0%,0%);stroke-opacity:1;stroke-miterlimit:4;" d="M 177.265694 609.3086 C 177.265694 603.6836 172.445481 603.0586 172.445481 603.0586 L 172.445481 608.0586 C 174.260886 607.9961 175.137288 609.6836 175.137288 612.1211 C 175.137288 614.6211 173.697485 614.6211 173.697485 614.6211 L 173.697485 628.8086 L 177.265694 628.8086 Z M 177.265694 609.3086 " transform="matrix(0.0624,0,0,0.0625,7.309714,-27.18335)"/>
<path style="fill:none;stroke-width:0.8;stroke-linecap:butt;stroke-linejoin:miter;stroke:rgb(0%,0%,0%);stroke-opacity:1;stroke-miterlimit:4;" d="M 186.843518 570.6211 L 203.995962 570.6211 " transform="matrix(0.0624,0,0,0.0625,7.309714,-27.18335)"/>
<path style="fill:none;stroke-width:0.8;stroke-linecap:butt;stroke-linejoin:miter;stroke:rgb(0%,0%,0%);stroke-opacity:1;stroke-miterlimit:4;" d="M 184.840313 575.9961 L 205.748767 575.9961 " transform="matrix(0.0624,0,0,0.0625,7.309714,-27.18335)"/>
<path style="fill:none;stroke-width:0.8;stroke-linecap:butt;stroke-linejoin:miter;stroke:rgb(0%,0%,0%);stroke-opacity:1;stroke-miterlimit:4;" d="M 182.774508 582.4336 L 207.689372 582.4336 " transform="matrix(0.0624,0,0,0.0625,7.309714,-27.18335)"/>
<path style="fill:none;stroke-width:0.8;stroke-linecap:butt;stroke-linejoin:miter;stroke:rgb(0%,0%,0%);stroke-opacity:1;stroke-miterlimit:4;" d="M 180.646102 590.3711 L 210.193378 590.3711 " transform="matrix(0.0624,0,0,0.0625,7.309714,-27.18335)"/>
<path style="fill:none;stroke-width:0.8;stroke-linecap:butt;stroke-linejoin:miter;stroke:rgb(0%,0%,0%);stroke-opacity:1;stroke-miterlimit:4;" d="M 179.957501 599.4336 L 210.381178 599.4336 " transform="matrix(0.0624,0,0,0.0625,7.309714,-27.18335)"/>
<path style="fill:none;stroke-width:0.96;stroke-linecap:butt;stroke-linejoin:miter;stroke:rgb(0%,0%,0%);stroke-opacity:1;stroke-miterlimit:4;" d="M 170.755277 628.9336 L 219.395602 628.9336 " transform="matrix(0.0624,0,0,0.0625,7.309714,-27.18335)"/>
<path style="fill:none;stroke-width:0.96;stroke-linecap:butt;stroke-linejoin:miter;stroke:rgb(0%,0%,0%);stroke-opacity:1;stroke-miterlimit:4;" d="M 186.217517 628.9336 L 204.246363 628.9336 L 204.246363 635.5586 L 186.217517 635.5586 Z M 186.217517 628.9336 " transform="matrix(0.0624,0,0,0.0625,7.309714,-27.18335)"/>
<path style="fill-rule:nonzero;fill:rgb(100%,100%,100%);fill-opacity:1;stroke-width:0.96;stroke-linecap:butt;stroke-linejoin:miter;stroke:rgb(0%,0%,0%);stroke-opacity:1;stroke-miterlimit:4;" d="M 183.901311 614.2461 C 186.906118 617.8086 186.655718 623.9336 186.593118 627.4961 L 203.933362 627.4961 C 203.933362 623.9336 203.620361 617.8086 206.625169 614.2461 Z M 183.901311 614.2461 " transform="matrix(0.0624,0,0,0.0625,7.309714,-27.18335)"/>
<path style="fill-rule:nonzero;fill:rgb(100%,100%,100%);fill-opacity:1;stroke-width:0.96;stroke-linecap:butt;stroke-linejoin:miter;stroke:rgb(0%,0%,0%);stroke-opacity:1;stroke-miterlimit:4;" d="M 193.666936 573.1211 L 191.28813 571.8711 L 191.28813 568.3711 C 192.289732 568.6836 193.353935 568.8086 193.479135 570.3711 C 193.792136 568.1211 194.418138 568.2461 195.35714 567.3711 C 196.358743 568.2461 196.922144 568.1211 197.297745 570.3711 C 197.360345 568.8086 198.487148 568.6836 199.42615 568.3711 L 199.42615 571.8711 L 197.047344 573.1211 Z M 193.666936 573.1211 " transform="matrix(0.0624,0,0,0.0625,7.309714,-27.18335)"/>
<path style="fill-rule:nonzero;fill:rgb(100%,100%,100%);fill-opacity:1;stroke-width:0.96;stroke-linecap:butt;stroke-linejoin:miter;stroke:rgb(0%,0%,0%);stroke-opacity:1;stroke-miterlimit:4;" d="M 193.541735 578.8711 L 189.597925 576.1211 L 189.597925 572.9336 C 190.975129 573.2461 192.540133 573.3711 192.665333 575.0586 C 193.166134 572.6211 194.042537 571.3711 195.35714 570.4336 C 196.734344 571.3711 197.610746 572.6211 198.111547 575.0586 C 198.236747 573.3711 199.801751 573.2461 201.178955 572.9336 L 201.178955 576.1211 L 197.235145 578.8711 Z M 193.541735 578.8711 " transform="matrix(0.0624,0,0,0.0625,7.309714,-27.18335)"/>
<path style="fill-rule:nonzero;fill:rgb(100%,100%,100%);fill-opacity:1;stroke-width:0.96;stroke-linecap:butt;stroke-linejoin:miter;stroke:rgb(0%,0%,0%);stroke-opacity:1;stroke-miterlimit:4;" d="M 193.228735 587.8086 L 188.721523 583.8086 L 188.721523 579.0586 C 190.286527 579.5586 192.101932 579.7461 192.227132 582.2461 C 192.790533 578.6836 193.792136 576.8086 195.35714 575.4336 C 196.922144 576.8086 197.923747 578.6836 198.487148 582.2461 C 198.674948 579.7461 200.427753 579.5586 202.055357 579.0586 L 202.055357 583.8086 L 197.485545 587.8086 Z M 193.228735 587.8086 " transform="matrix(0.0624,0,0,0.0625,7.309714,-27.18335)"/>
<path style="fill-rule:nonzero;fill:rgb(100%,100%,100%);fill-opacity:1;stroke-width:0.96;stroke-linecap:butt;stroke-linejoin:miter;stroke:rgb(0%,0%,0%);stroke-opacity:1;stroke-miterlimit:4;" d="M 201.617156 593.1211 L 197.485545 598.7461 L 192.853134 598.7461 L 188.784123 593.1211 Z M 201.617156 593.1211 " transform="matrix(0.0624,0,0,0.0625,7.309714,-27.18335)"/>
<path style="fill-rule:nonzero;fill:rgb(100%,100%,100%);fill-opacity:1;stroke-width:0.96;stroke-linecap:butt;stroke-linejoin:miter;stroke:rgb(0%,0%,0%);stroke-opacity:1;stroke-miterlimit:4;" d="M 186.405317 602.6211 C 188.471122 603.7461 189.222324 605.9961 189.410125 610.1836 L 200.991154 610.1836 C 201.178955 605.9961 201.930157 603.7461 203.995962 602.6211 Z M 186.405317 602.6211 " transform="matrix(0.0624,0,0,0.0625,7.309714,-27.18335)"/>
<path style="fill-rule:nonzero;fill:rgb(100%,100%,100%);fill-opacity:1;stroke-width:0.96;stroke-linecap:butt;stroke-linejoin:bevel;stroke:rgb(0%,0%,0%);stroke-opacity:1;stroke-miterlimit:4;" d="M 204.183763 593.1211 L 204.183763 587.3711 C 202.243158 587.9336 200.928554 589.0586 200.365153 590.6211 C 200.365153 588.7461 197.923747 584.3711 195.16934 582.2461 C 192.477533 584.6211 189.910926 588.6211 189.973526 590.6211 C 189.535325 589.1836 188.158122 587.9336 186.217517 587.3711 L 186.217517 593.1211 Z M 204.183763 593.1211 " transform="matrix(0.0624,0,0,0.0625,7.309714,-27.18335)"/>
<path style="fill-rule:nonzero;fill:rgb(100%,100%,100%);fill-opacity:1;stroke-width:0.96;stroke-linecap:butt;stroke-linejoin:bevel;stroke:rgb(0%,0%,0%);stroke-opacity:1;stroke-miterlimit:4;" d="M 205.060165 602.6211 L 205.060165 596.9336 C 202.931759 597.4336 201.491956 598.6211 200.928554 600.1836 C 200.928554 598.3086 198.174147 593.9336 195.16934 591.7461 C 192.227132 594.1836 189.410125 598.1211 189.472725 600.1836 C 188.971924 598.6836 187.46952 597.4336 185.341114 596.9336 L 185.341114 602.6211 Z M 205.060165 602.6211 " transform="matrix(0.0624,0,0,0.0625,7.309714,-27.18335)"/>
<path style="fill-rule:nonzero;fill:rgb(100%,100%,100%);fill-opacity:1;stroke-width:0.96;stroke-linecap:butt;stroke-linejoin:bevel;stroke:rgb(0%,0%,0%);stroke-opacity:1;stroke-miterlimit:4;" d="M 207.438971 614.3086 L 207.438971 607.7461 C 204.809764 608.4336 203.11956 610.3711 202.305758 611.5586 C 202.305758 607.9961 198.299348 602.5586 195.16934 600.7461 C 192.039332 602.6211 188.095521 608.1836 188.095521 611.5586 C 187.219119 610.4336 185.591515 608.4336 182.962308 607.7461 L 182.962308 614.3086 Z M 207.438971 614.3086 " transform="matrix(0.0624,0,0,0.0625,7.309714,-27.18335)"/>
<path style="fill-rule:nonzero;fill:rgb(100%,100%,100%);fill-opacity:1;stroke-width:0.96;stroke-linecap:butt;stroke-linejoin:bevel;stroke:rgb(0%,0%,0%);stroke-opacity:1;stroke-miterlimit:4;" d="M 205.999167 628.9336 L 205.999167 622.1836 C 203.682961 623.0586 202.931759 625.3086 202.243158 626.8711 C 202.493558 619.9961 198.361948 612.6211 195.16934 610.7461 C 192.039332 612.6211 187.782521 620.1836 188.158122 626.8711 C 187.40692 625.3711 186.718318 623.0586 184.402112 622.1836 L 184.402112 628.9336 Z M 205.999167 628.9336 " transform="matrix(0.0624,0,0,0.0625,7.309714,-27.18335)"/>
<path style="fill-rule:nonzero;fill:rgb(100%,100%,100%);fill-opacity:1;stroke-width:0.96;stroke-linecap:butt;stroke-linejoin:miter;stroke:rgb(0%,0%,0%);stroke-opacity:1;stroke-miterlimit:4;" d="M 204.371563 639.1836 L 204.371563 632.3711 C 201.930157 632.9961 201.742356 633.8711 200.991154 635.4336 C 201.241555 631.3086 198.361948 626.6211 195.16934 624.7461 C 192.039332 626.6211 189.159724 631.3086 189.410125 635.4336 C 188.658923 633.8711 188.533723 632.9961 186.029716 632.3711 L 186.029716 639.1836 Z M 204.371563 639.1836 " transform="matrix(0.0624,0,0,0.0625,7.309714,-27.18335)"/>
<path style="fill-rule:nonzero;fill:rgb(100%,100%,100%);fill-opacity:1;stroke-width:0.96;stroke-linecap:butt;stroke-linejoin:miter;stroke:rgb(0%,0%,0%);stroke-opacity:1;stroke-miterlimit:4;" d="M 98.952893 664.2461 L 98.952893 643.8086 C 98.264291 641.1836 96.073286 638.8711 94.383082 638.4336 L 94.383082 620.4336 L 98.139091 622.4336 L 102.395902 641.2461 L 102.395902 664.2461 Z M 98.952893 664.2461 " transform="matrix(0.0624,0,0,0.0625,7.309714,-27.18335)"/>
<path style="fill-rule:nonzero;fill:rgb(100%,100%,100%);fill-opacity:1;stroke-width:0.96;stroke-linecap:butt;stroke-linejoin:miter;stroke:rgb(0%,0%,0%);stroke-opacity:1;stroke-miterlimit:4;" d="M 98.952893 664.3086 L 98.952893 643.8086 C 98.264291 641.1836 96.073286 638.8711 94.383082 638.4336 L 94.383082 619.1836 C 96.887088 619.1836 98.139091 622.4336 98.139091 622.4336 L 102.395902 641.2461 L 102.395902 664.1211 Z M 98.952893 664.3086 " transform="matrix(0.0624,0,0,0.0625,7.309714,-27.18335)"/>
<path style="fill-rule:nonzero;fill:rgb(100%,100%,100%);fill-opacity:1;stroke-width:0.96;stroke-linecap:butt;stroke-linejoin:miter;stroke:rgb(0%,0%,0%);stroke-opacity:1;stroke-miterlimit:4;" d="M 96.261086 669.5586 C 98.013891 668.7461 100.517897 666.6211 100.517897 664.4961 L 100.517897 638.9336 L 99.328494 636.8086 L 142.835606 636.8086 L 141.145401 638.9336 L 141.145401 664.4961 C 141.145401 666.6211 142.898206 668.7461 144.65101 669.5586 Z M 96.261086 669.5586 " transform="matrix(0.0624,0,0,0.0625,7.309714,-27.18335)"/>
<path style="fill-rule:nonzero;fill:rgb(100%,100%,100%);fill-opacity:1;stroke-width:0.96;stroke-linecap:butt;stroke-linejoin:miter;stroke:rgb(0%,0%,0%);stroke-opacity:1;stroke-miterlimit:4;" d="M 135.824388 669.5586 C 134.134183 668.7461 131.567577 666.6211 131.567577 664.4961 L 131.567577 640.1836 L 135.198386 636.8086 L 105.65111 636.8086 L 109.219319 640.1836 L 109.219319 664.4961 C 109.219319 666.6211 106.715313 668.7461 104.962509 669.5586 Z M 135.824388 669.5586 " transform="matrix(0.0624,0,0,0.0625,7.309714,-27.18335)"/>
<path style="fill-rule:nonzero;fill:rgb(100%,100%,100%);fill-opacity:1;stroke-width:0.96;stroke-linecap:butt;stroke-linejoin:miter;stroke:rgb(0%,0%,0%);stroke-opacity:1;stroke-miterlimit:4;" d="M 131.692777 669.5586 C 129.939973 668.7461 127.435966 666.6211 127.435966 664.4961 L 127.435966 642.4961 L 129.814772 639.1836 L 111.034724 639.1836 L 113.35093 642.4961 L 113.35093 664.4961 C 113.35093 666.6211 110.846924 668.7461 109.156719 669.5586 Z M 131.692777 669.5586 " transform="matrix(0.0624,0,0,0.0625,7.309714,-27.18335)"/>
<path style="fill-rule:nonzero;fill:rgb(100%,100%,100%);fill-opacity:1;stroke-width:0.96;stroke-linecap:butt;stroke-linejoin:miter;stroke:rgb(0%,0%,0%);stroke-opacity:1;stroke-miterlimit:4;" d="M 115.917537 639.1836 L 124.93196 639.1836 L 124.93196 669.5586 L 115.917537 669.5586 Z M 115.917537 639.1836 " transform="matrix(0.0624,0,0,0.0625,7.309714,-27.18335)"/>
<path style="fill-rule:nonzero;fill:rgb(100%,100%,100%);fill-opacity:1;stroke-width:0.96;stroke-linecap:butt;stroke-linejoin:bevel;stroke:rgb(0%,0%,0%);stroke-opacity:1;stroke-miterlimit:4;" d="M 103.710505 647.6211 L 107.278715 647.6211 L 107.278715 664.1211 L 103.710505 664.1211 Z M 103.710505 647.6211 " transform="matrix(0.0624,0,0,0.0625,7.309714,-27.18335)"/>
<path style="fill-rule:nonzero;fill:rgb(100%,100%,100%);fill-opacity:1;stroke-width:0.96;stroke-linecap:butt;stroke-linejoin:bevel;stroke:rgb(0%,0%,0%);stroke-opacity:1;stroke-miterlimit:4;" d="M 134.447184 647.6211 L 138.015393 647.6211 L 138.015393 664.1211 L 134.447184 664.1211 Z M 134.447184 647.6211 " transform="matrix(0.0624,0,0,0.0625,7.309714,-27.18335)"/>
<path style="fill-rule:nonzero;fill:rgb(100%,100%,100%);fill-opacity:1;stroke-width:0.96;stroke-linecap:butt;stroke-linejoin:bevel;stroke:rgb(0%,0%,0%);stroke-opacity:1;stroke-miterlimit:4;" d="M 100.643098 619.8086 L 104.962509 619.8086 L 104.962509 636.7461 L 100.643098 636.7461 Z M 100.643098 619.8086 " transform="matrix(0.0624,0,0,0.0625,7.309714,-27.18335)"/>
<path style="fill-rule:nonzero;fill:rgb(100%,100%,100%);fill-opacity:1;stroke-width:0.96;stroke-linecap:butt;stroke-linejoin:bevel;stroke:rgb(0%,0%,0%);stroke-opacity:1;stroke-miterlimit:4;" d="M 100.643098 616.6211 L 104.962509 616.6211 L 104.962509 619.8086 L 100.643098 619.8086 Z M 100.643098 616.6211 " transform="matrix(0.0624,0,0,0.0625,7.309714,-27.18335)"/>
<path style="fill-rule:nonzero;fill:rgb(100%,100%,100%);fill-opacity:1;stroke-width:1.0337;stroke-linecap:butt;stroke-linejoin:bevel;stroke:rgb(0%,0%,0%);stroke-opacity:1;stroke-miterlimit:4;" d="M 136.199989 623.4336 L 142.334804 623.4336 L 142.334804 636.4961 L 136.199989 636.4961 Z M 136.199989 623.4336 " transform="matrix(0.0624,0,0,0.0625,7.309714,-27.18335)"/>
<path style="fill-rule:nonzero;fill:rgb(100%,100%,100%);fill-opacity:1;stroke-width:0.96;stroke-linecap:butt;stroke-linejoin:miter;stroke:rgb(0%,0%,0%);stroke-opacity:1;stroke-miterlimit:4;" d="M 104.899908 636.6211 L 104.899908 607.6836 C 106.151912 607.6836 106.339712 611.8711 109.156719 611.8711 C 110.596523 611.8711 110.471323 610.1211 109.657521 608.6836 C 108.906319 607.4336 107.967316 605.6836 109.219319 602.4336 C 110.033122 604.9336 112.349328 605.7461 111.911126 604.1836 C 111.222525 601.4961 109.094119 600.9961 110.659123 596.8711 C 111.222525 600.3086 113.47613 600.1836 112.912729 598.1836 C 112.286727 595.8711 111.034724 594.9336 112.599728 591.7461 C 113.47613 595.3711 114.665533 595.1836 114.665533 592.8711 C 114.665533 589.5586 114.540333 585.9336 118.859744 584.6211 C 118.859744 584.6211 119.110145 581.5586 120.675149 581.5586 C 122.240153 581.5586 122.490553 584.6211 122.490553 584.6211 C 126.809965 585.9336 126.684764 589.5586 126.684764 592.8711 C 126.684764 595.1836 127.874167 595.3711 128.750569 591.7461 C 130.252973 594.9336 129.00097 595.8711 128.437569 598.1836 C 127.874167 600.1836 130.127773 600.3086 130.628574 596.8711 C 132.193578 600.9961 130.127773 601.4961 129.376571 604.1836 C 129.00097 605.7461 131.254576 604.9336 132.068378 602.4336 C 133.320381 605.6836 132.443979 607.4336 131.692777 608.6836 C 130.878975 610.1211 130.691174 611.8711 132.193578 611.8711 C 135.010586 611.8711 135.198386 607.6836 136.450389 607.6836 L 136.450389 636.6211 Z M 104.899908 636.6211 " transform="matrix(0.0624,0,0,0.0625,7.309714,-27.18335)"/>
<path style="fill-rule:nonzero;fill:rgb(100%,100%,100%);fill-opacity:1;stroke-width:0.96;stroke-linecap:butt;stroke-linejoin:miter;stroke:rgb(0%,0%,0%);stroke-opacity:1;stroke-miterlimit:4;" d="M 98.139091 614.7461 L 98.139091 636.8086 L 100.643098 636.8086 L 100.643098 614.6836 C 99.704095 614.2461 98.890293 614.1836 98.139091 614.7461 Z M 98.139091 614.7461 " transform="matrix(0.0624,0,0,0.0625,7.309714,-27.18335)"/>
<path style="fill-rule:nonzero;fill:rgb(100%,100%,100%);fill-opacity:1;stroke-width:0.96;stroke-linecap:butt;stroke-linejoin:miter;stroke:rgb(0%,0%,0%);stroke-opacity:1;stroke-miterlimit:4;" d="M 98.201691 629.0586 C 101.331699 630.6211 104.399107 632.4336 105.150309 636.8086 L 98.201691 636.8086 Z M 98.201691 629.0586 " transform="matrix(0.0624,0,0,0.0625,7.309714,-27.18335)"/>
<path style="fill-rule:nonzero;fill:rgb(100%,100%,100%);fill-opacity:1;stroke-width:0.96;stroke-linecap:butt;stroke-linejoin:miter;stroke:rgb(0%,0%,0%);stroke-opacity:1;stroke-miterlimit:4;" d="M 141.395802 622.4336 L 141.395802 636.8086 L 143.399007 636.8086 L 143.399007 622.3711 C 142.773005 622.0586 141.896603 622.0586 141.395802 622.4336 Z M 141.395802 622.4336 " transform="matrix(0.0624,0,0,0.0625,7.309714,-27.18335)"/>
<path style="fill-rule:nonzero;fill:rgb(100%,100%,100%);fill-opacity:1;stroke-width:0.96;stroke-linecap:butt;stroke-linejoin:miter;stroke:rgb(0%,0%,0%);stroke-opacity:1;stroke-miterlimit:4;" d="M 143.399007 628.9336 C 140.268999 630.4961 137.201591 632.3711 136.450389 636.6836 L 143.399007 636.6836 Z M 143.399007 628.9336 " transform="matrix(0.0624,0,0,0.0625,7.309714,-27.18335)"/>
<path style="fill-rule:nonzero;fill:rgb(100%,100%,100%);fill-opacity:1;stroke-width:0.96;stroke-linecap:butt;stroke-linejoin:miter;stroke:rgb(0%,0%,0%);stroke-opacity:1;stroke-miterlimit:4;" d="M 122.803554 595.2461 L 124.618959 593.7461 L 124.618959 591.8086 C 123.992957 591.8711 123.617356 592.0586 123.116555 592.7461 C 122.740954 591.4336 121.801952 590.4336 120.549948 589.8086 C 119.360545 590.4336 118.421543 591.3711 117.983342 592.6836 C 117.482541 592.0586 117.16954 591.8711 116.480938 591.8086 L 116.480938 593.7461 L 118.296343 595.2461 Z M 122.803554 595.2461 " transform="matrix(0.0624,0,0,0.0625,7.309714,-27.18335)"/>
<path style="fill-rule:nonzero;fill:rgb(100%,100%,100%);fill-opacity:1;stroke-width:0.96;stroke-linecap:butt;stroke-linejoin:miter;stroke:rgb(0%,0%,0%);stroke-opacity:1;stroke-miterlimit:4;" d="M 123.805157 600.1836 L 124.618959 598.3086 L 124.618959 595.8086 C 123.992957 595.8711 123.617356 596.1211 123.116555 596.7461 C 122.740954 595.4336 121.801952 594.4336 120.549948 593.7461 C 119.360545 594.4336 118.421543 595.3711 117.983342 596.6836 C 117.482541 596.0586 117.16954 595.8711 116.480938 595.8086 L 116.480938 598.3086 L 117.35734 600.1836 Z M 123.805157 600.1836 " transform="matrix(0.0624,0,0,0.0625,7.309714,-27.18335)"/>
<path style="fill-rule:nonzero;fill:rgb(100%,100%,100%);fill-opacity:1;stroke-width:0.96;stroke-linecap:butt;stroke-linejoin:miter;stroke:rgb(0%,0%,0%);stroke-opacity:1;stroke-miterlimit:4;" d="M 123.930357 606.8086 L 126.622164 603.4961 L 126.622164 600.2461 C 125.620561 600.3711 125.11976 600.7461 124.368558 601.8711 C 123.742557 599.6211 122.365353 599.1836 120.549948 598.0586 C 118.734544 599.1836 117.35734 599.5586 116.731339 601.8086 C 116.042737 600.6836 115.479336 600.3711 114.477733 600.2461 L 114.477733 603.4961 L 117.23214 606.8086 Z M 123.930357 606.8086 " transform="matrix(0.0624,0,0,0.0625,7.309714,-27.18335)"/>
<path style="fill-rule:nonzero;fill:rgb(100%,100%,100%);fill-opacity:1;stroke-width:0.96;stroke-linecap:butt;stroke-linejoin:miter;stroke:rgb(0%,0%,0%);stroke-opacity:1;stroke-miterlimit:4;" d="M 124.744159 613.3086 C 124.744159 613.3086 127.874167 610.5586 128.061968 609.0586 L 128.061968 605.5586 C 126.809965 605.7461 125.683162 606.0586 124.806759 607.4961 C 123.992957 604.6211 122.803554 603.8086 120.549948 602.4336 C 118.296343 603.8086 117.10694 604.6211 116.355738 607.4961 C 115.479336 606.0586 114.289932 605.7461 113.100529 605.5586 L 113.100529 609.0586 C 113.47613 610.5586 116.418338 613.3086 116.418338 613.3086 Z M 124.744159 613.3086 " transform="matrix(0.0624,0,0,0.0625,7.309714,-27.18335)"/>
<path style="fill-rule:nonzero;fill:rgb(100%,100%,100%);fill-opacity:1;stroke-width:0.96;stroke-linecap:butt;stroke-linejoin:miter;stroke:rgb(0%,0%,0%);stroke-opacity:1;stroke-miterlimit:4;" d="M 126.058763 625.3086 C 126.058763 625.3086 130.378174 620.5586 130.440774 618.6836 L 130.440774 613.3086 C 128.87577 613.4961 127.310766 614.6211 126.121363 616.8711 C 125.11976 612.3711 123.554756 609.2461 120.549948 607.0586 C 117.607741 609.2461 115.980137 612.3711 114.978534 616.8711 C 113.789131 614.6211 112.286727 613.4961 110.659123 613.3086 L 110.659123 618.6836 C 110.972124 620.5586 115.103735 625.3086 115.103735 625.3086 Z M 126.058763 625.3086 " transform="matrix(0.0624,0,0,0.0625,7.309714,-27.18335)"/>
<path style="fill-rule:nonzero;fill:rgb(100%,100%,100%);fill-opacity:1;stroke-width:0.96;stroke-linecap:butt;stroke-linejoin:miter;stroke:rgb(0%,0%,0%);stroke-opacity:1;stroke-miterlimit:4;" d="M 126.058763 632.4336 C 126.058763 632.4336 129.752172 628.6836 130.440774 627.0586 L 130.440774 621.6836 C 128.87577 621.8711 127.310766 622.9961 126.121363 625.1836 C 125.11976 620.7461 123.554756 618.1836 120.549948 615.9961 C 117.607741 618.1836 115.980137 620.7461 114.978534 625.1836 C 113.789131 622.9961 112.286727 621.8711 110.659123 621.6836 L 110.659123 627.0586 C 111.598126 628.6836 115.103735 632.4336 115.103735 632.4336 Z M 126.058763 632.4336 " transform="matrix(0.0624,0,0,0.0625,7.309714,-27.18335)"/>
<path style="fill-rule:nonzero;fill:rgb(100%,100%,100%);fill-opacity:1;stroke-width:0.96;stroke-linecap:butt;stroke-linejoin:miter;stroke:rgb(0%,0%,0%);stroke-opacity:1;stroke-miterlimit:4;" d="M 127.561166 636.5586 C 126.496964 631.8711 125.557961 628.4336 120.362148 624.9336 C 115.228935 628.4336 114.289932 631.8711 113.22573 636.5586 Z M 127.561166 636.5586 " transform="matrix(0.0624,0,0,0.0625,7.309714,-27.18335)"/>
<path style="fill-rule:nonzero;fill:rgb(100%,100%,100%);fill-opacity:1;stroke-width:0.96;stroke-linecap:butt;stroke-linejoin:miter;stroke:rgb(0%,0%,0%);stroke-opacity:1;stroke-miterlimit:4;" d="M 130.190373 639.1836 L 130.190373 632.3711 C 127.874167 633.3086 125.745762 634.6836 124.93196 636.1836 C 124.055557 632.4336 122.365353 630.8086 120.299548 628.4961 C 118.171142 630.8086 116.793939 632.4336 115.917537 636.1836 C 115.166335 634.6836 113.037929 633.3086 110.659123 632.3711 L 110.659123 639.1836 Z M 130.190373 639.1836 " transform="matrix(0.0624,0,0,0.0625,7.309714,-27.18335)"/>
<path style="fill-rule:nonzero;fill:rgb(100%,100%,100%);fill-opacity:1;stroke-width:0.96;stroke-linecap:butt;stroke-linejoin:miter;stroke:rgb(0%,0%,0%);stroke-opacity:1;stroke-miterlimit:4;" d="M 98.915803 664.2461 L 98.915803 643.8086 C 98.289801 641.1836 96.036196 638.8711 94.408592 638.4336 L 94.408592 620.4336 L 98.164601 622.4336 L 102.421412 641.2461 L 102.421412 664.2461 Z M 98.915803 664.2461 " transform="matrix(-0.0624,0,0,0.0625,31.691877,-27.18335)"/>
<path style="fill-rule:nonzero;fill:rgb(100%,100%,100%);fill-opacity:1;stroke-width:0.96;stroke-linecap:butt;stroke-linejoin:miter;stroke:rgb(0%,0%,0%);stroke-opacity:1;stroke-miterlimit:4;" d="M 98.915803 664.3086 L 98.915803 643.8086 C 98.289801 641.1836 96.036196 638.8711 94.408592 638.4336 L 94.408592 619.1836 C 96.912598 619.1836 98.164601 622.4336 98.164601 622.4336 L 102.421412 641.2461 L 102.421412 664.1211 Z M 98.915803 664.3086 " transform="matrix(-0.0624,0,0,0.0625,31.691877,-27.18335)"/>
<path style="fill-rule:nonzero;fill:rgb(100%,100%,100%);fill-opacity:1;stroke-width:0.96;stroke-linecap:butt;stroke-linejoin:miter;stroke:rgb(0%,0%,0%);stroke-opacity:1;stroke-miterlimit:4;" d="M 96.286596 669.5586 C 97.976801 668.7461 100.543407 666.6211 100.543407 664.4961 L 100.543407 638.9336 L 99.354004 636.8086 L 142.861116 636.8086 L 141.170911 638.9336 L 141.170911 664.4961 C 141.170911 666.6211 142.861116 668.7461 144.61392 669.5586 Z M 96.286596 669.5586 " transform="matrix(-0.0624,0,0,0.0625,31.691877,-27.18335)"/>
<path style="fill-rule:nonzero;fill:rgb(100%,100%,100%);fill-opacity:1;stroke-width:0.96;stroke-linecap:butt;stroke-linejoin:miter;stroke:rgb(0%,0%,0%);stroke-opacity:1;stroke-miterlimit:4;" d="M 135.849898 669.5586 C 134.097093 668.7461 131.593087 666.6211 131.593087 664.4961 L 131.593087 640.1836 L 135.223896 636.8086 L 105.61402 636.8086 L 109.244829 640.1836 L 109.244829 664.4961 C 109.244829 666.6211 106.740823 668.7461 104.988019 669.5586 Z M 135.849898 669.5586 " transform="matrix(-0.0624,0,0,0.0625,31.691877,-27.18335)"/>
<path style="fill-rule:nonzero;fill:rgb(100%,100%,100%);fill-opacity:1;stroke-width:0.96;stroke-linecap:butt;stroke-linejoin:miter;stroke:rgb(0%,0%,0%);stroke-opacity:1;stroke-miterlimit:4;" d="M 131.718287 669.5586 C 129.965483 668.7461 127.461476 666.6211 127.461476 664.4961 L 127.461476 642.4961 L 129.840282 639.1836 L 110.997634 639.1836 L 113.37644 642.4961 L 113.37644 664.4961 C 113.37644 666.6211 110.872434 668.7461 109.119629 669.5586 Z M 131.718287 669.5586 " transform="matrix(-0.0624,0,0,0.0625,31.691877,-27.18335)"/>
<path style="fill-rule:nonzero;fill:rgb(100%,100%,100%);fill-opacity:1;stroke-width:0.96;stroke-linecap:butt;stroke-linejoin:miter;stroke:rgb(0%,0%,0%);stroke-opacity:1;stroke-miterlimit:4;" d="M 115.943047 639.1836 L 124.89487 639.1836 L 124.89487 669.5586 L 115.943047 669.5586 Z M 115.943047 639.1836 " transform="matrix(-0.0624,0,0,0.0625,31.691877,-27.18335)"/>
<path style="fill-rule:nonzero;fill:rgb(100%,100%,100%);fill-opacity:1;stroke-width:0.96;stroke-linecap:butt;stroke-linejoin:bevel;stroke:rgb(0%,0%,0%);stroke-opacity:1;stroke-miterlimit:4;" d="M 103.673415 647.6211 L 107.304225 647.6211 L 107.304225 664.1211 L 103.673415 664.1211 Z M 103.673415 647.6211 " transform="matrix(-0.0624,0,0,0.0625,31.691877,-27.18335)"/>
<path style="fill-rule:nonzero;fill:rgb(100%,100%,100%);fill-opacity:1;stroke-width:0.96;stroke-linecap:butt;stroke-linejoin:bevel;stroke:rgb(0%,0%,0%);stroke-opacity:1;stroke-miterlimit:4;" d="M 134.472694 647.6211 L 138.040903 647.6211 L 138.040903 664.1211 L 134.472694 664.1211 Z M 134.472694 647.6211 " transform="matrix(-0.0624,0,0,0.0625,31.691877,-27.18335)"/>
<path style="fill-rule:nonzero;fill:rgb(100%,100%,100%);fill-opacity:1;stroke-width:0.96;stroke-linecap:butt;stroke-linejoin:bevel;stroke:rgb(0%,0%,0%);stroke-opacity:1;stroke-miterlimit:4;" d="M 100.668608 619.8086 L 104.988019 619.8086 L 104.988019 636.7461 L 100.668608 636.7461 Z M 100.668608 619.8086 " transform="matrix(-0.0624,0,0,0.0625,31.691877,-27.18335)"/>
<path style="fill-rule:nonzero;fill:rgb(100%,100%,100%);fill-opacity:1;stroke-width:0.96;stroke-linecap:butt;stroke-linejoin:bevel;stroke:rgb(0%,0%,0%);stroke-opacity:1;stroke-miterlimit:4;" d="M 100.668608 616.6211 L 104.925418 616.6211 L 104.925418 619.8086 L 100.668608 619.8086 Z M 100.668608 616.6211 " transform="matrix(-0.0624,0,0,0.0625,31.691877,-27.18335)"/>
<path style="fill-rule:nonzero;fill:rgb(100%,100%,100%);fill-opacity:1;stroke-width:1.0337;stroke-linecap:butt;stroke-linejoin:bevel;stroke:rgb(0%,0%,0%);stroke-opacity:1;stroke-miterlimit:4;" d="M 136.162898 623.4336 L 142.360314 623.4336 L 142.360314 636.4961 L 136.162898 636.4961 Z M 136.162898 623.4336 " transform="matrix(-0.0624,0,0,0.0625,31.691877,-27.18335)"/>
<path style="fill-rule:nonzero;fill:rgb(100%,100%,100%);fill-opacity:1;stroke-width:0.96;stroke-linecap:butt;stroke-linejoin:miter;stroke:rgb(0%,0%,0%);stroke-opacity:1;stroke-miterlimit:4;" d="M 104.862818 636.6211 L 104.862818 607.6836 C 106.114821 607.6836 106.302622 611.8711 109.119629 611.8711 C 110.622033 611.8711 110.434233 610.1211 109.62043 608.6836 C 108.869229 607.4336 107.992826 605.6836 109.244829 602.4336 C 110.058632 604.9336 112.312237 605.7461 111.936636 604.1836 C 111.185434 601.4961 109.119629 600.9961 110.684633 596.8711 C 111.185434 600.3086 113.43904 600.1836 112.875639 598.1836 C 112.312237 595.8711 111.060234 594.9336 112.562638 591.7461 C 113.43904 595.3711 114.628443 595.1836 114.628443 592.8711 C 114.628443 589.5586 114.503243 585.9336 118.822654 584.6211 C 118.822654 584.6211 119.073055 581.5586 120.638059 581.5586 C 122.203063 581.5586 122.453463 584.6211 122.453463 584.6211 C 126.772874 585.9336 126.647674 589.5586 126.647674 592.8711 C 126.647674 595.1836 127.837077 595.3711 128.713479 591.7461 C 130.278483 594.9336 129.02648 595.8711 128.400479 598.1836 C 127.837077 600.1836 130.090683 600.3086 130.654084 596.8711 C 132.219088 600.9961 130.090683 601.4961 129.402081 604.1836 C 128.96388 605.7461 131.280086 604.9336 132.093888 602.4336 C 133.345891 605.6836 132.406889 607.4336 131.655687 608.6836 C 130.841885 610.1211 130.716684 611.8711 132.156488 611.8711 C 134.973495 611.8711 135.161296 607.6836 136.413299 607.6836 L 136.413299 636.6211 Z M 104.862818 636.6211 " transform="matrix(-0.0624,0,0,0.0625,31.691877,-27.18335)"/>
<path style="fill-rule:nonzero;fill:rgb(100%,100%,100%);fill-opacity:1;stroke-width:0.96;stroke-linecap:butt;stroke-linejoin:miter;stroke:rgb(0%,0%,0%);stroke-opacity:1;stroke-miterlimit:4;" d="M 98.102001 614.7461 L 98.102001 636.8086 L 100.606007 636.8086 L 100.606007 614.6836 C 99.729605 614.2461 98.853203 614.1836 98.102001 614.7461 Z M 98.102001 614.7461 " transform="matrix(-0.0624,0,0,0.0625,31.691877,-27.18335)"/>
<path style="fill-rule:nonzero;fill:rgb(100%,100%,100%);fill-opacity:1;stroke-width:0.96;stroke-linecap:butt;stroke-linejoin:miter;stroke:rgb(0%,0%,0%);stroke-opacity:1;stroke-miterlimit:4;" d="M 98.227201 629.0586 C 101.294609 630.6211 104.424617 632.4336 105.175819 636.8086 L 98.227201 636.8086 Z M 98.227201 629.0586 " transform="matrix(-0.0624,0,0,0.0625,31.691877,-27.18335)"/>
<path style="fill-rule:nonzero;fill:rgb(100%,100%,100%);fill-opacity:1;stroke-width:0.96;stroke-linecap:butt;stroke-linejoin:miter;stroke:rgb(0%,0%,0%);stroke-opacity:1;stroke-miterlimit:4;" d="M 141.358712 622.4336 L 141.358712 636.8086 L 143.424517 636.8086 L 143.424517 622.3711 C 142.798515 622.0586 141.922113 622.0586 141.358712 622.4336 Z M 141.358712 622.4336 " transform="matrix(-0.0624,0,0,0.0625,31.691877,-27.18335)"/>
<path style="fill-rule:nonzero;fill:rgb(100%,100%,100%);fill-opacity:1;stroke-width:0.96;stroke-linecap:butt;stroke-linejoin:miter;stroke:rgb(0%,0%,0%);stroke-opacity:1;stroke-miterlimit:4;" d="M 143.424517 628.9336 C 140.294509 630.4961 137.227101 632.3711 136.413299 636.6836 L 143.424517 636.6836 Z M 143.424517 628.9336 " transform="matrix(-0.0624,0,0,0.0625,31.691877,-27.18335)"/>
<path style="fill-rule:nonzero;fill:rgb(100%,100%,100%);fill-opacity:1;stroke-width:0.96;stroke-linecap:butt;stroke-linejoin:miter;stroke:rgb(0%,0%,0%);stroke-opacity:1;stroke-miterlimit:4;" d="M 122.829064 595.2461 L 124.644469 593.7461 L 124.644469 591.8086 C 123.955867 591.8711 123.642866 592.0586 123.142065 592.7461 C 122.703864 591.4336 121.764862 590.4336 120.575458 589.8086 C 119.323455 590.4336 118.447053 591.3711 118.008852 592.6836 C 117.508051 592.0586 117.13245 591.8711 116.506448 591.8086 L 116.506448 593.7461 L 118.321853 595.2461 Z M 122.829064 595.2461 " transform="matrix(-0.0624,0,0,0.0625,31.691877,-27.18335)"/>
<path style="fill-rule:nonzero;fill:rgb(100%,100%,100%);fill-opacity:1;stroke-width:0.96;stroke-linecap:butt;stroke-linejoin:miter;stroke:rgb(0%,0%,0%);stroke-opacity:1;stroke-miterlimit:4;" d="M 123.830667 600.1836 L 124.644469 598.3086 L 124.644469 595.8086 C 123.955867 595.8711 123.642866 596.1211 123.142065 596.7461 C 122.703864 595.4336 121.764862 594.4336 120.575458 593.7461 C 119.323455 594.4336 118.447053 595.3711 118.008852 596.6836 C 117.508051 596.0586 117.13245 595.8711 116.506448 595.8086 L 116.506448 598.3086 L 117.32025 600.1836 Z M 123.830667 600.1836 " transform="matrix(-0.0624,0,0,0.0625,31.691877,-27.18335)"/>
<path style="fill-rule:nonzero;fill:rgb(100%,100%,100%);fill-opacity:1;stroke-width:0.96;stroke-linecap:butt;stroke-linejoin:miter;stroke:rgb(0%,0%,0%);stroke-opacity:1;stroke-miterlimit:4;" d="M 123.955867 606.8086 L 126.647674 603.4961 L 126.647674 600.2461 C 125.646071 600.3711 125.08267 600.7461 124.394068 601.8711 C 123.768067 599.6211 122.390863 599.1836 120.575458 598.0586 C 118.760054 599.1836 117.38285 599.5586 116.756849 601.8086 C 116.005647 600.6836 115.504846 600.3711 114.503243 600.2461 L 114.503243 603.4961 L 117.19505 606.8086 Z M 123.955867 606.8086 " transform="matrix(-0.0624,0,0,0.0625,31.691877,-27.18335)"/>
<path style="fill-rule:nonzero;fill:rgb(100%,100%,100%);fill-opacity:1;stroke-width:0.96;stroke-linecap:butt;stroke-linejoin:miter;stroke:rgb(0%,0%,0%);stroke-opacity:1;stroke-miterlimit:4;" d="M 124.707069 613.3086 C 124.707069 613.3086 127.837077 610.5586 128.024878 609.0586 L 128.024878 605.5586 C 126.835475 605.7461 125.708672 606.0586 124.769669 607.4961 C 124.018467 604.6211 122.829064 603.8086 120.575458 602.4336 C 118.321853 603.8086 117.13245 604.6211 116.381248 607.4961 C 115.442245 606.0586 114.315442 605.7461 113.063439 605.5586 L 113.063439 609.0586 C 113.50164 610.5586 116.443848 613.3086 116.443848 613.3086 Z M 124.707069 613.3086 " transform="matrix(-0.0624,0,0,0.0625,31.691877,-27.18335)"/>
<path style="fill-rule:nonzero;fill:rgb(100%,100%,100%);fill-opacity:1;stroke-width:0.96;stroke-linecap:butt;stroke-linejoin:miter;stroke:rgb(0%,0%,0%);stroke-opacity:1;stroke-miterlimit:4;" d="M 126.084273 625.3086 C 126.084273 625.3086 130.341083 620.5586 130.466284 618.6836 L 130.466284 613.3086 C 128.83868 613.4961 127.336276 614.6211 126.146873 616.8711 C 125.14527 612.3711 123.517666 609.2461 120.575458 607.0586 C 117.570651 609.2461 116.005647 612.3711 115.004044 616.8711 C 113.814641 614.6211 112.312237 613.4961 110.684633 613.3086 L 110.684633 618.6836 C 110.997634 620.5586 115.066644 625.3086 115.066644 625.3086 Z M 126.084273 625.3086 " transform="matrix(-0.0624,0,0,0.0625,31.691877,-27.18335)"/>
<path style="fill-rule:nonzero;fill:rgb(100%,100%,100%);fill-opacity:1;stroke-width:0.96;stroke-linecap:butt;stroke-linejoin:miter;stroke:rgb(0%,0%,0%);stroke-opacity:1;stroke-miterlimit:4;" d="M 126.084273 632.4336 C 126.084273 632.4336 129.715082 628.6836 130.466284 627.0586 L 130.466284 621.6836 C 128.83868 621.8711 127.336276 622.9961 126.146873 625.1836 C 125.14527 620.7461 123.517666 618.1836 120.575458 615.9961 C 117.570651 618.1836 116.005647 620.7461 115.004044 625.1836 C 113.814641 622.9961 112.312237 621.8711 110.684633 621.6836 L 110.684633 627.0586 C 111.623636 628.6836 115.066644 632.4336 115.066644 632.4336 Z M 126.084273 632.4336 " transform="matrix(-0.0624,0,0,0.0625,31.691877,-27.18335)"/>
<path style="fill-rule:nonzero;fill:rgb(100%,100%,100%);fill-opacity:1;stroke-width:0.96;stroke-linecap:butt;stroke-linejoin:miter;stroke:rgb(0%,0%,0%);stroke-opacity:1;stroke-miterlimit:4;" d="M 127.524076 636.5586 C 126.459874 631.8711 125.520871 628.4336 120.387658 624.9336 C 115.191845 628.4336 114.315442 631.8711 113.18864 636.5586 Z M 127.524076 636.5586 " transform="matrix(-0.0624,0,0,0.0625,31.691877,-27.18335)"/>
<path style="fill-rule:nonzero;fill:rgb(100%,100%,100%);fill-opacity:1;stroke-width:0.96;stroke-linecap:butt;stroke-linejoin:miter;stroke:rgb(0%,0%,0%);stroke-opacity:1;stroke-miterlimit:4;" d="M 130.215883 639.1836 L 130.215883 632.3711 C 127.837077 633.3086 125.708672 634.6836 124.95747 636.1836 C 124.081067 632.4336 122.390863 630.8086 120.325058 628.4961 C 118.196652 630.8086 116.819449 632.4336 115.943047 636.1836 C 115.129245 634.6836 113.000839 633.3086 110.684633 632.3711 L 110.684633 639.1836 Z M 130.215883 639.1836 " transform="matrix(-0.0624,0,0,0.0625,31.691877,-27.18335)"/>
<path style="fill-rule:nonzero;fill:rgb(100%,100%,100%);fill-opacity:1;stroke-width:0.96;stroke-linecap:butt;stroke-linejoin:miter;stroke:rgb(0%,0%,0%);stroke-opacity:1;stroke-miterlimit:4;" d="M 72.723426 694.2461 L 318.053454 694.2461 L 318.053454 706.8086 L 72.723426 706.8086 Z M 72.723426 694.2461 " transform="matrix(0.0624,0,0,0.0625,7.309714,-27.18335)"/>
<path style="fill-rule:nonzero;fill:rgb(100%,100%,100%);fill-opacity:1;stroke-width:0.96;stroke-linecap:butt;stroke-linejoin:miter;stroke:rgb(0%,0%,0%);stroke-opacity:1;stroke-miterlimit:4;" d="M 66.213009 706.7461 L 324.501271 706.7461 L 324.501271 719.2461 L 66.213009 719.2461 Z M 66.213009 706.7461 " transform="matrix(0.0624,0,0,0.0625,7.309714,-27.18335)"/>
<path style="fill-rule:nonzero;fill:rgb(100%,100%,100%);fill-opacity:1;stroke-width:0.96;stroke-linecap:butt;stroke-linejoin:miter;stroke:rgb(0%,0%,0%);stroke-opacity:1;stroke-miterlimit:4;" d="M 85.556459 675.4961 L 305.157821 675.4961 L 305.157821 683.6211 L 85.556459 683.6211 Z M 85.556459 675.4961 " transform="matrix(0.0624,0,0,0.0625,7.309714,-27.18335)"/>
<path style="fill-rule:nonzero;fill:rgb(100%,100%,100%);fill-opacity:1;stroke-width:0.96;stroke-linecap:butt;stroke-linejoin:miter;stroke:rgb(0%,0%,0%);stroke-opacity:1;stroke-miterlimit:4;" d="M 79.171243 683.5586 L 311.543037 683.5586 L 311.543037 694.1836 L 79.171243 694.1836 Z M 79.171243 683.5586 " transform="matrix(0.0624,0,0,0.0625,7.309714,-27.18335)"/>
<path style="fill-rule:nonzero;fill:rgb(100%,100%,100%);fill-opacity:1;stroke-width:0.96;stroke-linecap:butt;stroke-linejoin:miter;stroke:rgb(0%,0%,0%);stroke-opacity:1;stroke-miterlimit:4;" d="M 89.437669 669.3086 L 301.276611 669.3086 L 301.276611 675.4336 L 89.437669 675.4336 Z M 89.437669 669.3086 " transform="matrix(0.0624,0,0,0.0625,7.309714,-27.18335)"/>
<path style="fill-rule:nonzero;fill:rgb(100%,100%,100%);fill-opacity:1;stroke-width:1.0446;stroke-linecap:butt;stroke-linejoin:miter;stroke:rgb(0%,0%,0%);stroke-opacity:1;stroke-miterlimit:4;" d="M 112.411928 669.3086 L 128.437569 669.3086 L 128.437569 719.2461 L 112.411928 719.2461 Z M 112.411928 669.3086 " transform="matrix(0.0624,0,0,0.0625,7.309714,-27.18335)"/>
<path style="fill-rule:nonzero;fill:rgb(100%,100%,100%);fill-opacity:1;stroke-width:1.0429;stroke-linecap:butt;stroke-linejoin:miter;stroke:rgb(0%,0%,0%);stroke-opacity:1;stroke-miterlimit:4;" d="M 115.980137 669.3086 L 124.86936 669.3086 L 124.86936 719.2461 L 115.980137 719.2461 Z M 115.980137 669.3086 " transform="matrix(0.0624,0,0,0.0625,7.309714,-27.18335)"/>
<path style="fill-rule:nonzero;fill:rgb(100%,100%,100%);fill-opacity:1;stroke-width:1.0446;stroke-linecap:butt;stroke-linejoin:miter;stroke:rgb(0%,0%,0%);stroke-opacity:1;stroke-miterlimit:4;" d="M 187.093919 669.3086 L 203.05696 669.3086 L 203.05696 719.2461 L 187.093919 719.2461 Z M 187.093919 669.3086 " transform="matrix(0.0624,0,0,0.0625,7.309714,-27.18335)"/>
<path style="fill-rule:nonzero;fill:rgb(100%,100%,100%);fill-opacity:1;stroke-width:1.0429;stroke-linecap:butt;stroke-linejoin:miter;stroke:rgb(0%,0%,0%);stroke-opacity:1;stroke-miterlimit:4;" d="M 190.724728 669.3086 L 199.676551 669.3086 L 199.676551 719.2461 L 190.724728 719.2461 Z M 190.724728 669.3086 " transform="matrix(0.0624,0,0,0.0625,7.309714,-27.18335)"/>
<path style="fill-rule:nonzero;fill:rgb(100%,100%,100%);fill-opacity:1;stroke-width:1.0446;stroke-linecap:butt;stroke-linejoin:miter;stroke:rgb(0%,0%,0%);stroke-opacity:1;stroke-miterlimit:4;" d="M 262.214111 669.3086 L 278.177152 669.3086 L 278.177152 719.2461 L 262.214111 719.2461 Z M 262.214111 669.3086 " transform="matrix(0.0624,0,0,0.0625,7.309714,-27.18335)"/>
<path style="fill-rule:nonzero;fill:rgb(100%,100%,100%);fill-opacity:1;stroke-width:1.0429;stroke-linecap:butt;stroke-linejoin:miter;stroke:rgb(0%,0%,0%);stroke-opacity:1;stroke-miterlimit:4;" d="M 265.71972 669.3086 L 274.671543 669.3086 L 274.671543 719.2461 L 265.71972 719.2461 Z M 265.71972 669.3086 " transform="matrix(0.0624,0,0,0.0625,7.309714,-27.18335)"/>
<path style="fill:none;stroke-width:0.96;stroke-linecap:butt;stroke-linejoin:miter;stroke:rgb(0%,0%,0%);stroke-opacity:1;stroke-miterlimit:4;" d="M 98.952893 664.2461 L 292.011787 664.2461 " transform="matrix(0.0624,0,0,0.0625,7.309714,-27.18335)"/>
<path style="fill:none;stroke-width:0.96;stroke-linecap:butt;stroke-linejoin:miter;stroke:rgb(0%,0%,0%);stroke-opacity:1;stroke-miterlimit:4;" d="M 115.792336 712.9961 L 125.05716 712.9961 M 115.792336 706.7461 L 125.05716 706.7461 M 115.792336 700.4961 L 125.05716 700.4961 M 115.792336 694.2461 L 125.05716 694.2461 M 115.792336 687.9961 L 125.05716 687.9961 M 115.792336 681.7461 L 125.05716 681.7461 M 115.792336 675.4961 L 125.05716 675.4961 " transform="matrix(0.0624,0,0,0.0625,7.309714,-27.18335)"/>
<path style="fill:none;stroke-width:0.96;stroke-linecap:butt;stroke-linejoin:miter;stroke:rgb(0%,0%,0%);stroke-opacity:1;stroke-miterlimit:4;" d="M 190.787328 712.9961 L 199.36355 712.9961 M 190.787328 706.7461 L 199.36355 706.7461 M 190.787328 700.4961 L 199.36355 700.4961 M 190.787328 694.2461 L 199.36355 694.2461 M 190.787328 687.9961 L 199.36355 687.9961 M 190.787328 681.6836 L 199.36355 681.6836 M 190.787328 675.4336 L 199.36355 675.4336 " transform="matrix(0.0624,0,0,0.0625,7.309714,-27.18335)"/>
<path style="fill:none;stroke-width:0.96;stroke-linecap:butt;stroke-linejoin:miter;stroke:rgb(0%,0%,0%);stroke-opacity:1;stroke-miterlimit:4;" d="M 265.59452 712.9961 L 274.796743 712.9961 M 265.59452 706.7461 L 274.796743 706.7461 M 265.59452 700.4961 L 274.796743 700.4961 M 265.59452 694.2461 L 274.796743 694.2461 M 265.59452 687.9961 L 274.796743 687.9961 M 265.59452 681.7461 L 274.796743 681.7461 M 265.59452 675.4961 L 274.796743 675.4961 " transform="matrix(0.0624,0,0,0.0625,7.309714,-27.18335)"/>
</g>
</svg>
