<?xml version="1.0" encoding="UTF-8"?>
<svg xmlns="http://www.w3.org/2000/svg" xmlns:xlink="http://www.w3.org/1999/xlink" width="38pt" height="25pt" viewBox="0 0 38 25" version="1.1">
<g id="surface1">
<path style=" stroke:none;fill-rule:nonzero;fill:rgb(0%,47.843137%,36.862745%);fill-opacity:1;" d="M 0 0 L 12.667969 0 L 12.667969 25 L 0 25 Z M 0 0 "/>
<path style=" stroke:none;fill-rule:nonzero;fill:rgb(80.784314%,6.666667%,14.901961%);fill-opacity:1;" d="M 12.667969 0 L 25.332031 0 L 25.332031 25 L 12.667969 25 Z M 12.667969 0 "/>
<path style=" stroke:none;fill-rule:nonzero;fill:rgb(98.823529%,81.960784%,8.627451%);fill-opacity:1;" d="M 25.332031 0 L 38 0 L 38 25 L 25.332031 25 Z M 25.332031 0 "/>
<path style=" stroke:none;fill-rule:nonzero;fill:rgb(98.823529%,81.960784%,8.627451%);fill-opacity:1;" d="M 19 9.167969 L 17.957031 12.335938 L 19.5625 12.851562 Z M 19 9.167969 "/>
<path style=" stroke:none;fill-rule:nonzero;fill:rgb(98.823529%,81.960784%,8.627451%);fill-opacity:1;" d="M 19 9.167969 L 20.042969 12.335938 L 18.4375 12.851562 Z M 19 9.167969 "/>
<path style=" stroke:none;fill-rule:nonzero;fill:rgb(98.823529%,81.960784%,8.627451%);fill-opacity:1;" d="M 22.210938 11.46875 L 18.835938 11.46875 L 18.835938 13.136719 Z M 22.210938 11.46875 "/>
<path style=" stroke:none;fill-rule:nonzero;fill:rgb(98.823529%,81.960784%,8.627451%);fill-opacity:1;" d="M 22.210938 11.46875 L 19.480469 13.429688 L 18.488281 12.082031 Z M 22.210938 11.46875 "/>
<path style=" stroke:none;fill-rule:nonzero;fill:rgb(98.823529%,81.960784%,8.627451%);fill-opacity:1;" d="M 20.984375 15.195312 L 19.941406 12.027344 L 18.335938 12.542969 Z M 20.984375 15.195312 "/>
<path style=" stroke:none;fill-rule:nonzero;fill:rgb(98.823529%,81.960784%,8.627451%);fill-opacity:1;" d="M 20.984375 15.195312 L 18.253906 13.238281 L 19.246094 11.890625 Z M 20.984375 15.195312 "/>
<path style=" stroke:none;fill-rule:nonzero;fill:rgb(98.823529%,81.960784%,8.627451%);fill-opacity:1;" d="M 17.015625 15.195312 L 19.746094 13.238281 L 18.753906 11.890625 Z M 17.015625 15.195312 "/>
<path style=" stroke:none;fill-rule:nonzero;fill:rgb(98.823529%,81.960784%,8.627451%);fill-opacity:1;" d="M 17.015625 15.195312 L 18.058594 12.027344 L 19.664062 12.542969 Z M 17.015625 15.195312 "/>
<path style=" stroke:none;fill-rule:nonzero;fill:rgb(98.823529%,81.960784%,8.627451%);fill-opacity:1;" d="M 15.789062 11.46875 L 18.519531 13.429688 L 19.511719 12.082031 Z M 15.789062 11.46875 "/>
<path style=" stroke:none;fill-rule:nonzero;fill:rgb(98.823529%,81.960784%,8.627451%);fill-opacity:1;" d="M 15.789062 11.46875 L 19.164062 11.46875 L 19.164062 13.136719 Z M 15.789062 11.46875 "/>
</g>
</svg>
