<?xml version="1.0" encoding="UTF-8"?>
<svg xmlns="http://www.w3.org/2000/svg" xmlns:xlink="http://www.w3.org/1999/xlink" width="50pt" height="25pt" viewBox="0 0 50 25" version="1.1">
<g id="surface1">
<rect x="0" y="0" width="50" height="25" style="fill:rgb(100%,0%,0%);fill-opacity:1;stroke:none;"/>
<path style=" stroke:none;fill-rule:nonzero;fill:rgb(100%,100%,100%);fill-opacity:1;" d="M 12.5 0 L 37.5 0 L 37.5 25 L 12.5 25 Z M 12.5 0 "/>
<path style=" stroke:none;fill-rule:nonzero;fill:rgb(100%,0%,0%);fill-opacity:1;" d="M 25 2.34375 L 23.292969 5.523438 C 23.101562 5.871094 22.753906 5.839844 22.40625 5.644531 L 21.171875 5.007812 L 22.09375 9.890625 C 22.285156 10.785156 21.664062 10.785156 21.359375 10.398438 L 19.203125 7.988281 L 18.855469 9.210938 C 18.8125 9.371094 18.636719 9.542969 18.371094 9.5 L 15.644531 8.929688 L 16.359375 11.53125 C 16.511719 12.109375 16.632812 12.347656 16.207031 12.503906 L 15.234375 12.957031 L 19.925781 16.769531 C 20.109375 16.914062 20.203125 17.171875 20.140625 17.40625 L 19.726562 18.753906 C 21.34375 18.570312 22.789062 18.289062 24.40625 18.117188 C 24.550781 18.101562 24.789062 18.335938 24.789062 18.5 L 24.574219 23.4375 L 25.359375 23.4375 L 25.234375 18.511719 C 25.234375 18.347656 25.449219 18.101562 25.59375 18.117188 C 27.210938 18.289062 28.65625 18.570312 30.273438 18.753906 L 29.859375 17.40625 C 29.796875 17.171875 29.890625 16.914062 30.074219 16.769531 L 34.765625 12.957031 L 33.792969 12.503906 C 33.367188 12.347656 33.488281 12.109375 33.640625 11.53125 L 34.355469 8.929688 L 31.628906 9.5 C 31.363281 9.542969 31.1875 9.371094 31.144531 9.210938 L 30.796875 7.988281 L 28.640625 10.398438 C 28.335938 10.785156 27.714844 10.785156 27.90625 9.890625 L 28.828125 5.007812 L 27.59375 5.644531 C 27.246094 5.839844 26.898438 5.871094 26.707031 5.523438 "/>
</g>
</svg>
