<?xml version="1.0" encoding="UTF-8"?>
<svg xmlns="http://www.w3.org/2000/svg" xmlns:xlink="http://www.w3.org/1999/xlink" width="43pt" height="25pt" viewBox="0 0 43 25" version="1.1">
<g id="surface1">
<rect x="0" y="0" width="43" height="25" style="fill:rgb(0%,21.960784%,57.647059%);fill-opacity:1;stroke:none;"/>
<path style=" stroke:none;fill-rule:nonzero;fill:rgb(100%,100%,100%);fill-opacity:1;" d="M 0 12.5 L 43 12.5 L 43 18.75 L 0 18.75 Z M 0 12.5 "/>
<path style=" stroke:none;fill-rule:nonzero;fill:rgb(81.176471%,12.54902%,15.294118%);fill-opacity:1;" d="M 0 14.582031 L 43 14.582031 L 43 16.667969 L 0 16.667969 Z M 0 14.582031 "/>
<path style=" stroke:none;fill-rule:nonzero;fill:rgb(96.862745%,81.960784%,8.627451%);fill-opacity:1;" d="M 16.125 8.125 L 15.734375 9.3125 L 16.335938 9.507812 "/>
<path style=" stroke:none;fill-rule:nonzero;fill:rgb(96.862745%,81.960784%,8.627451%);fill-opacity:1;" d="M 16.125 8.125 L 16.515625 9.3125 L 15.914062 9.507812 "/>
<path style=" stroke:none;fill-rule:nonzero;fill:rgb(96.862745%,81.960784%,8.627451%);fill-opacity:1;" d="M 17.328125 8.988281 L 16.0625 8.988281 L 16.0625 9.613281 "/>
<path style=" stroke:none;fill-rule:nonzero;fill:rgb(96.862745%,81.960784%,8.627451%);fill-opacity:1;" d="M 17.328125 8.988281 L 16.304688 9.722656 L 15.933594 9.21875 "/>
<path style=" stroke:none;fill-rule:nonzero;fill:rgb(96.862745%,81.960784%,8.627451%);fill-opacity:1;" d="M 16.867188 10.386719 L 16.476562 9.199219 L 15.875 9.390625 "/>
<path style=" stroke:none;fill-rule:nonzero;fill:rgb(96.862745%,81.960784%,8.627451%);fill-opacity:1;" d="M 16.867188 10.386719 L 15.84375 9.652344 L 16.21875 9.144531 "/>
<path style=" stroke:none;fill-rule:nonzero;fill:rgb(96.862745%,81.960784%,8.627451%);fill-opacity:1;" d="M 15.382812 10.386719 L 16.40625 9.652344 L 16.03125 9.144531 "/>
<path style=" stroke:none;fill-rule:nonzero;fill:rgb(96.862745%,81.960784%,8.627451%);fill-opacity:1;" d="M 15.382812 10.386719 L 15.773438 9.199219 L 16.375 9.390625 "/>
<path style=" stroke:none;fill-rule:nonzero;fill:rgb(96.862745%,81.960784%,8.627451%);fill-opacity:1;" d="M 14.921875 8.988281 L 15.945312 9.722656 L 16.316406 9.21875 "/>
<path style=" stroke:none;fill-rule:nonzero;fill:rgb(96.862745%,81.960784%,8.627451%);fill-opacity:1;" d="M 14.921875 8.988281 L 16.1875 8.988281 L 16.1875 9.613281 "/>
<path style=" stroke:none;fill-rule:nonzero;fill:rgb(96.862745%,81.960784%,8.627451%);fill-opacity:1;" d="M 16.125 20.625 L 15.734375 21.8125 L 16.335938 22.007812 "/>
<path style=" stroke:none;fill-rule:nonzero;fill:rgb(96.862745%,81.960784%,8.627451%);fill-opacity:1;" d="M 16.125 20.625 L 16.515625 21.8125 L 15.914062 22.007812 "/>
<path style=" stroke:none;fill-rule:nonzero;fill:rgb(96.862745%,81.960784%,8.627451%);fill-opacity:1;" d="M 17.328125 21.488281 L 16.0625 21.488281 L 16.0625 22.113281 "/>
<path style=" stroke:none;fill-rule:nonzero;fill:rgb(96.862745%,81.960784%,8.627451%);fill-opacity:1;" d="M 17.328125 21.488281 L 16.304688 22.222656 L 15.933594 21.71875 "/>
<path style=" stroke:none;fill-rule:nonzero;fill:rgb(96.862745%,81.960784%,8.627451%);fill-opacity:1;" d="M 16.867188 22.886719 L 16.476562 21.699219 L 15.875 21.890625 "/>
<path style=" stroke:none;fill-rule:nonzero;fill:rgb(96.862745%,81.960784%,8.627451%);fill-opacity:1;" d="M 16.867188 22.886719 L 15.84375 22.152344 L 16.21875 21.644531 "/>
<path style=" stroke:none;fill-rule:nonzero;fill:rgb(96.862745%,81.960784%,8.627451%);fill-opacity:1;" d="M 15.382812 22.886719 L 16.40625 22.152344 L 16.03125 21.644531 "/>
<path style=" stroke:none;fill-rule:nonzero;fill:rgb(96.862745%,81.960784%,8.627451%);fill-opacity:1;" d="M 15.382812 22.886719 L 15.773438 21.699219 L 16.375 21.890625 "/>
<path style=" stroke:none;fill-rule:nonzero;fill:rgb(96.862745%,81.960784%,8.627451%);fill-opacity:1;" d="M 14.921875 21.488281 L 15.945312 22.222656 L 16.316406 21.71875 "/>
<path style=" stroke:none;fill-rule:nonzero;fill:rgb(96.862745%,81.960784%,8.627451%);fill-opacity:1;" d="M 14.921875 21.488281 L 16.1875 21.488281 L 16.1875 22.113281 "/>
<path style=" stroke:none;fill-rule:nonzero;fill:rgb(96.862745%,81.960784%,8.627451%);fill-opacity:1;" d="M 23.34375 13.308594 L 22.078125 13.308594 L 22.078125 13.933594 "/>
<path style=" stroke:none;fill-rule:nonzero;fill:rgb(96.862745%,81.960784%,8.627451%);fill-opacity:1;" d="M 23.34375 13.308594 L 22.320312 14.042969 L 21.945312 13.535156 "/>
<path style=" stroke:none;fill-rule:nonzero;fill:rgb(96.862745%,81.960784%,8.627451%);fill-opacity:1;" d="M 22.882812 14.703125 L 22.492188 13.515625 L 21.890625 13.710938 "/>
<path style=" stroke:none;fill-rule:nonzero;fill:rgb(96.862745%,81.960784%,8.627451%);fill-opacity:1;" d="M 22.882812 14.703125 L 21.859375 13.96875 L 22.230469 13.464844 "/>
<path style=" stroke:none;fill-rule:nonzero;fill:rgb(96.862745%,81.960784%,8.627451%);fill-opacity:1;" d="M 21.394531 14.703125 L 22.417969 13.96875 L 22.046875 13.464844 "/>
<path style=" stroke:none;fill-rule:nonzero;fill:rgb(96.862745%,81.960784%,8.627451%);fill-opacity:1;" d="M 21.394531 14.703125 L 21.785156 13.515625 L 22.386719 13.710938 "/>
<path style=" stroke:none;fill-rule:nonzero;fill:rgb(96.862745%,81.960784%,8.627451%);fill-opacity:1;" d="M 20.9375 13.308594 L 21.960938 14.042969 L 22.332031 13.535156 "/>
<path style=" stroke:none;fill-rule:nonzero;fill:rgb(96.862745%,81.960784%,8.627451%);fill-opacity:1;" d="M 20.9375 13.308594 L 22.199219 13.308594 L 22.199219 13.933594 "/>
<path style=" stroke:none;fill-rule:nonzero;fill:rgb(96.862745%,81.960784%,8.627451%);fill-opacity:1;" d="M 22.140625 12.445312 L 21.75 13.632812 L 22.351562 13.824219 "/>
<path style=" stroke:none;fill-rule:nonzero;fill:rgb(96.862745%,81.960784%,8.627451%);fill-opacity:1;" d="M 22.140625 12.445312 L 22.53125 13.632812 L 21.929688 13.824219 "/>
<path style=" stroke:none;fill-rule:nonzero;fill:rgb(96.862745%,81.960784%,8.627451%);fill-opacity:1;" d="M 11.3125 17.171875 L 10.050781 17.171875 L 10.050781 17.796875 "/>
<path style=" stroke:none;fill-rule:nonzero;fill:rgb(96.862745%,81.960784%,8.627451%);fill-opacity:1;" d="M 11.3125 17.171875 L 10.289062 17.90625 L 9.917969 17.398438 "/>
<path style=" stroke:none;fill-rule:nonzero;fill:rgb(96.862745%,81.960784%,8.627451%);fill-opacity:1;" d="M 10.855469 18.566406 L 10.464844 17.378906 L 9.863281 17.570312 "/>
<path style=" stroke:none;fill-rule:nonzero;fill:rgb(96.862745%,81.960784%,8.627451%);fill-opacity:1;" d="M 10.855469 18.566406 L 9.832031 17.832031 L 10.203125 17.328125 "/>
<path style=" stroke:none;fill-rule:nonzero;fill:rgb(96.862745%,81.960784%,8.627451%);fill-opacity:1;" d="M 9.367188 18.566406 L 10.390625 17.832031 L 10.019531 17.328125 "/>
<path style=" stroke:none;fill-rule:nonzero;fill:rgb(96.862745%,81.960784%,8.627451%);fill-opacity:1;" d="M 9.367188 18.566406 L 9.757812 17.378906 L 10.359375 17.570312 "/>
<path style=" stroke:none;fill-rule:nonzero;fill:rgb(96.862745%,81.960784%,8.627451%);fill-opacity:1;" d="M 8.90625 17.171875 L 9.929688 17.90625 L 10.304688 17.398438 "/>
<path style=" stroke:none;fill-rule:nonzero;fill:rgb(96.862745%,81.960784%,8.627451%);fill-opacity:1;" d="M 8.90625 17.171875 L 10.171875 17.171875 L 10.171875 17.796875 "/>
<path style=" stroke:none;fill-rule:nonzero;fill:rgb(96.862745%,81.960784%,8.627451%);fill-opacity:1;" d="M 10.109375 16.304688 L 9.71875 17.496094 L 10.320312 17.6875 "/>
<path style=" stroke:none;fill-rule:nonzero;fill:rgb(96.862745%,81.960784%,8.627451%);fill-opacity:1;" d="M 10.109375 16.304688 L 10.5 17.496094 L 9.898438 17.6875 "/>
<path style=" stroke:none;fill-rule:nonzero;fill:rgb(96.862745%,81.960784%,8.627451%);fill-opacity:1;" d="M 20.585938 21.691406 L 20.195312 20.503906 L 19.59375 20.695312 "/>
<path style=" stroke:none;fill-rule:nonzero;fill:rgb(96.862745%,81.960784%,8.627451%);fill-opacity:1;" d="M 20.585938 21.691406 L 19.5625 20.957031 L 19.933594 20.453125 "/>
<path style=" stroke:none;fill-rule:nonzero;fill:rgb(96.862745%,81.960784%,8.627451%);fill-opacity:1;" d="M 19.097656 21.691406 L 20.121094 20.957031 L 19.75 20.453125 "/>
<path style=" stroke:none;fill-rule:nonzero;fill:rgb(96.862745%,81.960784%,8.627451%);fill-opacity:1;" d="M 19.097656 21.691406 L 19.488281 20.503906 L 20.089844 20.695312 "/>
<path style=" stroke:none;fill-rule:nonzero;fill:rgb(96.862745%,81.960784%,8.627451%);fill-opacity:1;" d="M 18.640625 20.296875 L 19.664062 21.03125 L 20.035156 20.523438 "/>
<path style=" stroke:none;fill-rule:nonzero;fill:rgb(96.862745%,81.960784%,8.627451%);fill-opacity:1;" d="M 18.640625 20.296875 L 19.902344 20.296875 L 19.902344 20.921875 "/>
<path style=" stroke:none;fill-rule:nonzero;fill:rgb(96.862745%,81.960784%,8.627451%);fill-opacity:1;" d="M 19.84375 19.429688 L 19.449219 20.621094 L 20.050781 20.8125 "/>
<path style=" stroke:none;fill-rule:nonzero;fill:rgb(96.862745%,81.960784%,8.627451%);fill-opacity:1;" d="M 19.84375 19.429688 L 20.234375 20.621094 L 19.632812 20.8125 "/>
<path style=" stroke:none;fill-rule:nonzero;fill:rgb(96.862745%,81.960784%,8.627451%);fill-opacity:1;" d="M 21.042969 20.296875 L 19.78125 20.296875 L 19.78125 20.921875 "/>
<path style=" stroke:none;fill-rule:nonzero;fill:rgb(96.862745%,81.960784%,8.627451%);fill-opacity:1;" d="M 21.042969 20.296875 L 20.023438 21.03125 L 19.648438 20.523438 "/>
<path style=" stroke:none;fill-rule:nonzero;fill:rgb(96.862745%,81.960784%,8.627451%);fill-opacity:1;" d="M 13.152344 11.578125 L 12.761719 10.390625 L 12.160156 10.585938 "/>
<path style=" stroke:none;fill-rule:nonzero;fill:rgb(96.862745%,81.960784%,8.627451%);fill-opacity:1;" d="M 13.152344 11.578125 L 12.128906 10.84375 L 12.5 10.339844 "/>
<path style=" stroke:none;fill-rule:nonzero;fill:rgb(96.862745%,81.960784%,8.627451%);fill-opacity:1;" d="M 11.664062 11.578125 L 12.6875 10.84375 L 12.316406 10.339844 "/>
<path style=" stroke:none;fill-rule:nonzero;fill:rgb(96.862745%,81.960784%,8.627451%);fill-opacity:1;" d="M 11.664062 11.578125 L 12.054688 10.390625 L 12.65625 10.585938 "/>
<path style=" stroke:none;fill-rule:nonzero;fill:rgb(96.862745%,81.960784%,8.627451%);fill-opacity:1;" d="M 11.207031 10.183594 L 12.226562 10.917969 L 12.601562 10.410156 "/>
<path style=" stroke:none;fill-rule:nonzero;fill:rgb(96.862745%,81.960784%,8.627451%);fill-opacity:1;" d="M 11.207031 10.183594 L 12.46875 10.183594 L 12.46875 10.808594 "/>
<path style=" stroke:none;fill-rule:nonzero;fill:rgb(96.862745%,81.960784%,8.627451%);fill-opacity:1;" d="M 12.40625 9.320312 L 12.015625 10.507812 L 12.617188 10.699219 "/>
<path style=" stroke:none;fill-rule:nonzero;fill:rgb(96.862745%,81.960784%,8.627451%);fill-opacity:1;" d="M 12.40625 9.320312 L 12.800781 10.507812 L 12.199219 10.699219 "/>
<path style=" stroke:none;fill-rule:nonzero;fill:rgb(96.862745%,81.960784%,8.627451%);fill-opacity:1;" d="M 13.609375 10.183594 L 12.347656 10.183594 L 12.347656 10.808594 "/>
<path style=" stroke:none;fill-rule:nonzero;fill:rgb(96.862745%,81.960784%,8.627451%);fill-opacity:1;" d="M 13.609375 10.183594 L 12.585938 10.917969 L 12.214844 10.410156 "/>
<path style=" stroke:none;fill-rule:nonzero;fill:rgb(96.862745%,81.960784%,8.627451%);fill-opacity:1;" d="M 11.664062 21.691406 L 12.6875 20.957031 L 12.316406 20.453125 "/>
<path style=" stroke:none;fill-rule:nonzero;fill:rgb(96.862745%,81.960784%,8.627451%);fill-opacity:1;" d="M 11.664062 21.691406 L 12.054688 20.503906 L 12.65625 20.695312 "/>
<path style=" stroke:none;fill-rule:nonzero;fill:rgb(96.862745%,81.960784%,8.627451%);fill-opacity:1;" d="M 11.207031 20.296875 L 12.226562 21.03125 L 12.601562 20.523438 "/>
<path style=" stroke:none;fill-rule:nonzero;fill:rgb(96.862745%,81.960784%,8.627451%);fill-opacity:1;" d="M 11.207031 20.296875 L 12.46875 20.296875 L 12.46875 20.921875 "/>
<path style=" stroke:none;fill-rule:nonzero;fill:rgb(96.862745%,81.960784%,8.627451%);fill-opacity:1;" d="M 12.40625 19.429688 L 12.015625 20.621094 L 12.617188 20.8125 "/>
<path style=" stroke:none;fill-rule:nonzero;fill:rgb(96.862745%,81.960784%,8.627451%);fill-opacity:1;" d="M 12.40625 19.429688 L 12.800781 20.621094 L 12.199219 20.8125 "/>
<path style=" stroke:none;fill-rule:nonzero;fill:rgb(96.862745%,81.960784%,8.627451%);fill-opacity:1;" d="M 13.609375 20.296875 L 12.347656 20.296875 L 12.347656 20.921875 "/>
<path style=" stroke:none;fill-rule:nonzero;fill:rgb(96.862745%,81.960784%,8.627451%);fill-opacity:1;" d="M 13.609375 20.296875 L 12.585938 21.03125 L 12.214844 20.523438 "/>
<path style=" stroke:none;fill-rule:nonzero;fill:rgb(96.862745%,81.960784%,8.627451%);fill-opacity:1;" d="M 13.152344 21.691406 L 12.761719 20.503906 L 12.160156 20.695312 "/>
<path style=" stroke:none;fill-rule:nonzero;fill:rgb(96.862745%,81.960784%,8.627451%);fill-opacity:1;" d="M 13.152344 21.691406 L 12.128906 20.957031 L 12.5 20.453125 "/>
<path style=" stroke:none;fill-rule:nonzero;fill:rgb(96.862745%,81.960784%,8.627451%);fill-opacity:1;" d="M 19.097656 11.578125 L 20.121094 10.84375 L 19.75 10.339844 "/>
<path style=" stroke:none;fill-rule:nonzero;fill:rgb(96.862745%,81.960784%,8.627451%);fill-opacity:1;" d="M 19.097656 11.578125 L 19.488281 10.390625 L 20.089844 10.585938 "/>
<path style=" stroke:none;fill-rule:nonzero;fill:rgb(96.862745%,81.960784%,8.627451%);fill-opacity:1;" d="M 18.640625 10.183594 L 19.664062 10.917969 L 20.035156 10.410156 "/>
<path style=" stroke:none;fill-rule:nonzero;fill:rgb(96.862745%,81.960784%,8.627451%);fill-opacity:1;" d="M 18.640625 10.183594 L 19.902344 10.183594 L 19.902344 10.808594 "/>
<path style=" stroke:none;fill-rule:nonzero;fill:rgb(96.862745%,81.960784%,8.627451%);fill-opacity:1;" d="M 19.84375 9.320312 L 19.449219 10.507812 L 20.050781 10.699219 "/>
<path style=" stroke:none;fill-rule:nonzero;fill:rgb(96.862745%,81.960784%,8.627451%);fill-opacity:1;" d="M 19.84375 9.320312 L 20.234375 10.507812 L 19.632812 10.699219 "/>
<path style=" stroke:none;fill-rule:nonzero;fill:rgb(96.862745%,81.960784%,8.627451%);fill-opacity:1;" d="M 21.042969 10.183594 L 19.78125 10.183594 L 19.78125 10.808594 "/>
<path style=" stroke:none;fill-rule:nonzero;fill:rgb(96.862745%,81.960784%,8.627451%);fill-opacity:1;" d="M 21.042969 10.183594 L 20.023438 10.917969 L 19.648438 10.410156 "/>
<path style=" stroke:none;fill-rule:nonzero;fill:rgb(96.862745%,81.960784%,8.627451%);fill-opacity:1;" d="M 20.585938 11.578125 L 20.195312 10.390625 L 19.59375 10.585938 "/>
<path style=" stroke:none;fill-rule:nonzero;fill:rgb(96.862745%,81.960784%,8.627451%);fill-opacity:1;" d="M 20.585938 11.578125 L 19.5625 10.84375 L 19.933594 10.339844 "/>
<path style=" stroke:none;fill-rule:nonzero;fill:rgb(96.862745%,81.960784%,8.627451%);fill-opacity:1;" d="M 8.90625 13.308594 L 9.929688 14.042969 L 10.304688 13.535156 "/>
<path style=" stroke:none;fill-rule:nonzero;fill:rgb(96.862745%,81.960784%,8.627451%);fill-opacity:1;" d="M 8.90625 13.308594 L 10.171875 13.308594 L 10.171875 13.933594 "/>
<path style=" stroke:none;fill-rule:nonzero;fill:rgb(96.862745%,81.960784%,8.627451%);fill-opacity:1;" d="M 10.109375 12.445312 L 9.71875 13.632812 L 10.320312 13.824219 "/>
<path style=" stroke:none;fill-rule:nonzero;fill:rgb(96.862745%,81.960784%,8.627451%);fill-opacity:1;" d="M 10.109375 12.445312 L 10.5 13.632812 L 9.898438 13.824219 "/>
<path style=" stroke:none;fill-rule:nonzero;fill:rgb(96.862745%,81.960784%,8.627451%);fill-opacity:1;" d="M 11.3125 13.308594 L 10.050781 13.308594 L 10.050781 13.933594 "/>
<path style=" stroke:none;fill-rule:nonzero;fill:rgb(96.862745%,81.960784%,8.627451%);fill-opacity:1;" d="M 11.3125 13.308594 L 10.289062 14.042969 L 9.917969 13.535156 "/>
<path style=" stroke:none;fill-rule:nonzero;fill:rgb(96.862745%,81.960784%,8.627451%);fill-opacity:1;" d="M 10.855469 14.703125 L 10.464844 13.515625 L 9.863281 13.710938 "/>
<path style=" stroke:none;fill-rule:nonzero;fill:rgb(96.862745%,81.960784%,8.627451%);fill-opacity:1;" d="M 10.855469 14.703125 L 9.832031 13.96875 L 10.203125 13.464844 "/>
<path style=" stroke:none;fill-rule:nonzero;fill:rgb(96.862745%,81.960784%,8.627451%);fill-opacity:1;" d="M 9.367188 14.703125 L 10.390625 13.96875 L 10.019531 13.464844 "/>
<path style=" stroke:none;fill-rule:nonzero;fill:rgb(96.862745%,81.960784%,8.627451%);fill-opacity:1;" d="M 9.367188 14.703125 L 9.757812 13.515625 L 10.359375 13.710938 "/>
<path style=" stroke:none;fill-rule:nonzero;fill:rgb(96.862745%,81.960784%,8.627451%);fill-opacity:1;" d="M 20.9375 17.171875 L 21.960938 17.90625 L 22.332031 17.398438 "/>
<path style=" stroke:none;fill-rule:nonzero;fill:rgb(96.862745%,81.960784%,8.627451%);fill-opacity:1;" d="M 20.9375 17.171875 L 22.199219 17.171875 L 22.199219 17.796875 "/>
<path style=" stroke:none;fill-rule:nonzero;fill:rgb(96.862745%,81.960784%,8.627451%);fill-opacity:1;" d="M 22.140625 16.304688 L 21.75 17.496094 L 22.351562 17.6875 "/>
<path style=" stroke:none;fill-rule:nonzero;fill:rgb(96.862745%,81.960784%,8.627451%);fill-opacity:1;" d="M 22.140625 16.304688 L 22.53125 17.496094 L 21.929688 17.6875 "/>
<path style=" stroke:none;fill-rule:nonzero;fill:rgb(96.862745%,81.960784%,8.627451%);fill-opacity:1;" d="M 23.34375 17.171875 L 22.078125 17.171875 L 22.078125 17.796875 "/>
<path style=" stroke:none;fill-rule:nonzero;fill:rgb(96.862745%,81.960784%,8.627451%);fill-opacity:1;" d="M 23.34375 17.171875 L 22.320312 17.90625 L 21.945312 17.398438 "/>
<path style=" stroke:none;fill-rule:nonzero;fill:rgb(96.862745%,81.960784%,8.627451%);fill-opacity:1;" d="M 22.882812 18.566406 L 22.492188 17.378906 L 21.890625 17.570312 "/>
<path style=" stroke:none;fill-rule:nonzero;fill:rgb(96.862745%,81.960784%,8.627451%);fill-opacity:1;" d="M 22.882812 18.566406 L 21.859375 17.832031 L 22.230469 17.328125 "/>
<path style=" stroke:none;fill-rule:nonzero;fill:rgb(96.862745%,81.960784%,8.627451%);fill-opacity:1;" d="M 21.394531 18.566406 L 22.417969 17.832031 L 22.046875 17.328125 "/>
<path style=" stroke:none;fill-rule:nonzero;fill:rgb(96.862745%,81.960784%,8.627451%);fill-opacity:1;" d="M 21.394531 18.566406 L 21.785156 17.378906 L 22.386719 17.570312 "/>
</g>
</svg>
