<?xml version="1.0" encoding="UTF-8"?>
<svg xmlns="http://www.w3.org/2000/svg" xmlns:xlink="http://www.w3.org/1999/xlink" width="38pt" height="25pt" viewBox="0 0 38 25" version="1.1">
<g id="surface1">
<rect x="0" y="0" width="38" height="25" style="fill:rgb(83.529412%,16.862745%,11.764706%);fill-opacity:1;stroke:none;"/>
<path style=" stroke:none;fill-rule:nonzero;fill:rgb(100%,100%,100%);fill-opacity:1;" d="M 12.667969 12.5 L 38 12.5 L 38 0 L 0 0 Z M 12.667969 12.5 "/>
<path style=" stroke:none;fill-rule:nonzero;fill:rgb(0%,22.352941%,65.098039%);fill-opacity:1;" d="M 12.667969 12.5 L 0 12.5 L 0 0 L 12.667969 0 Z M 12.667969 12.5 "/>
<path style=" stroke:none;fill-rule:nonzero;fill:rgb(100%,100%,100%);fill-opacity:1;" d="M 6.332031 3.125 L 5.355469 6.097656 L 6.859375 6.578125 Z M 6.332031 3.125 "/>
<path style=" stroke:none;fill-rule:nonzero;fill:rgb(100%,100%,100%);fill-opacity:1;" d="M 6.332031 3.125 L 7.3125 6.097656 L 5.804688 6.578125 Z M 6.332031 3.125 "/>
<path style=" stroke:none;fill-rule:nonzero;fill:rgb(100%,100%,100%);fill-opacity:1;" d="M 9.34375 5.285156 L 6.179688 5.285156 L 6.179688 6.847656 Z M 9.34375 5.285156 "/>
<path style=" stroke:none;fill-rule:nonzero;fill:rgb(100%,100%,100%);fill-opacity:1;" d="M 9.34375 5.285156 L 6.78125 7.121094 L 5.851562 5.855469 Z M 9.34375 5.285156 "/>
<path style=" stroke:none;fill-rule:nonzero;fill:rgb(100%,100%,100%);fill-opacity:1;" d="M 3.320312 5.285156 L 5.882812 7.121094 L 6.8125 5.855469 Z M 3.320312 5.285156 "/>
<path style=" stroke:none;fill-rule:nonzero;fill:rgb(100%,100%,100%);fill-opacity:1;" d="M 3.320312 5.285156 L 6.488281 5.285156 L 6.488281 6.847656 Z M 3.320312 5.285156 "/>
<path style=" stroke:none;fill-rule:nonzero;fill:rgb(100%,100%,100%);fill-opacity:1;" d="M 8.195312 8.777344 L 7.214844 5.804688 L 5.710938 6.289062 Z M 8.195312 8.777344 "/>
<path style=" stroke:none;fill-rule:nonzero;fill:rgb(100%,100%,100%);fill-opacity:1;" d="M 8.195312 8.777344 L 5.632812 6.941406 L 6.5625 5.675781 Z M 8.195312 8.777344 "/>
<path style=" stroke:none;fill-rule:nonzero;fill:rgb(100%,100%,100%);fill-opacity:1;" d="M 4.472656 8.777344 L 7.035156 6.941406 L 6.101562 5.675781 Z M 4.472656 8.777344 "/>
<path style=" stroke:none;fill-rule:nonzero;fill:rgb(100%,100%,100%);fill-opacity:1;" d="M 4.472656 8.777344 L 5.449219 5.804688 L 6.957031 6.289062 Z M 4.472656 8.777344 "/>
</g>
</svg>
