<?xml version="1.0" encoding="UTF-8"?>
<svg xmlns="http://www.w3.org/2000/svg" xmlns:xlink="http://www.w3.org/1999/xlink" width="38pt" height="25pt" viewBox="0 0 38 25" version="1.1">
<g id="surface1">
<rect x="0" y="0" width="38" height="25" style="fill:rgb(87.058824%,16.078431%,6.27451%);fill-opacity:1;stroke:none;"/>
<path style=" stroke:none;fill-rule:nonzero;fill:rgb(100%,87.058824%,0%);fill-opacity:1;" d="M 6.332031 2.5 L 8.566406 9.285156 L 2.71875 5.089844 L 9.949219 5.089844 L 4.101562 9.285156 Z M 6.332031 2.5 "/>
<path style=" stroke:none;fill-rule:nonzero;fill:rgb(100%,87.058824%,0%);fill-opacity:1;" d="M 13.164062 1.351562 L 12.949219 3.71875 L 11.710938 1.679688 L 13.929688 2.609375 L 11.582031 3.144531 Z M 13.164062 1.351562 "/>
<path style=" stroke:none;fill-rule:nonzero;fill:rgb(100%,87.058824%,0%);fill-opacity:1;" d="M 16.109375 4.128906 L 14.984375 6.230469 L 14.640625 3.878906 L 16.320312 5.585938 L 13.945312 5.175781 Z M 16.109375 4.128906 "/>
<path style=" stroke:none;fill-rule:nonzero;fill:rgb(100%,87.058824%,0%);fill-opacity:1;" d="M 16.390625 8.320312 L 14.492188 9.785156 L 15.15625 7.5 L 15.980469 9.734375 L 13.980469 8.40625 Z M 16.390625 8.320312 "/>
<path style=" stroke:none;fill-rule:nonzero;fill:rgb(100%,87.058824%,0%);fill-opacity:1;" d="M 13.113281 10.082031 L 13 12.457031 L 11.675781 10.46875 L 13.933594 11.308594 L 11.609375 11.9375 Z M 13.113281 10.082031 "/>
</g>
</svg>
