<?xml version="1.0" encoding="UTF-8"?>
<svg xmlns="http://www.w3.org/2000/svg" xmlns:xlink="http://www.w3.org/1999/xlink" width="42pt" height="25pt" viewBox="0 0 42 25" version="1.1">
<g id="surface1">
<rect x="0" y="0" width="42" height="25" style="fill:rgb(100%,77.647059%,11.764706%);fill-opacity:1;stroke:none;"/>
<path style=" stroke:none;fill-rule:nonzero;fill:rgb(100%,100%,100%);fill-opacity:1;" d="M 0 6.25 L 42 6.25 L 42 25 L 0 25 Z M 0 6.25 "/>
<path style=" stroke:none;fill-rule:nonzero;fill:rgb(80.784314%,6.666667%,14.901961%);fill-opacity:1;" d="M 0 12.5 L 42 12.5 L 42 25 L 0 25 Z M 0 12.5 "/>
<path style=" stroke:none;fill-rule:nonzero;fill:rgb(22.745098%,45.882353%,76.862745%);fill-opacity:1;" d="M 0 18.75 L 42 18.75 L 42 25 L 0 25 Z M 0 18.75 "/>
<path style=" stroke:none;fill-rule:nonzero;fill:rgb(23.921569%,55.686275%,20%);fill-opacity:1;" d="M 0 25 L 21 12.5 L 0 0 Z M 0 25 "/>
<path style=" stroke:none;fill-rule:nonzero;fill:rgb(100%,100%,100%);fill-opacity:1;" d="M 12.808594 12.5 C 12.808594 15.605469 10.269531 18.125 7.140625 18.125 C 4.007812 18.125 1.46875 15.605469 1.46875 12.5 C 1.46875 9.394531 4.007812 6.875 7.140625 6.875 C 10.269531 6.875 12.808594 9.394531 12.808594 12.5 Z M 12.808594 12.5 "/>
<path style=" stroke:none;fill-rule:nonzero;fill:rgb(23.921569%,55.686275%,20%);fill-opacity:1;" d="M 15.328125 12.5 C 15.328125 15.605469 12.792969 18.125 9.660156 18.125 C 6.527344 18.125 3.988281 15.605469 3.988281 12.5 C 3.988281 9.394531 6.527344 6.875 9.660156 6.875 C 12.792969 6.875 15.328125 9.394531 15.328125 12.5 Z M 15.328125 12.5 "/>
<path style=" stroke:none;fill-rule:nonzero;fill:rgb(100%,100%,100%);fill-opacity:1;" d="M 7.402344 8.152344 L 8.164062 8.152344 L 8.398438 7.433594 L 8.636719 8.152344 L 9.398438 8.152344 L 8.78125 8.597656 L 9.015625 9.316406 L 8.398438 8.871094 L 7.78125 9.316406 L 8.019531 8.597656 Z M 7.402344 8.152344 "/>
<path style=" stroke:none;fill-rule:nonzero;fill:rgb(100%,100%,100%);fill-opacity:1;" d="M 7.402344 10.835938 L 8.164062 10.835938 L 8.398438 10.117188 L 8.636719 10.835938 L 9.398438 10.835938 L 8.78125 11.28125 L 9.015625 12 L 8.398438 11.554688 L 7.78125 12 L 8.019531 11.28125 Z M 7.402344 10.835938 "/>
<path style=" stroke:none;fill-rule:nonzero;fill:rgb(100%,100%,100%);fill-opacity:1;" d="M 7.402344 13.519531 L 8.164062 13.519531 L 8.398438 12.800781 L 8.636719 13.519531 L 9.398438 13.519531 L 8.78125 13.964844 L 9.015625 14.683594 L 8.398438 14.238281 L 7.78125 14.683594 L 8.019531 13.964844 Z M 7.402344 13.519531 "/>
<path style=" stroke:none;fill-rule:nonzero;fill:rgb(100%,100%,100%);fill-opacity:1;" d="M 7.402344 16.203125 L 8.164062 16.203125 L 8.398438 15.484375 L 8.636719 16.203125 L 9.398438 16.203125 L 8.78125 16.648438 L 9.015625 17.367188 L 8.398438 16.925781 L 7.78125 17.367188 L 8.019531 16.648438 Z M 7.402344 16.203125 "/>
</g>
</svg>
