<?xml version="1.0" encoding="UTF-8"?>
<svg xmlns="http://www.w3.org/2000/svg" xmlns:xlink="http://www.w3.org/1999/xlink" width="38pt" height="25pt" viewBox="0 0 38 25" version="1.1">
<g id="surface1">
<path style="fill-rule:nonzero;fill:rgb(100%,100%,100%);fill-opacity:1;stroke-width:4;stroke-linecap:butt;stroke-linejoin:miter;stroke:rgb(100%,100%,100%);stroke-opacity:1;stroke-miterlimit:4;" d="M 0 -0.140625 L 273.162521 -0.140625 L 273.162521 179.015625 L 0 179.015625 Z M 0 -0.140625 " transform="matrix(0.138182,0,0,0.138889,0,0)"/>
<path style="fill-rule:nonzero;fill:rgb(26.27451%,31.372549%,14.117647%);fill-opacity:1;stroke-width:1;stroke-linecap:butt;stroke-linejoin:miter;stroke:rgb(26.27451%,31.372549%,14.117647%);stroke-opacity:1;stroke-miterlimit:4;" d="M 80.311986 109.06875 C 80.311986 109.06875 79.831414 113.00625 81.471012 114.834375 C 83.08234 116.690625 87.011719 118.771875 88.396896 118.996875 C 89.782072 119.221875 86.757299 113.90625 86.757299 113.90625 C 86.757299 113.90625 82.375617 108.39375 80.311986 109.06875 Z M 80.311986 109.06875 " transform="matrix(0.138182,0,0,0.138889,0,0)"/>
<path style="fill-rule:nonzero;fill:rgb(26.27451%,31.372549%,14.117647%);fill-opacity:1;stroke-width:1;stroke-linecap:butt;stroke-linejoin:miter;stroke:rgb(26.27451%,31.372549%,14.117647%);stroke-opacity:1;stroke-miterlimit:4;" d="M 80.99044 118.996875 C 80.99044 118.996875 81.471012 122.68125 83.986945 123.159375 C 86.531147 123.609375 88.849198 123.384375 88.849198 123.384375 C 88.849198 123.384375 88.849198 119.221875 80.99044 118.996875 Z M 80.99044 118.996875 " transform="matrix(0.138182,0,0,0.138889,0,0)"/>
<path style="fill-rule:nonzero;fill:rgb(26.27451%,31.372549%,14.117647%);fill-opacity:1;stroke-width:1;stroke-linecap:butt;stroke-linejoin:miter;stroke:rgb(26.27451%,31.372549%,14.117647%);stroke-opacity:1;stroke-miterlimit:4;" d="M 89.301501 111.375 C 89.301501 111.375 91.845703 112.303125 91.845703 114.609375 C 91.845703 116.915625 91.619552 119.221875 91.619552 119.221875 C 91.619552 119.221875 89.782072 116.915625 89.782072 115.7625 C 89.782072 114.609375 89.301501 111.375 89.301501 111.375 Z M 89.301501 111.375 " transform="matrix(0.138182,0,0,0.138889,0,0)"/>
<path style="fill-rule:nonzero;fill:rgb(26.27451%,31.372549%,14.117647%);fill-opacity:1;stroke-width:1;stroke-linecap:butt;stroke-linejoin:miter;stroke:rgb(26.27451%,31.372549%,14.117647%);stroke-opacity:1;stroke-miterlimit:4;" d="M 88.368627 125.26875 C 88.368627 125.26875 88.0294 127.546875 90.658409 127.546875 C 93.259149 127.546875 90.969367 124.621875 88.368627 125.26875 Z M 88.368627 125.26875 " transform="matrix(0.138182,0,0,0.138889,0,0)"/>
<path style="fill-rule:nonzero;fill:rgb(26.27451%,31.372549%,14.117647%);fill-opacity:1;stroke-width:1;stroke-linecap:butt;stroke-linejoin:miter;stroke:rgb(26.27451%,31.372549%,14.117647%);stroke-opacity:1;stroke-miterlimit:4;" d="M 88.199013 128.86875 C 88.199013 128.86875 90.969367 128.053125 94.248561 128.7 C 97.499486 129.346875 99.139083 131.79375 99.139083 131.79375 C 99.139083 131.79375 95.718544 132.778125 91.789165 131.79375 C 87.888055 130.809375 88.199013 128.86875 88.199013 128.86875 Z M 88.199013 128.86875 " transform="matrix(0.138182,0,0,0.138889,0,0)"/>
<path style="fill-rule:nonzero;fill:rgb(26.27451%,31.372549%,14.117647%);fill-opacity:1;stroke-width:1;stroke-linecap:butt;stroke-linejoin:miter;stroke:rgb(26.27451%,31.372549%,14.117647%);stroke-opacity:1;stroke-miterlimit:4;" d="M 90.008224 120.7125 C 90.008224 120.7125 93.909334 119.559375 97.6691 128.053125 C 97.6691 128.053125 90.488795 126.253125 90.008224 120.7125 Z M 90.008224 120.7125 " transform="matrix(0.138182,0,0,0.138889,0,0)"/>
<path style="fill-rule:nonzero;fill:rgb(26.27451%,31.372549%,14.117647%);fill-opacity:1;stroke-width:1;stroke-linecap:butt;stroke-linejoin:miter;stroke:rgb(26.27451%,31.372549%,14.117647%);stroke-opacity:1;stroke-miterlimit:4;" d="M 94.078947 118.9125 C 94.078947 118.9125 98.488898 116.465625 102.07905 127.884375 C 102.07905 127.884375 97.018914 125.915625 94.078947 118.9125 Z M 94.078947 118.9125 " transform="matrix(0.138182,0,0,0.138889,0,0)"/>
<path style="fill-rule:nonzero;fill:rgb(26.27451%,31.372549%,14.117647%);fill-opacity:1;stroke-width:1;stroke-linecap:butt;stroke-linejoin:miter;stroke:rgb(26.27451%,31.372549%,14.117647%);stroke-opacity:1;stroke-miterlimit:4;" d="M 99.958882 129.515625 C 99.958882 129.515625 104.368832 127.884375 110.079153 134.578125 C 100.77868 134.240625 99.958882 129.515625 99.958882 129.515625 Z M 99.958882 129.515625 " transform="matrix(0.138182,0,0,0.138889,0,0)"/>
<path style="fill-rule:nonzero;fill:rgb(26.27451%,31.372549%,14.117647%);fill-opacity:1;stroke-width:0.863021;stroke-linecap:butt;stroke-linejoin:miter;stroke:rgb(26.27451%,31.372549%,14.117647%);stroke-opacity:1;stroke-miterlimit:4;" d="M 102.898849 126.39375 C 102.898849 126.39375 102.672697 128.98125 104.397101 128.98125 C 106.149774 128.98125 104.623252 125.6625 102.898849 126.39375 Z M 102.898849 126.39375 " transform="matrix(0.138182,0,0,0.138889,0,0)"/>
<path style="fill-rule:nonzero;fill:rgb(26.27451%,31.372549%,14.117647%);fill-opacity:1;stroke-width:0.712366;stroke-linecap:butt;stroke-linejoin:miter;stroke:rgb(26.27451%,31.372549%,14.117647%);stroke-opacity:1;stroke-miterlimit:4;" d="M 99.73273 133.0875 C 99.73273 133.0875 99.563117 135.3375 100.891756 135.3375 C 102.248664 135.3375 101.061369 132.440625 99.73273 133.0875 Z M 99.73273 133.0875 " transform="matrix(0.138182,0,0,0.138889,0,0)"/>
<path style="fill-rule:nonzero;fill:rgb(26.27451%,31.372549%,14.117647%);fill-opacity:1;stroke-width:0.863021;stroke-linecap:butt;stroke-linejoin:miter;stroke:rgb(26.27451%,31.372549%,14.117647%);stroke-opacity:1;stroke-miterlimit:4;" d="M 113.188734 140.034375 C 113.188734 140.034375 112.962582 142.59375 114.686986 142.59375 C 116.41139 142.59375 114.913137 139.303125 113.188734 140.034375 Z M 113.188734 140.034375 " transform="matrix(0.138182,0,0,0.138889,0,0)"/>
<path style="fill-rule:nonzero;fill:rgb(26.27451%,31.372549%,14.117647%);fill-opacity:1;stroke-width:0.863021;stroke-linecap:butt;stroke-linejoin:miter;stroke:rgb(26.27451%,31.372549%,14.117647%);stroke-opacity:1;stroke-miterlimit:4;" d="M 117.259457 132.35625 C 117.259457 132.35625 117.033306 134.94375 118.75771 134.94375 C 120.510382 134.94375 118.983861 131.625 117.259457 132.35625 Z M 117.259457 132.35625 " transform="matrix(0.138182,0,0,0.138889,0,0)"/>
<path style="fill-rule:nonzero;fill:rgb(26.27451%,31.372549%,14.117647%);fill-opacity:1;stroke-width:1;stroke-linecap:butt;stroke-linejoin:miter;stroke:rgb(26.27451%,31.372549%,14.117647%);stroke-opacity:1;stroke-miterlimit:4;" d="M 106.489001 127.884375 C 106.489001 127.884375 112.679893 126.253125 115.280633 134.071875 C 107.789371 132.946875 106.489001 127.884375 106.489001 127.884375 Z M 106.489001 127.884375 " transform="matrix(0.138182,0,0,0.138889,0,0)"/>
<path style="fill-rule:nonzero;fill:rgb(26.27451%,31.372549%,14.117647%);fill-opacity:1;stroke-width:1;stroke-linecap:butt;stroke-linejoin:miter;stroke:rgb(26.27451%,31.372549%,14.117647%);stroke-opacity:1;stroke-miterlimit:4;" d="M 100.920025 136.51875 C 100.920025 136.51875 107.958984 134.746875 111.20991 137.19375 C 114.489104 139.640625 105.019017 140.596875 100.920025 136.51875 Z M 100.920025 136.51875 " transform="matrix(0.138182,0,0,0.138889,0,0)"/>
<path style="fill-rule:nonzero;fill:rgb(26.27451%,31.372549%,14.117647%);fill-opacity:1;stroke-width:1;stroke-linecap:butt;stroke-linejoin:miter;stroke:rgb(26.27451%,31.372549%,14.117647%);stroke-opacity:1;stroke-miterlimit:4;" d="M 113.160465 136.6875 C 113.160465 136.6875 117.909642 134.409375 123.111123 139.471875 C 113.330078 140.765625 113.160465 136.6875 113.160465 136.6875 Z M 113.160465 136.6875 " transform="matrix(0.138182,0,0,0.138889,0,0)"/>
<path style="fill-rule:nonzero;fill:rgb(26.27451%,31.372549%,14.117647%);fill-opacity:1;stroke-width:1;stroke-linecap:butt;stroke-linejoin:miter;stroke:rgb(26.27451%,31.372549%,14.117647%);stroke-opacity:1;stroke-miterlimit:4;" d="M 121.160567 133.59375 C 121.160567 133.59375 125.909745 132.13125 130.46104 140.765625 C 120.199424 139.303125 121.160567 133.59375 121.160567 133.59375 Z M 121.160567 133.59375 " transform="matrix(0.138182,0,0,0.138889,0,0)"/>
<path style="fill-rule:nonzero;fill:rgb(26.27451%,31.372549%,14.117647%);fill-opacity:1;stroke-width:1;stroke-linecap:butt;stroke-linejoin:miter;stroke:rgb(26.27451%,31.372549%,14.117647%);stroke-opacity:1;stroke-miterlimit:4;" d="M 129.330284 143.071875 C 129.330284 143.071875 124.100535 146.64375 117.570415 142.903125 C 117.570415 142.903125 119.690584 138.4875 129.330284 143.071875 Z M 129.330284 143.071875 " transform="matrix(0.138182,0,0,0.138889,0,0)"/>
<path style="fill-rule:nonzero;fill:rgb(26.27451%,31.372549%,14.117647%);fill-opacity:1;stroke-width:1;stroke-linecap:butt;stroke-linejoin:miter;stroke:rgb(26.27451%,31.372549%,14.117647%);stroke-opacity:1;stroke-miterlimit:4;" d="M 191.889391 108.984375 C 191.889391 108.984375 192.369963 112.921875 190.730366 114.75 C 189.119038 116.60625 185.189659 118.6875 183.804482 118.9125 C 182.447574 119.1375 185.444079 113.85 185.444079 113.85 C 185.444079 113.85 189.825761 108.309375 191.889391 108.984375 Z M 191.889391 108.984375 " transform="matrix(0.138182,0,0,0.138889,0,0)"/>
<path style="fill-rule:nonzero;fill:rgb(26.27451%,31.372549%,14.117647%);fill-opacity:1;stroke-width:1;stroke-linecap:butt;stroke-linejoin:miter;stroke:rgb(26.27451%,31.372549%,14.117647%);stroke-opacity:1;stroke-miterlimit:4;" d="M 191.210938 118.9125 C 191.210938 118.9125 190.730366 122.596875 188.214433 123.075 C 185.67023 123.525 183.352179 123.3 183.352179 123.3 C 183.352179 123.3 183.352179 119.1375 191.210938 118.9125 Z M 191.210938 118.9125 " transform="matrix(0.138182,0,0,0.138889,0,0)"/>
<path style="fill-rule:nonzero;fill:rgb(26.27451%,31.372549%,14.117647%);fill-opacity:1;stroke-width:1;stroke-linecap:butt;stroke-linejoin:miter;stroke:rgb(26.27451%,31.372549%,14.117647%);stroke-opacity:1;stroke-miterlimit:4;" d="M 182.899877 111.290625 C 182.899877 111.290625 180.355674 112.21875 180.355674 114.525 C 180.355674 116.83125 180.581826 119.1375 180.581826 119.1375 C 180.581826 119.1375 182.447574 116.83125 182.447574 115.678125 C 182.447574 114.525 182.899877 111.290625 182.899877 111.290625 Z M 182.899877 111.290625 " transform="matrix(0.138182,0,0,0.138889,0,0)"/>
<path style="fill-rule:nonzero;fill:rgb(26.27451%,31.372549%,14.117647%);fill-opacity:1;stroke-width:1;stroke-linecap:butt;stroke-linejoin:miter;stroke:rgb(26.27451%,31.372549%,14.117647%);stroke-opacity:1;stroke-miterlimit:4;" d="M 183.832751 125.184375 C 183.832751 125.184375 184.171978 127.4625 181.542969 127.4625 C 178.942229 127.4625 181.232011 124.5375 183.832751 125.184375 Z M 183.832751 125.184375 " transform="matrix(0.138182,0,0,0.138889,0,0)"/>
<path style="fill-rule:nonzero;fill:rgb(26.27451%,31.372549%,14.117647%);fill-opacity:1;stroke-width:1;stroke-linecap:butt;stroke-linejoin:miter;stroke:rgb(26.27451%,31.372549%,14.117647%);stroke-opacity:1;stroke-miterlimit:4;" d="M 184.002364 128.784375 C 184.002364 128.784375 181.232011 127.96875 177.952817 128.615625 C 174.701891 129.2625 173.062294 131.709375 173.062294 131.709375 C 173.062294 131.709375 176.482833 132.69375 180.412212 131.709375 C 184.313322 130.725 184.002364 128.784375 184.002364 128.784375 Z M 184.002364 128.784375 " transform="matrix(0.138182,0,0,0.138889,0,0)"/>
<path style="fill-rule:nonzero;fill:rgb(26.27451%,31.372549%,14.117647%);fill-opacity:1;stroke-width:1;stroke-linecap:butt;stroke-linejoin:miter;stroke:rgb(26.27451%,31.372549%,14.117647%);stroke-opacity:1;stroke-miterlimit:4;" d="M 182.193154 120.628125 C 182.193154 120.628125 178.292044 119.475 174.532278 127.96875 C 174.532278 127.96875 181.712582 126.16875 182.193154 120.628125 Z M 182.193154 120.628125 " transform="matrix(0.138182,0,0,0.138889,0,0)"/>
<path style="fill-rule:nonzero;fill:rgb(26.27451%,31.372549%,14.117647%);fill-opacity:1;stroke-width:1;stroke-linecap:butt;stroke-linejoin:miter;stroke:rgb(26.27451%,31.372549%,14.117647%);stroke-opacity:1;stroke-miterlimit:4;" d="M 178.12243 118.828125 C 178.12243 118.828125 173.712479 116.38125 170.122327 127.8 C 170.122327 127.8 175.182463 125.83125 178.12243 118.828125 Z M 178.12243 118.828125 " transform="matrix(0.138182,0,0,0.138889,0,0)"/>
<path style="fill-rule:nonzero;fill:rgb(26.27451%,31.372549%,14.117647%);fill-opacity:1;stroke-width:1;stroke-linecap:butt;stroke-linejoin:miter;stroke:rgb(26.27451%,31.372549%,14.117647%);stroke-opacity:1;stroke-miterlimit:4;" d="M 172.242496 129.43125 C 172.242496 129.43125 167.832545 127.8 162.122225 134.49375 C 171.422697 134.15625 172.242496 129.43125 172.242496 129.43125 Z M 172.242496 129.43125 " transform="matrix(0.138182,0,0,0.138889,0,0)"/>
<path style="fill-rule:nonzero;fill:rgb(26.27451%,31.372549%,14.117647%);fill-opacity:1;stroke-width:0.863021;stroke-linecap:butt;stroke-linejoin:miter;stroke:rgb(26.27451%,31.372549%,14.117647%);stroke-opacity:1;stroke-miterlimit:4;" d="M 169.302529 126.309375 C 169.302529 126.309375 169.52868 128.896875 167.804276 128.896875 C 166.051604 128.896875 167.578125 125.578125 169.302529 126.309375 Z M 169.302529 126.309375 " transform="matrix(0.138182,0,0,0.138889,0,0)"/>
<path style="fill-rule:nonzero;fill:rgb(26.27451%,31.372549%,14.117647%);fill-opacity:1;stroke-width:0.712366;stroke-linecap:butt;stroke-linejoin:miter;stroke:rgb(26.27451%,31.372549%,14.117647%);stroke-opacity:1;stroke-miterlimit:4;" d="M 172.468647 133.003125 C 172.468647 133.003125 172.638261 135.253125 171.309622 135.253125 C 169.952714 135.253125 171.140008 132.35625 172.468647 133.003125 Z M 172.468647 133.003125 " transform="matrix(0.138182,0,0,0.138889,0,0)"/>
<path style="fill-rule:nonzero;fill:rgb(26.27451%,31.372549%,14.117647%);fill-opacity:1;stroke-width:0.863021;stroke-linecap:butt;stroke-linejoin:miter;stroke:rgb(26.27451%,31.372549%,14.117647%);stroke-opacity:1;stroke-miterlimit:4;" d="M 159.012644 139.95 C 159.012644 139.95 159.238795 142.509375 157.514391 142.509375 C 155.789988 142.509375 157.28824 139.21875 159.012644 139.95 Z M 159.012644 139.95 " transform="matrix(0.138182,0,0,0.138889,0,0)"/>
<path style="fill-rule:nonzero;fill:rgb(26.27451%,31.372549%,14.117647%);fill-opacity:1;stroke-width:0.863021;stroke-linecap:butt;stroke-linejoin:miter;stroke:rgb(26.27451%,31.372549%,14.117647%);stroke-opacity:1;stroke-miterlimit:4;" d="M 154.94192 132.271875 C 154.94192 132.271875 155.168072 134.859375 153.443668 134.859375 C 151.690995 134.859375 153.217516 131.540625 154.94192 132.271875 Z M 154.94192 132.271875 " transform="matrix(0.138182,0,0,0.138889,0,0)"/>
<path style="fill-rule:nonzero;fill:rgb(26.27451%,31.372549%,14.117647%);fill-opacity:1;stroke-width:1;stroke-linecap:butt;stroke-linejoin:miter;stroke:rgb(26.27451%,31.372549%,14.117647%);stroke-opacity:1;stroke-miterlimit:4;" d="M 165.712377 127.8 C 165.712377 127.8 159.521484 126.16875 156.920744 133.9875 C 164.412007 132.8625 165.712377 127.8 165.712377 127.8 Z M 165.712377 127.8 " transform="matrix(0.138182,0,0,0.138889,0,0)"/>
<path style="fill-rule:nonzero;fill:rgb(26.27451%,31.372549%,14.117647%);fill-opacity:1;stroke-width:1;stroke-linecap:butt;stroke-linejoin:miter;stroke:rgb(26.27451%,31.372549%,14.117647%);stroke-opacity:1;stroke-miterlimit:4;" d="M 171.281353 136.4625 C 171.281353 136.4625 164.242393 134.6625 160.991468 137.109375 C 157.712274 139.55625 167.18236 140.540625 171.281353 136.4625 Z M 171.281353 136.4625 " transform="matrix(0.138182,0,0,0.138889,0,0)"/>
<path style="fill-rule:nonzero;fill:rgb(26.27451%,31.372549%,14.117647%);fill-opacity:1;stroke-width:1;stroke-linecap:butt;stroke-linejoin:miter;stroke:rgb(26.27451%,31.372549%,14.117647%);stroke-opacity:1;stroke-miterlimit:4;" d="M 159.040913 136.603125 C 159.040913 136.603125 154.291735 134.325 149.090255 139.3875 C 158.871299 140.68125 159.040913 136.603125 159.040913 136.603125 Z M 159.040913 136.603125 " transform="matrix(0.138182,0,0,0.138889,0,0)"/>
<path style="fill-rule:nonzero;fill:rgb(26.27451%,31.372549%,14.117647%);fill-opacity:1;stroke-width:1;stroke-linecap:butt;stroke-linejoin:miter;stroke:rgb(26.27451%,31.372549%,14.117647%);stroke-opacity:1;stroke-miterlimit:4;" d="M 151.04081 133.509375 C 151.04081 133.509375 146.291632 132.046875 141.740337 140.68125 C 152.001953 139.21875 151.04081 133.509375 151.04081 133.509375 Z M 151.04081 133.509375 " transform="matrix(0.138182,0,0,0.138889,0,0)"/>
<path style="fill-rule:nonzero;fill:rgb(26.27451%,31.372549%,14.117647%);fill-opacity:1;stroke-width:1;stroke-linecap:butt;stroke-linejoin:miter;stroke:rgb(26.27451%,31.372549%,14.117647%);stroke-opacity:1;stroke-miterlimit:4;" d="M 142.871094 142.9875 C 142.871094 142.9875 148.100843 146.559375 154.630962 142.81875 C 154.630962 142.81875 152.510794 138.403125 142.871094 142.9875 Z M 142.871094 142.9875 " transform="matrix(0.138182,0,0,0.138889,0,0)"/>
<path style="fill-rule:nonzero;fill:rgb(26.27451%,31.372549%,14.117647%);fill-opacity:1;stroke-width:1;stroke-linecap:butt;stroke-linejoin:miter;stroke:rgb(26.27451%,31.372549%,14.117647%);stroke-opacity:1;stroke-miterlimit:4;" d="M 135.125411 145.06875 C 135.125411 145.06875 131.535259 149.90625 131.535259 149.45625 C 131.535259 149.00625 128.991057 146.925 128.991057 146.925 L 133.372738 143.690625 L 131.648335 142.875 L 132.581209 141.834375 L 135.803865 143.240625 " transform="matrix(0.138182,0,0,0.138889,0,0)"/>
<path style="fill-rule:nonzero;fill:rgb(26.27451%,31.372549%,14.117647%);fill-opacity:1;stroke-width:1;stroke-linecap:butt;stroke-linejoin:miter;stroke:rgb(26.27451%,31.372549%,14.117647%);stroke-opacity:1;stroke-miterlimit:4;" d="M 136.086554 145.06875 C 136.086554 145.06875 139.676706 149.90625 139.676706 149.45625 C 139.676706 148.978125 142.220909 146.896875 142.220909 146.896875 L 137.839227 143.6625 L 139.563631 142.875 L 138.630757 141.834375 L 135.4081 143.2125 " transform="matrix(0.138182,0,0,0.138889,0,0)"/>
<path style="fill:none;stroke-width:1;stroke-linecap:butt;stroke-linejoin:miter;stroke:rgb(26.27451%,31.372549%,14.117647%);stroke-opacity:1;stroke-miterlimit:4;" d="M 134.870991 145.29375 L 136.397512 145.29375 " transform="matrix(0.138182,0,0,0.138889,0,0)"/>
<path style="fill-rule:nonzero;fill:rgb(84.705882%,45.882353%,1.176471%);fill-opacity:1;stroke-width:1;stroke-linecap:butt;stroke-linejoin:miter;stroke:rgb(84.705882%,45.882353%,1.176471%);stroke-opacity:1;stroke-miterlimit:4;" d="M 70.163446 68.23125 C 70.163446 68.23125 72.000925 73.06875 74.064556 73.06875 C 76.156456 73.06875 81.697163 73.546875 81.697163 73.546875 C 81.697163 73.546875 84.467516 73.06875 85.372122 70.5375 C 86.304996 68.00625 88.849198 57.375 101.541941 63.84375 C 114.234683 70.3125 114.913137 52.7625 114.913137 52.7625 L 112.849507 49.753125 L 113.301809 43.9875 C 113.301809 43.9875 120.227693 48.853125 124.609375 48.6 C 128.991057 48.375 132.241982 50.00625 133.627159 50.00625 C 135.012336 50.00625 139.394017 51.384375 139.394017 51.384375 L 150.701583 51.834375 C 150.701583 51.834375 152.539062 50.23125 154.376542 50.45625 C 156.24229 50.68125 156.24229 49.303125 159.691098 49.303125 C 163.139905 49.303125 166.616982 44.915625 166.616982 44.915625 C 166.616982 44.915625 167.549856 43.9875 172.609992 44.915625 C 172.609992 44.915625 176.087068 42.159375 181.147204 40.528125 C 186.235609 38.925 185.528886 36.84375 185.528886 36.84375 C 185.528886 36.84375 189.232113 36.140625 190.843442 36.39375 C 192.45477 36.61875 193.387644 33.609375 193.387644 33.609375 L 197.317023 33.159375 L 198.928351 30.853125 L 202.85773 30.15 C 202.85773 30.15 207.465563 26.915625 208.144017 24.834375 C 208.85074 22.753125 214.165296 24.384375 214.165296 24.384375 C 214.165296 24.384375 216.455078 22.303125 216.681229 21.15 C 216.93565 19.996875 218.99928 20.925 218.99928 20.925 L 218.773129 24.609375 L 216.228927 25.9875 L 216.228927 28.29375 L 212.299548 28.29375 L 212.073396 30.6 L 208.85074 30.853125 L 208.370169 33.609375 L 207.691715 34.7625 L 206.75884 35.240625 L 204.469058 35.240625 L 203.536184 36.61875 L 201.218133 38.221875 L 199.606805 40.303125 L 196.384149 40.078125 L 194.320518 42.834375 L 192.935341 42.609375 L 190.843442 46.06875 L 189.232113 48.15 L 188.299239 49.528125 L 186.687911 50.00625 L 186.235609 51.834375 L 183.465255 52.5375 L 179.762027 53.465625 L 178.37685 55.06875 C 178.37685 55.06875 174.447471 62.915625 178.603002 65.7 C 182.758532 68.45625 183.012952 71.465625 183.012952 71.465625 L 185.076583 72.84375 L 186.687911 75.6 L 187.394634 78.834375 C 187.394634 78.834375 186.687911 79.3125 185.755037 79.0875 C 184.850432 78.834375 183.239104 78.609375 183.239104 78.609375 L 181.373355 77.00625 L 177.924548 76.753125 L 176.087068 78.834375 C 176.087068 78.834375 175.154194 80.240625 175.154194 81.140625 C 175.154194 82.06875 174.701891 81.84375 173.542866 81.140625 C 172.38384 80.465625 170.546361 79.3125 170.546361 79.3125 L 168.002159 78.609375 L 167.776007 77.45625 L 166.164679 78.384375 C 166.164679 78.384375 165.684108 79.7625 164.779502 79.3125 C 163.846628 78.834375 162.913754 78.834375 162.913754 78.834375 L 161.302426 78.834375 C 161.302426 78.834375 157.627467 81.61875 158.07977 90.61875 L 153.924239 91.29375 L 151.83234 93.15 L 150.701583 94.303125 L 147.705078 94.303125 L 146.065481 95.68125 L 143.068976 96.834375 L 141.683799 98.690625 L 138.00884 98.915625 L 136.397512 100.06875 L 135.690789 101.7 L 133.146587 100.06875 L 129.69778 99.140625 L 126.701275 99.84375 C 126.701275 99.84375 125.7684 100.06875 124.835526 100.771875 C 123.930921 101.446875 121.386719 101.925 121.386719 101.925 C 121.386719 101.925 119.775391 102.375 119.775391 103.303125 C 119.775391 104.23125 119.294819 105.834375 119.294819 105.834375 L 119.294819 109.29375 C 119.294819 109.29375 118.842516 111.6 117.005037 111.6 C 115.139289 111.6 115.61986 111.6 114.686986 111.375 C 113.782381 111.15 114.008532 109.06875 114.008532 109.06875 L 114.008532 106.5375 L 110.305304 103.078125 L 107.987253 102.15 L 105.47132 102.375 L 103.153269 103.753125 L 101.089638 105.159375 C 101.089638 105.159375 101.541941 106.7625 99.930613 105.609375 C 98.319285 104.45625 97.160259 104.00625 97.160259 104.00625 L 95.068359 102.853125 L 92.298006 102.15 L 90.234375 99.61875 L 84.919819 99.39375 L 80.311986 94.078125 L 78.926809 92.7 L 78.700658 88.5375 L 75.704153 88.0875 L 75.704153 85.753125 L 74.545127 83.446875 L 74.99743 79.3125 L 72.227076 78.159375 L 71.068051 74.221875 Z M 70.163446 68.23125 " transform="matrix(0.138182,0,0,0.138889,0,0)"/>
</g>
</svg>
