<?xml version="1.0" encoding="UTF-8"?>
<svg xmlns="http://www.w3.org/2000/svg" xmlns:xlink="http://www.w3.org/1999/xlink" width="50pt" height="25pt" viewBox="0 0 50 25" version="1.1">
<g id="surface1">
<rect x="0" y="0" width="50" height="25" style="fill:rgb(0%,41.960784%,24.705882%);fill-opacity:1;stroke:none;"/>
<path style=" stroke:none;fill-rule:nonzero;fill:rgb(98.823529%,81.960784%,8.627451%);fill-opacity:1;" d="M 21.875 0 L 25 0 L 25 25 L 21.875 25 Z M 21.875 0 "/>
<path style=" stroke:none;fill-rule:nonzero;fill:rgb(98.823529%,81.960784%,8.627451%);fill-opacity:1;" d="M 0 9.375 L 50 9.375 L 50 12.5 L 0 12.5 Z M 0 9.375 "/>
<path style=" stroke:none;fill-rule:nonzero;fill:rgb(100%,100%,100%);fill-opacity:1;" d="M 25 0 L 28.125 0 L 28.125 25 L 25 25 Z M 25 0 "/>
<path style=" stroke:none;fill-rule:nonzero;fill:rgb(100%,100%,100%);fill-opacity:1;" d="M 0 12.5 L 50 12.5 L 50 15.625 L 0 15.625 Z M 0 12.5 "/>
<path style=" stroke:none;fill-rule:nonzero;fill:rgb(0%,0%,0%);fill-opacity:1;" d="M 23.957031 0 L 26.042969 0 L 26.042969 25 L 23.957031 25 Z M 23.957031 0 "/>
<path style=" stroke:none;fill-rule:nonzero;fill:rgb(0%,0%,0%);fill-opacity:1;" d="M 0 11.457031 L 50 11.457031 L 50 13.542969 L 0 13.542969 Z M 0 11.457031 "/>
<path style=" stroke:none;fill-rule:nonzero;fill:rgb(83.137255%,10.980392%,18.823529%);fill-opacity:1;" d="M 31.25 12.5 C 31.25 15.953125 28.453125 18.75 25 18.75 C 21.546875 18.75 18.75 15.953125 18.75 12.5 C 18.75 9.046875 21.546875 6.25 25 6.25 C 28.453125 6.25 31.25 9.046875 31.25 12.5 Z M 31.25 12.5 "/>
<path style="fill-rule:nonzero;fill:rgb(0%,41.960784%,24.705882%);fill-opacity:1;stroke-width:1;stroke-linecap:butt;stroke-linejoin:miter;stroke:rgb(0%,0%,0%);stroke-opacity:1;stroke-miterlimit:4;" d="M -4.78125 -118.40625 L 0 -132.09375 L 4.40625 -118.59375 L 19.03125 -118.40625 L 7.40625 -109.59375 L 12.65625 -94.5 L 0 -103.78125 L -12.46875 -94.96875 L -7.6875 -109.59375 L -19.03125 -118.21875 Z M -4.78125 -118.40625 " transform="matrix(0.0416667,0,0,0.0416667,25,12.5)"/>
<path style="fill-rule:nonzero;fill:rgb(0%,41.960784%,24.705882%);fill-opacity:1;stroke-width:1;stroke-linecap:butt;stroke-linejoin:miter;stroke:rgb(0%,0%,0%);stroke-opacity:1;stroke-miterlimit:4;" d="M -4.78125 -118.40625 L -0.000000000000113687 -132.09375 L 4.40625 -118.59375 L 19.03125 -118.40625 L 7.40625 -109.59375 L 12.65625 -94.5 L -0.000000000000113687 -103.78125 L -12.46875 -94.96875 L -7.6875 -109.59375 L -19.03125 -118.21875 Z M -4.78125 -118.40625 " transform="matrix(-0.0416667,0.000000000000000005,-0.000000000000000005,-0.0416667,25,12.5)"/>
<path style="fill-rule:nonzero;fill:rgb(0%,41.960784%,24.705882%);fill-opacity:1;stroke-width:1;stroke-linecap:butt;stroke-linejoin:miter;stroke:rgb(0%,0%,0%);stroke-opacity:1;stroke-miterlimit:4;" d="M -4.802735 -118.417813 L -0.0196047 -132.090521 L 4.350765 -118.578863 L 19.032031 -118.46846 L 7.420577 -109.568719 L 12.686249 -94.50579 L 0.00135725 -103.830696 L -12.416539 -94.924448 L -7.619175 -109.534548 L -19.001681 -118.183354 Z M -4.802735 -118.417813 " transform="matrix(0.033709,0.0244911,-0.0244911,0.033709,25,12.5)"/>
<path style="fill-rule:nonzero;fill:rgb(0%,41.960784%,24.705882%);fill-opacity:1;stroke-width:1;stroke-linecap:butt;stroke-linejoin:miter;stroke:rgb(0%,0%,0%);stroke-opacity:1;stroke-miterlimit:4;" d="M -4.802735 -118.417813 L -0.0196047 -132.090521 L 4.350765 -118.578863 L 19.032031 -118.46846 L 7.420577 -109.568719 L 12.686249 -94.50579 L 0.00135725 -103.830696 L -12.416539 -94.924448 L -7.619175 -109.534548 L -19.001681 -118.183354 Z M -4.802735 -118.417813 " transform="matrix(-0.033709,-0.0244911,0.0244911,-0.033709,25,12.5)"/>
<path style="fill-rule:nonzero;fill:rgb(0%,41.960784%,24.705882%);fill-opacity:1;stroke-width:1;stroke-linecap:butt;stroke-linejoin:miter;stroke:rgb(0%,0%,0%);stroke-opacity:1;stroke-miterlimit:4;" d="M -4.812063 -118.374416 L -0.0541752 -132.107545 L 4.346821 -118.651475 L 19.053689 -118.407355 L 7.410107 -109.573037 L 12.68275 -94.552283 L 0.0125219 -103.794968 L -12.431263 -94.924928 L -7.680127 -109.547422 L -19.070873 -118.177229 Z M -4.812063 -118.374416 " transform="matrix(0.0128757,0.0396274,-0.0396274,0.0128757,25,12.5)"/>
<path style="fill-rule:nonzero;fill:rgb(0%,41.960784%,24.705882%);fill-opacity:1;stroke-width:1;stroke-linecap:butt;stroke-linejoin:miter;stroke:rgb(0%,0%,0%);stroke-opacity:1;stroke-miterlimit:4;" d="M -4.812063 -118.374416 L -0.0541752 -132.107545 L 4.346821 -118.651475 L 19.053689 -118.407355 L 7.410107 -109.573037 L 12.68275 -94.552283 L 0.0125219 -103.794968 L -12.431263 -94.924928 L -7.680127 -109.547422 L -19.070873 -118.177229 Z M -4.812063 -118.374416 " transform="matrix(-0.0128757,-0.0396274,0.0396274,-0.0128757,25,12.5)"/>
<path style="fill-rule:nonzero;fill:rgb(0%,41.960784%,24.705882%);fill-opacity:1;stroke-width:1;stroke-linecap:butt;stroke-linejoin:miter;stroke:rgb(0%,0%,0%);stroke-opacity:1;stroke-miterlimit:4;" d="M -4.763658 -118.417462 L 0.0541752 -132.107545 L 4.339535 -118.61518 L 18.983962 -118.444714 L 7.472834 -109.578643 L 12.665277 -94.508091 L -0.0125219 -103.794968 L -12.413015 -94.935649 L -7.6174 -109.604258 L -18.995748 -118.229032 Z M -4.763658 -118.417462 " transform="matrix(-0.0128757,0.0396274,-0.0396274,-0.0128757,25,12.5)"/>
<path style="fill-rule:nonzero;fill:rgb(0%,41.960784%,24.705882%);fill-opacity:1;stroke-width:1;stroke-linecap:butt;stroke-linejoin:miter;stroke:rgb(0%,0%,0%);stroke-opacity:1;stroke-miterlimit:4;" d="M -4.763658 -118.417462 L 0.0541752 -132.107545 L 4.339535 -118.61518 L 18.983962 -118.444714 L 7.472834 -109.578643 L 12.665277 -94.508091 L -0.0125219 -103.794968 L -12.413015 -94.935649 L -7.6174 -109.604258 L -18.995748 -118.229032 Z M -4.763658 -118.417462 " transform="matrix(0.0128757,-0.0396274,0.0396274,0.0128757,25,12.5)"/>
<path style="fill-rule:nonzero;fill:rgb(0%,41.960784%,24.705882%);fill-opacity:1;stroke-width:1;stroke-linecap:butt;stroke-linejoin:miter;stroke:rgb(0%,0%,0%);stroke-opacity:1;stroke-miterlimit:4;" d="M -4.798721 -118.440797 L 0.0196047 -132.090521 L 4.368403 -118.617492 L 19.036045 -118.39015 L 7.41238 -109.568913 L 12.685556 -94.497233 L -0.00135725 -103.830696 L -12.48657 -94.940121 L -7.682477 -109.527238 L -18.99055 -118.206559 Z M -4.798721 -118.440797 " transform="matrix(-0.033709,0.0244911,-0.0244911,-0.033709,25,12.5)"/>
<path style="fill-rule:nonzero;fill:rgb(0%,41.960784%,24.705882%);fill-opacity:1;stroke-width:1;stroke-linecap:butt;stroke-linejoin:miter;stroke:rgb(0%,0%,0%);stroke-opacity:1;stroke-miterlimit:4;" d="M -4.798721 -118.440797 L 0.0196047 -132.090521 L 4.368403 -118.617492 L 19.036045 -118.39015 L 7.41238 -109.568913 L 12.685556 -94.497233 L -0.00135725 -103.830696 L -12.48657 -94.940121 L -7.682477 -109.527238 L -18.99055 -118.206559 Z M -4.798721 -118.440797 " transform="matrix(0.033709,-0.0244911,0.0244911,0.033709,25,12.5)"/>
<path style="fill-rule:nonzero;fill:rgb(0%,41.960784%,24.705882%);fill-opacity:1;stroke-width:2.5;stroke-linecap:butt;stroke-linejoin:miter;stroke:rgb(0%,0%,0%);stroke-opacity:1;stroke-miterlimit:4;" d="M 710.869869 585.988791 C 711.029872 481.465302 697.141014 396.105729 680.291413 396.337976 C 663.143383 396.127795 649.531116 481.142726 649.34816 586.066878 C 649.486586 691.032795 663.077015 775.94994 680.247998 775.759458 C 697.074646 775.927874 711.008295 690.954708 710.869869 585.988791 Z M 710.869869 585.988791 " transform="matrix(0.0120647,-0.00125759,0.000691164,0.00967742,17.24511,9.336408)"/>
<path style="fill-rule:nonzero;fill:rgb(0%,41.960784%,24.705882%);fill-opacity:1;stroke-width:2.5;stroke-linecap:butt;stroke-linejoin:miter;stroke:rgb(0%,0%,0%);stroke-opacity:1;stroke-miterlimit:4;" d="M 711.05385 586.24821 C 710.956233 481.282532 697.222124 396.244865 680.075703 396.315802 C 663.23313 396.428401 649.424524 481.322501 649.522141 586.288178 C 649.337739 690.811524 663.071848 775.849192 680.218269 775.778255 C 697.34286 776.107988 711.173295 690.813218 711.05385 586.24821 Z M 711.05385 586.24821 " transform="matrix(0.0127606,-0.00132687,0.000695209,0.00967702,17.13612,9.379717)"/>
<path style="fill-rule:nonzero;fill:rgb(0%,41.960784%,24.705882%);fill-opacity:1;stroke-width:2.5;stroke-linecap:butt;stroke-linejoin:miter;stroke:rgb(0%,0%,0%);stroke-opacity:1;stroke-miterlimit:4;" d="M 710.904368 586.164563 C 710.906912 481.369319 697.218527 396.371655 680.372814 396.498624 C 663.173733 396.224818 649.301221 481.364346 649.298677 586.15959 C 649.296134 690.954834 663.364366 775.990803 680.210079 775.863834 C 697.029312 776.099336 710.901824 690.959807 710.904368 586.164563 Z M 710.904368 586.164563 " transform="matrix(0.0102085,-0.00107879,0.000745749,0.0106979,18.668872,8.711018)"/>
<path style="fill-rule:nonzero;fill:rgb(61.176471%,29.019608%,0%);fill-opacity:1;stroke-width:0.6573;stroke-linecap:butt;stroke-linejoin:miter;stroke:rgb(0%,0%,0%);stroke-opacity:1;stroke-miterlimit:4;" d="M -44.25 62.53125 C -36.5625 62.25 -39.84375 58.125 -36 55.96875 C -32.15625 53.8125 -26.625 55.21875 -25.03125 57.9375 C -23.34375 60.65625 -24.65625 63.375 -22.59375 63.375 C -20.4375 63.46875 37.40625 61.03125 39.46875 63.28125 C 41.53125 65.53125 41.90625 70.03125 39.75 71.8125 C 37.59375 73.59375 -35.53125 74.4375 -38.0625 72.5625 C -40.5 70.6875 -44.25 63 -44.25 62.53125 Z M -44.25 62.53125 " transform="matrix(0.0416667,0,0,0.0416667,25,12.5)"/>
<path style="fill-rule:nonzero;fill:rgb(98.823529%,81.960784%,8.627451%);fill-opacity:1;stroke-width:0.6326;stroke-linecap:butt;stroke-linejoin:miter;stroke:rgb(0%,0%,0%);stroke-opacity:1;stroke-miterlimit:4;" d="M -3.375 68.15625 C -3.5625 73.96875 5.0625 72.375 5.15625 77.15625 C 4.875 82.3125 -9.1875 77.4375 -9.28125 68.15625 C -8.71875 58.78125 5.0625 54.1875 5.25 59.53125 C 5.34375 63.9375 -3.28125 62.4375 -3.375 68.15625 Z M -3.375 68.15625 " transform="matrix(0.0416667,0,0,0.0416667,25,12.5)"/>
<path style="fill-rule:nonzero;fill:rgb(98.823529%,81.960784%,8.627451%);fill-opacity:1;stroke-width:0.6326;stroke-linecap:butt;stroke-linejoin:miter;stroke:rgb(0%,0%,0%);stroke-opacity:1;stroke-miterlimit:4;" d="M 1.6875 68.25 C 1.5 74.0625 10.03125 72.375 10.21875 77.25 C 9.9375 82.3125 -4.125 77.53125 -4.3125 68.15625 C -3.65625 58.875 10.125 54.1875 10.21875 59.53125 C 10.40625 64.03125 1.78125 62.53125 1.6875 68.25 Z M 1.6875 68.25 " transform="matrix(0.0416667,0,0,0.0416667,25,12.5)"/>
<path style="fill-rule:nonzero;fill:rgb(98.823529%,81.960784%,8.627451%);fill-opacity:1;stroke-width:0.6326;stroke-linecap:butt;stroke-linejoin:miter;stroke:rgb(0%,0%,0%);stroke-opacity:1;stroke-miterlimit:4;" d="M 7.03125 68.0625 C 6.9375 73.875 15.46875 72.1875 15.5625 77.0625 C 15.375 82.125 1.3125 77.34375 1.125 67.96875 C 1.6875 58.59375 15.46875 54 15.65625 59.34375 C 15.75 63.75 7.21875 62.25 7.03125 68.0625 Z M 7.03125 68.0625 " transform="matrix(0.0416667,0,0,0.0416667,25,12.5)"/>
<path style="fill-rule:nonzero;fill:rgb(98.823529%,81.960784%,8.627451%);fill-opacity:1;stroke-width:0.6326;stroke-linecap:butt;stroke-linejoin:miter;stroke:rgb(0%,0%,0%);stroke-opacity:1;stroke-miterlimit:4;" d="M 12.09375 68.15625 C 12 73.875 20.53125 72.28125 20.625 77.0625 C 20.34375 82.21875 6.28125 77.4375 6.1875 68.0625 C 6.75 58.6875 20.53125 54.09375 20.71875 59.4375 C 20.8125 63.84375 12.28125 62.34375 12.09375 68.15625 Z M 12.09375 68.15625 " transform="matrix(0.0416667,0,0,0.0416667,25,12.5)"/>
<path style="fill-rule:nonzero;fill:rgb(61.176471%,29.019608%,0%);fill-opacity:1;stroke-width:0.3991;stroke-linecap:butt;stroke-linejoin:miter;stroke:rgb(0%,0%,0%);stroke-opacity:1;stroke-miterlimit:4;" d="M 481.936616 -41.060634 C 481.893724 -42.993754 480.297312 -44.51793 478.395625 -44.490759 C 476.426022 -44.462618 474.828889 -42.95727 474.870351 -41.088588 C 474.843895 -39.218936 476.440308 -37.694759 478.411341 -37.658463 C 480.313027 -37.685634 481.91016 -39.190982 481.936616 -41.060634 Z M 481.936616 -41.060634 " transform="matrix(0.0574965,0.000865869,-0.00127572,0.0606017,-1.051123,17.383551)"/>
<path style="fill-rule:nonzero;fill:rgb(0%,41.960784%,24.705882%);fill-opacity:1;stroke-width:2.5;stroke-linecap:butt;stroke-linejoin:miter;stroke:rgb(0%,0%,0%);stroke-opacity:1;stroke-miterlimit:4;" d="M 447.827009 904.965767 C 447.822287 891.678854 438.747934 880.75807 426.992863 880.776197 C 415.682591 880.829548 406.234739 891.707072 406.23946 904.993985 C 406.244182 918.280898 415.763334 929.236907 427.073606 929.183556 C 438.383878 929.130205 447.831731 918.252681 447.827009 904.965767 Z M 447.827009 904.965767 " transform="matrix(0.0086426,-0.00130383,0.00176088,0.016464,20.000914,0.274348)"/>
<path style="fill-rule:nonzero;fill:rgb(0%,41.960784%,24.705882%);fill-opacity:1;stroke-width:2.5;stroke-linecap:butt;stroke-linejoin:miter;stroke:rgb(0%,0%,0%);stroke-opacity:1;stroke-miterlimit:4;" d="M 448.027276 905.025637 C 448.022554 891.738724 438.503402 880.782715 427.19313 880.836066 C 415.438059 880.854193 406.435005 891.766942 406.439727 905.053855 C 406.444449 918.340768 415.566374 929.02806 427.273873 929.243426 C 438.584145 929.190074 448.031997 918.31255 448.027276 905.025637 Z M 448.027276 905.025637 " transform="matrix(0.0086426,-0.00130383,0.00176088,0.016464,19.69439,0.250185)"/>
<path style="fill-rule:nonzero;fill:rgb(0%,41.960784%,24.705882%);fill-opacity:1;stroke-width:2.5;stroke-linecap:butt;stroke-linejoin:miter;stroke:rgb(0%,0%,0%);stroke-opacity:1;stroke-miterlimit:4;" d="M 448.141273 904.903371 C 448.136553 891.616416 438.569828 880.893866 427.259556 880.947218 C 415.504485 880.965345 406.104204 891.609411 406.108925 904.896367 C 406.066073 918.416815 415.632797 929.139365 426.943069 929.086013 C 438.698141 929.067886 448.098421 918.42382 448.141273 904.903371 Z M 448.141273 904.903371 " transform="matrix(0.0086426,-0.00130382,0.00176088,0.016464,19.474875,-0.142137)"/>
<path style="fill-rule:nonzero;fill:rgb(0%,41.960784%,24.705882%);fill-opacity:1;stroke-width:2.5;stroke-linecap:butt;stroke-linejoin:miter;stroke:rgb(0%,0%,0%);stroke-opacity:1;stroke-miterlimit:4;" d="M 447.773787 904.977299 C 448.045725 891.663368 438.796633 880.886548 427.042065 880.896444 C 415.74982 880.939784 406.211254 891.647835 406.401639 904.995211 C 406.129701 918.309143 415.841116 929.119407 427.133361 929.076067 C 438.425607 929.032726 447.964172 918.324675 447.773787 904.977299 Z M 447.773787 904.977299 " transform="matrix(0.00830957,-0.00131398,0.0019301,0.0181637,19.774687,-1.693116)"/>
<path style="fill-rule:nonzero;fill:rgb(0%,41.960784%,24.705882%);fill-opacity:1;stroke-width:2.5;stroke-linecap:butt;stroke-linejoin:miter;stroke:rgb(0%,0%,0%);stroke-opacity:1;stroke-miterlimit:4;" d="M 447.892846 904.951281 C 447.976692 891.654485 438.586903 880.854006 427.294433 880.919452 C 415.539655 880.950016 406.141509 891.709139 406.51997 905.040816 C 406.436123 918.337612 415.825913 929.13809 427.118383 929.072645 C 438.361582 929.232846 447.808999 918.248076 447.892846 904.951281 Z M 447.892846 904.951281 " transform="matrix(0.00831251,-0.00128496,0.00181506,0.0170308,20.30622,-0.676341)"/>
<path style="fill-rule:nonzero;fill:rgb(0%,41.960784%,24.705882%);fill-opacity:1;stroke-width:2.5;stroke-linecap:butt;stroke-linejoin:miter;stroke:rgb(0%,0%,0%);stroke-opacity:1;stroke-miterlimit:4;" d="M 448.015936 905.037903 C 448.099783 891.741107 438.709993 880.940629 427.004486 880.745546 C 415.712016 880.810992 406.31387 891.570115 406.180753 905.092558 C 406.096906 918.389353 415.486696 929.189832 427.241474 929.159268 C 438.533943 929.093822 447.93209 918.334699 448.015936 905.037903 Z M 448.015936 905.037903 " transform="matrix(0.00831251,-0.00128496,0.00181506,0.0170308,20.070665,-0.818283)"/>
<path style="fill-rule:nonzero;fill:rgb(0%,41.960784%,24.705882%);fill-opacity:1;stroke-width:2.5;stroke-linecap:butt;stroke-linejoin:miter;stroke:rgb(0%,0%,0%);stroke-opacity:1;stroke-miterlimit:4;" d="M 448.085549 904.911237 C 448.169396 891.614442 438.779606 880.813963 427.024828 880.844527 C 415.732358 880.909973 406.334212 891.669096 406.250365 904.965892 C 406.166519 918.262688 415.556309 929.063166 427.261816 929.258248 C 438.554286 929.192803 447.952432 918.43368 448.085549 904.911237 Z M 448.085549 904.911237 " transform="matrix(0.00831251,-0.00128496,0.00181506,0.0170308,19.773441,-1.023067)"/>
<path style="fill-rule:nonzero;fill:rgb(0%,41.960784%,24.705882%);fill-opacity:1;stroke-width:2.5;stroke-linecap:butt;stroke-linejoin:miter;stroke:rgb(0%,0%,0%);stroke-opacity:1;stroke-miterlimit:4;" d="M 447.79541 905.065107 C 447.879257 891.768311 438.538738 880.742186 427.246268 880.807631 C 415.49149 880.838195 406.093344 891.597319 406.471805 904.928995 C 406.338688 918.451438 415.728478 929.251916 427.020947 929.186471 C 438.775725 929.155907 447.711563 918.361903 447.79541 905.065107 Z M 447.79541 905.065107 " transform="matrix(0.00831251,-0.00128496,0.00181506,0.0170308,19.49823,-1.147155)"/>
<path style="fill-rule:nonzero;fill:rgb(58.039216%,38.039216%,78.823529%);fill-opacity:1;stroke-width:0.5749;stroke-linecap:butt;stroke-linejoin:miter;stroke:rgb(0%,0%,0%);stroke-opacity:1;stroke-miterlimit:4;" d="M -14.71875 -52.6875 C -14.71875 -52.6875 -29.34375 -39.9375 -27.75 -5.53125 C -25.875 29.0625 4.6875 45.375 4.6875 45.375 C 4.6875 45.375 12.46875 35.53125 11.53125 7.6875 C 9.375 -33 -5.0625 -50.90625 -5.0625 -50.90625 Z M -14.71875 -52.6875 " transform="matrix(0.0416667,0,0,0.0416667,25,12.5)"/>
<path style="fill-rule:nonzero;fill:rgb(0%,41.960784%,24.705882%);fill-opacity:1;stroke-width:2.5;stroke-linecap:butt;stroke-linejoin:miter;stroke:rgb(0%,0%,0%);stroke-opacity:1;stroke-miterlimit:4;" d="M 447.709581 904.942447 C 448.122387 891.68989 438.59823 880.957589 426.965695 880.902354 C 415.779317 880.840165 406.086277 891.635445 406.152092 905.117079 C 406.185443 918.362682 415.7096 929.094983 426.895978 929.157172 C 438.528513 929.212407 447.775396 918.424081 447.709581 904.942447 Z M 447.709581 904.942447 " transform="matrix(0.00873661,0.000257389,-0.00120163,0.0165143,23.117354,-0.391728)"/>
<path style="fill-rule:nonzero;fill:rgb(0%,41.960784%,24.705882%);fill-opacity:1;stroke-width:2.5;stroke-linecap:butt;stroke-linejoin:miter;stroke:rgb(0%,0%,0%);stroke-opacity:1;stroke-miterlimit:4;" d="M 447.761552 904.958642 C 447.728201 891.71304 438.617737 880.737753 427.017666 880.91855 C 415.831287 880.856361 406.138247 891.65164 406.171598 904.897243 C 406.237413 918.378877 415.76157 929.111178 426.947948 929.173367 C 438.580483 929.228602 447.827366 918.440276 447.761552 904.958642 Z M 447.761552 904.958642 " transform="matrix(0.00873661,0.000257389,-0.00120163,0.0165143,22.820045,-0.470134)"/>
<path style="fill-rule:nonzero;fill:rgb(0%,41.960784%,24.705882%);fill-opacity:1;stroke-width:2.5;stroke-linecap:butt;stroke-linejoin:miter;stroke:rgb(0%,0%,0%);stroke-opacity:1;stroke-miterlimit:4;" d="M 447.933123 904.921444 C 447.899772 891.6758 438.821772 880.936511 427.189238 880.881277 C 415.556703 880.826043 406.309819 891.614403 406.375634 905.096081 C 406.408984 918.341725 415.486984 929.081013 427.119518 929.136248 C 438.752053 929.191482 447.998937 918.403121 447.933123 904.921444 Z M 447.933123 904.921444 " transform="matrix(0.00873661,0.00025739,-0.00120163,0.0165142,22.673966,-0.895298)"/>
<path style="fill-rule:nonzero;fill:rgb(0%,41.960784%,24.705882%);fill-opacity:1;stroke-width:2.5;stroke-linecap:butt;stroke-linejoin:miter;stroke:rgb(0%,0%,0%);stroke-opacity:1;stroke-miterlimit:4;" d="M 447.805762 905.035971 C 448.01257 891.739159 438.393136 880.902511 427.23085 880.803302 C 415.638946 880.922958 406.2136 891.741765 406.470468 905.033791 C 406.263661 918.330603 415.419418 929.172038 427.011322 929.052382 C 438.637284 929.146804 448.06263 918.327997 447.805762 905.035971 Z M 447.805762 905.035971 " transform="matrix(0.00841071,0.000188042,-0.00133805,0.0182169,23.245404,-2.36801)"/>
<path style="fill-rule:nonzero;fill:rgb(0%,41.960784%,24.705882%);fill-opacity:1;stroke-width:2.5;stroke-linecap:butt;stroke-linejoin:miter;stroke:rgb(0%,0%,0%);stroke-opacity:1;stroke-miterlimit:4;" d="M 447.910693 905.108009 C 447.764533 891.61764 438.717675 880.755904 427.12549 880.903248 C 415.49939 880.822342 406.428525 891.685683 406.077084 904.953695 C 406.223244 918.444064 415.699875 929.071656 427.325975 929.152562 C 438.488387 929.239363 448.02294 918.370127 447.910693 905.108009 Z M 447.910693 905.108009 " transform="matrix(0.00840844,0.000217118,-0.00124933,0.0170816,23.58721,-1.272781)"/>
<path style="fill-rule:nonzero;fill:rgb(0%,41.960784%,24.705882%);fill-opacity:1;stroke-width:2.5;stroke-linecap:butt;stroke-linejoin:miter;stroke:rgb(0%,0%,0%);stroke-opacity:1;stroke-miterlimit:4;" d="M 447.829129 904.995351 C 447.716882 891.733233 438.670024 880.871497 427.043925 880.79059 C 415.451739 880.937935 406.34696 891.573025 406.49312 905.063395 C 406.141679 918.331407 415.652225 929.187249 427.24441 929.039905 C 438.406822 929.126705 447.941375 918.25747 447.829129 904.995351 Z M 447.829129 904.995351 " transform="matrix(0.00840844,0.000217118,-0.00124933,0.0170816,23.380723,-1.454433)"/>
<path style="fill-rule:nonzero;fill:rgb(0%,41.960784%,24.705882%);fill-opacity:1;stroke-width:2.5;stroke-linecap:butt;stroke-linejoin:miter;stroke:rgb(0%,0%,0%);stroke-opacity:1;stroke-miterlimit:4;" d="M 448.078677 905.025719 C 447.966431 891.763601 438.455886 880.907759 427.293474 880.820959 C 415.701288 880.968303 406.132821 891.609287 406.278982 905.099656 C 406.391228 918.361775 415.438086 929.22351 427.030271 929.076166 C 438.656371 929.157073 447.727236 918.293731 448.078677 905.025719 Z M 448.078677 905.025719 " transform="matrix(0.00840844,0.000217118,-0.00124933,0.0170816,23.124757,-1.708912)"/>
<path style="fill-rule:nonzero;fill:rgb(0%,41.960784%,24.705882%);fill-opacity:1;stroke-width:2.5;stroke-linecap:butt;stroke-linejoin:miter;stroke:rgb(0%,0%,0%);stroke-opacity:1;stroke-miterlimit:4;" d="M 447.916831 904.985333 C 447.804585 891.723215 438.757727 880.861479 427.131628 880.780572 C 415.539442 880.927916 406.434663 891.563007 406.117136 905.05927 C 406.229382 918.321389 415.739927 929.17723 426.868425 929.03578 C 438.494525 929.116687 448.029078 918.247451 447.916831 904.985333 Z M 447.916831 904.985333 " transform="matrix(0.00840844,0.000217118,-0.00124933,0.0170816,22.876067,-1.880062)"/>
<path style="fill-rule:nonzero;fill:rgb(83.137255%,10.980392%,18.823529%);fill-opacity:1;stroke-width:1.25;stroke-linecap:butt;stroke-linejoin:miter;stroke:rgb(0%,0%,0%);stroke-opacity:1;stroke-miterlimit:4;" d="M 682.625238 605.881945 C 682.589696 503.146485 656.824056 419.463055 624.477854 419.77771 C 592.305962 419.662499 566.039089 503.134271 566.074632 605.869732 C 565.935863 709.035059 592.282281 792.454677 624.454173 792.569888 C 656.626065 792.685099 682.892938 709.213327 682.625238 605.881945 Z M 682.625238 605.881945 " transform="matrix(0.00824446,-0.00318479,0.00334312,0.0077957,18.506745,10.032776)"/>
<path style="fill-rule:nonzero;fill:rgb(0%,41.960784%,24.705882%);fill-opacity:1;stroke-width:1.4635;stroke-linecap:butt;stroke-linejoin:miter;stroke:rgb(0%,0%,0%);stroke-opacity:1;stroke-miterlimit:4;" d="M 228.870697 356.632336 C 228.965016 349.515448 224.185779 343.786216 218.166947 343.930941 C 212.144767 343.821654 207.328142 349.52753 207.233823 356.644418 C 207.327592 363.756782 212.110178 369.740028 218.129009 369.595302 C 224.15119 369.704589 228.967815 363.998713 228.870697 356.632336 Z M 228.870697 356.632336 " transform="matrix(0.0207616,0.000369658,-0.00027372,0.0153733,20.853715,5.717945)"/>
<path style="fill-rule:nonzero;fill:rgb(0%,41.960784%,24.705882%);fill-opacity:1;stroke-width:1.5462;stroke-linecap:butt;stroke-linejoin:miter;stroke:rgb(0%,0%,0%);stroke-opacity:1;stroke-miterlimit:4;" d="M 229.022378 356.860873 C 228.917705 349.748508 224.208891 343.751695 218.120084 343.882852 C 212.237498 343.755474 207.284467 349.706318 207.389139 356.818683 C 207.283853 363.93557 212.198887 369.673848 218.077735 369.547213 C 224.17028 369.670068 228.917091 363.97776 229.022378 356.860873 Z M 229.022378 356.860873 " transform="matrix(0.0185989,0.000331152,-0.00027372,0.0153733,21.494356,5.445851)"/>
<path style="fill-rule:nonzero;fill:rgb(0%,41.960784%,24.705882%);fill-opacity:1;stroke-width:1.5462;stroke-linecap:butt;stroke-linejoin:miter;stroke:rgb(0%,0%,0%);stroke-opacity:1;stroke-miterlimit:4;" d="M 228.916788 356.66944 C 229.022074 349.552553 224.10704 343.814275 218.228192 343.94091 C 212.135647 343.818054 207.388836 349.510363 207.28355 356.62725 C 207.39196 363.993628 212.097036 369.736428 218.185843 369.60527 C 224.068429 369.732648 229.02146 363.781805 228.916788 356.66944 Z M 228.916788 356.66944 " transform="matrix(0.0185989,0.000331152,-0.00027372,0.0153733,21.22283,5.441016)"/>
<path style="fill-rule:nonzero;fill:rgb(0%,41.960784%,24.705882%);fill-opacity:1;stroke-width:1.56;stroke-linecap:butt;stroke-linejoin:miter;stroke:rgb(0%,0%,0%);stroke-opacity:1;stroke-miterlimit:4;" d="M 228.976648 356.81506 C 228.8802 349.509416 224.19076 343.938053 218.168372 343.812003 C 212.149557 343.956533 207.208892 349.759142 207.301768 356.794207 C 207.394644 363.829272 212.087657 369.671214 218.106472 369.526685 C 224.12886 369.652735 228.868897 363.854943 228.976648 356.81506 Z M 228.976648 356.81506 " transform="matrix(0.019464,0.000346555,-0.000256961,0.014432,21.088006,5.567954)"/>
<path style="fill-rule:nonzero;fill:rgb(0%,41.960784%,24.705882%);fill-opacity:1;stroke-width:1.56;stroke-linecap:butt;stroke-linejoin:miter;stroke:rgb(0%,0%,0%);stroke-opacity:1;stroke-miterlimit:4;" d="M 229.001658 356.880228 C 228.90521 349.574583 224.01157 343.737459 218.193382 343.877171 C 212.170994 343.751121 207.23033 349.55373 207.326778 356.859375 C 207.219027 363.899257 212.112666 369.736381 218.131482 369.591852 C 224.153869 369.717902 228.893906 363.920111 229.001658 356.880228 Z M 229.001658 356.880228 " transform="matrix(0.019464,0.000346555,-0.000256961,0.014432,21.064098,5.33263)"/>
<path style="fill-rule:nonzero;fill:rgb(0%,41.960784%,24.705882%);fill-opacity:1;stroke-width:1.5462;stroke-linecap:butt;stroke-linejoin:miter;stroke:rgb(0%,0%,0%);stroke-opacity:1;stroke-miterlimit:4;" d="M 229.005476 356.815134 C 228.900803 349.702769 224.195728 343.959969 218.103183 343.837114 C 212.224335 343.963749 207.267565 349.660579 207.372238 356.772944 C 207.266951 363.889831 212.181986 369.628109 218.064572 369.755487 C 224.153379 369.62433 228.900189 363.932021 229.005476 356.815134 Z M 229.005476 356.815134 " transform="matrix(0.0185989,0.000331152,-0.00027372,0.0153733,20.963408,5.282497)"/>
<path style="fill-rule:nonzero;fill:rgb(0%,41.960784%,24.705882%);fill-opacity:1;stroke-width:1.5623;stroke-linecap:butt;stroke-linejoin:miter;stroke:rgb(0%,0%,0%);stroke-opacity:1;stroke-miterlimit:4;" d="M 228.891422 356.830026 C 228.996708 349.564858 224.085412 343.966329 218.202826 343.836297 C 212.114019 343.970188 207.36347 349.521789 207.258183 356.786956 C 207.359117 363.788201 212.064193 369.650653 218.156738 369.776068 C 224.035586 369.646794 228.992356 363.83127 228.891422 356.830026 Z M 228.891422 356.830026 " transform="matrix(0.0185989,0.000331152,-0.000268133,0.0150595,21.022134,5.14036)"/>
<path style="fill-rule:nonzero;fill:rgb(0%,41.960784%,24.705882%);fill-opacity:1;stroke-width:1.4635;stroke-linecap:butt;stroke-linejoin:miter;stroke:rgb(0%,0%,0%);stroke-opacity:1;stroke-miterlimit:4;" d="M 228.924801 356.649384 C 229.01912 349.532496 224.051795 343.807786 218.221052 343.947989 C 212.198871 343.838702 207.382246 349.544578 207.287927 356.661466 C 207.381696 363.77383 212.164282 369.757076 218.183114 369.61235 C 224.017206 369.72616 229.01857 363.761748 228.924801 356.649384 Z M 228.924801 356.649384 " transform="matrix(0.0207616,0.000369658,-0.00027372,0.0153733,20.219784,5.026257)"/>
<path style="fill-rule:nonzero;fill:rgb(0%,41.960784%,24.705882%);fill-opacity:1;stroke-width:1.56;stroke-linecap:butt;stroke-linejoin:miter;stroke:rgb(0%,0%,0%);stroke-opacity:1;stroke-miterlimit:4;" d="M 228.882834 356.707748 C 228.990586 349.667865 224.096946 343.830741 218.078131 343.97527 C 212.055743 343.84922 207.315706 349.647012 207.207955 356.686895 C 207.304403 363.992539 212.19447 369.559084 218.216858 369.685134 C 224.035046 369.545422 228.97571 363.742813 228.882834 356.707748 Z M 228.882834 356.707748 " transform="matrix(0.019464,0.000346555,-0.000256961,0.014432,20.910117,5.038285)"/>
<path style="fill-rule:nonzero;fill:rgb(0%,41.960784%,24.705882%);fill-opacity:1;stroke-width:1.5623;stroke-linecap:butt;stroke-linejoin:miter;stroke:rgb(0%,0%,0%);stroke-opacity:1;stroke-miterlimit:4;" d="M 228.981939 356.696335 C 228.881005 349.695091 224.175929 343.832639 218.087123 343.96653 C 212.204537 343.836498 207.247767 349.652021 207.348701 356.653266 C 207.243414 363.918433 212.158449 369.776268 218.037297 369.646994 C 224.129842 369.772409 228.876653 363.961502 228.981939 356.696335 Z M 228.981939 356.696335 " transform="matrix(0.0185989,0.000331152,-0.000268133,0.0150595,20.821196,4.853281)"/>
<path style="fill-rule:nonzero;fill:rgb(0%,41.960784%,24.705882%);fill-opacity:1;stroke-width:1.5462;stroke-linecap:butt;stroke-linejoin:miter;stroke:rgb(0%,0%,0%);stroke-opacity:1;stroke-miterlimit:4;" d="M 229.041353 356.724487 C 228.93668 349.612122 224.021646 343.873844 218.13906 343.746466 C 212.050253 343.877624 207.303442 349.569932 207.408115 356.682297 C 207.302828 363.799184 212.217863 369.537462 218.100449 369.66484 C 224.189255 369.533682 228.936066 363.841374 229.041353 356.724487 Z M 229.041353 356.724487 " transform="matrix(0.0185989,0.000331152,-0.00027372,0.0153733,20.39631,5.045597)"/>
<path style="fill-rule:nonzero;fill:rgb(0%,41.960784%,24.705882%);fill-opacity:1;stroke-width:1.5623;stroke-linecap:butt;stroke-linejoin:miter;stroke:rgb(0%,0%,0%);stroke-opacity:1;stroke-miterlimit:4;" d="M 228.848923 356.700229 C 228.957948 349.694367 224.042913 343.836532 218.164066 343.965806 C 212.071521 343.840391 207.32471 349.651298 207.215685 356.65716 C 207.320357 363.91771 212.235392 369.775544 218.114239 369.646271 C 224.206784 369.771686 228.953595 363.960779 228.848923 356.700229 Z M 228.848923 356.700229 " transform="matrix(0.0185989,0.000331152,-0.000268133,0.0150595,20.464296,5.009516)"/>
<path style="fill-rule:nonzero;fill:rgb(0%,41.960784%,24.705882%);fill-opacity:1;stroke-width:1.5623;stroke-linecap:butt;stroke-linejoin:miter;stroke:rgb(0%,0%,0%);stroke-opacity:1;stroke-miterlimit:4;" d="M 228.876082 356.663414 C 228.985107 349.657552 224.070072 343.799718 218.191225 343.928991 C 212.09868 343.803576 207.351869 349.614483 207.246582 356.87965 C 207.347516 363.880895 212.052592 369.743347 218.141398 369.609456 C 224.023985 369.739488 228.980754 363.923964 228.876082 356.663414 Z M 228.876082 356.663414 " transform="matrix(0.0185989,0.000331152,-0.000268133,0.0150595,20.549718,4.845999)"/>
<path style="fill-rule:nonzero;fill:rgb(0%,41.960784%,24.705882%);fill-opacity:1;stroke-width:2.5449;stroke-linecap:butt;stroke-linejoin:miter;stroke:rgb(0%,0%,0%);stroke-opacity:1;stroke-miterlimit:4;" d="M 596.323055 564.489915 C 596.063128 450.697029 565.760405 358.801737 528.525312 358.916566 C 491.449736 358.628478 461.284915 451.015533 461.173693 564.666171 C 461.221988 677.913891 491.365194 770.212101 528.600287 770.097272 C 565.83538 769.982443 596.211833 678.140552 596.323055 564.489915 Z M 596.323055 564.489915 " transform="matrix(0.00913813,-0.00322618,0.00361786,0.00841766,18.957692,9.47685)"/>
<path style="fill-rule:nonzero;fill:rgb(0%,41.960784%,24.705882%);fill-opacity:1;stroke-width:2.5;stroke-linecap:butt;stroke-linejoin:miter;stroke:rgb(0%,0%,0%);stroke-opacity:1;stroke-miterlimit:4;" d="M 542.229618 646.019423 C 542.150345 623.425548 536.002108 605.106713 528.645941 605.249114 C 521.289773 605.391516 515.276362 623.403489 515.355634 645.997363 C 515.434906 668.591238 521.207344 686.736585 528.939311 686.767672 C 536.127555 686.990048 541.933091 668.439809 542.229618 646.019423 Z M 542.229618 646.019423 " transform="matrix(0.00857267,-0.00407717,0.00394639,0.00883168,19.286579,9.274855)"/>
<path style="fill-rule:nonzero;fill:rgb(0%,41.960784%,24.705882%);fill-opacity:1;stroke-width:0.5749;stroke-linecap:butt;stroke-linejoin:miter;stroke:rgb(0%,0%,0%);stroke-opacity:1;stroke-miterlimit:4;" d="M 31.5 7.78125 C 44.25 23.4375 42.65625 33.28125 41.34375 41.71875 C 37.3125 32.0625 35.0625 25.96875 22.3125 10.3125 C 9.46875 -5.25 15.84375 -16.21875 16.78125 -21.9375 C 18.65625 -16.96875 18.65625 -7.78125 31.5 7.78125 Z M 31.5 7.78125 " transform="matrix(0.0416667,0,0,0.0416667,25,12.5)"/>
<path style="fill-rule:nonzero;fill:rgb(0%,41.960784%,24.705882%);fill-opacity:1;stroke-width:0.5749;stroke-linecap:butt;stroke-linejoin:miter;stroke:rgb(0%,0%,0%);stroke-opacity:1;stroke-miterlimit:4;" d="M 32.625 20.4375 C 45.46875 36 43.78125 45.9375 42.46875 54.28125 C 38.4375 44.625 36.28125 38.53125 23.4375 22.96875 C 10.59375 7.3125 17.0625 -3.65625 17.90625 -9.375 C 19.78125 -4.40625 19.78125 4.78125 32.625 20.4375 Z M 32.625 20.4375 " transform="matrix(0.0416667,0,0,0.0416667,25,12.5)"/>
<path style="fill-rule:nonzero;fill:rgb(0%,41.960784%,24.705882%);fill-opacity:1;stroke-width:0.5749;stroke-linecap:butt;stroke-linejoin:miter;stroke:rgb(0%,0%,0%);stroke-opacity:1;stroke-miterlimit:4;" d="M 33 30.5625 C 46.125 45.84375 44.71875 55.78125 43.5 64.21875 C 39.28125 54.65625 37.03125 48.5625 23.90625 33.28125 C 10.78125 17.90625 16.96875 6.84375 17.71875 1.125 C 19.6875 6 19.875 15.1875 33 30.5625 Z M 33 30.5625 " transform="matrix(0.0416667,0,0,0.0416667,25,12.5)"/>
<path style="fill-rule:nonzero;fill:rgb(0%,41.960784%,24.705882%);fill-opacity:1;stroke-width:1.3887;stroke-linecap:butt;stroke-linejoin:miter;stroke:rgb(0%,0%,0%);stroke-opacity:1;stroke-miterlimit:4;" d="M 541.990663 646.159823 C 542.036895 623.583431 535.965269 605.283244 528.6226 605.251128 C 521.279931 605.219012 515.41972 623.467009 515.373488 646.043402 C 515.327256 668.619794 521.398881 686.91998 528.74155 686.952097 C 536.084219 686.984213 542.035763 668.513084 541.990663 646.159823 Z M 541.990663 646.159823 " transform="matrix(0.0169934,-0.00432477,0.00695575,0.0157363,12.517891,4.332075)"/>
<path style="fill-rule:nonzero;fill:rgb(0%,41.960784%,24.705882%);fill-opacity:1;stroke-width:1.6398;stroke-linecap:butt;stroke-linejoin:miter;stroke:rgb(0%,0%,0%);stroke-opacity:1;stroke-miterlimit:4;" d="M 542.024829 646.132134 C 542.056539 623.649318 536.013286 605.337752 528.601879 605.341125 C 521.190471 605.344498 515.232373 623.632578 515.439159 646.163533 C 515.407449 668.646349 521.212205 686.909777 528.623613 686.906404 C 536.03502 686.903031 541.993118 668.614951 542.024829 646.132134 Z M 542.024829 646.132134 " transform="matrix(0.0152872,-0.00262937,0.00540762,0.0130271,14.208216,5.547032)"/>
<path style="fill-rule:nonzero;fill:rgb(0%,41.960784%,24.705882%);fill-opacity:1;stroke-width:1.6398;stroke-linecap:butt;stroke-linejoin:miter;stroke:rgb(0%,0%,0%);stroke-opacity:1;stroke-miterlimit:4;" d="M 541.918823 646.1387 C 542.089463 623.571804 535.997675 605.258152 528.646339 605.15779 C 521.200978 605.33826 515.329898 623.634515 515.493808 645.962775 C 515.323168 668.529671 521.414956 686.843323 528.766292 686.943685 C 535.971127 686.721019 542.082733 668.46696 541.918823 646.1387 Z M 541.918823 646.1387 " transform="matrix(0.0153395,-0.00230482,0.00513579,0.0131379,14.103181,5.549183)"/>
<path style="fill-rule:nonzero;fill:rgb(0%,41.960784%,24.705882%);fill-opacity:1;stroke-width:2.0966;stroke-linecap:butt;stroke-linejoin:miter;stroke:rgb(0%,0%,0%);stroke-opacity:1;stroke-miterlimit:4;" d="M 542.158891 645.907733 C 542.098593 623.368872 535.883514 605.429279 528.642556 605.350933 C 521.401597 605.272587 515.459888 623.59728 515.229545 646.068416 C 515.289844 668.607277 521.365869 686.916697 528.606827 686.995043 C 535.986839 686.703562 541.789495 668.748696 542.158891 645.907733 Z M 542.158891 645.907733 " transform="matrix(0.0123574,-0.00226294,0.00464636,0.00971151,16.205434,6.852569)"/>
<path style="fill-rule:nonzero;fill:rgb(0%,41.960784%,24.705882%);fill-opacity:1;stroke-width:2.0966;stroke-linecap:butt;stroke-linejoin:miter;stroke:rgb(0%,0%,0%);stroke-opacity:1;stroke-miterlimit:4;" d="M 541.933539 646.089493 C 541.967568 623.710758 536.087639 605.103097 528.878619 605.133685 C 521.371909 605.116887 515.456752 623.417835 515.302006 646.170059 C 515.267977 668.548794 521.268624 686.782966 528.775334 686.799764 C 535.984354 686.769176 541.89951 668.468228 541.933539 646.089493 Z M 541.933539 646.089493 " transform="matrix(0.0124798,-0.00158336,0.00403367,0.00994705,16.322072,6.505612)"/>
<path style="fill-rule:nonzero;fill:rgb(0%,41.960784%,24.705882%);fill-opacity:1;stroke-width:0.5749;stroke-linecap:butt;stroke-linejoin:miter;stroke:rgb(0%,0%,0%);stroke-opacity:1;stroke-miterlimit:4;" d="M 8.625 -15.75 C 12.375 -6.46875 13.96875 1.78125 12 2.8125 C 10.125 3.84375 5.53125 -2.90625 1.78125 -12.1875 " transform="matrix(0.0416667,0,0,0.0416667,25,12.5)"/>
<path style="fill-rule:nonzero;fill:rgb(0%,41.960784%,24.705882%);fill-opacity:1;stroke-width:2.0966;stroke-linecap:butt;stroke-linejoin:miter;stroke:rgb(0%,0%,0%);stroke-opacity:1;stroke-miterlimit:4;" d="M 542.131164 646.107965 C 541.867503 623.681844 535.987574 605.074184 528.778554 605.104772 C 521.271844 605.087974 515.356688 623.388921 515.201941 646.141145 C 515.465602 668.567266 521.466249 686.801438 528.675269 686.77085 C 536.181979 686.787648 542.097135 668.486701 542.131164 646.107965 Z M 542.131164 646.107965 " transform="matrix(0.0124798,-0.00158336,0.00403367,0.00994705,16.296094,6.052616)"/>
<path style="fill-rule:nonzero;fill:rgb(0%,41.960784%,24.705882%);fill-opacity:1;stroke-width:2.0966;stroke-linecap:butt;stroke-linejoin:miter;stroke:rgb(0%,0%,0%);stroke-opacity:1;stroke-miterlimit:4;" d="M 542.035846 645.93914 C 541.93574 623.712235 535.967712 605.378762 528.840222 605.206986 C 521.298733 605.369671 515.411588 623.679857 515.511694 645.906762 C 515.497776 668.508162 521.465804 686.841634 528.593294 687.01341 C 536.134783 686.850725 542.021928 668.540539 542.035846 645.93914 Z M 542.035846 645.93914 " transform="matrix(0.0125134,-0.00133768,0.00381001,0.0100234,16.158583,6.000534)"/>
<path style="fill-rule:nonzero;fill:rgb(0%,41.960784%,24.705882%);fill-opacity:1;stroke-width:0.5749;stroke-linecap:butt;stroke-linejoin:miter;stroke:rgb(0%,0%,0%);stroke-opacity:1;stroke-miterlimit:4;" d="M 2.0625 -28.3125 C 5.71875 -22.125 7.6875 -16.21875 6.46875 -15.28125 C 5.25 -14.34375 1.21875 -18.65625 -2.4375 -24.9375 " transform="matrix(0.0416667,0,0,0.0416667,25,12.5)"/>
<path style="fill-rule:nonzero;fill:rgb(0%,41.960784%,24.705882%);fill-opacity:1;stroke-width:0.5749;stroke-linecap:butt;stroke-linejoin:miter;stroke:rgb(0%,0%,0%);stroke-opacity:1;stroke-miterlimit:4;" d="M 4.59375 -32.53125 C 8.25 -26.25 10.21875 -20.4375 9 -19.40625 C 7.78125 -18.46875 3.75 -22.78125 0.09375 -29.0625 " transform="matrix(0.0416667,0,0,0.0416667,25,12.5)"/>
<path style="fill-rule:nonzero;fill:rgb(0%,41.960784%,24.705882%);fill-opacity:1;stroke-width:0.5749;stroke-linecap:butt;stroke-linejoin:miter;stroke:rgb(0%,0%,0%);stroke-opacity:1;stroke-miterlimit:4;" d="M 16.03125 -31.59375 C 21.09375 -23.0625 23.90625 -15.09375 22.125 -13.78125 C 20.4375 -12.46875 14.90625 -18.375 9.75 -26.90625 " transform="matrix(0.0416667,0,0,0.0416667,25,12.5)"/>
<path style="fill-rule:nonzero;fill:rgb(0%,41.960784%,24.705882%);fill-opacity:1;stroke-width:0.5749;stroke-linecap:butt;stroke-linejoin:miter;stroke:rgb(0%,0%,0%);stroke-opacity:1;stroke-miterlimit:4;" d="M 8.4375 -36.09375 C 12.1875 -29.15625 14.15625 -22.6875 12.9375 -21.65625 C 11.625 -20.625 7.6875 -25.40625 3.9375 -32.34375 " transform="matrix(0.0416667,0,0,0.0416667,25,12.5)"/>
<path style="fill-rule:nonzero;fill:rgb(58.039216%,38.039216%,78.823529%);fill-opacity:1;stroke-width:0.5905;stroke-linecap:butt;stroke-linejoin:miter;stroke:rgb(0%,0%,0%);stroke-opacity:1;stroke-miterlimit:4;" d="M 8.15625 -46.125 C 5.625 -43.59375 8.0625 -39 10.3125 -37.3125 C 12.84375 -34.96875 27.09375 -19.96875 37.125 -32.625 C 29.0625 -32.71875 14.0625 -51.65625 8.15625 -46.125 Z M 8.15625 -46.125 " transform="matrix(0.0416667,0,0,0.0416667,25,12.5)"/>
<path style="fill-rule:nonzero;fill:rgb(58.039216%,38.039216%,78.823529%);fill-opacity:1;stroke-width:0.5905;stroke-linecap:butt;stroke-linejoin:miter;stroke:rgb(0%,0%,0%);stroke-opacity:1;stroke-miterlimit:4;" d="M 6.375 -53.53125 C 3.9375 -51 6.28125 -46.40625 8.53125 -44.71875 C 11.0625 -42.375 25.3125 -27.375 35.34375 -40.03125 C 27.28125 -40.125 12.28125 -59.0625 6.375 -53.53125 Z M 6.375 -53.53125 " transform="matrix(0.0416667,0,0,0.0416667,25,12.5)"/>
<path style="fill-rule:nonzero;fill:rgb(58.039216%,38.039216%,78.823529%);fill-opacity:1;stroke-width:0.5905;stroke-linecap:butt;stroke-linejoin:miter;stroke:rgb(0%,0%,0%);stroke-opacity:1;stroke-miterlimit:4;" d="M 4.125 -60.5625 C 1.6875 -58.125 4.03125 -53.4375 6.375 -51.75 C 8.8125 -49.5 23.0625 -34.5 33.09375 -47.0625 C 25.03125 -47.25 10.03125 -66.09375 4.125 -60.5625 Z M 4.125 -60.5625 " transform="matrix(0.0416667,0,0,0.0416667,25,12.5)"/>
<path style="fill-rule:nonzero;fill:rgb(58.039216%,38.039216%,78.823529%);fill-opacity:1;stroke-width:0.5905;stroke-linecap:butt;stroke-linejoin:miter;stroke:rgb(0%,0%,0%);stroke-opacity:1;stroke-miterlimit:4;" d="M -0.75 -68.71875 C -3.1875 -66.1875 -0.84375 -61.59375 1.40625 -59.90625 C 3.9375 -57.5625 18.1875 -42.5625 28.21875 -55.21875 C 20.15625 -55.40625 5.15625 -74.25 -0.75 -68.71875 Z M -0.75 -68.71875 " transform="matrix(0.0416667,0,0,0.0416667,25,12.5)"/>
<path style="fill-rule:nonzero;fill:rgb(58.039216%,38.039216%,78.823529%);fill-opacity:1;stroke-width:0.6276;stroke-linecap:butt;stroke-linejoin:miter;stroke:rgb(0%,0%,0%);stroke-opacity:1;stroke-miterlimit:4;" d="M -18.28125 -76.40625 C -13.21875 -80.25 -3.84375 -81.375 3.375 -77.625 C 9.46875 -74.625 19.59375 -62.53125 27.1875 -59.71875 C 21.84375 -58.78125 18.5625 -59.53125 15.1875 -61.21875 C 8.4375 -56.34375 6 -55.59375 -0.84375 -54.65625 C -10.40625 -53.25 -18.375 -55.6875 -21.09375 -60.75 C -24 -65.4375 -22.78125 -72.9375 -18.28125 -76.40625 Z M -18.28125 -76.40625 " transform="matrix(0.0416667,0,0,0.0416667,25,12.5)"/>
<path style="fill-rule:nonzero;fill:rgb(83.137255%,10.980392%,18.823529%);fill-opacity:1;stroke-width:2.5;stroke-linecap:butt;stroke-linejoin:miter;stroke:rgb(0%,0%,0%);stroke-opacity:1;stroke-miterlimit:4;" d="M 301.478734 323.152158 C 301.397754 314.849958 294.960118 307.861667 287.379817 308.108033 C 279.490905 307.810774 273.188236 314.659482 272.966004 322.971537 C 273.046984 331.273736 279.484619 338.262028 287.368133 338.005807 C 294.948434 337.75944 301.256502 331.464212 301.478734 323.152158 Z M 301.478734 323.152158 " transform="matrix(0.0128788,0.000229306,-0.00012562,0.00705538,21.028999,7.28372)"/>
<path style="fill-rule:nonzero;fill:rgb(98.823529%,81.960784%,8.627451%);fill-opacity:1;stroke-width:2.5;stroke-linecap:butt;stroke-linejoin:miter;stroke:rgb(0%,0%,0%);stroke-opacity:1;stroke-miterlimit:4;" d="M 227.921703 348.372916 C 227.851065 339.363825 217.536328 332.496446 204.648647 332.252844 C 191.636645 332.384996 181.241384 339.594883 181.436343 348.22822 C 181.171809 357.097527 191.821718 364.104691 204.374228 364.208509 C 217.386229 364.076357 227.781491 356.86647 227.921703 348.372916 Z M 227.921703 348.372916 " transform="matrix(0.0102413,-0.00380987,0.00338842,0.00913526,20.856438,7.654625)"/>
<path style=" stroke:none;fill-rule:nonzero;fill:rgb(0%,0%,0%);fill-opacity:1;" d="M 24.742188 9.621094 C 24.746094 9.589844 24.714844 9.566406 24.679688 9.566406 C 24.644531 9.5625 24.613281 9.589844 24.613281 9.621094 C 24.613281 9.652344 24.640625 9.679688 24.675781 9.679688 C 24.714844 9.679688 24.742188 9.652344 24.742188 9.621094 Z M 24.742188 9.621094 "/>
<path style="fill-rule:nonzero;fill:rgb(98.823529%,81.960784%,8.627451%);fill-opacity:1;stroke-width:0.7318;stroke-linecap:butt;stroke-linejoin:miter;stroke:rgb(0%,0%,0%);stroke-opacity:1;stroke-miterlimit:4;" d="M -17.15625 -65.53125 C -16.6875 -63.5625 -18.1875 -60.9375 -21.28125 -60 C -24.46875 -58.6875 -26.90625 -55.6875 -28.3125 -50.8125 C -33.1875 -61.96875 -30.09375 -66.65625 -24.9375 -67.875 C -20.53125 -69.28125 -17.8125 -69.09375 -17.15625 -65.53125 Z M -17.15625 -65.53125 " transform="matrix(0.0416667,0,0,0.0416667,25,12.5)"/>
<path style=" stroke:none;fill-rule:nonzero;fill:rgb(0%,0%,0%);fill-opacity:1;" d="M 24.136719 9.804688 C 24.136719 9.777344 24.113281 9.757812 24.089844 9.757812 C 24.0625 9.757812 24.042969 9.78125 24.042969 9.808594 C 24.046875 9.835938 24.066406 9.855469 24.09375 9.851562 C 24.121094 9.851562 24.140625 9.828125 24.136719 9.804688 Z M 24.136719 9.804688 "/>
</g>
</svg>
