<?xml version="1.0" encoding="UTF-8"?>
<svg xmlns="http://www.w3.org/2000/svg" xmlns:xlink="http://www.w3.org/1999/xlink" width="50pt" height="25pt" viewBox="0 0 50 25" version="1.1">
<g id="surface1">
<rect x="0" y="0" width="50" height="25" style="fill:rgb(86.27451%,14.117647%,12.156863%);fill-opacity:1;stroke:none;"/>
<path style=" stroke:none;fill-rule:nonzero;fill:rgb(100%,78.039216%,14.901961%);fill-opacity:1;" d="M 0 0 L 0 25 L 25 12.5 Z M 0 0 "/>
<path style=" stroke:none;fill-rule:nonzero;fill:rgb(0%,0%,0%);fill-opacity:1;" d="M 0 0 L 0 25 L 16.667969 12.5 Z M 0 0 "/>
<path style=" stroke:none;fill-rule:nonzero;fill:rgb(100%,100%,100%);fill-opacity:1;" d="M 4.292969 8.585938 L 4.945312 12.914062 L 7.003906 12.601562 Z M 4.292969 8.585938 "/>
<path style=" stroke:none;fill-rule:nonzero;fill:rgb(100%,100%,100%);fill-opacity:1;" d="M 4.292969 8.585938 L 7.363281 11.703125 L 5.878906 13.164062 Z M 4.292969 8.585938 "/>
<path style=" stroke:none;fill-rule:nonzero;fill:rgb(100%,100%,100%);fill-opacity:1;" d="M 9.367188 9.429688 L 5.453125 11.386719 L 6.386719 13.25 Z M 9.367188 9.429688 "/>
<path style=" stroke:none;fill-rule:nonzero;fill:rgb(100%,100%,100%);fill-opacity:1;" d="M 9.367188 9.429688 L 7.351562 13.3125 L 5.503906 12.351562 Z M 9.367188 9.429688 "/>
<path style=" stroke:none;fill-rule:nonzero;fill:rgb(100%,100%,100%);fill-opacity:1;" d="M 1.921875 13.152344 L 6.238281 13.867188 L 6.582031 11.8125 Z M 1.921875 13.152344 "/>
<path style=" stroke:none;fill-rule:nonzero;fill:rgb(100%,100%,100%);fill-opacity:1;" d="M 1.921875 13.152344 L 5.835938 11.195312 L 6.769531 13.058594 Z M 1.921875 13.152344 "/>
<path style=" stroke:none;fill-rule:nonzero;fill:rgb(100%,100%,100%);fill-opacity:1;" d="M 10.132812 14.515625 L 7.0625 11.398438 L 5.578125 12.859375 Z M 10.132812 14.515625 "/>
<path style=" stroke:none;fill-rule:nonzero;fill:rgb(100%,100%,100%);fill-opacity:1;" d="M 10.132812 14.515625 L 5.816406 13.796875 L 6.160156 11.742188 Z M 10.132812 14.515625 "/>
<path style=" stroke:none;fill-rule:nonzero;fill:rgb(100%,100%,100%);fill-opacity:1;" d="M 5.53125 16.816406 L 7.546875 12.933594 L 5.699219 11.972656 Z M 5.53125 16.816406 "/>
<path style=" stroke:none;fill-rule:nonzero;fill:rgb(100%,100%,100%);fill-opacity:1;" d="M 5.53125 16.816406 L 4.882812 12.488281 L 6.941406 12.179688 Z M 5.53125 16.816406 "/>
</g>
</svg>
