<?xml version="1.0" encoding="UTF-8"?>
<svg xmlns="http://www.w3.org/2000/svg" xmlns:xlink="http://www.w3.org/1999/xlink" width="38pt" height="25pt" viewBox="0 0 38 25" version="1.1">
<g id="surface1">
<rect x="0" y="0" width="38" height="25" style="fill:rgb(0%,0%,0%);fill-opacity:1;stroke:none;"/>
<path style=" stroke:none;fill-rule:nonzero;fill:rgb(100%,100%,100%);fill-opacity:1;" d="M 0 0 L 38 0 L 38 16.667969 L 0 16.667969 Z M 0 0 "/>
<path style=" stroke:none;fill-rule:nonzero;fill:rgb(80.784314%,6.666667%,14.901961%);fill-opacity:1;" d="M 0 0 L 38 0 L 38 8.332031 L 0 8.332031 Z M 0 0 "/>
<path style="fill-rule:nonzero;fill:rgb(100%,100%,100%);fill-opacity:1;stroke-width:1.2703;stroke-linecap:butt;stroke-linejoin:round;stroke:rgb(75.294118%,57.647059%,0%);stroke-opacity:1;stroke-miterlimit:4;" d="M 450.832648 302.4375 L 519.294819 366 L 514.391447 250.5 C 513.743832 232.96875 498.478618 237 487.469161 243.375 C 476.274671 250.5 463.507401 250.5 450 245.8125 C 436.492599 250.5 423.725329 250.5 412.530839 243.375 C 401.521382 237 386.348684 232.96875 385.608553 250.5 L 380.705181 366 Z M 450.832648 302.4375 " transform="matrix(0.0422222,0,0,0.0416667,0,0)"/>
<path style=" stroke:none;fill-rule:nonzero;fill:rgb(75.294118%,57.647059%,0%);fill-opacity:1;" d="M 16.613281 10.269531 L 16.414062 14.949219 L 16.074219 15.25 L 16.28125 10.4375 C 16.375 10.371094 16.546875 10.269531 16.613281 10.269531 Z M 16.613281 10.269531 "/>
<path style=" stroke:none;fill-rule:nonzero;fill:rgb(75.294118%,57.647059%,0%);fill-opacity:1;" d="M 17.019531 10.605469 L 16.851562 14.519531 L 16.511719 14.863281 L 16.714844 10.34375 C 16.78125 10.40625 16.984375 10.570312 17.019531 10.605469 Z M 17.019531 10.605469 "/>
<path style=" stroke:none;fill-rule:nonzero;fill:rgb(75.294118%,57.647059%,0%);fill-opacity:1;" d="M 17.390625 10.902344 L 17.253906 14.167969 L 16.984375 14.433594 L 17.152344 10.707031 C 17.21875 10.773438 17.351562 10.867188 17.390625 10.902344 Z M 17.390625 10.902344 "/>
<path style=" stroke:none;fill-rule:nonzero;fill:rgb(75.294118%,57.647059%,0%);fill-opacity:1;" d="M 17.789062 11.070312 L 17.65625 13.855469 L 17.390625 14.066406 L 17.523438 10.96875 C 17.589844 11 17.722656 11.070312 17.789062 11.070312 Z M 17.789062 11.070312 "/>
<path style=" stroke:none;fill-rule:nonzero;fill:rgb(75.294118%,57.647059%,0%);fill-opacity:1;" d="M 18.15625 11.070312 L 18.0625 13.390625 L 17.789062 13.652344 L 17.890625 11.101562 C 17.957031 11.101562 18.128906 11.101562 18.15625 11.070312 Z M 18.15625 11.070312 "/>
<path style=" stroke:none;fill-rule:nonzero;fill:rgb(75.294118%,57.647059%,0%);fill-opacity:1;" d="M 21.386719 10.269531 L 21.585938 14.949219 L 21.925781 15.25 L 21.71875 10.4375 C 21.625 10.371094 21.453125 10.269531 21.386719 10.269531 Z M 21.386719 10.269531 "/>
<path style=" stroke:none;fill-rule:nonzero;fill:rgb(75.294118%,57.647059%,0%);fill-opacity:1;" d="M 20.980469 10.605469 L 21.148438 14.519531 L 21.488281 14.863281 L 21.285156 10.34375 C 21.21875 10.40625 21.015625 10.570312 20.980469 10.605469 Z M 20.980469 10.605469 "/>
<path style=" stroke:none;fill-rule:nonzero;fill:rgb(75.294118%,57.647059%,0%);fill-opacity:1;" d="M 20.609375 10.902344 L 20.746094 14.167969 L 21.015625 14.433594 L 20.847656 10.707031 C 20.78125 10.773438 20.648438 10.867188 20.609375 10.902344 Z M 20.609375 10.902344 "/>
<path style=" stroke:none;fill-rule:nonzero;fill:rgb(75.294118%,57.647059%,0%);fill-opacity:1;" d="M 20.210938 11.070312 L 20.34375 13.855469 L 20.609375 14.066406 L 20.476562 10.96875 C 20.410156 11 20.277344 11.070312 20.210938 11.070312 Z M 20.210938 11.070312 "/>
<path style=" stroke:none;fill-rule:nonzero;fill:rgb(75.294118%,57.647059%,0%);fill-opacity:1;" d="M 19.84375 11.070312 L 19.9375 13.390625 L 20.210938 13.652344 L 20.109375 11.101562 C 20.042969 11.101562 19.871094 11.101562 19.84375 11.070312 Z M 19.84375 11.070312 "/>
<path style="fill-rule:nonzero;fill:rgb(75.294118%,57.647059%,0%);fill-opacity:1;stroke-width:1.0739;stroke-linecap:butt;stroke-linejoin:miter;stroke:rgb(75.294118%,57.647059%,0%);stroke-opacity:1;stroke-miterlimit:4;" d="M 453.145559 315.09375 L 462.76727 358.78125 L 459.621711 361.96875 L 456.291118 359.53125 L 450.832648 320.53125 L 453.145559 359.53125 L 450 363.5625 L 446.854441 359.53125 L 449.167352 320.53125 L 443.708882 359.53125 L 440.378289 361.96875 L 437.23273 358.78125 L 446.854441 315.09375 Z M 453.145559 315.09375 " transform="matrix(0.0422222,0,0,0.0416667,0,0)"/>
<path style="fill-rule:nonzero;fill:rgb(100%,100%,100%);fill-opacity:1;stroke-width:1.1888;stroke-linecap:butt;stroke-linejoin:round;stroke:rgb(75.294118%,57.647059%,0%);stroke-opacity:1;stroke-miterlimit:4;" d="M 428.443668 295.875 L 409.38528 363.5625 L 435.659951 367.59375 L 446.854441 316.59375 Z M 428.443668 295.875 " transform="matrix(0.0422222,0,0,0.0416667,0,0)"/>
<path style="fill:none;stroke-width:1.2705;stroke-linecap:butt;stroke-linejoin:round;stroke:rgb(75.294118%,57.647059%,0%);stroke-opacity:1;stroke-miterlimit:4;" d="M 422.152549 318.9375 L 424.465461 324.5625 L 436.862664 312.65625 " transform="matrix(0.0422222,0,0,0.0416667,0,0)"/>
<path style="fill:none;stroke-width:1.2705;stroke-linecap:butt;stroke-linejoin:round;stroke:rgb(75.294118%,57.647059%,0%);stroke-opacity:1;stroke-miterlimit:4;" d="M 430.756579 304.875 L 433.347039 329.25 L 441.210937 318.9375 " transform="matrix(0.0422222,0,0,0.0416667,0,0)"/>
<path style="fill:none;stroke-width:1.2705;stroke-linecap:butt;stroke-linejoin:round;stroke:rgb(75.294118%,57.647059%,0%);stroke-opacity:1;stroke-miterlimit:4;" d="M 438.065378 322.96875 L 442.413651 337.78125 " transform="matrix(0.0422222,0,0,0.0416667,0,0)"/>
<path style="fill:none;stroke-width:1.2705;stroke-linecap:butt;stroke-linejoin:round;stroke:rgb(75.294118%,57.647059%,0%);stroke-opacity:1;stroke-miterlimit:4;" d="M 444.078947 332.34375 L 435.382401 345.5625 M 438.065378 358.78125 L 435.289885 345.65625 L 432.884457 332.15625 L 427.055921 340.125 L 424.465461 331.03125 L 416.324013 339.375 L 420.487253 354.65625 L 426.223273 345.1875 L 429.368832 354.84375 L 435.197368 345.65625 " transform="matrix(0.0422222,0,0,0.0416667,0,0)"/>
<path style="fill:none;stroke-width:1.2705;stroke-linecap:butt;stroke-linejoin:round;stroke:rgb(75.294118%,57.647059%,0%);stroke-opacity:1;stroke-miterlimit:4;" d="M 415.028783 361.96875 L 420.30222 354.5625 L 423.725329 366 L 428.443668 357.9375 L 431.589227 367.59375 " transform="matrix(0.0422222,0,0,0.0416667,0,0)"/>
<path style="fill-rule:nonzero;fill:rgb(100%,100%,100%);fill-opacity:1;stroke-width:1.1888;stroke-linecap:butt;stroke-linejoin:round;stroke:rgb(75.294118%,57.647059%,0%);stroke-opacity:1;stroke-miterlimit:4;" d="M 428.443668 295.875 L 409.38528 363.5625 L 435.659951 367.59375 L 446.854441 316.59375 Z M 428.443668 295.875 " transform="matrix(-0.0422222,0,0,0.0416667,38,0)"/>
<path style="fill:none;stroke-width:1.2705;stroke-linecap:butt;stroke-linejoin:round;stroke:rgb(75.294118%,57.647059%,0%);stroke-opacity:1;stroke-miterlimit:4;" d="M 422.152549 318.9375 L 424.465461 324.5625 L 436.862664 312.65625 " transform="matrix(-0.0422222,0,0,0.0416667,38,0)"/>
<path style="fill:none;stroke-width:1.2705;stroke-linecap:butt;stroke-linejoin:round;stroke:rgb(75.294118%,57.647059%,0%);stroke-opacity:1;stroke-miterlimit:4;" d="M 430.756579 304.875 L 433.347039 329.25 L 441.210938 318.9375 " transform="matrix(-0.0422222,0,0,0.0416667,38,0)"/>
<path style="fill:none;stroke-width:1.2705;stroke-linecap:butt;stroke-linejoin:round;stroke:rgb(75.294118%,57.647059%,0%);stroke-opacity:1;stroke-miterlimit:4;" d="M 438.065378 322.96875 L 442.413651 337.78125 " transform="matrix(-0.0422222,0,0,0.0416667,38,0)"/>
<path style="fill:none;stroke-width:1.2705;stroke-linecap:butt;stroke-linejoin:round;stroke:rgb(75.294118%,57.647059%,0%);stroke-opacity:1;stroke-miterlimit:4;" d="M 444.078947 332.34375 L 435.382401 345.5625 M 438.065378 358.78125 L 435.289885 345.65625 L 432.884457 332.15625 L 427.055921 340.125 L 424.465461 331.03125 L 416.324013 339.375 L 420.487253 354.65625 L 426.223273 345.1875 L 429.368832 354.84375 L 435.197368 345.65625 " transform="matrix(-0.0422222,0,0,0.0416667,38,0)"/>
<path style="fill:none;stroke-width:1.2705;stroke-linecap:butt;stroke-linejoin:round;stroke:rgb(75.294118%,57.647059%,0%);stroke-opacity:1;stroke-miterlimit:4;" d="M 415.028783 361.96875 L 420.30222 354.5625 L 423.725329 366 L 428.443668 357.9375 L 431.589227 367.59375 " transform="matrix(-0.0422222,0,0,0.0416667,38,0)"/>
<path style="fill-rule:nonzero;fill:rgb(100%,100%,100%);fill-opacity:1;stroke-width:2.3777;stroke-linecap:round;stroke-linejoin:round;stroke:rgb(75.294118%,57.647059%,0%);stroke-opacity:1;stroke-miterlimit:4;" d="M 450 393.84375 C 469.983553 393.84375 489.041941 392.25 500.236431 389.0625 C 504.95477 388.21875 504.95477 385.78125 504.95477 382.59375 C 509.673109 381 507.267681 375.46875 510.505757 375.46875 C 507.267681 376.3125 506.527549 369.84375 502.549342 370.6875 C 502.549342 365.15625 496.905839 364.40625 492.1875 366 C 482.750822 369.09375 465.912829 369.84375 450 369.84375 C 434.087171 369.09375 417.434211 369.09375 407.8125 366 C 403.094161 364.40625 397.450658 365.15625 397.450658 370.6875 C 393.472451 369.84375 392.732319 376.3125 389.494243 375.46875 C 392.732319 375.46875 390.326891 381 395.04523 382.59375 C 395.04523 385.78125 395.04523 388.21875 399.948602 389.0625 C 410.958059 392.25 430.016447 393.84375 450 393.84375 Z M 450 393.84375 " transform="matrix(0.0422222,0,0,0.0416667,0,0)"/>
<path style="fill-rule:nonzero;fill:rgb(100%,100%,100%);fill-opacity:1;stroke-width:1.2705;stroke-linecap:round;stroke-linejoin:round;stroke:rgb(75.294118%,57.647059%,0%);stroke-opacity:1;stroke-miterlimit:4;" d="M 422.892681 363.5625 C 429.368832 364.40625 436.492599 365.15625 442.136102 364.40625 C 445.281661 364.40625 447.594572 369.84375 441.210937 370.6875 C 435.659951 371.4375 426.870888 370.6875 422.152549 369.84375 C 418.174342 369.09375 409.38528 367.59375 403.834293 366 C 398.190789 363.5625 402.261513 358.78125 405.407072 359.53125 C 410.310444 361.125 416.601562 362.71875 422.892681 363.5625 Z M 422.892681 363.5625 " transform="matrix(0.0422222,0,0,0.0416667,0,0)"/>
<path style="fill-rule:nonzero;fill:rgb(100%,100%,100%);fill-opacity:1;stroke-width:1.2705;stroke-linecap:round;stroke-linejoin:round;stroke:rgb(75.294118%,57.647059%,0%);stroke-opacity:1;stroke-miterlimit:4;" d="M 477.107319 363.5625 C 470.631168 364.40625 463.507401 365.15625 458.048931 364.40625 C 454.718339 364.40625 452.405428 369.84375 458.789062 370.6875 C 464.340049 371.4375 473.129112 370.6875 477.847451 369.84375 C 481.825658 369.09375 490.61472 367.59375 496.165707 366 C 501.809211 363.5625 497.738487 358.78125 494.592928 359.53125 C 489.782072 361.125 483.398437 362.71875 477.107319 363.5625 Z M 477.107319 363.5625 " transform="matrix(0.0422222,0,0,0.0416667,0,0)"/>
<path style="fill-rule:nonzero;fill:rgb(100%,100%,100%);fill-opacity:1;stroke-width:1.2705;stroke-linecap:round;stroke-linejoin:round;stroke:rgb(75.294118%,57.647059%,0%);stroke-opacity:1;stroke-miterlimit:4;" d="M 403.094161 360.375 C 398.190789 359.53125 395.877878 365.15625 397.543174 368.25 C 398.190789 366.65625 401.521382 366.65625 402.261513 365.15625 C 403.094161 362.71875 401.521382 362.71875 403.094161 360.375 Z M 403.094161 360.375 " transform="matrix(0.0422222,0,0,0.0416667,0,0)"/>
<path style="fill-rule:nonzero;fill:rgb(100%,100%,100%);fill-opacity:1;stroke-width:1.2705;stroke-linecap:round;stroke-linejoin:round;stroke:rgb(75.294118%,57.647059%,0%);stroke-opacity:1;stroke-miterlimit:4;" d="M 422.152549 375.09375 C 422.152549 371.90625 425.298109 372.28125 425.298109 369.09375 C 425.298109 367.59375 424.465461 365.15625 422.892681 365.15625 C 421.319901 365.15625 419.747122 366.65625 419.747122 368.25 C 419.00699 371.4375 422.152549 371.90625 422.152549 375.09375 Z M 422.152549 375.09375 " transform="matrix(0.0422222,0,0,0.0416667,0,0)"/>
<path style="fill-rule:nonzero;fill:rgb(100%,100%,100%);fill-opacity:1;stroke-width:1.2705;stroke-linecap:round;stroke-linejoin:round;stroke:rgb(75.294118%,57.647059%,0%);stroke-opacity:1;stroke-miterlimit:4;" d="M 444.911595 366 C 449.629934 366 449.167352 372.28125 446.854441 375.46875 C 446.854441 373.125 442.783717 372.28125 442.783717 370.6875 C 442.783717 368.25 446.484375 368.25 444.911595 366 Z M 444.911595 366 " transform="matrix(0.0422222,0,0,0.0416667,0,0)"/>
<path style="fill-rule:nonzero;fill:rgb(100%,100%,100%);fill-opacity:1;stroke-width:1.2705;stroke-linecap:round;stroke-linejoin:round;stroke:rgb(75.294118%,57.647059%,0%);stroke-opacity:1;stroke-miterlimit:4;" d="M 496.905839 360.375 C 501.809211 359.53125 504.122122 365.15625 502.549342 368.25 C 501.809211 366.65625 498.478618 366.65625 497.738487 365.15625 C 496.905839 362.71875 498.478618 362.71875 496.905839 360.375 Z M 496.905839 360.375 " transform="matrix(0.0422222,0,0,0.0416667,0,0)"/>
<path style="fill-rule:nonzero;fill:rgb(100%,100%,100%);fill-opacity:1;stroke-width:1.2705;stroke-linecap:round;stroke-linejoin:round;stroke:rgb(75.294118%,57.647059%,0%);stroke-opacity:1;stroke-miterlimit:4;" d="M 477.847451 375.09375 C 477.847451 371.90625 474.701891 372.28125 474.701891 369.09375 C 474.701891 367.59375 475.534539 365.15625 477.107319 365.15625 C 478.680099 365.15625 480.252878 366.65625 480.252878 368.25 C 480.99301 371.4375 477.847451 371.90625 477.847451 375.09375 Z M 477.847451 375.09375 " transform="matrix(0.0422222,0,0,0.0416667,0,0)"/>
<path style="fill-rule:nonzero;fill:rgb(100%,100%,100%);fill-opacity:1;stroke-width:1.2705;stroke-linecap:round;stroke-linejoin:round;stroke:rgb(75.294118%,57.647059%,0%);stroke-opacity:1;stroke-miterlimit:4;" d="M 455.088405 366 C 450.370066 366 450.832648 372.28125 453.145559 375.46875 C 453.145559 373.125 457.123766 372.28125 457.123766 370.6875 C 457.123766 368.25 453.515625 368.25 455.088405 366 Z M 455.088405 366 " transform="matrix(0.0422222,0,0,0.0416667,0,0)"/>
<path style="fill-rule:nonzero;fill:rgb(100%,100%,100%);fill-opacity:1;stroke-width:0.8915;stroke-linecap:round;stroke-linejoin:round;stroke:rgb(75.294118%,57.647059%,0%);stroke-opacity:1;stroke-miterlimit:4;" d="M 404.666941 361.96875 C 406.23972 361.96875 408.645148 362.71875 409.38528 363.5625 Z M 404.666941 361.96875 " transform="matrix(0.0422222,0,0,0.0416667,0,0)"/>
<path style="fill-rule:nonzero;fill:rgb(100%,100%,100%);fill-opacity:1;stroke-width:0.8915;stroke-linecap:round;stroke-linejoin:round;stroke:rgb(75.294118%,57.647059%,0%);stroke-opacity:1;stroke-miterlimit:4;" d="M 412.530839 364.40625 C 413.456003 364.40625 416.601562 365.15625 418.174342 366 Z M 412.530839 364.40625 " transform="matrix(0.0422222,0,0,0.0416667,0,0)"/>
<path style="fill-rule:nonzero;fill:rgb(100%,100%,100%);fill-opacity:1;stroke-width:0.8915;stroke-linecap:round;stroke-linejoin:round;stroke:rgb(75.294118%,57.647059%,0%);stroke-opacity:1;stroke-miterlimit:4;" d="M 441.210937 367.59375 C 439.638158 367.59375 436.492599 367.59375 435.659951 368.25 Z M 441.210937 367.59375 " transform="matrix(0.0422222,0,0,0.0416667,0,0)"/>
<path style="fill-rule:nonzero;fill:rgb(100%,100%,100%);fill-opacity:1;stroke-width:0.8915;stroke-linecap:round;stroke-linejoin:round;stroke:rgb(75.294118%,57.647059%,0%);stroke-opacity:1;stroke-miterlimit:4;" d="M 432.514391 367.59375 C 431.681743 366.65625 428.443668 366.65625 426.870888 367.59375 Z M 432.514391 367.59375 " transform="matrix(0.0422222,0,0,0.0416667,0,0)"/>
<path style="fill-rule:nonzero;fill:rgb(100%,100%,100%);fill-opacity:1;stroke-width:0.8915;stroke-linecap:round;stroke-linejoin:round;stroke:rgb(75.294118%,57.647059%,0%);stroke-opacity:1;stroke-miterlimit:4;" d="M 495.333059 361.96875 C 493.76028 361.96875 491.447368 362.71875 490.61472 363.5625 Z M 495.333059 361.96875 " transform="matrix(0.0422222,0,0,0.0416667,0,0)"/>
<path style="fill-rule:nonzero;fill:rgb(100%,100%,100%);fill-opacity:1;stroke-width:0.8915;stroke-linecap:round;stroke-linejoin:round;stroke:rgb(75.294118%,57.647059%,0%);stroke-opacity:1;stroke-miterlimit:4;" d="M 487.469161 364.40625 C 486.543997 364.40625 483.398437 365.15625 481.825658 366 Z M 487.469161 364.40625 " transform="matrix(0.0422222,0,0,0.0416667,0,0)"/>
<path style="fill-rule:nonzero;fill:rgb(100%,100%,100%);fill-opacity:1;stroke-width:0.8915;stroke-linecap:round;stroke-linejoin:round;stroke:rgb(75.294118%,57.647059%,0%);stroke-opacity:1;stroke-miterlimit:4;" d="M 458.789062 367.59375 C 460.361842 367.59375 463.507401 367.59375 464.340049 368.25 Z M 458.789062 367.59375 " transform="matrix(0.0422222,0,0,0.0416667,0,0)"/>
<path style="fill-rule:nonzero;fill:rgb(100%,100%,100%);fill-opacity:1;stroke-width:0.8915;stroke-linecap:round;stroke-linejoin:round;stroke:rgb(75.294118%,57.647059%,0%);stroke-opacity:1;stroke-miterlimit:4;" d="M 467.485609 367.59375 C 468.318257 366.65625 471.556332 366.65625 473.129112 367.59375 Z M 467.485609 367.59375 " transform="matrix(0.0422222,0,0,0.0416667,0,0)"/>
<path style=" stroke:none;fill-rule:nonzero;fill:rgb(75.294118%,57.647059%,0%);fill-opacity:1;" d="M 17.03125 15.609375 C 17.007812 15.601562 16.996094 15.585938 17 15.566406 C 17.007812 15.539062 17.027344 15.523438 17.046875 15.53125 C 17.0625 15.535156 17.082031 15.558594 17.082031 15.566406 C 17.082031 15.574219 17.070312 15.597656 17.066406 15.597656 C 17.0625 15.597656 17.0625 15.601562 17.058594 15.601562 C 17.054688 15.605469 17.042969 15.609375 17.03125 15.609375 Z M 17.03125 15.609375 "/>
<path style=" stroke:none;fill-rule:nonzero;fill:rgb(75.294118%,57.647059%,0%);fill-opacity:1;" d="M 19.347656 15.769531 C 19.339844 15.769531 19.328125 15.75 19.328125 15.742188 C 19.328125 15.722656 19.351562 15.699219 19.367188 15.699219 C 19.375 15.699219 19.394531 15.707031 19.402344 15.714844 C 19.414062 15.730469 19.414062 15.753906 19.394531 15.765625 C 19.386719 15.773438 19.363281 15.773438 19.347656 15.769531 Z M 19.347656 15.769531 "/>
<path style=" stroke:none;fill-rule:nonzero;fill:rgb(75.294118%,57.647059%,0%);fill-opacity:1;" d="M 19.363281 15.875 C 19.347656 15.867188 19.339844 15.859375 19.339844 15.839844 C 19.335938 15.820312 19.339844 15.816406 19.359375 15.804688 L 19.375 15.796875 L 19.390625 15.804688 C 19.410156 15.8125 19.421875 15.820312 19.421875 15.835938 C 19.421875 15.851562 19.410156 15.863281 19.394531 15.871094 C 19.378906 15.878906 19.378906 15.878906 19.363281 15.875 Z M 19.363281 15.875 "/>
<path style=" stroke:none;fill-rule:nonzero;fill:rgb(75.294118%,57.647059%,0%);fill-opacity:1;" d="M 17.214844 15.421875 C 17.203125 15.421875 17.179688 15.433594 17.171875 15.441406 C 17.140625 15.445312 17.109375 15.464844 17.085938 15.445312 C 17.058594 15.4375 17.023438 15.445312 17.019531 15.476562 C 17.027344 15.503906 17.066406 15.519531 17.089844 15.5 C 17.105469 15.476562 17.152344 15.464844 17.15625 15.503906 C 17.140625 15.53125 17.140625 15.570312 17.125 15.601562 C 17.121094 15.621094 17.113281 15.636719 17.105469 15.652344 C 17.085938 15.65625 17.0625 15.652344 17.046875 15.664062 C 17.019531 15.667969 16.992188 15.679688 16.980469 15.703125 C 16.960938 15.726562 16.945312 15.75 16.941406 15.78125 C 16.945312 15.808594 16.980469 15.820312 17.007812 15.820312 C 17.035156 15.828125 17.0625 15.835938 17.089844 15.847656 C 17.136719 15.855469 17.179688 15.871094 17.226562 15.882812 C 17.292969 15.902344 17.363281 15.910156 17.429688 15.929688 C 17.4375 15.933594 17.445312 15.933594 17.449219 15.933594 C 17.480469 15.941406 17.492188 15.910156 17.496094 15.886719 C 17.507812 15.839844 17.519531 15.789062 17.535156 15.742188 C 17.542969 15.722656 17.554688 15.679688 17.515625 15.6875 C 17.496094 15.703125 17.476562 15.722656 17.449219 15.722656 C 17.414062 15.726562 17.433594 15.761719 17.449219 15.777344 C 17.453125 15.800781 17.445312 15.832031 17.425781 15.851562 C 17.40625 15.863281 17.378906 15.847656 17.355469 15.84375 C 17.332031 15.84375 17.28125 15.832031 17.304688 15.796875 C 17.3125 15.773438 17.3125 15.746094 17.324219 15.722656 C 17.335938 15.699219 17.335938 15.671875 17.34375 15.644531 C 17.328125 15.609375 17.300781 15.652344 17.28125 15.65625 C 17.265625 15.667969 17.214844 15.671875 17.242188 15.695312 C 17.265625 15.714844 17.246094 15.746094 17.242188 15.769531 C 17.242188 15.800781 17.207031 15.808594 17.179688 15.800781 C 17.152344 15.800781 17.117188 15.78125 17.140625 15.753906 C 17.144531 15.726562 17.152344 15.703125 17.15625 15.679688 C 17.167969 15.652344 17.175781 15.625 17.1875 15.59375 C 17.191406 15.570312 17.199219 15.542969 17.214844 15.523438 C 17.214844 15.492188 17.234375 15.46875 17.234375 15.441406 C 17.230469 15.425781 17.226562 15.421875 17.214844 15.421875 Z M 17.0625 15.722656 C 17.066406 15.722656 17.070312 15.722656 17.074219 15.722656 C 17.085938 15.726562 17.085938 15.738281 17.074219 15.746094 C 17.070312 15.75 17.0625 15.753906 17.0625 15.753906 C 17.042969 15.753906 17.035156 15.75 17.035156 15.742188 C 17.035156 15.734375 17.035156 15.734375 17.050781 15.726562 C 17.054688 15.726562 17.0625 15.722656 17.0625 15.722656 Z M 17.0625 15.722656 "/>
<path style=" stroke:none;fill-rule:nonzero;fill:rgb(75.294118%,57.647059%,0%);fill-opacity:1;" d="M 17.019531 15.933594 C 17 15.914062 17.003906 15.898438 17.035156 15.875 C 17.046875 15.867188 17.054688 15.867188 17.070312 15.878906 C 17.09375 15.902344 17.09375 15.914062 17.074219 15.933594 C 17.0625 15.941406 17.058594 15.941406 17.046875 15.945312 C 17.035156 15.945312 17.03125 15.941406 17.019531 15.933594 Z M 17.019531 15.933594 "/>
<path style=" stroke:none;fill-rule:nonzero;fill:rgb(75.294118%,57.647059%,0%);fill-opacity:1;" d="M 17.148438 15.96875 C 17.128906 15.964844 17.117188 15.945312 17.125 15.925781 C 17.128906 15.90625 17.132812 15.90625 17.160156 15.90625 C 17.1875 15.902344 17.195312 15.910156 17.195312 15.933594 C 17.195312 15.949219 17.195312 15.953125 17.1875 15.960938 C 17.179688 15.96875 17.160156 15.972656 17.148438 15.96875 Z M 17.148438 15.96875 "/>
<path style=" stroke:none;fill-rule:nonzero;fill:rgb(75.294118%,57.647059%,0%);fill-opacity:1;" d="M 20.910156 15.972656 C 20.902344 15.964844 20.898438 15.960938 20.898438 15.953125 C 20.898438 15.933594 20.910156 15.921875 20.933594 15.914062 C 20.960938 15.898438 20.972656 15.902344 20.984375 15.921875 C 20.996094 15.945312 20.996094 15.957031 20.980469 15.972656 C 20.96875 15.980469 20.96875 15.980469 20.945312 15.984375 C 20.925781 15.984375 20.921875 15.980469 20.910156 15.972656 Z M 20.910156 15.972656 "/>
<path style=" stroke:none;fill-rule:nonzero;fill:rgb(75.294118%,57.647059%,0%);fill-opacity:1;" d="M 17.320312 16.019531 C 17.304688 16.015625 17.296875 16.003906 17.296875 15.988281 C 17.296875 15.972656 17.296875 15.972656 17.308594 15.964844 C 17.3125 15.957031 17.324219 15.953125 17.332031 15.953125 C 17.34375 15.953125 17.347656 15.953125 17.355469 15.960938 C 17.378906 15.976562 17.382812 15.992188 17.371094 16.007812 C 17.355469 16.023438 17.34375 16.027344 17.320312 16.019531 Z M 17.320312 16.019531 "/>
<path style=" stroke:none;fill-rule:nonzero;fill:rgb(75.294118%,57.647059%,0%);fill-opacity:1;" d="M 18.246094 16.0625 C 18.242188 16.058594 18.234375 16.054688 18.234375 16.050781 C 18.234375 16.027344 18.238281 16.003906 18.242188 15.980469 C 18.25 15.960938 18.246094 15.9375 18.253906 15.914062 C 18.261719 15.878906 18.261719 15.835938 18.269531 15.800781 C 18.269531 15.777344 18.273438 15.757812 18.277344 15.742188 C 18.285156 15.710938 18.277344 15.679688 18.285156 15.648438 C 18.285156 15.636719 18.300781 15.609375 18.308594 15.625 C 18.328125 15.648438 18.347656 15.667969 18.371094 15.6875 C 18.390625 15.699219 18.371094 15.714844 18.359375 15.71875 C 18.339844 15.726562 18.335938 15.746094 18.339844 15.761719 C 18.335938 15.78125 18.328125 15.796875 18.328125 15.8125 C 18.324219 15.839844 18.324219 15.867188 18.320312 15.890625 C 18.3125 15.917969 18.316406 15.945312 18.316406 15.972656 C 18.316406 15.988281 18.308594 16.003906 18.308594 16.019531 C 18.304688 16.035156 18.304688 16.054688 18.289062 16.066406 C 18.277344 16.074219 18.257812 16.074219 18.246094 16.0625 Z M 18.246094 16.0625 "/>
<path style=" stroke:none;fill-rule:nonzero;fill:rgb(75.294118%,57.647059%,0%);fill-opacity:1;" d="M 19.5 15.652344 C 19.480469 15.667969 19.460938 15.6875 19.441406 15.703125 C 19.417969 15.722656 19.464844 15.734375 19.46875 15.75 C 19.476562 15.773438 19.476562 15.800781 19.476562 15.824219 C 19.484375 15.847656 19.488281 15.875 19.488281 15.898438 C 19.484375 15.921875 19.449219 15.917969 19.433594 15.933594 C 19.414062 15.941406 19.40625 15.960938 19.390625 15.976562 C 19.378906 15.996094 19.378906 16.019531 19.375 16.042969 C 19.378906 16.0625 19.363281 16.082031 19.375 16.097656 C 19.378906 16.101562 19.378906 16.105469 19.382812 16.105469 C 19.386719 16.113281 19.394531 16.109375 19.402344 16.109375 C 19.421875 16.109375 19.445312 16.113281 19.464844 16.101562 C 19.515625 16.09375 19.566406 16.09375 19.621094 16.089844 C 19.652344 16.09375 19.683594 16.082031 19.714844 16.082031 C 19.738281 16.085938 19.75 16.0625 19.75 16.042969 C 19.734375 16.015625 19.746094 15.980469 19.734375 15.953125 C 19.726562 15.925781 19.730469 15.894531 19.726562 15.867188 C 19.726562 15.84375 19.695312 15.835938 19.679688 15.851562 C 19.667969 15.867188 19.644531 15.867188 19.632812 15.886719 C 19.621094 15.910156 19.660156 15.910156 19.664062 15.929688 C 19.671875 15.949219 19.667969 15.972656 19.671875 15.992188 C 19.675781 16.015625 19.648438 16.019531 19.632812 16.019531 C 19.609375 16.03125 19.578125 16.035156 19.566406 16.007812 C 19.554688 15.988281 19.558594 15.964844 19.554688 15.945312 C 19.554688 15.910156 19.546875 15.871094 19.542969 15.835938 C 19.542969 15.789062 19.535156 15.742188 19.53125 15.699219 C 19.53125 15.679688 19.527344 15.648438 19.5 15.652344 Z M 19.472656 15.996094 L 19.488281 16 L 19.488281 16.03125 L 19.472656 16.035156 C 19.464844 16.039062 19.457031 16.039062 19.453125 16.039062 C 19.453125 16.039062 19.453125 16.035156 19.445312 16.035156 C 19.4375 16.027344 19.441406 16.019531 19.453125 16.003906 C 19.460938 16 19.460938 15.996094 19.472656 15.996094 Z M 19.472656 15.996094 "/>
<path style=" stroke:none;fill-rule:nonzero;fill:rgb(75.294118%,57.647059%,0%);fill-opacity:1;" d="M 18.207031 15.609375 C 18.191406 15.617188 18.171875 15.640625 18.15625 15.640625 C 18.117188 15.640625 18.125 15.679688 18.148438 15.691406 C 18.152344 15.699219 18.152344 15.714844 18.152344 15.726562 C 18.15625 15.757812 18.136719 15.785156 18.140625 15.820312 C 18.136719 15.855469 18.125 15.890625 18.125 15.925781 C 18.113281 15.964844 18.113281 16.003906 18.109375 16.042969 C 18.105469 16.074219 18.078125 16.0625 18.054688 16.054688 C 18.054688 16.039062 18.054688 16.027344 18.054688 16.011719 C 18.0625 15.976562 18.035156 15.964844 18.007812 15.960938 C 17.980469 15.964844 17.964844 15.941406 17.972656 15.914062 C 17.984375 15.902344 18.015625 15.90625 18.035156 15.902344 C 18.078125 15.910156 18.074219 15.855469 18.054688 15.835938 C 18.039062 15.8125 18.003906 15.800781 17.992188 15.773438 C 17.996094 15.734375 17.972656 15.699219 17.941406 15.683594 C 17.898438 15.679688 17.863281 15.71875 17.84375 15.757812 C 17.828125 15.761719 17.808594 15.769531 17.789062 15.773438 C 17.757812 15.78125 17.714844 15.832031 17.757812 15.851562 C 17.78125 15.859375 17.851562 15.875 17.820312 15.90625 C 17.800781 15.9375 17.769531 15.9375 17.738281 15.929688 C 17.707031 15.929688 17.675781 15.914062 17.675781 15.878906 C 17.667969 15.847656 17.671875 15.8125 17.65625 15.785156 C 17.648438 15.75 17.609375 15.757812 17.605469 15.789062 C 17.574219 15.8125 17.578125 15.847656 17.601562 15.875 C 17.613281 15.90625 17.601562 15.941406 17.589844 15.96875 C 17.582031 16.003906 17.539062 16.007812 17.511719 16.019531 C 17.496094 16.023438 17.441406 16.015625 17.460938 16.046875 C 17.492188 16.058594 17.53125 16.066406 17.5625 16.058594 C 17.597656 16.054688 17.628906 16.03125 17.644531 16 C 17.667969 15.976562 17.710938 15.992188 17.738281 15.988281 C 17.773438 15.988281 17.804688 16.011719 17.835938 15.996094 C 17.847656 15.972656 17.890625 15.933594 17.902344 15.976562 C 17.898438 16.011719 17.933594 16.03125 17.964844 16.027344 C 18.003906 16.023438 17.988281 16.050781 17.988281 16.074219 C 17.992188 16.113281 18.015625 16.132812 18.046875 16.148438 C 18.058594 16.152344 18.070312 16.152344 18.082031 16.148438 C 18.113281 16.140625 18.148438 16.125 18.15625 16.089844 C 18.171875 16.0625 18.171875 16.03125 18.179688 16 C 18.1875 15.953125 18.199219 15.90625 18.199219 15.859375 C 18.210938 15.816406 18.207031 15.769531 18.214844 15.726562 C 18.222656 15.691406 18.226562 15.660156 18.230469 15.628906 C 18.226562 15.609375 18.21875 15.609375 18.207031 15.609375 Z M 17.921875 15.785156 C 17.929688 15.785156 17.933594 15.792969 17.933594 15.804688 C 17.933594 15.820312 17.941406 15.832031 17.949219 15.835938 C 17.957031 15.839844 17.957031 15.847656 17.949219 15.851562 C 17.945312 15.855469 17.9375 15.855469 17.921875 15.855469 C 17.894531 15.855469 17.882812 15.851562 17.867188 15.835938 L 17.859375 15.828125 L 17.871094 15.820312 C 17.878906 15.816406 17.890625 15.808594 17.894531 15.800781 C 17.90625 15.789062 17.914062 15.785156 17.921875 15.785156 Z M 17.921875 15.785156 "/>
<path style=" stroke:none;fill-rule:nonzero;fill:rgb(75.294118%,57.647059%,0%);fill-opacity:1;" d="M 20.710938 15.457031 C 20.6875 15.457031 20.660156 15.460938 20.640625 15.464844 C 20.597656 15.464844 20.574219 15.507812 20.617188 15.53125 C 20.640625 15.59375 20.679688 15.519531 20.722656 15.523438 C 20.78125 15.535156 20.789062 15.601562 20.796875 15.648438 C 20.800781 15.695312 20.816406 15.742188 20.828125 15.789062 C 20.871094 15.832031 20.796875 15.863281 20.769531 15.828125 C 20.742188 15.800781 20.6875 15.765625 20.65625 15.804688 C 20.617188 15.820312 20.617188 15.871094 20.585938 15.882812 C 20.535156 15.898438 20.527344 15.835938 20.5 15.8125 C 20.476562 15.777344 20.429688 15.773438 20.390625 15.761719 C 20.371094 15.726562 20.378906 15.664062 20.34375 15.640625 C 20.3125 15.652344 20.253906 15.710938 20.300781 15.738281 C 20.347656 15.777344 20.28125 15.796875 20.261719 15.824219 C 20.230469 15.855469 20.222656 15.902344 20.21875 15.945312 C 20.164062 15.976562 20.15625 15.914062 20.148438 15.875 C 20.144531 15.828125 20.105469 15.84375 20.078125 15.859375 C 20.039062 15.875 20.019531 15.914062 19.988281 15.941406 C 19.984375 15.96875 19.992188 16 19.992188 16.027344 C 20 16.0625 20.042969 16.046875 20.066406 16.042969 C 20.109375 16.027344 20.125 16.070312 20.09375 16.09375 C 20.070312 16.121094 20 16.105469 20.003906 16.152344 C 20.027344 16.15625 20.050781 16.152344 20.074219 16.152344 C 20.121094 16.140625 20.171875 16.109375 20.175781 16.058594 C 20.183594 16.011719 20.246094 16.019531 20.28125 16.011719 C 20.324219 16 20.378906 15.996094 20.386719 16.050781 C 20.417969 16.082031 20.484375 16.117188 20.515625 16.074219 C 20.550781 16.054688 20.566406 16.019531 20.5625 15.980469 C 20.558594 15.949219 20.617188 15.945312 20.632812 15.964844 C 20.652344 16 20.722656 15.988281 20.757812 15.96875 C 20.792969 15.945312 20.800781 15.898438 20.851562 15.898438 C 20.925781 15.875 21.003906 15.863281 21.078125 15.835938 C 21.136719 15.824219 21.066406 15.785156 21.054688 15.765625 C 21.007812 15.742188 20.96875 15.832031 20.917969 15.789062 C 20.878906 15.757812 20.878906 15.703125 20.867188 15.65625 C 20.855469 15.601562 20.859375 15.535156 20.816406 15.492188 C 20.789062 15.460938 20.75 15.453125 20.710938 15.457031 Z M 20.421875 15.851562 C 20.425781 15.851562 20.433594 15.851562 20.445312 15.859375 C 20.460938 15.867188 20.476562 15.886719 20.476562 15.898438 C 20.476562 15.90625 20.472656 15.90625 20.460938 15.914062 C 20.449219 15.917969 20.441406 15.921875 20.4375 15.921875 C 20.429688 15.921875 20.410156 15.90625 20.410156 15.902344 C 20.410156 15.898438 20.410156 15.890625 20.40625 15.882812 C 20.402344 15.867188 20.402344 15.867188 20.410156 15.859375 C 20.414062 15.855469 20.417969 15.851562 20.421875 15.851562 Z M 20.699219 15.863281 C 20.714844 15.863281 20.722656 15.867188 20.730469 15.878906 C 20.738281 15.894531 20.730469 15.90625 20.710938 15.914062 C 20.703125 15.917969 20.695312 15.917969 20.695312 15.917969 C 20.691406 15.917969 20.6875 15.914062 20.679688 15.910156 C 20.667969 15.902344 20.664062 15.898438 20.664062 15.890625 C 20.664062 15.878906 20.679688 15.867188 20.699219 15.863281 Z M 20.320312 15.867188 C 20.324219 15.867188 20.328125 15.871094 20.335938 15.875 C 20.34375 15.882812 20.34375 15.886719 20.347656 15.898438 C 20.347656 15.910156 20.347656 15.921875 20.347656 15.925781 C 20.34375 15.933594 20.34375 15.933594 20.324219 15.933594 C 20.296875 15.933594 20.292969 15.933594 20.292969 15.90625 C 20.292969 15.890625 20.292969 15.886719 20.304688 15.878906 C 20.308594 15.871094 20.316406 15.871094 20.320312 15.867188 Z M 20.089844 15.929688 C 20.097656 15.929688 20.105469 15.9375 20.105469 15.945312 C 20.109375 15.960938 20.105469 15.964844 20.097656 15.972656 C 20.085938 15.976562 20.066406 15.976562 20.058594 15.972656 C 20.058594 15.972656 20.054688 15.96875 20.050781 15.964844 C 20.046875 15.960938 20.050781 15.957031 20.054688 15.957031 C 20.054688 15.953125 20.058594 15.949219 20.058594 15.949219 C 20.058594 15.949219 20.0625 15.941406 20.066406 15.9375 C 20.070312 15.929688 20.082031 15.925781 20.089844 15.929688 Z M 20.480469 15.976562 C 20.488281 15.976562 20.492188 15.980469 20.496094 15.984375 C 20.503906 15.992188 20.503906 16 20.496094 16.007812 C 20.492188 16.011719 20.460938 16.011719 20.449219 16.007812 C 20.445312 16.007812 20.441406 16.003906 20.441406 16 C 20.441406 15.992188 20.445312 15.988281 20.453125 15.984375 C 20.460938 15.980469 20.472656 15.976562 20.480469 15.976562 Z M 20.480469 15.976562 "/>
<path style=" stroke:none;fill-rule:nonzero;fill:rgb(75.294118%,57.647059%,0%);fill-opacity:1;" d="M 19.753906 16.179688 C 19.75 16.175781 19.742188 16.175781 19.75 16.167969 C 19.757812 16.15625 19.773438 16.152344 19.785156 16.148438 C 19.808594 16.136719 19.828125 16.121094 19.84375 16.101562 C 19.84375 16.085938 19.859375 16.078125 19.859375 16.066406 C 19.859375 16.046875 19.863281 16.023438 19.855469 16.007812 C 19.851562 15.988281 19.839844 15.972656 19.820312 15.964844 C 19.8125 15.957031 19.792969 15.953125 19.789062 15.941406 C 19.789062 15.925781 19.800781 15.914062 19.804688 15.902344 C 19.8125 15.882812 19.824219 15.867188 19.832031 15.847656 C 19.84375 15.835938 19.859375 15.847656 19.867188 15.859375 C 19.875 15.871094 19.882812 15.882812 19.886719 15.898438 C 19.898438 15.910156 19.910156 15.925781 19.914062 15.945312 C 19.921875 15.957031 19.929688 15.96875 19.929688 15.984375 C 19.929688 16.003906 19.9375 16.019531 19.9375 16.035156 C 19.9375 16.058594 19.9375 16.082031 19.929688 16.105469 C 19.925781 16.117188 19.914062 16.125 19.90625 16.136719 C 19.890625 16.148438 19.875 16.160156 19.859375 16.167969 C 19.847656 16.171875 19.839844 16.183594 19.824219 16.179688 C 19.804688 16.183594 19.78125 16.183594 19.757812 16.179688 C 19.761719 16.183594 19.753906 16.175781 19.753906 16.179688 Z M 19.753906 16.179688 "/>
<path style=" stroke:none;fill-rule:nonzero;fill:rgb(75.294118%,57.647059%,0%);fill-opacity:1;" d="M 19.464844 16.199219 C 19.453125 16.1875 19.453125 16.183594 19.453125 16.171875 C 19.453125 16.164062 19.453125 16.15625 19.464844 16.148438 C 19.484375 16.128906 19.492188 16.128906 19.523438 16.144531 C 19.554688 16.160156 19.566406 16.160156 19.566406 16.152344 C 19.570312 16.140625 19.585938 16.132812 19.605469 16.132812 C 19.613281 16.132812 19.621094 16.132812 19.628906 16.140625 C 19.640625 16.148438 19.640625 16.148438 19.640625 16.167969 C 19.640625 16.1875 19.640625 16.1875 19.628906 16.199219 C 19.617188 16.207031 19.613281 16.210938 19.601562 16.207031 C 19.582031 16.207031 19.570312 16.199219 19.566406 16.183594 C 19.566406 16.171875 19.5625 16.171875 19.558594 16.175781 C 19.558594 16.179688 19.554688 16.183594 19.550781 16.183594 C 19.539062 16.1875 19.527344 16.195312 19.515625 16.203125 C 19.511719 16.207031 19.503906 16.210938 19.492188 16.210938 C 19.476562 16.210938 19.476562 16.210938 19.464844 16.199219 Z M 19.464844 16.199219 "/>
<path style=" stroke:none;fill-rule:nonzero;fill:rgb(75.294118%,57.647059%,0%);fill-opacity:1;" d="M 18.628906 15.828125 C 18.601562 15.828125 18.570312 15.851562 18.566406 15.878906 C 18.574219 15.910156 18.597656 15.941406 18.582031 15.972656 C 18.59375 16.015625 18.550781 16.03125 18.519531 16.007812 C 18.5 15.964844 18.492188 15.921875 18.464844 15.886719 C 18.433594 15.875 18.417969 15.929688 18.394531 15.949219 C 18.40625 15.980469 18.4375 16.007812 18.441406 16.046875 C 18.453125 16.085938 18.429688 16.128906 18.394531 16.148438 C 18.367188 16.175781 18.324219 16.164062 18.289062 16.171875 C 18.246094 16.195312 18.320312 16.203125 18.339844 16.207031 C 18.386719 16.210938 18.433594 16.203125 18.464844 16.171875 C 18.496094 16.15625 18.496094 16.101562 18.53125 16.09375 C 18.601562 16.09375 18.667969 16.105469 18.734375 16.105469 C 18.769531 16.113281 18.824219 16.101562 18.851562 16.128906 C 18.851562 16.175781 18.890625 16.203125 18.925781 16.222656 C 18.949219 16.226562 18.972656 16.203125 18.992188 16.195312 C 19.03125 16.183594 19.019531 16.132812 19.046875 16.113281 C 19.113281 16.109375 19.183594 16.113281 19.253906 16.109375 C 19.269531 16.109375 19.273438 16.09375 19.28125 16.085938 C 19.28125 16.058594 19.277344 16.03125 19.273438 16.003906 C 19.261719 15.972656 19.277344 15.929688 19.253906 15.898438 C 19.21875 15.890625 19.1875 15.921875 19.152344 15.925781 C 19.113281 15.941406 19.078125 15.976562 19.078125 16.019531 C 19.054688 16.058594 19.019531 16.015625 19.03125 15.984375 C 19.027344 15.96875 19.035156 15.953125 19.027344 15.941406 C 19.007812 15.914062 18.96875 15.925781 18.941406 15.921875 C 18.898438 15.921875 18.855469 15.914062 18.8125 15.914062 C 18.773438 15.910156 18.734375 15.917969 18.699219 15.90625 C 18.65625 15.90625 18.660156 15.863281 18.65625 15.835938 C 18.648438 15.828125 18.636719 15.828125 18.628906 15.828125 Z M 18.710938 15.980469 C 18.726562 15.980469 18.742188 15.984375 18.753906 15.984375 C 18.773438 15.988281 18.792969 15.976562 18.808594 15.984375 C 18.851562 15.992188 18.894531 15.988281 18.933594 15.992188 C 18.945312 15.992188 18.953125 16 18.960938 16.007812 C 18.960938 16.035156 18.960938 16.066406 18.960938 16.09375 C 18.960938 16.105469 18.964844 16.117188 18.953125 16.125 C 18.949219 16.128906 18.945312 16.128906 18.945312 16.132812 C 18.933594 16.128906 18.917969 16.121094 18.914062 16.109375 C 18.914062 16.09375 18.914062 16.082031 18.914062 16.066406 C 18.914062 16.0625 18.917969 16.054688 18.914062 16.054688 C 18.90625 16.046875 18.898438 16.042969 18.886719 16.042969 C 18.847656 16.042969 18.8125 16.039062 18.777344 16.039062 C 18.75 16.035156 18.71875 16.039062 18.6875 16.03125 C 18.675781 16.027344 18.664062 16.03125 18.65625 16.019531 C 18.644531 16.007812 18.660156 15.992188 18.671875 15.988281 C 18.683594 15.980469 18.699219 15.980469 18.710938 15.980469 Z M 19.1875 15.992188 C 19.195312 15.992188 19.199219 15.992188 19.199219 16.003906 C 19.203125 16.011719 19.203125 16.023438 19.207031 16.027344 C 19.207031 16.03125 19.203125 16.03125 19.199219 16.035156 C 19.175781 16.042969 19.15625 16.042969 19.148438 16.03125 C 19.144531 16.027344 19.148438 16.015625 19.15625 16.007812 C 19.167969 16 19.179688 15.992188 19.1875 15.992188 Z M 19.1875 15.992188 "/>
<path style="fill-rule:nonzero;fill:rgb(100%,100%,100%);fill-opacity:1;stroke-width:1.1502;stroke-linecap:butt;stroke-linejoin:miter;stroke:rgb(75.294118%,57.647059%,0%);stroke-opacity:1;stroke-miterlimit:4;" d="M 450 327.1875 C 482.658306 302.15625 479.790296 265.3125 479.790296 265.3125 C 478.957648 265.5 478.125 265.59375 477.292352 265.59375 C 470.446135 265.59375 454.070724 261.65625 450.277549 256.6875 C 446.206826 261.1875 429.553865 265.59375 422.707648 265.59375 C 421.875 265.59375 421.042352 265.5 420.209704 265.3125 C 420.209704 265.3125 417.341694 302.15625 450 327.1875 Z M 450 327.1875 " transform="matrix(0.0422222,0,0,0.0416667,0,0)"/>
<path style="fill-rule:nonzero;fill:rgb(100%,100%,100%);fill-opacity:1;stroke-width:0.9157;stroke-linecap:butt;stroke-linejoin:miter;stroke:rgb(75.294118%,57.647059%,0%);stroke-opacity:1;stroke-miterlimit:4;" d="M 477.199836 268.03125 C 476.922286 268.03125 476.644737 268.03125 476.367187 268.03125 C 470.168586 268.03125 455.73602 264.84375 450.185033 260.0625 C 444.356497 264.5625 429.738898 268.03125 423.632812 268.03125 C 423.355263 268.03125 423.077714 268.03125 422.800164 267.9375 C 422.800164 269.34375 422.800164 270.84375 422.892681 272.15625 C 423.262747 277.03125 424.095395 281.90625 425.390625 286.6875 C 429.553865 301.59375 437.880345 314.25 450 323.8125 C 462.027138 314.25 470.446135 301.59375 474.609375 286.6875 C 475.904605 281.90625 476.737253 277.03125 477.107319 272.0625 C 477.199836 270.84375 477.199836 269.4375 477.199836 268.03125 Z M 477.199836 268.03125 " transform="matrix(0.0422222,0,0,0.0416667,0,0)"/>
<path style=" stroke:none;fill-rule:nonzero;fill:rgb(75.294118%,57.647059%,0%);fill-opacity:1;" d="M 18.550781 11.042969 C 18.304688 11.121094 18.035156 11.167969 17.886719 11.167969 C 17.875 11.167969 17.863281 11.167969 17.851562 11.164062 C 17.851562 11.222656 17.855469 11.285156 17.859375 11.339844 C 17.871094 11.542969 17.90625 11.746094 17.960938 11.945312 C 18.078125 12.363281 18.277344 12.738281 18.550781 13.058594 Z M 18.550781 11.042969 "/>
<path style=" stroke:none;fill-rule:nonzero;fill:rgb(75.294118%,57.647059%,0%);fill-opacity:1;" d="M 19.421875 11.039062 L 19.421875 13.089844 C 19.710938 12.761719 19.917969 12.375 20.039062 11.941406 C 20.09375 11.746094 20.128906 11.542969 20.144531 11.335938 C 20.144531 11.285156 20.148438 11.226562 20.148438 11.167969 C 20.136719 11.167969 20.125 11.167969 20.113281 11.167969 C 19.957031 11.167969 19.671875 11.121094 19.421875 11.039062 Z M 19.421875 11.039062 "/>
<path style="fill-rule:nonzero;fill:rgb(100%,100%,100%);fill-opacity:1;stroke-width:1.2179;stroke-linecap:butt;stroke-linejoin:miter;stroke:rgb(75.294118%,57.647059%,0%);stroke-opacity:1;stroke-miterlimit:4;" d="M 462.304687 253.125 C 462.952303 253.125 461.379523 249.5625 461.379523 249.5625 C 463.137336 251.34375 469.79852 251.71875 469.79852 251.71875 C 465.820312 250.03125 461.842105 236.625 462.304687 226.03125 C 462.76727 215.34375 460.824424 211.21875 459.251645 209.625 C 457.216283 207.5625 450.740132 205.875 446.576891 205.59375 C 444.171464 205.5 444.54153 207.375 444.54153 207.375 C 440.10074 206.25 435.659951 205.875 433.717105 207.1875 C 431.77426 208.40625 431.404194 214.6875 432.791941 213.5625 C 436.122533 210.9375 438.990543 213.375 441.025905 216.28125 C 442.783717 218.8125 442.691201 226.03125 440.10074 234.46875 C 437.417763 243.28125 430.20148 252.1875 430.20148 252.1875 C 434.087171 252.1875 439.730674 248.625 439.730674 248.625 L 438.342928 254.15625 C 442.506168 252.1875 445.83676 249.09375 445.83676 249.09375 L 449.907484 253.3125 C 451.202714 251.53125 453.885691 249.09375 453.885691 249.09375 C 453.885691 249.09375 457.216283 252.65625 462.304687 253.125 Z M 462.304687 253.125 " transform="matrix(0.0422222,0,0,0.0416667,0,0)"/>
<path style="fill:none;stroke-width:1.2704;stroke-linecap:butt;stroke-linejoin:miter;stroke:rgb(75.294118%,57.647059%,0%);stroke-opacity:1;stroke-miterlimit:4;" d="M 446.114309 227.53125 C 446.114309 227.53125 443.893914 244.03125 439.730674 248.625 " transform="matrix(0.0422222,0,0,0.0416667,0,0)"/>
<path style="fill:none;stroke-width:1.2704;stroke-linecap:butt;stroke-linejoin:miter;stroke:rgb(75.294118%,57.647059%,0%);stroke-opacity:1;stroke-miterlimit:4;" d="M 449.629934 227.15625 C 449.629934 227.15625 448.797286 243.75 445.929276 249.09375 " transform="matrix(0.0422222,0,0,0.0416667,0,0)"/>
<path style="fill:none;stroke-width:1.2704;stroke-linecap:butt;stroke-linejoin:miter;stroke:rgb(75.294118%,57.647059%,0%);stroke-opacity:1;stroke-miterlimit:4;" d="M 452.775493 227.8125 C 452.775493 227.8125 452.775493 246 453.885691 249.09375 " transform="matrix(0.0422222,0,0,0.0416667,0,0)"/>
<path style="fill:none;stroke-width:1.2704;stroke-linecap:butt;stroke-linejoin:miter;stroke:rgb(75.294118%,57.647059%,0%);stroke-opacity:1;stroke-miterlimit:4;" d="M 456.753701 228.75 C 456.753701 228.75 457.678865 244.03125 461.379523 249.5625 " transform="matrix(0.0422222,0,0,0.0416667,0,0)"/>
<path style="fill-rule:nonzero;fill:rgb(75.294118%,57.647059%,0%);fill-opacity:1;stroke-width:0.3542;stroke-linecap:butt;stroke-linejoin:miter;stroke:rgb(75.294118%,57.647059%,0%);stroke-opacity:1;stroke-miterlimit:4;" d="M 442.043586 219.65625 C 441.858553 218.15625 441.488487 217.03125 441.025905 216.28125 C 438.990543 213.375 436.122533 210.9375 432.791941 213.65625 C 432.791941 213.65625 433.902138 210.09375 436.400082 210 C 438.250411 209.8125 442.506168 211.40625 446.299342 217.78125 C 446.299342 217.78125 443.523849 217.21875 442.783717 217.78125 C 441.581003 218.90625 442.043586 219.65625 442.043586 219.65625 Z M 442.043586 219.65625 " transform="matrix(0.0422222,0,0,0.0416667,0,0)"/>
<path style="fill-rule:nonzero;fill:rgb(75.294118%,57.647059%,0%);fill-opacity:1;stroke-width:0.3542;stroke-linecap:butt;stroke-linejoin:miter;stroke:rgb(75.294118%,57.647059%,0%);stroke-opacity:1;stroke-miterlimit:4;" d="M 432.421875 209.25 C 432.699424 208.3125 433.162007 207.5625 433.717105 207.1875 C 435.659951 205.875 440.10074 206.25 444.54153 207.375 C 444.54153 207.375 444.171464 205.5 446.576891 205.59375 C 450.832648 205.875 457.216283 207.65625 459.251645 209.625 C 459.714227 210.09375 460.269326 210.84375 460.731908 211.96875 L 460.639391 211.96875 C 459.621711 210.65625 456.846217 210.75 456.198602 210.75 C 455.180921 210.9375 454.440789 210.84375 453.053043 211.21875 C 452.405428 211.40625 451.387747 211.59375 450.832648 211.96875 C 450.370066 212.34375 450 213.65625 449.352385 213.65625 C 448.334704 213.65625 448.42722 213.375 448.149671 213.09375 C 447.779605 212.625 447.594572 211.96875 447.224507 212.0625 C 446.114309 212.25 444.356497 211.40625 442.136102 209.625 C 439.915707 207.84375 438.990543 207.375 436.122533 207.65625 C 433.254523 207.84375 432.329359 209.4375 432.329359 209.4375 Z M 432.421875 209.25 " transform="matrix(0.0422222,0,0,0.0416667,0,0)"/>
<path style=" stroke:none;fill-rule:nonzero;fill:rgb(100%,100%,100%);fill-opacity:1;" d="M 19 8.777344 C 19 8.804688 18.976562 8.828125 18.949219 8.828125 C 18.921875 8.828125 18.902344 8.804688 18.902344 8.777344 C 18.902344 8.75 18.921875 8.730469 18.949219 8.730469 C 18.976562 8.730469 19 8.75 19 8.777344 Z M 19 8.777344 "/>
</g>
</svg>
