<?xml version="1.0" encoding="UTF-8"?>
<svg xmlns="http://www.w3.org/2000/svg" xmlns:xlink="http://www.w3.org/1999/xlink" width="38pt" height="25pt" viewBox="0 0 38 25" version="1.1">
<g id="surface1">
<rect x="0" y="0" width="38" height="25" style="fill:rgb(89.019608%,12.941176%,9.411765%);fill-opacity:1;stroke:none;"/>
<path style=" stroke:none;fill-rule:nonzero;fill:rgb(100%,100%,100%);fill-opacity:1;" d="M 0 0 L 38 0 L 38 16.667969 L 0 16.667969 Z M 0 0 "/>
<path style=" stroke:none;fill-rule:nonzero;fill:rgb(24.313725%,60.392157%,0%);fill-opacity:1;" d="M 0 0 L 38 0 L 38 8.332031 L 0 8.332031 Z M 0 0 "/>
<path style=" stroke:none;fill-rule:nonzero;fill:rgb(0%,45.098039%,80.784314%);fill-opacity:1;" d="M 0 0 L 0 25 L 9.5 12.5 Z M 0 0 "/>
<path style="fill-rule:nonzero;fill:rgb(100%,100%,100%);fill-opacity:1;stroke-width:4.8;stroke-linecap:butt;stroke-linejoin:miter;stroke:rgb(0%,0%,0%);stroke-opacity:1;stroke-miterlimit:4;" d="M 1607.935855 958.875 L 1990.953947 958.875 L 1990.953947 1360.125 C 1990.953947 1495.125 1815.172697 1390.875 1800 1462.875 C 1774.095395 1389 1609.046053 1495.875 1609.046053 1351.875 C 1609.046053 1212 1607.935855 958.875 1607.935855 958.875 Z M 1607.935855 958.875 " transform="matrix(0.0105556,0,0,0.0104167,0,0)"/>
<path style="fill-rule:nonzero;fill:rgb(45.098039%,27.058824%,16.862745%);fill-opacity:1;stroke-width:1;stroke-linecap:butt;stroke-linejoin:miter;stroke:rgb(0%,0%,0%);stroke-opacity:1;stroke-miterlimit:4;" d="M 1827.014803 1399.125 C 1827.014803 1399.125 1821.833882 1404 1812.952303 1399.875 C 1804.070724 1396.125 1802.960526 1143 1802.960526 1143 C 1822.944079 1120.875 1838.856908 1114.125 1838.856908 1114.125 C 1838.856908 1114.125 1851.069079 1123.875 1851.069079 1123.875 C 1805.921053 1147.125 1809.991776 1180.125 1814.0625 1237.125 C 1815.172697 1258.125 1815.172697 1285.125 1819.983553 1311 C 1827.014803 1344 1841.077303 1372.125 1841.817434 1393.125 C 1842.927632 1405.875 1827.014803 1399.125 1827.014803 1399.125 Z M 1827.014803 1399.125 " transform="matrix(0.0105556,0,0,0.0104167,0,0)"/>
<path style="fill-rule:nonzero;fill:rgb(45.098039%,27.058824%,16.862745%);fill-opacity:1;stroke-width:1;stroke-linecap:butt;stroke-linejoin:miter;stroke:rgb(0%,0%,0%);stroke-opacity:1;stroke-miterlimit:4;" d="M 1795.929276 1108.125 L 1814.0625 1108.125 C 1798.889803 1252.875 1811.842105 1339.125 1811.842105 1381.125 C 1811.842105 1395 1819.983553 1399.875 1818.873355 1399.875 C 1801.110197 1420.125 1791.858553 1399.125 1791.858553 1399.125 Z M 1795.929276 1108.125 " transform="matrix(0.0105556,0,0,0.0104167,0,0)"/>
<path style="fill-rule:nonzero;fill:rgb(63.921569%,40%,16.078431%);fill-opacity:1;stroke-width:1;stroke-linecap:butt;stroke-linejoin:miter;stroke:rgb(0%,0%,0%);stroke-opacity:1;stroke-miterlimit:4;" d="M 1768.174342 1399.125 C 1751.151316 1407 1748.930921 1390.875 1750.041118 1389 C 1787.047697 1314 1802.960526 1149 1768.914474 1131 C 1768.914474 1131 1771.134868 1114.875 1771.134868 1114.875 C 1784.087171 1119 1795.929276 1135.875 1795.929276 1135.875 C 1801.110197 1321.125 1795.929276 1396.875 1792.96875 1399.875 C 1774.835526 1419 1768.174342 1396.875 1767.064145 1395 " transform="matrix(0.0105556,0,0,0.0104167,0,0)"/>
<path style="fill:none;stroke-width:1;stroke-linecap:butt;stroke-linejoin:miter;stroke:rgb(0%,0%,0%);stroke-opacity:1;stroke-miterlimit:4;" d="M 1767.064145 1396.125 C 1764.103618 1380 1792.96875 1339.125 1791.118421 1296 " transform="matrix(0.0105556,0,0,0.0104167,0,0)"/>
<path style="fill:none;stroke-width:1;stroke-linecap:butt;stroke-linejoin:miter;stroke:rgb(0%,0%,0%);stroke-opacity:1;stroke-miterlimit:4;" d="M 1815.912829 1330.875 C 1825.164474 1356 1828.865132 1378.125 1827.014803 1399.125 " transform="matrix(0.0105556,0,0,0.0104167,0,0)"/>
<path style="fill-rule:nonzero;fill:rgb(0%,60.392157%,23.137255%);fill-opacity:1;stroke-width:1;stroke-linecap:butt;stroke-linejoin:miter;stroke:rgb(0%,0%,0%);stroke-opacity:1;stroke-miterlimit:4;" d="M 1855.139803 1039.875 C 1861.060855 1033.125 1861.060855 1033.125 1872.162829 1033.125 C 1874.013158 1018.125 1899.177632 1018.125 1901.027961 1036.875 C 1921.011513 1033.125 1925.082237 1045.125 1916.940789 1057.125 C 1936.184211 1051.875 1952.837171 1057.125 1948.026316 1078.875 C 1982.072368 1087.875 1969.120066 1111.875 1953.947368 1117.125 C 1952.097039 1132.125 1938.034539 1137 1919.161184 1131 C 1895.106908 1147.875 1881.044408 1141.875 1869.942434 1125 C 1842.927632 1129.125 1841.077303 1123.125 1828.865132 1108.125 C 1808.141447 1117.125 1804.070724 1117.125 1785.9375 1105.875 C 1784.827303 1120.125 1780.016447 1116 1771.134868 1114.875 C 1771.875 1132.875 1764.84375 1141.125 1748.930921 1135.125 C 1761.143092 1159.875 1730.057566 1171.125 1714.884868 1150.125 C 1700.822368 1150.875 1700.082237 1147.125 1693.050987 1141.875 C 1687.129934 1162.125 1664.925987 1159.125 1660.855263 1147.875 C 1633.100329 1144.125 1636.060855 1129.125 1659.004934 1128 C 1660.855263 1111.875 1674.917763 1114.875 1684.169408 1117.125 C 1684.909539 1107 1690.830592 1108.875 1696.011513 1111.125 C 1693.050987 1104 1694.901316 1099.875 1704.152961 1098 C 1690.830592 1081.125 1698.972039 1075.125 1711.924342 1069.125 C 1704.893092 1053 1717.105263 1054.125 1725.986842 1053 C 1724.876645 1036.125 1730.057566 1033.125 1747.820724 1030.875 C 1745.970395 1024.875 1748.930921 1020 1758.922697 1020 C 1753.001645 1003.125 1761.143092 999 1778.90625 1002 C 1781.866776 977.25 1835.15625 988.875 1831.085526 1023 C 1845.888158 1024.875 1851.069079 1027.875 1855.139803 1039.875 Z M 1855.139803 1039.875 " transform="matrix(0.0105556,0,0,0.0104167,0,0)"/>
<path style="fill:none;stroke-width:1;stroke-linecap:butt;stroke-linejoin:miter;stroke:rgb(0%,0%,0%);stroke-opacity:1;stroke-miterlimit:4;" d="M 1747.820724 1030.875 C 1751.891447 1033.125 1757.072368 1030.875 1758.182566 1042.125 C 1765.953947 1027.875 1775.945724 1036.125 1775.945724 1051.875 " transform="matrix(0.0105556,0,0,0.0104167,0,0)"/>
<path style="fill:none;stroke-width:1;stroke-linecap:butt;stroke-linejoin:miter;stroke:rgb(0%,0%,0%);stroke-opacity:1;stroke-miterlimit:4;" d="M 1831.085526 1023 C 1827.014803 1029 1811.842105 1029 1814.0625 1045.125 C 1808.881579 1038 1798.889803 1036.125 1794.819079 1042.875 " transform="matrix(0.0105556,0,0,0.0104167,0,0)"/>
<path style="fill:none;stroke-width:1;stroke-linecap:butt;stroke-linejoin:miter;stroke:rgb(0%,0%,0%);stroke-opacity:1;stroke-miterlimit:4;" d="M 1855.139803 1039.875 C 1855.139803 1044 1854.029605 1056 1849.958882 1062 " transform="matrix(0.0105556,0,0,0.0104167,0,0)"/>
<path style="fill:none;stroke-width:1;stroke-linecap:butt;stroke-linejoin:miter;stroke:rgb(0%,0%,0%);stroke-opacity:1;stroke-miterlimit:4;" d="M 1916.940789 1057.125 C 1918.050987 1057.875 1902.878289 1057.125 1895.847039 1062 " transform="matrix(0.0105556,0,0,0.0104167,0,0)"/>
<path style="fill:none;stroke-width:1;stroke-linecap:butt;stroke-linejoin:miter;stroke:rgb(0%,0%,0%);stroke-opacity:1;stroke-miterlimit:4;" d="M 1953.947368 1117.125 C 1949.876645 1114.875 1942.105263 1110 1936.184211 1117.875 C 1936.184211 1114.125 1936.184211 1102.875 1925.082237 1102.875 " transform="matrix(0.0105556,0,0,0.0104167,0,0)"/>
<path style="fill:none;stroke-width:1;stroke-linecap:butt;stroke-linejoin:miter;stroke:rgb(0%,0%,0%);stroke-opacity:1;stroke-miterlimit:4;" d="M 1919.161184 1131 C 1919.161184 1120.875 1916.940789 1117.875 1915.090461 1114.875 " transform="matrix(0.0105556,0,0,0.0104167,0,0)"/>
<path style="fill:none;stroke-width:1;stroke-linecap:butt;stroke-linejoin:miter;stroke:rgb(0%,0%,0%);stroke-opacity:1;stroke-miterlimit:4;" d="M 1885.855263 1117.125 C 1878.083882 1111.125 1869.942434 1120.125 1869.942434 1125 " transform="matrix(0.0105556,0,0,0.0104167,0,0)"/>
<path style="fill:none;stroke-width:1;stroke-linecap:butt;stroke-linejoin:miter;stroke:rgb(0%,0%,0%);stroke-opacity:1;stroke-miterlimit:4;" d="M 1828.125 1108.125 C 1828.125 1104 1825.164474 1096.125 1831.825658 1093.125 " transform="matrix(0.0105556,0,0,0.0104167,0,0)"/>
<path style="fill:none;stroke-width:1;stroke-linecap:butt;stroke-linejoin:miter;stroke:rgb(0%,0%,0%);stroke-opacity:1;stroke-miterlimit:4;" d="M 1714.144737 1150.125 C 1715.995066 1140 1723.026316 1140 1721.916118 1135.125 C 1721.175987 1126.875 1711.924342 1120.125 1700.822368 1131 " transform="matrix(0.0105556,0,0,0.0104167,0,0)"/>
<path style="fill:none;stroke-width:1;stroke-linecap:butt;stroke-linejoin:miter;stroke:rgb(0%,0%,0%);stroke-opacity:1;stroke-miterlimit:4;" d="M 1721.916118 1135.125 C 1727.837171 1132.875 1734.128289 1134 1735.978618 1137 " transform="matrix(0.0105556,0,0,0.0104167,0,0)"/>
<path style="fill:none;stroke-width:1;stroke-linecap:butt;stroke-linejoin:miter;stroke:rgb(0%,0%,0%);stroke-opacity:1;stroke-miterlimit:4;" d="M 1704.893092 1098 C 1708.963816 1093.875 1718.955592 1095 1724.876645 1098 " transform="matrix(0.0105556,0,0,0.0104167,0,0)"/>
<path style="fill:none;stroke-width:1;stroke-linecap:butt;stroke-linejoin:miter;stroke:rgb(0%,0%,0%);stroke-opacity:1;stroke-miterlimit:4;" d="M 1724.876645 1074 C 1730.057566 1074 1738.939145 1072.125 1741.899671 1081.125 C 1753.001645 1063.875 1761.143092 1066.125 1762.993421 1069.875 " transform="matrix(0.0105556,0,0,0.0104167,0,0)"/>
<path style="fill:none;stroke-width:1;stroke-linecap:butt;stroke-linejoin:miter;stroke:rgb(0%,0%,0%);stroke-opacity:1;stroke-miterlimit:4;" d="M 1782.976974 1068 C 1791.118421 1065 1805.180921 1072.875 1812.952303 1087.125 C 1817.023026 1075.875 1822.944079 1078.125 1828.865132 1077 " transform="matrix(0.0105556,0,0,0.0104167,0,0)"/>
<path style="fill:none;stroke-width:1;stroke-linecap:butt;stroke-linejoin:miter;stroke:rgb(0%,0%,0%);stroke-opacity:1;stroke-miterlimit:4;" d="M 1866.981908 1087.125 C 1879.934211 1081.125 1888.075658 1093.125 1892.146382 1098 C 1898.067434 1090.125 1902.878289 1090.125 1909.169408 1090.125 " transform="matrix(0.0105556,0,0,0.0104167,0,0)"/>
<path style="fill:none;stroke-width:1;stroke-linecap:butt;stroke-linejoin:miter;stroke:rgb(0%,0%,0%);stroke-opacity:1;stroke-miterlimit:4;" d="M 1745.970395 1111.125 C 1748.930921 1105.875 1755.962171 1105.125 1761.143092 1108.125 C 1760.032895 1099.125 1765.953947 1095 1770.024671 1096.875 " transform="matrix(0.0105556,0,0,0.0104167,0,0)"/>
<path style="fill-rule:nonzero;fill:rgb(100%,84.313725%,0%);fill-opacity:1;stroke-width:3.5;stroke-linecap:butt;stroke-linejoin:miter;stroke:rgb(0%,0%,0%);stroke-opacity:1;stroke-miterlimit:4;" d="M 1787.047697 902.625 L 1764.84375 903.75 L 1754.111842 923.25 L 1741.899671 904.5 L 1720.065789 905.25 L 1730.057566 885.75 L 1717.845395 866.625 L 1741.159539 865.875 L 1751.151316 846 L 1762.993421 864.75 L 1784.827303 864 L 1774.835526 883.875 Z M 1787.047697 902.625 " transform="matrix(0.0105556,0,0,0.0104167,0,0)"/>
<path style="fill-rule:nonzero;fill:rgb(100%,84.313725%,0%);fill-opacity:1;stroke-width:3.5;stroke-linecap:butt;stroke-linejoin:miter;stroke:rgb(0%,0%,0%);stroke-opacity:1;stroke-miterlimit:4;" d="M 1693.050987 909.75 L 1670.847039 915.375 L 1664.925987 936.75 L 1649.013158 920.625 L 1627.919408 925.875 L 1633.840461 904.5 L 1619.037829 888.375 L 1640.131579 883.125 L 1646.052632 861.75 L 1661.965461 877.5 L 1684.169408 872.25 L 1677.138158 893.625 Z M 1693.050987 909.75 " transform="matrix(0.0105556,0,0,0.0104167,0,0)"/>
<path style="fill-rule:nonzero;fill:rgb(100%,84.313725%,0%);fill-opacity:1;stroke-width:3.5;stroke-linecap:butt;stroke-linejoin:miter;stroke:rgb(0%,0%,0%);stroke-opacity:1;stroke-miterlimit:4;" d="M 1602.014803 928.5 L 1582.03125 938.625 L 1580.921053 960.75 L 1562.047697 948.375 L 1542.064145 958.125 L 1543.914474 936 L 1525.041118 923.625 L 1545.024671 913.875 L 1546.875 891.75 L 1565.008224 903.75 L 1584.991776 894 L 1583.881579 916.125 Z M 1602.014803 928.5 " transform="matrix(0.0105556,0,0,0.0104167,0,0)"/>
<path style="fill-rule:nonzero;fill:rgb(100%,84.313725%,0%);fill-opacity:1;stroke-width:3.5;stroke-linecap:butt;stroke-linejoin:miter;stroke:rgb(0%,0%,0%);stroke-opacity:1;stroke-miterlimit:4;" d="M 1815.912829 902.625 L 1838.116776 903.75 L 1848.108553 923.25 L 1859.950658 904.5 L 1882.154605 905.25 L 1872.162829 885.75 L 1884.004934 866.625 L 1862.171053 865.875 L 1851.069079 846 L 1838.856908 864.75 L 1817.023026 864 L 1827.014803 883.875 Z M 1815.912829 902.625 " transform="matrix(0.0105556,0,0,0.0104167,0,0)"/>
<path style="fill-rule:nonzero;fill:rgb(100%,84.313725%,0%);fill-opacity:1;stroke-width:3.5;stroke-linecap:butt;stroke-linejoin:miter;stroke:rgb(0%,0%,0%);stroke-opacity:1;stroke-miterlimit:4;" d="M 1909.909539 909.75 L 1931.003289 915.375 L 1936.924342 936.75 L 1952.837171 920.625 L 1973.930921 925.875 L 1968.009868 904.5 L 1983.922697 888.375 L 1962.088816 883.125 L 1956.167763 861.75 L 1939.884868 877.5 L 1919.161184 872.25 L 1925.082237 893.625 Z M 1909.909539 909.75 " transform="matrix(0.0105556,0,0,0.0104167,0,0)"/>
<path style="fill-rule:nonzero;fill:rgb(100%,84.313725%,0%);fill-opacity:1;stroke-width:3.5;stroke-linecap:butt;stroke-linejoin:miter;stroke:rgb(0%,0%,0%);stroke-opacity:1;stroke-miterlimit:4;" d="M 1999.835526 928.5 L 2019.819079 938.625 L 2020.929276 960.75 L 2040.172697 948.375 L 2060.15625 958.125 L 2059.046053 936 L 2077.179276 923.625 L 2056.825658 913.875 L 2056.085526 891.75 L 2036.842105 903.75 L 2016.858553 894 L 2019.078947 916.125 Z M 1999.835526 928.5 " transform="matrix(0.0105556,0,0,0.0104167,0,0)"/>
<path style="fill-rule:nonzero;fill:rgb(100%,100%,100%);fill-opacity:1;stroke-width:3.5;stroke-linecap:butt;stroke-linejoin:miter;stroke:rgb(0%,0%,0%);stroke-opacity:1;stroke-miterlimit:4;" d="M 2026.850329 1351.875 L 2052.014803 1387.875 L 2074.958882 1354.125 L 2059.046053 1324.875 Z M 2026.850329 1351.875 " transform="matrix(0.0105556,0,0,0.0104167,0,0)"/>
<path style="fill-rule:nonzero;fill:rgb(100%,100%,100%);fill-opacity:1;stroke-width:3.5;stroke-linecap:butt;stroke-linejoin:miter;stroke:rgb(0%,0%,0%);stroke-opacity:1;stroke-miterlimit:4;" d="M 1868.092105 1456.875 L 1869.942434 1492.875 C 1869.942434 1492.875 1879.934211 1492.875 1888.815789 1489.875 C 1896.957237 1486.875 1903.988487 1480.875 1903.988487 1480.875 L 1902.878289 1462.125 Z M 1868.092105 1456.875 " transform="matrix(0.0105556,0,0,0.0104167,0,0)"/>
<path style="fill-rule:nonzero;fill:rgb(100%,100%,100%);fill-opacity:1;stroke-width:3.5;stroke-linecap:butt;stroke-linejoin:miter;stroke:rgb(0%,0%,0%);stroke-opacity:1;stroke-miterlimit:4;" d="M 1734.128289 1456.875 L 1731.907895 1492.125 C 1731.907895 1492.125 1723.026316 1492.125 1714.144737 1489.875 C 1706.003289 1488 1698.972039 1483.125 1698.972039 1483.125 L 1688.980263 1459.125 Z M 1734.128289 1456.875 " transform="matrix(0.0105556,0,0,0.0104167,0,0)"/>
<path style="fill-rule:nonzero;fill:rgb(100%,100%,100%);fill-opacity:1;stroke-width:3.5;stroke-linecap:butt;stroke-linejoin:miter;stroke:rgb(0%,0%,0%);stroke-opacity:1;stroke-miterlimit:4;" d="M 1573.149671 1351.875 L 1546.875 1387.875 L 1519.120066 1342.125 L 1539.84375 1320 Z M 1573.149671 1351.875 " transform="matrix(0.0105556,0,0,0.0104167,0,0)"/>
<path style="fill-rule:nonzero;fill:rgb(100%,100%,100%);fill-opacity:1;stroke-width:3.5;stroke-linecap:butt;stroke-linejoin:miter;stroke:rgb(0%,0%,0%);stroke-opacity:1;stroke-miterlimit:4;" d="M 1697.861842 1528.875 C 1697.861842 1563 1903.988487 1563 1903.988487 1528.875 L 1903.988487 1480.875 C 1903.988487 1506 1697.861842 1501.125 1697.861842 1480.875 Z M 1697.861842 1528.875 " transform="matrix(0.0105556,0,0,0.0104167,0,0)"/>
<path style="fill-rule:nonzero;fill:rgb(100%,100%,100%);fill-opacity:1;stroke-width:3.5;stroke-linecap:butt;stroke-linejoin:miter;stroke:rgb(0%,0%,0%);stroke-opacity:1;stroke-miterlimit:4;" d="M 1513.939145 1417.875 C 1532.072368 1510.125 1697.861842 1512 1697.861842 1512 C 1697.861842 1512 1697.861842 1480.875 1697.861842 1480.875 C 1694.161184 1468.875 1700.822368 1465.125 1727.837171 1461 C 1738.939145 1459.875 1734.128289 1444.125 1734.128289 1444.125 C 1734.128289 1444.125 1661.965461 1456.875 1610.896382 1437 C 1542.064145 1408.875 1532.072368 1354.875 1532.072368 1354.875 C 1532.072368 1354.875 1526.891447 1396.875 1513.939145 1417.875 Z M 1513.939145 1417.875 " transform="matrix(0.0105556,0,0,0.0104167,0,0)"/>
<path style="fill-rule:nonzero;fill:rgb(100%,100%,100%);fill-opacity:1;stroke-width:3.5;stroke-linecap:butt;stroke-linejoin:miter;stroke:rgb(0%,0%,0%);stroke-opacity:1;stroke-miterlimit:4;" d="M 2087.171053 1417.875 C 2070.148026 1510.125 1903.988487 1512 1903.988487 1512 C 1903.988487 1512 1903.988487 1480.875 1903.988487 1480.875 C 1906.949013 1468.875 1899.917763 1465.125 1872.902961 1461 C 1862.171053 1459.875 1868.092105 1444.125 1868.092105 1444.125 C 1868.092105 1444.125 1939.884868 1456.875 1990.953947 1437 C 2059.046053 1408.875 2066.817434 1354.875 2066.817434 1354.875 C 2066.817434 1354.875 2073.848684 1396.875 2087.171053 1417.875 Z M 2087.171053 1417.875 " transform="matrix(0.0105556,0,0,0.0104167,0,0)"/>
<path style="fill-rule:nonzero;fill:rgb(100%,100%,100%);fill-opacity:1;stroke-width:3.5;stroke-linecap:butt;stroke-linejoin:miter;stroke:rgb(0%,0%,0%);stroke-opacity:1;stroke-miterlimit:4;" d="M 1526.891447 1383 C 1481.003289 1357.875 1516.899671 1332 1520.970395 1258.125 C 1528.001645 1303.125 1579.070724 1321.875 1573.149671 1351.125 C 1552.055921 1351.875 1542.064145 1320 1532.072368 1354.875 C 1532.072368 1354.875 1526.891447 1383 1526.891447 1383 Z M 1526.891447 1383 " transform="matrix(0.0105556,0,0,0.0104167,0,0)"/>
<path style="fill-rule:nonzero;fill:rgb(100%,100%,100%);fill-opacity:1;stroke-width:3.5;stroke-linecap:butt;stroke-linejoin:miter;stroke:rgb(0%,0%,0%);stroke-opacity:1;stroke-miterlimit:4;" d="M 2073.848684 1383 C 2120.106908 1357.125 2081.990132 1332 2077.919408 1258.125 C 2070.888158 1303.125 2020.929276 1321.875 2026.850329 1351.125 C 2046.833882 1351.875 2056.825658 1320 2066.817434 1354.875 C 2066.817434 1354.875 2073.848684 1381.875 2073.848684 1381.875 Z M 2073.848684 1383 " transform="matrix(0.0105556,0,0,0.0104167,0,0)"/>
<path style=" stroke:none;fill-rule:nonzero;fill:rgb(0%,0%,0%);fill-opacity:1;" d="M 16.414062 14.761719 L 16.464844 14.800781 L 16.351562 14.925781 C 16.304688 14.976562 16.292969 15.011719 16.324219 15.039062 C 16.363281 15.078125 16.394531 15.066406 16.433594 15.019531 L 16.5625 14.886719 L 16.605469 14.925781 L 16.476562 15.074219 C 16.410156 15.152344 16.34375 15.132812 16.292969 15.085938 C 16.246094 15.042969 16.21875 14.980469 16.285156 14.902344 Z M 16.414062 14.761719 "/>
<path style=" stroke:none;fill-rule:nonzero;fill:rgb(0%,0%,0%);fill-opacity:1;" d="M 16.625 14.9375 L 16.679688 14.96875 L 16.667969 15.21875 L 16.785156 15.042969 L 16.835938 15.074219 L 16.667969 15.34375 L 16.605469 15.3125 L 16.613281 15.0625 L 16.5 15.238281 L 16.445312 15.207031 Z M 16.625 14.9375 "/>
<path style=" stroke:none;fill-rule:nonzero;fill:rgb(0%,0%,0%);fill-opacity:1;" d="M 16.71875 15.375 L 16.867188 15.082031 L 16.921875 15.113281 L 16.785156 15.394531 Z M 16.71875 15.375 "/>
<path style=" stroke:none;fill-rule:nonzero;fill:rgb(0%,0%,0%);fill-opacity:1;" d="M 16.953125 15.125 L 16.835938 15.425781 L 16.953125 15.46875 C 17.0625 15.507812 17.113281 15.460938 17.144531 15.371094 C 17.179688 15.277344 17.164062 15.210938 17.058594 15.167969 Z M 16.992188 15.199219 C 17.101562 15.234375 17.109375 15.277344 17.082031 15.351562 C 17.050781 15.421875 17.023438 15.449219 16.921875 15.394531 Z M 16.992188 15.199219 "/>
<path style=" stroke:none;fill-rule:nonzero;fill:rgb(0%,0%,0%);fill-opacity:1;" d="M 17.300781 15.238281 L 17.109375 15.519531 L 17.183594 15.542969 L 17.226562 15.46875 L 17.351562 15.5 L 17.363281 15.574219 L 17.4375 15.582031 L 17.363281 15.25 Z M 17.320312 15.3125 L 17.34375 15.4375 L 17.257812 15.425781 Z M 17.320312 15.3125 "/>
<path style=" stroke:none;fill-rule:nonzero;fill:rgb(0%,0%,0%);fill-opacity:1;" d="M 17.480469 15.265625 L 17.46875 15.589844 L 17.59375 15.59375 C 17.710938 15.59375 17.742188 15.535156 17.746094 15.4375 C 17.746094 15.339844 17.710938 15.277344 17.59375 15.273438 Z M 17.542969 15.324219 C 17.660156 15.324219 17.679688 15.359375 17.675781 15.4375 C 17.671875 15.515625 17.65625 15.550781 17.539062 15.53125 Z M 17.542969 15.324219 "/>
<path style=" stroke:none;fill-rule:nonzero;fill:rgb(0%,0%,0%);fill-opacity:1;" d="M 18.589844 15.71875 L 18.589844 16.050781 L 18.664062 16.050781 L 18.664062 15.925781 C 18.664062 15.925781 18.726562 15.929688 18.777344 15.917969 C 18.820312 15.90625 18.847656 15.878906 18.847656 15.816406 C 18.851562 15.75 18.8125 15.71875 18.75 15.71875 Z M 18.664062 15.769531 L 18.738281 15.773438 C 18.800781 15.773438 18.789062 15.863281 18.738281 15.863281 L 18.664062 15.863281 Z M 18.664062 15.769531 "/>
<path style=" stroke:none;fill-rule:nonzero;fill:rgb(0%,0%,0%);fill-opacity:1;" d="M 18.96875 15.71875 L 18.832031 16.050781 L 18.90625 16.050781 L 18.9375 15.96875 L 19.074219 15.96875 L 19.105469 16.050781 L 19.179688 16.050781 L 19.042969 15.71875 Z M 19 15.792969 L 19.050781 15.917969 L 18.957031 15.917969 Z M 19 15.792969 "/>
<path style=" stroke:none;fill-rule:nonzero;fill:rgb(0%,0%,0%);fill-opacity:1;" d="M 19.179688 15.988281 L 19.359375 15.769531 L 19.199219 15.769531 L 19.199219 15.71875 L 19.453125 15.71875 L 19.453125 15.769531 L 19.265625 15.988281 L 19.453125 15.988281 L 19.453125 16.050781 L 19.179688 16.050781 Z M 19.179688 15.988281 "/>
<path style=" stroke:none;fill-rule:nonzero;fill:rgb(0%,0%,0%);fill-opacity:1;" d="M 20.246094 15.34375 L 20.308594 15.332031 L 20.339844 15.519531 C 20.351562 15.585938 20.320312 15.632812 20.273438 15.652344 C 20.21875 15.671875 20.148438 15.652344 20.140625 15.5625 L 20.191406 15.550781 C 20.203125 15.605469 20.226562 15.609375 20.253906 15.601562 C 20.273438 15.59375 20.28125 15.5625 20.277344 15.53125 Z M 20.246094 15.34375 "/>
<path style=" stroke:none;fill-rule:nonzero;fill:rgb(0%,0%,0%);fill-opacity:1;" d="M 20.351562 15.324219 L 20.414062 15.3125 L 20.441406 15.46875 C 20.453125 15.535156 20.476562 15.566406 20.519531 15.558594 C 20.574219 15.546875 20.582031 15.515625 20.570312 15.457031 L 20.53125 15.292969 L 20.59375 15.28125 L 20.636719 15.453125 C 20.660156 15.554688 20.609375 15.597656 20.535156 15.609375 C 20.472656 15.621094 20.40625 15.605469 20.382812 15.503906 Z M 20.351562 15.324219 "/>
<path style=" stroke:none;fill-rule:nonzero;fill:rgb(0%,0%,0%);fill-opacity:1;" d="M 20.679688 15.46875 L 20.730469 15.449219 C 20.757812 15.492188 20.796875 15.492188 20.828125 15.476562 C 20.871094 15.457031 20.878906 15.421875 20.855469 15.410156 C 20.824219 15.390625 20.75 15.414062 20.710938 15.402344 C 20.664062 15.382812 20.644531 15.359375 20.648438 15.316406 C 20.648438 15.269531 20.691406 15.242188 20.742188 15.226562 C 20.792969 15.210938 20.84375 15.21875 20.878906 15.28125 L 20.816406 15.300781 C 20.796875 15.269531 20.769531 15.269531 20.746094 15.28125 C 20.726562 15.289062 20.695312 15.308594 20.710938 15.335938 C 20.722656 15.355469 20.800781 15.34375 20.84375 15.34375 C 20.886719 15.347656 20.917969 15.375 20.925781 15.414062 C 20.933594 15.46875 20.910156 15.5 20.847656 15.523438 C 20.765625 15.554688 20.691406 15.523438 20.679688 15.46875 Z M 20.679688 15.46875 "/>
<path style=" stroke:none;fill-rule:nonzero;fill:rgb(0%,0%,0%);fill-opacity:1;" d="M 20.964844 15.207031 L 20.878906 15.25 L 20.859375 15.199219 L 21.089844 15.105469 L 21.109375 15.144531 L 21.027344 15.1875 L 21.121094 15.417969 L 21.070312 15.449219 Z M 20.964844 15.207031 "/>
<path style=" stroke:none;fill-rule:nonzero;fill:rgb(0%,0%,0%);fill-opacity:1;" d="M 21.101562 15.09375 L 21.152344 15.0625 L 21.300781 15.332031 L 21.25 15.363281 Z M 21.101562 15.09375 "/>
<path style=" stroke:none;fill-rule:nonzero;fill:rgb(0%,0%,0%);fill-opacity:1;" d="M 21.460938 15.113281 L 21.523438 15.09375 C 21.550781 15.15625 21.507812 15.269531 21.398438 15.265625 C 21.238281 15.261719 21.222656 15.089844 21.246094 15.03125 C 21.289062 14.933594 21.40625 14.9375 21.460938 14.988281 L 21.40625 15.03125 C 21.375 14.988281 21.300781 15.015625 21.292969 15.054688 C 21.285156 15.117188 21.3125 15.175781 21.371094 15.207031 C 21.421875 15.230469 21.496094 15.167969 21.460938 15.113281 Z M 21.460938 15.113281 "/>
<path style=" stroke:none;fill-rule:nonzero;fill:rgb(0%,0%,0%);fill-opacity:1;" d="M 21.429688 14.894531 L 21.480469 14.855469 L 21.671875 15.105469 L 21.617188 15.144531 Z M 21.429688 14.894531 "/>
<path style=" stroke:none;fill-rule:nonzero;fill:rgb(0%,0%,0%);fill-opacity:1;" d="M 21.628906 14.738281 L 21.574219 14.78125 L 21.691406 15.09375 L 21.746094 15.042969 L 21.710938 14.980469 L 21.808594 14.894531 L 21.871094 14.925781 L 21.925781 14.886719 Z M 21.648438 14.8125 L 21.753906 14.863281 L 21.691406 14.925781 Z M 21.648438 14.8125 "/>
</g>
</svg>
