<?xml version="1.0" encoding="UTF-8"?>
<svg xmlns="http://www.w3.org/2000/svg" xmlns:xlink="http://www.w3.org/1999/xlink" width="50pt" height="25pt" viewBox="0 0 50 25" version="1.1">
<g id="surface1">
<rect x="0" y="0" width="50" height="25" style="fill:rgb(91.764706%,1.568627%,21.568627%);fill-opacity:1;stroke:none;"/>
<path style=" stroke:none;fill-rule:nonzero;fill:rgb(25.490196%,53.72549%,86.666667%);fill-opacity:1;" d="M 0 25 L 50 25 L 50 12.5 "/>
<path style=" stroke:none;fill-rule:nonzero;fill:rgb(7.058824%,67.843137%,16.862745%);fill-opacity:1;" d="M 0 0 L 50 0 L 50 12.5 "/>
<path style=" stroke:none;fill-rule:nonzero;fill:rgb(100%,78.039216%,14.901961%);fill-opacity:1;" d="M 11.511719 18.457031 C 10.972656 18.605469 10.660156 19.027344 10.671875 19.421875 L 13.332031 19.410156 C 13.308594 18.988281 13.003906 18.59375 12.472656 18.4375 C 15.078125 18.382812 17.339844 17.410156 17.75 16.78125 C 17.34375 16.605469 16.875 16.890625 16.539062 16.742188 C 17.335938 16.371094 19.722656 14.828125 19.332031 13.171875 C 19.03125 14.09375 18.117188 14.851562 17.730469 15.058594 C 18.621094 13.703125 19.835938 12.296875 18.78125 11.203125 C 18.835938 11.835938 18.378906 12.53125 18.179688 12.585938 C 18.695312 11.15625 19.1875 9.359375 18.070312 8.175781 C 18.214844 8.601562 18.15625 9.808594 17.953125 9.863281 C 17.890625 8.890625 17.726562 6.847656 16.703125 6.875 C 17.027344 7.164062 17.167969 7.957031 17.175781 8.753906 C 16.941406 8.207031 16.675781 7.796875 16.109375 7.390625 C 15.652344 6.511719 14.835938 5.78125 14.019531 5.261719 C 14.109375 5.902344 14.1875 6.40625 15.082031 7.070312 C 14.613281 7.042969 14.148438 6.15625 13.648438 6.132812 C 13.253906 6.113281 12.941406 6.492188 12.292969 6.273438 C 12.367188 6.488281 12.667969 6.582031 12.730469 6.742188 C 12.59375 6.835938 12.261719 6.726562 11.988281 6.582031 C 12.367188 7.097656 12.949219 7.398438 13.445312 7.296875 C 14.035156 7.183594 14.667969 7.242188 15.269531 7.585938 C 15.117188 7.664062 14.515625 7.664062 14.132812 7.554688 C 14.480469 7.910156 14.714844 8.144531 15.324219 8.140625 C 15.867188 8.136719 16.152344 7.851562 16.289062 8.027344 C 16.628906 8.429688 16.859375 8.835938 17.144531 9.308594 C 16.515625 9.378906 16.703125 8.597656 16.003906 8.199219 C 15.609375 9.011719 16.457031 9.980469 17.035156 10.378906 C 17.039062 10.992188 17.128906 11.503906 17.390625 11.972656 C 17.566406 12.300781 17.792969 12.636719 17.707031 13.378906 C 17.363281 13.125 17.023438 12.28125 17.148438 11.605469 C 16.714844 11.726562 16.546875 12.484375 16.75 12.867188 C 16.902344 13.15625 17.003906 13.714844 16.828125 13.960938 C 16.660156 14.195312 16.640625 14.167969 16.644531 14.664062 C 16.648438 14.964844 16.484375 15.316406 16.210938 15.5625 C 16.269531 15.351562 16.332031 14.992188 16.269531 14.765625 C 16.054688 15.128906 15.519531 15.503906 15.351562 15.894531 C 15.183594 16.285156 15.140625 16.964844 14.335938 17.121094 C 13.304688 17.324219 12.945312 17.503906 12.28125 17.777344 C 12.207031 17.273438 12.429688 16.21875 12.851562 16.277344 C 13.261719 16.351562 14.515625 15.847656 14.066406 14.792969 C 13.980469 15.125 13.683594 15.449219 13.363281 15.464844 C 13.710938 15.015625 14.324219 14.554688 14.023438 13.804688 C 13.859375 14.125 13.597656 14.503906 13.199219 14.71875 C 13.625 13.90625 13.148438 13.660156 12.742188 14.332031 C 12.554688 14.589844 12.4375 15.109375 12.316406 15.769531 C 12.117188 15.234375 12.132812 14.527344 11.894531 13.953125 C 11.648438 13.335938 12.222656 13.171875 12.492188 13.21875 C 13.148438 13.394531 14.25 13.394531 14.167969 12.308594 C 13.882812 12.675781 13.386719 12.789062 12.847656 12.65625 C 13.453125 12.214844 13.929688 11.382812 13.253906 10.949219 C 13.234375 11.410156 12.875 11.925781 12.402344 12.164062 C 12.289062 11.777344 12.289062 11.363281 12.386719 10.910156 C 12.121094 11.191406 11.925781 11.773438 11.773438 12.433594 C 11.761719 11.78125 11.882812 11.308594 11.976562 10.957031 C 12.113281 10.445312 12.460938 10.777344 12.988281 10.816406 C 13.496094 10.84375 14.199219 10.5625 14.066406 9.875 C 13.890625 10.148438 13.535156 10.253906 13.167969 10.222656 C 13.609375 9.957031 14.371094 9.484375 13.953125 8.757812 C 13.777344 9.035156 13.71875 9.269531 13.210938 9.355469 C 13.34375 9.046875 13.367188 8.613281 13.761719 8.441406 C 13.054688 8.300781 12.652344 8.761719 12.445312 9.488281 C 12.363281 8.984375 12.261719 8.800781 12.242188 8.433594 C 12.625 8.007812 12.664062 7.179688 11.839844 6.992188 C 11.789062 7.421875 11.804688 7.523438 11.898438 7.871094 C 11.511719 7.640625 10.964844 7.515625 10.601562 7.839844 C 10.847656 8.105469 11.226562 8.339844 11.816406 8.050781 C 11.675781 8.503906 11.316406 8.425781 10.820312 8.253906 C 11.121094 8.824219 11.507812 8.925781 11.929688 8.859375 C 12.148438 9.441406 12.160156 9.886719 11.511719 10.738281 C 11.542969 10.207031 11.503906 9.816406 11.085938 9.386719 C 10.726562 9.035156 10.433594 9.371094 10.996094 10.1875 C 10.65625 9.933594 10.269531 9.425781 10.152344 8.914062 C 10.039062 9.546875 10.140625 10.285156 10.488281 10.703125 C 10.324219 10.878906 10.136719 10.683594 9.859375 10.253906 C 9.964844 11.632812 10.554688 11.898438 11.34375 11.589844 C 11.367188 12.347656 11.367188 13.046875 11.410156 13.960938 C 10.949219 13.300781 10.367188 12.804688 10.039062 12.679688 C 9.9375 13.050781 10.320312 13.535156 10.535156 13.804688 C 10.210938 13.738281 9.5 13.199219 9.5 13.199219 C 9.429688 13.8125 10.222656 14.382812 10.738281 14.636719 C 10.132812 14.609375 9.867188 14.382812 9.480469 14.007812 C 9.472656 15.710938 11.324219 15.417969 11.671875 15.152344 C 11.714844 15.992188 11.78125 16.964844 11.824219 17.800781 C 11.304688 17.710938 11.34375 17.554688 10.898438 17.515625 C 9.664062 17.464844 8.683594 16.03125 8.359375 14.976562 C 8.269531 15.148438 8.34375 15.332031 8.257812 15.546875 C 8.054688 15.027344 7.800781 14.359375 7.457031 14.046875 C 7.542969 14.347656 7.554688 14.65625 7.523438 15.21875 C 7.40625 14.855469 7.296875 14.742188 7.289062 14.3125 C 7.28125 13.984375 7.605469 13.742188 7.589844 13.277344 C 7.574219 12.9375 7.265625 12.207031 7.222656 11.636719 C 7.070312 12.222656 6.976562 12.839844 6.75 13.199219 C 6.863281 12.574219 6.828125 12.144531 7.019531 11.726562 C 7.242188 11.28125 7.429688 10.886719 7.28125 10.441406 C 7.140625 10.613281 7.1875 10.769531 6.832031 11.191406 C 6.753906 10.734375 7.292969 10.003906 7.816406 9.710938 C 8.183594 9.519531 8.648438 8.824219 8.347656 8.347656 C 8 8.597656 7.84375 8.933594 7.355469 9.507812 C 7.703125 8.140625 8.613281 7.785156 9.699219 7.78125 C 9.9375 7.777344 10.421875 7.691406 10.558594 7.375 C 10.253906 7.492188 9.890625 7.507812 9.570312 7.441406 C 9.804688 7.097656 10.296875 7.144531 10.757812 7.140625 C 11.117188 7.140625 11.679688 7.089844 11.910156 6.578125 C 11.46875 6.769531 10.78125 6.808594 10.351562 6.671875 C 11.039062 6.316406 12.113281 6.277344 12.667969 5.808594 C 12.039062 5.339844 10.460938 5.917969 9.464844 6.601562 C 9.746094 6.347656 10.183594 5.894531 10.425781 5.53125 C 9.882812 5.269531 8.507812 6.796875 8.03125 7.703125 C 7.582031 7.957031 7.402344 8.355469 7.226562 8.632812 C 7.464844 7.824219 7.492188 7.234375 7.691406 6.566406 C 6.148438 7.097656 6.789062 9.949219 6.453125 10.632812 C 6.492188 9.878906 6.445312 8.910156 6.152344 8.414062 C 5.675781 8.773438 5.636719 10.910156 6.085938 12.6875 C 5.921875 12.210938 5.617188 11.769531 5.519531 11.1875 C 4.816406 12.472656 5.933594 13.988281 6.867188 15.183594 C 6.164062 14.816406 5.46875 14.03125 5.011719 13.371094 C 5.140625 15.667969 7.539062 16.144531 7.910156 16.710938 C 7.40625 16.472656 6.4375 16.007812 6.027344 16.496094 C 6.695312 16.648438 7.226562 16.828125 7.65625 17.109375 C 8.28125 17.886719 9.460938 18.226562 11.511719 18.3125 Z M 11.511719 18.457031 "/>
</g>
</svg>
