<?xml version="1.0" encoding="UTF-8"?>
<svg xmlns="http://www.w3.org/2000/svg" xmlns:xlink="http://www.w3.org/1999/xlink" width="50pt" height="25pt" viewBox="0 0 50 25" version="1.1">
<g id="surface1">
<rect x="0" y="0" width="50" height="25" style="fill:rgb(85.490196%,7.058824%,10.196078%);fill-opacity:1;stroke:none;"/>
<path style=" stroke:none;fill-rule:nonzero;fill:rgb(98.823529%,86.666667%,3.529412%);fill-opacity:1;" d="M 0 0 L 50 0 L 50 16.667969 L 0 16.667969 Z M 0 0 "/>
<path style=" stroke:none;fill-rule:nonzero;fill:rgb(2.745098%,53.72549%,18.823529%);fill-opacity:1;" d="M 0 0 L 50 0 L 50 8.332031 L 0 8.332031 Z M 0 0 "/>
<path style=" stroke:none;fill-rule:nonzero;fill:rgb(5.882353%,27.843137%,68.627451%);fill-opacity:1;" d="M 33.332031 12.5 C 33.332031 17.101562 29.601562 20.832031 25 20.832031 C 20.398438 20.832031 16.667969 17.101562 16.667969 12.5 C 16.667969 7.898438 20.398438 4.167969 25 4.167969 C 29.601562 4.167969 33.332031 7.898438 33.332031 12.5 Z M 33.332031 12.5 "/>
<path style=" stroke:none;fill-rule:nonzero;fill:rgb(98.823529%,86.666667%,3.529412%);fill-opacity:1;" d="M 25 5.832031 L 24.707031 6.730469 L 25.914062 10.441406 L 24.304688 10.441406 L 24.125 10.996094 L 29.277344 10.996094 L 30.039062 10.441406 L 26.496094 10.441406 Z M 25 5.832031 "/>
<path style="fill-rule:nonzero;fill:rgb(0%,0%,0%);fill-opacity:1;stroke-width:4;stroke-linecap:butt;stroke-linejoin:miter;stroke:rgb(98.823529%,86.666667%,3.529412%);stroke-opacity:1;stroke-miterlimit:4;" d="M -0.00448609 44.015005 L 0.0161656 96.007561 " transform="matrix(-0.0561817,-0.0408184,0.0408184,-0.0561817,25,12.5)"/>
<path style=" stroke:none;fill-rule:nonzero;fill:rgb(98.823529%,86.666667%,3.529412%);fill-opacity:1;" d="M 31.339844 10.441406 L 30.394531 10.441406 L 27.242188 12.730469 L 26.746094 11.203125 L 26.160156 11.203125 L 27.753906 16.101562 L 28.515625 16.65625 L 27.421875 13.285156 Z M 31.339844 10.441406 "/>
<path style="fill-rule:nonzero;fill:rgb(0%,0%,0%);fill-opacity:1;stroke-width:4;stroke-linecap:butt;stroke-linejoin:miter;stroke:rgb(98.823529%,86.666667%,3.529412%);stroke-opacity:1;stroke-miterlimit:4;" d="M -0.0138956 44.008209 L 0.0184386 95.985938 " transform="matrix(0.0214595,-0.0660456,0.0660456,0.0214595,25,12.5)"/>
<path style=" stroke:none;fill-rule:nonzero;fill:rgb(98.823529%,86.666667%,3.529412%);fill-opacity:1;" d="M 28.917969 17.894531 L 28.625 16.996094 L 25.472656 14.703125 L 26.773438 13.757812 L 26.589844 13.203125 L 22.425781 16.230469 L 22.132812 17.128906 L 25 15.046875 Z M 28.917969 17.894531 "/>
<path style="fill:none;stroke-width:4;stroke-linecap:butt;stroke-linejoin:miter;stroke:rgb(98.823529%,86.666667%,3.529412%);stroke-opacity:1;stroke-miterlimit:4;" d="M -0.000000000000056843 43.9875 L -0.000000000000056843 96.01875 " transform="matrix(0.0694444,-0.000000000000000024,0.000000000000000024,0.0694444,25,12.5)"/>
<path style=" stroke:none;fill-rule:nonzero;fill:rgb(98.823529%,86.666667%,3.529412%);fill-opacity:1;" d="M 21.082031 17.894531 L 21.847656 17.335938 L 23.050781 13.628906 L 24.351562 14.574219 L 24.824219 14.230469 L 20.65625 11.203125 L 19.710938 11.203125 L 22.578125 13.285156 Z M 21.082031 17.894531 "/>
<path style="fill-rule:nonzero;fill:rgb(0%,0%,0%);fill-opacity:1;stroke-width:4;stroke-linecap:butt;stroke-linejoin:miter;stroke:rgb(98.823529%,86.666667%,3.529412%);stroke-opacity:1;stroke-miterlimit:4;" d="M 0.0138956 44.008209 L -0.0184386 95.985938 " transform="matrix(0.0214595,0.0660456,-0.0660456,0.0214595,25,12.5)"/>
<path style=" stroke:none;fill-rule:nonzero;fill:rgb(98.823529%,86.666667%,3.529412%);fill-opacity:1;" d="M 18.660156 10.441406 L 19.425781 10.996094 L 23.324219 10.996094 L 22.828125 12.523438 L 23.300781 12.867188 L 24.890625 7.96875 L 24.597656 7.070312 L 23.503906 10.441406 Z M 18.660156 10.441406 "/>
<path style="fill-rule:nonzero;fill:rgb(0%,0%,0%);fill-opacity:1;stroke-width:4;stroke-linecap:butt;stroke-linejoin:miter;stroke:rgb(98.823529%,86.666667%,3.529412%);stroke-opacity:1;stroke-miterlimit:4;" d="M 0.00448609 44.015005 L -0.0161656 96.007561 " transform="matrix(-0.0561817,0.0408184,-0.0408184,-0.0561817,25,12.5)"/>
</g>
</svg>
