<?xml version="1.0" encoding="UTF-8"?>
<svg xmlns="http://www.w3.org/2000/svg" xmlns:xlink="http://www.w3.org/1999/xlink" width="38pt" height="25pt" viewBox="0 0 38 25" version="1.1">
<g id="surface1">
<rect x="0" y="0" width="38" height="25" style="fill:rgb(100%,100%,100%);fill-opacity:1;stroke:none;"/>
<path style=" stroke:none;fill-rule:nonzero;fill:rgb(90.980392%,6.666667%,17.647059%);fill-opacity:1;" d="M 16.464844 0 L 16.464844 10 L 0 10 L 0 15 L 16.464844 15 L 16.464844 25 L 21.535156 25 L 21.535156 15 L 38 15 L 38 10 L 21.535156 10 L 21.535156 0 Z M 16.464844 0 "/>
<path style=" stroke:none;fill-rule:nonzero;fill:rgb(90.980392%,6.666667%,17.647059%);fill-opacity:1;" d="M 7.300781 2.503906 C 7.609375 4.109375 7.609375 5.753906 7.300781 7.359375 C 7.875 7.289062 8.453125 7.289062 9.027344 7.359375 C 8.71875 5.753906 8.71875 4.109375 9.027344 2.503906 C 8.453125 2.574219 7.875 2.574219 7.300781 2.503906 Z M 7.300781 2.503906 "/>
<path style=" stroke:none;fill-rule:nonzero;fill:rgb(90.980392%,6.666667%,17.647059%);fill-opacity:1;" d="M 10.625 4.078125 C 9 4.386719 7.328125 4.386719 5.703125 4.078125 C 5.777344 4.644531 5.777344 5.21875 5.703125 5.78125 C 7.328125 5.476562 9 5.476562 10.625 5.78125 C 10.550781 5.21875 10.550781 4.644531 10.625 4.078125 Z M 10.625 4.078125 "/>
<path style=" stroke:none;fill-rule:nonzero;fill:rgb(90.980392%,6.666667%,17.647059%);fill-opacity:1;" d="M 28.972656 17.640625 C 29.28125 19.246094 29.28125 20.890625 28.972656 22.496094 C 29.546875 22.425781 30.125 22.425781 30.699219 22.496094 C 30.390625 20.890625 30.390625 19.246094 30.699219 17.640625 C 30.125 17.710938 29.546875 17.710938 28.972656 17.640625 Z M 28.972656 17.640625 "/>
<path style=" stroke:none;fill-rule:nonzero;fill:rgb(90.980392%,6.666667%,17.647059%);fill-opacity:1;" d="M 32.296875 19.21875 C 30.671875 19.523438 29 19.523438 27.375 19.21875 C 27.449219 19.78125 27.449219 20.355469 27.375 20.921875 C 29 20.613281 30.671875 20.613281 32.296875 20.921875 C 32.222656 20.355469 32.222656 19.78125 32.296875 19.21875 Z M 32.296875 19.21875 "/>
<path style=" stroke:none;fill-rule:nonzero;fill:rgb(90.980392%,6.666667%,17.647059%);fill-opacity:1;" d="M 28.972656 2.503906 C 29.28125 4.109375 29.28125 5.753906 28.972656 7.359375 C 29.546875 7.289062 30.125 7.289062 30.699219 7.359375 C 30.390625 5.753906 30.390625 4.109375 30.699219 2.503906 C 30.125 2.574219 29.546875 2.574219 28.972656 2.503906 Z M 28.972656 2.503906 "/>
<path style=" stroke:none;fill-rule:nonzero;fill:rgb(90.980392%,6.666667%,17.647059%);fill-opacity:1;" d="M 32.296875 4.078125 C 30.671875 4.386719 29 4.386719 27.375 4.078125 C 27.449219 4.644531 27.449219 5.21875 27.375 5.78125 C 29 5.476562 30.671875 5.476562 32.296875 5.78125 C 32.222656 5.21875 32.222656 4.644531 32.296875 4.078125 Z M 32.296875 4.078125 "/>
<path style=" stroke:none;fill-rule:nonzero;fill:rgb(90.980392%,6.666667%,17.647059%);fill-opacity:1;" d="M 7.300781 17.640625 C 7.609375 19.246094 7.609375 20.890625 7.300781 22.496094 C 7.875 22.425781 8.453125 22.425781 9.027344 22.496094 C 8.71875 20.890625 8.71875 19.246094 9.027344 17.640625 C 8.453125 17.710938 7.875 17.710938 7.300781 17.640625 Z M 7.300781 17.640625 "/>
<path style=" stroke:none;fill-rule:nonzero;fill:rgb(90.980392%,6.666667%,17.647059%);fill-opacity:1;" d="M 10.625 19.21875 C 9 19.523438 7.328125 19.523438 5.703125 19.21875 C 5.777344 19.78125 5.777344 20.355469 5.703125 20.921875 C 7.328125 20.613281 9 20.613281 10.625 20.921875 C 10.550781 20.355469 10.550781 19.78125 10.625 19.21875 Z M 10.625 19.21875 "/>
</g>
</svg>
