<?xml version="1.0" encoding="UTF-8"?>
<svg xmlns="http://www.w3.org/2000/svg" xmlns:xlink="http://www.w3.org/1999/xlink" width="42pt" height="25pt" viewBox="0 0 42 25" version="1.1">
<g id="surface1">
<rect x="0" y="0" width="42" height="25" style="fill:rgb(80.784314%,6.666667%,14.901961%);fill-opacity:1;stroke:none;"/>
<path style=" stroke:none;fill-rule:nonzero;fill:rgb(0%,47.843137%,36.862745%);fill-opacity:1;" d="M 3.527344 3.5 L 38.472656 3.5 L 38.472656 21.5 L 3.527344 21.5 Z M 3.527344 3.5 "/>
<path style=" stroke:none;fill-rule:nonzero;fill:rgb(98.823529%,81.960784%,8.627451%);fill-opacity:1;" d="M 3.527344 3.5 L 38.472656 3.5 L 3.527344 21.5 L 38.472656 21.5 Z M 3.527344 3.5 "/>
<path style=" stroke:none;fill-rule:nonzero;fill:rgb(80.784314%,6.666667%,14.901961%);fill-opacity:1;" d="M 24.023438 12.5 C 24.023438 14.15625 22.671875 15.5 21 15.5 C 19.328125 15.5 17.976562 14.15625 17.976562 12.5 C 17.976562 10.84375 19.328125 9.5 21 9.5 C 22.671875 9.5 24.023438 10.84375 24.023438 12.5 Z M 24.023438 12.5 "/>
<path style=" stroke:none;fill-rule:nonzero;fill:rgb(98.823529%,81.960784%,8.627451%);fill-opacity:1;" d="M 21 9.75 L 20.144531 12.367188 L 21.460938 12.789062 "/>
<path style=" stroke:none;fill-rule:nonzero;fill:rgb(98.823529%,81.960784%,8.627451%);fill-opacity:1;" d="M 21 9.75 L 21.855469 12.367188 L 20.539062 12.789062 "/>
<path style=" stroke:none;fill-rule:nonzero;fill:rgb(98.823529%,81.960784%,8.627451%);fill-opacity:1;" d="M 23.636719 11.648438 L 20.863281 11.648438 L 20.863281 13.023438 "/>
<path style=" stroke:none;fill-rule:nonzero;fill:rgb(98.823529%,81.960784%,8.627451%);fill-opacity:1;" d="M 23.636719 11.648438 L 21.394531 13.265625 L 20.578125 12.152344 "/>
<path style=" stroke:none;fill-rule:nonzero;fill:rgb(98.823529%,81.960784%,8.627451%);fill-opacity:1;" d="M 22.628906 14.726562 L 21.773438 12.109375 L 20.453125 12.535156 "/>
<path style=" stroke:none;fill-rule:nonzero;fill:rgb(98.823529%,81.960784%,8.627451%);fill-opacity:1;" d="M 22.628906 14.726562 L 20.386719 13.109375 L 21.203125 11.996094 "/>
<path style=" stroke:none;fill-rule:nonzero;fill:rgb(98.823529%,81.960784%,8.627451%);fill-opacity:1;" d="M 19.371094 14.726562 L 21.613281 13.109375 L 20.796875 11.996094 "/>
<path style=" stroke:none;fill-rule:nonzero;fill:rgb(98.823529%,81.960784%,8.627451%);fill-opacity:1;" d="M 19.371094 14.726562 L 20.226562 12.109375 L 21.546875 12.535156 "/>
<path style=" stroke:none;fill-rule:nonzero;fill:rgb(98.823529%,81.960784%,8.627451%);fill-opacity:1;" d="M 18.363281 11.648438 L 20.605469 13.265625 L 21.421875 12.152344 "/>
<path style=" stroke:none;fill-rule:nonzero;fill:rgb(98.823529%,81.960784%,8.627451%);fill-opacity:1;" d="M 18.363281 11.648438 L 21.136719 11.648438 L 21.136719 13.023438 "/>
<path style=" stroke:none;fill-rule:nonzero;fill:rgb(98.823529%,81.960784%,8.627451%);fill-opacity:1;" d="M 12.601562 0.125 L 12.09375 1.671875 L 12.871094 1.921875 "/>
<path style=" stroke:none;fill-rule:nonzero;fill:rgb(98.823529%,81.960784%,8.627451%);fill-opacity:1;" d="M 12.601562 0.125 L 13.105469 1.671875 L 12.328125 1.921875 "/>
<path style=" stroke:none;fill-rule:nonzero;fill:rgb(98.823529%,81.960784%,8.627451%);fill-opacity:1;" d="M 14.15625 1.246094 L 12.519531 1.246094 L 12.519531 2.058594 "/>
<path style=" stroke:none;fill-rule:nonzero;fill:rgb(98.823529%,81.960784%,8.627451%);fill-opacity:1;" d="M 14.15625 1.246094 L 12.832031 2.203125 L 12.351562 1.546875 "/>
<path style=" stroke:none;fill-rule:nonzero;fill:rgb(98.823529%,81.960784%,8.627451%);fill-opacity:1;" d="M 13.5625 3.066406 L 13.054688 1.519531 L 12.277344 1.769531 "/>
<path style=" stroke:none;fill-rule:nonzero;fill:rgb(98.823529%,81.960784%,8.627451%);fill-opacity:1;" d="M 13.5625 3.066406 L 12.238281 2.109375 L 12.71875 1.453125 "/>
<path style=" stroke:none;fill-rule:nonzero;fill:rgb(98.823529%,81.960784%,8.627451%);fill-opacity:1;" d="M 11.636719 3.066406 L 12.960938 2.109375 L 12.480469 1.453125 "/>
<path style=" stroke:none;fill-rule:nonzero;fill:rgb(98.823529%,81.960784%,8.627451%);fill-opacity:1;" d="M 11.636719 3.066406 L 12.144531 1.519531 L 12.921875 1.769531 "/>
<path style=" stroke:none;fill-rule:nonzero;fill:rgb(98.823529%,81.960784%,8.627451%);fill-opacity:1;" d="M 11.042969 1.246094 L 12.367188 2.203125 L 12.847656 1.546875 "/>
<path style=" stroke:none;fill-rule:nonzero;fill:rgb(98.823529%,81.960784%,8.627451%);fill-opacity:1;" d="M 11.042969 1.246094 L 12.679688 1.246094 L 12.679688 2.058594 "/>
<path style=" stroke:none;fill-rule:nonzero;fill:rgb(98.823529%,81.960784%,8.627451%);fill-opacity:1;" d="M 21 0.125 L 20.492188 1.671875 L 21.273438 1.921875 "/>
<path style=" stroke:none;fill-rule:nonzero;fill:rgb(98.823529%,81.960784%,8.627451%);fill-opacity:1;" d="M 21 0.125 L 21.507812 1.671875 L 20.726562 1.921875 "/>
<path style=" stroke:none;fill-rule:nonzero;fill:rgb(98.823529%,81.960784%,8.627451%);fill-opacity:1;" d="M 22.558594 1.246094 L 20.917969 1.246094 L 20.917969 2.058594 "/>
<path style=" stroke:none;fill-rule:nonzero;fill:rgb(98.823529%,81.960784%,8.627451%);fill-opacity:1;" d="M 22.558594 1.246094 L 21.234375 2.203125 L 20.75 1.546875 "/>
<path style=" stroke:none;fill-rule:nonzero;fill:rgb(98.823529%,81.960784%,8.627451%);fill-opacity:1;" d="M 21.960938 3.066406 L 21.457031 1.519531 L 20.675781 1.769531 "/>
<path style=" stroke:none;fill-rule:nonzero;fill:rgb(98.823529%,81.960784%,8.627451%);fill-opacity:1;" d="M 21.960938 3.066406 L 20.636719 2.109375 L 21.117188 1.453125 "/>
<path style=" stroke:none;fill-rule:nonzero;fill:rgb(98.823529%,81.960784%,8.627451%);fill-opacity:1;" d="M 20.039062 3.066406 L 21.363281 2.109375 L 20.882812 1.453125 "/>
<path style=" stroke:none;fill-rule:nonzero;fill:rgb(98.823529%,81.960784%,8.627451%);fill-opacity:1;" d="M 20.039062 3.066406 L 20.542969 1.519531 L 21.324219 1.769531 "/>
<path style=" stroke:none;fill-rule:nonzero;fill:rgb(98.823529%,81.960784%,8.627451%);fill-opacity:1;" d="M 19.441406 1.246094 L 20.765625 2.203125 L 21.25 1.546875 "/>
<path style=" stroke:none;fill-rule:nonzero;fill:rgb(98.823529%,81.960784%,8.627451%);fill-opacity:1;" d="M 19.441406 1.246094 L 21.082031 1.246094 L 21.082031 2.058594 "/>
<path style=" stroke:none;fill-rule:nonzero;fill:rgb(98.823529%,81.960784%,8.627451%);fill-opacity:1;" d="M 29.398438 0.125 L 28.894531 1.671875 L 29.671875 1.921875 "/>
<path style=" stroke:none;fill-rule:nonzero;fill:rgb(98.823529%,81.960784%,8.627451%);fill-opacity:1;" d="M 29.398438 0.125 L 29.90625 1.671875 L 29.128906 1.921875 "/>
<path style=" stroke:none;fill-rule:nonzero;fill:rgb(98.823529%,81.960784%,8.627451%);fill-opacity:1;" d="M 30.957031 1.246094 L 29.320312 1.246094 L 29.320312 2.058594 "/>
<path style=" stroke:none;fill-rule:nonzero;fill:rgb(98.823529%,81.960784%,8.627451%);fill-opacity:1;" d="M 30.957031 1.246094 L 29.632812 2.203125 L 29.152344 1.546875 "/>
<path style=" stroke:none;fill-rule:nonzero;fill:rgb(98.823529%,81.960784%,8.627451%);fill-opacity:1;" d="M 30.363281 3.066406 L 29.855469 1.519531 L 29.078125 1.769531 "/>
<path style=" stroke:none;fill-rule:nonzero;fill:rgb(98.823529%,81.960784%,8.627451%);fill-opacity:1;" d="M 30.363281 3.066406 L 29.039062 2.109375 L 29.519531 1.453125 "/>
<path style=" stroke:none;fill-rule:nonzero;fill:rgb(98.823529%,81.960784%,8.627451%);fill-opacity:1;" d="M 28.4375 3.066406 L 29.761719 2.109375 L 29.28125 1.453125 "/>
<path style=" stroke:none;fill-rule:nonzero;fill:rgb(98.823529%,81.960784%,8.627451%);fill-opacity:1;" d="M 28.4375 3.066406 L 28.945312 1.519531 L 29.722656 1.769531 "/>
<path style=" stroke:none;fill-rule:nonzero;fill:rgb(98.823529%,81.960784%,8.627451%);fill-opacity:1;" d="M 27.84375 1.246094 L 29.167969 2.203125 L 29.648438 1.546875 "/>
<path style=" stroke:none;fill-rule:nonzero;fill:rgb(98.823529%,81.960784%,8.627451%);fill-opacity:1;" d="M 27.84375 1.246094 L 29.480469 1.246094 L 29.480469 2.058594 "/>
<path style=" stroke:none;fill-rule:nonzero;fill:rgb(98.823529%,81.960784%,8.627451%);fill-opacity:1;" d="M 12.601562 21.625 L 12.09375 23.171875 L 12.871094 23.421875 "/>
<path style=" stroke:none;fill-rule:nonzero;fill:rgb(98.823529%,81.960784%,8.627451%);fill-opacity:1;" d="M 12.601562 21.625 L 13.105469 23.171875 L 12.328125 23.421875 "/>
<path style=" stroke:none;fill-rule:nonzero;fill:rgb(98.823529%,81.960784%,8.627451%);fill-opacity:1;" d="M 14.15625 22.746094 L 12.519531 22.746094 L 12.519531 23.558594 "/>
<path style=" stroke:none;fill-rule:nonzero;fill:rgb(98.823529%,81.960784%,8.627451%);fill-opacity:1;" d="M 14.15625 22.746094 L 12.832031 23.703125 L 12.351562 23.046875 "/>
<path style=" stroke:none;fill-rule:nonzero;fill:rgb(98.823529%,81.960784%,8.627451%);fill-opacity:1;" d="M 13.5625 24.566406 L 13.054688 23.019531 L 12.277344 23.269531 "/>
<path style=" stroke:none;fill-rule:nonzero;fill:rgb(98.823529%,81.960784%,8.627451%);fill-opacity:1;" d="M 13.5625 24.566406 L 12.238281 23.609375 L 12.71875 22.953125 "/>
<path style=" stroke:none;fill-rule:nonzero;fill:rgb(98.823529%,81.960784%,8.627451%);fill-opacity:1;" d="M 11.636719 24.566406 L 12.960938 23.609375 L 12.480469 22.953125 "/>
<path style=" stroke:none;fill-rule:nonzero;fill:rgb(98.823529%,81.960784%,8.627451%);fill-opacity:1;" d="M 11.636719 24.566406 L 12.144531 23.019531 L 12.921875 23.269531 "/>
<path style=" stroke:none;fill-rule:nonzero;fill:rgb(98.823529%,81.960784%,8.627451%);fill-opacity:1;" d="M 11.042969 22.746094 L 12.367188 23.703125 L 12.847656 23.046875 "/>
<path style=" stroke:none;fill-rule:nonzero;fill:rgb(98.823529%,81.960784%,8.627451%);fill-opacity:1;" d="M 11.042969 22.746094 L 12.679688 22.746094 L 12.679688 23.558594 "/>
<path style=" stroke:none;fill-rule:nonzero;fill:rgb(98.823529%,81.960784%,8.627451%);fill-opacity:1;" d="M 21 21.625 L 20.492188 23.171875 L 21.273438 23.421875 "/>
<path style=" stroke:none;fill-rule:nonzero;fill:rgb(98.823529%,81.960784%,8.627451%);fill-opacity:1;" d="M 21 21.625 L 21.507812 23.171875 L 20.726562 23.421875 "/>
<path style=" stroke:none;fill-rule:nonzero;fill:rgb(98.823529%,81.960784%,8.627451%);fill-opacity:1;" d="M 22.558594 22.746094 L 20.917969 22.746094 L 20.917969 23.558594 "/>
<path style=" stroke:none;fill-rule:nonzero;fill:rgb(98.823529%,81.960784%,8.627451%);fill-opacity:1;" d="M 22.558594 22.746094 L 21.234375 23.703125 L 20.75 23.046875 "/>
<path style=" stroke:none;fill-rule:nonzero;fill:rgb(98.823529%,81.960784%,8.627451%);fill-opacity:1;" d="M 21.960938 24.566406 L 21.457031 23.019531 L 20.675781 23.269531 "/>
<path style=" stroke:none;fill-rule:nonzero;fill:rgb(98.823529%,81.960784%,8.627451%);fill-opacity:1;" d="M 21.960938 24.566406 L 20.636719 23.609375 L 21.117188 22.953125 "/>
<path style=" stroke:none;fill-rule:nonzero;fill:rgb(98.823529%,81.960784%,8.627451%);fill-opacity:1;" d="M 20.039062 24.566406 L 21.363281 23.609375 L 20.882812 22.953125 "/>
<path style=" stroke:none;fill-rule:nonzero;fill:rgb(98.823529%,81.960784%,8.627451%);fill-opacity:1;" d="M 20.039062 24.566406 L 20.542969 23.019531 L 21.324219 23.269531 "/>
<path style=" stroke:none;fill-rule:nonzero;fill:rgb(98.823529%,81.960784%,8.627451%);fill-opacity:1;" d="M 19.441406 22.746094 L 20.765625 23.703125 L 21.25 23.046875 "/>
<path style=" stroke:none;fill-rule:nonzero;fill:rgb(98.823529%,81.960784%,8.627451%);fill-opacity:1;" d="M 19.441406 22.746094 L 21.082031 22.746094 L 21.082031 23.558594 "/>
<path style=" stroke:none;fill-rule:nonzero;fill:rgb(98.823529%,81.960784%,8.627451%);fill-opacity:1;" d="M 29.398438 21.625 L 28.894531 23.171875 L 29.671875 23.421875 "/>
<path style=" stroke:none;fill-rule:nonzero;fill:rgb(98.823529%,81.960784%,8.627451%);fill-opacity:1;" d="M 29.398438 21.625 L 29.90625 23.171875 L 29.128906 23.421875 "/>
<path style=" stroke:none;fill-rule:nonzero;fill:rgb(98.823529%,81.960784%,8.627451%);fill-opacity:1;" d="M 30.957031 22.746094 L 29.320312 22.746094 L 29.320312 23.558594 "/>
<path style=" stroke:none;fill-rule:nonzero;fill:rgb(98.823529%,81.960784%,8.627451%);fill-opacity:1;" d="M 30.957031 22.746094 L 29.632812 23.703125 L 29.152344 23.046875 "/>
<path style=" stroke:none;fill-rule:nonzero;fill:rgb(98.823529%,81.960784%,8.627451%);fill-opacity:1;" d="M 30.363281 24.566406 L 29.855469 23.019531 L 29.078125 23.269531 "/>
<path style=" stroke:none;fill-rule:nonzero;fill:rgb(98.823529%,81.960784%,8.627451%);fill-opacity:1;" d="M 30.363281 24.566406 L 29.039062 23.609375 L 29.519531 22.953125 "/>
<path style=" stroke:none;fill-rule:nonzero;fill:rgb(98.823529%,81.960784%,8.627451%);fill-opacity:1;" d="M 28.4375 24.566406 L 29.761719 23.609375 L 29.28125 22.953125 "/>
<path style=" stroke:none;fill-rule:nonzero;fill:rgb(98.823529%,81.960784%,8.627451%);fill-opacity:1;" d="M 28.4375 24.566406 L 28.945312 23.019531 L 29.722656 23.269531 "/>
<path style=" stroke:none;fill-rule:nonzero;fill:rgb(98.823529%,81.960784%,8.627451%);fill-opacity:1;" d="M 27.84375 22.746094 L 29.167969 23.703125 L 29.648438 23.046875 "/>
<path style=" stroke:none;fill-rule:nonzero;fill:rgb(98.823529%,81.960784%,8.627451%);fill-opacity:1;" d="M 27.84375 22.746094 L 29.480469 22.746094 L 29.480469 23.558594 "/>
<path style=" stroke:none;fill-rule:nonzero;fill:rgb(80.784314%,6.666667%,14.901961%);fill-opacity:1;" d="M 5.691406 12.535156 C 6.070312 13.234375 6.804688 13.996094 7.449219 14.261719 C 7.457031 13.550781 7.203125 12.640625 6.855469 11.917969 Z M 5.691406 12.535156 "/>
<path style=" stroke:none;fill-rule:nonzero;fill:rgb(98.823529%,81.960784%,8.627451%);fill-opacity:1;" d="M 5.050781 10.136719 C 5.597656 11.269531 3.628906 13.976562 6.910156 14.609375 C 6.503906 14.0625 6.246094 13.15625 6.34375 12.429688 C 7.03125 12.691406 7.757812 13.449219 8.050781 14.03125 C 8.910156 10.9375 5.84375 11.125 5.050781 10.136719 Z M 5.050781 10.136719 "/>
</g>
</svg>
