<?xml version="1.0" encoding="UTF-8"?>
<svg xmlns="http://www.w3.org/2000/svg" xmlns:xlink="http://www.w3.org/1999/xlink" width="50pt" height="25pt" viewBox="0 0 50 25" version="1.1">
<g id="surface1">
<path style=" stroke:none;fill-rule:nonzero;fill:rgb(80.784314%,6.666667%,14.901961%);fill-opacity:1;" d="M 0 0 L 16.667969 0 L 16.667969 25 L 0 25 Z M 0 0 "/>
<path style=" stroke:none;fill-rule:nonzero;fill:rgb(98.823529%,81.960784%,8.627451%);fill-opacity:1;" d="M 16.667969 0 L 50 0 L 50 12.5 L 16.667969 12.5 Z M 16.667969 0 "/>
<path style=" stroke:none;fill-rule:nonzero;fill:rgb(0%,61.960784%,28.627451%);fill-opacity:1;" d="M 16.667969 12.5 L 50 12.5 L 50 25 L 16.667969 25 Z M 16.667969 12.5 "/>
<path style=" stroke:none;fill-rule:nonzero;fill:rgb(0%,0%,0%);fill-opacity:1;" d="M 8.332031 8.332031 L 7.046875 12.296875 L 9.027344 12.941406 "/>
<path style=" stroke:none;fill-rule:nonzero;fill:rgb(0%,0%,0%);fill-opacity:1;" d="M 8.332031 8.332031 L 9.621094 12.296875 L 7.640625 12.941406 "/>
<path style=" stroke:none;fill-rule:nonzero;fill:rgb(0%,0%,0%);fill-opacity:1;" d="M 12.296875 11.210938 L 8.128906 11.210938 L 8.128906 13.296875 "/>
<path style=" stroke:none;fill-rule:nonzero;fill:rgb(0%,0%,0%);fill-opacity:1;" d="M 12.296875 11.210938 L 8.925781 13.660156 L 7.699219 11.976562 "/>
<path style=" stroke:none;fill-rule:nonzero;fill:rgb(0%,0%,0%);fill-opacity:1;" d="M 10.78125 15.871094 L 9.496094 11.90625 L 7.511719 12.550781 "/>
<path style=" stroke:none;fill-rule:nonzero;fill:rgb(0%,0%,0%);fill-opacity:1;" d="M 10.78125 15.871094 L 7.410156 13.421875 L 8.636719 11.738281 "/>
<path style=" stroke:none;fill-rule:nonzero;fill:rgb(0%,0%,0%);fill-opacity:1;" d="M 5.882812 15.871094 L 9.253906 13.421875 L 8.03125 11.738281 "/>
<path style=" stroke:none;fill-rule:nonzero;fill:rgb(0%,0%,0%);fill-opacity:1;" d="M 5.882812 15.871094 L 7.171875 11.90625 L 9.152344 12.550781 "/>
<path style=" stroke:none;fill-rule:nonzero;fill:rgb(0%,0%,0%);fill-opacity:1;" d="M 4.371094 11.210938 L 7.742188 13.660156 L 8.964844 11.976562 "/>
<path style=" stroke:none;fill-rule:nonzero;fill:rgb(0%,0%,0%);fill-opacity:1;" d="M 4.371094 11.210938 L 8.539062 11.210938 L 8.539062 13.296875 "/>
</g>
</svg>
