<?xml version="1.0" encoding="UTF-8"?>
<svg xmlns="http://www.w3.org/2000/svg" xmlns:xlink="http://www.w3.org/1999/xlink" width="50pt" height="25pt" viewBox="0 0 50 25" version="1.1">
<g id="surface1">
<rect x="0" y="0" width="50" height="25" style="fill:rgb(0%,45.098039%,81.176471%);fill-opacity:1;stroke:none;"/>
<path style=" stroke:none;fill-rule:nonzero;fill:rgb(100%,100%,100%);fill-opacity:1;" d="M 0 8.332031 L 50 8.332031 L 50 16.667969 L 0 16.667969 Z M 0 8.332031 "/>
<path style=" stroke:none;fill-rule:nonzero;fill:rgb(0%,45.098039%,81.176471%);fill-opacity:1;" d="M 25 11.109375 L 24.570312 12.433594 L 25.230469 12.648438 Z M 25 11.109375 "/>
<path style=" stroke:none;fill-rule:nonzero;fill:rgb(0%,45.098039%,81.176471%);fill-opacity:1;" d="M 25 11.109375 L 25.429688 12.433594 L 24.769531 12.648438 Z M 25 11.109375 "/>
<path style=" stroke:none;fill-rule:nonzero;fill:rgb(0%,45.098039%,81.176471%);fill-opacity:1;" d="M 26.320312 12.070312 L 24.933594 12.070312 L 24.933594 12.765625 Z M 26.320312 12.070312 "/>
<path style=" stroke:none;fill-rule:nonzero;fill:rgb(0%,45.098039%,81.176471%);fill-opacity:1;" d="M 26.320312 12.070312 L 25.199219 12.886719 L 24.789062 12.324219 Z M 26.320312 12.070312 "/>
<path style=" stroke:none;fill-rule:nonzero;fill:rgb(0%,45.098039%,81.176471%);fill-opacity:1;" d="M 23.679688 12.070312 L 24.800781 12.886719 L 25.210938 12.324219 Z M 23.679688 12.070312 "/>
<path style=" stroke:none;fill-rule:nonzero;fill:rgb(0%,45.098039%,81.176471%);fill-opacity:1;" d="M 23.679688 12.070312 L 25.066406 12.070312 L 25.066406 12.765625 Z M 23.679688 12.070312 "/>
<path style=" stroke:none;fill-rule:nonzero;fill:rgb(0%,45.098039%,81.176471%);fill-opacity:1;" d="M 25.816406 13.625 L 25.386719 12.300781 L 24.726562 12.515625 Z M 25.816406 13.625 "/>
<path style=" stroke:none;fill-rule:nonzero;fill:rgb(0%,45.098039%,81.176471%);fill-opacity:1;" d="M 25.816406 13.625 L 24.691406 12.808594 L 25.101562 12.246094 Z M 25.816406 13.625 "/>
<path style=" stroke:none;fill-rule:nonzero;fill:rgb(0%,45.098039%,81.176471%);fill-opacity:1;" d="M 24.183594 13.625 L 25.308594 12.808594 L 24.898438 12.246094 Z M 24.183594 13.625 "/>
<path style=" stroke:none;fill-rule:nonzero;fill:rgb(0%,45.098039%,81.176471%);fill-opacity:1;" d="M 24.183594 13.625 L 24.613281 12.300781 L 25.273438 12.515625 Z M 24.183594 13.625 "/>
<path style=" stroke:none;fill-rule:nonzero;fill:rgb(0%,45.098039%,81.176471%);fill-opacity:1;" d="M 31.945312 8.890625 L 31.515625 10.210938 L 32.175781 10.425781 Z M 31.945312 8.890625 "/>
<path style=" stroke:none;fill-rule:nonzero;fill:rgb(0%,45.098039%,81.176471%);fill-opacity:1;" d="M 31.945312 8.890625 L 32.375 10.210938 L 31.714844 10.425781 Z M 31.945312 8.890625 "/>
<path style=" stroke:none;fill-rule:nonzero;fill:rgb(0%,45.098039%,81.176471%);fill-opacity:1;" d="M 33.265625 9.847656 L 31.875 9.847656 L 31.875 10.542969 Z M 33.265625 9.847656 "/>
<path style=" stroke:none;fill-rule:nonzero;fill:rgb(0%,45.098039%,81.176471%);fill-opacity:1;" d="M 33.265625 9.847656 L 32.140625 10.664062 L 31.734375 10.101562 Z M 33.265625 9.847656 "/>
<path style=" stroke:none;fill-rule:nonzero;fill:rgb(0%,45.098039%,81.176471%);fill-opacity:1;" d="M 30.625 9.847656 L 31.746094 10.664062 L 32.15625 10.101562 Z M 30.625 9.847656 "/>
<path style=" stroke:none;fill-rule:nonzero;fill:rgb(0%,45.098039%,81.176471%);fill-opacity:1;" d="M 30.625 9.847656 L 32.011719 9.847656 L 32.011719 10.542969 Z M 30.625 9.847656 "/>
<path style=" stroke:none;fill-rule:nonzero;fill:rgb(0%,45.098039%,81.176471%);fill-opacity:1;" d="M 32.761719 11.402344 L 32.332031 10.082031 L 31.671875 10.296875 Z M 32.761719 11.402344 "/>
<path style=" stroke:none;fill-rule:nonzero;fill:rgb(0%,45.098039%,81.176471%);fill-opacity:1;" d="M 32.761719 11.402344 L 31.636719 10.585938 L 32.046875 10.023438 Z M 32.761719 11.402344 "/>
<path style=" stroke:none;fill-rule:nonzero;fill:rgb(0%,45.098039%,81.176471%);fill-opacity:1;" d="M 31.128906 11.402344 L 32.25 10.585938 L 31.84375 10.023438 Z M 31.128906 11.402344 "/>
<path style=" stroke:none;fill-rule:nonzero;fill:rgb(0%,45.098039%,81.176471%);fill-opacity:1;" d="M 31.128906 11.402344 L 31.558594 10.082031 L 32.21875 10.296875 Z M 31.128906 11.402344 "/>
<path style=" stroke:none;fill-rule:nonzero;fill:rgb(0%,45.098039%,81.176471%);fill-opacity:1;" d="M 31.945312 13.054688 L 31.515625 14.375 L 32.175781 14.589844 Z M 31.945312 13.054688 "/>
<path style=" stroke:none;fill-rule:nonzero;fill:rgb(0%,45.098039%,81.176471%);fill-opacity:1;" d="M 31.945312 13.054688 L 32.375 14.375 L 31.714844 14.589844 Z M 31.945312 13.054688 "/>
<path style=" stroke:none;fill-rule:nonzero;fill:rgb(0%,45.098039%,81.176471%);fill-opacity:1;" d="M 33.265625 14.015625 L 31.875 14.015625 L 31.875 14.710938 Z M 33.265625 14.015625 "/>
<path style=" stroke:none;fill-rule:nonzero;fill:rgb(0%,45.098039%,81.176471%);fill-opacity:1;" d="M 33.265625 14.015625 L 32.140625 14.832031 L 31.734375 14.269531 Z M 33.265625 14.015625 "/>
<path style=" stroke:none;fill-rule:nonzero;fill:rgb(0%,45.098039%,81.176471%);fill-opacity:1;" d="M 30.625 14.015625 L 31.746094 14.832031 L 32.15625 14.269531 Z M 30.625 14.015625 "/>
<path style=" stroke:none;fill-rule:nonzero;fill:rgb(0%,45.098039%,81.176471%);fill-opacity:1;" d="M 30.625 14.015625 L 32.011719 14.015625 L 32.011719 14.710938 Z M 30.625 14.015625 "/>
<path style=" stroke:none;fill-rule:nonzero;fill:rgb(0%,45.098039%,81.176471%);fill-opacity:1;" d="M 32.761719 15.566406 L 32.332031 14.246094 L 31.671875 14.460938 Z M 32.761719 15.566406 "/>
<path style=" stroke:none;fill-rule:nonzero;fill:rgb(0%,45.098039%,81.176471%);fill-opacity:1;" d="M 32.761719 15.566406 L 31.636719 14.75 L 32.046875 14.191406 Z M 32.761719 15.566406 "/>
<path style=" stroke:none;fill-rule:nonzero;fill:rgb(0%,45.098039%,81.176471%);fill-opacity:1;" d="M 31.128906 15.566406 L 32.25 14.75 L 31.84375 14.191406 Z M 31.128906 15.566406 "/>
<path style=" stroke:none;fill-rule:nonzero;fill:rgb(0%,45.098039%,81.176471%);fill-opacity:1;" d="M 31.128906 15.566406 L 31.558594 14.246094 L 32.21875 14.460938 Z M 31.128906 15.566406 "/>
<path style=" stroke:none;fill-rule:nonzero;fill:rgb(0%,45.098039%,81.176471%);fill-opacity:1;" d="M 18.054688 8.890625 L 17.625 10.210938 L 18.285156 10.425781 Z M 18.054688 8.890625 "/>
<path style=" stroke:none;fill-rule:nonzero;fill:rgb(0%,45.098039%,81.176471%);fill-opacity:1;" d="M 18.054688 8.890625 L 18.484375 10.210938 L 17.824219 10.425781 Z M 18.054688 8.890625 "/>
<path style=" stroke:none;fill-rule:nonzero;fill:rgb(0%,45.098039%,81.176471%);fill-opacity:1;" d="M 19.375 9.847656 L 17.988281 9.847656 L 17.988281 10.542969 Z M 19.375 9.847656 "/>
<path style=" stroke:none;fill-rule:nonzero;fill:rgb(0%,45.098039%,81.176471%);fill-opacity:1;" d="M 19.375 9.847656 L 18.253906 10.664062 L 17.84375 10.101562 Z M 19.375 9.847656 "/>
<path style=" stroke:none;fill-rule:nonzero;fill:rgb(0%,45.098039%,81.176471%);fill-opacity:1;" d="M 16.734375 9.847656 L 17.859375 10.664062 L 18.265625 10.101562 Z M 16.734375 9.847656 "/>
<path style=" stroke:none;fill-rule:nonzero;fill:rgb(0%,45.098039%,81.176471%);fill-opacity:1;" d="M 16.734375 9.847656 L 18.125 9.847656 L 18.125 10.542969 Z M 16.734375 9.847656 "/>
<path style=" stroke:none;fill-rule:nonzero;fill:rgb(0%,45.098039%,81.176471%);fill-opacity:1;" d="M 18.871094 11.402344 L 18.441406 10.082031 L 17.78125 10.296875 Z M 18.871094 11.402344 "/>
<path style=" stroke:none;fill-rule:nonzero;fill:rgb(0%,45.098039%,81.176471%);fill-opacity:1;" d="M 18.871094 11.402344 L 17.75 10.585938 L 18.15625 10.023438 Z M 18.871094 11.402344 "/>
<path style=" stroke:none;fill-rule:nonzero;fill:rgb(0%,45.098039%,81.176471%);fill-opacity:1;" d="M 17.238281 11.402344 L 18.363281 10.585938 L 17.953125 10.023438 Z M 17.238281 11.402344 "/>
<path style=" stroke:none;fill-rule:nonzero;fill:rgb(0%,45.098039%,81.176471%);fill-opacity:1;" d="M 17.238281 11.402344 L 17.667969 10.082031 L 18.328125 10.296875 Z M 17.238281 11.402344 "/>
<path style=" stroke:none;fill-rule:nonzero;fill:rgb(0%,45.098039%,81.176471%);fill-opacity:1;" d="M 18.054688 13.054688 L 17.625 14.375 L 18.285156 14.589844 Z M 18.054688 13.054688 "/>
<path style=" stroke:none;fill-rule:nonzero;fill:rgb(0%,45.098039%,81.176471%);fill-opacity:1;" d="M 18.054688 13.054688 L 18.484375 14.375 L 17.824219 14.589844 Z M 18.054688 13.054688 "/>
<path style=" stroke:none;fill-rule:nonzero;fill:rgb(0%,45.098039%,81.176471%);fill-opacity:1;" d="M 19.375 14.015625 L 17.988281 14.015625 L 17.988281 14.710938 Z M 19.375 14.015625 "/>
<path style=" stroke:none;fill-rule:nonzero;fill:rgb(0%,45.098039%,81.176471%);fill-opacity:1;" d="M 19.375 14.015625 L 18.253906 14.832031 L 17.84375 14.269531 Z M 19.375 14.015625 "/>
<path style=" stroke:none;fill-rule:nonzero;fill:rgb(0%,45.098039%,81.176471%);fill-opacity:1;" d="M 16.734375 14.015625 L 17.859375 14.832031 L 18.265625 14.269531 Z M 16.734375 14.015625 "/>
<path style=" stroke:none;fill-rule:nonzero;fill:rgb(0%,45.098039%,81.176471%);fill-opacity:1;" d="M 16.734375 14.015625 L 18.125 14.015625 L 18.125 14.710938 Z M 16.734375 14.015625 "/>
<path style=" stroke:none;fill-rule:nonzero;fill:rgb(0%,45.098039%,81.176471%);fill-opacity:1;" d="M 18.871094 15.566406 L 18.441406 14.246094 L 17.78125 14.460938 Z M 18.871094 15.566406 "/>
<path style=" stroke:none;fill-rule:nonzero;fill:rgb(0%,45.098039%,81.176471%);fill-opacity:1;" d="M 18.871094 15.566406 L 17.75 14.75 L 18.15625 14.191406 Z M 18.871094 15.566406 "/>
<path style=" stroke:none;fill-rule:nonzero;fill:rgb(0%,45.098039%,81.176471%);fill-opacity:1;" d="M 17.238281 15.566406 L 18.363281 14.75 L 17.953125 14.191406 Z M 17.238281 15.566406 "/>
<path style=" stroke:none;fill-rule:nonzero;fill:rgb(0%,45.098039%,81.176471%);fill-opacity:1;" d="M 17.238281 15.566406 L 17.667969 14.246094 L 18.328125 14.460938 Z M 17.238281 15.566406 "/>
</g>
</svg>
