<?xml version="1.0" encoding="UTF-8"?>
<svg xmlns="http://www.w3.org/2000/svg" xmlns:xlink="http://www.w3.org/1999/xlink" width="38pt" height="25pt" viewBox="0 0 38 25" version="1.1">
<g id="surface1">
<rect x="0" y="0" width="38" height="25" style="fill:rgb(100%,60%,20%);fill-opacity:1;stroke:none;"/>
<path style=" stroke:none;fill-rule:nonzero;fill:rgb(100%,100%,100%);fill-opacity:1;" d="M 0 8.332031 L 38 8.332031 L 38 16.667969 L 0 16.667969 Z M 0 8.332031 "/>
<path style=" stroke:none;fill-rule:nonzero;fill:rgb(7.058824%,53.333333%,2.745098%);fill-opacity:1;" d="M 0 16.667969 L 38 16.667969 L 38 25 L 0 25 Z M 0 16.667969 "/>
<path style=" stroke:none;fill-rule:nonzero;fill:rgb(0%,0%,53.333333%);fill-opacity:1;" d="M 22.378906 12.5 C 22.378906 14.339844 20.867188 15.832031 19 15.832031 C 17.132812 15.832031 15.621094 14.339844 15.621094 12.5 C 15.621094 10.660156 17.132812 9.167969 19 9.167969 C 20.867188 9.167969 22.378906 10.660156 22.378906 12.5 Z M 22.378906 12.5 "/>
<path style=" stroke:none;fill-rule:nonzero;fill:rgb(100%,100%,100%);fill-opacity:1;" d="M 21.957031 12.5 C 21.957031 14.109375 20.632812 15.417969 19 15.417969 C 17.367188 15.417969 16.042969 14.109375 16.042969 12.5 C 16.042969 10.890625 17.367188 9.582031 19 9.582031 C 20.632812 9.582031 21.957031 10.890625 21.957031 12.5 Z M 21.957031 12.5 "/>
<path style=" stroke:none;fill-rule:nonzero;fill:rgb(0%,0%,53.333333%);fill-opacity:1;" d="M 19.589844 12.5 C 19.589844 12.820312 19.328125 13.082031 19 13.082031 C 18.671875 13.082031 18.410156 12.820312 18.410156 12.5 C 18.410156 12.179688 18.671875 11.917969 19 11.917969 C 19.328125 11.917969 19.589844 12.179688 19.589844 12.5 Z M 19.589844 12.5 "/>
<path style=" stroke:none;fill-rule:nonzero;fill:rgb(0%,0%,53.333333%);fill-opacity:1;" d="M 22.078125 12.898438 C 22.066406 12.980469 21.992188 13.035156 21.910156 13.023438 C 21.828125 13.015625 21.773438 12.941406 21.785156 12.863281 C 21.792969 12.78125 21.867188 12.726562 21.949219 12.734375 C 22.03125 12.746094 22.085938 12.820312 22.078125 12.898438 Z M 22.078125 12.898438 "/>
<path style=" stroke:none;fill-rule:nonzero;fill:rgb(0%,0%,53.333333%);fill-opacity:1;" d="M 19 15.417969 L 19.101562 13.667969 C 19.101562 13.667969 19 12.832031 19 12.832031 C 19 12.832031 18.898438 13.667969 18.898438 13.667969 Z M 19 15.417969 "/>
<path style=" stroke:none;fill-rule:nonzero;fill:rgb(0%,0%,53.333333%);fill-opacity:1;" d="M 21.867188 13.671875 C 21.835938 13.746094 21.75 13.78125 21.675781 13.75 C 21.597656 13.71875 21.5625 13.632812 21.59375 13.558594 C 21.625 13.484375 21.710938 13.449219 21.789062 13.480469 C 21.863281 13.511719 21.898438 13.597656 21.867188 13.671875 Z M 21.867188 13.671875 "/>
<path style=" stroke:none;fill-rule:nonzero;fill:rgb(0%,0%,53.333333%);fill-opacity:1;" d="M 18.234375 15.316406 L 18.792969 13.652344 C 18.792969 13.652344 18.914062 12.820312 18.914062 12.820312 C 18.914062 12.820312 18.597656 13.601562 18.597656 13.601562 Z M 18.234375 15.316406 "/>
<path style=" stroke:none;fill-rule:nonzero;fill:rgb(0%,0%,53.333333%);fill-opacity:1;" d="M 21.460938 14.363281 C 21.414062 14.429688 21.320312 14.441406 21.253906 14.390625 C 21.191406 14.34375 21.179688 14.25 21.226562 14.1875 C 21.277344 14.121094 21.371094 14.109375 21.433594 14.160156 C 21.5 14.207031 21.511719 14.300781 21.460938 14.363281 Z M 21.460938 14.363281 "/>
<path style=" stroke:none;fill-rule:nonzero;fill:rgb(0%,0%,53.333333%);fill-opacity:1;" d="M 17.523438 15.027344 L 18.496094 13.558594 C 18.496094 13.558594 18.832031 12.789062 18.832031 12.789062 C 18.832031 12.789062 18.320312 13.460938 18.320312 13.460938 Z M 17.523438 15.027344 "/>
<path style=" stroke:none;fill-rule:nonzero;fill:rgb(0%,0%,53.333333%);fill-opacity:1;" d="M 20.890625 14.929688 C 20.824219 14.980469 20.730469 14.964844 20.683594 14.902344 C 20.632812 14.839844 20.644531 14.746094 20.710938 14.699219 C 20.773438 14.648438 20.867188 14.660156 20.917969 14.726562 C 20.964844 14.789062 20.953125 14.878906 20.890625 14.929688 Z M 20.890625 14.929688 "/>
<path style=" stroke:none;fill-rule:nonzero;fill:rgb(0%,0%,53.333333%);fill-opacity:1;" d="M 16.910156 14.5625 L 18.234375 13.394531 C 18.234375 13.394531 18.761719 12.734375 18.761719 12.734375 C 18.761719 12.734375 18.09375 13.253906 18.09375 13.253906 Z M 16.910156 14.5625 "/>
<path style=" stroke:none;fill-rule:nonzero;fill:rgb(0%,0%,53.333333%);fill-opacity:1;" d="M 20.1875 15.328125 C 20.113281 15.359375 20.027344 15.324219 19.996094 15.25 C 19.964844 15.175781 20 15.089844 20.074219 15.058594 C 20.148438 15.027344 20.238281 15.0625 20.265625 15.140625 C 20.296875 15.214844 20.261719 15.296875 20.1875 15.328125 Z M 20.1875 15.328125 "/>
<path style=" stroke:none;fill-rule:nonzero;fill:rgb(0%,0%,53.333333%);fill-opacity:1;" d="M 16.441406 13.957031 L 18.027344 13.171875 C 18.027344 13.171875 18.707031 12.667969 18.707031 12.667969 C 18.707031 12.667969 17.925781 12.996094 17.925781 12.996094 Z M 16.441406 13.957031 "/>
<path style=" stroke:none;fill-rule:nonzero;fill:rgb(0%,0%,53.333333%);fill-opacity:1;" d="M 19.40625 15.535156 C 19.324219 15.546875 19.25 15.492188 19.238281 15.410156 C 19.230469 15.332031 19.285156 15.257812 19.367188 15.246094 C 19.449219 15.238281 19.523438 15.292969 19.53125 15.371094 C 19.542969 15.453125 19.484375 15.527344 19.40625 15.535156 Z M 19.40625 15.535156 "/>
<path style=" stroke:none;fill-rule:nonzero;fill:rgb(0%,0%,53.333333%);fill-opacity:1;" d="M 16.144531 13.253906 L 17.882812 12.898438 C 17.882812 12.898438 18.671875 12.585938 18.671875 12.585938 C 18.671875 12.585938 17.832031 12.707031 17.832031 12.707031 Z M 16.144531 13.253906 "/>
<path style=" stroke:none;fill-rule:nonzero;fill:rgb(0%,0%,53.333333%);fill-opacity:1;" d="M 18.59375 15.535156 C 18.515625 15.527344 18.457031 15.453125 18.46875 15.371094 C 18.476562 15.292969 18.550781 15.238281 18.632812 15.246094 C 18.714844 15.257812 18.769531 15.332031 18.761719 15.410156 C 18.75 15.492188 18.675781 15.546875 18.59375 15.535156 Z M 18.59375 15.535156 "/>
<path style=" stroke:none;fill-rule:nonzero;fill:rgb(0%,0%,53.333333%);fill-opacity:1;" d="M 16.042969 12.5 L 17.816406 12.601562 C 17.816406 12.601562 18.664062 12.5 18.664062 12.5 C 18.664062 12.5 17.816406 12.398438 17.816406 12.398438 Z M 16.042969 12.5 "/>
<path style=" stroke:none;fill-rule:nonzero;fill:rgb(0%,0%,53.333333%);fill-opacity:1;" d="M 17.8125 15.328125 C 17.738281 15.296875 17.703125 15.214844 17.734375 15.140625 C 17.761719 15.0625 17.851562 15.027344 17.925781 15.058594 C 18 15.089844 18.035156 15.175781 18.003906 15.25 C 17.972656 15.324219 17.886719 15.359375 17.8125 15.328125 Z M 17.8125 15.328125 "/>
<path style=" stroke:none;fill-rule:nonzero;fill:rgb(0%,0%,53.333333%);fill-opacity:1;" d="M 16.144531 11.746094 L 17.832031 12.292969 C 17.832031 12.292969 18.671875 12.414062 18.671875 12.414062 C 18.671875 12.414062 17.882812 12.101562 17.882812 12.101562 Z M 16.144531 11.746094 "/>
<path style=" stroke:none;fill-rule:nonzero;fill:rgb(0%,0%,53.333333%);fill-opacity:1;" d="M 17.109375 14.929688 C 17.046875 14.878906 17.035156 14.789062 17.082031 14.726562 C 17.132812 14.660156 17.226562 14.648438 17.289062 14.699219 C 17.355469 14.746094 17.367188 14.839844 17.316406 14.902344 C 17.269531 14.964844 17.175781 14.980469 17.109375 14.929688 Z M 17.109375 14.929688 "/>
<path style=" stroke:none;fill-rule:nonzero;fill:rgb(0%,0%,53.333333%);fill-opacity:1;" d="M 16.441406 11.042969 L 17.925781 12.003906 C 17.925781 12.003906 18.707031 12.332031 18.707031 12.332031 C 18.707031 12.332031 18.027344 11.828125 18.027344 11.828125 Z M 16.441406 11.042969 "/>
<path style=" stroke:none;fill-rule:nonzero;fill:rgb(0%,0%,53.333333%);fill-opacity:1;" d="M 16.539062 14.363281 C 16.488281 14.300781 16.5 14.207031 16.566406 14.160156 C 16.628906 14.109375 16.722656 14.121094 16.773438 14.1875 C 16.820312 14.25 16.808594 14.34375 16.746094 14.390625 C 16.679688 14.441406 16.585938 14.429688 16.539062 14.363281 Z M 16.539062 14.363281 "/>
<path style=" stroke:none;fill-rule:nonzero;fill:rgb(0%,0%,53.333333%);fill-opacity:1;" d="M 16.910156 10.4375 L 18.09375 11.746094 C 18.09375 11.746094 18.761719 12.265625 18.761719 12.265625 C 18.761719 12.265625 18.234375 11.605469 18.234375 11.605469 Z M 16.910156 10.4375 "/>
<path style=" stroke:none;fill-rule:nonzero;fill:rgb(0%,0%,53.333333%);fill-opacity:1;" d="M 16.132812 13.671875 C 16.101562 13.597656 16.136719 13.511719 16.210938 13.480469 C 16.289062 13.449219 16.375 13.484375 16.40625 13.558594 C 16.4375 13.632812 16.402344 13.71875 16.324219 13.75 C 16.25 13.78125 16.164062 13.746094 16.132812 13.671875 Z M 16.132812 13.671875 "/>
<path style=" stroke:none;fill-rule:nonzero;fill:rgb(0%,0%,53.333333%);fill-opacity:1;" d="M 17.523438 9.972656 L 18.320312 11.539062 C 18.320312 11.539062 18.832031 12.210938 18.832031 12.210938 C 18.832031 12.210938 18.496094 11.441406 18.496094 11.441406 Z M 17.523438 9.972656 "/>
<path style=" stroke:none;fill-rule:nonzero;fill:rgb(0%,0%,53.333333%);fill-opacity:1;" d="M 15.921875 12.898438 C 15.914062 12.820312 15.96875 12.746094 16.050781 12.734375 C 16.132812 12.726562 16.207031 12.78125 16.214844 12.863281 C 16.226562 12.941406 16.171875 13.015625 16.089844 13.023438 C 16.007812 13.035156 15.933594 12.980469 15.921875 12.898438 Z M 15.921875 12.898438 "/>
<path style=" stroke:none;fill-rule:nonzero;fill:rgb(0%,0%,53.333333%);fill-opacity:1;" d="M 18.234375 9.683594 L 18.597656 11.398438 C 18.597656 11.398438 18.914062 12.179688 18.914062 12.179688 C 18.914062 12.179688 18.792969 11.347656 18.792969 11.347656 Z M 18.234375 9.683594 "/>
<path style=" stroke:none;fill-rule:nonzero;fill:rgb(0%,0%,53.333333%);fill-opacity:1;" d="M 15.921875 12.101562 C 15.933594 12.019531 16.007812 11.964844 16.089844 11.976562 C 16.171875 11.984375 16.226562 12.058594 16.214844 12.136719 C 16.207031 12.21875 16.132812 12.273438 16.050781 12.265625 C 15.96875 12.253906 15.914062 12.179688 15.921875 12.101562 Z M 15.921875 12.101562 "/>
<path style=" stroke:none;fill-rule:nonzero;fill:rgb(0%,0%,53.333333%);fill-opacity:1;" d="M 19 9.582031 L 18.898438 11.332031 C 18.898438 11.332031 19 12.167969 19 12.167969 C 19 12.167969 19.101562 11.332031 19.101562 11.332031 Z M 19 9.582031 "/>
<path style=" stroke:none;fill-rule:nonzero;fill:rgb(0%,0%,53.333333%);fill-opacity:1;" d="M 16.132812 11.328125 C 16.164062 11.253906 16.25 11.21875 16.324219 11.25 C 16.402344 11.28125 16.4375 11.367188 16.40625 11.441406 C 16.375 11.515625 16.289062 11.550781 16.210938 11.519531 C 16.136719 11.488281 16.101562 11.402344 16.132812 11.328125 Z M 16.132812 11.328125 "/>
<path style=" stroke:none;fill-rule:nonzero;fill:rgb(0%,0%,53.333333%);fill-opacity:1;" d="M 19.765625 9.683594 L 19.207031 11.347656 C 19.207031 11.347656 19.085938 12.179688 19.085938 12.179688 C 19.085938 12.179688 19.402344 11.398438 19.402344 11.398438 Z M 19.765625 9.683594 "/>
<path style=" stroke:none;fill-rule:nonzero;fill:rgb(0%,0%,53.333333%);fill-opacity:1;" d="M 16.539062 10.636719 C 16.585938 10.570312 16.679688 10.558594 16.746094 10.609375 C 16.808594 10.65625 16.820312 10.75 16.773438 10.8125 C 16.722656 10.878906 16.628906 10.890625 16.566406 10.839844 C 16.5 10.792969 16.488281 10.699219 16.539062 10.636719 Z M 16.539062 10.636719 "/>
<path style=" stroke:none;fill-rule:nonzero;fill:rgb(0%,0%,53.333333%);fill-opacity:1;" d="M 20.476562 9.972656 L 19.503906 11.441406 C 19.503906 11.441406 19.167969 12.210938 19.167969 12.210938 C 19.167969 12.210938 19.679688 11.539062 19.679688 11.539062 Z M 20.476562 9.972656 "/>
<path style=" stroke:none;fill-rule:nonzero;fill:rgb(0%,0%,53.333333%);fill-opacity:1;" d="M 17.109375 10.070312 C 17.175781 10.019531 17.269531 10.035156 17.316406 10.097656 C 17.367188 10.160156 17.355469 10.253906 17.289062 10.300781 C 17.226562 10.351562 17.132812 10.339844 17.082031 10.273438 C 17.035156 10.210938 17.046875 10.121094 17.109375 10.070312 Z M 17.109375 10.070312 "/>
<path style=" stroke:none;fill-rule:nonzero;fill:rgb(0%,0%,53.333333%);fill-opacity:1;" d="M 21.089844 10.4375 L 19.765625 11.605469 C 19.765625 11.605469 19.238281 12.265625 19.238281 12.265625 C 19.238281 12.265625 19.90625 11.746094 19.90625 11.746094 Z M 21.089844 10.4375 "/>
<path style=" stroke:none;fill-rule:nonzero;fill:rgb(0%,0%,53.333333%);fill-opacity:1;" d="M 17.8125 9.671875 C 17.886719 9.640625 17.972656 9.675781 18.003906 9.75 C 18.035156 9.824219 18 9.910156 17.925781 9.941406 C 17.851562 9.972656 17.761719 9.9375 17.734375 9.859375 C 17.703125 9.785156 17.738281 9.703125 17.8125 9.671875 Z M 17.8125 9.671875 "/>
<path style=" stroke:none;fill-rule:nonzero;fill:rgb(0%,0%,53.333333%);fill-opacity:1;" d="M 21.558594 11.042969 L 19.972656 11.828125 C 19.972656 11.828125 19.292969 12.332031 19.292969 12.332031 C 19.292969 12.332031 20.074219 12.003906 20.074219 12.003906 Z M 21.558594 11.042969 "/>
<path style=" stroke:none;fill-rule:nonzero;fill:rgb(0%,0%,53.333333%);fill-opacity:1;" d="M 18.59375 9.464844 C 18.675781 9.453125 18.75 9.507812 18.761719 9.589844 C 18.769531 9.667969 18.714844 9.742188 18.632812 9.753906 C 18.550781 9.761719 18.476562 9.707031 18.46875 9.628906 C 18.457031 9.546875 18.515625 9.472656 18.59375 9.464844 Z M 18.59375 9.464844 "/>
<path style=" stroke:none;fill-rule:nonzero;fill:rgb(0%,0%,53.333333%);fill-opacity:1;" d="M 21.855469 11.746094 L 20.117188 12.101562 C 20.117188 12.101562 19.328125 12.414062 19.328125 12.414062 C 19.328125 12.414062 20.167969 12.292969 20.167969 12.292969 Z M 21.855469 11.746094 "/>
<path style=" stroke:none;fill-rule:nonzero;fill:rgb(0%,0%,53.333333%);fill-opacity:1;" d="M 19.40625 9.464844 C 19.484375 9.472656 19.542969 9.546875 19.53125 9.628906 C 19.523438 9.707031 19.449219 9.761719 19.367188 9.753906 C 19.285156 9.742188 19.230469 9.667969 19.238281 9.589844 C 19.25 9.507812 19.324219 9.453125 19.40625 9.464844 Z M 19.40625 9.464844 "/>
<path style=" stroke:none;fill-rule:nonzero;fill:rgb(0%,0%,53.333333%);fill-opacity:1;" d="M 21.957031 12.5 L 20.183594 12.398438 C 20.183594 12.398438 19.335938 12.5 19.335938 12.5 C 19.335938 12.5 20.183594 12.601562 20.183594 12.601562 Z M 21.957031 12.5 "/>
<path style=" stroke:none;fill-rule:nonzero;fill:rgb(0%,0%,53.333333%);fill-opacity:1;" d="M 20.1875 9.671875 C 20.261719 9.703125 20.296875 9.785156 20.265625 9.859375 C 20.238281 9.9375 20.148438 9.972656 20.074219 9.941406 C 20 9.910156 19.964844 9.824219 19.996094 9.75 C 20.027344 9.675781 20.113281 9.640625 20.1875 9.671875 Z M 20.1875 9.671875 "/>
<path style=" stroke:none;fill-rule:nonzero;fill:rgb(0%,0%,53.333333%);fill-opacity:1;" d="M 21.855469 13.253906 L 20.167969 12.707031 C 20.167969 12.707031 19.328125 12.585938 19.328125 12.585938 C 19.328125 12.585938 20.117188 12.898438 20.117188 12.898438 Z M 21.855469 13.253906 "/>
<path style=" stroke:none;fill-rule:nonzero;fill:rgb(0%,0%,53.333333%);fill-opacity:1;" d="M 20.890625 10.070312 C 20.953125 10.121094 20.964844 10.210938 20.917969 10.273438 C 20.867188 10.339844 20.773438 10.351562 20.710938 10.300781 C 20.644531 10.253906 20.632812 10.160156 20.683594 10.097656 C 20.730469 10.035156 20.824219 10.019531 20.890625 10.070312 Z M 20.890625 10.070312 "/>
<path style=" stroke:none;fill-rule:nonzero;fill:rgb(0%,0%,53.333333%);fill-opacity:1;" d="M 21.558594 13.957031 L 20.074219 12.996094 C 20.074219 12.996094 19.292969 12.667969 19.292969 12.667969 C 19.292969 12.667969 19.972656 13.171875 19.972656 13.171875 Z M 21.558594 13.957031 "/>
<path style=" stroke:none;fill-rule:nonzero;fill:rgb(0%,0%,53.333333%);fill-opacity:1;" d="M 21.460938 10.636719 C 21.511719 10.699219 21.5 10.792969 21.433594 10.839844 C 21.371094 10.890625 21.277344 10.878906 21.226562 10.8125 C 21.179688 10.75 21.191406 10.65625 21.253906 10.609375 C 21.320312 10.558594 21.414062 10.570312 21.460938 10.636719 Z M 21.460938 10.636719 "/>
<path style=" stroke:none;fill-rule:nonzero;fill:rgb(0%,0%,53.333333%);fill-opacity:1;" d="M 21.089844 14.5625 L 19.90625 13.253906 C 19.90625 13.253906 19.238281 12.734375 19.238281 12.734375 C 19.238281 12.734375 19.765625 13.394531 19.765625 13.394531 Z M 21.089844 14.5625 "/>
<path style=" stroke:none;fill-rule:nonzero;fill:rgb(0%,0%,53.333333%);fill-opacity:1;" d="M 21.867188 11.328125 C 21.898438 11.402344 21.863281 11.488281 21.789062 11.519531 C 21.710938 11.550781 21.625 11.515625 21.59375 11.441406 C 21.5625 11.367188 21.597656 11.28125 21.675781 11.25 C 21.75 11.21875 21.835938 11.253906 21.867188 11.328125 Z M 21.867188 11.328125 "/>
<path style=" stroke:none;fill-rule:nonzero;fill:rgb(0%,0%,53.333333%);fill-opacity:1;" d="M 20.476562 15.027344 L 19.679688 13.460938 C 19.679688 13.460938 19.167969 12.789062 19.167969 12.789062 C 19.167969 12.789062 19.503906 13.558594 19.503906 13.558594 Z M 20.476562 15.027344 "/>
<path style=" stroke:none;fill-rule:nonzero;fill:rgb(0%,0%,53.333333%);fill-opacity:1;" d="M 22.078125 12.101562 C 22.085938 12.179688 22.03125 12.253906 21.949219 12.265625 C 21.867188 12.273438 21.792969 12.21875 21.785156 12.136719 C 21.773438 12.058594 21.828125 11.984375 21.910156 11.976562 C 21.992188 11.964844 22.066406 12.019531 22.078125 12.101562 Z M 22.078125 12.101562 "/>
<path style=" stroke:none;fill-rule:nonzero;fill:rgb(0%,0%,53.333333%);fill-opacity:1;" d="M 19.765625 15.316406 L 19.402344 13.601562 C 19.402344 13.601562 19.085938 12.820312 19.085938 12.820312 C 19.085938 12.820312 19.207031 13.652344 19.207031 13.652344 Z M 19.765625 15.316406 "/>
</g>
</svg>
