<?xml version="1.0" encoding="UTF-8"?>
<svg xmlns="http://www.w3.org/2000/svg" xmlns:xlink="http://www.w3.org/1999/xlink" width="44pt" height="25pt" viewBox="0 0 44 25" version="1.1">
<g id="surface1">
<rect x="0" y="0" width="44" height="25" style="fill:rgb(85.490196%,0%,0%);fill-opacity:1;stroke:none;"/>
<path style=" stroke:none;fill-rule:nonzero;fill:rgb(100%,100%,100%);fill-opacity:1;" d="M 0 0 L 44 0 L 44 16.667969 L 0 16.667969 Z M 0 0 "/>
<path style=" stroke:none;fill-rule:nonzero;fill:rgb(13.72549%,62.352941%,25.098039%);fill-opacity:1;" d="M 0 0 L 44 0 L 44 8.332031 L 0 8.332031 Z M 0 0 "/>
<path style="fill:none;stroke-width:2;stroke-linecap:butt;stroke-linejoin:miter;stroke:rgb(100%,100%,100%);stroke-opacity:1;stroke-miterlimit:4;" d="M -0.00745739 1.008929 L 26.000178 1.008929 M 0.9913 10.008929 L 0.9913 4.986607 L 8.981357 4.986607 L 8.981357 9.004464 L 17.011364 9.004464 L 17.011364 4.986607 L 12.017578 4.986607 M 3.987571 9.004464 L 5.985085 9.004464 M 26.000178 9.004464 L 21.006392 9.004464 L 21.006392 4.986607 L 28.996449 4.986607 M 28.996449 0.00446429 L 28.996449 9.004464 L 36.986506 9.004464 L 36.986506 0.00446429 M 32.991477 0.00446429 L 32.991477 9.004464 " transform="matrix(0.0977778,0,0,0.0972222,0.586667,6.972222)"/>
<path style="fill:none;stroke-width:2;stroke-linecap:butt;stroke-linejoin:miter;stroke:rgb(100%,100%,100%);stroke-opacity:1;stroke-miterlimit:4;" d="M -0.00372869 6.993304 L 9.00506 6.993304 M 10.003817 6.993304 L 18.992631 6.993304 " transform="matrix(0.195556,0,0,0.194444,0.586667,6.972222)"/>
<path style="fill:none;stroke-width:2;stroke-linecap:butt;stroke-linejoin:miter;stroke:rgb(100%,100%,100%);stroke-opacity:1;stroke-miterlimit:4;" d="M -0.00372869 7.006696 L 9.00506 7.006696 M 10.003817 7.006696 L 18.992631 7.006696 " transform="matrix(0.195556,0,0,0.194444,0.586667,15.305556)"/>
<path style="fill:none;stroke-width:2;stroke-linecap:butt;stroke-linejoin:miter;stroke:rgb(100%,100%,100%);stroke-opacity:1;stroke-miterlimit:4;" d="M -0.00745739 0.995536 L 26.000178 0.995536 M 0.9913 9.995536 L 0.9913 5.013393 L 8.981357 5.013393 L 8.981357 8.991071 L 17.011364 8.991071 L 17.011364 5.013393 L 12.017578 5.013393 M 3.987571 8.991071 L 5.985085 8.991071 M 26.000178 8.991071 L 21.006392 8.991071 L 21.006392 5.013393 L 28.996449 5.013393 M 28.996449 -0.00892857 L 28.996449 8.991071 L 36.986506 8.991071 L 36.986506 -0.00892857 M 32.991477 -0.00892857 L 32.991477 8.991071 " transform="matrix(0.0977778,0,0,0.0972222,0.586667,17.055556)"/>
<path style="fill:none;stroke-width:2;stroke-linecap:butt;stroke-linejoin:miter;stroke:rgb(100%,100%,100%);stroke-opacity:1;stroke-miterlimit:4;" d="M -0.017223 1.008929 L 25.990412 1.008929 M 0.981534 10.008929 L 0.981534 4.986607 L 9.011541 4.986607 L 9.011541 9.004464 L 17.001598 9.004464 L 17.001598 4.986607 L 12.007812 4.986607 M 4.017756 9.004464 L 6.01527 9.004464 M 25.990412 9.004464 L 20.996626 9.004464 L 20.996626 4.986607 L 28.986683 4.986607 M 28.986683 0.00446429 L 28.986683 9.004464 L 37.01669 9.004464 L 37.01669 0.00446429 M 32.981712 0.00446429 L 32.981712 9.004464 " transform="matrix(0.0977778,0,0,0.0972222,4.497778,6.972222)"/>
<path style="fill:none;stroke-width:2;stroke-linecap:butt;stroke-linejoin:miter;stroke:rgb(100%,100%,100%);stroke-opacity:1;stroke-miterlimit:4;" d="M -0.00861151 6.993304 L 9.000178 6.993304 M 9.998935 6.993304 L 19.007724 6.993304 " transform="matrix(0.195556,0,0,0.194444,4.497778,6.972222)"/>
<path style="fill:none;stroke-width:2;stroke-linecap:butt;stroke-linejoin:miter;stroke:rgb(100%,100%,100%);stroke-opacity:1;stroke-miterlimit:4;" d="M -0.00861151 7.006696 L 9.000178 7.006696 M 9.998935 7.006696 L 19.007724 7.006696 " transform="matrix(0.195556,0,0,0.194444,4.497778,15.305556)"/>
<path style="fill:none;stroke-width:2;stroke-linecap:butt;stroke-linejoin:miter;stroke:rgb(100%,100%,100%);stroke-opacity:1;stroke-miterlimit:4;" d="M -0.017223 0.995536 L 25.990412 0.995536 M 0.981534 9.995536 L 0.981534 5.013393 L 9.011541 5.013393 L 9.011541 8.991071 L 17.001598 8.991071 L 17.001598 5.013393 L 12.007812 5.013393 M 4.017756 8.991071 L 6.01527 8.991071 M 25.990412 8.991071 L 20.996626 8.991071 L 20.996626 5.013393 L 28.986683 5.013393 M 28.986683 -0.00892857 L 28.986683 8.991071 L 37.01669 8.991071 L 37.01669 -0.00892857 M 32.981712 -0.00892857 L 32.981712 8.991071 " transform="matrix(0.0977778,0,0,0.0972222,4.497778,17.055556)"/>
<path style="fill:none;stroke-width:2;stroke-linecap:butt;stroke-linejoin:miter;stroke:rgb(100%,100%,100%);stroke-opacity:1;stroke-miterlimit:4;" d="M 0.0129616 1.008929 L 25.980646 1.008929 M 1.011719 10.008929 L 1.011719 4.986607 L 9.001776 4.986607 L 9.001776 9.004464 L 16.991832 9.004464 L 16.991832 4.986607 L 11.998047 4.986607 M 4.00799 9.004464 L 6.005504 9.004464 M 25.980646 9.004464 L 20.986861 9.004464 L 20.986861 4.986607 L 29.016868 4.986607 M 29.016868 0.00446429 L 29.016868 9.004464 L 37.006925 9.004464 L 37.006925 0.00446429 M 33.011896 0.00446429 L 33.011896 9.004464 " transform="matrix(0.0977778,0,0,0.0972222,8.408889,6.972222)"/>
<path style="fill:none;stroke-width:2;stroke-linecap:butt;stroke-linejoin:miter;stroke:rgb(100%,100%,100%);stroke-opacity:1;stroke-miterlimit:4;" d="M 0.00648082 6.993304 L 8.995295 6.993304 M 9.994052 6.993304 L 19.002841 6.993304 " transform="matrix(0.195556,0,0,0.194444,8.408889,6.972222)"/>
<path style="fill:none;stroke-width:2;stroke-linecap:butt;stroke-linejoin:miter;stroke:rgb(100%,100%,100%);stroke-opacity:1;stroke-miterlimit:4;" d="M 0.00648082 7.006696 L 8.995295 7.006696 M 9.994052 7.006696 L 19.002841 7.006696 " transform="matrix(0.195556,0,0,0.194444,8.408889,15.305556)"/>
<path style="fill:none;stroke-width:2;stroke-linecap:butt;stroke-linejoin:miter;stroke:rgb(100%,100%,100%);stroke-opacity:1;stroke-miterlimit:4;" d="M 0.0129616 0.995536 L 25.980646 0.995536 M 1.011719 9.995536 L 1.011719 5.013393 L 9.001776 5.013393 L 9.001776 8.991071 L 16.991832 8.991071 L 16.991832 5.013393 L 11.998047 5.013393 M 4.00799 8.991071 L 6.005504 8.991071 M 25.980646 8.991071 L 20.986861 8.991071 L 20.986861 5.013393 L 29.016868 5.013393 M 29.016868 -0.00892857 L 29.016868 8.991071 L 37.006925 8.991071 L 37.006925 -0.00892857 M 33.011896 -0.00892857 L 33.011896 8.991071 " transform="matrix(0.0977778,0,0,0.0972222,8.408889,17.055556)"/>
<path style="fill:none;stroke-width:2;stroke-linecap:butt;stroke-linejoin:miter;stroke:rgb(100%,100%,100%);stroke-opacity:1;stroke-miterlimit:4;" d="M 0.00319602 1.008929 L 26.010831 1.008929 M 1.001953 10.008929 L 1.001953 4.986607 L 8.99201 4.986607 L 8.99201 9.004464 L 16.982067 9.004464 L 16.982067 4.986607 L 11.988281 4.986607 M 3.998224 9.004464 L 5.995739 9.004464 M 26.010831 9.004464 L 21.017045 9.004464 L 21.017045 4.986607 L 29.007102 4.986607 M 29.007102 0.00446429 L 29.007102 9.004464 L 36.997159 9.004464 L 36.997159 0.00446429 M 33.002131 0.00446429 L 33.002131 9.004464 " transform="matrix(0.0977778,0,0,0.0972222,12.32,6.972222)"/>
<path style="fill:none;stroke-width:2;stroke-linecap:butt;stroke-linejoin:miter;stroke:rgb(100%,100%,100%);stroke-opacity:1;stroke-miterlimit:4;" d="M 0.00159801 6.993304 L 8.990412 6.993304 M 10.009144 6.993304 L 18.997958 6.993304 " transform="matrix(0.195556,0,0,0.194444,12.32,6.972222)"/>
<path style="fill:none;stroke-width:2;stroke-linecap:butt;stroke-linejoin:miter;stroke:rgb(100%,100%,100%);stroke-opacity:1;stroke-miterlimit:4;" d="M 0.00159801 7.006696 L 8.990412 7.006696 M 10.009144 7.006696 L 18.997958 7.006696 " transform="matrix(0.195556,0,0,0.194444,12.32,15.305556)"/>
<path style="fill:none;stroke-width:2;stroke-linecap:butt;stroke-linejoin:miter;stroke:rgb(100%,100%,100%);stroke-opacity:1;stroke-miterlimit:4;" d="M 0.00319602 0.995536 L 26.010831 0.995536 M 1.001953 9.995536 L 1.001953 5.013393 L 8.99201 5.013393 L 8.99201 8.991071 L 16.982067 8.991071 L 16.982067 5.013393 L 11.988281 5.013393 M 3.998224 8.991071 L 5.995739 8.991071 M 26.010831 8.991071 L 21.017045 8.991071 L 21.017045 5.013393 L 29.007102 5.013393 M 29.007102 -0.00892857 L 29.007102 8.991071 L 36.997159 8.991071 L 36.997159 -0.00892857 M 33.002131 -0.00892857 L 33.002131 8.991071 " transform="matrix(0.0977778,0,0,0.0972222,12.32,17.055556)"/>
<path style="fill:none;stroke-width:2;stroke-linecap:butt;stroke-linejoin:miter;stroke:rgb(100%,100%,100%);stroke-opacity:1;stroke-miterlimit:4;" d="M -0.0065696 1.008929 L 26.001065 1.008929 M 0.992188 10.008929 L 0.992188 4.986607 L 8.982244 4.986607 L 8.982244 9.004464 L 17.012251 9.004464 L 17.012251 4.986607 L 12.018466 4.986607 M 3.988459 9.004464 L 5.985973 9.004464 M 26.001065 9.004464 L 21.00728 9.004464 L 21.00728 4.986607 L 28.997337 4.986607 M 28.997337 0.00446429 L 28.997337 9.004464 L 36.987393 9.004464 L 36.987393 0.00446429 M 32.992365 0.00446429 L 32.992365 9.004464 " transform="matrix(0.0977778,0,0,0.0972222,16.231111,6.972222)"/>
<path style="fill:none;stroke-width:2;stroke-linecap:butt;stroke-linejoin:miter;stroke:rgb(100%,100%,100%);stroke-opacity:1;stroke-miterlimit:4;" d="M -0.0032848 6.993304 L 9.005504 6.993304 M 10.004261 6.993304 L 18.993075 6.993304 " transform="matrix(0.195556,0,0,0.194444,16.231111,6.972222)"/>
<path style="fill:none;stroke-width:2;stroke-linecap:butt;stroke-linejoin:miter;stroke:rgb(100%,100%,100%);stroke-opacity:1;stroke-miterlimit:4;" d="M -0.0032848 7.006696 L 9.005504 7.006696 M 10.004261 7.006696 L 18.993075 7.006696 " transform="matrix(0.195556,0,0,0.194444,16.231111,15.305556)"/>
<path style="fill:none;stroke-width:2;stroke-linecap:butt;stroke-linejoin:miter;stroke:rgb(100%,100%,100%);stroke-opacity:1;stroke-miterlimit:4;" d="M -0.0065696 0.995536 L 26.001065 0.995536 M 0.992188 9.995536 L 0.992188 5.013393 L 8.982244 5.013393 L 8.982244 8.991071 L 17.012251 8.991071 L 17.012251 5.013393 L 12.018466 5.013393 M 3.988459 8.991071 L 5.985973 8.991071 M 26.001065 8.991071 L 21.00728 8.991071 L 21.00728 5.013393 L 28.997337 5.013393 M 28.997337 -0.00892857 L 28.997337 8.991071 L 36.987393 8.991071 L 36.987393 -0.00892857 M 32.992365 -0.00892857 L 32.992365 8.991071 " transform="matrix(0.0977778,0,0,0.0972222,16.231111,17.055556)"/>
<path style="fill:none;stroke-width:2;stroke-linecap:butt;stroke-linejoin:miter;stroke:rgb(100%,100%,100%);stroke-opacity:1;stroke-miterlimit:4;" d="M -0.0163352 1.008929 L 25.9913 1.008929 M 0.982422 10.008929 L 0.982422 4.986607 L 9.012429 4.986607 L 9.012429 9.004464 L 17.002486 9.004464 L 17.002486 4.986607 L 12.0087 4.986607 M 4.018643 9.004464 L 6.016158 9.004464 M 25.9913 9.004464 L 20.997514 9.004464 L 20.997514 4.986607 L 28.987571 4.986607 M 28.987571 0.00446429 L 28.987571 9.004464 L 37.017578 9.004464 L 37.017578 0.00446429 M 32.982599 0.00446429 L 32.982599 9.004464 " transform="matrix(0.0977778,0,0,0.0972222,20.142222,6.972222)"/>
<path style="fill:none;stroke-width:2;stroke-linecap:butt;stroke-linejoin:miter;stroke:rgb(100%,100%,100%);stroke-opacity:1;stroke-miterlimit:4;" d="M -0.00816761 6.993304 L 9.000621 6.993304 M 9.999379 6.993304 L 19.008168 6.993304 " transform="matrix(0.195556,0,0,0.194444,20.142222,6.972222)"/>
<path style="fill:none;stroke-width:2;stroke-linecap:butt;stroke-linejoin:miter;stroke:rgb(100%,100%,100%);stroke-opacity:1;stroke-miterlimit:4;" d="M -0.00816761 7.006696 L 9.000621 7.006696 M 9.999379 7.006696 L 19.008168 7.006696 " transform="matrix(0.195556,0,0,0.194444,20.142222,15.305556)"/>
<path style="fill:none;stroke-width:2;stroke-linecap:butt;stroke-linejoin:miter;stroke:rgb(100%,100%,100%);stroke-opacity:1;stroke-miterlimit:4;" d="M -0.0163352 0.995536 L 25.9913 0.995536 M 0.982422 9.995536 L 0.982422 5.013393 L 9.012429 5.013393 L 9.012429 8.991071 L 17.002486 8.991071 L 17.002486 5.013393 L 12.0087 5.013393 M 4.018643 8.991071 L 6.016158 8.991071 M 25.9913 8.991071 L 20.997514 8.991071 L 20.997514 5.013393 L 28.987571 5.013393 M 28.987571 -0.00892857 L 28.987571 8.991071 L 37.017578 8.991071 L 37.017578 -0.00892857 M 32.982599 -0.00892857 L 32.982599 8.991071 " transform="matrix(0.0977778,0,0,0.0972222,20.142222,17.055556)"/>
<path style="fill:none;stroke-width:2;stroke-linecap:butt;stroke-linejoin:miter;stroke:rgb(100%,100%,100%);stroke-opacity:1;stroke-miterlimit:4;" d="M 0.0138494 1.008929 L 25.981534 1.008929 M 1.012607 10.008929 L 1.012607 4.986607 L 9.002663 4.986607 L 9.002663 9.004464 L 16.99272 9.004464 L 16.99272 4.986607 L 11.998935 4.986607 M 4.008878 9.004464 L 6.006392 9.004464 M 25.981534 9.004464 L 20.987749 9.004464 L 20.987749 4.986607 L 29.017756 4.986607 M 29.017756 0.00446429 L 29.017756 9.004464 L 37.007813 9.004464 L 37.007813 0.00446429 M 33.012784 0.00446429 L 33.012784 9.004464 " transform="matrix(0.0977778,0,0,0.0972222,24.053333,6.972222)"/>
<path style="fill:none;stroke-width:2;stroke-linecap:butt;stroke-linejoin:miter;stroke:rgb(100%,100%,100%);stroke-opacity:1;stroke-miterlimit:4;" d="M 0.00692472 6.993304 L 8.995739 6.993304 M 9.994496 6.993304 L 19.003285 6.993304 " transform="matrix(0.195556,0,0,0.194444,24.053333,6.972222)"/>
<path style="fill:none;stroke-width:2;stroke-linecap:butt;stroke-linejoin:miter;stroke:rgb(100%,100%,100%);stroke-opacity:1;stroke-miterlimit:4;" d="M 0.00692472 7.006696 L 8.995739 7.006696 M 9.994496 7.006696 L 19.003285 7.006696 " transform="matrix(0.195556,0,0,0.194444,24.053333,15.305556)"/>
<path style="fill:none;stroke-width:2;stroke-linecap:butt;stroke-linejoin:miter;stroke:rgb(100%,100%,100%);stroke-opacity:1;stroke-miterlimit:4;" d="M 0.0138494 0.995536 L 25.981534 0.995536 M 1.012607 9.995536 L 1.012607 5.013393 L 9.002663 5.013393 L 9.002663 8.991071 L 16.99272 8.991071 L 16.99272 5.013393 L 11.998935 5.013393 M 4.008878 8.991071 L 6.006392 8.991071 M 25.981534 8.991071 L 20.987749 8.991071 L 20.987749 5.013393 L 29.017756 5.013393 M 29.017756 -0.00892857 L 29.017756 8.991071 L 37.007813 8.991071 L 37.007813 -0.00892857 M 33.012784 -0.00892857 L 33.012784 8.991071 " transform="matrix(0.0977778,0,0,0.0972222,24.053333,17.055556)"/>
<path style="fill:none;stroke-width:2;stroke-linecap:butt;stroke-linejoin:miter;stroke:rgb(100%,100%,100%);stroke-opacity:1;stroke-miterlimit:4;" d="M 0.00408381 1.008929 L 26.011719 1.008929 M 1.002841 10.008929 L 1.002841 4.986607 L 8.992898 4.986607 L 8.992898 9.004464 L 16.982955 9.004464 L 16.982955 4.986607 L 11.989169 4.986607 M 3.999112 9.004464 L 5.996626 9.004464 M 26.011719 9.004464 L 21.017933 9.004464 L 21.017933 4.986607 L 29.00799 4.986607 M 29.00799 0.00446429 L 29.00799 9.004464 L 36.998047 9.004464 L 36.998047 0.00446429 M 33.003018 0.00446429 L 33.003018 9.004464 " transform="matrix(0.0977778,0,0,0.0972222,27.964444,6.972222)"/>
<path style="fill:none;stroke-width:2;stroke-linecap:butt;stroke-linejoin:miter;stroke:rgb(100%,100%,100%);stroke-opacity:1;stroke-miterlimit:4;" d="M 0.0020419 6.993304 L 8.990856 6.993304 M 10.009588 6.993304 L 18.998402 6.993304 " transform="matrix(0.195556,0,0,0.194444,27.964444,6.972222)"/>
<path style="fill:none;stroke-width:2;stroke-linecap:butt;stroke-linejoin:miter;stroke:rgb(100%,100%,100%);stroke-opacity:1;stroke-miterlimit:4;" d="M 0.0020419 7.006696 L 8.990856 7.006696 M 10.009588 7.006696 L 18.998402 7.006696 " transform="matrix(0.195556,0,0,0.194444,27.964444,15.305556)"/>
<path style="fill:none;stroke-width:2;stroke-linecap:butt;stroke-linejoin:miter;stroke:rgb(100%,100%,100%);stroke-opacity:1;stroke-miterlimit:4;" d="M 0.00408381 0.995536 L 26.011719 0.995536 M 1.002841 9.995536 L 1.002841 5.013393 L 8.992898 5.013393 L 8.992898 8.991071 L 16.982955 8.991071 L 16.982955 5.013393 L 11.989169 5.013393 M 3.999112 8.991071 L 5.996626 8.991071 M 26.011719 8.991071 L 21.017933 8.991071 L 21.017933 5.013393 L 29.00799 5.013393 M 29.00799 -0.00892857 L 29.00799 8.991071 L 36.998047 8.991071 L 36.998047 -0.00892857 M 33.003018 -0.00892857 L 33.003018 8.991071 " transform="matrix(0.0977778,0,0,0.0972222,27.964444,17.055556)"/>
<path style="fill:none;stroke-width:2;stroke-linecap:butt;stroke-linejoin:miter;stroke:rgb(100%,100%,100%);stroke-opacity:1;stroke-miterlimit:4;" d="M -0.00568182 1.008929 L 26.001953 1.008929 M 0.993075 10.008929 L 0.993075 4.986607 L 8.983132 4.986607 L 8.983132 9.004464 L 17.013139 9.004464 L 17.013139 4.986607 L 12.019354 4.986607 M 3.989347 9.004464 L 5.986861 9.004464 M 26.001953 9.004464 L 21.008168 9.004464 L 21.008168 4.986607 L 28.998224 4.986607 M 28.998224 0.00446429 L 28.998224 9.004464 L 36.988281 9.004464 L 36.988281 0.00446429 M 32.993253 0.00446429 L 32.993253 9.004464 " transform="matrix(0.0977778,0,0,0.0972222,31.875556,6.972222)"/>
<path style="fill:none;stroke-width:2;stroke-linecap:butt;stroke-linejoin:miter;stroke:rgb(100%,100%,100%);stroke-opacity:1;stroke-miterlimit:4;" d="M -0.00284091 6.993304 L 9.005948 6.993304 M 10.004705 6.993304 L 18.993519 6.993304 " transform="matrix(0.195556,0,0,0.194444,31.875556,6.972222)"/>
<path style="fill:none;stroke-width:2;stroke-linecap:butt;stroke-linejoin:miter;stroke:rgb(100%,100%,100%);stroke-opacity:1;stroke-miterlimit:4;" d="M -0.00284091 7.006696 L 9.005948 7.006696 M 10.004705 7.006696 L 18.993519 7.006696 " transform="matrix(0.195556,0,0,0.194444,31.875556,15.305556)"/>
<path style="fill:none;stroke-width:2;stroke-linecap:butt;stroke-linejoin:miter;stroke:rgb(100%,100%,100%);stroke-opacity:1;stroke-miterlimit:4;" d="M -0.00568182 0.995536 L 26.001953 0.995536 M 0.993075 9.995536 L 0.993075 5.013393 L 8.983132 5.013393 L 8.983132 8.991071 L 17.013139 8.991071 L 17.013139 5.013393 L 12.019354 5.013393 M 3.989347 8.991071 L 5.986861 8.991071 M 26.001953 8.991071 L 21.008168 8.991071 L 21.008168 5.013393 L 28.998224 5.013393 M 28.998224 -0.00892857 L 28.998224 8.991071 L 36.988281 8.991071 L 36.988281 -0.00892857 M 32.993253 -0.00892857 L 32.993253 8.991071 " transform="matrix(0.0977778,0,0,0.0972222,31.875556,17.055556)"/>
<path style="fill:none;stroke-width:2;stroke-linecap:butt;stroke-linejoin:miter;stroke:rgb(100%,100%,100%);stroke-opacity:1;stroke-miterlimit:4;" d="M -0.0154474 1.008929 L 25.992188 1.008929 M 0.98331 10.008929 L 0.98331 4.986607 L 9.013317 4.986607 L 9.013317 9.004464 L 17.003374 9.004464 L 17.003374 4.986607 L 12.009588 4.986607 M 4.019531 9.004464 L 6.017045 9.004464 M 25.992188 9.004464 L 20.998402 9.004464 L 20.998402 4.986607 L 28.988459 4.986607 M 28.988459 0.00446429 L 28.988459 9.004464 L 37.018466 9.004464 L 37.018466 0.00446429 M 32.983487 0.00446429 L 32.983487 9.004464 " transform="matrix(0.0977778,0,0,0.0972222,35.786667,6.972222)"/>
<path style="fill:none;stroke-width:2;stroke-linecap:butt;stroke-linejoin:miter;stroke:rgb(100%,100%,100%);stroke-opacity:1;stroke-miterlimit:4;" d="M -0.00772372 6.993304 L 9.001065 6.993304 M 9.999822 6.993304 L 19.008612 6.993304 " transform="matrix(0.195556,0,0,0.194444,35.786667,6.972222)"/>
<path style="fill:none;stroke-width:2;stroke-linecap:butt;stroke-linejoin:miter;stroke:rgb(100%,100%,100%);stroke-opacity:1;stroke-miterlimit:4;" d="M -0.00772372 7.006696 L 9.001065 7.006696 M 9.999822 7.006696 L 19.008612 7.006696 " transform="matrix(0.195556,0,0,0.194444,35.786667,15.305556)"/>
<path style="fill:none;stroke-width:2;stroke-linecap:butt;stroke-linejoin:miter;stroke:rgb(100%,100%,100%);stroke-opacity:1;stroke-miterlimit:4;" d="M -0.0154474 0.995536 L 25.992188 0.995536 M 0.98331 9.995536 L 0.98331 5.013393 L 9.013317 5.013393 L 9.013317 8.991071 L 17.003374 8.991071 L 17.003374 5.013393 L 12.009588 5.013393 M 4.019531 8.991071 L 6.017045 8.991071 M 25.992188 8.991071 L 20.998402 8.991071 L 20.998402 5.013393 L 28.988459 5.013393 M 28.988459 -0.00892857 L 28.988459 8.991071 L 37.018466 8.991071 L 37.018466 -0.00892857 M 32.983487 -0.00892857 L 32.983487 8.991071 " transform="matrix(0.0977778,0,0,0.0972222,35.786667,17.055556)"/>
<path style="fill:none;stroke-width:2;stroke-linecap:butt;stroke-linejoin:miter;stroke:rgb(100%,100%,100%);stroke-opacity:1;stroke-miterlimit:4;" d="M 0.0147372 1.008929 L 25.982422 1.008929 M 1.013494 10.008929 L 1.013494 4.986607 L 9.003551 4.986607 L 9.003551 9.004464 L 16.993608 9.004464 L 16.993608 4.986607 L 11.999822 4.986607 M 4.009766 9.004464 L 6.00728 9.004464 M 25.982422 9.004464 L 20.988636 9.004464 L 20.988636 4.986607 L 29.018643 4.986607 M 29.018643 0.00446429 L 29.018643 9.004464 L 37.0087 9.004464 L 37.0087 0.00446429 M 33.013672 0.00446429 L 33.013672 9.004464 " transform="matrix(0.0977778,0,0,0.0972222,39.697778,6.972222)"/>
<path style="fill:none;stroke-width:2;stroke-linecap:butt;stroke-linejoin:miter;stroke:rgb(100%,100%,100%);stroke-opacity:1;stroke-miterlimit:4;" d="M 0.00736861 6.993304 L 8.996183 6.993304 M 9.99494 6.993304 L 19.003729 6.993304 " transform="matrix(0.195556,0,0,0.194444,39.697778,6.972222)"/>
<path style="fill:none;stroke-width:2;stroke-linecap:butt;stroke-linejoin:miter;stroke:rgb(100%,100%,100%);stroke-opacity:1;stroke-miterlimit:4;" d="M 0.00736861 7.006696 L 8.996183 7.006696 M 9.99494 7.006696 L 19.003729 7.006696 " transform="matrix(0.195556,0,0,0.194444,39.697778,15.305556)"/>
<path style="fill:none;stroke-width:2;stroke-linecap:butt;stroke-linejoin:miter;stroke:rgb(100%,100%,100%);stroke-opacity:1;stroke-miterlimit:4;" d="M 0.0147372 0.995536 L 25.982422 0.995536 M 1.013494 9.995536 L 1.013494 5.013393 L 9.003551 5.013393 L 9.003551 8.991071 L 16.993608 8.991071 L 16.993608 5.013393 L 11.999822 5.013393 M 4.009766 8.991071 L 6.00728 8.991071 M 25.982422 8.991071 L 20.988636 8.991071 L 20.988636 5.013393 L 29.018643 5.013393 M 29.018643 -0.00892857 L 29.018643 8.991071 L 37.0087 8.991071 L 37.0087 -0.00892857 M 33.013672 -0.00892857 L 33.013672 8.991071 " transform="matrix(0.0977778,0,0,0.0972222,39.697778,17.055556)"/>
<path style=" stroke:none;fill-rule:nonzero;fill:rgb(85.490196%,0%,0%);fill-opacity:1;" d="M 20.277344 15.113281 C 21.574219 15.535156 22.992188 14.984375 23.660156 13.800781 C 24.332031 12.617188 24.066406 11.128906 23.03125 10.242188 C 23.699219 11.222656 23.75 12.492188 23.167969 13.523438 C 22.585938 14.554688 21.464844 15.171875 20.277344 15.113281 "/>
<path style=" stroke:none;fill-rule:nonzero;fill:rgb(85.490196%,0%,0%);fill-opacity:1;" d="M 23.941406 14.566406 C 24.789062 14.082031 25.253906 13.132812 25.121094 12.167969 C 24.984375 11.207031 24.273438 10.421875 23.324219 10.183594 C 23.992188 10.683594 24.433594 11.425781 24.550781 12.246094 C 24.664062 13.070312 24.445312 13.90625 23.941406 14.566406 "/>
<path style=" stroke:none;fill-rule:nonzero;fill:rgb(85.490196%,0%,0%);fill-opacity:1;" d="M 22 15.625 L 21.84375 12.5 L 22 10.039062 C 22.09375 10.171875 22.222656 10.277344 22.371094 10.347656 L 22.371094 12.1875 L 22.246094 15.289062 Z M 22 15.625 "/>
<path style=" stroke:none;fill-rule:nonzero;fill:rgb(85.490196%,0%,0%);fill-opacity:1;" d="M 21.9375 9.84375 L 22 9.902344 C 22.132812 10.089844 22.382812 10.148438 22.585938 10.039062 C 22.789062 9.929688 22.878906 9.6875 22.792969 9.476562 C 22.757812 9.652344 22.621094 9.785156 22.441406 9.816406 C 22.265625 9.847656 22.089844 9.765625 22 9.609375 "/>
<path style=" stroke:none;fill-rule:nonzero;fill:rgb(85.490196%,0%,0%);fill-opacity:1;" d="M 23.722656 15.113281 C 22.425781 15.535156 21.007812 14.984375 20.339844 13.800781 C 19.667969 12.617188 19.933594 11.128906 20.96875 10.242188 C 20.300781 11.222656 20.25 12.492188 20.832031 13.523438 C 21.414062 14.554688 22.535156 15.171875 23.722656 15.113281 "/>
<path style=" stroke:none;fill-rule:nonzero;fill:rgb(85.490196%,0%,0%);fill-opacity:1;" d="M 20.058594 14.566406 C 19.210938 14.082031 18.746094 13.132812 18.878906 12.167969 C 19.015625 11.207031 19.726562 10.421875 20.675781 10.183594 C 20.007812 10.683594 19.566406 11.425781 19.449219 12.246094 C 19.335938 13.070312 19.554688 13.90625 20.058594 14.566406 "/>
<path style=" stroke:none;fill-rule:nonzero;fill:rgb(85.490196%,0%,0%);fill-opacity:1;" d="M 22 15.625 L 22.15625 12.5 L 22 10.039062 C 21.90625 10.171875 21.777344 10.277344 21.628906 10.347656 L 21.628906 12.1875 L 21.753906 15.289062 Z M 22 15.625 "/>
<path style=" stroke:none;fill-rule:nonzero;fill:rgb(85.490196%,0%,0%);fill-opacity:1;" d="M 22.0625 9.84375 L 22 9.902344 C 21.867188 10.089844 21.617188 10.148438 21.414062 10.039062 C 21.210938 9.929688 21.121094 9.6875 21.207031 9.476562 C 21.242188 9.652344 21.378906 9.785156 21.558594 9.816406 C 21.734375 9.847656 21.910156 9.765625 22 9.609375 "/>
</g>
</svg>
