<?xml version="1.0" encoding="UTF-8"?>
<svg xmlns="http://www.w3.org/2000/svg" xmlns:xlink="http://www.w3.org/1999/xlink" width="38pt" height="25pt" viewBox="0 0 38 25" version="1.1">
<g id="surface1">
<rect x="0" y="0" width="38" height="25" style="fill:rgb(0%,0%,0%);fill-opacity:1;stroke:none;"/>
<path style=" stroke:none;fill-rule:nonzero;fill:rgb(100%,100%,100%);fill-opacity:1;" d="M 0 0 L 38 0 L 38 16.667969 L 0 16.667969 Z M 0 0 "/>
<path style=" stroke:none;fill-rule:nonzero;fill:rgb(80.784314%,6.666667%,14.901961%);fill-opacity:1;" d="M 0 0 L 38 0 L 38 8.332031 L 0 8.332031 Z M 0 0 "/>
<path style=" stroke:none;fill-rule:nonzero;fill:rgb(0%,47.843137%,23.921569%);fill-opacity:1;" d="M 11.554688 15.597656 L 11.335938 15.359375 L 11.554688 15.125 L 11.777344 14.890625 L 11.996094 15.128906 L 12.214844 15.363281 L 11.992188 15.597656 L 11.773438 15.832031 L 11.554688 15.59375 Z M 10.054688 15.476562 C 9.976562 15.445312 9.847656 15.34375 9.765625 15.246094 C 9.609375 15.0625 9.570312 14.976562 9.675781 15.035156 C 9.835938 15.125 10.148438 15.183594 10.257812 15.144531 C 10.667969 15 10.761719 14.410156 10.433594 14.039062 C 10.371094 13.964844 10.316406 13.878906 10.316406 13.847656 C 10.316406 13.820312 10.386719 13.761719 10.46875 13.722656 C 10.585938 13.667969 10.644531 13.605469 10.71875 13.457031 C 10.792969 13.308594 10.824219 13.277344 10.863281 13.308594 C 10.914062 13.355469 11.089844 13.804688 11.089844 13.894531 C 11.089844 13.9375 11.152344 13.949219 11.441406 13.949219 L 11.792969 13.949219 L 11.738281 13.808594 C 11.707031 13.730469 11.660156 13.625 11.628906 13.574219 C 11.578125 13.492188 11.578125 13.480469 11.625 13.441406 C 11.65625 13.421875 11.753906 13.347656 11.84375 13.28125 C 11.929688 13.210938 12.015625 13.128906 12.027344 13.089844 C 12.058594 13.003906 12.253906 12.742188 12.289062 12.742188 C 12.304688 12.742188 12.320312 13.015625 12.320312 13.347656 L 12.320312 13.949219 L 16.707031 13.949219 L 16.707031 12.222656 L 16.582031 12.140625 L 16.460938 12.058594 L 16.335938 12.160156 L 16.214844 12.261719 L 16.214844 13.496094 L 14.371094 13.496094 C 13.359375 13.496094 12.527344 13.488281 12.527344 13.480469 C 12.527344 13.46875 13.445312 12.140625 13.558594 11.988281 C 13.582031 11.957031 13.640625 11.875 13.6875 11.800781 C 13.734375 11.730469 13.78125 11.660156 13.792969 11.652344 C 13.804688 11.640625 13.851562 11.574219 13.898438 11.5 C 13.945312 11.425781 14 11.347656 14.019531 11.324219 C 14.039062 11.300781 14.371094 10.824219 14.757812 10.261719 C 15.144531 9.703125 15.472656 9.242188 15.484375 9.242188 C 15.5 9.242188 15.519531 9.285156 15.53125 9.34375 C 15.585938 9.660156 15.632812 9.835938 15.679688 9.933594 C 15.738281 10.058594 15.703125 10.101562 15.546875 10.109375 C 15.472656 10.109375 15.304688 10.332031 14.511719 11.472656 C 13.992188 12.222656 13.558594 12.847656 13.550781 12.863281 C 13.546875 12.878906 14.015625 12.894531 14.597656 12.894531 L 15.652344 12.894531 L 15.652344 12.488281 C 15.652344 12.265625 15.664062 12.066406 15.679688 12.046875 C 15.746094 11.945312 16.445312 11.421875 16.492188 11.433594 C 16.523438 11.445312 16.710938 11.582031 16.90625 11.746094 L 17.265625 12.039062 L 17.265625 14.550781 L 11.171875 14.550781 L 11.109375 14.792969 C 11.035156 15.085938 10.914062 15.296875 10.753906 15.414062 C 10.601562 15.523438 10.257812 15.554688 10.054688 15.476562 Z M 17.652344 12.59375 C 17.652344 11.226562 17.664062 10.628906 17.691406 10.613281 C 17.710938 10.597656 17.800781 10.671875 17.890625 10.769531 C 17.984375 10.871094 18.144531 11.035156 18.25 11.132812 C 18.417969 11.285156 18.433594 11.316406 18.382812 11.347656 C 18.210938 11.460938 18.214844 11.425781 18.214844 12.726562 L 18.214844 13.949219 L 18.550781 13.949219 C 18.847656 13.949219 18.902344 13.9375 19.042969 13.851562 C 19.210938 13.742188 19.222656 13.757812 19.140625 13.972656 C 19.109375 14.050781 19.070312 14.210938 19.058594 14.324219 L 19.039062 14.53125 L 18.34375 14.542969 L 17.652344 14.550781 Z M 17.652344 12.59375 "/>
<path style=" stroke:none;fill-rule:nonzero;fill:rgb(0%,47.843137%,23.921569%);fill-opacity:1;" d="M 21.28125 14.042969 C 21.300781 13.492188 21.351562 13.304688 21.542969 13.128906 C 21.6875 12.992188 21.894531 12.925781 22.132812 12.945312 L 22.3125 12.957031 L 22.324219 12.730469 C 22.335938 12.445312 22.3125 12.34375 22.226562 12.3125 C 22.117188 12.277344 22.140625 12.160156 22.269531 12.074219 C 22.332031 12.03125 22.488281 11.886719 22.613281 11.75 C 22.738281 11.613281 22.851562 11.5 22.867188 11.5 C 22.882812 11.5 22.894531 12.046875 22.894531 12.710938 L 22.894531 13.921875 L 23.386719 13.921875 L 23.386719 12.675781 C 23.386719 11.59375 23.378906 11.421875 23.332031 11.371094 C 23.300781 11.339844 23.261719 11.3125 23.246094 11.3125 C 23.164062 11.3125 23.222656 11.160156 23.324219 11.089844 C 23.390625 11.046875 23.542969 10.902344 23.667969 10.765625 C 23.792969 10.632812 23.90625 10.53125 23.921875 10.539062 C 23.9375 10.550781 23.953125 11.316406 23.953125 12.238281 L 23.953125 13.921875 L 24.445312 13.921875 L 24.445312 10.480469 L 24.355469 10.398438 C 24.308594 10.351562 24.269531 10.292969 24.269531 10.269531 C 24.269531 10.246094 24.378906 10.128906 24.511719 10.011719 C 24.644531 9.894531 24.789062 9.75 24.832031 9.6875 C 25.011719 9.414062 25.007812 9.375 25.007812 12.050781 L 25.007812 14.523438 L 21.265625 14.523438 L 21.289062 14.042969 Z M 22.332031 13.675781 L 22.332031 13.429688 L 22.191406 13.429688 C 22.007812 13.429688 21.835938 13.601562 21.835938 13.789062 L 21.835938 13.921875 L 22.332031 13.921875 Z M 25.394531 12.5625 C 25.394531 11.191406 25.40625 10.589844 25.433594 10.570312 C 25.457031 10.558594 25.546875 10.628906 25.636719 10.730469 C 25.726562 10.832031 25.886719 10.996094 25.996094 11.09375 C 26.164062 11.25 26.179688 11.277344 26.128906 11.3125 C 25.957031 11.425781 25.960938 11.390625 25.960938 12.695312 L 25.960938 13.921875 L 26.304688 13.921875 C 26.617188 13.921875 26.660156 13.910156 26.78125 13.824219 C 26.855469 13.769531 26.925781 13.734375 26.933594 13.746094 C 26.945312 13.757812 26.925781 13.839844 26.894531 13.929688 C 26.859375 14.015625 26.820312 14.183594 26.808594 14.296875 L 26.789062 14.507812 L 26.089844 14.515625 L 25.394531 14.527344 Z M 22.621094 10.503906 C 22.558594 10.480469 22.488281 10.4375 22.464844 10.410156 C 22.425781 10.367188 22.445312 10.359375 22.582031 10.382812 C 22.835938 10.421875 22.988281 10.375 23.128906 10.222656 L 23.25 10.085938 L 23.421875 10.148438 C 23.515625 10.1875 23.613281 10.207031 23.640625 10.195312 C 23.707031 10.167969 23.828125 9.960938 23.816406 9.894531 C 23.800781 9.8125 23.871094 9.824219 23.914062 9.910156 C 24 10.078125 23.929688 10.292969 23.765625 10.355469 C 23.6875 10.390625 23.613281 10.390625 23.484375 10.359375 C 23.328125 10.324219 23.304688 10.328125 23.234375 10.398438 C 23.082031 10.550781 22.847656 10.59375 22.621094 10.503906 Z M 23.050781 9.878906 C 22.964844 9.820312 22.785156 9.5 22.777344 9.398438 C 22.773438 9.3125 22.785156 9.285156 22.84375 9.277344 C 22.945312 9.261719 22.992188 9.332031 23.070312 9.625 C 23.132812 9.863281 23.125 9.9375 23.050781 9.878906 Z M 23.050781 9.878906 "/>
</g>
</svg>
