<?xml version="1.0" encoding="UTF-8"?>
<svg xmlns="http://www.w3.org/2000/svg" xmlns:xlink="http://www.w3.org/1999/xlink" width="50pt" height="25pt" viewBox="0 0 50 25" version="1.1">
<g id="surface1">
<rect x="0" y="0" width="50" height="25" style="fill:rgb(0%,0%,0%);fill-opacity:1;stroke:none;"/>
<path style=" stroke:none;fill-rule:nonzero;fill:rgb(100%,100%,100%);fill-opacity:1;" d="M 0 8.332031 L 50 8.332031 L 50 16.667969 L 0 16.667969 Z M 0 8.332031 "/>
<path style=" stroke:none;fill-rule:nonzero;fill:rgb(0%,47.843137%,23.921569%);fill-opacity:1;" d="M 0 16.667969 L 50 16.667969 L 50 25 L 0 25 Z M 0 16.667969 "/>
<path style=" stroke:none;fill-rule:nonzero;fill:rgb(80.784314%,6.666667%,14.901961%);fill-opacity:1;" d="M 25 12.5 L 0 25 L 0 0 Z M 25 12.5 "/>
<path style=" stroke:none;fill-rule:nonzero;fill:rgb(100%,100%,100%);fill-opacity:1;" d="M 9.390625 12.933594 L 8.328125 13.03125 L 8.46875 14.09375 L 7.726562 13.320312 L 6.984375 14.09375 L 7.125 13.03125 L 6.058594 12.933594 L 6.976562 12.378906 L 6.390625 11.480469 L 7.390625 11.855469 L 7.726562 10.835938 L 8.058594 11.855469 L 9.0625 11.480469 L 8.476562 12.378906 Z M 9.390625 12.933594 "/>
</g>
</svg>
