<?xml version="1.0" encoding="UTF-8"?>
<svg xmlns="http://www.w3.org/2000/svg" xmlns:xlink="http://www.w3.org/1999/xlink" width="50pt" height="25pt" viewBox="0 0 50 25" version="1.1">
<g id="surface1">
<rect x="0" y="0" width="50" height="25" style="fill:rgb(0%,68.627451%,79.215686%);fill-opacity:1;stroke:none;"/>
<path style=" stroke:none;fill-rule:nonzero;fill:rgb(99.607843%,77.254902%,4.705882%);fill-opacity:1;" d="M 30.375 10.5 C 30.375 12.359375 28.871094 13.863281 27.011719 13.863281 C 25.152344 13.863281 23.648438 12.359375 23.648438 10.5 C 23.648438 8.640625 25.152344 7.136719 27.011719 7.136719 C 28.871094 7.136719 30.375 8.640625 30.375 10.5 Z M 30.375 10.5 "/>
<path style=" stroke:none;fill-rule:nonzero;fill:rgb(99.607843%,77.254902%,4.705882%);fill-opacity:1;" d="M 27.011719 6.675781 C 27.210938 6.675781 27.285156 6.550781 27.285156 6.398438 C 27.285156 6.199219 27.011719 5.246094 27.011719 5.246094 C 27.011719 5.246094 26.738281 6.199219 26.738281 6.398438 C 26.738281 6.550781 26.8125 6.675781 27.011719 6.675781 Z M 27.011719 6.675781 "/>
<path style=" stroke:none;fill-rule:nonzero;fill:rgb(99.607843%,77.254902%,4.705882%);fill-opacity:1;" d="M 30.835938 10.5 C 30.835938 10.699219 30.960938 10.773438 31.113281 10.773438 C 31.3125 10.773438 32.265625 10.5 32.265625 10.5 C 32.265625 10.5 31.3125 10.226562 31.113281 10.226562 C 30.960938 10.226562 30.835938 10.300781 30.835938 10.5 Z M 30.835938 10.5 "/>
<path style=" stroke:none;fill-rule:nonzero;fill:rgb(99.607843%,77.254902%,4.705882%);fill-opacity:1;" d="M 27.011719 14.324219 C 26.8125 14.324219 26.738281 14.449219 26.738281 14.601562 C 26.738281 14.800781 27.011719 15.753906 27.011719 15.753906 C 27.011719 15.753906 27.285156 14.800781 27.285156 14.601562 C 27.285156 14.449219 27.210938 14.324219 27.011719 14.324219 Z M 27.011719 14.324219 "/>
<path style=" stroke:none;fill-rule:nonzero;fill:rgb(99.607843%,77.254902%,4.705882%);fill-opacity:1;" d="M 23.1875 10.5 C 23.1875 10.300781 23.0625 10.226562 22.910156 10.226562 C 22.710938 10.226562 21.757812 10.5 21.757812 10.5 C 21.757812 10.5 22.710938 10.773438 22.910156 10.773438 C 23.0625 10.773438 23.1875 10.699219 23.1875 10.5 Z M 23.1875 10.5 "/>
<path style=" stroke:none;fill-rule:nonzero;fill:rgb(99.607843%,77.254902%,4.705882%);fill-opacity:1;" d="M 28.472656 6.96875 C 28.660156 7.042969 28.777344 6.957031 28.835938 6.816406 C 28.910156 6.632812 29.023438 5.648438 29.023438 5.648438 C 29.023438 5.648438 28.402344 6.421875 28.328125 6.605469 C 28.269531 6.746094 28.289062 6.890625 28.472656 6.96875 Z M 28.472656 6.96875 "/>
<path style=" stroke:none;fill-rule:nonzero;fill:rgb(99.607843%,77.254902%,4.705882%);fill-opacity:1;" d="M 30.542969 11.960938 C 30.46875 12.148438 30.554688 12.265625 30.695312 12.324219 C 30.878906 12.398438 31.863281 12.511719 31.863281 12.511719 C 31.863281 12.511719 31.089844 11.890625 30.90625 11.816406 C 30.765625 11.757812 30.621094 11.777344 30.542969 11.960938 Z M 30.542969 11.960938 "/>
<path style=" stroke:none;fill-rule:nonzero;fill:rgb(99.607843%,77.254902%,4.705882%);fill-opacity:1;" d="M 25.550781 14.03125 C 25.363281 13.957031 25.246094 14.042969 25.1875 14.183594 C 25.113281 14.367188 25 15.351562 25 15.351562 C 25 15.351562 25.621094 14.578125 25.695312 14.394531 C 25.753906 14.253906 25.734375 14.109375 25.550781 14.03125 Z M 25.550781 14.03125 "/>
<path style=" stroke:none;fill-rule:nonzero;fill:rgb(99.607843%,77.254902%,4.705882%);fill-opacity:1;" d="M 23.480469 9.039062 C 23.554688 8.851562 23.46875 8.734375 23.328125 8.675781 C 23.144531 8.601562 22.160156 8.488281 22.160156 8.488281 C 22.160156 8.488281 22.933594 9.109375 23.117188 9.183594 C 23.257812 9.242188 23.402344 9.222656 23.480469 9.039062 Z M 23.480469 9.039062 "/>
<path style=" stroke:none;fill-rule:nonzero;fill:rgb(99.607843%,77.254902%,4.705882%);fill-opacity:1;" d="M 29.714844 7.796875 C 29.859375 7.9375 30 7.902344 30.105469 7.796875 C 30.246094 7.652344 30.726562 6.785156 30.726562 6.785156 C 30.726562 6.785156 29.859375 7.265625 29.714844 7.40625 C 29.609375 7.511719 29.574219 7.65625 29.714844 7.796875 Z M 29.714844 7.796875 "/>
<path style=" stroke:none;fill-rule:nonzero;fill:rgb(99.607843%,77.254902%,4.705882%);fill-opacity:1;" d="M 29.714844 13.203125 C 29.574219 13.347656 29.609375 13.488281 29.714844 13.59375 C 29.859375 13.734375 30.726562 14.214844 30.726562 14.214844 C 30.726562 14.214844 30.246094 13.347656 30.105469 13.203125 C 30 13.097656 29.855469 13.0625 29.714844 13.203125 Z M 29.714844 13.203125 "/>
<path style=" stroke:none;fill-rule:nonzero;fill:rgb(99.607843%,77.254902%,4.705882%);fill-opacity:1;" d="M 24.308594 13.203125 C 24.164062 13.0625 24.023438 13.097656 23.917969 13.203125 C 23.777344 13.347656 23.296875 14.214844 23.296875 14.214844 C 23.296875 14.214844 24.164062 13.734375 24.308594 13.59375 C 24.414062 13.488281 24.449219 13.34375 24.308594 13.203125 Z M 24.308594 13.203125 "/>
<path style=" stroke:none;fill-rule:nonzero;fill:rgb(99.607843%,77.254902%,4.705882%);fill-opacity:1;" d="M 24.308594 7.796875 C 24.449219 7.652344 24.414062 7.511719 24.308594 7.40625 C 24.164062 7.265625 23.296875 6.785156 23.296875 6.785156 C 23.296875 6.785156 23.777344 7.652344 23.917969 7.796875 C 24.023438 7.902344 24.167969 7.9375 24.308594 7.796875 Z M 24.308594 7.796875 "/>
<path style=" stroke:none;fill-rule:nonzero;fill:rgb(99.607843%,77.254902%,4.705882%);fill-opacity:1;" d="M 30.542969 9.039062 C 30.621094 9.222656 30.765625 9.242188 30.90625 9.183594 C 31.089844 9.109375 31.863281 8.488281 31.863281 8.488281 C 31.863281 8.488281 30.878906 8.601562 30.695312 8.675781 C 30.554688 8.734375 30.464844 8.851562 30.542969 9.039062 Z M 30.542969 9.039062 "/>
<path style=" stroke:none;fill-rule:nonzero;fill:rgb(99.607843%,77.254902%,4.705882%);fill-opacity:1;" d="M 28.472656 14.03125 C 28.289062 14.109375 28.269531 14.253906 28.328125 14.394531 C 28.402344 14.578125 29.023438 15.351562 29.023438 15.351562 C 29.023438 15.351562 28.910156 14.367188 28.835938 14.183594 C 28.777344 14.042969 28.660156 13.953125 28.472656 14.03125 Z M 28.472656 14.03125 "/>
<path style=" stroke:none;fill-rule:nonzero;fill:rgb(99.607843%,77.254902%,4.705882%);fill-opacity:1;" d="M 23.480469 11.960938 C 23.402344 11.777344 23.257812 11.757812 23.117188 11.816406 C 22.933594 11.890625 22.160156 12.511719 22.160156 12.511719 C 22.160156 12.511719 23.144531 12.398438 23.328125 12.324219 C 23.46875 12.265625 23.558594 12.148438 23.480469 11.960938 Z M 23.480469 11.960938 "/>
<path style=" stroke:none;fill-rule:nonzero;fill:rgb(99.607843%,77.254902%,4.705882%);fill-opacity:1;" d="M 25.550781 6.96875 C 25.734375 6.890625 25.753906 6.746094 25.695312 6.605469 C 25.621094 6.421875 25 5.648438 25 5.648438 C 25 5.648438 25.113281 6.632812 25.1875 6.816406 C 25.246094 6.957031 25.363281 7.046875 25.550781 6.96875 Z M 25.550781 6.96875 "/>
<path style=" stroke:none;fill-rule:nonzero;fill:rgb(99.607843%,77.254902%,4.705882%);fill-opacity:1;" d="M 27.757812 6.75 C 27.953125 6.789062 28.050781 6.679688 28.082031 6.53125 C 28.121094 6.335938 28.035156 5.347656 28.035156 5.347656 C 28.035156 5.347656 27.582031 6.230469 27.542969 6.425781 C 27.511719 6.570312 27.5625 6.710938 27.757812 6.75 Z M 27.757812 6.75 "/>
<path style=" stroke:none;fill-rule:nonzero;fill:rgb(99.607843%,77.254902%,4.705882%);fill-opacity:1;" d="M 30.761719 11.246094 C 30.722656 11.441406 30.832031 11.539062 30.980469 11.570312 C 31.175781 11.609375 32.164062 11.523438 32.164062 11.523438 C 32.164062 11.523438 31.28125 11.070312 31.085938 11.03125 C 30.941406 11 30.800781 11.050781 30.761719 11.246094 Z M 30.761719 11.246094 "/>
<path style=" stroke:none;fill-rule:nonzero;fill:rgb(99.607843%,77.254902%,4.705882%);fill-opacity:1;" d="M 26.265625 14.25 C 26.070312 14.210938 25.972656 14.320312 25.941406 14.46875 C 25.902344 14.664062 25.988281 15.652344 25.988281 15.652344 C 25.988281 15.652344 26.441406 14.769531 26.480469 14.574219 C 26.511719 14.429688 26.460938 14.289062 26.265625 14.25 Z M 26.265625 14.25 "/>
<path style=" stroke:none;fill-rule:nonzero;fill:rgb(99.607843%,77.254902%,4.705882%);fill-opacity:1;" d="M 23.261719 9.753906 C 23.300781 9.558594 23.191406 9.460938 23.042969 9.429688 C 22.847656 9.390625 21.859375 9.476562 21.859375 9.476562 C 21.859375 9.476562 22.742188 9.929688 22.9375 9.96875 C 23.085938 10 23.222656 9.949219 23.261719 9.753906 Z M 23.261719 9.753906 "/>
<path style=" stroke:none;fill-rule:nonzero;fill:rgb(99.607843%,77.254902%,4.705882%);fill-opacity:1;" d="M 29.136719 7.320312 C 29.304688 7.429688 29.433594 7.367188 29.519531 7.242188 C 29.628906 7.078125 29.929688 6.132812 29.929688 6.132812 C 29.929688 6.132812 29.171875 6.773438 29.0625 6.9375 C 28.976562 7.0625 28.96875 7.210938 29.136719 7.320312 Z M 29.136719 7.320312 "/>
<path style=" stroke:none;fill-rule:nonzero;fill:rgb(99.607843%,77.254902%,4.705882%);fill-opacity:1;" d="M 30.191406 12.625 C 30.082031 12.792969 30.144531 12.921875 30.269531 13.007812 C 30.433594 13.117188 31.378906 13.417969 31.378906 13.417969 C 31.378906 13.417969 30.738281 12.660156 30.574219 12.550781 C 30.449219 12.464844 30.300781 12.457031 30.191406 12.625 Z M 30.191406 12.625 "/>
<path style=" stroke:none;fill-rule:nonzero;fill:rgb(99.607843%,77.254902%,4.705882%);fill-opacity:1;" d="M 24.886719 13.679688 C 24.71875 13.570312 24.589844 13.632812 24.503906 13.757812 C 24.394531 13.921875 24.09375 14.867188 24.09375 14.867188 C 24.09375 14.867188 24.851562 14.226562 24.960938 14.0625 C 25.046875 13.9375 25.054688 13.789062 24.886719 13.679688 Z M 24.886719 13.679688 "/>
<path style=" stroke:none;fill-rule:nonzero;fill:rgb(99.607843%,77.254902%,4.705882%);fill-opacity:1;" d="M 23.832031 8.375 C 23.941406 8.207031 23.878906 8.078125 23.753906 7.992188 C 23.589844 7.882812 22.644531 7.582031 22.644531 7.582031 C 22.644531 7.582031 23.285156 8.339844 23.449219 8.449219 C 23.574219 8.535156 23.722656 8.542969 23.832031 8.375 Z M 23.832031 8.375 "/>
<path style=" stroke:none;fill-rule:nonzero;fill:rgb(99.607843%,77.254902%,4.705882%);fill-opacity:1;" d="M 30.191406 8.375 C 30.304688 8.542969 30.449219 8.535156 30.574219 8.449219 C 30.738281 8.339844 31.378906 7.582031 31.378906 7.582031 C 31.378906 7.582031 30.433594 7.882812 30.269531 7.992188 C 30.144531 8.078125 30.078125 8.210938 30.191406 8.375 Z M 30.191406 8.375 "/>
<path style=" stroke:none;fill-rule:nonzero;fill:rgb(99.607843%,77.254902%,4.705882%);fill-opacity:1;" d="M 29.136719 13.679688 C 28.96875 13.792969 28.976562 13.9375 29.0625 14.0625 C 29.171875 14.226562 29.929688 14.867188 29.929688 14.867188 C 29.929688 14.867188 29.628906 13.921875 29.519531 13.757812 C 29.433594 13.632812 29.300781 13.566406 29.136719 13.679688 Z M 29.136719 13.679688 "/>
<path style=" stroke:none;fill-rule:nonzero;fill:rgb(99.607843%,77.254902%,4.705882%);fill-opacity:1;" d="M 23.832031 12.625 C 23.71875 12.457031 23.574219 12.464844 23.449219 12.550781 C 23.285156 12.660156 22.644531 13.417969 22.644531 13.417969 C 22.644531 13.417969 23.589844 13.117188 23.753906 13.007812 C 23.878906 12.921875 23.945312 12.789062 23.832031 12.625 Z M 23.832031 12.625 "/>
<path style=" stroke:none;fill-rule:nonzero;fill:rgb(99.607843%,77.254902%,4.705882%);fill-opacity:1;" d="M 24.886719 7.320312 C 25.054688 7.207031 25.046875 7.0625 24.960938 6.9375 C 24.851562 6.773438 24.09375 6.132812 24.09375 6.132812 C 24.09375 6.132812 24.394531 7.078125 24.503906 7.242188 C 24.589844 7.367188 24.722656 7.433594 24.886719 7.320312 Z M 24.886719 7.320312 "/>
<path style=" stroke:none;fill-rule:nonzero;fill:rgb(99.607843%,77.254902%,4.705882%);fill-opacity:1;" d="M 30.761719 9.753906 C 30.800781 9.949219 30.941406 10 31.085938 9.96875 C 31.28125 9.929688 32.164062 9.476562 32.164062 9.476562 C 32.164062 9.476562 31.175781 9.390625 30.980469 9.429688 C 30.832031 9.460938 30.722656 9.558594 30.761719 9.753906 Z M 30.761719 9.753906 "/>
<path style=" stroke:none;fill-rule:nonzero;fill:rgb(99.607843%,77.254902%,4.705882%);fill-opacity:1;" d="M 27.757812 14.25 C 27.5625 14.289062 27.511719 14.429688 27.542969 14.574219 C 27.582031 14.769531 28.035156 15.652344 28.035156 15.652344 C 28.035156 15.652344 28.121094 14.664062 28.082031 14.46875 C 28.050781 14.320312 27.953125 14.210938 27.757812 14.25 Z M 27.757812 14.25 "/>
<path style=" stroke:none;fill-rule:nonzero;fill:rgb(99.607843%,77.254902%,4.705882%);fill-opacity:1;" d="M 23.261719 11.246094 C 23.222656 11.050781 23.085938 11 22.9375 11.03125 C 22.742188 11.070312 21.859375 11.523438 21.859375 11.523438 C 21.859375 11.523438 22.847656 11.609375 23.042969 11.570312 C 23.191406 11.539062 23.300781 11.441406 23.261719 11.246094 Z M 23.261719 11.246094 "/>
<path style=" stroke:none;fill-rule:nonzero;fill:rgb(99.607843%,77.254902%,4.705882%);fill-opacity:1;" d="M 26.265625 6.75 C 26.460938 6.710938 26.511719 6.570312 26.480469 6.425781 C 26.441406 6.230469 25.988281 5.347656 25.988281 5.347656 C 25.988281 5.347656 25.902344 6.335938 25.941406 6.53125 C 25.972656 6.679688 26.070312 6.789062 26.265625 6.75 Z M 26.265625 6.75 "/>
<path style=" stroke:none;fill-rule:nonzero;fill:rgb(99.607843%,77.254902%,4.705882%);fill-opacity:1;" d="M 26.410156 17.785156 C 26.320312 17.792969 26.234375 17.804688 26.148438 17.832031 C 26.03125 17.847656 25.917969 17.886719 25.800781 17.90625 L 25.753906 17.914062 L 25.675781 17.921875 C 25.683594 17.941406 25.683594 17.964844 25.683594 17.988281 C 25.683594 18.007812 25.683594 18.03125 25.675781 18.050781 C 25.671875 18.066406 25.65625 18.089844 25.644531 18.101562 C 25.625 18.121094 25.609375 18.136719 25.589844 18.144531 C 25.566406 18.15625 25.546875 18.160156 25.523438 18.160156 C 25.5 18.164062 25.476562 18.160156 25.457031 18.152344 C 25.433594 18.144531 25.414062 18.132812 25.394531 18.113281 C 25.371094 18.121094 25.347656 18.125 25.324219 18.128906 C 25.300781 18.128906 25.277344 18.128906 25.257812 18.128906 C 25.234375 18.121094 25.210938 18.113281 25.1875 18.105469 C 25.164062 18.09375 25.144531 18.082031 25.121094 18.070312 C 25.039062 18.121094 24.941406 18.167969 24.890625 18.253906 C 24.863281 18.296875 24.855469 18.339844 24.847656 18.386719 C 24.84375 18.445312 24.859375 18.507812 24.886719 18.5625 C 24.894531 18.578125 24.902344 18.503906 24.929688 18.496094 C 24.976562 18.457031 25.035156 18.425781 25.097656 18.410156 C 25.148438 18.386719 25.140625 18.414062 25.121094 18.453125 C 25.113281 18.472656 25.085938 18.554688 25.125 18.511719 C 25.292969 18.4375 25.480469 18.421875 25.664062 18.410156 C 25.929688 18.382812 26.195312 18.375 26.460938 18.371094 C 26.710938 18.375 26.960938 18.378906 27.210938 18.386719 C 27.328125 18.390625 27.449219 18.417969 27.566406 18.398438 C 27.597656 18.390625 27.640625 18.390625 27.65625 18.371094 C 27.601562 18.339844 27.539062 18.339844 27.480469 18.332031 L 27.003906 18.332031 C 26.871094 18.320312 26.734375 18.316406 26.609375 18.269531 C 26.574219 18.253906 26.546875 18.222656 26.511719 18.257812 C 26.464844 18.273438 26.414062 18.285156 26.363281 18.289062 C 26.277344 18.296875 26.191406 18.277344 26.109375 18.246094 C 26.167969 18.164062 26.238281 18.09375 26.300781 18.019531 C 26.25 18.011719 26.199219 18 26.148438 17.988281 C 26.238281 17.925781 26.324219 17.851562 26.410156 17.785156 Z M 26.410156 17.785156 "/>
<path style=" stroke:none;fill-rule:nonzero;fill:rgb(99.607843%,77.254902%,4.705882%);fill-opacity:1;" d="M 30.304688 18.648438 C 30.125 18.757812 29.984375 18.566406 29.835938 18.507812 C 29.726562 18.566406 29.714844 18.761719 29.613281 18.855469 C 29.492188 18.996094 29.347656 18.816406 29.355469 18.683594 C 29.210938 18.804688 29.140625 19.082031 28.90625 19.042969 C 28.792969 18.953125 28.710938 18.761719 28.628906 18.980469 C 28.558594 19.085938 28.375 19.234375 28.28125 19.074219 C 28.25 18.933594 28.179688 18.769531 28.101562 18.992188 C 28.050781 19.152344 27.882812 19.269531 27.71875 19.199219 C 27.628906 19.125 27.789062 18.855469 27.675781 18.875 C 27.507812 18.988281 27.40625 19.265625 27.171875 19.242188 C 27.078125 19.140625 27.226562 18.964844 27.125 18.851562 C 27.007812 19.003906 26.875 19.226562 26.667969 19.242188 C 26.566406 19.164062 26.671875 18.929688 26.609375 18.898438 C 26.394531 19.023438 26.171875 19.25 25.90625 19.179688 C 26.011719 18.78125 26.445312 18.644531 26.808594 18.613281 C 27.4375 18.535156 28.097656 18.675781 28.699219 18.449219 C 28.796875 18.390625 29.03125 18.308594 28.949219 18.167969 C 28.875 18.0625 29.144531 18.101562 29.167969 17.976562 C 29.152344 17.816406 29.292969 17.835938 29.425781 17.824219 C 30.035156 17.796875 30.640625 17.925781 31.246094 17.949219 C 31.292969 18.242188 30.964844 18.453125 30.699219 18.359375 C 30.574219 18.378906 30.382812 18.070312 30.421875 18.296875 C 30.394531 18.414062 30.414062 18.570312 30.304688 18.648438 M 25.121094 18.042969 C 25.261719 18.171875 25.359375 18.019531 25.492188 17.964844 C 25.933594 17.8125 26.320312 17.546875 26.699219 17.28125 C 26.929688 17.089844 27.132812 16.84375 27.441406 16.78125 C 28.042969 16.597656 28.6875 16.621094 29.292969 16.453125 C 29.753906 15.820312 30.539062 15.59375 31.195312 15.230469 C 31.34375 15.183594 31.398438 15.0625 31.445312 14.929688 C 31.695312 14.535156 32.039062 14.183594 32.441406 13.941406 C 32.632812 13.839844 32.863281 13.777344 33.078125 13.828125 C 33.0625 14.085938 32.914062 14.3125 32.734375 14.492188 C 32.882812 14.488281 33.007812 14.394531 33.15625 14.402344 C 33.207031 14.664062 32.921875 14.804688 32.769531 14.96875 C 32.851562 14.988281 33.175781 15.011719 33 15.097656 C 32.777344 15.253906 32.519531 15.359375 32.308594 15.542969 C 32.503906 15.578125 32.523438 15.617188 32.328125 15.6875 C 32.222656 15.757812 32.019531 15.78125 32 15.921875 C 32.144531 16.011719 31.933594 16.101562 31.851562 16.128906 C 31.695312 16.164062 31.53125 16.234375 31.738281 16.351562 C 31.660156 16.46875 31.492188 16.496094 31.355469 16.484375 C 31.398438 16.617188 31.457031 16.769531 31.285156 16.828125 C 30.894531 17.121094 30.433594 17.335938 29.945312 17.386719 C 30.558594 17.433594 31.1875 17.320312 31.714844 16.984375 C 31.78125 16.902344 32.144531 16.816406 31.941406 16.746094 C 31.847656 16.707031 31.640625 16.664062 31.628906 16.589844 C 31.910156 16.414062 32.269531 16.476562 32.574219 16.375 C 32.582031 16.273438 32.34375 16.300781 32.253906 16.28125 C 32.039062 16.261719 32.050781 16.207031 32.257812 16.1875 C 32.519531 16.117188 32.8125 16.105469 33.03125 15.933594 C 32.855469 15.851562 32.628906 15.925781 32.441406 15.859375 C 32.761719 15.714844 33.144531 15.703125 33.433594 15.492188 C 33.566406 15.34375 33.261719 15.390625 33.175781 15.394531 C 32.996094 15.425781 32.914062 15.339844 33.117188 15.265625 C 33.464844 15.007812 33.902344 14.84375 34.148438 14.472656 C 34.203125 14.390625 34.28125 14.140625 34.097656 14.230469 C 33.855469 14.308594 33.644531 14.582031 33.367188 14.496094 C 33.910156 14.074219 34.429688 13.597656 34.800781 13.015625 C 34.820312 12.847656 34.554688 12.828125 34.488281 12.960938 C 34.136719 13.296875 33.820312 13.691406 33.375 13.902344 C 33.800781 13.492188 34.15625 13 34.464844 12.496094 C 34.53125 12.34375 34.710938 12.164062 34.613281 11.996094 C 34.457031 11.867188 34.261719 11.984375 34.179688 12.136719 C 33.910156 12.492188 33.703125 12.90625 33.355469 13.195312 C 33.660156 12.613281 33.976562 11.992188 33.984375 11.316406 C 33.984375 11.179688 33.957031 10.976562 33.769531 11 C 33.617188 11.027344 33.65625 11.25 33.59375 11.363281 C 33.457031 11.824219 33.394531 12.320312 33.117188 12.722656 C 33.179688 12.351562 33.289062 11.960938 33.203125 11.585938 C 33.164062 11.414062 32.894531 11.488281 32.929688 11.65625 C 32.601562 13.300781 31.5 14.742188 30.054688 15.574219 C 29.390625 15.949219 28.652344 16.191406 27.902344 16.300781 C 27.699219 16.34375 27.480469 16.316406 27.285156 16.386719 C 26.820312 16.746094 26.535156 17.347656 25.941406 17.535156 C 25.675781 17.667969 25.328125 17.695312 25.140625 17.941406 C 25.121094 17.972656 25.121094 18.007812 25.121094 18.042969 "/>
<path style=" stroke:none;fill-rule:nonzero;fill:rgb(99.607843%,77.254902%,4.705882%);fill-opacity:1;" d="M 26.894531 16.375 C 26.808594 16.53125 26.757812 16.714844 26.644531 16.859375 C 26.304688 16.550781 25.8125 16.558594 25.386719 16.539062 C 25.03125 16.519531 24.644531 16.488281 24.371094 16.234375 C 24.082031 16 23.847656 15.691406 23.523438 15.5 C 23.230469 15.417969 22.933594 15.320312 22.695312 15.117188 C 22.191406 14.707031 21.902344 14.09375 21.40625 13.667969 C 21.3125 13.578125 21.203125 13.503906 21.097656 13.425781 C 20.996094 13.449219 21.042969 13.667969 20.917969 13.558594 C 20.851562 13.507812 20.6875 13.503906 20.671875 13.570312 C 20.820312 13.769531 20.972656 13.996094 20.996094 14.253906 C 20.890625 14.261719 20.707031 14.230469 20.65625 14.269531 C 20.792969 14.472656 20.96875 14.65625 21.167969 14.800781 C 21.074219 14.816406 20.882812 14.808594 20.847656 14.847656 C 21.046875 15.007812 21.257812 15.171875 21.515625 15.214844 C 21.570312 15.28125 21.4375 15.417969 21.546875 15.476562 C 21.613281 15.503906 21.824219 15.546875 21.679688 15.621094 C 21.578125 15.6875 21.617188 15.84375 21.742188 15.839844 C 21.824219 15.878906 22.003906 15.890625 22.015625 15.960938 C 21.945312 16.03125 21.722656 16.117188 21.914062 16.1875 C 22.089844 16.285156 22.289062 16.347656 22.492188 16.355469 C 22.390625 16.4375 22.265625 16.488281 22.160156 16.566406 C 22.625 16.839844 23.140625 17.019531 23.648438 17.191406 C 23.847656 17.257812 24.054688 17.320312 24.265625 17.359375 C 23.65625 17.324219 23.066406 17.144531 22.511719 16.898438 C 22.222656 16.773438 21.933594 16.648438 21.640625 16.542969 C 21.769531 16.472656 21.917969 16.457031 22.050781 16.398438 C 21.773438 16.34375 21.46875 16.324219 21.226562 16.171875 C 21.261719 16.105469 21.40625 16.101562 21.484375 16.070312 C 21.632812 16.03125 21.722656 15.988281 21.515625 15.976562 C 21.304688 15.921875 21.0625 15.945312 20.878906 15.820312 C 20.890625 15.742188 21.082031 15.769531 21.164062 15.738281 C 21.261719 15.71875 21.371094 15.707031 21.453125 15.636719 C 21.128906 15.503906 20.703125 15.597656 20.449219 15.3125 C 20.390625 15.203125 20.628906 15.292969 20.699219 15.273438 C 20.871094 15.273438 21.058594 15.328125 21.226562 15.257812 C 20.753906 15.050781 20.246094 14.855469 19.886719 14.472656 C 19.84375 14.410156 19.726562 14.242188 19.820312 14.21875 C 20.101562 14.257812 20.304688 14.5625 20.605469 14.515625 C 20.648438 14.460938 20.433594 14.375 20.378906 14.296875 C 19.941406 13.921875 19.515625 13.511719 19.207031 13.019531 C 19.1875 12.855469 19.445312 12.832031 19.511719 12.957031 C 19.847656 13.28125 20.152344 13.65625 20.570312 13.878906 C 20.714844 13.949219 20.484375 13.792969 20.453125 13.734375 C 20.066406 13.289062 19.699219 12.816406 19.429688 12.289062 C 19.382812 12.191406 19.300781 12.019531 19.445312 11.96875 C 19.589844 11.898438 19.734375 11.996094 19.808594 12.121094 C 20.089844 12.476562 20.300781 12.902344 20.652344 13.199219 C 20.351562 12.617188 20.03125 12.003906 20.023438 11.332031 C 20.03125 11.199219 20.039062 11.003906 20.214844 11.007812 C 20.363281 10.984375 20.339844 11.175781 20.386719 11.265625 C 20.535156 11.761719 20.597656 12.292969 20.890625 12.730469 C 20.828125 12.363281 20.730469 11.988281 20.792969 11.613281 C 20.808594 11.492188 20.945312 11.457031 21.035156 11.527344 C 21.109375 11.707031 21.125 11.925781 21.191406 12.117188 C 21.566406 13.40625 22.414062 14.539062 23.515625 15.296875 C 24.421875 15.917969 25.496094 16.292969 26.597656 16.355469 C 26.695312 16.363281 26.796875 16.367188 26.894531 16.375 "/>
<path style=" stroke:none;fill-rule:nonzero;fill:rgb(99.607843%,77.254902%,4.705882%);fill-opacity:1;" d="M 25.558594 18.023438 C 25.558594 18.054688 25.53125 18.082031 25.5 18.082031 C 25.46875 18.082031 25.441406 18.054688 25.441406 18.023438 C 25.441406 17.988281 25.46875 17.964844 25.5 17.964844 C 25.53125 17.964844 25.558594 17.988281 25.558594 18.023438 Z M 25.558594 18.023438 "/>
<path style="fill-rule:nonzero;fill:rgb(99.607843%,77.254902%,4.705882%);fill-opacity:1;stroke-width:0.381274;stroke-linecap:butt;stroke-linejoin:miter;stroke:rgb(0%,68.627451%,79.215686%);stroke-opacity:1;stroke-miterlimit:4;" d="M 1020.78125 720.46875 C 1020.78125 721.09375 1020.3125 721.40625 1019.84375 721.40625 C 1019.21875 721.40625 1018.90625 721.09375 1018.90625 720.46875 C 1018.90625 720 1019.21875 719.53125 1019.84375 719.53125 C 1020.3125 719.53125 1020.78125 720 1020.78125 720.46875 Z M 1020.78125 720.46875 " transform="matrix(0.025,0,0,0.025,0,0)"/>
<path style=" stroke:none;fill-rule:nonzero;fill:rgb(99.607843%,77.254902%,4.705882%);fill-opacity:1;" d="M 3 1.824219 C 3 1.824219 2.757812 1.621094 2.679688 1.722656 C 2.546875 1.886719 3.082031 2.695312 3.082031 2.980469 C 3.082031 3.453125 2.769531 3.578125 2.382812 3.644531 C 2.125 3.691406 1.699219 3.628906 1.699219 3.628906 C 1.78125 3.519531 1.832031 3.488281 1.964844 3.480469 C 1.816406 3.402344 1.664062 3.234375 1.664062 2.972656 C 1.664062 2.570312 1.832031 2.402344 1.832031 1.949219 C 1.832031 1.695312 1.625 1.375 1.625 1.375 C 1.988281 1.410156 2.171875 1.75 2.066406 2.019531 C 2.125 2.027344 2.179688 2.015625 2.222656 1.972656 C 2.25 2.046875 2.210938 2.136719 2.152344 2.210938 C 2.199219 2.234375 2.230469 2.21875 2.304688 2.203125 C 2.296875 2.28125 2.25 2.363281 2.136719 2.441406 C 2.464844 2.355469 2.667969 2.585938 2.667969 2.824219 C 2.667969 3.007812 2.542969 3.136719 2.417969 3.136719 C 2.378906 3.136719 2.320312 3.121094 2.285156 3.09375 C 2.261719 3.144531 2.273438 3.210938 2.296875 3.261719 C 2.207031 3.238281 2.148438 3.183594 2.191406 3.070312 C 2.121094 3.066406 2.066406 3.039062 2.027344 2.996094 C 2.066406 2.945312 2.125 2.917969 2.191406 2.921875 C 2.140625 2.816406 2.195312 2.757812 2.277344 2.710938 C 2.277344 2.710938 2.226562 2.921875 2.359375 2.921875 C 2.421875 2.921875 2.476562 2.902344 2.476562 2.8125 C 2.476562 2.734375 2.40625 2.628906 2.25 2.632812 C 2.09375 2.640625 1.96875 2.742188 1.96875 2.992188 C 1.96875 3.222656 2.152344 3.335938 2.398438 3.34375 C 2.621094 3.351562 2.785156 3.230469 2.785156 3.003906 C 2.785156 2.699219 2.347656 2.007812 2.347656 1.738281 C 2.347656 1.535156 2.53125 1.421875 2.710938 1.421875 C 2.941406 1.421875 3.136719 1.652344 3.136719 1.652344 Z M 3 1.824219 "/>
<path style=" stroke:none;fill-rule:nonzero;fill:rgb(99.607843%,77.254902%,4.705882%);fill-opacity:1;" d="M 3.050781 7.304688 C 3.050781 7.808594 2.59375 8.070312 2.238281 8.070312 C 1.757812 8.070312 1.5 7.78125 1.5 7.40625 C 1.5 7.191406 1.539062 7.058594 1.636719 6.851562 C 1.636719 6.851562 2.433594 5.203125 2.742188 4.5625 C 2.78125 4.480469 2.792969 4.390625 2.792969 4.257812 C 2.792969 4.054688 2.59375 3.886719 2.382812 3.878906 C 2.195312 3.875 1.988281 4.058594 1.988281 4.265625 C 1.988281 4.519531 2.117188 4.628906 2.25 4.628906 C 2.417969 4.628906 2.484375 4.5625 2.484375 4.445312 C 2.484375 4.367188 2.445312 4.332031 2.386719 4.332031 C 2.246094 4.332031 2.285156 4.519531 2.285156 4.519531 C 2.214844 4.503906 2.15625 4.433594 2.191406 4.34375 C 2.140625 4.332031 2.089844 4.304688 2.050781 4.261719 C 2.089844 4.226562 2.132812 4.195312 2.191406 4.1875 C 2.15625 4.078125 2.203125 4.023438 2.296875 4 C 2.277344 4.042969 2.277344 4.082031 2.285156 4.117188 C 2.433594 4.074219 2.667969 4.144531 2.667969 4.40625 C 2.667969 4.664062 2.488281 4.882812 2.148438 4.828125 C 2.230469 4.867188 2.269531 4.945312 2.277344 5.03125 C 2.21875 5.007812 2.148438 5.003906 2.148438 5.003906 C 2.1875 5.074219 2.242188 5.136719 2.242188 5.269531 C 2.179688 5.242188 2.121094 5.191406 2.039062 5.222656 C 2.167969 5.472656 2.011719 5.8125 1.617188 5.890625 C 1.761719 5.722656 1.832031 5.542969 1.832031 5.359375 C 1.832031 4.773438 1.671875 4.675781 1.671875 4.265625 C 1.671875 4.09375 1.757812 3.910156 1.933594 3.785156 L 1.933594 3.792969 C 1.816406 3.761719 1.742188 3.703125 1.699219 3.628906 C 1.964844 3.550781 2.347656 3.554688 2.550781 3.632812 C 2.785156 3.660156 2.953125 3.84375 3 3.933594 C 3.046875 4.027344 3.144531 4.359375 3 4.65625 C 2.84375 4.984375 2.105469 6.546875 1.878906 7.039062 C 1.828125 7.140625 1.800781 7.253906 1.800781 7.371094 C 1.800781 7.671875 2.074219 7.777344 2.230469 7.777344 C 2.417969 7.777344 2.609375 7.636719 2.609375 7.457031 C 2.609375 7.34375 2.546875 7.277344 2.460938 7.277344 C 2.246094 7.277344 2.261719 7.457031 2.300781 7.570312 C 2.171875 7.511719 2.09375 7.40625 2.117188 7.292969 C 2.042969 7.28125 1.96875 7.246094 1.90625 7.175781 C 1.957031 7.109375 2.019531 7.058594 2.117188 7.058594 C 2.074219 6.886719 2.1875 6.8125 2.300781 6.773438 C 2.265625 6.898438 2.242188 7.042969 2.460938 7.042969 C 2.617188 7.042969 2.742188 7.070312 2.8125 7.175781 C 2.816406 7.039062 2.828125 6.5 2.828125 6.5 C 2.839844 6.296875 2.558594 6.300781 2.382812 6.363281 C 2.449219 6.128906 2.585938 6.003906 2.90625 6.035156 C 2.828125 6.003906 2.746094 5.929688 2.746094 5.789062 C 2.746094 5.601562 2.898438 5.390625 3 5.328125 Z M 3.050781 7.304688 "/>
<path style=" stroke:none;fill-rule:nonzero;fill:rgb(99.607843%,77.254902%,4.705882%);fill-opacity:1;" d="M 3.050781 8.824219 C 3.050781 8.316406 2.59375 8.054688 2.238281 8.054688 C 1.757812 8.054688 1.5 8.34375 1.5 8.722656 C 1.5 8.933594 1.539062 9.070312 1.636719 9.273438 C 1.636719 9.273438 2.433594 10.925781 2.742188 11.566406 C 2.78125 11.644531 2.792969 11.734375 2.792969 11.867188 C 2.792969 12.074219 2.59375 12.242188 2.382812 12.246094 C 2.195312 12.25 1.988281 12.070312 1.988281 11.863281 C 1.988281 11.609375 2.117188 11.496094 2.25 11.496094 C 2.417969 11.496094 2.484375 11.566406 2.484375 11.679688 C 2.484375 11.761719 2.445312 11.796875 2.386719 11.796875 C 2.246094 11.796875 2.285156 11.605469 2.285156 11.605469 C 2.214844 11.621094 2.15625 11.691406 2.191406 11.78125 C 2.140625 11.792969 2.089844 11.820312 2.050781 11.863281 C 2.089844 11.902344 2.132812 11.929688 2.191406 11.941406 C 2.15625 12.050781 2.203125 12.101562 2.296875 12.125 C 2.277344 12.082031 2.277344 12.042969 2.285156 12.007812 C 2.433594 12.050781 2.667969 11.984375 2.667969 11.722656 C 2.667969 11.460938 2.488281 11.246094 2.148438 11.300781 C 2.230469 11.261719 2.269531 11.183594 2.277344 11.09375 C 2.21875 11.117188 2.148438 11.121094 2.148438 11.121094 C 2.1875 11.050781 2.242188 10.992188 2.242188 10.855469 C 2.179688 10.882812 2.121094 10.9375 2.039062 10.902344 C 2.167969 10.65625 2.011719 10.316406 1.617188 10.234375 C 1.761719 10.402344 1.832031 10.585938 1.832031 10.765625 C 1.832031 11.355469 1.671875 11.453125 1.671875 11.863281 C 1.671875 12.03125 1.757812 12.21875 1.933594 12.34375 L 1.933594 12.335938 C 1.816406 12.367188 1.742188 12.421875 1.699219 12.5 C 1.964844 12.574219 2.347656 12.574219 2.550781 12.492188 C 2.785156 12.464844 2.953125 12.285156 3 12.191406 C 3.046875 12.101562 3.144531 11.769531 3 11.46875 C 2.84375 11.140625 2.105469 9.582031 1.878906 9.089844 C 1.828125 8.984375 1.800781 8.875 1.800781 8.753906 C 1.800781 8.453125 2.074219 8.351562 2.230469 8.351562 C 2.417969 8.351562 2.609375 8.492188 2.609375 8.671875 C 2.609375 8.78125 2.546875 8.851562 2.460938 8.851562 C 2.246094 8.851562 2.261719 8.671875 2.300781 8.558594 C 2.171875 8.617188 2.09375 8.722656 2.117188 8.832031 C 2.042969 8.84375 1.96875 8.878906 1.90625 8.953125 C 1.957031 9.019531 2.019531 9.066406 2.117188 9.070312 C 2.074219 9.242188 2.1875 9.316406 2.300781 9.355469 C 2.265625 9.230469 2.242188 9.082031 2.460938 9.082031 C 2.617188 9.082031 2.742188 9.054688 2.8125 8.953125 C 2.816406 9.089844 2.828125 9.628906 2.828125 9.628906 C 2.839844 9.832031 2.558594 9.824219 2.382812 9.765625 C 2.449219 9.996094 2.585938 10.125 2.90625 10.09375 C 2.828125 10.125 2.746094 10.195312 2.746094 10.335938 C 2.746094 10.527344 2.898438 10.738281 3 10.800781 Z M 3.050781 8.824219 "/>
<path style=" stroke:none;fill-rule:nonzero;fill:rgb(99.607843%,77.254902%,4.705882%);fill-opacity:1;" d="M 3 1.824219 C 3 1.824219 3.242188 1.621094 3.320312 1.722656 C 3.453125 1.886719 2.917969 2.695312 2.917969 2.980469 C 2.917969 3.453125 3.230469 3.578125 3.617188 3.644531 C 3.875 3.691406 4.300781 3.628906 4.300781 3.628906 C 4.21875 3.519531 4.167969 3.488281 4.035156 3.480469 C 4.183594 3.402344 4.335938 3.234375 4.335938 2.972656 C 4.335938 2.570312 4.167969 2.402344 4.167969 1.949219 C 4.167969 1.695312 4.375 1.375 4.375 1.375 C 4.011719 1.410156 3.828125 1.75 3.933594 2.019531 C 3.875 2.027344 3.820312 2.015625 3.777344 1.972656 C 3.75 2.046875 3.789062 2.136719 3.847656 2.210938 C 3.800781 2.234375 3.769531 2.21875 3.695312 2.203125 C 3.703125 2.28125 3.75 2.363281 3.863281 2.441406 C 3.535156 2.355469 3.332031 2.585938 3.332031 2.824219 C 3.332031 3.007812 3.457031 3.136719 3.582031 3.136719 C 3.621094 3.136719 3.679688 3.121094 3.714844 3.09375 C 3.738281 3.144531 3.726562 3.210938 3.703125 3.261719 C 3.792969 3.238281 3.851562 3.183594 3.808594 3.070312 C 3.878906 3.066406 3.933594 3.039062 3.972656 2.996094 C 3.933594 2.945312 3.875 2.917969 3.808594 2.921875 C 3.859375 2.816406 3.804688 2.757812 3.722656 2.710938 C 3.722656 2.710938 3.773438 2.921875 3.640625 2.921875 C 3.578125 2.921875 3.523438 2.902344 3.523438 2.8125 C 3.523438 2.734375 3.59375 2.628906 3.75 2.632812 C 3.90625 2.640625 4.03125 2.742188 4.03125 2.992188 C 4.03125 3.222656 3.847656 3.335938 3.601562 3.34375 C 3.378906 3.351562 3.214844 3.230469 3.214844 3.003906 C 3.214844 2.699219 3.652344 2.007812 3.652344 1.738281 C 3.652344 1.535156 3.46875 1.421875 3.289062 1.421875 C 3.058594 1.421875 2.863281 1.652344 2.863281 1.652344 Z M 3 1.824219 "/>
<path style=" stroke:none;fill-rule:nonzero;fill:rgb(99.607843%,77.254902%,4.705882%);fill-opacity:1;" d="M 2.949219 7.304688 C 2.949219 7.808594 3.40625 8.070312 3.761719 8.070312 C 4.242188 8.070312 4.5 7.78125 4.5 7.40625 C 4.5 7.191406 4.460938 7.058594 4.363281 6.851562 C 4.363281 6.851562 3.566406 5.203125 3.257812 4.5625 C 3.21875 4.480469 3.207031 4.390625 3.207031 4.257812 C 3.207031 4.054688 3.40625 3.886719 3.617188 3.878906 C 3.804688 3.875 4.011719 4.058594 4.011719 4.265625 C 4.011719 4.519531 3.882812 4.628906 3.75 4.628906 C 3.582031 4.628906 3.515625 4.5625 3.515625 4.445312 C 3.515625 4.367188 3.554688 4.332031 3.613281 4.332031 C 3.753906 4.332031 3.714844 4.519531 3.714844 4.519531 C 3.785156 4.503906 3.84375 4.433594 3.808594 4.34375 C 3.859375 4.332031 3.910156 4.304688 3.949219 4.261719 C 3.910156 4.226562 3.867188 4.195312 3.808594 4.1875 C 3.84375 4.078125 3.796875 4.023438 3.703125 4 C 3.722656 4.042969 3.722656 4.082031 3.714844 4.117188 C 3.566406 4.074219 3.332031 4.144531 3.332031 4.40625 C 3.332031 4.664062 3.511719 4.882812 3.851562 4.828125 C 3.769531 4.867188 3.730469 4.945312 3.722656 5.03125 C 3.78125 5.007812 3.851562 5.003906 3.851562 5.003906 C 3.8125 5.074219 3.757812 5.136719 3.757812 5.269531 C 3.820312 5.242188 3.878906 5.191406 3.960938 5.222656 C 3.832031 5.472656 3.988281 5.8125 4.382812 5.890625 C 4.238281 5.722656 4.167969 5.542969 4.167969 5.359375 C 4.167969 4.773438 4.328125 4.675781 4.328125 4.265625 C 4.328125 4.09375 4.242188 3.910156 4.066406 3.785156 L 4.066406 3.792969 C 4.183594 3.761719 4.257812 3.703125 4.300781 3.628906 C 4.035156 3.550781 3.652344 3.554688 3.449219 3.632812 C 3.214844 3.660156 3.046875 3.84375 3 3.933594 C 2.953125 4.027344 2.855469 4.359375 3 4.65625 C 3.15625 4.984375 3.894531 6.546875 4.121094 7.039062 C 4.171875 7.140625 4.199219 7.253906 4.199219 7.371094 C 4.199219 7.671875 3.925781 7.777344 3.769531 7.777344 C 3.582031 7.777344 3.390625 7.636719 3.390625 7.457031 C 3.390625 7.34375 3.453125 7.277344 3.539062 7.277344 C 3.753906 7.277344 3.738281 7.457031 3.699219 7.570312 C 3.828125 7.511719 3.90625 7.40625 3.882812 7.292969 C 3.957031 7.28125 4.03125 7.246094 4.09375 7.175781 C 4.042969 7.109375 3.980469 7.058594 3.882812 7.058594 C 3.925781 6.886719 3.8125 6.8125 3.699219 6.773438 C 3.734375 6.898438 3.757812 7.042969 3.539062 7.042969 C 3.382812 7.042969 3.257812 7.070312 3.1875 7.175781 C 3.183594 7.039062 3.171875 6.5 3.171875 6.5 C 3.160156 6.296875 3.441406 6.300781 3.617188 6.363281 C 3.550781 6.128906 3.414062 6.003906 3.09375 6.035156 C 3.171875 6.003906 3.253906 5.929688 3.253906 5.789062 C 3.253906 5.601562 3.101562 5.390625 3 5.328125 Z M 2.949219 7.304688 "/>
<path style=" stroke:none;fill-rule:nonzero;fill:rgb(99.607843%,77.254902%,4.705882%);fill-opacity:1;" d="M 2.949219 8.824219 C 2.949219 8.316406 3.40625 8.054688 3.761719 8.054688 C 4.242188 8.054688 4.5 8.34375 4.5 8.722656 C 4.5 8.933594 4.460938 9.070312 4.363281 9.273438 C 4.363281 9.273438 3.566406 10.925781 3.257812 11.566406 C 3.21875 11.644531 3.207031 11.734375 3.207031 11.867188 C 3.207031 12.074219 3.40625 12.242188 3.617188 12.246094 C 3.804688 12.25 4.011719 12.070312 4.011719 11.863281 C 4.011719 11.609375 3.882812 11.496094 3.75 11.496094 C 3.582031 11.496094 3.515625 11.566406 3.515625 11.679688 C 3.515625 11.761719 3.554688 11.796875 3.613281 11.796875 C 3.753906 11.796875 3.714844 11.605469 3.714844 11.605469 C 3.785156 11.621094 3.84375 11.691406 3.808594 11.78125 C 3.859375 11.792969 3.910156 11.820312 3.949219 11.863281 C 3.910156 11.902344 3.867188 11.929688 3.808594 11.941406 C 3.84375 12.050781 3.796875 12.101562 3.703125 12.125 C 3.722656 12.082031 3.722656 12.042969 3.714844 12.007812 C 3.566406 12.050781 3.332031 11.984375 3.332031 11.722656 C 3.332031 11.460938 3.511719 11.246094 3.851562 11.300781 C 3.769531 11.261719 3.730469 11.183594 3.722656 11.09375 C 3.78125 11.117188 3.851562 11.121094 3.851562 11.121094 C 3.8125 11.050781 3.757812 10.992188 3.757812 10.855469 C 3.820312 10.882812 3.878906 10.9375 3.960938 10.902344 C 3.832031 10.65625 3.988281 10.316406 4.382812 10.234375 C 4.238281 10.402344 4.167969 10.585938 4.167969 10.765625 C 4.167969 11.355469 4.328125 11.453125 4.328125 11.863281 C 4.328125 12.03125 4.242188 12.21875 4.066406 12.34375 L 4.066406 12.335938 C 4.183594 12.367188 4.257812 12.421875 4.300781 12.5 C 4.035156 12.574219 3.652344 12.574219 3.449219 12.492188 C 3.214844 12.464844 3.046875 12.285156 3 12.191406 C 2.953125 12.101562 2.855469 11.769531 3 11.46875 C 3.15625 11.140625 3.894531 9.582031 4.121094 9.089844 C 4.171875 8.984375 4.199219 8.875 4.199219 8.753906 C 4.199219 8.453125 3.925781 8.351562 3.769531 8.351562 C 3.582031 8.351562 3.390625 8.492188 3.390625 8.671875 C 3.390625 8.78125 3.453125 8.851562 3.539062 8.851562 C 3.753906 8.851562 3.738281 8.671875 3.699219 8.558594 C 3.828125 8.617188 3.90625 8.722656 3.882812 8.832031 C 3.957031 8.84375 4.03125 8.878906 4.09375 8.953125 C 4.042969 9.019531 3.980469 9.066406 3.882812 9.070312 C 3.925781 9.242188 3.8125 9.316406 3.699219 9.355469 C 3.734375 9.230469 3.757812 9.082031 3.539062 9.082031 C 3.382812 9.082031 3.257812 9.054688 3.1875 8.953125 C 3.183594 9.089844 3.171875 9.628906 3.171875 9.628906 C 3.160156 9.832031 3.441406 9.824219 3.617188 9.765625 C 3.550781 9.996094 3.414062 10.125 3.09375 10.09375 C 3.171875 10.125 3.253906 10.195312 3.253906 10.335938 C 3.253906 10.527344 3.101562 10.738281 3 10.800781 Z M 2.949219 8.824219 "/>
<path style=" stroke:none;fill-rule:nonzero;fill:rgb(99.607843%,77.254902%,4.705882%);fill-opacity:1;" d="M 3 23.175781 C 3 23.175781 2.757812 23.378906 2.679688 23.277344 C 2.546875 23.113281 3.082031 22.304688 3.082031 22.019531 C 3.082031 21.546875 2.769531 21.421875 2.382812 21.355469 C 2.125 21.308594 1.699219 21.371094 1.699219 21.371094 C 1.78125 21.480469 1.832031 21.511719 1.964844 21.519531 C 1.816406 21.597656 1.664062 21.765625 1.664062 22.027344 C 1.664062 22.429688 1.832031 22.597656 1.832031 23.050781 C 1.832031 23.304688 1.625 23.625 1.625 23.625 C 1.988281 23.589844 2.171875 23.25 2.066406 22.980469 C 2.125 22.972656 2.179688 22.984375 2.222656 23.027344 C 2.25 22.953125 2.210938 22.863281 2.152344 22.789062 C 2.199219 22.765625 2.230469 22.78125 2.304688 22.796875 C 2.296875 22.71875 2.25 22.636719 2.136719 22.558594 C 2.464844 22.644531 2.667969 22.414062 2.667969 22.175781 C 2.667969 21.992188 2.542969 21.863281 2.417969 21.863281 C 2.378906 21.863281 2.320312 21.878906 2.285156 21.90625 C 2.261719 21.855469 2.273438 21.789062 2.296875 21.738281 C 2.207031 21.761719 2.148438 21.816406 2.191406 21.929688 C 2.121094 21.933594 2.066406 21.960938 2.027344 22.003906 C 2.066406 22.054688 2.125 22.082031 2.191406 22.078125 C 2.140625 22.183594 2.195312 22.242188 2.277344 22.289062 C 2.277344 22.289062 2.226562 22.078125 2.359375 22.078125 C 2.421875 22.078125 2.476562 22.097656 2.476562 22.1875 C 2.476562 22.265625 2.40625 22.371094 2.25 22.367188 C 2.09375 22.359375 1.96875 22.257812 1.96875 22.007812 C 1.96875 21.777344 2.152344 21.664062 2.398438 21.65625 C 2.621094 21.648438 2.785156 21.769531 2.785156 21.996094 C 2.785156 22.300781 2.347656 22.992188 2.347656 23.261719 C 2.347656 23.464844 2.53125 23.578125 2.710938 23.578125 C 2.941406 23.578125 3.136719 23.347656 3.136719 23.347656 Z M 3 23.175781 "/>
<path style=" stroke:none;fill-rule:nonzero;fill:rgb(99.607843%,77.254902%,4.705882%);fill-opacity:1;" d="M 3.050781 17.695312 C 3.050781 17.191406 2.59375 16.929688 2.238281 16.929688 C 1.757812 16.929688 1.5 17.21875 1.5 17.59375 C 1.5 17.808594 1.539062 17.941406 1.636719 18.148438 C 1.636719 18.148438 2.433594 19.796875 2.742188 20.4375 C 2.78125 20.519531 2.792969 20.609375 2.792969 20.742188 C 2.792969 20.945312 2.59375 21.113281 2.382812 21.121094 C 2.195312 21.125 1.988281 20.941406 1.988281 20.734375 C 1.988281 20.480469 2.117188 20.371094 2.25 20.371094 C 2.417969 20.371094 2.484375 20.4375 2.484375 20.554688 C 2.484375 20.632812 2.445312 20.667969 2.386719 20.667969 C 2.246094 20.667969 2.285156 20.480469 2.285156 20.480469 C 2.214844 20.496094 2.15625 20.566406 2.191406 20.65625 C 2.140625 20.667969 2.089844 20.695312 2.050781 20.738281 C 2.089844 20.773438 2.132812 20.804688 2.191406 20.8125 C 2.15625 20.921875 2.203125 20.976562 2.296875 21 C 2.277344 20.957031 2.277344 20.917969 2.285156 20.882812 C 2.433594 20.925781 2.667969 20.855469 2.667969 20.59375 C 2.667969 20.335938 2.488281 20.117188 2.148438 20.171875 C 2.230469 20.132812 2.269531 20.054688 2.277344 19.96875 C 2.21875 19.992188 2.148438 19.996094 2.148438 19.996094 C 2.1875 19.925781 2.242188 19.863281 2.242188 19.730469 C 2.179688 19.757812 2.121094 19.808594 2.039062 19.777344 C 2.167969 19.527344 2.011719 19.1875 1.617188 19.109375 C 1.761719 19.277344 1.832031 19.457031 1.832031 19.640625 C 1.832031 20.226562 1.671875 20.324219 1.671875 20.734375 C 1.671875 20.90625 1.757812 21.089844 1.933594 21.214844 L 1.933594 21.207031 C 1.816406 21.238281 1.742188 21.296875 1.699219 21.371094 C 1.964844 21.449219 2.347656 21.445312 2.550781 21.367188 C 2.785156 21.339844 2.953125 21.15625 3 21.066406 C 3.046875 20.972656 3.144531 20.640625 3 20.34375 C 2.84375 20.015625 2.105469 18.453125 1.878906 17.960938 C 1.828125 17.859375 1.800781 17.746094 1.800781 17.628906 C 1.800781 17.328125 2.074219 17.222656 2.230469 17.222656 C 2.417969 17.222656 2.609375 17.363281 2.609375 17.542969 C 2.609375 17.65625 2.546875 17.722656 2.460938 17.722656 C 2.246094 17.722656 2.261719 17.542969 2.300781 17.429688 C 2.171875 17.488281 2.09375 17.59375 2.117188 17.707031 C 2.042969 17.71875 1.96875 17.753906 1.90625 17.824219 C 1.957031 17.890625 2.019531 17.941406 2.117188 17.941406 C 2.074219 18.113281 2.1875 18.1875 2.300781 18.226562 C 2.265625 18.101562 2.242188 17.957031 2.460938 17.957031 C 2.617188 17.957031 2.742188 17.929688 2.8125 17.824219 C 2.816406 17.960938 2.828125 18.5 2.828125 18.5 C 2.839844 18.703125 2.558594 18.699219 2.382812 18.636719 C 2.449219 18.871094 2.585938 18.996094 2.90625 18.964844 C 2.828125 18.996094 2.746094 19.070312 2.746094 19.210938 C 2.746094 19.398438 2.898438 19.609375 3 19.671875 Z M 3.050781 17.695312 "/>
<path style=" stroke:none;fill-rule:nonzero;fill:rgb(99.607843%,77.254902%,4.705882%);fill-opacity:1;" d="M 3.050781 16.175781 C 3.050781 16.683594 2.59375 16.945312 2.238281 16.945312 C 1.757812 16.945312 1.5 16.65625 1.5 16.277344 C 1.5 16.066406 1.539062 15.929688 1.636719 15.726562 C 1.636719 15.726562 2.433594 14.074219 2.742188 13.433594 C 2.78125 13.355469 2.792969 13.265625 2.792969 13.132812 C 2.792969 12.925781 2.59375 12.757812 2.382812 12.753906 C 2.195312 12.75 1.988281 12.929688 1.988281 13.136719 C 1.988281 13.390625 2.117188 13.503906 2.25 13.503906 C 2.417969 13.503906 2.484375 13.433594 2.484375 13.320312 C 2.484375 13.238281 2.445312 13.203125 2.386719 13.203125 C 2.246094 13.203125 2.285156 13.394531 2.285156 13.394531 C 2.214844 13.378906 2.15625 13.308594 2.191406 13.21875 C 2.140625 13.207031 2.089844 13.179688 2.050781 13.136719 C 2.089844 13.097656 2.132812 13.070312 2.191406 13.058594 C 2.15625 12.949219 2.203125 12.898438 2.296875 12.875 C 2.277344 12.917969 2.277344 12.957031 2.285156 12.992188 C 2.433594 12.949219 2.667969 13.015625 2.667969 13.277344 C 2.667969 13.539062 2.488281 13.753906 2.148438 13.699219 C 2.230469 13.738281 2.269531 13.816406 2.277344 13.90625 C 2.21875 13.882812 2.148438 13.878906 2.148438 13.878906 C 2.1875 13.949219 2.242188 14.007812 2.242188 14.144531 C 2.179688 14.117188 2.121094 14.0625 2.039062 14.097656 C 2.167969 14.34375 2.011719 14.683594 1.617188 14.765625 C 1.761719 14.597656 1.832031 14.414062 1.832031 14.234375 C 1.832031 13.644531 1.671875 13.546875 1.671875 13.136719 C 1.671875 12.96875 1.757812 12.78125 1.933594 12.65625 L 1.933594 12.664062 C 1.816406 12.632812 1.742188 12.578125 1.699219 12.5 C 1.964844 12.425781 2.347656 12.425781 2.550781 12.507812 C 2.785156 12.535156 2.953125 12.714844 3 12.808594 C 3.046875 12.898438 3.144531 13.230469 3 13.53125 C 2.84375 13.859375 2.105469 15.417969 1.878906 15.910156 C 1.828125 16.015625 1.800781 16.125 1.800781 16.246094 C 1.800781 16.546875 2.074219 16.648438 2.230469 16.648438 C 2.417969 16.648438 2.609375 16.507812 2.609375 16.328125 C 2.609375 16.21875 2.546875 16.148438 2.460938 16.148438 C 2.246094 16.148438 2.261719 16.328125 2.300781 16.441406 C 2.171875 16.382812 2.09375 16.277344 2.117188 16.167969 C 2.042969 16.15625 1.96875 16.121094 1.90625 16.046875 C 1.957031 15.980469 2.019531 15.933594 2.117188 15.929688 C 2.074219 15.757812 2.1875 15.683594 2.300781 15.644531 C 2.265625 15.769531 2.242188 15.917969 2.460938 15.917969 C 2.617188 15.917969 2.742188 15.945312 2.8125 16.046875 C 2.816406 15.910156 2.828125 15.371094 2.828125 15.371094 C 2.839844 15.167969 2.558594 15.175781 2.382812 15.234375 C 2.449219 15.003906 2.585938 14.875 2.90625 14.90625 C 2.828125 14.875 2.746094 14.804688 2.746094 14.664062 C 2.746094 14.472656 2.898438 14.261719 3 14.199219 Z M 3.050781 16.175781 "/>
<path style=" stroke:none;fill-rule:nonzero;fill:rgb(99.607843%,77.254902%,4.705882%);fill-opacity:1;" d="M 3 23.175781 C 3 23.175781 3.242188 23.378906 3.320312 23.277344 C 3.453125 23.113281 2.917969 22.304688 2.917969 22.019531 C 2.917969 21.546875 3.230469 21.421875 3.617188 21.355469 C 3.875 21.308594 4.300781 21.371094 4.300781 21.371094 C 4.21875 21.480469 4.167969 21.511719 4.035156 21.519531 C 4.183594 21.597656 4.335938 21.765625 4.335938 22.027344 C 4.335938 22.429688 4.167969 22.597656 4.167969 23.050781 C 4.167969 23.304688 4.375 23.625 4.375 23.625 C 4.011719 23.589844 3.828125 23.25 3.933594 22.980469 C 3.875 22.972656 3.820312 22.984375 3.777344 23.027344 C 3.75 22.953125 3.789062 22.863281 3.847656 22.789062 C 3.800781 22.765625 3.769531 22.78125 3.695312 22.796875 C 3.703125 22.71875 3.75 22.636719 3.863281 22.558594 C 3.535156 22.644531 3.332031 22.414062 3.332031 22.175781 C 3.332031 21.992188 3.457031 21.863281 3.582031 21.863281 C 3.621094 21.863281 3.679688 21.878906 3.714844 21.90625 C 3.738281 21.855469 3.726562 21.789062 3.703125 21.738281 C 3.792969 21.761719 3.851562 21.816406 3.808594 21.929688 C 3.878906 21.933594 3.933594 21.960938 3.972656 22.003906 C 3.933594 22.054688 3.875 22.082031 3.808594 22.078125 C 3.859375 22.183594 3.804688 22.242188 3.722656 22.289062 C 3.722656 22.289062 3.773438 22.078125 3.640625 22.078125 C 3.578125 22.078125 3.523438 22.097656 3.523438 22.1875 C 3.523438 22.265625 3.59375 22.371094 3.75 22.367188 C 3.90625 22.359375 4.03125 22.257812 4.03125 22.007812 C 4.03125 21.777344 3.847656 21.664062 3.601562 21.65625 C 3.378906 21.648438 3.214844 21.769531 3.214844 21.996094 C 3.214844 22.300781 3.652344 22.992188 3.652344 23.261719 C 3.652344 23.464844 3.46875 23.578125 3.289062 23.578125 C 3.058594 23.578125 2.863281 23.347656 2.863281 23.347656 Z M 3 23.175781 "/>
<path style=" stroke:none;fill-rule:nonzero;fill:rgb(99.607843%,77.254902%,4.705882%);fill-opacity:1;" d="M 2.949219 17.695312 C 2.949219 17.191406 3.40625 16.929688 3.761719 16.929688 C 4.242188 16.929688 4.5 17.21875 4.5 17.59375 C 4.5 17.808594 4.460938 17.941406 4.363281 18.148438 C 4.363281 18.148438 3.566406 19.796875 3.257812 20.4375 C 3.21875 20.519531 3.207031 20.609375 3.207031 20.742188 C 3.207031 20.945312 3.40625 21.113281 3.617188 21.121094 C 3.804688 21.125 4.011719 20.941406 4.011719 20.734375 C 4.011719 20.480469 3.882812 20.371094 3.75 20.371094 C 3.582031 20.371094 3.515625 20.4375 3.515625 20.554688 C 3.515625 20.632812 3.554688 20.667969 3.613281 20.667969 C 3.753906 20.667969 3.714844 20.480469 3.714844 20.480469 C 3.785156 20.496094 3.84375 20.566406 3.808594 20.65625 C 3.859375 20.667969 3.910156 20.695312 3.949219 20.738281 C 3.910156 20.773438 3.867188 20.804688 3.808594 20.8125 C 3.84375 20.921875 3.796875 20.976562 3.703125 21 C 3.722656 20.957031 3.722656 20.917969 3.714844 20.882812 C 3.566406 20.925781 3.332031 20.855469 3.332031 20.59375 C 3.332031 20.335938 3.511719 20.117188 3.851562 20.171875 C 3.769531 20.132812 3.730469 20.054688 3.722656 19.96875 C 3.78125 19.992188 3.851562 19.996094 3.851562 19.996094 C 3.8125 19.925781 3.757812 19.863281 3.757812 19.730469 C 3.820312 19.757812 3.878906 19.808594 3.960938 19.777344 C 3.832031 19.527344 3.988281 19.1875 4.382812 19.109375 C 4.238281 19.277344 4.167969 19.457031 4.167969 19.640625 C 4.167969 20.226562 4.328125 20.324219 4.328125 20.734375 C 4.328125 20.90625 4.242188 21.089844 4.066406 21.214844 L 4.066406 21.207031 C 4.183594 21.238281 4.257812 21.296875 4.300781 21.371094 C 4.035156 21.449219 3.652344 21.445312 3.449219 21.367188 C 3.214844 21.339844 3.046875 21.15625 3 21.066406 C 2.953125 20.972656 2.855469 20.640625 3 20.34375 C 3.15625 20.015625 3.894531 18.453125 4.121094 17.960938 C 4.171875 17.859375 4.199219 17.746094 4.199219 17.628906 C 4.199219 17.328125 3.925781 17.222656 3.769531 17.222656 C 3.582031 17.222656 3.390625 17.363281 3.390625 17.542969 C 3.390625 17.65625 3.453125 17.722656 3.539062 17.722656 C 3.753906 17.722656 3.738281 17.542969 3.699219 17.429688 C 3.828125 17.488281 3.90625 17.59375 3.882812 17.707031 C 3.957031 17.71875 4.03125 17.753906 4.09375 17.824219 C 4.042969 17.890625 3.980469 17.941406 3.882812 17.941406 C 3.925781 18.113281 3.8125 18.1875 3.699219 18.226562 C 3.734375 18.101562 3.757812 17.957031 3.539062 17.957031 C 3.382812 17.957031 3.257812 17.929688 3.1875 17.824219 C 3.183594 17.960938 3.171875 18.5 3.171875 18.5 C 3.160156 18.703125 3.441406 18.699219 3.617188 18.636719 C 3.550781 18.871094 3.414062 18.996094 3.09375 18.964844 C 3.171875 18.996094 3.253906 19.070312 3.253906 19.210938 C 3.253906 19.398438 3.101562 19.609375 3 19.671875 Z M 2.949219 17.695312 "/>
<path style=" stroke:none;fill-rule:nonzero;fill:rgb(99.607843%,77.254902%,4.705882%);fill-opacity:1;" d="M 2.949219 16.175781 C 2.949219 16.683594 3.40625 16.945312 3.761719 16.945312 C 4.242188 16.945312 4.5 16.65625 4.5 16.277344 C 4.5 16.066406 4.460938 15.929688 4.363281 15.726562 C 4.363281 15.726562 3.566406 14.074219 3.257812 13.433594 C 3.21875 13.355469 3.207031 13.265625 3.207031 13.132812 C 3.207031 12.925781 3.40625 12.757812 3.617188 12.753906 C 3.804688 12.75 4.011719 12.929688 4.011719 13.136719 C 4.011719 13.390625 3.882812 13.503906 3.75 13.503906 C 3.582031 13.503906 3.515625 13.433594 3.515625 13.320312 C 3.515625 13.238281 3.554688 13.203125 3.613281 13.203125 C 3.753906 13.203125 3.714844 13.394531 3.714844 13.394531 C 3.785156 13.378906 3.84375 13.308594 3.808594 13.21875 C 3.859375 13.207031 3.910156 13.179688 3.949219 13.136719 C 3.910156 13.097656 3.867188 13.070312 3.808594 13.058594 C 3.84375 12.949219 3.796875 12.898438 3.703125 12.875 C 3.722656 12.917969 3.722656 12.957031 3.714844 12.992188 C 3.566406 12.949219 3.332031 13.015625 3.332031 13.277344 C 3.332031 13.539062 3.511719 13.753906 3.851562 13.699219 C 3.769531 13.738281 3.730469 13.816406 3.722656 13.90625 C 3.78125 13.882812 3.851562 13.878906 3.851562 13.878906 C 3.8125 13.949219 3.757812 14.007812 3.757812 14.144531 C 3.820312 14.117188 3.878906 14.0625 3.960938 14.097656 C 3.832031 14.34375 3.988281 14.683594 4.382812 14.765625 C 4.238281 14.597656 4.167969 14.414062 4.167969 14.234375 C 4.167969 13.644531 4.328125 13.546875 4.328125 13.136719 C 4.328125 12.96875 4.242188 12.78125 4.066406 12.65625 L 4.066406 12.664062 C 4.183594 12.632812 4.257812 12.578125 4.300781 12.5 C 4.035156 12.425781 3.652344 12.425781 3.449219 12.507812 C 3.214844 12.535156 3.046875 12.714844 3 12.808594 C 2.953125 12.898438 2.855469 13.230469 3 13.53125 C 3.15625 13.859375 3.894531 15.417969 4.121094 15.910156 C 4.171875 16.015625 4.199219 16.125 4.199219 16.246094 C 4.199219 16.546875 3.925781 16.648438 3.769531 16.648438 C 3.582031 16.648438 3.390625 16.507812 3.390625 16.328125 C 3.390625 16.21875 3.453125 16.148438 3.539062 16.148438 C 3.753906 16.148438 3.738281 16.328125 3.699219 16.441406 C 3.828125 16.382812 3.90625 16.277344 3.882812 16.167969 C 3.957031 16.15625 4.03125 16.121094 4.09375 16.046875 C 4.042969 15.980469 3.980469 15.933594 3.882812 15.929688 C 3.925781 15.757812 3.8125 15.683594 3.699219 15.644531 C 3.734375 15.769531 3.757812 15.917969 3.539062 15.917969 C 3.382812 15.917969 3.257812 15.945312 3.1875 16.046875 C 3.183594 15.910156 3.171875 15.371094 3.171875 15.371094 C 3.160156 15.167969 3.441406 15.175781 3.617188 15.234375 C 3.550781 15.003906 3.414062 14.875 3.09375 14.90625 C 3.171875 14.875 3.253906 14.804688 3.253906 14.664062 C 3.253906 14.472656 3.101562 14.261719 3 14.199219 Z M 2.949219 16.175781 "/>
</g>
</svg>
