<?xml version="1.0" encoding="UTF-8"?>
<svg xmlns="http://www.w3.org/2000/svg" xmlns:xlink="http://www.w3.org/1999/xlink" width="38pt" height="25pt" viewBox="0 0 38 25" version="1.1">
<g id="surface1">
<rect x="0" y="0" width="38" height="25" style="fill:rgb(100%,100%,100%);fill-opacity:1;stroke:none;"/>
<path style=" stroke:none;fill-rule:nonzero;fill:rgb(0%,0%,0%);fill-opacity:1;" d="M 0 0 L 38 0 L 38 7.5 L 0 7.5 Z M 0 0 "/>
<path style=" stroke:none;fill-rule:nonzero;fill:rgb(0%,40%,0%);fill-opacity:1;" d="M 0 17.5 L 38 17.5 L 38 25 L 0 25 Z M 0 17.5 "/>
<path style="fill-rule:nonzero;fill:rgb(0%,0%,0%);fill-opacity:1;stroke-width:1;stroke-linecap:butt;stroke-linejoin:miter;stroke:rgb(0%,0%,0%);stroke-opacity:1;stroke-miterlimit:10;" d="M -0.991548 55.420746 L 1.004055 55.423285 L 0.999435 -37.989322 C 2.996035 -40.008084 2.999346 -43.012217 3.015157 -45.9947 C 2.994787 -48.003665 2.99354 -55.999247 0.0105092 -64.669298 C -2.993269 -56.006862 -3.013388 -47.998946 -2.993018 -45.98998 C -3.008829 -43.007498 -3.01214 -40.003364 -0.996168 -37.99186 Z M -0.991548 55.420746 " transform="matrix(0.137121,0.078125,-0.0791667,0.135316,19,12.5)"/>
<path style=" stroke:none;fill-rule:nonzero;fill:rgb(100%,100%,100%);fill-opacity:1;" d="M 14.476562 19.921875 L 14.75 20.078125 L 22.144531 7.4375 C 22.578125 7.320312 22.816406 6.914062 23.054688 6.511719 C 23.210938 6.238281 23.84375 5.15625 24.121094 3.75 C 23.023438 4.6875 22.386719 5.769531 22.230469 6.042969 C 21.992188 6.445312 21.753906 6.851562 21.871094 7.28125 Z M 14.476562 19.921875 "/>
<path style="fill-rule:nonzero;fill:rgb(0%,0%,0%);fill-opacity:1;stroke-width:1;stroke-linecap:butt;stroke-linejoin:miter;stroke:rgb(0%,0%,0%);stroke-opacity:1;stroke-miterlimit:10;" d="M -0.991548 55.420746 L 1.004055 55.423285 L 0.999435 -37.989322 C 2.996035 -40.008084 2.999346 -43.012217 3.015157 -45.9947 C 2.994787 -48.003665 2.99354 -55.999247 0.0105092 -64.669298 C -2.993269 -56.006862 -3.013388 -47.998946 -2.993018 -45.98998 C -3.008829 -43.007498 -3.01214 -40.003364 -0.996168 -37.99186 Z M -0.991548 55.420746 " transform="matrix(-0.137121,0.078125,0.0791667,0.135316,19,12.5)"/>
<path style=" stroke:none;fill-rule:nonzero;fill:rgb(100%,100%,100%);fill-opacity:1;" d="M 23.523438 19.921875 L 23.25 20.078125 L 15.855469 7.4375 C 15.421875 7.320312 15.183594 6.914062 14.945312 6.511719 C 14.789062 6.238281 14.15625 5.15625 13.878906 3.75 C 14.976562 4.6875 15.613281 5.769531 15.769531 6.042969 C 16.007812 6.445312 16.246094 6.851562 16.128906 7.28125 Z M 23.523438 19.921875 "/>
<path style=" stroke:none;fill-rule:nonzero;fill:rgb(73.333333%,0%,0%);fill-opacity:1;" d="M 0 8.75 L 0 16.25 L 15.992188 16.25 C 16.464844 17.5 18.050781 20 19 20 C 19.949219 20 21.535156 17.5 22.007812 16.25 L 38 16.25 L 38 8.75 L 22.007812 8.75 C 21.535156 7.5 19.949219 5 19 5 C 18.050781 5 16.464844 7.5 15.992188 8.75 Z M 0 8.75 "/>
<path style=" stroke:none;fill-rule:nonzero;fill:rgb(0%,0%,0%);fill-opacity:1;" d="M 22.007812 16.25 C 22.484375 15 22.800781 13.75 22.800781 12.5 C 22.800781 11.25 22.484375 10 22.007812 8.75 C 21.535156 10 21.214844 11.25 21.214844 12.5 C 21.214844 13.75 21.535156 15 22.007812 16.25 "/>
<path style=" stroke:none;fill-rule:nonzero;fill:rgb(0%,0%,0%);fill-opacity:1;" d="M 15.992188 16.25 C 15.515625 15 15.199219 13.75 15.199219 12.5 C 15.199219 11.25 15.515625 10 15.992188 8.75 C 16.464844 10 16.785156 11.25 16.785156 12.5 C 16.785156 13.75 16.464844 15 15.992188 16.25 "/>
<path style=" stroke:none;fill-rule:nonzero;fill:rgb(100%,100%,100%);fill-opacity:1;" d="M 19.632812 12.5 C 19.632812 11.980469 19.351562 11.5625 19 11.5625 C 18.648438 11.5625 18.367188 11.980469 18.367188 12.5 C 18.367188 13.019531 18.648438 13.4375 19 13.4375 C 19.351562 13.4375 19.632812 13.019531 19.632812 12.5 Z M 19.632812 12.5 "/>
<path style=" stroke:none;fill-rule:nonzero;fill:rgb(100%,100%,100%);fill-opacity:1;" d="M 19.160156 13.414062 C 19.160156 13.414062 19.792969 14.664062 19.792969 16.695312 C 19.792969 18.726562 19.160156 19.976562 19.160156 19.976562 Z M 19.160156 13.414062 "/>
<path style=" stroke:none;fill-rule:nonzero;fill:rgb(100%,100%,100%);fill-opacity:1;" d="M 18.839844 11.585938 C 18.839844 11.585938 18.207031 10.335938 18.207031 8.304688 C 18.207031 6.273438 18.839844 5.023438 18.839844 5.023438 Z M 18.839844 11.585938 "/>
<path style=" stroke:none;fill-rule:nonzero;fill:rgb(100%,100%,100%);fill-opacity:1;" d="M 18.839844 13.414062 C 18.839844 13.414062 18.207031 14.664062 18.207031 16.695312 C 18.207031 18.726562 18.839844 19.976562 18.839844 19.976562 Z M 18.839844 13.414062 "/>
<path style=" stroke:none;fill-rule:nonzero;fill:rgb(100%,100%,100%);fill-opacity:1;" d="M 19.160156 11.585938 C 19.160156 11.585938 19.792969 10.335938 19.792969 8.304688 C 19.792969 6.273438 19.160156 5.023438 19.160156 5.023438 Z M 19.160156 11.585938 "/>
</g>
</svg>
