<?xml version="1.0" encoding="UTF-8"?>
<svg xmlns="http://www.w3.org/2000/svg" xmlns:xlink="http://www.w3.org/1999/xlink" width="50pt" height="25pt" viewBox="0 0 50 25" version="1.1">
<g id="surface1">
<rect x="0" y="0" width="50" height="25" style="fill:rgb(80.784314%,6.666667%,14.901961%);fill-opacity:1;stroke:none;"/>
<path style="fill-rule:nonzero;fill:rgb(98.823529%,81.960784%,8.627451%);fill-opacity:1;stroke-width:1.5;stroke-linecap:butt;stroke-linejoin:miter;stroke:rgb(74.117647%,61.176471%,3.137255%);stroke-opacity:1;stroke-miterlimit:4;" d="M 349.40625 141.28125 C 358.171875 143.625 371.390625 143.0625 377.34375 150 C 368.578125 147.65625 357.796875 161.8125 349.40625 158.71875 C 356.8125 163.921875 241.359375 158.71875 250.59375 158.71875 C 241.828125 156.375 228.609375 156.9375 222.65625 150 C 231.421875 152.34375 242.203125 138.1875 250.59375 141.28125 C 243.1875 136.078125 230.296875 132.046875 227.296875 123.5625 C 234.75 128.71875 249.84375 119.109375 256.546875 124.921875 C 251.390625 117.515625 240.515625 109.359375 240.75 100.265625 C 245.953125 107.71875 263.4375 103.734375 267.75 111.5625 C 265.40625 102.796875 258.328125 91.546875 261.328125 83.015625 C 263.671875 91.78125 281.296875 93.9375 282.84375 102.890625 C 283.640625 93.84375 280.453125 80.765625 286.546875 73.828125 C 285.796875 82.875 301.6875 90.9375 300 99.84375 C 303.84375 91.640625 305.953125 78.375 313.453125 73.828125 C 309.609375 82.03125 322.078125 95.015625 317.15625 102.890625 C 323.578125 96.46875 329.765625 84.5625 338.671875 83.015625 C 332.25 89.4375 339.09375 105.75 332.25 111.5625 C 340.453125 107.765625 350.15625 98.71875 359.25 100.265625 C 351.046875 104.109375 351.84375 121.828125 343.453125 124.921875 C 352.453125 124.125 364.59375 119.015625 372.703125 123.5625 C 363.65625 124.3125 358.640625 141.28125 349.40625 141.28125 Z M 349.40625 141.28125 " transform="matrix(0.0833333,0,0,0.0833333,0,0)"/>
<path style="fill-rule:nonzero;fill:rgb(98.823529%,81.960784%,8.627451%);fill-opacity:1;stroke-width:1.5;stroke-linecap:butt;stroke-linejoin:round;stroke:rgb(74.117647%,61.176471%,3.137255%);stroke-opacity:1;stroke-miterlimit:4;" d="M 258.375 150 L 226.78125 137.109375 L 260.859375 135.75 L 235.59375 112.828125 L 268.078125 123.234375 L 252.1875 93.046875 L 279.1875 113.953125 L 274.546875 80.109375 L 292.78125 108.984375 L 300 75.65625 L 307.21875 108.984375 L 325.453125 80.109375 L 320.8125 113.953125 L 347.8125 93.046875 L 331.921875 123.234375 L 364.40625 112.828125 L 339.140625 135.75 L 373.21875 137.109375 L 341.625 150 L 373.21875 162.890625 L 226.78125 162.890625 Z M 258.375 150 " transform="matrix(0.0833333,0,0,0.0833333,0,0)"/>
<path style="fill-rule:nonzero;fill:rgb(98.823529%,81.960784%,8.627451%);fill-opacity:1;stroke-width:1.8;stroke-linecap:butt;stroke-linejoin:miter;stroke:rgb(74.117647%,61.176471%,3.137255%);stroke-opacity:1;stroke-miterlimit:4;" d="M 341.34375 150 C 341.34375 172.828125 322.828125 191.34375 300 191.34375 C 277.171875 191.34375 258.65625 172.828125 258.65625 150 C 258.65625 127.171875 277.171875 108.65625 300 108.65625 C 322.828125 108.65625 341.34375 127.171875 341.34375 150 Z M 341.34375 150 " transform="matrix(0.0833333,0,0,0.0833333,0,0)"/>
<path style="fill-rule:nonzero;fill:rgb(98.823529%,81.960784%,8.627451%);fill-opacity:1;stroke-width:1.2;stroke-linecap:butt;stroke-linejoin:miter;stroke:rgb(74.117647%,61.176471%,3.137255%);stroke-opacity:1;stroke-miterlimit:4;" d="M 313.59375 49.875 L 335.765625 50.015625 C 335.90625 49.078125 333.890625 47.203125 332.109375 46.921875 C 326.53125 46.03125 322.3125 47.859375 315.46875 47.953125 Z M 313.59375 49.875 " transform="matrix(0.0833333,0,0,0.0833333,0,0)"/>
<path style="fill-rule:nonzero;fill:rgb(98.823529%,81.960784%,8.627451%);fill-opacity:1;stroke-width:1.2;stroke-linecap:butt;stroke-linejoin:miter;stroke:rgb(74.117647%,61.176471%,3.137255%);stroke-opacity:1;stroke-miterlimit:4;" d="M 269.4375 44.625 C 274.640625 51.234375 284.71875 55.78125 294.375 55.875 C 307.359375 55.921875 321.796875 45.421875 339.234375 42.1875 L 282.328125 41.015625 C 274.96875 36 269.34375 36.609375 265.546875 39.75 L 254.671875 40.078125 C 253.125 40.921875 255.9375 44.4375 258.234375 44.53125 Z M 269.4375 44.625 " transform="matrix(0.0833333,0,0,0.0833333,0,0)"/>
<path style="fill-rule:nonzero;fill:rgb(98.823529%,81.960784%,8.627451%);fill-opacity:1;stroke-width:1.2;stroke-linecap:butt;stroke-linejoin:miter;stroke:rgb(74.117647%,61.176471%,3.137255%);stroke-opacity:1;stroke-miterlimit:4;" d="M 295.171875 40.875 C 293.109375 31.359375 285.46875 27.234375 276.28125 26.015625 C 265.640625 24.609375 241.265625 23.203125 225.046875 18.515625 C 232.03125 25.40625 246.75 28.875 256.96875 30.421875 C 267.75 32.0625 278.296875 34.5 286.640625 40.78125 Z M 295.171875 40.875 " transform="matrix(0.0833333,0,0,0.0833333,0,0)"/>
<path style="fill-rule:nonzero;fill:rgb(98.823529%,81.960784%,8.627451%);fill-opacity:1;stroke-width:1.2;stroke-linecap:round;stroke-linejoin:miter;stroke:rgb(74.117647%,61.176471%,3.137255%);stroke-opacity:1;stroke-miterlimit:4;" d="M 288.28125 47.203125 C 291.65625 51.5625 296.90625 51.328125 302.578125 47.53125 C 308.203125 43.734375 314.34375 33.09375 317.296875 32.90625 C 338.015625 31.6875 363.046875 22.96875 374.953125 16.21875 C 359.8125 18.375 344.8125 20.8125 329.578125 20.859375 C 303.515625 20.953125 300.421875 32.8125 289.828125 41.15625 " transform="matrix(0.0833333,0,0,0.0833333,0,0)"/>
<path style="fill:none;stroke-width:1.2;stroke-linecap:round;stroke-linejoin:miter;stroke:rgb(74.117647%,61.176471%,3.137255%);stroke-opacity:1;stroke-miterlimit:4;" d="M 292.3125 42.09375 C 297.84375 38.578125 302.390625 33.9375 307.546875 30.09375 C 316.171875 23.71875 326.109375 23.53125 336.796875 23.390625 C 346.265625 23.296875 362.859375 19.3125 371.859375 17.203125 " transform="matrix(0.0833333,0,0,0.0833333,0,0)"/>
<path style="fill:none;stroke-width:1.2;stroke-linecap:butt;stroke-linejoin:miter;stroke:rgb(74.117647%,61.176471%,3.137255%);stroke-opacity:1;stroke-miterlimit:4;" d="M 286.546875 40.453125 C 284.90625 31.921875 276.9375 29.390625 266.859375 27.84375 C 255.9375 26.15625 244.734375 25.265625 233.8125 22.21875 C 231.140625 21.46875 228.609375 20.15625 225.984375 19.125 " transform="matrix(0.0833333,0,0,0.0833333,0,0)"/>
<path style="fill:none;stroke-width:1.2;stroke-linecap:round;stroke-linejoin:miter;stroke:rgb(74.117647%,61.176471%,3.137255%);stroke-opacity:1;stroke-miterlimit:4;" d="M 290.015625 52.96875 C 300.28125 53.71875 307.921875 50.625 316.6875 46.265625 " transform="matrix(0.0833333,0,0,0.0833333,0,0)"/>
<path style="fill:none;stroke-width:1.2;stroke-linecap:round;stroke-linejoin:miter;stroke:rgb(74.117647%,61.176471%,3.137255%);stroke-opacity:1;stroke-miterlimit:4;" d="M 254.625 41.8125 L 267.609375 41.8125 " transform="matrix(0.0833333,0,0,0.0833333,0,0)"/>
<path style=" stroke:none;fill-rule:nonzero;fill:rgb(74.117647%,61.176471%,3.137255%);fill-opacity:1;" d="M 22.78125 3.371094 C 22.78125 3.445312 22.71875 3.503906 22.644531 3.503906 C 22.570312 3.503906 22.511719 3.445312 22.511719 3.371094 C 22.511719 3.296875 22.570312 3.234375 22.644531 3.234375 C 22.71875 3.234375 22.78125 3.296875 22.78125 3.371094 Z M 22.78125 3.371094 "/>
<path style=" stroke:none;fill-rule:nonzero;fill:rgb(0%,24.705882%,52.941176%);fill-opacity:1;" d="M 0 13.75 L 50 13.75 L 50 25 L 0 25 Z M 0 13.75 "/>
<path style=" stroke:none;fill-rule:nonzero;fill:rgb(100%,100%,100%);fill-opacity:1;" d="M 0 21.429688 C 1.667969 21.429688 3.332031 22.5 5 22.5 C 6.667969 22.5 8.332031 21.429688 10 21.429688 C 11.667969 21.429688 13.332031 22.5 15 22.5 C 16.667969 22.5 18.332031 21.429688 20 21.429688 C 21.667969 21.429688 23.332031 22.5 25 22.5 C 26.667969 22.5 28.332031 21.429688 30 21.429688 C 31.667969 21.429688 33.332031 22.5 35 22.5 C 36.667969 22.5 38.332031 21.429688 40 21.429688 C 41.667969 21.429688 43.332031 22.5 45 22.5 C 46.667969 22.5 48.332031 21.429688 50 21.429688 L 50 19.640625 C 48.332031 19.640625 46.667969 20.714844 45 20.714844 C 43.332031 20.714844 41.667969 19.640625 40 19.640625 C 38.332031 19.640625 36.667969 20.714844 35 20.714844 C 33.332031 20.714844 31.667969 19.640625 30 19.640625 C 28.332031 19.640625 26.667969 20.714844 25 20.714844 C 23.332031 20.714844 21.667969 19.640625 20 19.640625 C 18.332031 19.640625 16.667969 20.714844 15 20.714844 C 13.332031 20.714844 11.667969 19.640625 10 19.640625 C 8.332031 19.640625 6.667969 20.714844 5 20.714844 C 3.332031 20.714844 1.667969 19.640625 0 19.640625 Z M 0 21.429688 "/>
<path style=" stroke:none;fill-rule:nonzero;fill:rgb(100%,100%,100%);fill-opacity:1;" d="M 0 17.855469 C 1.667969 17.855469 3.332031 18.929688 5 18.929688 C 6.667969 18.929688 8.332031 17.855469 10 17.855469 C 11.667969 17.855469 13.332031 18.929688 15 18.929688 C 16.667969 18.929688 18.332031 17.855469 20 17.855469 C 21.667969 17.855469 23.332031 18.929688 25 18.929688 C 26.667969 18.929688 28.332031 17.855469 30 17.855469 C 31.667969 17.855469 33.332031 18.929688 35 18.929688 C 36.667969 18.929688 38.332031 17.855469 40 17.855469 C 41.667969 17.855469 43.332031 18.929688 45 18.929688 C 46.667969 18.929688 48.332031 17.855469 50 17.855469 L 50 16.070312 C 48.332031 16.070312 46.667969 17.144531 45 17.144531 C 43.332031 17.144531 41.667969 16.070312 40 16.070312 C 38.332031 16.070312 36.667969 17.144531 35 17.144531 C 33.332031 17.144531 31.667969 16.070312 30 16.070312 C 28.332031 16.070312 26.667969 17.144531 25 17.144531 C 23.332031 17.144531 21.667969 16.070312 20 16.070312 C 18.332031 16.070312 16.667969 17.144531 15 17.144531 C 13.332031 17.144531 11.667969 16.070312 10 16.070312 C 8.332031 16.070312 6.667969 17.144531 5 17.144531 C 3.332031 17.144531 1.667969 16.070312 0 16.070312 Z M 0 17.855469 "/>
<path style=" stroke:none;fill-rule:nonzero;fill:rgb(100%,100%,100%);fill-opacity:1;" d="M 0 14.285156 C 1.667969 14.285156 3.332031 15.355469 5 15.355469 C 6.667969 15.355469 8.332031 14.285156 10 14.285156 C 11.667969 14.285156 13.332031 15.355469 15 15.355469 C 16.667969 15.355469 18.332031 14.285156 20 14.285156 C 21.667969 14.285156 23.332031 15.355469 25 15.355469 C 26.667969 15.355469 28.332031 14.285156 30 14.285156 C 31.667969 14.285156 33.332031 15.355469 35 15.355469 C 36.667969 15.355469 38.332031 14.285156 40 14.285156 C 41.667969 14.285156 43.332031 15.355469 45 15.355469 C 46.667969 15.355469 48.332031 14.285156 50 14.285156 L 50 12.5 C 48.332031 12.5 46.667969 13.570312 45 13.570312 C 43.332031 13.570312 41.667969 12.5 40 12.5 C 38.332031 12.5 36.667969 13.570312 35 13.570312 C 33.332031 13.570312 31.667969 12.5 30 12.5 C 28.332031 12.5 26.667969 13.570312 25 13.570312 C 23.332031 13.570312 21.667969 12.5 20 12.5 C 18.332031 12.5 16.667969 13.570312 15 13.570312 C 13.332031 13.570312 11.667969 12.5 10 12.5 C 8.332031 12.5 6.667969 13.570312 5 13.570312 C 3.332031 13.570312 1.667969 12.5 0 12.5 Z M 0 14.285156 "/>
</g>
</svg>
