<?xml version="1.0" encoding="UTF-8"?>
<svg xmlns="http://www.w3.org/2000/svg" xmlns:xlink="http://www.w3.org/1999/xlink" width="35pt" height="25pt" viewBox="0 0 35 25" version="1.1">
<g id="surface1">
<rect x="0" y="0" width="35" height="25" style="fill:rgb(14.117647%,29.019608%,64.705882%);fill-opacity:1;stroke:none;"/>
<path style=" stroke:none;fill-rule:nonzero;fill:rgb(81.568627%,65.098039%,31.372549%);fill-opacity:1;" d="M 13.835938 11.859375 C 13.835938 11.859375 13.902344 11.8125 13.925781 11.808594 C 13.949219 11.800781 14.035156 11.777344 14.035156 11.777344 C 14.035156 11.777344 14.085938 11.75 14.117188 11.75 C 14.144531 11.75 14.203125 11.78125 14.222656 11.808594 C 14.242188 11.835938 14.335938 11.882812 14.335938 11.882812 C 14.335938 11.882812 14.402344 11.90625 14.414062 11.882812 C 14.425781 11.863281 14.453125 11.847656 14.484375 11.847656 C 14.515625 11.847656 14.519531 11.820312 14.519531 11.796875 C 14.519531 11.773438 14.53125 11.746094 14.554688 11.722656 C 14.578125 11.691406 14.625 11.675781 14.625 11.675781 C 14.625 11.675781 14.691406 11.648438 14.695312 11.613281 C 14.703125 11.574219 14.769531 11.546875 14.804688 11.539062 C 14.839844 11.535156 14.804688 11.519531 14.898438 11.527344 C 14.996094 11.539062 15.007812 11.507812 15.011719 11.480469 C 15.019531 11.453125 15.011719 11.421875 15.070312 11.429688 C 15.132812 11.433594 15.160156 11.433594 15.160156 11.402344 C 15.160156 11.371094 15.214844 11.351562 15.121094 11.324219 C 15.023438 11.296875 15.03125 11.320312 15.023438 11.277344 C 15.019531 11.234375 15.023438 11.238281 14.960938 11.234375 C 14.894531 11.226562 14.929688 11.195312 14.925781 11.160156 C 14.917969 11.128906 14.902344 11.113281 14.890625 11.089844 C 14.878906 11.066406 14.84375 11.066406 14.84375 11.035156 C 14.84375 11.003906 14.835938 10.984375 14.800781 10.984375 C 14.765625 10.984375 14.753906 10.984375 14.753906 10.953125 C 14.753906 10.921875 14.761719 10.894531 14.796875 10.894531 C 14.828125 10.894531 14.847656 10.867188 14.84375 10.835938 C 14.835938 10.800781 14.835938 10.730469 14.835938 10.730469 L 14.882812 10.675781 C 14.882812 10.675781 15.027344 10.558594 15.039062 10.539062 C 15.050781 10.515625 15.097656 10.5 15.121094 10.542969 C 15.144531 10.589844 15.15625 10.597656 15.175781 10.621094 C 15.191406 10.640625 15.246094 10.625 15.257812 10.605469 C 15.269531 10.582031 15.273438 10.5 15.304688 10.457031 C 15.339844 10.414062 15.359375 10.394531 15.367188 10.359375 C 15.375 10.324219 15.390625 10.292969 15.429688 10.292969 C 15.46875 10.292969 15.492188 10.246094 15.492188 10.214844 C 15.492188 10.1875 15.507812 10.160156 15.554688 10.152344 C 15.597656 10.144531 15.625 10.117188 15.640625 10.160156 C 15.65625 10.203125 15.671875 10.203125 15.699219 10.214844 C 15.734375 10.230469 15.777344 10.25 15.800781 10.230469 C 15.824219 10.207031 15.835938 10.171875 15.871094 10.195312 C 15.902344 10.21875 15.925781 10.195312 15.933594 10.152344 C 15.941406 10.109375 15.949219 10.054688 15.949219 10.054688 C 15.949219 10.054688 15.957031 10.023438 16.011719 10.023438 C 16.066406 10.023438 16.027344 9.988281 16.058594 9.96875 C 16.089844 9.945312 16.089844 9.925781 16.128906 9.9375 C 16.167969 9.953125 16.226562 9.921875 16.199219 9.886719 C 16.167969 9.851562 16.097656 9.792969 16.136719 9.75 C 16.175781 9.707031 16.191406 9.636719 16.152344 9.628906 C 16.113281 9.621094 16.058594 9.636719 16.050781 9.59375 C 16.042969 9.550781 16.027344 9.523438 16.074219 9.515625 C 16.121094 9.507812 16.199219 9.507812 16.222656 9.488281 C 16.246094 9.464844 16.324219 9.453125 16.324219 9.386719 C 16.324219 9.324219 16.347656 9.316406 16.355469 9.28125 C 16.363281 9.246094 16.363281 9.171875 16.332031 9.136719 C 16.300781 9.101562 16.253906 9.050781 16.246094 9.03125 C 16.238281 9.007812 16.207031 8.972656 16.160156 8.957031 C 16.113281 8.945312 16.074219 8.9375 16.074219 8.902344 C 16.074219 8.867188 16.105469 8.910156 16.105469 8.816406 C 16.105469 8.722656 16.042969 8.710938 16.042969 8.710938 L 15.949219 8.652344 C 15.949219 8.652344 15.785156 8.609375 15.742188 8.609375 C 15.699219 8.609375 15.648438 8.5625 15.699219 8.53125 C 15.75 8.503906 15.761719 8.453125 15.742188 8.410156 C 15.722656 8.371094 15.710938 8.339844 15.640625 8.324219 C 15.570312 8.304688 15.550781 8.289062 15.582031 8.246094 C 15.617188 8.207031 15.621094 8.175781 15.660156 8.207031 C 15.699219 8.234375 15.761719 8.246094 15.8125 8.222656 C 15.863281 8.199219 15.882812 8.183594 15.90625 8.207031 C 15.933594 8.230469 15.964844 8.253906 16 8.21875 C 16.039062 8.183594 16.109375 8.175781 16.140625 8.195312 C 16.171875 8.210938 16.25 8.207031 16.273438 8.195312 C 16.300781 8.183594 16.351562 8.140625 16.351562 8.117188 C 16.351562 8.09375 16.382812 8.054688 16.414062 8.039062 C 16.445312 8.019531 16.484375 7.960938 16.515625 7.960938 C 16.546875 7.960938 16.558594 7.925781 16.558594 7.902344 C 16.558594 7.878906 16.585938 7.832031 16.589844 7.816406 C 16.597656 7.796875 16.660156 7.773438 16.703125 7.808594 C 16.75 7.84375 16.804688 7.855469 16.804688 7.855469 C 16.804688 7.855469 16.871094 7.867188 16.902344 7.855469 C 16.933594 7.84375 16.976562 7.832031 17.019531 7.863281 C 17.066406 7.890625 17.128906 7.890625 17.128906 7.890625 C 17.128906 7.890625 17.140625 7.84375 17.140625 7.820312 C 17.140625 7.796875 17.15625 7.757812 17.128906 7.738281 C 17.105469 7.722656 17.070312 7.699219 17.121094 7.664062 C 17.171875 7.628906 17.171875 7.636719 17.222656 7.636719 C 17.273438 7.636719 17.304688 7.640625 17.34375 7.640625 C 17.382812 7.640625 17.445312 7.675781 17.445312 7.710938 C 17.445312 7.746094 17.472656 7.769531 17.503906 7.785156 C 17.535156 7.804688 17.574219 7.820312 17.558594 7.851562 C 17.546875 7.878906 17.546875 7.902344 17.585938 7.898438 C 17.621094 7.890625 17.636719 7.914062 17.636719 7.945312 C 17.636719 7.972656 17.648438 7.992188 17.6875 8.003906 C 17.722656 8.015625 17.742188 8.039062 17.742188 8.066406 C 17.742188 8.09375 17.738281 8.113281 17.75 8.140625 C 17.761719 8.171875 17.800781 8.21875 17.800781 8.21875 C 17.800781 8.21875 17.871094 8.300781 17.78125 8.257812 C 17.691406 8.21875 17.671875 8.199219 17.640625 8.207031 C 17.609375 8.210938 17.589844 8.230469 17.589844 8.230469 C 17.589844 8.230469 17.546875 8.242188 17.515625 8.242188 C 17.484375 8.242188 17.453125 8.304688 17.503906 8.316406 C 17.554688 8.328125 17.574219 8.339844 17.574219 8.382812 C 17.574219 8.421875 17.554688 8.410156 17.527344 8.441406 C 17.503906 8.46875 17.484375 8.453125 17.4375 8.453125 C 17.394531 8.453125 17.382812 8.488281 17.382812 8.519531 C 17.382812 8.554688 17.402344 8.550781 17.421875 8.578125 C 17.4375 8.609375 17.472656 8.613281 17.503906 8.585938 C 17.535156 8.554688 17.558594 8.539062 17.578125 8.589844 C 17.597656 8.644531 17.621094 8.644531 17.660156 8.644531 C 17.699219 8.644531 17.710938 8.644531 17.742188 8.625 C 17.773438 8.609375 17.8125 8.625 17.820312 8.671875 C 17.824219 8.71875 17.855469 8.726562 17.890625 8.742188 C 17.921875 8.761719 17.941406 8.773438 17.945312 8.800781 C 17.953125 8.832031 17.972656 8.84375 18.003906 8.824219 C 18.035156 8.808594 18.085938 8.796875 18.105469 8.820312 C 18.125 8.84375 18.15625 8.890625 18.15625 8.890625 L 18.160156 8.949219 L 18.28125 8.988281 C 18.28125 8.988281 18.292969 9.015625 18.292969 9.039062 C 18.292969 9.0625 18.3125 9.074219 18.34375 9.070312 C 18.375 9.0625 18.433594 9.070312 18.433594 9.070312 C 18.433594 9.070312 18.476562 9.050781 18.476562 9.015625 C 18.476562 8.980469 18.496094 8.96875 18.527344 8.96875 C 18.558594 8.96875 18.628906 8.992188 18.648438 8.957031 C 18.667969 8.925781 18.726562 8.914062 18.769531 8.929688 C 18.8125 8.949219 18.925781 8.992188 18.925781 8.992188 C 18.925781 8.992188 18.914062 9 18.953125 9.058594 C 18.992188 9.117188 19.0625 9.117188 19.0625 9.117188 C 19.0625 9.117188 19.066406 9.167969 19.078125 9.191406 C 19.09375 9.214844 19.148438 9.226562 19.179688 9.203125 C 19.210938 9.179688 19.257812 9.152344 19.296875 9.152344 C 19.332031 9.152344 19.359375 9.152344 19.359375 9.128906 C 19.359375 9.105469 19.320312 9.085938 19.320312 9.050781 C 19.320312 9.015625 19.359375 9.015625 19.363281 8.980469 C 19.371094 8.949219 19.410156 8.980469 19.433594 9 C 19.460938 9.015625 19.492188 9.046875 19.492188 9.070312 C 19.492188 9.09375 19.542969 9.175781 19.574219 9.1875 C 19.605469 9.199219 19.6875 9.203125 19.714844 9.175781 C 19.738281 9.144531 19.800781 9.132812 19.796875 9.203125 C 19.789062 9.273438 19.777344 9.28125 19.820312 9.304688 C 19.863281 9.328125 19.871094 9.40625 19.832031 9.429688 C 19.796875 9.453125 19.78125 9.460938 19.78125 9.5 C 19.78125 9.542969 19.769531 9.589844 19.800781 9.613281 C 19.832031 9.636719 19.851562 9.652344 19.851562 9.675781 C 19.851562 9.699219 19.890625 9.804688 19.890625 9.804688 C 19.890625 9.804688 19.910156 9.910156 19.902344 9.933594 C 19.898438 9.957031 19.882812 9.996094 19.941406 9.992188 C 19.996094 9.984375 20.011719 9.984375 20.011719 10.03125 C 20.011719 10.078125 20.03125 10.097656 19.996094 10.113281 C 19.964844 10.132812 19.949219 10.191406 19.980469 10.203125 C 20.011719 10.214844 20.035156 10.230469 20.042969 10.253906 C 20.046875 10.277344 20.097656 10.316406 20.132812 10.292969 C 20.164062 10.269531 20.167969 10.261719 20.195312 10.253906 C 20.21875 10.25 20.238281 10.230469 20.214844 10.203125 C 20.1875 10.171875 20.183594 10.144531 20.207031 10.125 C 20.230469 10.109375 20.246094 10.050781 20.246094 10.050781 C 20.246094 10.050781 20.28125 9.996094 20.328125 10.050781 C 20.371094 10.101562 20.378906 10.085938 20.410156 10.085938 C 20.441406 10.085938 20.453125 10.113281 20.453125 10.144531 C 20.453125 10.171875 20.515625 10.167969 20.515625 10.214844 C 20.515625 10.261719 20.53125 10.371094 20.53125 10.371094 C 20.53125 10.371094 20.53125 10.433594 20.566406 10.457031 C 20.605469 10.480469 20.601562 10.488281 20.582031 10.515625 C 20.5625 10.546875 20.566406 10.59375 20.566406 10.617188 C 20.566406 10.640625 20.582031 10.652344 20.550781 10.675781 C 20.515625 10.699219 20.503906 10.726562 20.523438 10.761719 C 20.542969 10.796875 20.535156 10.820312 20.585938 10.859375 C 20.636719 10.902344 20.632812 10.917969 20.632812 10.949219 C 20.632812 10.976562 20.683594 11.019531 20.683594 11.046875 C 20.683594 11.078125 20.71875 11.113281 20.75 11.117188 C 20.785156 11.125 20.820312 11.175781 20.820312 11.203125 C 20.820312 11.234375 20.828125 11.308594 20.828125 11.308594 C 20.828125 11.308594 20.820312 11.328125 20.859375 11.328125 C 20.898438 11.328125 20.921875 11.367188 20.933594 11.320312 C 20.949219 11.273438 20.984375 11.269531 21.011719 11.257812 C 21.035156 11.246094 21.085938 11.222656 21.113281 11.238281 C 21.136719 11.257812 21.167969 11.257812 21.195312 11.257812 C 21.21875 11.257812 21.339844 11.261719 21.339844 11.261719 C 21.339844 11.261719 21.371094 11.257812 21.390625 11.304688 C 21.410156 11.351562 21.46875 11.402344 21.4375 11.425781 C 21.402344 11.449219 21.402344 11.496094 21.441406 11.496094 C 21.480469 11.496094 21.519531 11.496094 21.519531 11.527344 C 21.519531 11.554688 21.523438 11.578125 21.554688 11.5625 C 21.585938 11.542969 21.605469 11.539062 21.621094 11.5625 C 21.632812 11.582031 21.65625 11.582031 21.6875 11.601562 C 21.71875 11.617188 21.734375 11.605469 21.753906 11.582031 C 21.769531 11.5625 21.847656 11.539062 21.847656 11.539062 C 21.847656 11.539062 21.949219 11.515625 21.988281 11.527344 C 22.023438 11.539062 22.074219 11.5625 22.074219 11.5625 C 22.074219 11.5625 22.101562 11.617188 22.089844 11.652344 C 22.074219 11.6875 22.0625 11.683594 22.074219 11.734375 C 22.089844 11.789062 22.0625 11.792969 22.039062 11.789062 C 22.011719 11.78125 21.988281 11.78125 21.988281 11.828125 C 21.988281 11.875 21.960938 11.886719 21.960938 11.929688 C 21.960938 11.96875 21.960938 11.964844 21.9375 11.980469 C 21.910156 12 21.90625 12.027344 21.941406 12.03125 C 21.980469 12.039062 21.96875 12.078125 21.96875 12.101562 C 21.96875 12.125 21.960938 12.179688 21.960938 12.179688 C 21.960938 12.179688 21.96875 12.207031 21.921875 12.207031 C 21.878906 12.207031 21.839844 12.203125 21.835938 12.230469 C 21.828125 12.261719 21.777344 12.308594 21.820312 12.335938 C 21.867188 12.367188 21.855469 12.382812 21.828125 12.394531 C 21.804688 12.40625 21.785156 12.464844 21.835938 12.480469 C 21.886719 12.5 21.878906 12.515625 21.847656 12.539062 C 21.816406 12.5625 21.753906 12.582031 21.753906 12.617188 C 21.753906 12.652344 21.738281 12.652344 21.703125 12.65625 C 21.664062 12.664062 21.644531 12.710938 21.6875 12.769531 C 21.734375 12.828125 21.746094 12.816406 21.777344 12.816406 C 21.808594 12.816406 21.808594 12.769531 21.808594 12.769531 C 21.808594 12.769531 21.917969 12.773438 21.949219 12.773438 C 21.980469 12.773438 22.023438 12.773438 22.050781 12.757812 C 22.074219 12.738281 22.144531 12.710938 22.144531 12.761719 C 22.144531 12.816406 22.15625 12.808594 22.1875 12.832031 C 22.222656 12.855469 22.226562 12.839844 22.253906 12.875 C 22.277344 12.90625 22.285156 12.878906 22.304688 12.839844 C 22.324219 12.796875 22.359375 12.757812 22.390625 12.804688 C 22.421875 12.851562 22.421875 12.839844 22.460938 12.839844 C 22.5 12.839844 22.511719 12.855469 22.511719 12.886719 C 22.511719 12.914062 22.550781 12.914062 22.59375 12.90625 C 22.640625 12.902344 22.644531 12.929688 22.664062 12.960938 C 22.683594 12.988281 22.691406 12.984375 22.714844 12.984375 C 22.742188 12.984375 22.765625 12.984375 22.785156 12.960938 C 22.804688 12.9375 22.828125 12.90625 22.855469 12.941406 C 22.878906 12.976562 22.929688 12.972656 22.941406 12.929688 C 22.957031 12.890625 23.011719 12.855469 23.042969 12.902344 C 23.074219 12.949219 23.101562 12.949219 23.132812 12.953125 C 23.164062 12.960938 23.210938 12.960938 23.226562 12.988281 C 23.246094 13.019531 23.308594 13.066406 23.265625 13.101562 C 23.222656 13.136719 23.171875 13.183594 23.210938 13.195312 C 23.246094 13.207031 23.273438 13.21875 23.296875 13.246094 C 23.324219 13.277344 23.40625 13.289062 23.441406 13.292969 C 23.480469 13.300781 23.511719 13.304688 23.558594 13.269531 C 23.601562 13.234375 23.644531 13.234375 23.640625 13.28125 C 23.632812 13.328125 23.660156 13.378906 23.660156 13.378906 C 23.660156 13.378906 23.691406 13.457031 23.691406 13.484375 C 23.691406 13.515625 23.683594 13.519531 23.742188 13.554688 C 23.796875 13.589844 23.792969 13.613281 23.835938 13.578125 C 23.878906 13.542969 23.894531 13.527344 23.894531 13.496094 C 23.894531 13.46875 23.894531 13.402344 23.894531 13.402344 C 23.894531 13.402344 23.957031 13.390625 23.980469 13.375 C 24.007812 13.355469 24.109375 13.304688 24.132812 13.328125 C 24.160156 13.351562 24.191406 13.34375 24.214844 13.332031 C 24.242188 13.324219 24.292969 13.324219 24.316406 13.324219 C 24.34375 13.324219 24.386719 13.328125 24.4375 13.289062 C 24.488281 13.246094 24.488281 13.257812 24.519531 13.289062 C 24.550781 13.316406 24.550781 13.351562 24.53125 13.375 C 24.511719 13.398438 24.53125 13.449219 24.578125 13.449219 C 24.621094 13.449219 24.632812 13.472656 24.632812 13.503906 C 24.632812 13.53125 24.640625 13.574219 24.648438 13.597656 C 24.652344 13.621094 24.652344 13.632812 24.722656 13.648438 C 24.792969 13.667969 24.78125 13.707031 24.792969 13.738281 C 24.804688 13.765625 24.804688 13.789062 24.765625 13.789062 C 24.730469 13.789062 24.714844 13.804688 24.710938 13.835938 C 24.703125 13.863281 24.648438 13.875 24.648438 13.875 L 24.589844 13.863281 C 24.589844 13.863281 24.550781 13.863281 24.53125 13.886719 C 24.511719 13.910156 24.476562 13.957031 24.5 14 C 24.527344 14.039062 24.527344 14.0625 24.5 14.082031 C 24.476562 14.097656 24.464844 14.1875 24.4375 14.167969 C 24.414062 14.152344 24.378906 14.175781 24.355469 14.1875 C 24.328125 14.199219 24.335938 14.277344 24.386719 14.308594 C 24.4375 14.335938 24.449219 14.378906 24.449219 14.378906 L 24.507812 14.464844 C 24.507812 14.464844 24.488281 14.484375 24.476562 14.511719 C 24.464844 14.542969 24.425781 14.601562 24.464844 14.613281 C 24.5 14.625 24.480469 14.6875 24.445312 14.6875 C 24.40625 14.6875 24.363281 14.667969 24.355469 14.714844 C 24.347656 14.761719 24.328125 14.75 24.292969 14.746094 C 24.253906 14.738281 24.160156 14.714844 24.132812 14.761719 C 24.109375 14.808594 24.101562 14.828125 24.058594 14.820312 C 24.011719 14.816406 24.03125 14.890625 24.046875 14.921875 C 24.058594 14.949219 24.101562 14.992188 24.101562 14.992188 C 24.101562 14.992188 24.140625 15.019531 24.140625 15.078125 C 24.140625 15.136719 24.113281 15.128906 24.089844 15.089844 C 24.0625 15.050781 24.011719 15.054688 24.007812 15.101562 C 24 15.148438 23.996094 15.21875 23.949219 15.21875 C 23.90625 15.21875 23.886719 15.230469 23.867188 15.253906 C 23.847656 15.277344 23.816406 15.316406 23.816406 15.339844 C 23.816406 15.363281 23.8125 15.386719 23.777344 15.394531 C 23.746094 15.398438 23.742188 15.464844 23.742188 15.464844 C 23.742188 15.464844 23.664062 15.476562 23.660156 15.503906 C 23.652344 15.53125 23.664062 15.578125 23.601562 15.585938 C 23.539062 15.589844 23.5 15.632812 23.480469 15.660156 C 23.460938 15.691406 23.457031 15.714844 23.480469 15.742188 C 23.507812 15.773438 23.527344 15.867188 23.558594 15.882812 C 23.589844 15.902344 23.613281 15.90625 23.609375 15.953125 C 23.601562 16 23.5625 16.035156 23.613281 16.035156 C 23.664062 16.035156 23.695312 16.046875 23.675781 16.085938 C 23.660156 16.128906 23.660156 16.132812 23.621094 16.152344 C 23.582031 16.167969 23.5625 16.167969 23.5625 16.214844 C 23.5625 16.261719 23.578125 16.261719 23.542969 16.28125 C 23.511719 16.296875 23.511719 16.320312 23.511719 16.355469 C 23.511719 16.390625 23.5 16.378906 23.460938 16.417969 C 23.425781 16.460938 23.375 16.460938 23.34375 16.449219 C 23.308594 16.4375 23.304688 16.4375 23.296875 16.402344 C 23.292969 16.367188 23.234375 16.367188 23.203125 16.375 C 23.171875 16.378906 23.125 16.414062 23.125 16.414062 C 23.125 16.414062 23.070312 16.449219 23.09375 16.476562 C 23.121094 16.507812 23.109375 16.554688 23.0625 16.546875 C 23.019531 16.542969 22.917969 16.59375 22.886719 16.542969 C 22.855469 16.488281 22.765625 16.453125 22.753906 16.523438 C 22.742188 16.59375 22.789062 16.589844 22.785156 16.660156 C 22.777344 16.730469 22.765625 16.730469 22.742188 16.753906 C 22.714844 16.777344 22.714844 16.792969 22.707031 16.824219 C 22.703125 16.851562 22.695312 16.914062 22.742188 16.9375 C 22.785156 16.960938 22.804688 17.027344 22.804688 17.0625 C 22.804688 17.097656 22.804688 17.132812 22.847656 17.132812 C 22.890625 17.132812 22.929688 17.125 22.9375 17.085938 C 22.941406 17.042969 23.03125 17.019531 23.039062 17.101562 C 23.042969 17.183594 23.042969 17.226562 23.074219 17.261719 C 23.109375 17.292969 23.132812 17.339844 23.160156 17.359375 C 23.183594 17.375 23.226562 17.523438 23.226562 17.523438 C 23.164062 17.539062 23.148438 17.617188 23.109375 17.632812 C 23.085938 17.644531 23.0625 17.636719 23.042969 17.652344 C 23.027344 17.664062 23.027344 17.683594 23.003906 17.695312 C 22.957031 17.714844 22.964844 17.644531 22.910156 17.667969 C 22.859375 17.691406 22.855469 17.75 22.78125 17.726562 C 22.746094 17.714844 22.722656 17.566406 22.710938 17.53125 C 22.703125 17.507812 22.664062 17.449219 22.652344 17.429688 C 22.609375 17.363281 22.523438 17.429688 22.496094 17.410156 C 22.453125 17.378906 22.472656 17.332031 22.40625 17.324219 C 22.277344 17.316406 22.371094 17.40625 22.3125 17.425781 C 22.207031 17.464844 22.207031 17.328125 22.128906 17.390625 C 22.097656 17.414062 22.175781 17.425781 22.15625 17.46875 C 22.140625 17.5 22.0625 17.554688 22.070312 17.59375 C 22.074219 17.644531 22.132812 17.664062 22.152344 17.707031 C 22.199219 17.828125 22.121094 17.910156 22 17.816406 C 21.933594 17.765625 21.921875 17.667969 21.820312 17.675781 C 21.796875 17.675781 21.789062 17.699219 21.761719 17.703125 C 21.738281 17.703125 21.71875 17.679688 21.695312 17.6875 C 21.65625 17.703125 21.691406 17.726562 21.683594 17.75 C 21.683594 17.75 21.632812 17.792969 21.625 17.804688 C 21.59375 17.839844 21.605469 17.875 21.5625 17.90625 C 21.527344 17.933594 21.503906 17.917969 21.464844 17.957031 C 21.425781 18 21.421875 18.0625 21.371094 18.101562 C 21.34375 18.125 21.328125 18.042969 21.296875 18.09375 C 21.292969 18.101562 21.285156 18.109375 21.285156 18.117188 C 21.277344 18.132812 21.273438 18.140625 21.28125 18.15625 C 21.347656 18.285156 21.210938 18.335938 21.167969 18.425781 C 21.148438 18.464844 21.199219 18.496094 21.179688 18.527344 C 21.164062 18.550781 21.101562 18.609375 21.097656 18.621094 C 21.09375 18.636719 21.085938 18.664062 21.078125 18.675781 C 21.066406 18.6875 21.027344 18.679688 21.023438 18.699219 C 21.019531 18.71875 21.0625 18.734375 21.074219 18.746094 C 21.089844 18.761719 21.066406 18.785156 21.074219 18.789062 C 21.144531 18.859375 21.101562 18.839844 21.136719 18.902344 C 21.144531 18.910156 21.164062 18.894531 21.171875 18.917969 C 21.179688 18.941406 21.15625 18.9375 21.164062 18.964844 C 21.167969 18.96875 21.21875 19.035156 21.21875 19.039062 C 21.21875 19.058594 21.121094 19.105469 21.097656 19.105469 C 21.039062 19.105469 21.152344 18.980469 21.050781 18.980469 C 21.007812 18.980469 21.007812 19.078125 20.996094 19.089844 C 20.992188 19.09375 20.949219 19.089844 20.941406 19.089844 C 20.878906 19.089844 20.835938 19.167969 20.8125 19.175781 C 20.796875 19.179688 20.761719 19.164062 20.734375 19.171875 C 20.707031 19.175781 20.679688 19.199219 20.65625 19.199219 C 20.640625 19.199219 20.632812 19.1875 20.617188 19.183594 C 20.589844 19.164062 20.539062 19.160156 20.507812 19.148438 C 20.488281 19.140625 20.457031 19.171875 20.445312 19.164062 C 20.425781 19.148438 20.457031 19.113281 20.410156 19.085938 C 20.40625 19.085938 20.371094 19 20.371094 18.996094 C 20.386719 18.941406 20.40625 18.878906 20.398438 18.820312 C 20.386719 18.761719 20.292969 18.710938 20.269531 18.664062 C 20.25 18.625 20.230469 18.53125 20.195312 18.503906 C 20.15625 18.480469 20.121094 18.429688 20.097656 18.386719 C 20.09375 18.375 20.113281 18.355469 20.097656 18.335938 C 20.082031 18.3125 20.050781 18.304688 20.042969 18.277344 C 20.039062 18.253906 20.042969 18.175781 20.015625 18.160156 C 19.988281 18.144531 19.792969 18.121094 19.746094 18.117188 C 19.722656 18.113281 19.703125 18.113281 19.683594 18.09375 C 19.675781 18.089844 19.664062 18.058594 19.65625 18.058594 C 19.636719 18.054688 19.613281 18.066406 19.597656 18.066406 C 19.582031 18.070312 19.558594 18.058594 19.546875 18.066406 C 19.484375 18.109375 19.46875 18.164062 19.410156 18.210938 C 19.347656 18.253906 19.28125 18.253906 19.222656 18.304688 C 19.183594 18.339844 19.160156 18.417969 19.121094 18.457031 C 19.105469 18.472656 19.078125 18.457031 19.074219 18.464844 C 19.042969 18.503906 18.996094 18.527344 18.964844 18.5625 C 18.960938 18.570312 18.960938 18.585938 18.953125 18.589844 L 18.886719 18.609375 C 18.867188 18.613281 18.835938 18.605469 18.820312 18.613281 C 18.789062 18.621094 18.789062 18.65625 18.683594 18.675781 C 18.675781 18.679688 18.660156 18.6875 18.652344 18.691406 C 18.640625 18.699219 18.632812 18.710938 18.617188 18.722656 C 18.609375 18.726562 18.585938 18.714844 18.574219 18.71875 C 18.546875 18.722656 18.53125 18.746094 18.503906 18.75 C 18.449219 18.757812 18.355469 18.722656 18.3125 18.738281 C 18.285156 18.75 18.210938 18.832031 18.183594 18.84375 C 18.167969 18.847656 18.152344 18.839844 18.132812 18.832031 C 18.125 18.84375 18.101562 18.933594 18.09375 18.957031 C 18.09375 18.957031 17.972656 19.058594 17.964844 19.070312 C 17.949219 19.089844 17.941406 19.109375 17.921875 19.125 C 17.910156 19.140625 17.890625 19.152344 17.867188 19.152344 C 17.84375 19.152344 17.804688 19.132812 17.78125 19.128906 C 17.734375 19.121094 17.597656 19.113281 17.554688 19.125 C 17.515625 19.132812 17.527344 19.253906 17.421875 19.265625 C 17.359375 19.273438 17.300781 19.285156 17.238281 19.292969 C 17.230469 19.292969 17.195312 19.265625 17.15625 19.273438 C 17.140625 19.28125 17.097656 19.328125 17.097656 19.339844 L 17.097656 19.367188 C 17.097656 19.371094 17.109375 19.386719 17.105469 19.390625 C 17.082031 19.417969 17.027344 19.460938 17.011719 19.492188 C 17.007812 19.5 17 19.511719 16.992188 19.515625 C 16.980469 19.527344 16.90625 19.554688 16.898438 19.566406 C 16.882812 19.613281 16.949219 19.652344 16.945312 19.671875 C 16.925781 19.726562 16.847656 19.78125 16.824219 19.832031 C 16.816406 19.855469 16.851562 19.929688 16.847656 19.953125 C 16.839844 20.023438 16.816406 20.109375 16.820312 20.175781 C 16.820312 20.191406 16.828125 20.257812 16.835938 20.265625 C 16.84375 20.277344 16.859375 20.285156 16.871094 20.296875 C 16.882812 20.308594 16.964844 20.472656 16.96875 20.488281 C 16.984375 20.609375 16.808594 20.570312 16.910156 20.691406 C 16.925781 20.707031 16.9375 20.730469 16.957031 20.746094 C 16.980469 20.765625 17.109375 20.863281 17.109375 20.871094 C 17.113281 20.890625 17.003906 20.90625 16.988281 20.925781 C 16.9375 20.976562 16.894531 21.066406 16.84375 21.117188 C 16.8125 21.152344 16.785156 21.117188 16.746094 21.191406 C 16.734375 21.21875 16.746094 21.28125 16.730469 21.296875 C 16.703125 21.324219 16.683594 21.289062 16.660156 21.300781 C 16.648438 21.304688 16.640625 21.335938 16.628906 21.347656 C 16.601562 21.371094 16.347656 21.503906 16.324219 21.492188 C 16.3125 21.488281 16.296875 21.445312 16.296875 21.433594 C 16.292969 21.417969 16.277344 21.386719 16.265625 21.375 C 16.199219 21.320312 16.101562 21.308594 16.035156 21.375 C 16.019531 21.394531 16.019531 21.421875 16 21.4375 C 15.964844 21.46875 15.925781 21.492188 15.890625 21.523438 C 15.882812 21.527344 15.867188 21.550781 15.859375 21.546875 C 15.832031 21.546875 15.769531 21.476562 15.753906 21.457031 C 15.726562 21.421875 15.644531 21.34375 15.636719 21.304688 C 15.636719 21.175781 15.535156 21.039062 15.492188 20.914062 L 15.554688 20.914062 C 15.625 20.867188 15.605469 20.75 15.734375 20.792969 C 15.75 20.773438 15.75 20.75 15.777344 20.734375 C 15.789062 20.726562 15.808594 20.722656 15.816406 20.710938 C 15.859375 20.644531 15.910156 20.394531 15.867188 20.332031 C 15.824219 20.273438 15.785156 20.277344 15.753906 20.179688 C 15.742188 20.152344 15.761719 20.121094 15.753906 20.09375 C 15.746094 20.070312 15.703125 19.929688 15.699219 19.921875 C 15.691406 19.910156 15.664062 19.894531 15.660156 19.886719 C 15.660156 19.875 15.648438 19.726562 15.65625 19.714844 C 15.613281 19.597656 15.46875 19.523438 15.460938 19.511719 C 15.441406 19.480469 15.425781 19.445312 15.40625 19.414062 C 15.382812 19.378906 15.382812 19.359375 15.371094 19.324219 C 15.367188 19.308594 15.34375 19.296875 15.339844 19.277344 C 15.339844 19.246094 15.425781 19.183594 15.421875 19.128906 C 15.421875 19.113281 15.367188 19.058594 15.378906 19.03125 C 15.390625 19 15.445312 18.929688 15.441406 18.898438 C 15.441406 18.851562 15.355469 18.753906 15.34375 18.707031 C 15.339844 18.683594 15.378906 18.664062 15.367188 18.648438 C 15.355469 18.628906 15.269531 18.546875 15.253906 18.523438 C 15.242188 18.507812 15.289062 18.484375 15.257812 18.453125 C 15.226562 18.421875 15.25 18.433594 15.242188 18.40625 C 15.234375 18.378906 15.203125 18.355469 15.1875 18.324219 C 15.179688 18.300781 15.101562 18.027344 15.105469 18.011719 C 15.089844 17.992188 15.070312 17.976562 15.058594 17.957031 C 15.046875 17.9375 15.042969 17.902344 15.03125 17.886719 C 15.03125 17.886719 14.945312 17.859375 14.929688 17.835938 C 14.917969 17.816406 14.914062 17.75 14.894531 17.714844 C 14.882812 17.699219 14.863281 17.703125 14.851562 17.691406 C 14.839844 17.679688 14.84375 17.664062 14.835938 17.65625 C 14.808594 17.621094 14.757812 17.652344 14.722656 17.523438 C 14.679688 17.492188 14.636719 17.464844 14.59375 17.425781 C 14.585938 17.417969 14.582031 17.410156 14.574219 17.402344 C 14.542969 17.390625 14.496094 17.386719 14.46875 17.363281 C 14.453125 17.363281 14.367188 17.359375 14.359375 17.355469 C 14.347656 17.347656 14.339844 17.3125 14.332031 17.3125 C 14.289062 17.300781 14.214844 17.304688 14.175781 17.273438 C 14.148438 17.25 14.140625 17.121094 14.085938 17.140625 C 14.082031 17.136719 14.074219 17.132812 14.066406 17.132812 C 14.03125 17.089844 13.910156 17.082031 13.859375 17.054688 C 13.847656 17.046875 13.800781 17.050781 13.800781 17.039062 C 13.8125 17.015625 13.808594 16.996094 13.808594 16.96875 C 13.785156 16.941406 13.765625 16.914062 13.746094 16.894531 C 13.699219 16.882812 13.71875 16.878906 13.691406 16.863281 C 13.609375 16.855469 13.601562 16.867188 13.550781 16.914062 C 13.539062 16.925781 13.515625 16.929688 13.5 16.9375 C 13.472656 16.953125 13.464844 17 13.425781 16.980469 C 13.414062 16.972656 13.40625 16.960938 13.394531 16.953125 C 13.375 16.933594 13.359375 16.941406 13.347656 16.910156 C 13.285156 16.875 13.105469 16.996094 13.0625 16.910156 C 13.03125 16.894531 13.011719 16.914062 12.984375 16.886719 C 12.972656 16.875 13.019531 16.730469 12.890625 16.667969 C 12.921875 16.644531 12.953125 16.628906 12.980469 16.609375 C 12.988281 16.59375 12.980469 16.566406 12.980469 16.550781 C 12.980469 16.527344 12.996094 16.476562 12.988281 16.460938 C 12.984375 16.441406 12.964844 16.429688 12.960938 16.40625 C 12.953125 16.386719 12.960938 16.363281 12.949219 16.339844 C 12.941406 16.332031 12.917969 16.320312 12.910156 16.320312 C 12.875 16.292969 12.839844 16.273438 12.8125 16.242188 C 12.804688 16.234375 12.800781 16.21875 12.792969 16.214844 C 12.769531 16.195312 12.691406 16.171875 12.695312 16.136719 C 12.695312 16.125 12.714844 16.125 12.71875 16.113281 C 12.722656 16.097656 12.71875 16.078125 12.730469 16.066406 C 12.765625 16.015625 12.847656 16.039062 12.835938 15.945312 C 12.828125 15.90625 12.800781 15.871094 12.792969 15.828125 C 12.777344 15.816406 12.777344 15.796875 12.765625 15.789062 C 12.683594 15.78125 12.695312 15.699219 12.667969 15.679688 C 12.582031 15.625 12.519531 15.660156 12.613281 15.546875 C 12.625 15.511719 12.53125 15.453125 12.511719 15.429688 C 12.480469 15.398438 12.496094 15.332031 12.480469 15.296875 C 12.476562 15.28125 12.421875 15.25 12.402344 15.222656 C 12.398438 15.214844 12.382812 15.179688 12.375 15.175781 L 12.378906 15.164062 C 12.394531 15.148438 12.386719 15.125 12.378906 15.105469 C 12.371094 15.09375 12.347656 15.097656 12.335938 15.089844 C 12.261719 15.023438 12.171875 14.992188 12.070312 14.953125 C 12.042969 14.941406 12.050781 14.921875 12.027344 14.910156 C 12.011719 14.902344 11.875 14.84375 11.867188 14.84375 C 11.851562 14.839844 11.839844 14.78125 11.828125 14.761719 C 11.820312 14.746094 11.78125 14.710938 11.78125 14.710938 C 11.785156 14.65625 11.75 14.648438 11.707031 14.617188 C 11.710938 14.613281 11.703125 14.59375 11.703125 14.585938 C 11.703125 14.578125 11.730469 14.480469 11.734375 14.46875 C 11.742188 14.449219 11.769531 14.429688 11.765625 14.40625 C 11.757812 14.371094 11.753906 14.3125 11.742188 14.28125 C 11.699219 14.167969 11.648438 14.179688 11.675781 14.03125 C 11.679688 14 11.667969 13.984375 11.695312 13.957031 C 11.691406 13.957031 11.703125 13.941406 11.707031 13.9375 C 11.71875 13.925781 11.761719 13.902344 11.769531 13.890625 C 11.792969 13.859375 11.804688 13.789062 11.835938 13.765625 C 11.859375 13.746094 11.921875 13.714844 11.933594 13.699219 C 11.941406 13.6875 11.957031 13.652344 11.949219 13.636719 C 11.925781 13.621094 11.902344 13.628906 11.882812 13.625 C 11.875 13.625 11.84375 13.605469 11.824219 13.597656 C 11.816406 13.59375 11.804688 13.582031 11.804688 13.574219 L 11.796875 13.5625 C 11.769531 13.5625 11.742188 13.546875 11.71875 13.539062 C 11.691406 13.527344 11.652344 13.523438 11.625 13.507812 C 11.574219 13.480469 11.519531 13.398438 11.46875 13.386719 C 11.402344 13.375 11.359375 13.394531 11.296875 13.398438 C 11.253906 13.398438 11.253906 13.375 11.222656 13.363281 C 11.175781 13.351562 11.210938 13.386719 11.109375 13.355469 C 11.097656 13.34375 11.117188 13.3125 11.117188 13.296875 C 11.101562 13.292969 11.082031 13.300781 11.0625 13.296875 C 10.980469 13.277344 11.011719 13.203125 10.988281 13.152344 C 10.980469 13.140625 10.945312 13.144531 10.929688 13.140625 C 10.925781 13.140625 10.921875 13.132812 10.925781 13.128906 L 10.933594 13.125 C 10.945312 13.101562 10.894531 13.046875 10.898438 13.039062 C 10.898438 13.023438 11.003906 13.003906 11.015625 13.003906 C 11.023438 12.992188 11.007812 12.980469 11.007812 12.964844 C 11.003906 12.9375 11.023438 12.898438 11.03125 12.875 L 11.027344 12.863281 C 11 12.847656 10.992188 12.824219 10.964844 12.804688 C 10.964844 12.792969 10.984375 12.785156 10.988281 12.769531 C 11.035156 12.636719 11.113281 12.742188 11.179688 12.617188 C 11.183594 12.605469 11.203125 12.574219 11.210938 12.554688 L 11.222656 12.550781 C 11.234375 12.554688 11.253906 12.566406 11.265625 12.5625 C 11.277344 12.546875 11.296875 12.542969 11.3125 12.539062 L 11.335938 12.546875 C 11.460938 12.519531 11.429688 12.472656 11.5 12.421875 C 11.519531 12.410156 11.578125 12.402344 11.601562 12.394531 C 11.628906 12.40625 11.667969 12.449219 11.71875 12.46875 C 11.753906 12.480469 11.878906 12.507812 11.898438 12.519531 C 11.925781 12.535156 11.929688 12.570312 11.953125 12.582031 C 12.027344 12.621094 11.984375 12.558594 12.054688 12.570312 C 12.121094 12.585938 12.179688 12.640625 12.246094 12.667969 C 12.253906 12.671875 12.28125 12.667969 12.296875 12.664062 C 12.316406 12.660156 12.425781 12.640625 12.4375 12.644531 C 12.449219 12.648438 12.46875 12.660156 12.480469 12.664062 C 12.496094 12.667969 12.511719 12.632812 12.523438 12.632812 C 12.570312 12.640625 12.570312 12.660156 12.632812 12.65625 C 12.636719 12.65625 12.667969 12.476562 12.695312 12.46875 C 12.714844 12.464844 12.761719 12.511719 12.777344 12.511719 C 12.800781 12.519531 12.773438 12.476562 12.773438 12.472656 C 12.765625 12.457031 12.734375 12.347656 12.734375 12.339844 C 12.738281 12.332031 12.765625 12.347656 12.78125 12.34375 C 12.816406 12.332031 12.863281 12.324219 12.890625 12.296875 C 12.890625 12.292969 12.945312 12.214844 12.949219 12.210938 C 12.949219 12.199219 12.933594 12.167969 12.941406 12.160156 C 12.949219 12.148438 12.980469 12.136719 12.992188 12.125 C 13.015625 12.101562 13.015625 12.066406 13.046875 12.054688 C 13.15625 12.042969 13.199219 11.957031 13.300781 11.945312 C 13.304688 11.945312 13.328125 11.941406 13.332031 11.941406 L 13.351562 11.976562 C 13.359375 11.984375 13.425781 12.023438 13.4375 12.019531 C 13.449219 12.019531 13.453125 12.003906 13.460938 12 C 13.484375 12.003906 13.539062 11.96875 13.546875 11.953125 C 13.546875 11.949219 13.535156 11.929688 13.539062 11.917969 C 13.542969 11.910156 13.617188 11.859375 13.625 11.851562 C 13.652344 11.851562 13.679688 11.847656 13.703125 11.855469 C 13.71875 11.859375 13.71875 11.882812 13.734375 11.886719 C 13.75 11.886719 13.785156 11.878906 13.796875 11.882812 C 13.808594 11.886719 13.816406 11.855469 13.835938 11.855469 Z M 13.835938 11.859375 "/>
<path style=" stroke:none;fill-rule:nonzero;fill:rgb(100%,100%,100%);fill-opacity:1;" d="M 19.242188 3.574219 L 20.125 6.289062 L 17.816406 4.613281 L 20.667969 4.613281 L 18.363281 6.289062 Z M 19.242188 3.574219 "/>
<path style=" stroke:none;fill-rule:nonzero;fill:rgb(100%,100%,100%);fill-opacity:1;" d="M 22.675781 4.179688 L 23.558594 6.894531 L 21.25 5.21875 L 24.101562 5.21875 L 21.792969 6.894531 Z M 22.675781 4.179688 "/>
<path style=" stroke:none;fill-rule:nonzero;fill:rgb(100%,100%,100%);fill-opacity:1;" d="M 25.953125 5.375 L 26.835938 8.085938 L 24.527344 6.410156 L 27.378906 6.410156 L 25.070312 8.085938 Z M 25.953125 5.375 "/>
<path style=" stroke:none;fill-rule:nonzero;fill:rgb(100%,100%,100%);fill-opacity:1;" d="M 15.757812 3.574219 L 14.875 6.289062 L 17.183594 4.613281 L 14.332031 4.613281 L 16.636719 6.289062 Z M 15.757812 3.574219 "/>
<path style=" stroke:none;fill-rule:nonzero;fill:rgb(100%,100%,100%);fill-opacity:1;" d="M 12.324219 4.179688 L 11.441406 6.894531 L 13.75 5.21875 L 10.898438 5.21875 L 13.207031 6.894531 Z M 12.324219 4.179688 "/>
<path style=" stroke:none;fill-rule:nonzero;fill:rgb(100%,100%,100%);fill-opacity:1;" d="M 9.046875 5.375 L 8.164062 8.085938 L 10.472656 6.410156 L 7.621094 6.410156 L 9.929688 8.085938 Z M 9.046875 5.375 "/>
</g>
</svg>
