<?xml version="1.0" encoding="UTF-8"?>
<svg xmlns="http://www.w3.org/2000/svg" xmlns:xlink="http://www.w3.org/1999/xlink" width="42pt" height="25pt" viewBox="0 0 42 25" version="1.1">
<defs>
<clipPath id="clip1">
  <path d="M 17 9 L 26 9 L 26 16 L 17 16 Z M 17 9 "/>
</clipPath>
<clipPath id="clip2">
  <path d="M 25.199219 12.5 C 25.199219 14.800781 23.320312 16.667969 21 16.667969 C 18.679688 16.667969 16.800781 14.800781 16.800781 12.5 C 16.800781 10.199219 18.679688 8.332031 21 8.332031 C 23.320312 8.332031 25.199219 10.199219 25.199219 12.5 Z M 25.199219 12.5 "/>
</clipPath>
<clipPath id="clip3">
  <path d="M 18 9 L 26 9 L 26 16 L 18 16 Z M 18 9 "/>
</clipPath>
<clipPath id="clip4">
  <path d="M 25.199219 12.5 C 25.199219 14.800781 23.320312 16.667969 21 16.667969 C 18.679688 16.667969 16.800781 14.800781 16.800781 12.5 C 16.800781 10.199219 18.679688 8.332031 21 8.332031 C 23.320312 8.332031 25.199219 10.199219 25.199219 12.5 Z M 25.199219 12.5 "/>
</clipPath>
<clipPath id="clip5">
  <path d="M 18 9 L 25 9 L 25 17 L 18 17 Z M 18 9 "/>
</clipPath>
<clipPath id="clip6">
  <path d="M 25.199219 12.5 C 25.199219 14.800781 23.320312 16.667969 21 16.667969 C 18.679688 16.667969 16.800781 14.800781 16.800781 12.5 C 16.800781 10.199219 18.679688 8.332031 21 8.332031 C 23.320312 8.332031 25.199219 10.199219 25.199219 12.5 Z M 25.199219 12.5 "/>
</clipPath>
<clipPath id="clip7">
  <path d="M 16 9 L 25 9 L 25 16 L 16 16 Z M 16 9 "/>
</clipPath>
<clipPath id="clip8">
  <path d="M 16.800781 12.5 C 16.800781 14.800781 18.679688 16.667969 21 16.667969 C 23.320312 16.667969 25.199219 14.800781 25.199219 12.5 C 25.199219 10.199219 23.320312 8.332031 21 8.332031 C 18.679688 8.332031 16.800781 10.199219 16.800781 12.5 Z M 16.800781 12.5 "/>
</clipPath>
<clipPath id="clip9">
  <path d="M 16 9 L 24 9 L 24 16 L 16 16 Z M 16 9 "/>
</clipPath>
<clipPath id="clip10">
  <path d="M 16.800781 12.5 C 16.800781 14.800781 18.679688 16.667969 21 16.667969 C 23.320312 16.667969 25.199219 14.800781 25.199219 12.5 C 25.199219 10.199219 23.320312 8.332031 21 8.332031 C 18.679688 8.332031 16.800781 10.199219 16.800781 12.5 Z M 16.800781 12.5 "/>
</clipPath>
<clipPath id="clip11">
  <path d="M 17 9 L 24 9 L 24 17 L 17 17 Z M 17 9 "/>
</clipPath>
<clipPath id="clip12">
  <path d="M 16.800781 12.5 C 16.800781 14.800781 18.679688 16.667969 21 16.667969 C 23.320312 16.667969 25.199219 14.800781 25.199219 12.5 C 25.199219 10.199219 23.320312 8.332031 21 8.332031 C 18.679688 8.332031 16.800781 10.199219 16.800781 12.5 Z M 16.800781 12.5 "/>
</clipPath>
</defs>
<g id="surface1">
<rect x="0" y="0" width="42" height="25" style="fill:rgb(90.980392%,6.666667%,17.647059%);fill-opacity:1;stroke:none;"/>
<path style=" stroke:none;fill-rule:nonzero;fill:rgb(100%,93.72549%,0%);fill-opacity:1;" d="M 20.648438 17 C 21 17.917969 20.242188 19.332031 21 20 C 20.746094 19 21.589844 17.917969 21.351562 17 C 21.117188 16.082031 20.292969 16.082031 20.648438 17 Z M 20.648438 17 "/>
<path style=" stroke:none;fill-rule:nonzero;fill:rgb(100%,93.72549%,0%);fill-opacity:1;" d="M 16.464844 12.148438 C 15.539062 12.5 14.113281 11.75 13.441406 12.5 C 14.449219 12.25 15.539062 13.082031 16.464844 12.851562 C 17.386719 12.617188 17.386719 11.800781 16.464844 12.148438 Z M 16.464844 12.148438 "/>
<path style=" stroke:none;fill-rule:nonzero;fill:rgb(100%,93.72549%,0%);fill-opacity:1;" d="M 21.351562 8 C 21 7.082031 21.757812 5.667969 21 5 C 21.253906 6 20.410156 7.082031 20.648438 8 C 20.882812 8.917969 21.707031 8.917969 21.351562 8 Z M 21.351562 8 "/>
<path style=" stroke:none;fill-rule:nonzero;fill:rgb(100%,93.72549%,0%);fill-opacity:1;" d="M 25.535156 12.851562 C 26.460938 12.5 27.886719 13.25 28.558594 12.5 C 27.550781 12.75 26.460938 11.917969 25.535156 12.148438 C 24.613281 12.382812 24.613281 13.199219 25.535156 12.851562 Z M 25.535156 12.851562 "/>
<path style=" stroke:none;fill-rule:nonzero;fill:rgb(100%,93.72549%,0%);fill-opacity:1;" d="M 19.261719 16.671875 C 19.3125 17.652344 18.152344 18.765625 18.664062 19.632812 C 18.734375 18.605469 19.871094 17.832031 19.933594 16.886719 C 19.996094 15.945312 19.210938 15.691406 19.261719 16.671875 Z M 19.261719 16.671875 "/>
<path style=" stroke:none;fill-rule:nonzero;fill:rgb(100%,93.72549%,0%);fill-opacity:1;" d="M 16.796875 10.777344 C 15.808594 10.824219 14.683594 9.675781 13.808594 10.183594 C 14.847656 10.253906 15.625 11.382812 16.578125 11.441406 C 17.527344 11.503906 17.78125 10.726562 16.796875 10.777344 Z M 16.796875 10.777344 "/>
<path style=" stroke:none;fill-rule:nonzero;fill:rgb(100%,93.72549%,0%);fill-opacity:1;" d="M 22.738281 8.328125 C 22.6875 7.347656 23.847656 6.234375 23.335938 5.367188 C 23.265625 6.394531 22.128906 7.167969 22.066406 8.113281 C 22.003906 9.054688 22.789062 9.308594 22.738281 8.328125 Z M 22.738281 8.328125 "/>
<path style=" stroke:none;fill-rule:nonzero;fill:rgb(100%,93.72549%,0%);fill-opacity:1;" d="M 25.203125 14.222656 C 26.191406 14.175781 27.316406 15.324219 28.191406 14.816406 C 27.152344 14.746094 26.375 13.617188 25.421875 13.558594 C 24.472656 13.496094 24.21875 14.273438 25.203125 14.222656 Z M 25.203125 14.222656 "/>
<path style=" stroke:none;fill-rule:nonzero;fill:rgb(100%,93.72549%,0%);fill-opacity:1;" d="M 18.046875 15.933594 C 17.789062 16.882812 16.339844 17.585938 16.554688 18.566406 C 16.945312 17.613281 18.265625 17.226562 18.621094 16.347656 C 18.972656 15.46875 18.304688 14.988281 18.046875 15.933594 Z M 18.046875 15.933594 "/>
<path style=" stroke:none;fill-rule:nonzero;fill:rgb(100%,93.72549%,0%);fill-opacity:1;" d="M 17.539062 9.570312 C 16.582031 9.316406 15.871094 7.875 14.882812 8.089844 C 15.847656 8.476562 16.238281 9.789062 17.121094 10.136719 C 18.007812 10.488281 18.492188 9.828125 17.539062 9.570312 Z M 17.539062 9.570312 "/>
<path style=" stroke:none;fill-rule:nonzero;fill:rgb(100%,93.72549%,0%);fill-opacity:1;" d="M 23.953125 9.066406 C 24.210938 8.117188 25.660156 7.414062 25.445312 6.433594 C 25.054688 7.386719 23.734375 7.773438 23.378906 8.652344 C 23.027344 9.53125 23.695312 10.011719 23.953125 9.066406 Z M 23.953125 9.066406 "/>
<path style=" stroke:none;fill-rule:nonzero;fill:rgb(100%,93.72549%,0%);fill-opacity:1;" d="M 24.460938 15.429688 C 25.417969 15.683594 26.128906 17.125 27.117188 16.910156 C 26.152344 16.523438 25.761719 15.210938 24.878906 14.863281 C 23.992188 14.511719 23.507812 15.171875 24.460938 15.429688 Z M 24.460938 15.429688 "/>
<path style=" stroke:none;fill-rule:nonzero;fill:rgb(100%,93.72549%,0%);fill-opacity:1;" d="M 17.121094 14.863281 C 16.582031 15.683594 14.984375 15.910156 14.882812 16.910156 C 15.550781 16.117188 16.929688 16.15625 17.539062 15.429688 C 18.148438 14.699219 17.664062 14.039062 17.121094 14.863281 Z M 17.121094 14.863281 "/>
<path style=" stroke:none;fill-rule:nonzero;fill:rgb(100%,93.72549%,0%);fill-opacity:1;" d="M 18.621094 8.652344 C 17.789062 8.117188 17.5625 6.53125 16.554688 6.433594 C 17.351562 7.09375 17.316406 8.460938 18.046875 9.066406 C 18.78125 9.667969 19.449219 9.191406 18.621094 8.652344 Z M 18.621094 8.652344 "/>
<path style=" stroke:none;fill-rule:nonzero;fill:rgb(100%,93.72549%,0%);fill-opacity:1;" d="M 24.878906 10.136719 C 25.417969 9.316406 27.015625 9.089844 27.117188 8.089844 C 26.449219 8.882812 25.070312 8.84375 24.460938 9.570312 C 23.851562 10.300781 24.335938 10.960938 24.878906 10.136719 Z M 24.878906 10.136719 "/>
<path style=" stroke:none;fill-rule:nonzero;fill:rgb(100%,93.72549%,0%);fill-opacity:1;" d="M 23.378906 16.347656 C 24.210938 16.882812 24.4375 18.46875 25.445312 18.566406 C 24.648438 17.90625 24.683594 16.539062 23.953125 15.933594 C 23.21875 15.332031 22.550781 15.808594 23.378906 16.347656 Z M 23.378906 16.347656 "/>
<path style=" stroke:none;fill-rule:nonzero;fill:rgb(100%,93.72549%,0%);fill-opacity:1;" d="M 16.578125 13.558594 C 15.808594 14.175781 14.214844 13.898438 13.808594 14.816406 C 14.691406 14.269531 15.988281 14.730469 16.796875 14.222656 C 17.601562 13.71875 17.347656 12.941406 16.578125 13.558594 Z M 16.578125 13.558594 "/>
<path style=" stroke:none;fill-rule:nonzero;fill:rgb(100%,93.72549%,0%);fill-opacity:1;" d="M 19.933594 8.113281 C 19.3125 7.347656 19.589844 5.769531 18.664062 5.367188 C 19.214844 6.242188 18.753906 7.527344 19.261719 8.328125 C 19.773438 9.128906 20.554688 8.875 19.933594 8.113281 Z M 19.933594 8.113281 "/>
<path style=" stroke:none;fill-rule:nonzero;fill:rgb(100%,93.72549%,0%);fill-opacity:1;" d="M 25.421875 11.441406 C 26.191406 10.824219 27.785156 11.101562 28.191406 10.183594 C 27.308594 10.730469 26.011719 10.269531 25.203125 10.777344 C 24.398438 11.28125 24.652344 12.058594 25.421875 11.441406 Z M 25.421875 11.441406 "/>
<path style=" stroke:none;fill-rule:nonzero;fill:rgb(100%,93.72549%,0%);fill-opacity:1;" d="M 22.066406 16.886719 C 22.6875 17.652344 22.410156 19.230469 23.335938 19.632812 C 22.785156 18.757812 23.246094 17.472656 22.738281 16.671875 C 22.226562 15.871094 21.445312 16.125 22.066406 16.886719 Z M 22.066406 16.886719 "/>
<path style=" stroke:none;fill-rule:nonzero;fill:rgb(100%,93.72549%,0%);fill-opacity:1;" d="M 19.941406 16.890625 C 20.144531 17.851562 19.175781 19.132812 19.816406 19.90625 C 19.726562 18.882812 20.726562 17.941406 20.640625 17 C 20.550781 16.058594 19.738281 15.929688 19.941406 16.890625 Z M 19.941406 16.890625 "/>
<path style=" stroke:none;fill-rule:nonzero;fill:rgb(100%,93.72549%,0%);fill-opacity:1;" d="M 16.574219 11.449219 C 15.605469 11.652344 14.316406 10.691406 13.53125 11.328125 C 14.566406 11.234375 15.515625 12.230469 16.464844 12.140625 C 17.414062 12.054688 17.542969 11.25 16.574219 11.449219 Z M 16.574219 11.449219 "/>
<path style=" stroke:none;fill-rule:nonzero;fill:rgb(100%,93.72549%,0%);fill-opacity:1;" d="M 22.058594 8.109375 C 21.855469 7.148438 22.824219 5.867188 22.183594 5.09375 C 22.273438 6.117188 21.273438 7.058594 21.359375 8 C 21.449219 8.941406 22.261719 9.070312 22.058594 8.109375 Z M 22.058594 8.109375 "/>
<path style=" stroke:none;fill-rule:nonzero;fill:rgb(100%,93.72549%,0%);fill-opacity:1;" d="M 25.425781 13.550781 C 26.394531 13.347656 27.683594 14.308594 28.46875 13.671875 C 27.433594 13.765625 26.484375 12.769531 25.535156 12.859375 C 24.585938 12.945312 24.457031 13.75 25.425781 13.550781 Z M 25.425781 13.550781 "/>
<path style=" stroke:none;fill-rule:nonzero;fill:rgb(100%,93.72549%,0%);fill-opacity:1;" d="M 18.625 16.351562 C 18.519531 17.328125 17.199219 18.25 17.566406 19.183594 C 17.800781 18.179688 19.046875 17.589844 19.253906 16.667969 C 19.464844 15.746094 18.730469 15.375 18.625 16.351562 Z M 18.625 16.351562 "/>
<path style=" stroke:none;fill-rule:nonzero;fill:rgb(100%,93.72549%,0%);fill-opacity:1;" d="M 17.117188 10.144531 C 16.136719 10.039062 15.207031 8.730469 14.265625 9.09375 C 15.277344 9.328125 15.867188 10.5625 16.796875 10.769531 C 17.726562 10.976562 18.101562 10.25 17.117188 10.144531 Z M 17.117188 10.144531 "/>
<path style=" stroke:none;fill-rule:nonzero;fill:rgb(100%,93.72549%,0%);fill-opacity:1;" d="M 23.375 8.648438 C 23.480469 7.671875 24.800781 6.75 24.433594 5.816406 C 24.199219 6.820312 22.953125 7.410156 22.746094 8.332031 C 22.535156 9.253906 23.269531 9.625 23.375 8.648438 Z M 23.375 8.648438 "/>
<path style=" stroke:none;fill-rule:nonzero;fill:rgb(100%,93.72549%,0%);fill-opacity:1;" d="M 24.882812 14.855469 C 25.863281 14.960938 26.792969 16.269531 27.734375 15.90625 C 26.722656 15.671875 26.132812 14.4375 25.203125 14.230469 C 24.273438 14.023438 23.898438 14.75 24.882812 14.855469 Z M 24.882812 14.855469 "/>
<path style=" stroke:none;fill-rule:nonzero;fill:rgb(100%,93.72549%,0%);fill-opacity:1;" d="M 17.542969 15.433594 C 17.140625 16.332031 15.59375 16.800781 15.652344 17.804688 C 16.1875 16.917969 17.554688 16.742188 18.042969 15.929688 C 18.527344 15.117188 17.945312 14.539062 17.542969 15.433594 Z M 17.542969 15.433594 "/>
<path style=" stroke:none;fill-rule:nonzero;fill:rgb(100%,93.72549%,0%);fill-opacity:1;" d="M 18.042969 9.070312 C 17.140625 8.667969 16.664062 7.136719 15.652344 7.195312 C 16.546875 7.726562 16.722656 9.082031 17.542969 9.566406 C 18.363281 10.046875 18.945312 9.472656 18.042969 9.070312 Z M 18.042969 9.070312 "/>
<path style=" stroke:none;fill-rule:nonzero;fill:rgb(100%,93.72549%,0%);fill-opacity:1;" d="M 24.457031 9.566406 C 24.859375 8.667969 26.40625 8.199219 26.347656 7.195312 C 25.8125 8.082031 24.445312 8.257812 23.957031 9.070312 C 23.472656 9.882812 24.054688 10.460938 24.457031 9.566406 Z M 24.457031 9.566406 "/>
<path style=" stroke:none;fill-rule:nonzero;fill:rgb(100%,93.72549%,0%);fill-opacity:1;" d="M 23.957031 15.929688 C 24.859375 16.332031 25.335938 17.863281 26.347656 17.804688 C 25.453125 17.273438 25.277344 15.917969 24.457031 15.433594 C 23.636719 14.953125 23.054688 15.527344 23.957031 15.929688 Z M 23.957031 15.929688 "/>
<path style=" stroke:none;fill-rule:nonzero;fill:rgb(100%,93.72549%,0%);fill-opacity:1;" d="M 16.796875 14.230469 C 16.136719 14.960938 14.519531 14.933594 14.265625 15.90625 C 15.046875 15.226562 16.402344 15.480469 17.117188 14.855469 C 17.835938 14.230469 17.460938 13.503906 16.796875 14.230469 Z M 16.796875 14.230469 "/>
<path style=" stroke:none;fill-rule:nonzero;fill:rgb(100%,93.72549%,0%);fill-opacity:1;" d="M 19.253906 8.332031 C 18.519531 7.671875 18.546875 6.070312 17.566406 5.816406 C 18.25 6.59375 17.996094 7.9375 18.625 8.648438 C 19.253906 9.359375 19.988281 8.988281 19.253906 8.332031 Z M 19.253906 8.332031 "/>
<path style=" stroke:none;fill-rule:nonzero;fill:rgb(100%,93.72549%,0%);fill-opacity:1;" d="M 25.203125 10.769531 C 25.863281 10.039062 27.480469 10.066406 27.734375 9.09375 C 26.953125 9.773438 25.597656 9.519531 24.882812 10.144531 C 24.164062 10.769531 24.539062 11.496094 25.203125 10.769531 Z M 25.203125 10.769531 "/>
<path style=" stroke:none;fill-rule:nonzero;fill:rgb(100%,93.72549%,0%);fill-opacity:1;" d="M 22.746094 16.667969 C 23.480469 17.328125 23.453125 18.929688 24.433594 19.183594 C 23.75 18.40625 24.003906 17.0625 23.375 16.351562 C 22.746094 15.640625 22.011719 16.011719 22.746094 16.667969 Z M 22.746094 16.667969 "/>
<path style=" stroke:none;fill-rule:nonzero;fill:rgb(100%,93.72549%,0%);fill-opacity:1;" d="M 16.464844 12.859375 C 15.605469 13.347656 14.078125 12.828125 13.53125 13.671875 C 14.488281 13.269531 15.699219 13.921875 16.574219 13.550781 C 17.449219 13.175781 17.320312 12.371094 16.464844 12.859375 Z M 16.464844 12.859375 "/>
<path style=" stroke:none;fill-rule:nonzero;fill:rgb(100%,93.72549%,0%);fill-opacity:1;" d="M 20.640625 8 C 20.144531 7.148438 20.667969 5.632812 19.816406 5.09375 C 20.222656 6.039062 19.566406 7.242188 19.941406 8.109375 C 20.320312 8.980469 21.132812 8.851562 20.640625 8 Z M 20.640625 8 "/>
<path style=" stroke:none;fill-rule:nonzero;fill:rgb(100%,93.72549%,0%);fill-opacity:1;" d="M 25.535156 12.140625 C 26.394531 11.652344 27.921875 12.171875 28.46875 11.328125 C 27.511719 11.730469 26.300781 11.078125 25.425781 11.449219 C 24.550781 11.824219 24.679688 12.628906 25.535156 12.140625 Z M 25.535156 12.140625 "/>
<path style=" stroke:none;fill-rule:nonzero;fill:rgb(100%,93.72549%,0%);fill-opacity:1;" d="M 21.359375 17 C 21.855469 17.851562 21.332031 19.367188 22.183594 19.90625 C 21.777344 18.960938 22.433594 17.757812 22.058594 16.890625 C 21.679688 16.019531 20.867188 16.148438 21.359375 17 Z M 21.359375 17 "/>
<path style=" stroke:none;fill-rule:nonzero;fill:rgb(90.980392%,6.666667%,17.647059%);fill-opacity:1;" d="M 25.535156 12.5 C 25.535156 14.984375 23.503906 17 21 17 C 18.496094 17 16.464844 14.984375 16.464844 12.5 C 16.464844 10.015625 18.496094 8 21 8 C 23.503906 8 25.535156 10.015625 25.535156 12.5 Z M 25.535156 12.5 "/>
<path style=" stroke:none;fill-rule:nonzero;fill:rgb(100%,93.72549%,0%);fill-opacity:1;" d="M 24.78125 12.25 C 24.78125 14.320312 23.085938 16 21 16 C 18.914062 16 17.21875 14.320312 17.21875 12.25 C 17.21875 10.179688 18.914062 8.5 21 8.5 C 23.085938 8.5 24.78125 10.179688 24.78125 12.25 Z M 24.78125 12.25 "/>
<g clip-path="url(#clip1)" clip-rule="nonzero">
<g clip-path="url(#clip2)" clip-rule="nonzero">
<path style=" stroke:none;fill-rule:nonzero;fill:rgb(90.980392%,6.666667%,17.647059%);fill-opacity:1;" d="M 17.125 15.5 C 17.125 12.023438 19.964844 9.207031 23.46875 9.207031 C 26.972656 9.207031 29.8125 12.023438 29.8125 15.5 L 29.863281 15.5 C 29.863281 12.164062 27.136719 9.457031 23.773438 9.457031 C 20.40625 9.457031 17.679688 12.164062 17.679688 15.5 Z M 17.125 15.5 "/>
</g>
</g>
<g clip-path="url(#clip3)" clip-rule="nonzero">
<g clip-path="url(#clip4)" clip-rule="nonzero">
<path style=" stroke:none;fill-rule:nonzero;fill:rgb(90.980392%,6.666667%,17.647059%);fill-opacity:1;" d="M 18.042969 15.5 C 18.042969 12.25 20.699219 9.617188 23.972656 9.617188 C 27.25 9.617188 29.902344 12.25 29.902344 15.5 L 29.976562 15.5 C 29.976562 12.378906 27.421875 9.847656 24.277344 9.847656 C 21.128906 9.847656 18.578125 12.378906 18.578125 15.5 Z M 18.042969 15.5 "/>
</g>
</g>
<g clip-path="url(#clip5)" clip-rule="nonzero">
<g clip-path="url(#clip6)" clip-rule="nonzero">
<path style=" stroke:none;fill-rule:nonzero;fill:rgb(90.980392%,6.666667%,17.647059%);fill-opacity:1;" d="M 24.476562 9.992188 C 21.410156 9.992188 18.925781 12.457031 18.925781 15.5 C 18.925781 18.542969 21.410156 21.007812 24.476562 21.007812 L 24.78125 20.804688 C 21.828125 20.804688 19.433594 18.429688 19.433594 15.5 C 19.433594 12.570312 21.828125 10.195312 24.78125 10.195312 Z M 24.476562 9.992188 "/>
</g>
</g>
<g clip-path="url(#clip7)" clip-rule="nonzero">
<g clip-path="url(#clip8)" clip-rule="nonzero">
<path style=" stroke:none;fill-rule:nonzero;fill:rgb(90.980392%,6.666667%,17.647059%);fill-opacity:1;" d="M 24.875 15.5 C 24.875 12.023438 22.035156 9.207031 18.53125 9.207031 C 15.027344 9.207031 12.1875 12.023438 12.1875 15.5 L 12.136719 15.5 C 12.136719 12.164062 14.863281 9.457031 18.226562 9.457031 C 21.59375 9.457031 24.320312 12.164062 24.320312 15.5 Z M 24.875 15.5 "/>
</g>
</g>
<g clip-path="url(#clip9)" clip-rule="nonzero">
<g clip-path="url(#clip10)" clip-rule="nonzero">
<path style=" stroke:none;fill-rule:nonzero;fill:rgb(90.980392%,6.666667%,17.647059%);fill-opacity:1;" d="M 23.957031 15.5 C 23.957031 12.25 21.300781 9.617188 18.027344 9.617188 C 14.75 9.617188 12.097656 12.25 12.097656 15.5 L 12.023438 15.5 C 12.023438 12.378906 14.578125 9.847656 17.722656 9.847656 C 20.871094 9.847656 23.421875 12.378906 23.421875 15.5 Z M 23.957031 15.5 "/>
</g>
</g>
<g clip-path="url(#clip11)" clip-rule="nonzero">
<g clip-path="url(#clip12)" clip-rule="nonzero">
<path style=" stroke:none;fill-rule:nonzero;fill:rgb(90.980392%,6.666667%,17.647059%);fill-opacity:1;" d="M 17.523438 9.992188 C 20.589844 9.992188 23.074219 12.457031 23.074219 15.5 C 23.074219 18.542969 20.589844 21.007812 17.523438 21.007812 L 17.21875 20.804688 C 20.171875 20.804688 22.566406 18.429688 22.566406 15.5 C 22.566406 12.570312 20.171875 10.195312 17.21875 10.195312 Z M 17.523438 9.992188 "/>
</g>
</g>
</g>
</svg>
