<?xml version="1.0" encoding="UTF-8"?>
<svg xmlns="http://www.w3.org/2000/svg" xmlns:xlink="http://www.w3.org/1999/xlink" width="38pt" height="25pt" viewBox="0 0 38 25" version="1.1">
<g id="surface1">
<rect x="0" y="0" width="38" height="25" style="fill:rgb(92.941176%,10.980392%,14.117647%);fill-opacity:1;stroke:none;"/>
<path style=" stroke:none;fill-rule:nonzero;fill:rgb(100%,100%,100%);fill-opacity:1;" d="M 0 6.25 L 38 6.25 L 38 18.75 L 0 18.75 Z M 0 6.25 "/>
<path style=" stroke:none;fill-rule:nonzero;fill:rgb(0%,65.098039%,31.764706%);fill-opacity:1;" d="M 18.828125 6.25 C 18.554688 6.816406 18.042969 7.210938 17.554688 7.582031 C 17.472656 7.652344 17.273438 7.789062 17.417969 7.890625 C 17.542969 7.753906 17.882812 7.933594 17.6875 8.082031 C 17.507812 8.246094 17.261719 8.304688 17.066406 8.441406 C 16.890625 8.535156 16.714844 8.632812 16.574219 8.777344 C 16.566406 9 16.855469 8.875 16.976562 8.96875 C 17.128906 9.132812 16.910156 9.40625 16.707031 9.34375 C 16.449219 9.351562 16.269531 9.574219 16.171875 9.789062 C 15.972656 10.097656 15.589844 10.1875 15.285156 10.363281 C 15.109375 10.464844 14.941406 10.574219 14.777344 10.691406 C 14.570312 10.835938 14.75 11.113281 14.972656 11.046875 C 15.214844 11.019531 15.429688 10.835938 15.679688 10.886719 C 15.90625 10.96875 15.96875 11.257812 15.890625 11.460938 C 15.835938 11.625 15.695312 11.738281 15.585938 11.867188 C 15.40625 12.046875 15.171875 12.160156 14.921875 12.21875 C 14.683594 12.296875 14.46875 12.441406 14.3125 12.636719 C 14.128906 12.816406 13.949219 13 13.738281 13.152344 C 13.671875 13.320312 13.859375 13.460938 14.015625 13.457031 C 14.34375 13.4375 14.570312 13.171875 14.851562 13.035156 C 15.082031 12.933594 15.355469 13.179688 15.296875 13.417969 C 15.28125 13.648438 15.058594 13.765625 14.863281 13.839844 C 14.289062 14.125 13.789062 14.535156 13.347656 14.992188 C 13.253906 15.175781 13.003906 15.125 12.867188 15.25 C 12.78125 15.414062 13 15.5 13.132812 15.484375 C 13.703125 15.417969 14.234375 15.179688 14.734375 14.917969 C 14.921875 14.828125 15.097656 14.714844 15.292969 14.644531 C 15.476562 14.597656 15.730469 14.675781 15.761719 14.882812 C 15.761719 15.097656 15.546875 15.21875 15.371094 15.304688 C 14.84375 15.578125 14.257812 15.730469 13.691406 15.914062 C 13.480469 15.855469 13.320312 16.226562 13.554688 16.292969 C 13.800781 16.378906 14.0625 16.308594 14.3125 16.300781 C 15.09375 16.179688 15.773438 15.765625 16.503906 15.496094 C 16.804688 15.398438 17.164062 15.535156 17.3125 15.816406 C 17.460938 16.066406 17.449219 16.394531 17.289062 16.636719 C 17.039062 17.164062 16.660156 17.648438 16.148438 17.953125 C 15.828125 18.109375 15.453125 18.167969 15.179688 18.410156 C 14.925781 18.492188 15.304688 18.832031 15.359375 18.5625 C 15.515625 18.355469 15.785156 18.296875 16.027344 18.285156 C 16.394531 18.246094 16.785156 18.179688 17.070312 17.929688 C 17.324219 17.734375 17.578125 17.464844 17.925781 17.457031 C 18.117188 17.480469 18.308594 17.632812 18.503906 17.539062 C 18.671875 17.464844 18.941406 17.507812 18.984375 17.714844 C 19.066406 17.957031 19.320312 18.066406 19.519531 18.199219 C 19.59375 18.296875 19.832031 18.558594 19.890625 18.328125 C 19.84375 18.164062 19.90625 17.917969 20.125 17.96875 C 20.3125 17.980469 20.496094 18.046875 20.683594 18.058594 C 20.9375 18.109375 21.144531 18.28125 21.289062 18.484375 C 21.386719 18.621094 21.601562 18.851562 21.761719 18.671875 C 21.863281 18.488281 21.671875 18.335938 21.519531 18.269531 C 21.292969 18.132812 21.101562 17.949219 20.902344 17.777344 C 20.613281 17.507812 20.363281 17.167969 20.316406 16.769531 C 20.253906 16.371094 20.289062 15.964844 20.339844 15.566406 C 20.40625 15.3125 20.738281 15.171875 20.96875 15.308594 C 21.296875 15.453125 21.617188 15.664062 21.992188 15.640625 C 22.53125 15.652344 23.085938 15.550781 23.613281 15.707031 C 24.128906 15.867188 24.496094 16.292969 24.996094 16.476562 C 25.109375 16.546875 25.25 16.480469 25.292969 16.363281 C 25.339844 16.257812 25.304688 16.121094 25.203125 16.0625 C 24.625 15.484375 23.832031 15.203125 23.160156 14.753906 C 22.949219 14.699219 22.910156 14.363281 23.105469 14.265625 C 23.363281 14.082031 23.726562 14.167969 23.953125 14.359375 C 24.144531 14.46875 24.363281 14.554688 24.589844 14.554688 C 24.820312 14.480469 24.707031 14.152344 24.5 14.125 C 24.125 13.917969 23.855469 13.574219 23.53125 13.304688 C 23.34375 13.148438 23.140625 12.988281 22.890625 12.957031 C 22.75 12.933594 22.609375 12.929688 22.472656 12.9375 C 22.339844 12.796875 22.515625 12.582031 22.683594 12.601562 C 22.855469 12.613281 23.03125 12.625 23.203125 12.601562 C 23.394531 12.585938 23.589844 12.566406 23.78125 12.566406 C 23.941406 12.671875 24.253906 12.488281 24.109375 12.308594 C 23.957031 12.175781 23.734375 12.1875 23.550781 12.117188 C 23.226562 12.011719 22.894531 11.929688 22.5625 11.863281 C 22.328125 11.847656 22.355469 11.542969 22.5625 11.511719 C 22.695312 11.460938 22.8125 11.5625 22.941406 11.578125 C 23.164062 11.625 23.390625 11.625 23.609375 11.671875 C 23.796875 11.582031 23.652344 11.3125 23.484375 11.296875 C 23.085938 11.15625 22.742188 10.902344 22.402344 10.65625 C 22.03125 10.378906 21.695312 10.0625 21.320312 9.792969 C 21.183594 9.707031 20.957031 9.683594 20.921875 9.5 C 20.910156 9.328125 21.113281 9.25 21.257812 9.289062 C 21.460938 9.351562 21.652344 9.453125 21.859375 9.503906 C 22.023438 9.53125 22.191406 9.578125 22.347656 9.558594 C 22.546875 9.4375 22.261719 9.355469 22.160156 9.3125 C 21.894531 9.171875 21.65625 8.984375 21.417969 8.804688 C 21.214844 8.632812 21.589844 8.558594 21.71875 8.621094 C 21.933594 8.710938 21.957031 8.402344 21.796875 8.324219 C 21.605469 8.246094 21.441406 8.113281 21.269531 7.996094 C 20.960938 7.777344 20.609375 7.605469 20.226562 7.558594 C 19.796875 7.515625 19.398438 7.273438 19.171875 6.910156 C 19.03125 6.703125 18.925781 6.476562 18.828125 6.25 Z M 17.421875 8.621094 C 17.640625 8.628906 17.609375 9.019531 17.390625 8.992188 C 17.179688 8.980469 17.191406 8.578125 17.421875 8.621094 Z M 19.503906 8.832031 C 19.71875 8.792969 19.761719 9.179688 19.546875 9.199219 C 19.324219 9.238281 19.242188 8.808594 19.503906 8.832031 Z M 18.894531 8.882812 C 19.109375 8.925781 19.070312 9.300781 18.851562 9.300781 C 18.691406 9.335938 18.519531 9.445312 18.355469 9.363281 C 18.222656 9.226562 18.414062 9.023438 18.5625 8.976562 C 18.675781 8.957031 18.78125 8.90625 18.894531 8.882812 Z M 20.296875 8.882812 C 20.507812 8.960938 20.433594 9.324219 20.210938 9.320312 C 20 9.347656 19.902344 9.003906 20.097656 8.921875 C 20.164062 8.898438 20.230469 8.882812 20.296875 8.882812 Z M 17.929688 9.300781 C 18.082031 9.445312 17.992188 9.722656 17.800781 9.789062 C 17.664062 9.867188 17.476562 10.042969 17.328125 9.898438 C 17.246094 9.71875 17.449219 9.582031 17.570312 9.484375 C 17.675781 9.402344 17.796875 9.328125 17.929688 9.300781 Z M 19.691406 10.105469 C 19.910156 10.210938 19.800781 10.601562 19.558594 10.578125 C 19.359375 10.527344 19.382812 10.191406 19.585938 10.164062 C 19.621094 10.152344 19.65625 10.128906 19.691406 10.105469 Z M 18.988281 10.144531 C 19.195312 10.242188 19.039062 10.582031 18.832031 10.53125 C 18.613281 10.507812 18.617188 10.132812 18.855469 10.167969 C 18.902344 10.164062 18.949219 10.164062 18.988281 10.144531 Z M 20.5 10.339844 C 20.726562 10.273438 21 10.503906 20.925781 10.734375 C 20.824219 10.917969 20.578125 10.941406 20.398438 10.871094 C 20.191406 10.863281 20.054688 10.558594 20.238281 10.429688 C 20.3125 10.371094 20.40625 10.347656 20.5 10.339844 Z M 17.15625 10.398438 C 17.34375 10.300781 17.542969 10.601562 17.382812 10.734375 C 17.277344 10.886719 17.007812 10.949219 16.886719 10.78125 C 16.789062 10.613281 16.949219 10.335938 17.15625 10.398438 Z M 16.292969 10.542969 C 16.503906 10.570312 16.644531 10.761719 16.722656 10.941406 C 16.742188 11.164062 16.410156 11.285156 16.265625 11.125 C 16.105469 11.023438 15.960938 10.816406 16.046875 10.625 C 16.101562 10.550781 16.203125 10.519531 16.292969 10.542969 Z M 21.460938 11.339844 C 21.691406 11.28125 21.859375 11.644531 21.660156 11.777344 C 21.480469 11.9375 21.128906 11.722656 21.222656 11.492188 C 21.269531 11.40625 21.363281 11.347656 21.460938 11.339844 Z M 18.527344 11.757812 C 18.71875 11.78125 18.65625 12.109375 18.480469 12.101562 C 18.285156 12.066406 18.332031 11.738281 18.527344 11.757812 Z M 17.546875 11.933594 C 17.703125 11.820312 17.90625 12.089844 17.777344 12.214844 C 17.617188 12.324219 17.414062 12.058594 17.546875 11.933594 Z M 19.105469 11.964844 C 19.289062 12.074219 19.394531 12.277344 19.417969 12.484375 C 19.332031 12.675781 18.992188 12.628906 18.957031 12.425781 C 18.886719 12.261719 18.949219 12.054688 19.105469 11.964844 Z M 19.648438 12.28125 C 19.882812 12.222656 19.800781 12.710938 19.605469 12.542969 C 19.539062 12.464844 19.574219 12.339844 19.648438 12.28125 Z M 16.234375 12.621094 C 16.386719 12.574219 16.617188 12.625 16.660156 12.800781 C 16.675781 12.964844 16.492188 13.050781 16.355469 13.09375 C 16.140625 13.160156 15.925781 13.269531 15.695312 13.253906 C 15.519531 13.15625 15.457031 12.953125 15.394531 12.777344 C 15.5625 12.621094 15.8125 12.667969 16.019531 12.625 C 16.089844 12.625 16.160156 12.621094 16.234375 12.621094 Z M 21.53125 13.382812 C 21.730469 13.285156 21.945312 13.597656 21.777344 13.742188 C 21.570312 13.980469 21.167969 14.023438 20.921875 13.824219 C 20.890625 13.617188 21.101562 13.464844 21.289062 13.433594 C 21.371094 13.410156 21.449219 13.378906 21.53125 13.382812 Z M 22.648438 13.621094 C 22.875 13.582031 23.054688 13.902344 22.894531 14.066406 C 22.738281 14.292969 22.375 14.351562 22.167969 14.167969 C 22.085938 13.976562 22.25 13.78125 22.425781 13.722656 C 22.5 13.6875 22.574219 13.648438 22.648438 13.621094 Z M 17.027344 13.960938 C 17.238281 13.9375 17.429688 14.144531 17.402344 14.347656 C 17.554688 14.496094 17.285156 14.769531 17.136719 14.617188 C 17.003906 14.457031 17.003906 14.242188 16.953125 14.050781 C 16.949219 14.007812 16.980469 13.953125 17.027344 13.960938 Z M 18.636719 14.078125 C 18.851562 13.984375 19.132812 14.242188 19.015625 14.457031 C 18.929688 14.632812 18.601562 14.574219 18.613281 14.371094 C 18.613281 14.273438 18.605469 14.171875 18.636719 14.078125 Z M 17.855469 14.214844 C 18.070312 14.167969 18.269531 14.445312 18.148438 14.628906 C 17.933594 14.648438 17.820312 14.394531 17.855469 14.214844 Z M 17.855469 14.214844 "/>
</g>
</svg>
