<?xml version="1.0" encoding="UTF-8"?>
<svg xmlns="http://www.w3.org/2000/svg" xmlns:xlink="http://www.w3.org/1999/xlink" width="38pt" height="25pt" viewBox="0 0 38 25" version="1.1">
<g id="surface1">
<rect x="0" y="0" width="38" height="25" style="fill:rgb(0%,58.431373%,26.27451%);fill-opacity:1;stroke:none;"/>
<path style=" stroke:none;fill-rule:nonzero;fill:rgb(100%,100%,100%);fill-opacity:1;" d="M 0 0 L 38 0 L 38 17.5 L 0 17.5 Z M 0 0 "/>
<path style=" stroke:none;fill-rule:nonzero;fill:rgb(0%,12.54902%,62.352941%);fill-opacity:1;" d="M 0 0 L 38 0 L 38 7.5 L 0 7.5 Z M 0 0 "/>
<path style="fill-rule:nonzero;fill:rgb(0%,0%,0%);fill-opacity:1;stroke-width:1;stroke-linecap:butt;stroke-linejoin:miter;stroke:rgb(0%,0%,0%);stroke-opacity:1;stroke-miterlimit:4;" d="M 224.768709 95.578125 C 223.057155 95.625 221.391859 97.5 221.391859 97.5 L 221.530633 117.75 L 215.146998 124.40625 L 220.327919 124.40625 L 220.281661 136.03125 L 189.658717 177.234375 L 185.171669 175.640625 L 177.261513 192.515625 C 177.261513 192.515625 196.782484 204.75 225.185033 204.421875 C 256.316817 204.046875 273.247327 191.953125 273.247327 191.953125 L 265.059622 175.3125 L 261.081414 177.046875 L 230.088405 136.078125 L 230.042146 124.125 L 235.223067 124.125 L 228.191817 117.515625 L 228.238076 97.359375 C 228.238076 97.359375 226.480263 95.53125 224.768709 95.578125 Z M 224.768709 95.578125 " transform="matrix(0.0844444,0,0,0.0833333,0,0)"/>
<path style="fill:none;stroke-width:5;stroke-linecap:butt;stroke-linejoin:miter;stroke:rgb(0%,0%,0%);stroke-opacity:1;stroke-miterlimit:4;" d="M 235.4081 144 L 214.268092 144 C 214.268092 144 206.589227 127.828125 207.838199 116.53125 C 209.133429 105 215.702097 99.5625 224.444901 99.46875 C 234.806743 99.328125 240.218956 104.53125 241.837993 116.0625 C 243.457031 127.5 235.4081 144 235.4081 144 Z M 235.4081 144 " transform="matrix(0.0844444,0,0,0.0833333,0,0)"/>
<path style=" stroke:none;fill-rule:nonzero;fill:rgb(100%,100%,100%);fill-opacity:1;" d="M 15.859375 15.214844 C 15.828125 15.253906 15.613281 15.675781 15.613281 15.675781 L 15.984375 15.597656 Z M 15.859375 15.214844 "/>
<path style=" stroke:none;fill-rule:nonzero;fill:rgb(100%,100%,100%);fill-opacity:1;" d="M 16.070312 15.761719 L 15.683594 15.886719 L 16.148438 16.070312 Z M 16.070312 15.761719 "/>
<path style=" stroke:none;fill-rule:nonzero;fill:rgb(100%,100%,100%);fill-opacity:1;" d="M 16.246094 15.222656 L 16.441406 15.789062 L 16.917969 15.65625 L 16.792969 15.386719 Z M 16.246094 15.222656 "/>
<path style=" stroke:none;fill-rule:nonzero;fill:rgb(100%,100%,100%);fill-opacity:1;" d="M 16.546875 15.992188 L 16.617188 16.222656 L 17.25 16.375 L 16.996094 15.847656 Z M 16.546875 15.992188 "/>
<path style=" stroke:none;fill-rule:nonzero;fill:rgb(100%,100%,100%);fill-opacity:1;" d="M 17.25 15.511719 L 17.472656 16.039062 L 17.949219 15.859375 L 17.792969 15.625 Z M 17.25 15.511719 "/>
<path style=" stroke:none;fill-rule:nonzero;fill:rgb(100%,100%,100%);fill-opacity:1;" d="M 17.5625 16.234375 L 17.640625 16.433594 L 18.378906 16.539062 L 18.066406 16.058594 Z M 17.5625 16.234375 "/>
<path style=" stroke:none;fill-rule:nonzero;fill:rgb(100%,100%,100%);fill-opacity:1;" d="M 18.269531 15.664062 L 18.542969 16.136719 L 19.234375 15.886719 L 19.15625 15.703125 Z M 18.269531 15.664062 "/>
<path style=" stroke:none;fill-rule:nonzero;fill:rgb(100%,100%,100%);fill-opacity:1;" d="M 18.671875 16.308594 L 18.816406 16.558594 L 19.671875 16.53125 L 19.351562 16.058594 Z M 18.671875 16.308594 "/>
<path style=" stroke:none;fill-rule:nonzero;fill:rgb(100%,100%,100%);fill-opacity:1;" d="M 19.574219 15.683594 L 19.808594 16.078125 L 20.355469 15.820312 L 20.207031 15.609375 Z M 19.574219 15.683594 "/>
<path style=" stroke:none;fill-rule:nonzero;fill:rgb(100%,100%,100%);fill-opacity:1;" d="M 20.472656 15.984375 L 19.925781 16.25 L 20.070312 16.480469 L 20.800781 16.367188 Z M 20.472656 15.984375 "/>
<path style=" stroke:none;fill-rule:nonzero;fill:rgb(100%,100%,100%);fill-opacity:1;" d="M 20.648438 15.570312 L 20.929688 15.914062 L 21.386719 15.558594 L 21.230469 15.394531 Z M 20.648438 15.570312 "/>
<path style=" stroke:none;fill-rule:nonzero;fill:rgb(100%,100%,100%);fill-opacity:1;" d="M 21.484375 15.75 L 21.046875 16.078125 L 21.164062 16.28125 L 21.765625 16.125 Z M 21.484375 15.75 "/>
<path style=" stroke:none;fill-rule:nonzero;fill:rgb(100%,100%,100%);fill-opacity:1;" d="M 22.085938 15.070312 L 22.195312 15.222656 L 21.894531 15.664062 L 21.582031 15.273438 Z M 22.085938 15.070312 "/>
<path style=" stroke:none;fill-rule:nonzero;fill:rgb(100%,100%,100%);fill-opacity:1;" d="M 22.292969 15.453125 L 22.476562 15.820312 L 22.105469 15.945312 L 22.078125 15.769531 Z M 22.292969 15.453125 "/>
</g>
</svg>
