<?xml version="1.0" encoding="UTF-8"?>
<svg xmlns="http://www.w3.org/2000/svg" xmlns:xlink="http://www.w3.org/1999/xlink" width="50pt" height="25pt" viewBox="0 0 50 25" version="1.1">
<g id="surface1">
<rect x="0" y="0" width="50" height="25" style="fill:rgb(13.72549%,61.960784%,27.45098%);fill-opacity:1;stroke:none;"/>
<path style=" stroke:none;fill-rule:nonzero;fill:rgb(0%,0%,0%);fill-opacity:1;" d="M 0 0 L 50 0 L 50 18.75 L 0 18.75 Z M 0 0 "/>
<path style=" stroke:none;fill-rule:nonzero;fill:rgb(90.588235%,0%,7.45098%);fill-opacity:1;" d="M 0 0 L 50 0 L 50 6.25 L 0 6.25 Z M 0 0 "/>
<path style=" stroke:none;fill-rule:nonzero;fill:rgb(100%,100%,100%);fill-opacity:1;" d="M 27.210938 10.289062 C 26.082031 9.484375 24.53125 9.65625 23.609375 10.6875 C 22.6875 11.71875 22.6875 13.28125 23.609375 14.3125 C 24.53125 15.34375 26.082031 15.515625 27.210938 14.710938 C 25.988281 15.929688 24.011719 15.929688 22.789062 14.710938 C 21.570312 13.488281 21.570312 11.511719 22.789062 10.289062 C 24.011719 9.070312 25.988281 9.070312 27.210938 10.289062 M 26.519531 12.5 L 30.726562 11.136719 L 28.125 14.710938 L 28.125 10.289062 L 30.726562 13.863281 Z M 26.519531 12.5 "/>
</g>
</svg>
