<?xml version="1.0" encoding="UTF-8"?>
<svg xmlns="http://www.w3.org/2000/svg" xmlns:xlink="http://www.w3.org/1999/xlink" width="42pt" height="25pt" viewBox="0 0 42 25" version="1.1">
<g id="surface1">
<rect x="0" y="0" width="42" height="25" style="fill:rgb(0%,16.862745%,49.803922%);fill-opacity:1;stroke:none;"/>
<path style=" stroke:none;fill-rule:nonzero;fill:rgb(80.784314%,6.666667%,14.901961%);fill-opacity:1;" d="M 0 12.5 L 42 12.5 L 42 25 L 0 25 Z M 0 12.5 "/>
<path style=" stroke:none;fill-rule:nonzero;fill:rgb(100%,84.705882%,23.921569%);fill-opacity:1;" d="M 9.085938 5.09375 L 9.011719 7.699219 L 6.347656 7.699219 C 6.019531 7.066406 5.75 6.53125 5.75 5.804688 C 5.75 5.195312 6.230469 4.710938 6.925781 4.710938 C 7.660156 4.710938 8.46875 4.957031 9.085938 5.09375 Z M 9.085938 5.09375 "/>
<path style="fill:none;stroke-width:1.5;stroke-linecap:round;stroke-linejoin:round;stroke:rgb(0%,0%,0%);stroke-opacity:1;stroke-miterlimit:4;" d="M 144.438244 125.15625 L 144.438244 161.25 " transform="matrix(0.042,0,0,0.0416667,0,0)"/>
<path style="fill:none;stroke-width:1.5;stroke-linecap:round;stroke-linejoin:round;stroke:rgb(0%,0%,0%);stroke-opacity:1;stroke-miterlimit:4;" d="M 149.553571 121.5 L 149.553571 169.5 " transform="matrix(0.042,0,0,0.0416667,0,0)"/>
<path style="fill:none;stroke-width:1.5;stroke-linecap:round;stroke-linejoin:round;stroke:rgb(0%,0%,0%);stroke-opacity:1;stroke-miterlimit:4;" d="M 154.668899 118.96875 L 154.668899 176.15625 " transform="matrix(0.042,0,0,0.0416667,0,0)"/>
<path style="fill:none;stroke-width:1.5;stroke-linecap:round;stroke-linejoin:round;stroke:rgb(0%,0%,0%);stroke-opacity:1;stroke-miterlimit:4;" d="M 159.69122 117.75 L 159.69122 162.65625 " transform="matrix(0.042,0,0,0.0416667,0,0)"/>
<path style="fill:none;stroke-width:1.5;stroke-linecap:round;stroke-linejoin:round;stroke:rgb(0%,0%,0%);stroke-opacity:1;stroke-miterlimit:4;" d="M 164.806548 117.5625 L 164.806548 162.84375 " transform="matrix(0.042,0,0,0.0416667,0,0)"/>
<path style="fill:none;stroke-width:1.5;stroke-linecap:round;stroke-linejoin:round;stroke:rgb(0%,0%,0%);stroke-opacity:1;stroke-miterlimit:4;" d="M 169.921875 115.96875 L 169.921875 162.84375 " transform="matrix(0.042,0,0,0.0416667,0,0)"/>
<path style="fill:none;stroke-width:1.5;stroke-linecap:round;stroke-linejoin:round;stroke:rgb(0%,0%,0%);stroke-opacity:1;stroke-miterlimit:4;" d="M 175.037202 115.96875 L 175.037202 162.84375 " transform="matrix(0.042,0,0,0.0416667,0,0)"/>
<path style="fill:none;stroke-width:1.5;stroke-linecap:round;stroke-linejoin:round;stroke:rgb(0%,0%,0%);stroke-opacity:1;stroke-miterlimit:4;" d="M 180.15253 116.4375 L 180.15253 163.3125 " transform="matrix(0.042,0,0,0.0416667,0,0)"/>
<path style="fill:none;stroke-width:1.5;stroke-linecap:round;stroke-linejoin:round;stroke:rgb(0%,0%,0%);stroke-opacity:1;stroke-miterlimit:4;" d="M 185.174851 116.90625 L 185.174851 163.78125 " transform="matrix(0.042,0,0,0.0416667,0,0)"/>
<path style="fill:none;stroke-width:1.5;stroke-linecap:round;stroke-linejoin:round;stroke:rgb(0%,0%,0%);stroke-opacity:1;stroke-miterlimit:4;" d="M 190.290179 119.90625 L 190.290179 166.78125 " transform="matrix(0.042,0,0,0.0416667,0,0)"/>
<path style="fill:none;stroke-width:1.5;stroke-linecap:round;stroke-linejoin:round;stroke:rgb(0%,0%,0%);stroke-opacity:1;stroke-miterlimit:4;" d="M 195.405506 120.375 L 195.405506 173.15625 " transform="matrix(0.042,0,0,0.0416667,0,0)"/>
<path style="fill:none;stroke-width:1.5;stroke-linecap:round;stroke-linejoin:round;stroke:rgb(0%,0%,0%);stroke-opacity:1;stroke-miterlimit:4;" d="M 200.520833 120.375 L 200.520833 167.25 " transform="matrix(0.042,0,0,0.0416667,0,0)"/>
<path style="fill:none;stroke-width:1.5;stroke-linecap:round;stroke-linejoin:round;stroke:rgb(0%,0%,0%);stroke-opacity:1;stroke-miterlimit:4;" d="M 205.543155 120.375 L 205.543155 167.25 " transform="matrix(0.042,0,0,0.0416667,0,0)"/>
<path style="fill-rule:nonzero;fill:rgb(0%,0%,0%);fill-opacity:1;stroke-width:1.5;stroke-linecap:round;stroke-linejoin:round;stroke:rgb(0%,0%,0%);stroke-opacity:1;stroke-miterlimit:4;" d="M 176.432292 117.9375 C 187.127976 119.71875 210.844494 130.78125 208.147321 145.6875 C 204.241071 166.96875 191.87128 158.4375 175.502232 155.34375 L 163.039435 159.46875 C 158.668155 164.0625 152.064732 168.1875 147.693452 162.75 L 140.345982 162.75 L 140.345982 191.4375 L 221.633185 191.4375 L 221.633185 122.0625 Z M 176.432292 117.9375 " transform="matrix(0.042,0,0,0.0416667,0,0)"/>
<path style="fill-rule:nonzero;fill:rgb(100%,84.705882%,23.921569%);fill-opacity:1;stroke-width:2;stroke-linecap:round;stroke-linejoin:round;stroke:rgb(0%,0%,0%);stroke-opacity:1;stroke-miterlimit:4;" d="M 217.726935 112.96875 C 217.726935 115.6875 215.587798 117.9375 212.797619 117.9375 C 210.100446 117.9375 207.868304 115.6875 207.868304 112.96875 C 207.868304 110.25 210.100446 108 212.797619 108 C 215.587798 108 217.726935 110.25 217.726935 112.96875 Z M 217.726935 112.96875 " transform="matrix(0.042,0,0,0.0416667,0,0)"/>
<path style="fill-rule:nonzero;fill:rgb(100%,84.705882%,23.921569%);fill-opacity:1;stroke-width:2;stroke-linecap:round;stroke-linejoin:round;stroke:rgb(0%,0%,0%);stroke-opacity:1;stroke-miterlimit:4;" d="M 206.659226 110.34375 C 206.659226 113.0625 204.427083 115.21875 201.729911 115.21875 C 198.939732 115.21875 196.800595 113.0625 196.800595 110.34375 C 196.800595 107.625 198.939732 105.375 201.729911 105.375 C 204.427083 105.375 206.659226 107.625 206.659226 110.34375 Z M 206.659226 110.34375 " transform="matrix(0.042,0,0,0.0416667,0,0)"/>
<path style="fill-rule:nonzero;fill:rgb(100%,84.705882%,23.921569%);fill-opacity:1;stroke-width:2;stroke-linecap:round;stroke-linejoin:round;stroke:rgb(0%,0%,0%);stroke-opacity:1;stroke-miterlimit:4;" d="M 195.405506 107.4375 C 195.405506 110.25 193.173363 112.40625 190.47619 112.40625 C 187.686012 112.40625 185.546875 110.25 185.546875 107.4375 C 185.546875 104.71875 187.686012 102.5625 190.47619 102.5625 C 193.173363 102.5625 195.405506 104.71875 195.405506 107.4375 Z M 195.405506 107.4375 " transform="matrix(0.042,0,0,0.0416667,0,0)"/>
<path style="fill-rule:nonzero;fill:rgb(100%,84.705882%,23.921569%);fill-opacity:1;stroke-width:2;stroke-linecap:round;stroke-linejoin:round;stroke:rgb(0%,0%,0%);stroke-opacity:1;stroke-miterlimit:4;" d="M 184.05878 105.5625 C 184.05878 108.28125 181.826637 110.53125 179.129464 110.53125 C 176.432292 110.53125 174.200149 108.28125 174.200149 105.5625 C 174.200149 102.84375 176.432292 100.6875 179.129464 100.6875 C 181.826637 100.6875 184.05878 102.84375 184.05878 105.5625 Z M 184.05878 105.5625 " transform="matrix(0.042,0,0,0.0416667,0,0)"/>
<path style="fill-rule:nonzero;fill:rgb(100%,84.705882%,23.921569%);fill-opacity:1;stroke-width:2;stroke-linecap:round;stroke-linejoin:round;stroke:rgb(0%,0%,0%);stroke-opacity:1;stroke-miterlimit:4;" d="M 172.80506 104.4375 C 172.80506 107.25 170.572917 109.40625 167.875744 109.40625 C 165.085565 109.40625 162.853423 107.25 162.853423 104.4375 C 162.853423 101.71875 165.085565 99.5625 167.875744 99.5625 C 170.572917 99.5625 172.80506 101.71875 172.80506 104.4375 Z M 172.80506 104.4375 " transform="matrix(0.042,0,0,0.0416667,0,0)"/>
<path style="fill-rule:nonzero;fill:rgb(100%,84.705882%,23.921569%);fill-opacity:1;stroke-width:2;stroke-linecap:round;stroke-linejoin:round;stroke:rgb(0%,0%,0%);stroke-opacity:1;stroke-miterlimit:4;" d="M 161.644345 105.09375 C 161.644345 107.8125 159.505208 110.0625 156.71503 110.0625 C 154.017857 110.0625 151.785714 107.8125 151.785714 105.09375 C 151.785714 102.375 154.017857 100.21875 156.71503 100.21875 C 159.505208 100.21875 161.644345 102.375 161.644345 105.09375 Z M 161.644345 105.09375 " transform="matrix(0.042,0,0,0.0416667,0,0)"/>
<path style="fill-rule:nonzero;fill:rgb(100%,84.705882%,23.921569%);fill-opacity:1;stroke-width:2;stroke-linecap:round;stroke-linejoin:round;stroke:rgb(0%,0%,0%);stroke-opacity:1;stroke-miterlimit:4;" d="M 151.134673 108.75 C 151.134673 111.46875 148.90253 113.71875 146.205357 113.71875 C 143.415179 113.71875 141.276042 111.46875 141.276042 108.75 C 141.276042 106.03125 143.415179 103.78125 146.205357 103.78125 C 148.90253 103.78125 151.134673 106.03125 151.134673 108.75 Z M 151.134673 108.75 " transform="matrix(0.042,0,0,0.0416667,0,0)"/>
<path style="fill-rule:nonzero;fill:rgb(100%,84.705882%,23.921569%);fill-opacity:1;stroke-width:2;stroke-linecap:round;stroke-linejoin:round;stroke:rgb(0%,0%,0%);stroke-opacity:1;stroke-miterlimit:4;" d="M 142.206101 115.3125 C 142.206101 118.03125 139.973958 120.1875 137.276786 120.1875 C 134.579613 120.1875 132.34747 118.03125 132.34747 115.3125 C 132.34747 112.59375 134.579613 110.34375 137.276786 110.34375 C 139.973958 110.34375 142.206101 112.59375 142.206101 115.3125 Z M 142.206101 115.3125 " transform="matrix(0.042,0,0,0.0416667,0,0)"/>
<path style="fill-rule:nonzero;fill:rgb(100%,84.705882%,23.921569%);fill-opacity:1;stroke-width:2;stroke-linecap:round;stroke-linejoin:round;stroke:rgb(0%,0%,0%);stroke-opacity:1;stroke-miterlimit:4;" d="M 135.881696 124.40625 C 135.881696 127.125 133.649554 129.375 130.952381 129.375 C 128.255208 129.375 126.023065 127.125 126.023065 124.40625 C 126.023065 121.6875 128.255208 119.4375 130.952381 119.4375 C 133.649554 119.4375 135.881696 121.6875 135.881696 124.40625 Z M 135.881696 124.40625 " transform="matrix(0.042,0,0,0.0416667,0,0)"/>
<path style="fill-rule:nonzero;fill:rgb(100%,84.705882%,23.921569%);fill-opacity:1;stroke-width:2;stroke-linecap:round;stroke-linejoin:round;stroke:rgb(0%,0%,0%);stroke-opacity:1;stroke-miterlimit:4;" d="M 132.8125 135.1875 C 132.8125 137.90625 130.673363 140.0625 127.883185 140.0625 C 125.186012 140.0625 122.953869 137.90625 122.953869 135.1875 C 122.953869 132.46875 125.186012 130.21875 127.883185 130.21875 C 130.673363 130.21875 132.8125 132.46875 132.8125 135.1875 Z M 132.8125 135.1875 " transform="matrix(0.042,0,0,0.0416667,0,0)"/>
<path style="fill-rule:nonzero;fill:rgb(100%,84.705882%,23.921569%);fill-opacity:1;stroke-width:2;stroke-linecap:round;stroke-linejoin:round;stroke:rgb(0%,0%,0%);stroke-opacity:1;stroke-miterlimit:4;" d="M 132.998512 146.34375 C 132.998512 149.0625 130.766369 151.21875 128.069196 151.21875 C 125.279018 151.21875 123.046875 149.0625 123.046875 146.34375 C 123.046875 143.53125 125.279018 141.375 128.069196 141.375 C 130.766369 141.375 132.998512 143.53125 132.998512 146.34375 Z M 132.998512 146.34375 " transform="matrix(0.042,0,0,0.0416667,0,0)"/>
<path style="fill-rule:nonzero;fill:rgb(100%,84.705882%,23.921569%);fill-opacity:1;stroke-width:2;stroke-linecap:round;stroke-linejoin:round;stroke:rgb(0%,0%,0%);stroke-opacity:1;stroke-miterlimit:4;" d="M 135.137649 157.21875 C 135.137649 159.9375 132.905506 162.1875 130.115327 162.1875 C 127.418155 162.1875 125.186012 159.9375 125.186012 157.21875 C 125.186012 154.5 127.418155 152.25 130.115327 152.25 C 132.905506 152.25 135.137649 154.5 135.137649 157.21875 Z M 135.137649 157.21875 " transform="matrix(0.042,0,0,0.0416667,0,0)"/>
<path style="fill-rule:nonzero;fill:rgb(100%,84.705882%,23.921569%);fill-opacity:1;stroke-width:2;stroke-linecap:round;stroke-linejoin:round;stroke:rgb(0%,0%,0%);stroke-opacity:1;stroke-miterlimit:4;" d="M 215.029762 119.53125 L 214.564732 126 C 202.287946 124.125 184.802827 117.1875 168.619792 117.1875 C 153.552827 117.1875 141.927083 123.28125 141.927083 138.375 C 141.927083 153.28125 148.251488 166.875 156.622024 180.65625 L 147.879464 184.78125 C 140.066964 169.59375 133.649554 156.75 133.649554 139.3125 C 133.649554 124.6875 145.182292 110.34375 164.899554 110.34375 C 182.384673 110.34375 200.334821 116.25 215.029762 119.53125 Z M 215.029762 119.53125 " transform="matrix(0.042,0,0,0.0416667,0,0)"/>
<path style=" stroke:none;fill-rule:nonzero;fill:rgb(100%,84.705882%,23.921569%);fill-opacity:1;" d="M 9.558594 5.09375 L 9.632812 7.699219 L 12.296875 7.699219 C 12.625 7.066406 12.898438 6.53125 12.898438 5.804688 C 12.898438 5.195312 12.414062 4.710938 11.71875 4.710938 C 10.984375 4.710938 10.175781 4.957031 9.558594 5.09375 Z M 9.558594 5.09375 "/>
<path style="fill:none;stroke-width:1.5;stroke-linecap:round;stroke-linejoin:round;stroke:rgb(0%,0%,0%);stroke-opacity:1;stroke-miterlimit:4;" d="M 144.458333 125.15625 L 144.458333 161.25 " transform="matrix(-0.042,0,0,0.0416667,18.645375,0)"/>
<path style="fill:none;stroke-width:1.5;stroke-linecap:round;stroke-linejoin:round;stroke:rgb(0%,0%,0%);stroke-opacity:1;stroke-miterlimit:4;" d="M 149.573661 121.5 L 149.573661 169.5 " transform="matrix(-0.042,0,0,0.0416667,18.645375,0)"/>
<path style="fill:none;stroke-width:1.5;stroke-linecap:round;stroke-linejoin:round;stroke:rgb(0%,0%,0%);stroke-opacity:1;stroke-miterlimit:4;" d="M 154.688988 118.96875 L 154.688988 176.15625 " transform="matrix(-0.042,0,0,0.0416667,18.645375,0)"/>
<path style="fill:none;stroke-width:1.5;stroke-linecap:round;stroke-linejoin:round;stroke:rgb(0%,0%,0%);stroke-opacity:1;stroke-miterlimit:4;" d="M 159.71131 117.75 L 159.71131 162.65625 " transform="matrix(-0.042,0,0,0.0416667,18.645375,0)"/>
<path style="fill:none;stroke-width:1.5;stroke-linecap:round;stroke-linejoin:round;stroke:rgb(0%,0%,0%);stroke-opacity:1;stroke-miterlimit:4;" d="M 164.826637 117.5625 L 164.826637 162.84375 " transform="matrix(-0.042,0,0,0.0416667,18.645375,0)"/>
<path style="fill:none;stroke-width:1.5;stroke-linecap:round;stroke-linejoin:round;stroke:rgb(0%,0%,0%);stroke-opacity:1;stroke-miterlimit:4;" d="M 169.941964 115.96875 L 169.941964 162.84375 " transform="matrix(-0.042,0,0,0.0416667,18.645375,0)"/>
<path style="fill:none;stroke-width:1.5;stroke-linecap:round;stroke-linejoin:round;stroke:rgb(0%,0%,0%);stroke-opacity:1;stroke-miterlimit:4;" d="M 175.057292 115.96875 L 175.057292 162.84375 " transform="matrix(-0.042,0,0,0.0416667,18.645375,0)"/>
<path style="fill:none;stroke-width:1.5;stroke-linecap:round;stroke-linejoin:round;stroke:rgb(0%,0%,0%);stroke-opacity:1;stroke-miterlimit:4;" d="M 180.079613 116.4375 L 180.079613 163.3125 " transform="matrix(-0.042,0,0,0.0416667,18.645375,0)"/>
<path style="fill:none;stroke-width:1.5;stroke-linecap:round;stroke-linejoin:round;stroke:rgb(0%,0%,0%);stroke-opacity:1;stroke-miterlimit:4;" d="M 185.19494 116.90625 L 185.19494 163.78125 " transform="matrix(-0.042,0,0,0.0416667,18.645375,0)"/>
<path style="fill:none;stroke-width:1.5;stroke-linecap:round;stroke-linejoin:round;stroke:rgb(0%,0%,0%);stroke-opacity:1;stroke-miterlimit:4;" d="M 190.310268 119.90625 L 190.310268 166.78125 " transform="matrix(-0.042,0,0,0.0416667,18.645375,0)"/>
<path style="fill:none;stroke-width:1.5;stroke-linecap:round;stroke-linejoin:round;stroke:rgb(0%,0%,0%);stroke-opacity:1;stroke-miterlimit:4;" d="M 195.425595 120.375 L 195.425595 173.15625 " transform="matrix(-0.042,0,0,0.0416667,18.645375,0)"/>
<path style="fill:none;stroke-width:1.5;stroke-linecap:round;stroke-linejoin:round;stroke:rgb(0%,0%,0%);stroke-opacity:1;stroke-miterlimit:4;" d="M 200.447917 120.375 L 200.447917 167.25 " transform="matrix(-0.042,0,0,0.0416667,18.645375,0)"/>
<path style="fill:none;stroke-width:1.5;stroke-linecap:round;stroke-linejoin:round;stroke:rgb(0%,0%,0%);stroke-opacity:1;stroke-miterlimit:4;" d="M 205.563244 120.375 L 205.563244 167.25 " transform="matrix(-0.042,0,0,0.0416667,18.645375,0)"/>
<path style="fill-rule:nonzero;fill:rgb(0%,0%,0%);fill-opacity:1;stroke-width:1.5;stroke-linecap:round;stroke-linejoin:round;stroke:rgb(0%,0%,0%);stroke-opacity:1;stroke-miterlimit:4;" d="M 176.359375 117.9375 C 187.148065 119.71875 210.771577 130.78125 208.074405 145.6875 C 204.261161 166.96875 191.891369 158.4375 175.522321 155.34375 L 163.059524 159.46875 C 158.595238 164.0625 152.084821 168.1875 147.713542 162.75 L 140.366071 162.75 L 140.366071 191.4375 L 221.653274 191.4375 L 221.653274 122.0625 Z M 176.359375 117.9375 " transform="matrix(-0.042,0,0,0.0416667,18.645375,0)"/>
<path style="fill-rule:nonzero;fill:rgb(100%,84.705882%,23.921569%);fill-opacity:1;stroke-width:2;stroke-linecap:round;stroke-linejoin:round;stroke:rgb(0%,0%,0%);stroke-opacity:1;stroke-miterlimit:4;" d="M 217.747024 112.96875 C 217.747024 115.6875 215.514881 117.9375 212.817708 117.9375 C 210.120536 117.9375 207.888393 115.6875 207.888393 112.96875 C 207.888393 110.25 210.120536 108 212.817708 108 C 215.514881 108 217.747024 110.25 217.747024 112.96875 Z M 217.747024 112.96875 " transform="matrix(-0.042,0,0,0.0416667,18.645375,0)"/>
<path style="fill-rule:nonzero;fill:rgb(100%,84.705882%,23.921569%);fill-opacity:1;stroke-width:2;stroke-linecap:round;stroke-linejoin:round;stroke:rgb(0%,0%,0%);stroke-opacity:1;stroke-miterlimit:4;" d="M 206.679315 110.34375 C 206.679315 113.0625 204.447173 115.21875 201.75 115.21875 C 198.959821 115.21875 196.727679 113.0625 196.727679 110.34375 C 196.727679 107.625 198.959821 105.375 201.75 105.375 C 204.447173 105.375 206.679315 107.625 206.679315 110.34375 Z M 206.679315 110.34375 " transform="matrix(-0.042,0,0,0.0416667,18.645375,0)"/>
<path style="fill-rule:nonzero;fill:rgb(100%,84.705882%,23.921569%);fill-opacity:1;stroke-width:2;stroke-linecap:round;stroke-linejoin:round;stroke:rgb(0%,0%,0%);stroke-opacity:1;stroke-miterlimit:4;" d="M 195.425595 107.4375 C 195.425595 110.25 193.193452 112.40625 190.403274 112.40625 C 187.706101 112.40625 185.473958 110.25 185.473958 107.4375 C 185.473958 104.71875 187.706101 102.5625 190.403274 102.5625 C 193.193452 102.5625 195.425595 104.71875 195.425595 107.4375 Z M 195.425595 107.4375 " transform="matrix(-0.042,0,0,0.0416667,18.645375,0)"/>
<path style="fill-rule:nonzero;fill:rgb(100%,84.705882%,23.921569%);fill-opacity:1;stroke-width:2;stroke-linecap:round;stroke-linejoin:round;stroke:rgb(0%,0%,0%);stroke-opacity:1;stroke-miterlimit:4;" d="M 184.078869 105.5625 C 184.078869 108.28125 181.846726 110.53125 179.149554 110.53125 C 176.452381 110.53125 174.220238 108.28125 174.220238 105.5625 C 174.220238 102.84375 176.452381 100.6875 179.149554 100.6875 C 181.846726 100.6875 184.078869 102.84375 184.078869 105.5625 Z M 184.078869 105.5625 " transform="matrix(-0.042,0,0,0.0416667,18.645375,0)"/>
<path style="fill-rule:nonzero;fill:rgb(100%,84.705882%,23.921569%);fill-opacity:1;stroke-width:2;stroke-linecap:round;stroke-linejoin:round;stroke:rgb(0%,0%,0%);stroke-opacity:1;stroke-miterlimit:4;" d="M 172.732143 104.4375 C 172.732143 107.25 170.593006 109.40625 167.802827 109.40625 C 165.105655 109.40625 162.873512 107.25 162.873512 104.4375 C 162.873512 101.71875 165.105655 99.5625 167.802827 99.5625 C 170.593006 99.5625 172.732143 101.71875 172.732143 104.4375 Z M 172.732143 104.4375 " transform="matrix(-0.042,0,0,0.0416667,18.645375,0)"/>
<path style="fill-rule:nonzero;fill:rgb(100%,84.705882%,23.921569%);fill-opacity:1;stroke-width:2;stroke-linecap:round;stroke-linejoin:round;stroke:rgb(0%,0%,0%);stroke-opacity:1;stroke-miterlimit:4;" d="M 161.664435 105.09375 C 161.664435 107.8125 159.432292 110.0625 156.735119 110.0625 C 154.037946 110.0625 151.805804 107.8125 151.805804 105.09375 C 151.805804 102.375 154.037946 100.21875 156.735119 100.21875 C 159.432292 100.21875 161.664435 102.375 161.664435 105.09375 Z M 161.664435 105.09375 " transform="matrix(-0.042,0,0,0.0416667,18.645375,0)"/>
<path style="fill-rule:nonzero;fill:rgb(100%,84.705882%,23.921569%);fill-opacity:1;stroke-width:2;stroke-linecap:round;stroke-linejoin:round;stroke:rgb(0%,0%,0%);stroke-opacity:1;stroke-miterlimit:4;" d="M 151.154762 108.75 C 151.154762 111.46875 148.922619 113.71875 146.225446 113.71875 C 143.435268 113.71875 141.203125 111.46875 141.203125 108.75 C 141.203125 106.03125 143.435268 103.78125 146.225446 103.78125 C 148.922619 103.78125 151.154762 106.03125 151.154762 108.75 Z M 151.154762 108.75 " transform="matrix(-0.042,0,0,0.0416667,18.645375,0)"/>
<path style="fill-rule:nonzero;fill:rgb(100%,84.705882%,23.921569%);fill-opacity:1;stroke-width:2;stroke-linecap:round;stroke-linejoin:round;stroke:rgb(0%,0%,0%);stroke-opacity:1;stroke-miterlimit:4;" d="M 142.22619 115.3125 C 142.22619 118.03125 139.994048 120.1875 137.296875 120.1875 C 134.506696 120.1875 132.36756 118.03125 132.36756 115.3125 C 132.36756 112.59375 134.506696 110.34375 137.296875 110.34375 C 139.994048 110.34375 142.22619 112.59375 142.22619 115.3125 Z M 142.22619 115.3125 " transform="matrix(-0.042,0,0,0.0416667,18.645375,0)"/>
<path style="fill-rule:nonzero;fill:rgb(100%,84.705882%,23.921569%);fill-opacity:1;stroke-width:2;stroke-linecap:round;stroke-linejoin:round;stroke:rgb(0%,0%,0%);stroke-opacity:1;stroke-miterlimit:4;" d="M 135.901786 124.40625 C 135.901786 127.125 133.669643 129.375 130.97247 129.375 C 128.182292 129.375 126.043155 127.125 126.043155 124.40625 C 126.043155 121.6875 128.182292 119.4375 130.97247 119.4375 C 133.669643 119.4375 135.901786 121.6875 135.901786 124.40625 Z M 135.901786 124.40625 " transform="matrix(-0.042,0,0,0.0416667,18.645375,0)"/>
<path style="fill-rule:nonzero;fill:rgb(100%,84.705882%,23.921569%);fill-opacity:1;stroke-width:2;stroke-linecap:round;stroke-linejoin:round;stroke:rgb(0%,0%,0%);stroke-opacity:1;stroke-miterlimit:4;" d="M 132.832589 135.1875 C 132.832589 137.90625 130.600446 140.0625 127.903274 140.0625 C 125.206101 140.0625 122.973958 137.90625 122.973958 135.1875 C 122.973958 132.46875 125.206101 130.21875 127.903274 130.21875 C 130.600446 130.21875 132.832589 132.46875 132.832589 135.1875 Z M 132.832589 135.1875 " transform="matrix(-0.042,0,0,0.0416667,18.645375,0)"/>
<path style="fill-rule:nonzero;fill:rgb(100%,84.705882%,23.921569%);fill-opacity:1;stroke-width:2;stroke-linecap:round;stroke-linejoin:round;stroke:rgb(0%,0%,0%);stroke-opacity:1;stroke-miterlimit:4;" d="M 132.925595 146.34375 C 132.925595 149.0625 130.786458 151.21875 127.99628 151.21875 C 125.299107 151.21875 123.066964 149.0625 123.066964 146.34375 C 123.066964 143.53125 125.299107 141.375 127.99628 141.375 C 130.786458 141.375 132.925595 143.53125 132.925595 146.34375 Z M 132.925595 146.34375 " transform="matrix(-0.042,0,0,0.0416667,18.645375,0)"/>
<path style="fill-rule:nonzero;fill:rgb(100%,84.705882%,23.921569%);fill-opacity:1;stroke-width:2;stroke-linecap:round;stroke-linejoin:round;stroke:rgb(0%,0%,0%);stroke-opacity:1;stroke-miterlimit:4;" d="M 135.064732 157.21875 C 135.064732 159.9375 132.925595 162.1875 130.135417 162.1875 C 127.438244 162.1875 125.206101 159.9375 125.206101 157.21875 C 125.206101 154.5 127.438244 152.25 130.135417 152.25 C 132.925595 152.25 135.064732 154.5 135.064732 157.21875 Z M 135.064732 157.21875 " transform="matrix(-0.042,0,0,0.0416667,18.645375,0)"/>
<path style="fill-rule:nonzero;fill:rgb(100%,84.705882%,23.921569%);fill-opacity:1;stroke-width:2;stroke-linecap:round;stroke-linejoin:round;stroke:rgb(0%,0%,0%);stroke-opacity:1;stroke-miterlimit:4;" d="M 214.956845 119.53125 L 214.584821 126 C 202.21503 124.125 184.822917 117.1875 168.546875 117.1875 C 153.572917 117.1875 141.947173 123.28125 141.947173 138.375 C 141.947173 153.28125 148.271577 166.875 156.642113 180.65625 L 147.899554 184.78125 C 140.087054 169.59375 133.669643 156.75 133.669643 139.3125 C 133.669643 124.6875 145.109375 110.34375 164.919643 110.34375 C 182.404762 110.34375 200.261905 116.25 214.956845 119.53125 Z M 214.956845 119.53125 " transform="matrix(-0.042,0,0,0.0416667,18.645375,0)"/>
<path style="fill-rule:nonzero;fill:rgb(100%,84.705882%,23.921569%);fill-opacity:1;stroke-width:2;stroke-linecap:round;stroke-linejoin:round;stroke:rgb(0%,0%,0%);stroke-opacity:1;stroke-miterlimit:4;" d="M 222.005208 53.15625 L 216.796875 62.8125 L 222.005208 72.375 L 227.120536 62.8125 Z M 222.005208 77.53125 L 216.796875 87.09375 L 222.005208 96.75 L 227.120536 87.09375 Z M 222.005208 77.53125 " transform="matrix(0.042,0,0,0.0416667,0,0)"/>
<path style="fill-rule:nonzero;fill:rgb(100%,84.705882%,23.921569%);fill-opacity:1;stroke-width:2;stroke-linecap:round;stroke-linejoin:round;stroke:rgb(0%,0%,0%);stroke-opacity:1;stroke-miterlimit:4;" d="M 203.59003 75 L 211.681548 80.0625 L 219.866071 75 L 211.681548 69.75 Z M 224.144345 75 L 232.235863 80.0625 L 240.327381 75 L 232.235863 69.75 Z M 224.144345 75 " transform="matrix(0.042,0,0,0.0416667,0,0)"/>
<path style="fill-rule:nonzero;fill:rgb(100%,84.705882%,23.921569%);fill-opacity:1;stroke-width:2;stroke-linecap:round;stroke-linejoin:round;stroke:rgb(0%,0%,0%);stroke-opacity:1;stroke-miterlimit:4;" d="M 225.911458 75.09375 C 225.911458 77.25 224.144345 78.9375 222.005208 78.9375 C 219.773065 78.9375 218.098958 77.25 218.098958 75.09375 C 218.098958 72.9375 219.773065 71.15625 222.005208 71.15625 C 224.144345 71.15625 225.911458 72.9375 225.911458 75.09375 Z M 225.911458 75.09375 " transform="matrix(0.042,0,0,0.0416667,0,0)"/>
<path style="fill-rule:nonzero;fill:rgb(100%,84.705882%,23.921569%);fill-opacity:1;stroke-width:2;stroke-linecap:round;stroke-linejoin:round;stroke:rgb(0%,0%,0%);stroke-opacity:1;stroke-miterlimit:4;" d="M 232.421875 100.03125 C 232.421875 105.75 227.771577 110.4375 222.005208 110.4375 C 216.238839 110.4375 211.495536 105.75 211.495536 100.03125 C 211.495536 94.21875 216.238839 89.53125 222.005208 89.53125 C 227.771577 89.53125 232.421875 94.21875 232.421875 100.03125 Z M 232.421875 100.03125 " transform="matrix(0.042,0,0,0.0416667,0,0)"/>
<path style="fill:none;stroke-width:1.5;stroke-linecap:round;stroke-linejoin:round;stroke:rgb(0%,0%,0%);stroke-opacity:1;stroke-miterlimit:4;" d="M 219.308036 89.90625 C 219.308036 93 219.308036 94.78125 219.308036 96.46875 C 216.796875 96.65625 214.285714 96.84375 211.86756 97.3125 M 232.049851 97.3125 C 229.631696 96.84375 227.120536 96.65625 224.609375 96.46875 C 224.609375 94.78125 224.609375 93 224.609375 89.90625 M 211.86756 102.5625 C 215.122768 102 218.563988 101.71875 222.005208 101.71875 C 225.446429 101.71875 228.794643 102 232.049851 102.5625 " transform="matrix(0.042,0,0,0.0416667,0,0)"/>
<path style="fill-rule:nonzero;fill:rgb(100%,84.705882%,23.921569%);fill-opacity:1;stroke-width:2;stroke-linecap:round;stroke-linejoin:round;stroke:rgb(0%,0%,0%);stroke-opacity:1;stroke-miterlimit:4;" d="M 211.774554 117.65625 C 210.751488 134.8125 208.705357 152.15625 202.101935 164.8125 L 212.890625 160.40625 C 216.703869 146.0625 217.447917 127.59375 218.656994 118.875 Z M 232.142857 117.65625 L 225.353423 118.875 C 226.469494 127.59375 227.213542 146.0625 231.026786 160.40625 L 241.815476 164.8125 C 235.212054 152.15625 233.165923 134.8125 232.142857 117.65625 Z M 232.142857 117.65625 " transform="matrix(0.042,0,0,0.0416667,0,0)"/>
<path style="fill-rule:nonzero;fill:rgb(100%,84.705882%,23.921569%);fill-opacity:1;stroke-width:2;stroke-linecap:round;stroke-linejoin:round;stroke:rgb(0%,0%,0%);stroke-opacity:1;stroke-miterlimit:4;" d="M 221.912202 154.6875 C 209.077381 154.6875 199.590774 160.78125 198.939732 176.25 C 195.870536 170.71875 182.477679 153.28125 170.014881 155.625 C 162.574405 157.03125 156.063988 167.25 157.18006 179.0625 C 151.041667 161.4375 133.091518 158.53125 119.977679 168.9375 C 131.603423 178.5 136.811756 206.8125 146.577381 219 L 297.34003 219 C 307.105655 206.8125 312.313988 178.5 323.939732 168.9375 C 310.918899 158.53125 292.875744 161.4375 286.737351 179.0625 C 287.853423 167.25 281.343006 157.03125 273.90253 155.625 C 261.439732 153.28125 248.139881 170.71875 244.977679 176.25 C 244.419643 160.78125 234.84003 154.6875 221.912202 154.6875 Z M 221.912202 154.6875 " transform="matrix(0.042,0,0,0.0416667,0,0)"/>
<path style="fill-rule:nonzero;fill:rgb(0%,0%,0%);fill-opacity:1;stroke-width:1.5;stroke-linecap:round;stroke-linejoin:round;stroke:rgb(0%,0%,0%);stroke-opacity:1;stroke-miterlimit:4;" d="M 297.061012 219 C 297.061012 224.625 263.485863 230.71875 222.005208 230.71875 C 180.524554 230.71875 146.856399 224.625 146.856399 219 C 146.856399 213.46875 180.524554 210.5625 222.005208 210.5625 C 263.485863 210.5625 297.061012 213.46875 297.061012 219 Z M 297.061012 219 " transform="matrix(0.042,0,0,0.0416667,0,0)"/>
<path style="fill-rule:nonzero;fill:rgb(100%,84.705882%,23.921569%);fill-opacity:1;stroke-width:1.5;stroke-linecap:round;stroke-linejoin:round;stroke:rgb(0%,0%,0%);stroke-opacity:1;stroke-miterlimit:4;" d="M 225.446429 114.46875 C 225.446429 116.34375 223.865327 117.9375 222.005208 117.9375 C 220.052083 117.9375 218.470982 116.34375 218.470982 114.46875 C 218.470982 112.5 220.052083 110.90625 222.005208 110.90625 C 223.865327 110.90625 225.446429 112.5 225.446429 114.46875 Z M 225.446429 114.46875 " transform="matrix(0.042,0,0,0.0416667,0,0)"/>
<path style="fill-rule:nonzero;fill:rgb(100%,84.705882%,23.921569%);fill-opacity:1;stroke-width:1.5;stroke-linecap:round;stroke-linejoin:round;stroke:rgb(0%,0%,0%);stroke-opacity:1;stroke-miterlimit:4;" d="M 225.725446 122.0625 C 225.725446 124.125 224.051339 125.71875 222.005208 125.71875 C 219.866071 125.71875 218.191964 124.125 218.191964 122.0625 C 218.191964 120 219.866071 118.3125 222.005208 118.3125 C 224.051339 118.3125 225.725446 120 225.725446 122.0625 Z M 225.725446 122.0625 " transform="matrix(0.042,0,0,0.0416667,0,0)"/>
<path style="fill-rule:nonzero;fill:rgb(100%,84.705882%,23.921569%);fill-opacity:1;stroke-width:1.5;stroke-linecap:round;stroke-linejoin:round;stroke:rgb(0%,0%,0%);stroke-opacity:1;stroke-miterlimit:4;" d="M 226.004464 130.21875 C 226.004464 132.46875 224.237351 134.25 222.005208 134.25 C 219.68006 134.25 217.912946 132.46875 217.912946 130.21875 C 217.912946 127.96875 219.68006 126.09375 222.005208 126.09375 C 224.237351 126.09375 226.004464 127.96875 226.004464 130.21875 Z M 226.004464 130.21875 " transform="matrix(0.042,0,0,0.0416667,0,0)"/>
<path style="fill-rule:nonzero;fill:rgb(100%,84.705882%,23.921569%);fill-opacity:1;stroke-width:1.5;stroke-linecap:round;stroke-linejoin:round;stroke:rgb(0%,0%,0%);stroke-opacity:1;stroke-miterlimit:4;" d="M 226.655506 139.21875 C 226.655506 141.84375 224.516369 143.90625 222.005208 143.90625 C 219.401042 143.90625 217.354911 141.84375 217.354911 139.21875 C 217.354911 136.6875 219.401042 134.625 222.005208 134.625 C 224.516369 134.625 226.655506 136.6875 226.655506 139.21875 Z M 226.655506 139.21875 " transform="matrix(0.042,0,0,0.0416667,0,0)"/>
<path style="fill-rule:nonzero;fill:rgb(100%,84.705882%,23.921569%);fill-opacity:1;stroke-width:1.5;stroke-linecap:round;stroke-linejoin:round;stroke:rgb(0%,0%,0%);stroke-opacity:1;stroke-miterlimit:4;" d="M 227.120536 149.34375 C 227.120536 152.15625 224.795387 154.5 222.005208 154.5 C 219.122024 154.5 216.889881 152.15625 216.889881 149.34375 C 216.889881 146.53125 219.122024 144.28125 222.005208 144.28125 C 224.795387 144.28125 227.120536 146.53125 227.120536 149.34375 Z M 227.120536 149.34375 " transform="matrix(0.042,0,0,0.0416667,0,0)"/>
<path style=" stroke:none;fill-rule:nonzero;fill:rgb(0%,0%,0%);fill-opacity:1;" d="M 9.238281 6.632812 C 9.214844 6.632812 9.191406 6.652344 9.199219 6.691406 C 9.203125 6.734375 9.214844 6.8125 9.222656 6.871094 C 9.230469 6.929688 9.265625 6.917969 9.277344 6.867188 C 9.285156 6.820312 9.28125 6.789062 9.285156 6.699219 C 9.285156 6.652344 9.261719 6.632812 9.238281 6.632812 Z M 9.40625 6.632812 C 9.386719 6.632812 9.359375 6.652344 9.359375 6.699219 C 9.363281 6.789062 9.359375 6.820312 9.367188 6.867188 C 9.378906 6.917969 9.414062 6.929688 9.421875 6.871094 C 9.433594 6.8125 9.441406 6.734375 9.449219 6.691406 C 9.453125 6.652344 9.429688 6.632812 9.40625 6.632812 Z M 9.085938 6.65625 C 9.0625 6.660156 9.042969 6.679688 9.042969 6.703125 C 9.046875 6.746094 9.058594 6.796875 9.0625 6.859375 C 9.066406 6.921875 9.113281 6.898438 9.117188 6.859375 C 9.121094 6.824219 9.125 6.769531 9.121094 6.699219 C 9.121094 6.671875 9.109375 6.660156 9.09375 6.65625 C 9.089844 6.65625 9.089844 6.65625 9.085938 6.65625 Z M 9.550781 6.65625 C 9.535156 6.660156 9.523438 6.671875 9.523438 6.699219 C 9.519531 6.769531 9.523438 6.824219 9.527344 6.859375 C 9.535156 6.898438 9.578125 6.921875 9.582031 6.859375 C 9.589844 6.796875 9.601562 6.746094 9.601562 6.703125 C 9.605469 6.679688 9.582031 6.660156 9.558594 6.65625 C 9.558594 6.65625 9.554688 6.65625 9.550781 6.65625 Z M 8.902344 6.730469 C 8.882812 6.734375 8.867188 6.757812 8.871094 6.785156 C 8.882812 6.835938 8.894531 6.894531 8.894531 6.949219 C 8.894531 6.996094 8.933594 6.980469 8.933594 6.949219 C 8.9375 6.914062 8.941406 6.847656 8.941406 6.785156 C 8.941406 6.738281 8.921875 6.726562 8.902344 6.730469 Z M 9.730469 6.730469 C 9.714844 6.734375 9.703125 6.75 9.703125 6.785156 C 9.703125 6.847656 9.707031 6.914062 9.710938 6.949219 C 9.710938 6.980469 9.75 6.996094 9.75 6.949219 C 9.75 6.894531 9.761719 6.835938 9.773438 6.785156 C 9.78125 6.757812 9.761719 6.734375 9.742188 6.730469 C 9.738281 6.730469 9.734375 6.730469 9.730469 6.730469 Z M 7.246094 6.738281 C 7.222656 6.734375 7.207031 6.769531 7.222656 6.800781 C 7.25 6.859375 7.277344 6.890625 7.304688 6.953125 C 7.324219 7.003906 7.363281 6.972656 7.351562 6.933594 C 7.339844 6.898438 7.324219 6.855469 7.289062 6.777344 C 7.277344 6.75 7.261719 6.738281 7.246094 6.738281 Z M 11.398438 6.738281 C 11.382812 6.738281 11.367188 6.75 11.355469 6.777344 C 11.320312 6.855469 11.308594 6.898438 11.296875 6.933594 C 11.285156 6.972656 11.320312 7.003906 11.34375 6.953125 C 11.367188 6.890625 11.394531 6.859375 11.421875 6.800781 C 11.4375 6.769531 11.421875 6.734375 11.398438 6.738281 Z M 7.414062 6.738281 C 7.398438 6.746094 7.386719 6.765625 7.398438 6.792969 C 7.417969 6.84375 7.449219 6.894531 7.472656 6.949219 C 7.488281 6.996094 7.53125 6.984375 7.515625 6.941406 C 7.503906 6.894531 7.5 6.871094 7.472656 6.789062 C 7.457031 6.746094 7.433594 6.734375 7.414062 6.738281 Z M 11.214844 6.738281 C 11.203125 6.742188 11.183594 6.757812 11.175781 6.789062 C 11.148438 6.871094 11.144531 6.894531 11.128906 6.941406 C 11.113281 6.984375 11.15625 6.996094 11.175781 6.949219 C 11.195312 6.894531 11.226562 6.84375 11.246094 6.792969 C 11.257812 6.765625 11.246094 6.746094 11.230469 6.738281 C 11.226562 6.738281 11.222656 6.738281 11.214844 6.738281 Z M 7.625 6.78125 C 7.605469 6.785156 7.585938 6.816406 7.601562 6.855469 C 7.621094 6.90625 7.648438 6.957031 7.671875 7.011719 C 7.695312 7.070312 7.730469 7.058594 7.722656 7.023438 C 7.714844 6.984375 7.703125 6.925781 7.675781 6.832031 C 7.660156 6.792969 7.640625 6.777344 7.625 6.78125 Z M 11.019531 6.78125 C 11.003906 6.777344 10.984375 6.792969 10.972656 6.832031 C 10.941406 6.925781 10.933594 6.984375 10.921875 7.023438 C 10.914062 7.058594 10.953125 7.070312 10.976562 7.011719 C 11 6.957031 11.023438 6.90625 11.042969 6.855469 C 11.058594 6.816406 11.042969 6.785156 11.019531 6.78125 Z M 7.105469 6.808594 C 7.082031 6.8125 7.0625 6.847656 7.074219 6.878906 C 7.097656 6.921875 7.113281 6.9375 7.136719 6.988281 C 7.160156 7.039062 7.183594 7 7.175781 6.96875 C 7.167969 6.933594 7.152344 6.898438 7.144531 6.851562 C 7.132812 6.816406 7.121094 6.808594 7.105469 6.808594 Z M 11.539062 6.808594 C 11.527344 6.808594 11.511719 6.816406 11.503906 6.851562 C 11.492188 6.898438 11.480469 6.933594 11.46875 6.96875 C 11.460938 7 11.484375 7.039062 11.507812 6.988281 C 11.53125 6.9375 11.546875 6.921875 11.570312 6.878906 C 11.585938 6.847656 11.5625 6.8125 11.539062 6.808594 Z M 8.722656 6.925781 C 8.699219 6.925781 8.671875 6.957031 8.683594 6.988281 C 8.695312 7.035156 8.71875 7.078125 8.734375 7.140625 C 8.746094 7.195312 8.785156 7.167969 8.785156 7.132812 C 8.78125 7.09375 8.777344 7.046875 8.757812 6.96875 C 8.753906 6.9375 8.738281 6.925781 8.722656 6.925781 Z M 9.921875 6.925781 C 9.90625 6.925781 9.890625 6.9375 9.886719 6.96875 C 9.871094 7.046875 9.863281 7.09375 9.859375 7.132812 C 9.859375 7.167969 9.898438 7.195312 9.910156 7.140625 C 9.925781 7.078125 9.949219 7.035156 9.964844 6.988281 C 9.972656 6.957031 9.945312 6.925781 9.921875 6.925781 Z M 9.324219 6.976562 C 9.292969 6.976562 9.289062 7.015625 9.289062 7.046875 C 9.285156 7.15625 9.238281 7.257812 9.199219 7.3125 C 9.164062 7.363281 9.105469 7.347656 9.054688 7.320312 C 9 7.292969 8.96875 7.273438 8.914062 7.230469 C 8.859375 7.191406 8.816406 7.214844 8.882812 7.308594 C 9.078125 7.582031 9.289062 7.816406 9.289062 8.265625 C 9.289062 8.320312 9.296875 8.339844 9.324219 8.339844 C 9.347656 8.339844 9.359375 8.320312 9.359375 8.265625 C 9.359375 7.816406 9.570312 7.582031 9.761719 7.308594 C 9.828125 7.214844 9.785156 7.191406 9.730469 7.230469 C 9.675781 7.273438 9.644531 7.292969 9.589844 7.320312 C 9.539062 7.347656 9.484375 7.363281 9.445312 7.3125 C 9.40625 7.257812 9.363281 7.15625 9.359375 7.046875 C 9.355469 7.015625 9.351562 6.976562 9.324219 6.976562 Z M 7.839844 6.90625 C 7.839844 6.90625 7.835938 6.90625 7.832031 6.910156 C 7.820312 6.914062 7.8125 6.925781 7.820312 6.949219 C 7.828125 6.992188 7.855469 7.074219 7.867188 7.113281 C 7.878906 7.152344 7.925781 7.144531 7.914062 7.089844 C 7.902344 7.035156 7.90625 7.019531 7.890625 6.960938 C 7.882812 6.929688 7.859375 6.90625 7.839844 6.90625 Z M 10.804688 6.90625 C 10.785156 6.90625 10.761719 6.929688 10.753906 6.960938 C 10.742188 7.019531 10.742188 7.035156 10.730469 7.089844 C 10.71875 7.144531 10.765625 7.152344 10.777344 7.113281 C 10.789062 7.074219 10.820312 6.992188 10.828125 6.949219 C 10.832031 6.925781 10.824219 6.914062 10.8125 6.910156 C 10.808594 6.90625 10.808594 6.90625 10.804688 6.90625 Z M 6.960938 6.925781 C 6.9375 6.925781 6.917969 6.957031 6.941406 7 C 6.96875 7.050781 7.015625 7.109375 7.035156 7.144531 C 7.058594 7.179688 7.09375 7.15625 7.066406 7.113281 C 7.042969 7.066406 7.035156 7.019531 7.003906 6.957031 C 6.992188 6.933594 6.976562 6.921875 6.960938 6.925781 Z M 11.683594 6.925781 C 11.671875 6.921875 11.652344 6.933594 11.640625 6.957031 C 11.613281 7.019531 11.601562 7.066406 11.578125 7.113281 C 11.550781 7.15625 11.589844 7.179688 11.609375 7.144531 C 11.628906 7.109375 11.675781 7.050781 11.703125 7 C 11.726562 6.957031 11.710938 6.925781 11.683594 6.925781 Z M 5.628906 7.0625 C 5.601562 7.0625 5.59375 7.113281 5.617188 7.144531 C 5.65625 7.195312 5.683594 7.21875 5.726562 7.257812 C 5.761719 7.289062 5.773438 7.25 5.753906 7.21875 C 5.738281 7.1875 5.710938 7.15625 5.679688 7.105469 C 5.660156 7.074219 5.640625 7.0625 5.628906 7.0625 Z M 13.015625 7.0625 C 13.003906 7.0625 12.988281 7.074219 12.96875 7.105469 C 12.933594 7.15625 12.90625 7.1875 12.890625 7.21875 C 12.871094 7.25 12.882812 7.289062 12.917969 7.257812 C 12.960938 7.21875 12.988281 7.195312 13.027344 7.144531 C 13.054688 7.113281 13.042969 7.0625 13.015625 7.0625 Z M 5.839844 7.105469 C 5.816406 7.105469 5.804688 7.121094 5.820312 7.160156 C 5.847656 7.214844 5.878906 7.277344 5.898438 7.316406 C 5.921875 7.359375 5.984375 7.371094 5.957031 7.308594 C 5.933594 7.242188 5.929688 7.210938 5.90625 7.152344 C 5.894531 7.121094 5.863281 7.105469 5.839844 7.105469 Z M 12.804688 7.105469 C 12.78125 7.105469 12.753906 7.121094 12.742188 7.152344 C 12.71875 7.210938 12.710938 7.242188 12.6875 7.308594 C 12.660156 7.371094 12.726562 7.359375 12.746094 7.316406 C 12.765625 7.277344 12.800781 7.214844 12.824219 7.160156 C 12.84375 7.121094 12.828125 7.105469 12.804688 7.105469 Z M 5.429688 7.121094 C 5.398438 7.121094 5.394531 7.152344 5.425781 7.171875 C 5.464844 7.199219 5.507812 7.230469 5.554688 7.265625 C 5.605469 7.308594 5.625 7.269531 5.597656 7.234375 C 5.570312 7.199219 5.542969 7.164062 5.472656 7.132812 C 5.457031 7.121094 5.441406 7.121094 5.429688 7.121094 Z M 13.214844 7.121094 C 13.203125 7.121094 13.191406 7.121094 13.171875 7.132812 C 13.101562 7.164062 13.074219 7.199219 13.046875 7.234375 C 13.019531 7.269531 13.039062 7.308594 13.09375 7.265625 C 13.136719 7.230469 13.183594 7.199219 13.222656 7.171875 C 13.25 7.152344 13.246094 7.121094 13.214844 7.121094 Z M 8.609375 7.148438 C 8.589844 7.152344 8.574219 7.171875 8.582031 7.199219 C 8.597656 7.246094 8.613281 7.296875 8.621094 7.347656 C 8.632812 7.398438 8.6875 7.398438 8.679688 7.355469 C 8.667969 7.308594 8.664062 7.253906 8.648438 7.1875 C 8.640625 7.164062 8.628906 7.152344 8.617188 7.148438 C 8.613281 7.148438 8.609375 7.148438 8.609375 7.148438 Z M 10.027344 7.148438 C 10.015625 7.152344 10.003906 7.164062 9.996094 7.1875 C 9.980469 7.253906 9.976562 7.308594 9.96875 7.355469 C 9.957031 7.398438 10.015625 7.398438 10.023438 7.347656 C 10.03125 7.296875 10.050781 7.246094 10.0625 7.199219 C 10.070312 7.171875 10.054688 7.152344 10.035156 7.148438 C 10.035156 7.148438 10.03125 7.148438 10.027344 7.148438 Z M 7.34375 7.066406 C 7.332031 7.070312 7.320312 7.097656 7.332031 7.136719 C 7.390625 7.347656 7.410156 7.457031 7.398438 7.507812 C 7.390625 7.5625 7.359375 7.566406 7.324219 7.550781 C 7.285156 7.535156 7.238281 7.507812 7.203125 7.484375 C 7.167969 7.460938 7.132812 7.488281 7.183594 7.53125 C 7.4375 7.738281 7.613281 7.972656 7.683594 8.261719 C 7.695312 8.320312 7.734375 8.328125 7.722656 8.261719 C 7.664062 7.898438 7.652344 7.601562 7.742188 7.414062 C 7.773438 7.34375 7.742188 7.277344 7.6875 7.390625 C 7.652344 7.46875 7.597656 7.496094 7.550781 7.433594 C 7.507812 7.367188 7.414062 7.191406 7.386719 7.113281 C 7.375 7.082031 7.363281 7.070312 7.351562 7.066406 C 7.347656 7.066406 7.347656 7.066406 7.34375 7.066406 Z M 11.292969 7.066406 C 11.285156 7.070312 11.269531 7.082031 11.261719 7.113281 C 11.230469 7.191406 11.136719 7.367188 11.09375 7.433594 C 11.046875 7.496094 10.992188 7.46875 10.957031 7.390625 C 10.90625 7.277344 10.871094 7.34375 10.902344 7.414062 C 10.992188 7.601562 10.980469 7.898438 10.921875 8.261719 C 10.914062 8.328125 10.949219 8.320312 10.964844 8.261719 C 11.03125 7.972656 11.207031 7.738281 11.460938 7.53125 C 11.511719 7.488281 11.476562 7.460938 11.441406 7.484375 C 11.40625 7.507812 11.359375 7.535156 11.324219 7.550781 C 11.285156 7.566406 11.257812 7.5625 11.246094 7.507812 C 11.234375 7.457031 11.253906 7.347656 11.3125 7.136719 C 11.324219 7.097656 11.316406 7.070312 11.300781 7.066406 C 11.296875 7.066406 11.296875 7.066406 11.292969 7.066406 Z M 6.066406 7.167969 C 6.042969 7.167969 6.023438 7.183594 6.035156 7.21875 C 6.050781 7.273438 6.085938 7.332031 6.097656 7.367188 C 6.109375 7.402344 6.148438 7.386719 6.140625 7.339844 C 6.132812 7.289062 6.128906 7.261719 6.121094 7.207031 C 6.117188 7.179688 6.089844 7.167969 6.066406 7.167969 Z M 12.578125 7.167969 C 12.554688 7.167969 12.53125 7.179688 12.523438 7.207031 C 12.515625 7.261719 12.511719 7.289062 12.503906 7.339844 C 12.5 7.386719 12.535156 7.402344 12.546875 7.367188 C 12.558594 7.332031 12.59375 7.273438 12.609375 7.21875 C 12.621094 7.183594 12.601562 7.167969 12.578125 7.167969 Z M 6.855469 7.09375 C 6.828125 7.089844 6.824219 7.160156 6.847656 7.1875 C 6.878906 7.222656 6.917969 7.269531 6.960938 7.316406 C 6.996094 7.359375 7.019531 7.324219 6.996094 7.289062 C 6.976562 7.253906 6.945312 7.214844 6.890625 7.128906 C 6.875 7.105469 6.863281 7.097656 6.855469 7.09375 Z M 11.789062 7.09375 C 11.78125 7.097656 11.769531 7.105469 11.757812 7.128906 C 11.699219 7.214844 11.667969 7.253906 11.648438 7.289062 C 11.628906 7.324219 11.648438 7.359375 11.683594 7.316406 C 11.726562 7.269531 11.769531 7.222656 11.796875 7.1875 C 11.820312 7.160156 11.816406 7.089844 11.789062 7.09375 Z M 6.246094 7.261719 C 6.230469 7.257812 6.214844 7.273438 6.222656 7.304688 C 6.230469 7.351562 6.246094 7.390625 6.257812 7.433594 C 6.269531 7.476562 6.300781 7.46875 6.300781 7.429688 C 6.300781 7.386719 6.292969 7.339844 6.285156 7.296875 C 6.28125 7.277344 6.261719 7.261719 6.246094 7.261719 Z M 12.398438 7.261719 C 12.382812 7.261719 12.363281 7.277344 12.359375 7.296875 C 12.351562 7.339844 12.34375 7.386719 12.34375 7.429688 C 12.34375 7.46875 12.375 7.476562 12.386719 7.433594 C 12.398438 7.390625 12.414062 7.351562 12.421875 7.304688 C 12.429688 7.273438 12.414062 7.257812 12.398438 7.261719 Z M 6.796875 7.320312 C 6.769531 7.324219 6.746094 7.347656 6.777344 7.386719 C 6.828125 7.449219 6.878906 7.492188 6.898438 7.515625 C 6.917969 7.539062 6.964844 7.53125 6.933594 7.480469 C 6.902344 7.433594 6.855469 7.371094 6.835938 7.335938 C 6.828125 7.320312 6.8125 7.316406 6.796875 7.320312 Z M 11.839844 7.320312 C 11.828125 7.320312 11.816406 7.324219 11.808594 7.335938 C 11.789062 7.371094 11.742188 7.433594 11.710938 7.480469 C 11.679688 7.53125 11.726562 7.539062 11.746094 7.515625 C 11.765625 7.492188 11.820312 7.449219 11.867188 7.386719 C 11.898438 7.347656 11.875 7.324219 11.847656 7.320312 C 11.84375 7.320312 11.84375 7.320312 11.839844 7.320312 Z M 5.929688 7.492188 C 5.90625 7.492188 5.902344 7.507812 5.929688 7.546875 C 5.992188 7.628906 6.058594 7.757812 6.066406 7.816406 C 6.070312 7.871094 6.042969 7.871094 6.015625 7.871094 C 5.941406 7.871094 5.902344 7.8125 5.832031 7.796875 C 5.761719 7.78125 5.753906 7.816406 5.800781 7.855469 C 6.058594 8.039062 6.3125 8.242188 6.417969 8.429688 C 6.457031 8.507812 6.515625 8.535156 6.484375 8.460938 C 6.386719 8.238281 6.363281 8.050781 6.386719 7.9375 C 6.40625 7.824219 6.433594 7.746094 6.429688 7.679688 C 6.429688 7.613281 6.390625 7.621094 6.375 7.679688 C 6.363281 7.722656 6.34375 7.777344 6.332031 7.796875 C 6.316406 7.820312 6.261719 7.828125 6.207031 7.757812 C 6.152344 7.6875 6.019531 7.550781 5.972656 7.515625 C 5.957031 7.503906 5.941406 7.492188 5.929688 7.492188 Z M 12.71875 7.492188 C 12.703125 7.492188 12.6875 7.503906 12.671875 7.515625 C 12.625 7.550781 12.492188 7.6875 12.4375 7.757812 C 12.386719 7.828125 12.328125 7.820312 12.316406 7.796875 C 12.300781 7.777344 12.28125 7.722656 12.269531 7.679688 C 12.253906 7.621094 12.21875 7.613281 12.214844 7.679688 C 12.210938 7.746094 12.238281 7.824219 12.261719 7.9375 C 12.28125 8.050781 12.257812 8.238281 12.160156 8.460938 C 12.128906 8.535156 12.1875 8.507812 12.230469 8.429688 C 12.332031 8.242188 12.585938 8.039062 12.84375 7.855469 C 12.890625 7.816406 12.882812 7.78125 12.8125 7.796875 C 12.742188 7.8125 12.707031 7.871094 12.628906 7.871094 C 12.601562 7.871094 12.574219 7.871094 12.582031 7.816406 C 12.585938 7.757812 12.652344 7.628906 12.71875 7.546875 C 12.746094 7.507812 12.738281 7.492188 12.71875 7.492188 Z M 12.71875 7.492188 "/>
<path style="fill-rule:nonzero;fill:rgb(100%,84.705882%,23.921569%);fill-opacity:1;stroke-width:1.5;stroke-linecap:round;stroke-linejoin:round;stroke:rgb(0%,0%,0%);stroke-opacity:1;stroke-miterlimit:4;" d="M 150.111607 212.625 L 152.064732 218.8125 M 154.110863 211.5 L 155.877976 217.6875 M 158.482143 210.75 L 159.69122 217.125 M 162.481399 210 L 163.783482 216.28125 M 167.689732 209.4375 L 168.712798 215.8125 M 173.084077 209.4375 L 174.200149 215.8125 M 178.478423 207.65625 L 179.315476 214.03125 M 183.500744 207.9375 L 184.337798 214.40625 M 188.43006 207.28125 L 189.174107 213.75 M 193.266369 206.8125 L 193.731399 213.28125 M 198.474702 206.8125 L 198.939732 213.28125 M 203.218006 206.53125 L 203.59003 213 M 208.519345 206.15625 L 208.798363 212.625 M 214.471726 205.96875 L 214.750744 212.4375 M 293.805804 212.625 L 291.852679 218.8125 M 289.806548 211.5 L 288.039435 217.6875 M 285.435268 210.75 L 284.319196 217.125 M 281.436012 210 L 280.133929 216.28125 M 276.320685 209.4375 L 275.297619 215.8125 M 270.833333 209.4375 L 269.717262 215.8125 M 265.438988 207.65625 L 264.69494 214.03125 M 260.416667 207.9375 L 259.579613 214.40625 M 255.580357 207.28125 L 254.743304 213.75 M 250.651042 206.8125 L 250.186012 213.28125 M 245.442708 206.8125 L 245.070685 213.28125 M 240.699405 206.53125 L 240.327381 213 M 235.491071 206.15625 L 235.212054 212.625 M 229.445685 205.96875 L 229.166667 212.4375 M 222.005208 205.59375 L 222.005208 212.71875 " transform="matrix(0.042,0,0,0.0416667,0,0)"/>
</g>
</svg>
