<?xml version="1.0" encoding="UTF-8"?>
<svg xmlns="http://www.w3.org/2000/svg" xmlns:xlink="http://www.w3.org/1999/xlink" width="50pt" height="25pt" viewBox="0 0 50 25" version="1.1">
<g id="surface1">
<rect x="0" y="0" width="50" height="25" style="fill:rgb(82.352941%,0%,0%);fill-opacity:1;stroke:none;"/>
<path style=" stroke:none;fill-rule:nonzero;fill:rgb(100%,90.196078%,0%);fill-opacity:1;" d="M 0 0 L 7.5 0 L 25 12.054688 L 42.5 0 L 50 0 L 0 25 L 7.5 25 L 25 12.945312 L 42.5 25 L 50 25 Z M 50 10 L 50 15 L 0 10 L 0 15 Z M 22.5 0 L 25 10.714844 L 27.5 0 Z M 22.5 25 L 25 14.285156 L 27.5 25 Z M 22.5 25 "/>
<path style="fill-rule:nonzero;fill:rgb(100%,90.196078%,0%);fill-opacity:1;stroke-width:1;stroke-linecap:butt;stroke-linejoin:miter;stroke:rgb(82.352941%,0%,0%);stroke-opacity:1;stroke-miterlimit:4;" d="M 32.501875 14 C 32.501875 16.485 30.485 18.501875 28 18.501875 C 25.515 18.501875 23.498125 16.485 23.498125 14 C 23.498125 11.515 25.515 9.498125 28 9.498125 C 30.485 9.498125 32.501875 11.515 32.501875 14 Z M 32.501875 14 " transform="matrix(0.892857,0,0,0.892857,0,0)"/>
</g>
</svg>
