<?xml version="1.0" encoding="UTF-8"?>
<svg xmlns="http://www.w3.org/2000/svg" xmlns:xlink="http://www.w3.org/1999/xlink" width="38pt" height="25pt" viewBox="0 0 38 25" version="1.1">
<g id="surface1">
<rect x="0" y="0" width="38" height="25" style="fill:rgb(0%,0%,0%);fill-opacity:1;stroke:none;"/>
<path style=" stroke:none;fill-rule:nonzero;fill:rgb(80.784314%,6.666667%,14.901961%);fill-opacity:1;" d="M 24.445312 9.5 C 24.445312 12.46875 22.007812 14.875 19 14.875 C 15.992188 14.875 13.554688 12.46875 13.554688 9.5 C 13.554688 6.53125 15.992188 4.125 19 4.125 C 22.007812 4.125 24.445312 6.53125 24.445312 9.5 Z M 24.445312 9.5 "/>
<path style=" stroke:none;fill-rule:nonzero;fill:rgb(80.784314%,6.666667%,14.901961%);fill-opacity:1;" d="M 0 8.332031 L 38 8.332031 L 38 16.667969 L 0 16.667969 Z M 0 8.332031 "/>
<path style=" stroke:none;fill-rule:nonzero;fill:rgb(80.784314%,6.666667%,14.901961%);fill-opacity:1;" d="M 19 1 C 18.8125 1 18.746094 1.273438 18.746094 1.542969 C 18.746094 2.207031 18.832031 2.542969 19 3.5 C 19.171875 2.542969 19.253906 2.199219 19.253906 1.542969 C 19.253906 1.265625 19.167969 1 19 1 "/>
<path style=" stroke:none;fill-rule:nonzero;fill:rgb(80.784314%,6.666667%,14.901961%);fill-opacity:1;" d="M 19.75 1.03125 C 19.566406 1.015625 19.472656 1.285156 19.449219 1.550781 C 19.390625 2.214844 19.445312 2.554688 19.53125 3.523438 C 19.785156 2.582031 19.898438 2.25 19.957031 1.59375 C 19.980469 1.320312 19.917969 1.046875 19.75 1.03125 "/>
<path style=" stroke:none;fill-rule:nonzero;fill:rgb(80.784314%,6.666667%,14.901961%);fill-opacity:1;" d="M 20.496094 1.128906 C 20.3125 1.097656 20.199219 1.355469 20.152344 1.621094 C 20.035156 2.277344 20.058594 2.617188 20.054688 3.589844 C 20.394531 2.675781 20.535156 2.355469 20.648438 1.707031 C 20.699219 1.433594 20.660156 1.15625 20.496094 1.128906 "/>
<path style=" stroke:none;fill-rule:nonzero;fill:rgb(80.784314%,6.666667%,14.901961%);fill-opacity:1;" d="M 21.230469 1.289062 C 21.050781 1.242188 20.914062 1.492188 20.84375 1.75 C 20.667969 2.390625 20.660156 2.734375 20.574219 3.703125 C 20.992188 2.824219 21.160156 2.511719 21.332031 1.878906 C 21.402344 1.613281 21.390625 1.332031 21.230469 1.289062 "/>
<path style=" stroke:none;fill-rule:nonzero;fill:rgb(80.784314%,6.666667%,14.901961%);fill-opacity:1;" d="M 21.945312 1.511719 C 21.769531 1.449219 21.613281 1.683594 21.519531 1.9375 C 21.289062 2.5625 21.253906 2.90625 21.078125 3.863281 C 21.574219 3.019531 21.769531 2.726562 21.996094 2.105469 C 22.089844 1.847656 22.105469 1.570312 21.945312 1.511719 "/>
<path style=" stroke:none;fill-rule:nonzero;fill:rgb(80.784314%,6.666667%,14.901961%);fill-opacity:1;" d="M 22.640625 1.796875 C 22.472656 1.71875 22.292969 1.941406 22.179688 2.183594 C 21.894531 2.785156 21.828125 3.125 21.570312 4.0625 C 22.136719 3.265625 22.355469 2.988281 22.636719 2.394531 C 22.753906 2.144531 22.792969 1.867188 22.640625 1.796875 "/>
<path style=" stroke:none;fill-rule:nonzero;fill:rgb(80.784314%,6.666667%,14.901961%);fill-opacity:1;" d="M 23.308594 2.140625 C 23.144531 2.046875 22.949219 2.25 22.8125 2.484375 C 22.476562 3.058594 22.378906 3.390625 22.039062 4.304688 C 22.675781 3.558594 22.917969 3.304688 23.25 2.734375 C 23.390625 2.496094 23.453125 2.222656 23.308594 2.140625 "/>
<path style=" stroke:none;fill-rule:nonzero;fill:rgb(80.784314%,6.666667%,14.901961%);fill-opacity:1;" d="M 23.941406 2.539062 C 23.789062 2.433594 23.574219 2.617188 23.417969 2.835938 C 23.03125 3.382812 22.90625 3.703125 22.488281 4.585938 C 23.183594 3.898438 23.449219 3.664062 23.832031 3.125 C 23.992188 2.898438 24.078125 2.632812 23.941406 2.539062 "/>
<path style=" stroke:none;fill-rule:nonzero;fill:rgb(80.784314%,6.666667%,14.901961%);fill-opacity:1;" d="M 24.535156 2.988281 C 24.394531 2.871094 24.164062 3.039062 23.988281 3.242188 C 23.554688 3.753906 23.402344 4.0625 22.90625 4.902344 C 23.664062 4.277344 23.949219 4.070312 24.378906 3.5625 C 24.558594 3.355469 24.664062 3.097656 24.535156 2.988281 "/>
<path style=" stroke:none;fill-rule:nonzero;fill:rgb(80.784314%,6.666667%,14.901961%);fill-opacity:1;" d="M 25.089844 3.488281 C 24.960938 3.359375 24.714844 3.507812 24.523438 3.695312 C 24.046875 4.167969 23.867188 4.460938 23.300781 5.257812 C 24.109375 4.699219 24.410156 4.515625 24.882812 4.050781 C 25.078125 3.855469 25.210938 3.609375 25.089844 3.488281 "/>
<path style=" stroke:none;fill-rule:nonzero;fill:rgb(80.784314%,6.666667%,14.901961%);fill-opacity:1;" d="M 25.597656 4.035156 C 25.480469 3.894531 25.222656 4.023438 25.015625 4.191406 C 24.496094 4.621094 24.292969 4.898438 23.65625 5.644531 C 24.511719 5.15625 24.828125 5 25.339844 4.574219 C 25.554688 4.398438 25.707031 4.164062 25.597656 4.035156 "/>
<path style=" stroke:none;fill-rule:nonzero;fill:rgb(80.784314%,6.666667%,14.901961%);fill-opacity:1;" d="M 26.054688 4.625 C 25.949219 4.472656 25.683594 4.578125 25.460938 4.730469 C 24.90625 5.113281 24.679688 5.371094 23.980469 6.058594 C 24.875 5.648438 25.203125 5.519531 25.75 5.140625 C 25.980469 4.980469 26.152344 4.761719 26.054688 4.625 "/>
<path style=" stroke:none;fill-rule:nonzero;fill:rgb(80.784314%,6.666667%,14.901961%);fill-opacity:1;" d="M 26.460938 5.25 C 26.367188 5.089844 26.089844 5.171875 25.855469 5.304688 C 25.273438 5.636719 25.023438 5.875 24.265625 6.5 C 25.191406 6.167969 25.53125 6.066406 26.109375 5.738281 C 26.351562 5.601562 26.542969 5.394531 26.460938 5.25 "/>
<path style=" stroke:none;fill-rule:nonzero;fill:rgb(80.784314%,6.666667%,14.901961%);fill-opacity:1;" d="M 26.804688 5.90625 C 26.726562 5.742188 26.445312 5.796875 26.203125 5.910156 C 25.589844 6.191406 25.320312 6.410156 24.511719 6.964844 C 25.464844 6.714844 25.8125 6.640625 26.414062 6.363281 C 26.667969 6.246094 26.878906 6.058594 26.804688 5.90625 "/>
<path style=" stroke:none;fill-rule:nonzero;fill:rgb(80.784314%,6.666667%,14.901961%);fill-opacity:1;" d="M 27.09375 6.59375 C 27.03125 6.421875 26.746094 6.453125 26.492188 6.542969 C 25.855469 6.769531 25.566406 6.964844 24.714844 7.449219 C 25.683594 7.28125 26.039062 7.238281 26.664062 7.011719 C 26.925781 6.917969 27.152344 6.75 27.09375 6.59375 "/>
<path style=" stroke:none;fill-rule:nonzero;fill:rgb(80.784314%,6.666667%,14.901961%);fill-opacity:1;" d="M 27.320312 7.300781 C 27.273438 7.121094 26.984375 7.128906 26.722656 7.199219 C 26.070312 7.371094 25.765625 7.539062 24.871094 7.945312 C 25.855469 7.863281 26.210938 7.851562 26.855469 7.683594 C 27.125 7.609375 27.363281 7.460938 27.320312 7.300781 "/>
<path style=" stroke:none;fill-rule:nonzero;fill:rgb(80.784314%,6.666667%,14.901961%);fill-opacity:1;" d="M 10.515625 8.023438 C 10.484375 8.203125 10.746094 8.316406 11.015625 8.363281 C 11.679688 8.480469 12.027344 8.457031 13.011719 8.457031 C 12.085938 8.125 11.757812 7.984375 11.101562 7.871094 C 10.828125 7.824219 10.546875 7.859375 10.515625 8.023438 "/>
<path style=" stroke:none;fill-rule:nonzero;fill:rgb(80.784314%,6.666667%,14.901961%);fill-opacity:1;" d="M 10.679688 7.300781 C 10.632812 7.476562 10.882812 7.613281 11.144531 7.683594 C 11.796875 7.855469 12.144531 7.859375 13.128906 7.945312 C 12.234375 7.535156 11.921875 7.367188 11.277344 7.199219 C 11.007812 7.128906 10.722656 7.140625 10.679688 7.300781 "/>
<path style=" stroke:none;fill-rule:nonzero;fill:rgb(80.784314%,6.666667%,14.901961%);fill-opacity:1;" d="M 10.90625 6.59375 C 10.84375 6.765625 11.082031 6.921875 11.335938 7.011719 C 11.96875 7.242188 12.316406 7.277344 13.285156 7.449219 C 12.433594 6.960938 12.136719 6.769531 11.507812 6.542969 C 11.246094 6.449219 10.964844 6.4375 10.90625 6.59375 "/>
<path style=" stroke:none;fill-rule:nonzero;fill:rgb(80.784314%,6.666667%,14.901961%);fill-opacity:1;" d="M 11.195312 5.90625 C 11.113281 6.074219 11.339844 6.25 11.585938 6.363281 C 12.195312 6.644531 12.539062 6.710938 13.488281 6.964844 C 12.683594 6.40625 12.402344 6.1875 11.796875 5.910156 C 11.546875 5.792969 11.265625 5.757812 11.195312 5.90625 "/>
<path style=" stroke:none;fill-rule:nonzero;fill:rgb(80.784314%,6.666667%,14.901961%);fill-opacity:1;" d="M 11.539062 5.25 C 11.449219 5.410156 11.65625 5.605469 11.890625 5.738281 C 12.472656 6.070312 12.808594 6.164062 13.734375 6.5 C 12.980469 5.875 12.71875 5.632812 12.144531 5.304688 C 11.902344 5.167969 11.625 5.105469 11.539062 5.25 "/>
<path style=" stroke:none;fill-rule:nonzero;fill:rgb(80.784314%,6.666667%,14.901961%);fill-opacity:1;" d="M 11.945312 4.625 C 11.835938 4.773438 12.027344 4.988281 12.25 5.140625 C 12.800781 5.523438 13.128906 5.644531 14.019531 6.058594 C 13.324219 5.371094 13.085938 5.109375 12.539062 4.730469 C 12.3125 4.574219 12.042969 4.488281 11.945312 4.625 "/>
<path style=" stroke:none;fill-rule:nonzero;fill:rgb(80.784314%,6.666667%,14.901961%);fill-opacity:1;" d="M 12.402344 4.035156 C 12.28125 4.175781 12.453125 4.40625 12.660156 4.574219 C 13.175781 5.003906 13.488281 5.15625 14.34375 5.644531 C 13.710938 4.898438 13.496094 4.617188 12.984375 4.191406 C 12.773438 4.015625 12.511719 3.910156 12.402344 4.035156 "/>
<path style=" stroke:none;fill-rule:nonzero;fill:rgb(80.784314%,6.666667%,14.901961%);fill-opacity:1;" d="M 12.910156 3.488281 C 12.777344 3.621094 12.925781 3.859375 13.117188 4.050781 C 13.597656 4.519531 13.894531 4.699219 14.699219 5.257812 C 14.136719 4.460938 13.949219 4.160156 13.476562 3.695312 C 13.28125 3.5 13.027344 3.371094 12.910156 3.488281 "/>
<path style=" stroke:none;fill-rule:nonzero;fill:rgb(80.784314%,6.666667%,14.901961%);fill-opacity:1;" d="M 13.464844 2.988281 C 13.320312 3.105469 13.449219 3.359375 13.621094 3.5625 C 14.054688 4.074219 14.339844 4.277344 15.09375 4.902344 C 14.597656 4.058594 14.4375 3.746094 14.011719 3.242188 C 13.832031 3.03125 13.59375 2.882812 13.464844 2.988281 "/>
<path style=" stroke:none;fill-rule:nonzero;fill:rgb(80.784314%,6.666667%,14.901961%);fill-opacity:1;" d="M 14.058594 2.539062 C 13.90625 2.640625 14.011719 2.90625 14.167969 3.125 C 14.554688 3.671875 14.816406 3.894531 15.511719 4.585938 C 15.097656 3.703125 14.964844 3.375 14.582031 2.835938 C 14.421875 2.613281 14.199219 2.441406 14.058594 2.539062 "/>
<path style=" stroke:none;fill-rule:nonzero;fill:rgb(80.784314%,6.666667%,14.901961%);fill-opacity:1;" d="M 14.691406 2.140625 C 14.53125 2.230469 14.613281 2.5 14.75 2.734375 C 15.085938 3.308594 15.328125 3.558594 15.960938 4.304688 C 15.625 3.390625 15.519531 3.054688 15.1875 2.484375 C 15.046875 2.246094 14.839844 2.054688 14.691406 2.140625 "/>
<path style=" stroke:none;fill-rule:nonzero;fill:rgb(80.784314%,6.666667%,14.901961%);fill-opacity:1;" d="M 15.359375 1.796875 C 15.191406 1.875 15.246094 2.152344 15.363281 2.394531 C 15.648438 2.996094 15.867188 3.265625 16.429688 4.0625 C 16.175781 3.121094 16.101562 2.777344 15.820312 2.183594 C 15.703125 1.933594 15.511719 1.726562 15.359375 1.796875 "/>
<path style=" stroke:none;fill-rule:nonzero;fill:rgb(80.784314%,6.666667%,14.901961%);fill-opacity:1;" d="M 16.054688 1.511719 C 15.878906 1.574219 15.910156 1.855469 16.003906 2.105469 C 16.234375 2.734375 16.429688 3.019531 16.921875 3.863281 C 16.75 2.902344 16.707031 2.554688 16.480469 1.9375 C 16.382812 1.675781 16.210938 1.457031 16.054688 1.511719 "/>
<path style=" stroke:none;fill-rule:nonzero;fill:rgb(80.784314%,6.666667%,14.901961%);fill-opacity:1;" d="M 16.769531 1.289062 C 16.589844 1.335938 16.597656 1.621094 16.667969 1.878906 C 16.84375 2.523438 17.011719 2.820312 17.425781 3.703125 C 17.339844 2.734375 17.332031 2.382812 17.15625 1.75 C 17.085938 1.484375 16.933594 1.246094 16.769531 1.289062 "/>
<path style=" stroke:none;fill-rule:nonzero;fill:rgb(80.784314%,6.666667%,14.901961%);fill-opacity:1;" d="M 17.503906 1.128906 C 17.320312 1.160156 17.304688 1.445312 17.351562 1.707031 C 17.46875 2.363281 17.609375 2.675781 17.945312 3.589844 C 17.945312 2.617188 17.964844 2.265625 17.847656 1.621094 C 17.800781 1.347656 17.671875 1.101562 17.503906 1.128906 "/>
<path style=" stroke:none;fill-rule:nonzero;fill:rgb(80.784314%,6.666667%,14.901961%);fill-opacity:1;" d="M 18.25 1.03125 C 18.0625 1.046875 18.019531 1.328125 18.042969 1.59375 C 18.105469 2.257812 18.21875 2.582031 18.46875 3.523438 C 18.558594 2.554688 18.609375 2.207031 18.550781 1.550781 C 18.523438 1.277344 18.417969 1.019531 18.25 1.03125 "/>
<path style=" stroke:none;fill-rule:nonzero;fill:rgb(0%,0%,0%);fill-opacity:1;" d="M 0 7.707031 L 38 7.707031 L 38 8.332031 L 0 8.332031 Z M 0 7.707031 "/>
<path style=" stroke:none;fill-rule:nonzero;fill:rgb(20%,61.960784%,20.784314%);fill-opacity:1;" d="M 0 16.667969 L 38 16.667969 L 38 25 L 0 25 Z M 0 16.667969 "/>
</g>
</svg>
