<?xml version="1.0" encoding="UTF-8"?>
<svg xmlns="http://www.w3.org/2000/svg" xmlns:xlink="http://www.w3.org/1999/xlink" width="38pt" height="25pt" viewBox="0 0 38 25" version="1.1">
<g id="surface1">
<rect x="0" y="0" width="38" height="25" style="fill:rgb(82.352941%,6.27451%,20.392157%);fill-opacity:1;stroke:none;"/>
<path style=" stroke:none;fill-rule:nonzero;fill:rgb(0%,49.411765%,22.745098%);fill-opacity:1;" d="M 6.332031 6.25 L 31.667969 6.25 L 31.667969 18.75 L 6.332031 18.75 Z M 6.332031 6.25 "/>
<path style=" stroke:none;fill-rule:nonzero;fill:rgb(100%,100%,100%);fill-opacity:1;" d="M 24.804688 12.5 C 24.804688 14.800781 22.914062 16.667969 20.582031 16.667969 C 18.25 16.667969 16.359375 14.800781 16.359375 12.5 C 16.359375 10.199219 18.25 8.332031 20.582031 8.332031 C 22.914062 8.332031 24.804688 10.199219 24.804688 12.5 Z M 24.804688 12.5 "/>
<path style=" stroke:none;fill-rule:nonzero;fill:rgb(0%,49.411765%,22.745098%);fill-opacity:1;" d="M 26.390625 12.5 C 26.390625 14.800781 24.5 16.667969 22.167969 16.667969 C 19.835938 16.667969 17.945312 14.800781 17.945312 12.5 C 17.945312 10.199219 19.835938 8.332031 22.167969 8.332031 C 24.5 8.332031 26.390625 10.199219 26.390625 12.5 Z M 26.390625 12.5 "/>
</g>
</svg>
