<?xml version="1.0" encoding="UTF-8"?>
<svg xmlns="http://www.w3.org/2000/svg" xmlns:xlink="http://www.w3.org/1999/xlink" width="38pt" height="25pt" viewBox="0 0 38 25" version="1.1">
<g id="surface1">
<rect x="0" y="0" width="38" height="25" style="fill:rgb(81.176471%,7.843137%,16.862745%);fill-opacity:1;stroke:none;"/>
<path style=" stroke:none;fill-rule:nonzero;fill:rgb(100%,100%,100%);fill-opacity:1;" d="M 0 0 L 19 0 L 19 25 L 0 25 Z M 0 0 "/>
<path style=" stroke:none;fill-rule:nonzero;fill:rgb(90.196078%,5.098039%,18.039216%);fill-opacity:1;" d="M 0.9375 3.449219 L 0.9375 5.34375 L 2.859375 5.34375 C 2.859375 5.660156 3.175781 5.976562 3.496094 5.976562 L 3.496094 7.871094 L 5.417969 7.871094 L 5.417969 5.976562 C 5.734375 5.976562 6.054688 5.660156 6.054688 5.34375 L 7.976562 5.34375 L 7.976562 3.449219 L 6.054688 3.449219 C 6.054688 3.136719 5.734375 2.820312 5.417969 2.820312 L 5.417969 0.925781 L 3.496094 0.925781 L 3.496094 2.820312 C 3.175781 2.820312 2.859375 3.136719 2.859375 3.449219 Z M 0.9375 3.449219 "/>
<path style=" stroke:none;fill-rule:nonzero;fill:rgb(58.823529%,52.941176%,49.019608%);fill-opacity:1;" d="M 1.066406 3.578125 L 1.066406 5.21875 L 2.984375 5.21875 C 2.984375 5.535156 3.304688 5.851562 3.625 5.851562 L 3.625 7.742188 L 5.289062 7.742188 L 5.289062 5.851562 C 5.609375 5.851562 5.929688 5.535156 5.929688 5.21875 L 7.847656 5.21875 L 7.847656 3.578125 L 5.929688 3.578125 C 5.929688 3.261719 5.609375 2.945312 5.289062 2.945312 L 5.289062 1.050781 L 3.625 1.050781 L 3.625 2.945312 C 3.304688 2.945312 2.984375 3.261719 2.984375 3.578125 Z M 1.066406 3.578125 "/>
<path style=" stroke:none;fill-rule:nonzero;fill:rgb(80%,80%,80%);fill-opacity:1;" d="M 1.128906 3.640625 L 1.128906 5.15625 L 3.050781 5.15625 C 3.050781 5.472656 3.371094 5.785156 3.6875 5.785156 L 3.6875 7.679688 L 5.222656 7.679688 L 5.222656 5.785156 C 5.542969 5.785156 5.863281 5.472656 5.863281 5.15625 L 7.785156 5.15625 L 7.785156 3.640625 L 5.863281 3.640625 C 5.863281 3.324219 5.542969 3.007812 5.222656 3.007812 L 5.222656 1.117188 L 3.6875 1.117188 L 3.6875 3.007812 C 3.371094 3.007812 3.050781 3.324219 3.050781 3.640625 Z M 1.128906 3.640625 "/>
<path style=" stroke:none;fill-rule:nonzero;fill:rgb(58.823529%,52.941176%,49.019608%);fill-opacity:1;" d="M 3.570312 2.988281 C 3.683594 3.097656 3.652344 3.308594 3.5 3.457031 C 3.351562 3.601562 3.140625 3.632812 3.027344 3.523438 C 2.914062 3.410156 2.945312 3.203125 3.09375 3.054688 C 3.246094 2.90625 3.457031 2.875 3.570312 2.988281 Z M 3.570312 2.988281 "/>
<path style=" stroke:none;fill-rule:nonzero;fill:rgb(81.568627%,81.568627%,81.568627%);fill-opacity:1;" d="M 3.003906 3.320312 L 3.050781 3.277344 L 3.230469 3.367188 L 3.140625 3.1875 L 3.183594 3.144531 L 3.367188 3.5 Z M 3.003906 3.320312 "/>
<path style=" stroke:none;fill-rule:nonzero;fill:rgb(81.568627%,81.568627%,81.568627%);fill-opacity:1;" d="M 3.273438 3.054688 L 3.320312 3.007812 L 3.59375 3.277344 L 3.546875 3.320312 Z M 3.273438 3.054688 "/>
<path style=" stroke:none;fill-rule:nonzero;fill:rgb(58.823529%,52.941176%,49.019608%);fill-opacity:1;" d="M 5.886719 3.523438 C 5.773438 3.632812 5.5625 3.601562 5.410156 3.457031 C 5.261719 3.308594 5.230469 3.097656 5.34375 2.988281 C 5.457031 2.875 5.667969 2.90625 5.820312 3.054688 C 5.96875 3.203125 6 3.410156 5.886719 3.523438 Z M 5.886719 3.523438 "/>
<path style=" stroke:none;fill-rule:nonzero;fill:rgb(81.568627%,81.568627%,81.568627%);fill-opacity:1;" d="M 5.546875 2.964844 L 5.59375 3.007812 L 5.503906 3.1875 L 5.683594 3.097656 L 5.730469 3.144531 L 5.367188 3.320312 Z M 5.546875 2.964844 "/>
<path style=" stroke:none;fill-rule:nonzero;fill:rgb(81.568627%,81.568627%,81.568627%);fill-opacity:1;" d="M 5.820312 3.230469 L 5.863281 3.277344 L 5.59375 3.542969 L 5.546875 3.5 Z M 5.820312 3.230469 "/>
<path style=" stroke:none;fill-rule:nonzero;fill:rgb(58.823529%,52.941176%,49.019608%);fill-opacity:1;" d="M 5.34375 5.808594 C 5.230469 5.699219 5.261719 5.488281 5.410156 5.339844 C 5.5625 5.191406 5.773438 5.164062 5.886719 5.273438 C 6 5.386719 5.96875 5.59375 5.820312 5.742188 C 5.667969 5.890625 5.457031 5.921875 5.34375 5.808594 Z M 5.34375 5.808594 "/>
<path style=" stroke:none;fill-rule:nonzero;fill:rgb(81.568627%,81.568627%,81.568627%);fill-opacity:1;" d="M 5.910156 5.476562 L 5.863281 5.519531 L 5.683594 5.429688 L 5.773438 5.609375 L 5.730469 5.652344 L 5.546875 5.296875 Z M 5.910156 5.476562 "/>
<path style=" stroke:none;fill-rule:nonzero;fill:rgb(81.568627%,81.568627%,81.568627%);fill-opacity:1;" d="M 5.636719 5.742188 L 5.59375 5.789062 L 5.320312 5.519531 L 5.367188 5.476562 Z M 5.636719 5.742188 "/>
<path style=" stroke:none;fill-rule:nonzero;fill:rgb(58.823529%,52.941176%,49.019608%);fill-opacity:1;" d="M 3.027344 5.273438 C 3.140625 5.164062 3.351562 5.191406 3.5 5.339844 C 3.652344 5.488281 3.683594 5.699219 3.570312 5.808594 C 3.457031 5.921875 3.246094 5.890625 3.09375 5.742188 C 2.945312 5.59375 2.914062 5.386719 3.027344 5.273438 Z M 3.027344 5.273438 "/>
<path style=" stroke:none;fill-rule:nonzero;fill:rgb(81.568627%,81.568627%,81.568627%);fill-opacity:1;" d="M 3.367188 5.832031 L 3.320312 5.789062 L 3.410156 5.609375 L 3.230469 5.699219 L 3.183594 5.652344 L 3.546875 5.476562 Z M 3.367188 5.832031 "/>
<path style=" stroke:none;fill-rule:nonzero;fill:rgb(81.568627%,81.568627%,81.568627%);fill-opacity:1;" d="M 3.09375 5.5625 L 3.050781 5.519531 L 3.320312 5.25 L 3.367188 5.296875 Z M 3.09375 5.5625 "/>
<path style="fill:none;stroke-width:0.514;stroke-linecap:butt;stroke-linejoin:miter;stroke:rgb(58.823529%,52.941176%,49.019608%);stroke-opacity:1;stroke-miterlimit:4;" d="M 137.386924 105.5625 C 137.386924 123.09375 123.139391 137.34375 105.561266 137.34375 C 87.983141 137.34375 73.735609 123.09375 73.735609 105.5625 C 73.735609 87.9375 87.983141 73.78125 105.561266 73.78125 C 123.139391 73.78125 137.386924 87.9375 137.386924 105.5625 Z M 137.386924 105.5625 " transform="matrix(0.0422222,0,0,0.0416667,0,0)"/>
<path style="fill:none;stroke-width:0.514;stroke-linecap:butt;stroke-linejoin:miter;stroke:rgb(58.823529%,52.941176%,49.019608%);stroke-opacity:1;stroke-miterlimit:4;" d="M 129.800576 105.5625 C 129.800576 118.96875 118.976151 129.84375 105.561266 129.84375 C 92.146382 129.84375 81.321957 118.96875 81.321957 105.5625 C 81.321957 92.15625 92.146382 81.28125 105.561266 81.28125 C 118.976151 81.28125 129.800576 92.15625 129.800576 105.5625 Z M 129.800576 105.5625 " transform="matrix(0.0422222,0,0,0.0416667,0,0)"/>
<path style=" stroke:none;fill-rule:nonzero;fill:rgb(0%,0%,0%);fill-opacity:1;" d="M 4.007812 5.472656 C 4.007812 5.507812 3.980469 5.535156 3.945312 5.535156 C 3.910156 5.535156 3.882812 5.507812 3.882812 5.472656 C 3.882812 5.4375 3.910156 5.40625 3.945312 5.40625 C 3.980469 5.40625 4.007812 5.4375 4.007812 5.472656 Z M 4.007812 5.472656 "/>
<path style=" stroke:none;fill-rule:nonzero;fill:rgb(0%,0%,0%);fill-opacity:1;" d="M 5.03125 5.472656 C 5.03125 5.507812 5.003906 5.535156 4.96875 5.535156 C 4.933594 5.535156 4.90625 5.507812 4.90625 5.472656 C 4.90625 5.4375 4.933594 5.40625 4.96875 5.40625 C 5.003906 5.40625 5.03125 5.4375 5.03125 5.472656 Z M 5.03125 5.472656 "/>
<path style=" stroke:none;fill-rule:nonzero;fill:rgb(0%,0%,0%);fill-opacity:1;" d="M 4.414062 5.472656 L 4.414062 5.535156 L 4.328125 5.535156 C 4.242188 5.535156 4.242188 5.601562 4.328125 5.601562 L 4.414062 5.601562 L 4.414062 5.667969 C 4.414062 5.738281 4.488281 5.746094 4.496094 5.675781 L 4.5 5.601562 L 4.585938 5.601562 C 4.671875 5.601562 4.671875 5.539062 4.585938 5.539062 L 4.5 5.539062 L 4.5 5.472656 C 4.5 5.40625 4.414062 5.40625 4.414062 5.472656 Z M 4.414062 5.472656 "/>
<path style=" stroke:none;fill-rule:nonzero;fill:rgb(0%,0%,0%);fill-opacity:1;" d="M 3.207031 4.726562 L 3.292969 4.703125 L 3.285156 4.664062 C 3.28125 4.65625 3.277344 4.648438 3.273438 4.644531 C 3.269531 4.640625 3.261719 4.640625 3.246094 4.640625 L 3.246094 4.636719 L 3.320312 4.617188 L 3.324219 4.625 C 3.316406 4.625 3.308594 4.628906 3.304688 4.632812 C 3.300781 4.636719 3.300781 4.640625 3.296875 4.644531 C 3.296875 4.648438 3.296875 4.652344 3.300781 4.660156 L 3.308594 4.699219 L 3.378906 4.683594 C 3.390625 4.683594 3.398438 4.679688 3.402344 4.675781 C 3.402344 4.675781 3.40625 4.671875 3.40625 4.667969 C 3.40625 4.664062 3.40625 4.65625 3.40625 4.652344 L 3.40625 4.644531 L 3.410156 4.644531 L 3.433594 4.738281 L 3.425781 4.738281 L 3.425781 4.730469 C 3.421875 4.722656 3.417969 4.714844 3.414062 4.714844 C 3.410156 4.710938 3.398438 4.710938 3.386719 4.714844 L 3.242188 4.75 C 3.230469 4.753906 3.222656 4.753906 3.21875 4.757812 C 3.21875 4.757812 3.214844 4.761719 3.214844 4.765625 C 3.214844 4.769531 3.210938 4.777344 3.214844 4.78125 L 3.214844 4.789062 L 3.210938 4.789062 L 3.171875 4.625 L 3.21875 4.613281 L 3.21875 4.617188 C 3.210938 4.625 3.203125 4.628906 3.199219 4.632812 C 3.195312 4.636719 3.191406 4.644531 3.191406 4.648438 C 3.191406 4.65625 3.191406 4.664062 3.195312 4.675781 Z M 3.148438 4.332031 C 3.152344 4.304688 3.164062 4.277344 3.1875 4.257812 C 3.210938 4.238281 3.242188 4.230469 3.273438 4.230469 C 3.308594 4.234375 3.339844 4.246094 3.359375 4.269531 C 3.382812 4.292969 3.390625 4.320312 3.390625 4.347656 C 3.386719 4.378906 3.375 4.40625 3.351562 4.425781 C 3.328125 4.445312 3.296875 4.453125 3.261719 4.453125 C 3.226562 4.449219 3.199219 4.4375 3.175781 4.410156 C 3.15625 4.390625 3.148438 4.363281 3.148438 4.332031 Z M 3.164062 4.335938 C 3.160156 4.355469 3.167969 4.375 3.183594 4.386719 C 3.199219 4.402344 3.226562 4.414062 3.265625 4.414062 C 3.300781 4.417969 3.332031 4.410156 3.351562 4.394531 C 3.367188 4.382812 3.378906 4.367188 3.378906 4.347656 C 3.378906 4.328125 3.371094 4.308594 3.355469 4.292969 C 3.339844 4.28125 3.3125 4.273438 3.277344 4.269531 C 3.238281 4.265625 3.207031 4.273438 3.1875 4.289062 C 3.171875 4.300781 3.164062 4.316406 3.164062 4.335938 Z M 3.496094 3.921875 L 3.472656 3.980469 L 3.34375 4.011719 C 3.34375 4.019531 3.34375 4.023438 3.339844 4.027344 C 3.339844 4.027344 3.339844 4.027344 3.339844 4.03125 C 3.339844 4.03125 3.335938 4.035156 3.335938 4.035156 L 3.398438 4.058594 C 3.414062 4.0625 3.421875 4.066406 3.425781 4.0625 C 3.433594 4.0625 3.4375 4.058594 3.441406 4.046875 L 3.445312 4.039062 L 3.449219 4.042969 L 3.414062 4.132812 L 3.410156 4.132812 L 3.410156 4.125 C 3.414062 4.113281 3.414062 4.105469 3.410156 4.101562 C 3.40625 4.097656 3.398438 4.09375 3.386719 4.089844 L 3.25 4.035156 C 3.234375 4.03125 3.226562 4.03125 3.222656 4.03125 C 3.214844 4.035156 3.210938 4.039062 3.207031 4.046875 L 3.207031 4.054688 L 3.199219 4.054688 L 3.230469 3.976562 C 3.238281 3.953125 3.246094 3.9375 3.253906 3.925781 C 3.261719 3.917969 3.269531 3.910156 3.28125 3.90625 C 3.292969 3.902344 3.304688 3.902344 3.320312 3.90625 C 3.332031 3.914062 3.339844 3.921875 3.347656 3.933594 C 3.355469 3.945312 3.355469 3.960938 3.351562 3.980469 L 3.433594 3.960938 C 3.449219 3.957031 3.460938 3.949219 3.46875 3.945312 C 3.476562 3.941406 3.484375 3.929688 3.488281 3.921875 Z M 3.328125 4.03125 C 3.328125 4.03125 3.328125 4.027344 3.328125 4.027344 C 3.328125 4.023438 3.332031 4.023438 3.332031 4.023438 C 3.339844 4.003906 3.339844 3.984375 3.335938 3.972656 C 3.328125 3.957031 3.320312 3.949219 3.308594 3.945312 C 3.292969 3.9375 3.28125 3.9375 3.269531 3.945312 C 3.257812 3.949219 3.25 3.957031 3.242188 3.972656 C 3.242188 3.976562 3.238281 3.988281 3.238281 4 Z M 3.816406 3.28125 L 3.859375 3.335938 L 3.855469 3.339844 C 3.839844 3.328125 3.828125 3.320312 3.8125 3.316406 C 3.796875 3.316406 3.777344 3.320312 3.757812 3.328125 C 3.734375 3.347656 3.722656 3.367188 3.722656 3.394531 C 3.722656 3.417969 3.730469 3.441406 3.742188 3.464844 C 3.757812 3.480469 3.769531 3.496094 3.789062 3.507812 C 3.804688 3.515625 3.820312 3.519531 3.835938 3.519531 C 3.851562 3.519531 3.867188 3.515625 3.878906 3.507812 C 3.886719 3.503906 3.894531 3.5 3.898438 3.492188 C 3.902344 3.488281 3.910156 3.480469 3.914062 3.472656 L 3.875 3.417969 C 3.871094 3.40625 3.863281 3.402344 3.863281 3.398438 C 3.859375 3.398438 3.855469 3.398438 3.851562 3.398438 C 3.847656 3.398438 3.839844 3.402344 3.832031 3.40625 L 3.828125 3.402344 L 3.902344 3.351562 L 3.90625 3.359375 L 3.902344 3.359375 C 3.894531 3.363281 3.894531 3.371094 3.894531 3.378906 C 3.894531 3.382812 3.898438 3.390625 3.902344 3.398438 L 3.941406 3.457031 C 3.933594 3.472656 3.925781 3.480469 3.917969 3.492188 C 3.910156 3.5 3.898438 3.511719 3.886719 3.519531 C 3.847656 3.542969 3.8125 3.546875 3.777344 3.539062 C 3.75 3.527344 3.730469 3.511719 3.714844 3.488281 C 3.703125 3.472656 3.699219 3.453125 3.695312 3.433594 C 3.695312 3.410156 3.699219 3.386719 3.707031 3.367188 C 3.71875 3.347656 3.730469 3.335938 3.75 3.320312 C 3.757812 3.316406 3.765625 3.3125 3.769531 3.3125 C 3.777344 3.308594 3.785156 3.304688 3.800781 3.304688 C 3.804688 3.300781 3.8125 3.300781 3.8125 3.300781 C 3.8125 3.296875 3.816406 3.296875 3.816406 3.292969 C 3.816406 3.292969 3.8125 3.289062 3.8125 3.28125 Z M 4.191406 3.304688 L 4.105469 3.328125 L 4.097656 3.367188 C 4.097656 3.375 4.097656 3.382812 4.097656 3.386719 C 4.101562 3.390625 4.101562 3.394531 4.105469 3.394531 C 4.109375 3.394531 4.117188 3.394531 4.128906 3.394531 L 4.128906 3.398438 L 4.058594 3.417969 L 4.058594 3.414062 C 4.066406 3.40625 4.074219 3.40625 4.074219 3.402344 C 4.078125 3.394531 4.082031 3.382812 4.085938 3.363281 L 4.113281 3.164062 L 4.121094 3.160156 L 4.246094 3.324219 C 4.257812 3.335938 4.265625 3.34375 4.269531 3.347656 C 4.277344 3.351562 4.285156 3.351562 4.292969 3.351562 L 4.296875 3.355469 L 4.207031 3.378906 L 4.207031 3.375 C 4.214844 3.371094 4.222656 3.367188 4.222656 3.363281 C 4.226562 3.359375 4.226562 3.355469 4.226562 3.355469 C 4.226562 3.347656 4.21875 3.34375 4.214844 3.332031 Z M 4.183594 3.292969 L 4.121094 3.214844 L 4.105469 3.3125 Z M 4.589844 3.292969 L 4.59375 3.292969 L 4.574219 3.355469 L 4.394531 3.347656 L 4.394531 3.34375 L 4.402344 3.34375 C 4.414062 3.34375 4.421875 3.339844 4.425781 3.335938 C 4.429688 3.332031 4.429688 3.324219 4.429688 3.308594 L 4.4375 3.164062 C 4.4375 3.148438 4.433594 3.140625 4.433594 3.136719 C 4.425781 3.132812 4.421875 3.128906 4.414062 3.128906 L 4.402344 3.128906 L 4.402344 3.121094 L 4.507812 3.125 L 4.507812 3.132812 C 4.496094 3.132812 4.488281 3.132812 4.480469 3.132812 C 4.476562 3.136719 4.472656 3.140625 4.472656 3.144531 C 4.46875 3.144531 4.46875 3.15625 4.46875 3.167969 L 4.460938 3.3125 C 4.460938 3.320312 4.460938 3.328125 4.464844 3.328125 C 4.464844 3.332031 4.46875 3.335938 4.46875 3.335938 C 4.472656 3.335938 4.480469 3.335938 4.496094 3.339844 L 4.511719 3.339844 C 4.53125 3.339844 4.542969 3.339844 4.550781 3.335938 C 4.558594 3.332031 4.566406 3.328125 4.570312 3.324219 C 4.578125 3.316406 4.582031 3.308594 4.589844 3.292969 Z M 4.894531 3.375 L 4.902344 3.375 L 4.863281 3.429688 L 4.695312 3.375 L 4.695312 3.367188 L 4.703125 3.371094 C 4.714844 3.375 4.71875 3.375 4.726562 3.367188 C 4.730469 3.367188 4.734375 3.359375 4.738281 3.347656 L 4.785156 3.207031 C 4.789062 3.195312 4.789062 3.183594 4.789062 3.179688 C 4.785156 3.175781 4.78125 3.167969 4.773438 3.167969 L 4.765625 3.164062 L 4.765625 3.160156 L 4.863281 3.191406 L 4.863281 3.195312 C 4.851562 3.191406 4.84375 3.191406 4.835938 3.191406 C 4.832031 3.191406 4.828125 3.195312 4.824219 3.195312 C 4.820312 3.199219 4.820312 3.207031 4.8125 3.21875 L 4.769531 3.355469 C 4.765625 3.363281 4.765625 3.371094 4.765625 3.375 C 4.765625 3.378906 4.765625 3.378906 4.769531 3.382812 C 4.773438 3.382812 4.78125 3.386719 4.792969 3.390625 L 4.808594 3.398438 C 4.828125 3.402344 4.839844 3.40625 4.847656 3.40625 C 4.855469 3.40625 4.863281 3.402344 4.871094 3.398438 C 4.878906 3.394531 4.886719 3.386719 4.894531 3.375 Z M 5.144531 3.503906 L 5.070312 3.453125 L 5.035156 3.472656 C 5.027344 3.476562 5.023438 3.480469 5.019531 3.484375 C 5.019531 3.488281 5.019531 3.492188 5.019531 3.496094 C 5.019531 3.5 5.023438 3.503906 5.035156 3.511719 L 5.03125 3.515625 L 4.972656 3.476562 L 4.976562 3.472656 C 4.984375 3.476562 4.988281 3.476562 4.992188 3.476562 C 5 3.476562 5.011719 3.46875 5.027344 3.460938 L 5.203125 3.355469 L 5.207031 3.359375 L 5.164062 3.558594 C 5.160156 3.574219 5.160156 3.585938 5.160156 3.589844 C 5.164062 3.597656 5.167969 3.605469 5.175781 3.609375 L 5.171875 3.617188 L 5.097656 3.5625 L 5.101562 3.558594 C 5.109375 3.5625 5.113281 3.566406 5.117188 3.566406 C 5.121094 3.566406 5.125 3.5625 5.128906 3.558594 C 5.128906 3.554688 5.132812 3.550781 5.136719 3.539062 Z M 5.148438 3.492188 L 5.167969 3.394531 L 5.082031 3.445312 Z M 5.417969 3.539062 L 5.457031 3.589844 L 5.402344 3.800781 L 5.507812 3.722656 C 5.519531 3.714844 5.527344 3.710938 5.527344 3.703125 C 5.527344 3.699219 5.527344 3.691406 5.519531 3.683594 L 5.515625 3.679688 L 5.519531 3.675781 L 5.570312 3.738281 L 5.5625 3.742188 L 5.558594 3.734375 C 5.554688 3.726562 5.546875 3.722656 5.539062 3.722656 C 5.535156 3.726562 5.527344 3.730469 5.515625 3.734375 L 5.363281 3.851562 L 5.359375 3.84375 L 5.417969 3.617188 L 5.300781 3.699219 C 5.292969 3.707031 5.285156 3.714844 5.285156 3.71875 C 5.28125 3.726562 5.285156 3.730469 5.289062 3.738281 L 5.292969 3.746094 L 5.289062 3.75 L 5.242188 3.683594 L 5.246094 3.679688 L 5.25 3.6875 C 5.257812 3.695312 5.265625 3.699219 5.269531 3.699219 C 5.277344 3.699219 5.28125 3.695312 5.292969 3.6875 L 5.421875 3.59375 C 5.425781 3.582031 5.425781 3.578125 5.425781 3.574219 C 5.425781 3.566406 5.425781 3.5625 5.421875 3.554688 C 5.421875 3.554688 5.417969 3.550781 5.414062 3.542969 Z M 5.710938 4.066406 L 5.660156 4.085938 L 5.65625 4.082031 C 5.664062 4.078125 5.671875 4.074219 5.675781 4.070312 C 5.679688 4.066406 5.683594 4.058594 5.683594 4.050781 C 5.683594 4.046875 5.683594 4.039062 5.679688 4.03125 L 5.667969 4 L 5.503906 4.058594 C 5.492188 4.0625 5.484375 4.066406 5.480469 4.070312 C 5.476562 4.074219 5.476562 4.082031 5.480469 4.089844 L 5.484375 4.097656 L 5.476562 4.101562 L 5.445312 4.007812 L 5.449219 4.007812 L 5.453125 4.015625 C 5.457031 4.023438 5.460938 4.03125 5.46875 4.03125 C 5.472656 4.03125 5.480469 4.03125 5.492188 4.027344 L 5.660156 3.96875 L 5.648438 3.941406 C 5.644531 3.933594 5.644531 3.925781 5.640625 3.921875 C 5.636719 3.917969 5.628906 3.914062 5.625 3.914062 C 5.617188 3.910156 5.605469 3.910156 5.597656 3.914062 L 5.59375 3.90625 L 5.648438 3.894531 Z M 5.527344 4.46875 L 5.523438 4.410156 L 5.628906 4.328125 C 5.628906 4.320312 5.625 4.316406 5.625 4.3125 C 5.625 4.3125 5.625 4.308594 5.625 4.308594 C 5.625 4.308594 5.625 4.304688 5.625 4.304688 L 5.558594 4.308594 C 5.546875 4.308594 5.535156 4.308594 5.53125 4.3125 C 5.527344 4.316406 5.527344 4.324219 5.527344 4.332031 L 5.527344 4.339844 L 5.519531 4.339844 L 5.515625 4.246094 L 5.523438 4.246094 L 5.523438 4.253906 C 5.523438 4.261719 5.527344 4.269531 5.53125 4.273438 C 5.535156 4.273438 5.542969 4.277344 5.558594 4.273438 L 5.707031 4.265625 C 5.722656 4.265625 5.730469 4.265625 5.734375 4.261719 C 5.738281 4.257812 5.738281 4.25 5.738281 4.242188 L 5.738281 4.234375 L 5.746094 4.234375 L 5.75 4.316406 C 5.75 4.339844 5.75 4.355469 5.746094 4.367188 C 5.742188 4.378906 5.738281 4.390625 5.730469 4.398438 C 5.71875 4.40625 5.707031 4.410156 5.695312 4.414062 C 5.679688 4.414062 5.667969 4.410156 5.65625 4.402344 C 5.648438 4.390625 5.640625 4.378906 5.632812 4.359375 L 5.570312 4.410156 C 5.554688 4.421875 5.546875 4.429688 5.542969 4.4375 C 5.535156 4.445312 5.535156 4.457031 5.535156 4.46875 Z M 5.636719 4.304688 C 5.636719 4.304688 5.636719 4.308594 5.636719 4.308594 C 5.636719 4.308594 5.636719 4.3125 5.636719 4.3125 C 5.636719 4.335938 5.644531 4.351562 5.652344 4.359375 C 5.664062 4.371094 5.675781 4.375 5.691406 4.375 C 5.707031 4.375 5.71875 4.371094 5.726562 4.359375 C 5.734375 4.351562 5.738281 4.339844 5.738281 4.324219 C 5.738281 4.316406 5.734375 4.308594 5.734375 4.296875 Z M 5.699219 4.769531 L 5.679688 4.847656 L 5.671875 4.84375 L 5.675781 4.839844 C 5.675781 4.839844 5.675781 4.832031 5.675781 4.828125 C 5.671875 4.820312 5.671875 4.816406 5.667969 4.808594 C 5.664062 4.804688 5.65625 4.796875 5.648438 4.789062 L 5.578125 4.714844 L 5.523438 4.699219 C 5.507812 4.695312 5.5 4.695312 5.496094 4.695312 C 5.488281 4.699219 5.484375 4.707031 5.484375 4.714844 L 5.480469 4.722656 L 5.476562 4.71875 L 5.5 4.625 L 5.507812 4.628906 L 5.503906 4.636719 C 5.5 4.644531 5.503906 4.652344 5.507812 4.65625 C 5.511719 4.660156 5.519531 4.664062 5.53125 4.667969 L 5.582031 4.679688 L 5.691406 4.644531 C 5.707031 4.640625 5.714844 4.636719 5.71875 4.636719 C 5.71875 4.632812 5.726562 4.628906 5.730469 4.621094 C 5.734375 4.621094 5.734375 4.617188 5.734375 4.613281 L 5.742188 4.613281 L 5.714844 4.710938 L 5.710938 4.707031 L 5.710938 4.703125 C 5.710938 4.699219 5.714844 4.691406 5.710938 4.6875 C 5.710938 4.683594 5.707031 4.679688 5.703125 4.679688 C 5.699219 4.675781 5.691406 4.679688 5.679688 4.683594 L 5.59375 4.710938 L 5.652344 4.769531 C 5.660156 4.78125 5.667969 4.785156 5.671875 4.785156 C 5.675781 4.789062 5.679688 4.789062 5.679688 4.785156 C 5.683594 4.785156 5.6875 4.785156 5.6875 4.78125 C 5.691406 4.777344 5.691406 4.773438 5.695312 4.769531 Z M 5.699219 4.769531 "/>
<path style="fill-rule:nonzero;fill:rgb(58.823529%,52.941176%,49.019608%);fill-opacity:1;stroke-width:0.203;stroke-linecap:butt;stroke-linejoin:miter;stroke:rgb(0%,0%,0%);stroke-opacity:1;stroke-miterlimit:4;" d="M 122.861842 110.15625 C 123.416941 110.0625 124.249589 110.15625 124.249589 110.15625 C 124.249589 110.15625 124.342105 110.53125 124.064556 110.625 C 124.342105 110.8125 125.26727 110.71875 125.26727 110.71875 C 125.26727 110.71875 124.897204 111 124.712171 111.09375 C 125.082237 111.1875 125.452303 111.5625 125.452303 111.5625 C 125.452303 111.5625 124.712171 111.75 124.342105 111.5625 C 124.619655 111.9375 124.527138 112.3125 124.527138 112.3125 C 124.527138 112.3125 123.324424 112.03125 122.861842 111.1875 " transform="matrix(0.0422222,0,0,0.0416667,0,0)"/>
<path style="fill-rule:nonzero;fill:rgb(58.823529%,52.941176%,49.019608%);fill-opacity:1;stroke-width:0.203;stroke-linecap:butt;stroke-linejoin:miter;stroke:rgb(0%,0%,0%);stroke-opacity:1;stroke-miterlimit:4;" d="M 120.733964 109.5 C 120.456414 110.25 118.23602 108.84375 118.23602 108.84375 C 118.23602 108.84375 119.253701 110.4375 120.733964 110.53125 " transform="matrix(0.0422222,0,0,0.0416667,0,0)"/>
<path style="fill-rule:nonzero;fill:rgb(58.823529%,52.941176%,49.019608%);fill-opacity:1;stroke-width:0.203;stroke-linecap:butt;stroke-linejoin:miter;stroke:rgb(0%,0%,0%);stroke-opacity:1;stroke-miterlimit:4;" d="M 93.164062 123.65625 L 119.068668 123.65625 L 121.011513 122.0625 L 117.680921 120.28125 L 112.592516 118.5 L 110.557155 117.375 L 106.76398 117.65625 L 103.618421 119.34375 L 99.270148 119.8125 L 98.159951 121.03125 L 95.014391 121.21875 L 89.925987 121.125 L 98.344984 122.4375 L 91.40625 122.15625 Z M 93.164062 123.65625 " transform="matrix(0.0422222,0,0,0.0416667,0,0)"/>
<path style="fill-rule:nonzero;fill:rgb(58.823529%,52.941176%,49.019608%);fill-opacity:1;stroke-width:0.203;stroke-linecap:butt;stroke-linejoin:miter;stroke:rgb(0%,0%,0%);stroke-opacity:1;stroke-miterlimit:4;" d="M 107.134046 116.25 C 103.89597 114.46875 102.970806 118.78125 101.490543 119.8125 C 103.433388 120.09375 104.821135 118.40625 106.486431 117.46875 C 107.689145 120.84375 109.63199 118.59375 109.63199 118.59375 C 109.63199 118.59375 111.574836 121.78125 114.257812 120.375 C 114.997944 120.9375 115.830592 120.46875 115.830592 120.46875 C 115.830592 120.46875 116.848273 120.65625 117.033306 120.1875 C 117.495888 120.375 118.050987 119.71875 118.050987 119.71875 C 118.050987 119.71875 119.161184 119.71875 119.438734 119.15625 C 121.10403 119.4375 123.231908 115.78125 123.231908 115.78125 L 123.972039 114.46875 L 124.897204 114.28125 C 124.897204 114.28125 124.98972 113.625 124.434622 113.625 C 124.434622 113.25 124.064556 113.0625 123.601974 113.15625 C 123.69449 112.96875 123.324424 112.78125 123.324424 112.78125 C 122.39926 112.96875 122.39926 115.3125 122.39926 115.3125 C 122.39926 115.3125 120.733964 116.53125 120.178865 116.8125 C 120.178865 115.5 117.95847 113.71875 118.421053 112.875 C 118.883635 112.03125 120.271382 114.1875 121.566612 113.8125 C 122.861842 113.34375 123.416941 111.75 123.509457 110.4375 C 123.139391 109.59375 122.306743 108.09375 122.306743 108.09375 L 121.474095 108.09375 L 120.733964 106.3125 C 120.733964 106.3125 119.253701 107.34375 119.253701 108.1875 C 119.253701 109.03125 120.82648 109.78125 120.82648 109.78125 C 120.82648 109.78125 119.993832 110.34375 119.068668 110.0625 C 119.068668 110.90625 120.178865 110.8125 120.548931 110.8125 C 120.733964 111.46875 121.381579 111.75 121.381579 111.75 C 121.381579 111.75 121.751645 112.6875 120.733964 112.6875 C 119.716283 112.59375 118.606086 110.25 117.125822 111.28125 C 115.645559 112.40625 117.865954 114.46875 117.865954 114.46875 C 117.865954 114.46875 116.478207 115.21875 115.738076 116.90625 C 112.5 114.28125 110.649671 115.5 107.134046 116.25 Z M 107.134046 116.25 " transform="matrix(0.0422222,0,0,0.0416667,0,0)"/>
<path style="fill-rule:nonzero;fill:rgb(58.823529%,52.941176%,49.019608%);fill-opacity:1;stroke-width:0.203;stroke-linecap:butt;stroke-linejoin:miter;stroke:rgb(0%,0%,0%);stroke-opacity:1;stroke-miterlimit:4;" d="M 102.415707 111.65625 C 103.803454 112.96875 102.878289 115.03125 103.340872 115.40625 C 103.89597 115.875 104.728618 115.21875 104.728618 115.21875 C 106.116365 115.59375 108.614309 114.75 108.614309 114.75 C 109.724507 115.40625 109.261924 114.46875 109.909539 114.5625 C 110.557155 116.0625 112.5 115.78125 112.5 115.78125 C 112.5 115.78125 110.742187 113.90625 109.539474 113.4375 C 108.706826 113.90625 106.208882 114 105.746299 113.90625 C 105.283717 113.8125 105.653783 113.25 105.376234 112.875 C 106.301398 112.03125 105.561266 109.78125 105.098684 108.9375 C 103.063322 107.625 100.565378 109.96875 102.415707 111.65625 Z M 102.415707 111.65625 " transform="matrix(0.0422222,0,0,0.0416667,0,0)"/>
<path style="fill-rule:nonzero;fill:rgb(58.823529%,52.941176%,49.019608%);fill-opacity:1;stroke-width:0.203;stroke-linecap:butt;stroke-linejoin:miter;stroke:rgb(0%,0%,0%);stroke-opacity:1;stroke-miterlimit:4;" d="M 93.626645 107.90625 C 91.961349 108.375 89.000822 105.75 87.613076 106.78125 C 86.317845 107.8125 86.965461 110.25 87.798109 111.46875 C 88.723273 112.6875 86.502878 113.15625 85.94778 113.8125 C 85.392681 114.46875 86.132812 115.3125 86.132812 115.3125 L 86.780428 115.6875 L 86.687911 116.625 L 86.965461 117.65625 C 86.965461 117.65625 87.24301 117.9375 87.335526 117.5625 C 87.613076 117.84375 87.428043 118.6875 88.075658 118.78125 C 87.798109 118.3125 88.260691 116.8125 88.260691 116.8125 C 88.260691 116.8125 89.463405 116.90625 89.83347 116.4375 C 90.11102 115.875 89.463405 114.75 89.463405 114.75 L 89.83347 114.75 C 89.463405 114.46875 89.278372 113.625 89.278372 113.625 C 89.278372 113.625 91.036184 113.0625 91.036184 111.84375 C 90.943668 110.53125 88.260691 109.125 89.278372 108.46875 C 90.388569 107.8125 92.238898 110.4375 93.904194 109.21875 C 95.56949 108 94.459293 109.125 94.459293 109.125 C 94.459293 109.125 95.291941 107.4375 93.626645 107.90625 Z M 93.626645 107.90625 " transform="matrix(0.0422222,0,0,0.0416667,0,0)"/>
<path style="fill-rule:nonzero;fill:rgb(58.823529%,52.941176%,49.019608%);fill-opacity:1;stroke-width:0.203;stroke-linecap:butt;stroke-linejoin:miter;stroke:rgb(0%,0%,0%);stroke-opacity:1;stroke-miterlimit:4;" d="M 102.230674 90 C 100.01028 89.0625 95.384457 88.96875 92.886513 87.75 C 91.776316 87.75 91.221217 88.6875 91.221217 89.0625 C 90.018503 88.96875 89.278372 90.84375 89.370888 91.21875 C 87.24301 90.28125 86.317845 93.65625 86.965461 94.40625 C 85.115132 94.5 85.392681 96.75 85.207648 97.40625 C 84.652549 98.8125 85.300164 99.28125 86.502878 98.8125 C 86.687911 99.46875 86.410362 99.75 85.94778 99.84375 C 89.093339 103.5 90.851151 97.6875 93.626645 97.6875 C 97.049753 96.65625 98.4375 94.96875 98.4375 94.96875 L 99.825247 95.15625 C 99.825247 95.15625 102.230674 90 102.230674 90 Z M 102.230674 90 " transform="matrix(0.0422222,0,0,0.0416667,0,0)"/>
<path style="fill-rule:nonzero;fill:rgb(58.823529%,52.941176%,49.019608%);fill-opacity:1;stroke-width:0.203;stroke-linecap:butt;stroke-linejoin:miter;stroke:rgb(0%,0%,0%);stroke-opacity:1;stroke-miterlimit:4;" d="M 108.429276 87.375 C 108.429276 89.25 106.949013 90.65625 105.191201 90.65625 C 103.340872 90.65625 101.860609 89.25 101.860609 87.375 C 101.860609 85.59375 103.340872 84.09375 105.191201 84.09375 C 106.949013 84.09375 108.429276 85.59375 108.429276 87.375 Z M 108.429276 87.375 " transform="matrix(0.0422222,0,0,0.0416667,0,0)"/>
<path style="fill-rule:nonzero;fill:rgb(58.823529%,52.941176%,49.019608%);fill-opacity:1;stroke-width:0.203;stroke-linecap:butt;stroke-linejoin:miter;stroke:rgb(0%,0%,0%);stroke-opacity:1;stroke-miterlimit:4;" d="M 99.362664 113.4375 C 97.234786 113.0625 93.904194 110.90625 93.534128 108.09375 C 95.476974 100.59375 105.283717 104.53125 106.116365 98.90625 C 105.931332 95.15625 106.578947 91.5 108.614309 88.40625 C 109.63199 87.1875 110.834704 86.90625 110.834704 86.90625 C 110.834704 86.90625 111.112253 87.65625 110.742187 88.21875 C 112.407484 88.03125 114.627878 88.96875 116.108141 89.0625 C 116.570724 89.90625 116.570724 90.28125 116.478207 90.84375 C 116.385691 91.40625 115.738076 91.21875 115.738076 91.21875 C 115.36801 91.59375 114.812911 91.96875 113.79523 91.78125 C 112.962582 92.4375 111.297286 92.53125 111.297286 92.53125 C 111.297286 92.53125 114.812911 96.28125 114.257812 97.5 C 114.997944 97.78125 116.108141 99.46875 116.108141 99.46875 C 116.108141 99.46875 118.513569 98.15625 119.346217 97.03125 C 120.733964 97.03125 123.046875 98.53125 124.157072 98.625 C 125.637336 99.75 127.025082 100.96875 127.025082 100.96875 C 127.025082 100.96875 125.359786 102.09375 124.619655 100.59375 C 123.69449 100.6875 121.844161 98.53125 119.161184 99.1875 C 119.068668 101.53125 116.478207 103.21875 116.478207 103.21875 C 116.478207 103.21875 118.883635 102.84375 120.271382 103.6875 C 121.566612 104.8125 123.601974 106.40625 123.601974 106.40625 L 125.452303 109.5 C 125.452303 109.5 123.787007 109.78125 123.139391 107.625 C 122.584293 109.3125 122.491776 106.59375 120.086349 105.28125 C 119.346217 105.375 118.976151 105.375 118.328536 104.90625 C 116.570724 105.375 114.535362 106.40625 112.037418 106.125 C 110.279605 106.6875 108.984375 108.1875 107.226562 108.9375 C 105.46875 109.78125 104.913651 109.40625 104.913651 109.40625 L 103.525905 109.40625 C 103.248355 110.25 103.433388 111.5625 102.60074 111.84375 C 103.063322 112.3125 102.230674 114.65625 101.398026 115.03125 C 101.768092 116.53125 102.970806 117 104.266036 117.75 C 104.266036 117.75 105.376234 117.1875 106.116365 117.84375 C 106.856497 118.5 107.596628 120.46875 107.596628 120.46875 C 107.596628 120.46875 106.023849 120.5625 105.561266 120.28125 C 105.098684 120.09375 105.098684 119.625 104.543586 119.71875 C 101.027961 116.71875 99.177632 117.9375 98.900082 117.1875 C 98.530016 116.4375 99.73273 114.5625 99.362664 113.4375 Z M 99.362664 113.4375 " transform="matrix(0.0422222,0,0,0.0416667,0,0)"/>
<path style="fill-rule:nonzero;fill:rgb(58.823529%,52.941176%,49.019608%);fill-opacity:1;stroke-width:0.203;stroke-linecap:butt;stroke-linejoin:miter;stroke:rgb(0%,0%,0%);stroke-opacity:1;stroke-miterlimit:4;" d="M 91.036184 99.65625 C 91.128701 99.46875 92.423931 99.9375 92.423931 99.9375 L 94.736842 101.34375 L 99.455181 104.4375 L 101.120477 106.875 L 98.159951 105.84375 L 93.996711 102.28125 L 91.683799 100.78125 C 91.683799 100.78125 90.851151 99.84375 91.036184 99.65625 Z M 91.036184 99.65625 " transform="matrix(0.0422222,0,0,0.0416667,0,0)"/>
<path style="fill-rule:nonzero;fill:rgb(58.823529%,52.941176%,49.019608%);fill-opacity:1;stroke-width:0.203;stroke-linecap:butt;stroke-linejoin:miter;stroke:rgb(0%,0%,0%);stroke-opacity:1;stroke-miterlimit:4;" d="M 118.883635 107.34375 C 117.218339 106.96875 113.240132 111.84375 113.240132 111.84375 L 116.200658 115.125 C 116.200658 115.125 116.293174 109.5 118.883635 107.34375 Z M 118.883635 107.34375 " transform="matrix(0.0422222,0,0,0.0416667,0,0)"/>
<path style="fill-rule:nonzero;fill:rgb(58.823529%,52.941176%,49.019608%);fill-opacity:1;stroke-width:0.203;stroke-linecap:butt;stroke-linejoin:miter;stroke:rgb(0%,0%,0%);stroke-opacity:1;stroke-miterlimit:4;" d="M 98.992599 93.75 C 98.159951 94.96875 98.067434 97.21875 99.177632 98.15625 C 99.362664 99.5625 100.472862 102.375 101.398026 102.5625 C 102.415707 102.84375 106.486431 103.875 108.059211 103.59375 C 107.781661 106.125 109.817023 108.1875 111.667352 109.59375 C 111.667352 109.78125 111.667352 110.0625 111.852385 110.34375 C 112.129934 110.625 113.055099 110.71875 113.147615 110.53125 C 113.517681 111.1875 115.645559 111.46875 115.830592 111.1875 C 115.923109 110.90625 112.685033 108.65625 111.944901 107.90625 C 111.389803 106.78125 110.187089 104.25 109.909539 102.1875 C 108.33676 100.3125 105.561266 100.3125 105.561266 100.3125 L 105.653783 96.5625 L 105.838816 92.4375 L 104.358553 91.59375 C 104.358553 91.59375 104.636102 91.5 104.821135 91.3125 C 105.191201 91.5 105.838816 90.75 105.931332 90.5625 C 106.301398 90.65625 106.578947 90.65625 106.671464 90.46875 C 106.671464 90.375 106.76398 89.625 106.856497 89.25 C 107.966694 88.21875 106.76398 86.15625 105.006168 86.15625 C 103.340872 86.0625 102.970806 88.125 102.970806 88.3125 C 103.155839 88.96875 103.063322 89.25 102.970806 89.4375 C 102.878289 89.625 102.230674 89.90625 102.230674 89.90625 C 102.230674 89.90625 101.30551 89.53125 100.195312 89.90625 C 98.992599 90.375 97.697368 91.03125 97.604852 91.78125 C 97.14227 91.78125 96.217105 92.53125 96.124589 93.09375 C 95.662007 93 95.014391 93.375 94.089227 94.96875 C 92.238898 95.71875 92.146382 99.5625 92.146382 99.5625 C 92.146382 99.5625 91.683799 100.21875 91.683799 100.59375 C 91.683799 100.96875 91.868832 101.25 92.053865 101.25 C 92.146382 101.4375 92.423931 101.71875 92.608964 101.625 C 92.608964 101.90625 92.97903 102 93.164062 102 C 93.164062 102.09375 93.904194 102.09375 93.904194 101.90625 C 93.996711 101.8125 93.904194 100.96875 93.904194 100.875 C 93.996711 100.78125 94.551809 101.25 94.736842 101.15625 C 94.921875 100.96875 94.736842 100.6875 94.644326 100.5 C 94.551809 100.40625 94.089227 100.21875 93.904194 99.65625 C 93.811678 99 94.27426 98.15625 94.27426 98.15625 C 94.27426 98.15625 96.217105 96.65625 96.402138 95.34375 C 97.882401 95.53125 98.622533 94.3125 98.992599 93.75 Z M 98.992599 93.75 " transform="matrix(0.0422222,0,0,0.0416667,0,0)"/>
<path style="fill-rule:nonzero;fill:rgb(58.823529%,52.941176%,49.019608%);fill-opacity:1;stroke-width:0.203;stroke-linecap:butt;stroke-linejoin:miter;stroke:rgb(0%,0%,0%);stroke-opacity:1;stroke-miterlimit:4;" d="M 95.662007 88.40625 C 96.124589 87.28125 97.697368 87.375 97.697368 87.375 C 97.697368 87.375 98.252467 85.875 100.380345 86.8125 C 101.212993 86.15625 103.340872 87.09375 103.340872 87.09375 C 103.340872 87.09375 104.081003 85.96875 105.191201 86.15625 C 107.04153 86.34375 107.411595 88.125 107.319079 88.40625 C 106.208882 88.6875 104.451069 87.5625 103.063322 87.84375 C 102.230674 88.3125 100.935444 88.78125 100.380345 89.53125 C 99.085115 89.625 97.789885 88.3125 95.662007 88.40625 Z M 95.662007 88.40625 " transform="matrix(0.0422222,0,0,0.0416667,0,0)"/>
<path style="fill-rule:nonzero;fill:rgb(58.823529%,52.941176%,49.019608%);fill-opacity:1;stroke-width:0.203;stroke-linecap:butt;stroke-linejoin:miter;stroke:rgb(0%,0%,0%);stroke-opacity:1;stroke-miterlimit:4;" d="M 99.73273 90.1875 C 100.195312 89.8125 101.30551 89.34375 102.138158 90 C 102.970806 90.84375 104.266036 91.6875 104.266036 91.6875 L 105.746299 92.34375 L 106.393914 92.71875 L 105.931332 99.46875 C 104.636102 98.0625 103.340872 97.78125 102.415707 96.1875 C 101.860609 95.4375 102.230674 93.75 101.398026 92.71875 C 100.472862 91.59375 99.455181 90.84375 99.73273 90.1875 Z M 99.73273 90.1875 " transform="matrix(0.0422222,0,0,0.0416667,0,0)"/>
<path style="fill-rule:nonzero;fill:rgb(58.823529%,52.941176%,49.019608%);fill-opacity:1;stroke-width:0.203;stroke-linecap:butt;stroke-linejoin:miter;stroke:rgb(0%,0%,0%);stroke-opacity:1;stroke-miterlimit:4;" d="M 103.155839 92.0625 C 103.155839 92.0625 103.988487 91.96875 104.17352 92.15625 C 104.451069 92.25 104.728618 92.25 104.821135 92.53125 C 105.098684 92.625 105.283717 92.71875 105.283717 93 C 105.561266 93 105.653783 93.5625 105.653783 93.5625 L 105.376234 93.9375 C 105.376234 93.9375 105.098684 93.65625 105.098684 93.375 C 104.913651 93.28125 104.451069 93.1875 104.358553 92.90625 C 104.081003 92.90625 103.89597 92.71875 103.803454 92.4375 C 103.525905 92.53125 103.155839 92.0625 103.155839 92.0625 Z M 103.155839 92.0625 " transform="matrix(0.0422222,0,0,0.0416667,0,0)"/>
<path style="fill-rule:nonzero;fill:rgb(58.823529%,52.941176%,49.019608%);fill-opacity:1;stroke-width:0.203;stroke-linecap:butt;stroke-linejoin:miter;stroke:rgb(0%,0%,0%);stroke-opacity:1;stroke-miterlimit:4;" d="M 109.724507 87.75 C 109.261924 87.1875 108.521793 87.5625 108.521793 87.5625 L 106.393914 91.125 L 105.561266 91.875 L 105.46875 94.59375 L 106.208882 97.21875 L 105.931332 99.1875 C 105.931332 99.1875 106.949013 98.25 107.134046 97.6875 C 107.226562 97.21875 106.671464 95.53125 106.671464 95.53125 C 106.671464 95.53125 106.116365 94.5 106.856497 92.53125 C 107.596628 90.5625 109.261924 88.96875 109.724507 87.75 Z M 109.724507 87.75 " transform="matrix(0.0422222,0,0,0.0416667,0,0)"/>
<path style="fill-rule:nonzero;fill:rgb(58.823529%,52.941176%,49.019608%);fill-opacity:1;stroke-width:0.203;stroke-linecap:butt;stroke-linejoin:miter;stroke:rgb(0%,0%,0%);stroke-opacity:1;stroke-miterlimit:4;" d="M 114.720395 90.84375 C 114.720395 90.84375 111.574836 95.4375 106.301398 97.03125 C 104.821135 97.40625 105.376234 93.65625 105.376234 93.65625 L 105.006168 93.75 C 105.006168 93.75 104.17352 97.40625 106.116365 97.5 C 111.389803 96.46875 115.36801 90.9375 115.36801 90.9375 Z M 114.720395 90.84375 " transform="matrix(0.0422222,0,0,0.0416667,0,0)"/>
<path style="fill-rule:nonzero;fill:rgb(58.823529%,52.941176%,49.019608%);fill-opacity:1;stroke-width:0.203;stroke-linecap:butt;stroke-linejoin:miter;stroke:rgb(0%,0%,0%);stroke-opacity:1;stroke-miterlimit:4;" d="M 116.940789 117.1875 C 116.940789 117.1875 116.385691 117.5625 115.738076 117.1875 C 115.460526 116.4375 114.535362 116.34375 114.535362 116.34375 C 114.535362 116.34375 113.980263 114.65625 113.055099 115.125 C 112.962582 114.28125 111.944901 114.75 111.944901 114.75 C 111.944901 114.75 111.944901 113.53125 110.742187 113.71875 C 111.112253 112.21875 109.169408 112.3125 109.169408 112.3125 C 109.169408 112.3125 109.076891 110.71875 106.208882 111.09375 C 112.5 108.28125 117.403372 115.5 117.403372 115.5 " transform="matrix(0.0422222,0,0,0.0416667,0,0)"/>
<path style="fill-rule:nonzero;fill:rgb(58.823529%,52.941176%,49.019608%);fill-opacity:1;stroke-width:0.203;stroke-linecap:butt;stroke-linejoin:miter;stroke:rgb(0%,0%,0%);stroke-opacity:1;stroke-miterlimit:4;" d="M 119.901316 117.75 C 119.901316 117.75 121.289062 119.4375 122.121711 119.4375 C 122.861842 119.4375 122.861842 117.84375 122.861842 117.84375 C 122.861842 117.84375 123.139391 118.5 123.509457 118.3125 C 123.509457 118.78125 123.972039 118.96875 123.972039 118.96875 C 123.972039 118.96875 122.676809 121.96875 118.976151 119.0625 " transform="matrix(0.0422222,0,0,0.0416667,0,0)"/>
<path style="fill-rule:nonzero;fill:rgb(58.823529%,52.941176%,49.019608%);fill-opacity:1;stroke-width:0.203;stroke-linecap:butt;stroke-linejoin:miter;stroke:rgb(0%,0%,0%);stroke-opacity:1;stroke-miterlimit:4;" d="M 108.521793 118.40625 L 108.059211 120.46875 C 108.059211 120.46875 107.411595 121.125 107.596628 121.21875 C 107.781661 121.3125 108.799342 121.03125 108.799342 121.03125 C 108.799342 121.03125 110.464638 120.84375 110.92722 120.375 C 111.20477 121.125 111.944901 121.125 111.944901 121.125 C 111.944901 121.125 112.037418 120.84375 111.944901 120.65625 C 112.314967 120.75 112.592516 120.5625 112.592516 120.5625 C 112.592516 120.5625 112.777549 120 112.314967 119.8125 C 112.407484 119.34375 112.592516 118.96875 111.852385 118.96875 C 111.297286 119.625 109.817023 120.28125 109.446957 120.09375 C 109.076891 119.8125 110.92722 119.0625 110.372122 118.03125 " transform="matrix(0.0422222,0,0,0.0416667,0,0)"/>
</g>
</svg>
