<?xml version="1.0" encoding="UTF-8"?>
<svg xmlns="http://www.w3.org/2000/svg" xmlns:xlink="http://www.w3.org/1999/xlink" width="48pt" height="25pt" viewBox="0 0 48 25" version="1.1">
<g id="surface1">
<rect x="0" y="0" width="48" height="25" style="fill:rgb(0%,21.960784%,57.647059%);fill-opacity:1;stroke:none;"/>
<path style=" stroke:none;fill-rule:nonzero;fill:rgb(100%,100%,100%);fill-opacity:1;" d="M 0 24.601562 L 0 24 L 48 2.917969 L 48 10.199219 Z M 0 24.601562 "/>
<path style=" stroke:none;fill-rule:nonzero;fill:rgb(86.666667%,45.882353%,0%);fill-opacity:1;" d="M 0 24.199219 L 0 23.800781 L 48 0.398438 L 48 5.300781 Z M 0 24.199219 "/>
<path style=" stroke:none;fill-rule:nonzero;fill:rgb(100%,100%,100%);fill-opacity:1;" d="M 9.222656 1.378906 L 9.695312 9.128906 L 8.753906 9.128906 Z M 9.222656 1.378906 "/>
<path style=" stroke:none;fill-rule:nonzero;fill:rgb(100%,100%,100%);fill-opacity:1;" d="M 10.675781 3.769531 L 9.777344 9.273438 L 8.667969 8.980469 Z M 10.675781 3.769531 "/>
<path style=" stroke:none;fill-rule:nonzero;fill:rgb(100%,100%,100%);fill-opacity:1;" d="M 12.027344 4.324219 L 9.722656 9.414062 L 8.726562 8.84375 Z M 12.027344 4.324219 "/>
<path style=" stroke:none;fill-rule:nonzero;fill:rgb(100%,100%,100%);fill-opacity:1;" d="M 13.1875 5.203125 L 9.628906 9.53125 L 8.816406 8.726562 Z M 13.1875 5.203125 "/>
<path style=" stroke:none;fill-rule:nonzero;fill:rgb(100%,100%,100%);fill-opacity:1;" d="M 14.082031 6.351562 L 9.511719 9.621094 L 8.9375 8.636719 Z M 14.082031 6.351562 "/>
<path style=" stroke:none;fill-rule:nonzero;fill:rgb(100%,100%,100%);fill-opacity:1;" d="M 14.640625 7.691406 L 9.371094 9.675781 L 9.074219 8.578125 Z M 14.640625 7.691406 "/>
<path style=" stroke:none;fill-rule:nonzero;fill:rgb(100%,100%,100%);fill-opacity:1;" d="M 17.054688 9.128906 L 9.222656 9.59375 L 9.222656 8.664062 Z M 17.054688 9.128906 "/>
<path style=" stroke:none;fill-rule:nonzero;fill:rgb(100%,100%,100%);fill-opacity:1;" d="M 14.640625 10.5625 L 9.074219 9.675781 L 9.371094 8.578125 Z M 14.640625 10.5625 "/>
<path style=" stroke:none;fill-rule:nonzero;fill:rgb(100%,100%,100%);fill-opacity:1;" d="M 14.082031 11.902344 L 8.9375 9.621094 L 9.511719 8.636719 Z M 14.082031 11.902344 "/>
<path style=" stroke:none;fill-rule:nonzero;fill:rgb(100%,100%,100%);fill-opacity:1;" d="M 13.1875 13.050781 L 8.816406 9.53125 L 9.628906 8.726562 Z M 13.1875 13.050781 "/>
<path style=" stroke:none;fill-rule:nonzero;fill:rgb(100%,100%,100%);fill-opacity:1;" d="M 12.027344 13.933594 L 8.726562 9.414062 L 9.722656 8.84375 Z M 12.027344 13.933594 "/>
<path style=" stroke:none;fill-rule:nonzero;fill:rgb(100%,100%,100%);fill-opacity:1;" d="M 10.675781 14.488281 L 8.667969 9.273438 L 9.777344 8.980469 Z M 10.675781 14.488281 "/>
<path style=" stroke:none;fill-rule:nonzero;fill:rgb(100%,100%,100%);fill-opacity:1;" d="M 9.222656 16.878906 L 8.753906 9.128906 L 9.695312 9.128906 Z M 9.222656 16.878906 "/>
<path style=" stroke:none;fill-rule:nonzero;fill:rgb(100%,100%,100%);fill-opacity:1;" d="M 7.773438 14.488281 L 8.667969 8.980469 L 9.777344 9.273438 Z M 7.773438 14.488281 "/>
<path style=" stroke:none;fill-rule:nonzero;fill:rgb(100%,100%,100%);fill-opacity:1;" d="M 6.421875 13.933594 L 8.726562 8.84375 L 9.722656 9.414062 Z M 6.421875 13.933594 "/>
<path style=" stroke:none;fill-rule:nonzero;fill:rgb(100%,100%,100%);fill-opacity:1;" d="M 5.257812 13.050781 L 8.816406 8.726562 L 9.628906 9.53125 Z M 5.257812 13.050781 "/>
<path style=" stroke:none;fill-rule:nonzero;fill:rgb(100%,100%,100%);fill-opacity:1;" d="M 4.367188 11.902344 L 8.9375 8.636719 L 9.511719 9.621094 Z M 4.367188 11.902344 "/>
<path style=" stroke:none;fill-rule:nonzero;fill:rgb(100%,100%,100%);fill-opacity:1;" d="M 3.808594 10.5625 L 9.074219 8.578125 L 9.371094 9.675781 Z M 3.808594 10.5625 "/>
<path style=" stroke:none;fill-rule:nonzero;fill:rgb(100%,100%,100%);fill-opacity:1;" d="M 1.390625 9.128906 L 9.222656 8.664062 L 9.222656 9.59375 Z M 1.390625 9.128906 "/>
<path style=" stroke:none;fill-rule:nonzero;fill:rgb(100%,100%,100%);fill-opacity:1;" d="M 3.808594 7.691406 L 9.371094 8.578125 L 9.074219 9.675781 Z M 3.808594 7.691406 "/>
<path style=" stroke:none;fill-rule:nonzero;fill:rgb(100%,100%,100%);fill-opacity:1;" d="M 4.367188 6.351562 L 9.511719 8.636719 L 8.9375 9.621094 Z M 4.367188 6.351562 "/>
<path style=" stroke:none;fill-rule:nonzero;fill:rgb(100%,100%,100%);fill-opacity:1;" d="M 5.257812 5.203125 L 9.628906 8.726562 L 8.816406 9.53125 Z M 5.257812 5.203125 "/>
<path style=" stroke:none;fill-rule:nonzero;fill:rgb(100%,100%,100%);fill-opacity:1;" d="M 6.421875 4.324219 L 9.722656 8.84375 L 8.726562 9.414062 Z M 6.421875 4.324219 "/>
<path style=" stroke:none;fill-rule:nonzero;fill:rgb(100%,100%,100%);fill-opacity:1;" d="M 7.773438 3.769531 L 9.777344 8.980469 L 8.667969 9.273438 Z M 7.773438 3.769531 "/>
</g>
</svg>
