<?xml version="1.0" encoding="UTF-8"?>
<svg xmlns="http://www.w3.org/2000/svg" xmlns:xlink="http://www.w3.org/1999/xlink" width="48pt" height="25pt" viewBox="0 0 48 25" version="1.1">
<g id="surface1">
<rect x="0" y="0" width="48" height="25" style="fill:rgb(45.882353%,69.803922%,86.666667%);fill-opacity:1;stroke:none;"/>
<path style=" stroke:none;fill-rule:nonzero;fill:rgb(100%,100%,100%);fill-opacity:1;" d="M 24 2.5 L 23.21875 4.878906 L 24.421875 5.265625 "/>
<path style=" stroke:none;fill-rule:nonzero;fill:rgb(100%,100%,100%);fill-opacity:1;" d="M 24 2.5 L 24.78125 4.878906 L 23.578125 5.265625 "/>
<path style=" stroke:none;fill-rule:nonzero;fill:rgb(100%,100%,100%);fill-opacity:1;" d="M 26.402344 4.226562 L 23.875 4.226562 L 23.875 5.476562 "/>
<path style=" stroke:none;fill-rule:nonzero;fill:rgb(100%,100%,100%);fill-opacity:1;" d="M 26.402344 4.226562 L 24.359375 5.695312 L 23.617188 4.6875 "/>
<path style=" stroke:none;fill-rule:nonzero;fill:rgb(100%,100%,100%);fill-opacity:1;" d="M 25.484375 7.023438 L 24.703125 4.644531 L 23.503906 5.03125 "/>
<path style=" stroke:none;fill-rule:nonzero;fill:rgb(100%,100%,100%);fill-opacity:1;" d="M 25.484375 7.023438 L 23.441406 5.554688 L 24.183594 4.542969 "/>
<path style=" stroke:none;fill-rule:nonzero;fill:rgb(100%,100%,100%);fill-opacity:1;" d="M 22.515625 7.023438 L 24.558594 5.554688 L 23.816406 4.542969 "/>
<path style=" stroke:none;fill-rule:nonzero;fill:rgb(100%,100%,100%);fill-opacity:1;" d="M 22.515625 7.023438 L 23.296875 4.644531 L 24.496094 5.03125 "/>
<path style=" stroke:none;fill-rule:nonzero;fill:rgb(100%,100%,100%);fill-opacity:1;" d="M 21.597656 4.226562 L 23.640625 5.695312 L 24.382812 4.6875 "/>
<path style=" stroke:none;fill-rule:nonzero;fill:rgb(100%,100%,100%);fill-opacity:1;" d="M 21.597656 4.226562 L 24.125 4.226562 L 24.125 5.476562 "/>
<path style=" stroke:none;fill-rule:nonzero;fill:rgb(100%,100%,100%);fill-opacity:1;" d="M 34.105469 12.5 L 31.703125 11.726562 L 31.3125 12.917969 "/>
<path style=" stroke:none;fill-rule:nonzero;fill:rgb(100%,100%,100%);fill-opacity:1;" d="M 34.105469 12.5 L 31.703125 13.273438 L 31.3125 12.082031 "/>
<path style=" stroke:none;fill-rule:nonzero;fill:rgb(100%,100%,100%);fill-opacity:1;" d="M 32.359375 14.878906 L 32.359375 12.378906 L 31.097656 12.378906 "/>
<path style=" stroke:none;fill-rule:nonzero;fill:rgb(100%,100%,100%);fill-opacity:1;" d="M 32.359375 14.878906 L 30.875 12.855469 L 31.898438 12.121094 "/>
<path style=" stroke:none;fill-rule:nonzero;fill:rgb(100%,100%,100%);fill-opacity:1;" d="M 29.535156 13.96875 L 31.9375 13.195312 L 31.546875 12.007812 "/>
<path style=" stroke:none;fill-rule:nonzero;fill:rgb(100%,100%,100%);fill-opacity:1;" d="M 29.535156 13.96875 L 31.019531 11.945312 L 32.042969 12.683594 "/>
<path style=" stroke:none;fill-rule:nonzero;fill:rgb(100%,100%,100%);fill-opacity:1;" d="M 29.535156 11.03125 L 31.019531 13.054688 L 32.042969 12.316406 "/>
<path style=" stroke:none;fill-rule:nonzero;fill:rgb(100%,100%,100%);fill-opacity:1;" d="M 29.535156 11.03125 L 31.9375 11.804688 L 31.546875 12.992188 "/>
<path style=" stroke:none;fill-rule:nonzero;fill:rgb(100%,100%,100%);fill-opacity:1;" d="M 32.359375 10.121094 L 30.875 12.144531 L 31.898438 12.878906 "/>
<path style=" stroke:none;fill-rule:nonzero;fill:rgb(100%,100%,100%);fill-opacity:1;" d="M 32.359375 10.121094 L 32.359375 12.621094 L 31.097656 12.621094 "/>
<path style=" stroke:none;fill-rule:nonzero;fill:rgb(100%,100%,100%);fill-opacity:1;" d="M 24 22.5 L 24.78125 20.121094 L 23.578125 19.734375 "/>
<path style=" stroke:none;fill-rule:nonzero;fill:rgb(100%,100%,100%);fill-opacity:1;" d="M 24 22.5 L 23.21875 20.121094 L 24.421875 19.734375 "/>
<path style=" stroke:none;fill-rule:nonzero;fill:rgb(100%,100%,100%);fill-opacity:1;" d="M 21.597656 20.773438 L 24.125 20.773438 L 24.125 19.523438 "/>
<path style=" stroke:none;fill-rule:nonzero;fill:rgb(100%,100%,100%);fill-opacity:1;" d="M 21.597656 20.773438 L 23.640625 19.304688 L 24.382812 20.3125 "/>
<path style=" stroke:none;fill-rule:nonzero;fill:rgb(100%,100%,100%);fill-opacity:1;" d="M 22.515625 17.976562 L 23.296875 20.355469 L 24.496094 19.96875 "/>
<path style=" stroke:none;fill-rule:nonzero;fill:rgb(100%,100%,100%);fill-opacity:1;" d="M 22.515625 17.976562 L 24.558594 19.445312 L 23.816406 20.457031 "/>
<path style=" stroke:none;fill-rule:nonzero;fill:rgb(100%,100%,100%);fill-opacity:1;" d="M 25.484375 17.976562 L 23.441406 19.445312 L 24.183594 20.457031 "/>
<path style=" stroke:none;fill-rule:nonzero;fill:rgb(100%,100%,100%);fill-opacity:1;" d="M 25.484375 17.976562 L 24.703125 20.355469 L 23.503906 19.96875 "/>
<path style=" stroke:none;fill-rule:nonzero;fill:rgb(100%,100%,100%);fill-opacity:1;" d="M 26.402344 20.773438 L 24.359375 19.304688 L 23.617188 20.3125 "/>
<path style=" stroke:none;fill-rule:nonzero;fill:rgb(100%,100%,100%);fill-opacity:1;" d="M 26.402344 20.773438 L 23.875 20.773438 L 23.875 19.523438 "/>
<path style=" stroke:none;fill-rule:nonzero;fill:rgb(100%,100%,100%);fill-opacity:1;" d="M 13.894531 12.5 L 16.296875 13.273438 L 16.6875 12.082031 "/>
<path style=" stroke:none;fill-rule:nonzero;fill:rgb(100%,100%,100%);fill-opacity:1;" d="M 13.894531 12.5 L 16.296875 11.726562 L 16.6875 12.917969 "/>
<path style=" stroke:none;fill-rule:nonzero;fill:rgb(100%,100%,100%);fill-opacity:1;" d="M 15.640625 10.121094 L 15.640625 12.621094 L 16.902344 12.621094 "/>
<path style=" stroke:none;fill-rule:nonzero;fill:rgb(100%,100%,100%);fill-opacity:1;" d="M 15.640625 10.121094 L 17.125 12.144531 L 16.101562 12.878906 "/>
<path style=" stroke:none;fill-rule:nonzero;fill:rgb(100%,100%,100%);fill-opacity:1;" d="M 18.464844 11.03125 L 16.0625 11.804688 L 16.453125 12.992188 "/>
<path style=" stroke:none;fill-rule:nonzero;fill:rgb(100%,100%,100%);fill-opacity:1;" d="M 18.464844 11.03125 L 16.980469 13.054688 L 15.957031 12.316406 "/>
<path style=" stroke:none;fill-rule:nonzero;fill:rgb(100%,100%,100%);fill-opacity:1;" d="M 18.464844 13.96875 L 16.980469 11.945312 L 15.957031 12.683594 "/>
<path style=" stroke:none;fill-rule:nonzero;fill:rgb(100%,100%,100%);fill-opacity:1;" d="M 18.464844 13.96875 L 16.0625 13.195312 L 16.453125 12.007812 "/>
<path style=" stroke:none;fill-rule:nonzero;fill:rgb(100%,100%,100%);fill-opacity:1;" d="M 15.640625 14.878906 L 17.125 12.855469 L 16.101562 12.121094 "/>
<path style=" stroke:none;fill-rule:nonzero;fill:rgb(100%,100%,100%);fill-opacity:1;" d="M 15.640625 14.878906 L 15.640625 12.378906 L 16.902344 12.378906 "/>
</g>
</svg>
