<?xml version="1.0" encoding="UTF-8"?>
<svg xmlns="http://www.w3.org/2000/svg" xmlns:xlink="http://www.w3.org/1999/xlink" width="50pt" height="25pt" viewBox="0 0 50 25" version="1.1">
<g id="surface1">
<rect x="0" y="0" width="50" height="25" style="fill:rgb(80%,3.529412%,18.431373%);fill-opacity:1;stroke:none;"/>
<path style=" stroke:none;fill-rule:nonzero;fill:rgb(100%,82.352941%,0%);fill-opacity:1;" d="M 0 0 L 33.332031 0 L 33.332031 25 L 0 25 Z M 0 0 "/>
<path style=" stroke:none;fill-rule:nonzero;fill:rgb(0%,27.45098%,68.235294%);fill-opacity:1;" d="M 0 0 L 16.667969 0 L 16.667969 25 L 0 25 Z M 0 0 "/>
<path style=" stroke:none;fill-rule:nonzero;fill:rgb(0%,0%,0%);fill-opacity:1;" d="M 23.546875 5.089844 C 23.457031 5.089844 23.378906 5.113281 23.332031 5.148438 C 23.40625 5.167969 23.457031 5.234375 23.457031 5.316406 L 23.457031 5.523438 L 23.253906 5.523438 C 23.171875 5.523438 23.105469 5.472656 23.082031 5.398438 C 23.046875 5.445312 23.023438 5.523438 23.023438 5.613281 C 23.023438 5.703125 23.046875 5.78125 23.082031 5.828125 C 23.105469 5.753906 23.171875 5.703125 23.253906 5.703125 L 23.457031 5.703125 L 23.457031 6.691406 C 23.457031 6.769531 23.410156 6.835938 23.34375 6.859375 C 23.441406 6.871094 23.523438 7.003906 23.546875 7.078125 C 23.570312 7.003906 23.65625 6.871094 23.753906 6.859375 C 23.6875 6.835938 23.636719 6.769531 23.636719 6.691406 L 23.636719 5.703125 L 23.84375 5.703125 C 23.921875 5.703125 23.992188 5.753906 24.011719 5.824219 C 24.046875 5.78125 24.070312 5.703125 24.070312 5.613281 C 24.070312 5.523438 24.046875 5.445312 24.011719 5.398438 C 23.992188 5.472656 23.925781 5.523438 23.84375 5.523438 L 23.636719 5.523438 L 23.636719 5.316406 C 23.636719 5.238281 23.6875 5.167969 23.761719 5.148438 C 23.714844 5.113281 23.636719 5.089844 23.546875 5.089844 Z M 23.546875 5.089844 "/>
<path style=" stroke:none;fill-rule:nonzero;fill:rgb(96.078431%,83.137255%,0.784314%);fill-opacity:1;" d="M 23.546875 5.132812 C 23.5 5.132812 23.460938 5.140625 23.425781 5.152344 C 23.472656 5.191406 23.5 5.25 23.5 5.316406 L 23.5 5.523438 C 23.5 5.527344 23.5 5.53125 23.5 5.53125 L 23.5 5.566406 L 23.46875 5.566406 C 23.464844 5.566406 23.460938 5.566406 23.457031 5.566406 L 23.253906 5.566406 C 23.1875 5.566406 23.128906 5.535156 23.089844 5.492188 C 23.078125 5.527344 23.066406 5.566406 23.066406 5.613281 C 23.066406 5.660156 23.078125 5.699219 23.085938 5.734375 C 23.128906 5.691406 23.1875 5.660156 23.253906 5.660156 L 23.5 5.660156 C 23.5 5.664062 23.5 5.667969 23.5 5.671875 L 23.5 5.691406 C 23.5 5.695312 23.5 5.699219 23.5 5.703125 L 23.5 6.691406 C 23.5 6.757812 23.46875 6.808594 23.425781 6.847656 C 23.457031 6.867188 23.484375 6.890625 23.503906 6.917969 C 23.527344 6.945312 23.535156 6.96875 23.546875 6.992188 C 23.5625 6.96875 23.570312 6.945312 23.589844 6.917969 C 23.613281 6.890625 23.640625 6.867188 23.671875 6.847656 C 23.625 6.808594 23.59375 6.757812 23.59375 6.691406 L 23.59375 5.660156 L 23.628906 5.660156 C 23.628906 5.660156 23.632812 5.660156 23.636719 5.660156 L 23.84375 5.660156 C 23.910156 5.660156 23.964844 5.6875 24.007812 5.734375 C 24.019531 5.699219 24.027344 5.660156 24.027344 5.613281 C 24.027344 5.566406 24.019531 5.523438 24.007812 5.488281 C 23.96875 5.535156 23.910156 5.566406 23.84375 5.566406 L 23.636719 5.566406 C 23.632812 5.566406 23.628906 5.566406 23.628906 5.566406 L 23.59375 5.566406 L 23.59375 5.53125 C 23.59375 5.53125 23.59375 5.527344 23.59375 5.523438 L 23.59375 5.316406 C 23.59375 5.25 23.625 5.195312 23.667969 5.152344 C 23.632812 5.144531 23.59375 5.132812 23.546875 5.132812 "/>
<path style=" stroke:none;fill-rule:nonzero;fill:rgb(0%,0%,0%);fill-opacity:1;" d="M 26.128906 8.722656 C 26.003906 8.632812 25.898438 8.53125 25.824219 8.414062 C 25.648438 8.128906 25.574219 7.78125 25.574219 7.425781 C 25.574219 7.277344 25.742188 7.109375 25.742188 6.988281 C 25.742188 6.804688 25.722656 6.695312 25.722656 6.695312 C 25.785156 6.703125 25.886719 6.808594 25.886719 6.808594 C 25.886719 6.808594 25.882812 6.503906 25.789062 6.449219 C 25.789062 6.449219 25.828125 6.410156 25.96875 6.40625 C 25.929688 6.308594 25.734375 6.183594 25.734375 6.183594 C 25.742188 6.167969 25.761719 6.152344 25.785156 6.140625 C 25.832031 6.113281 25.902344 6.09375 25.953125 6.085938 C 25.898438 6.074219 25.832031 6.054688 25.761719 6.03125 C 25.601562 5.976562 25.410156 5.902344 25.230469 5.816406 C 24.90625 5.660156 24.65625 5.648438 24.519531 5.648438 C 24.421875 5.648438 24.273438 5.652344 24.1875 5.707031 C 24.109375 5.761719 24.117188 5.828125 24.089844 5.851562 C 24.023438 5.910156 23.914062 5.90625 23.859375 5.90625 C 23.515625 5.90625 23.5 6.277344 23.5 6.277344 C 23.5 6.277344 23.589844 6.140625 23.746094 6.140625 C 24.003906 6.140625 24.203125 6.285156 24.203125 6.335938 C 24.203125 6.359375 24.175781 6.363281 24.175781 6.363281 C 24.003906 6.363281 23.75 6.265625 23.613281 6.261719 L 23.613281 6.328125 C 23.917969 6.433594 24.222656 6.582031 24.222656 7.242188 C 24.222656 7.65625 24.175781 8.082031 23.964844 8.414062 C 23.894531 8.53125 23.789062 8.632812 23.664062 8.722656 L 24.894531 8.945312 Z M 26.128906 8.722656 "/>
<path style=" stroke:none;fill-rule:nonzero;fill:rgb(0%,0%,0%);fill-opacity:1;" d="M 24.894531 8.445312 L 23.664062 8.722656 C 23.605469 8.703125 23.34375 8.621094 23.15625 8.519531 C 22.832031 8.339844 22.664062 8.15625 22.277344 8.140625 L 22.277344 7.847656 C 22.277344 7.6875 22.332031 7.546875 22.332031 7.398438 C 22.167969 7.351562 21.714844 6.800781 21.296875 6.554688 C 20.683594 6.953125 20.207031 7.605469 20.207031 7.90625 C 20.207031 7.90625 20.226562 14.363281 20.207031 16.613281 C 20.207031 16.742188 20.128906 16.925781 20.128906 16.925781 C 20.355469 16.832031 20.765625 16.269531 20.851562 16.054688 L 20.851562 16.15625 C 21.191406 16.003906 21.4375 15.597656 21.550781 15.386719 C 21.550781 15.417969 21.558594 15.492188 21.558594 15.492188 C 21.859375 15.226562 22.246094 13.660156 22.246094 13.660156 L 22.886719 14.289062 C 22.886719 14.289062 22.65625 14.761719 22.566406 14.847656 C 22.566406 14.847656 22.625 14.855469 22.695312 14.855469 C 22.652344 14.914062 22.328125 15.378906 22.226562 15.554688 C 22.132812 15.71875 22.066406 15.644531 21.921875 15.644531 C 21.800781 15.644531 21.527344 15.839844 21.480469 15.914062 C 21.433594 15.996094 21.398438 16.097656 21.398438 16.179688 C 21.398438 16.269531 21.496094 16.390625 21.496094 16.390625 C 21.503906 16.347656 21.523438 16.335938 21.523438 16.335938 C 21.523438 16.335938 21.773438 16.644531 21.808594 16.6875 C 21.839844 16.71875 21.96875 16.738281 22.011719 16.699219 C 22.125 16.59375 22.234375 16.523438 22.335938 16.375 C 22.386719 16.300781 22.390625 16.210938 22.449219 16.128906 C 22.648438 15.855469 23.046875 15.328125 23.136719 15.210938 C 23.140625 15.242188 23.148438 15.269531 23.152344 15.304688 C 23.253906 15.097656 23.75 14.703125 23.75 14.703125 L 24.265625 14.9375 C 24.265625 14.9375 23.300781 17.152344 22.445312 17.496094 C 22.445312 17.496094 22.816406 17.652344 23.273438 17.890625 C 23.339844 17.925781 23.410156 17.960938 23.480469 18 C 23.539062 17.929688 23.597656 17.851562 23.65625 17.773438 C 23.929688 17.40625 24.199219 16.984375 24.199219 16.984375 C 24.214844 17.09375 24.070312 17.433594 23.828125 17.851562 C 23.78125 17.933594 23.730469 18.019531 23.675781 18.109375 C 23.738281 18.144531 23.796875 18.179688 23.859375 18.21875 C 24.3125 18.488281 24.738281 18.800781 24.894531 19.089844 L 25.003906 18.8125 L 24.894531 18.535156 L 24.894531 8.8125 L 24.949219 8.675781 Z M 24.894531 8.445312 "/>
<path style=" stroke:none;fill-rule:nonzero;fill:rgb(69.019608%,49.803922%,33.333333%);fill-opacity:1;" d="M 24.894531 18.535156 C 24.734375 18.359375 24.402344 18.148438 24.027344 17.953125 C 24.480469 17.140625 24.703125 15.851562 24.597656 15.597656 C 24.597656 15.597656 24.414062 16.261719 24.183594 16.644531 C 23.972656 16.996094 23.714844 17.394531 23.464844 17.6875 C 23.257812 17.597656 23.058594 17.523438 22.886719 17.472656 C 23.636719 16.894531 24.40625 14.980469 24.40625 14.980469 L 23.613281 14.613281 C 23.613281 14.613281 23.316406 14.957031 23.21875 15.023438 C 23.21875 15.023438 23.175781 14.851562 23.152344 14.789062 C 23.152344 14.789062 23.039062 14.875 22.976562 14.878906 C 22.976562 14.878906 22.957031 14.761719 22.945312 14.683594 C 22.863281 14.738281 22.734375 14.726562 22.734375 14.726562 C 22.847656 14.671875 22.984375 14.339844 22.984375 14.339844 L 22.226562 13.328125 C 22.226562 13.328125 21.960938 14.609375 21.65625 14.875 L 21.65625 9.359375 L 21.894531 9.582031 L 22.261719 9.242188 L 22.261719 8.980469 L 21.9375 9.285156 L 21.9375 8.503906 C 21.984375 8.429688 22.019531 8.375 22.042969 8.332031 C 22.09375 8.421875 22.261719 8.699219 22.460938 8.871094 C 22.496094 8.738281 22.710938 8.613281 22.710938 8.613281 C 22.710938 8.613281 22.785156 8.824219 22.902344 8.875 C 22.945312 8.800781 23.191406 8.640625 23.191406 8.640625 C 23.191406 8.640625 22.980469 8.671875 22.894531 8.75 C 22.820312 8.734375 22.804688 8.445312 22.804688 8.445312 C 22.804688 8.445312 22.492188 8.597656 22.4375 8.703125 C 22.378906 8.6875 22.285156 8.457031 22.25 8.359375 C 22.304688 8.351562 22.382812 8.347656 22.480469 8.347656 C 22.570312 8.347656 22.683594 8.386719 22.804688 8.445312 C 22.933594 8.507812 23.070312 8.585938 23.191406 8.640625 C 23.347656 8.710938 23.585938 8.726562 23.65625 8.726562 C 23.574219 8.78125 23.488281 8.832031 23.394531 8.882812 C 23.394531 8.882812 23.765625 8.878906 24.027344 8.746094 C 24.121094 8.6875 24.21875 8.628906 24.300781 8.558594 C 24.265625 8.65625 24.210938 8.773438 24.121094 8.875 C 24.507812 8.84375 24.699219 8.625 24.753906 8.550781 C 24.777344 8.617188 24.824219 8.722656 24.894531 8.8125 L 25.035156 8.8125 L 25.035156 18.257812 Z M 24.894531 18.535156 "/>
<path style=" stroke:none;fill-rule:nonzero;fill:rgb(69.019608%,49.803922%,33.333333%);fill-opacity:1;" d="M 22.0625 7.425781 L 22.070312 7.601562 L 22.070312 8.121094 C 21.929688 8.074219 21.753906 7.84375 21.671875 7.722656 L 21.671875 7.652344 C 21.671875 7.585938 21.710938 7.535156 21.738281 7.507812 L 21.65625 7.480469 C 21.621094 7.515625 21.585938 7.570312 21.585938 7.640625 L 21.585938 7.679688 L 21.335938 7.949219 L 21.089844 7.578125 L 21.089844 7.484375 C 21.089844 7.425781 21.136719 7.355469 21.179688 7.308594 L 21.09375 7.28125 C 21.054688 7.332031 21.011719 7.40625 21.011719 7.476562 L 21.011719 7.546875 C 20.953125 7.609375 20.726562 7.839844 20.726562 7.839844 C 20.726562 7.839844 20.613281 7.597656 20.582031 7.53125 C 20.757812 7.292969 21.035156 7.027344 21.296875 6.832031 C 21.296875 6.832031 21.871094 7.359375 22.0625 7.425781 Z M 22.0625 7.425781 "/>
<path style=" stroke:none;fill-rule:nonzero;fill:rgb(69.019608%,49.803922%,33.333333%);fill-opacity:1;" d="M 20.613281 7.929688 L 20.613281 8.355469 L 20.414062 8.542969 L 20.414062 7.90625 C 20.414062 7.84375 20.441406 7.769531 20.484375 7.691406 Z M 20.613281 7.929688 "/>
<path style=" stroke:none;fill-rule:nonzero;fill:rgb(69.019608%,49.803922%,33.333333%);fill-opacity:1;" d="M 21.234375 8.09375 L 21.234375 8.359375 L 21.003906 8.574219 L 21.003906 7.746094 Z M 21.234375 8.09375 "/>
<path style=" stroke:none;fill-rule:nonzero;fill:rgb(69.019608%,49.803922%,33.333333%);fill-opacity:1;" d="M 20.925781 8.570312 L 20.695312 8.359375 L 20.695312 8.046875 L 20.925781 7.808594 Z M 20.925781 8.570312 "/>
<path style=" stroke:none;fill-rule:nonzero;fill:rgb(69.019608%,49.803922%,33.333333%);fill-opacity:1;" d="M 21.96875 8.25 C 21.917969 8.324219 21.777344 8.507812 21.628906 8.589844 L 21.628906 7.863281 C 21.660156 7.921875 21.820312 8.175781 21.96875 8.25 Z M 21.96875 8.25 "/>
<path style=" stroke:none;fill-rule:nonzero;fill:rgb(69.019608%,49.803922%,33.333333%);fill-opacity:1;" d="M 21.546875 7.898438 L 21.546875 8.570312 L 21.316406 8.359375 L 21.316406 8.121094 Z M 21.546875 7.898438 "/>
<path style=" stroke:none;fill-rule:nonzero;fill:rgb(69.019608%,49.803922%,33.333333%);fill-opacity:1;" d="M 20.613281 8.613281 L 20.613281 9.285156 L 20.414062 9.097656 L 20.414062 8.800781 Z M 20.613281 8.613281 "/>
<path style=" stroke:none;fill-rule:nonzero;fill:rgb(69.019608%,49.803922%,33.333333%);fill-opacity:1;" d="M 20.925781 8.828125 L 20.925781 9.070312 L 20.695312 9.285156 L 20.695312 8.617188 Z M 20.925781 8.828125 "/>
<path style=" stroke:none;fill-rule:nonzero;fill:rgb(69.019608%,49.803922%,33.333333%);fill-opacity:1;" d="M 21.234375 8.617188 L 21.234375 9.285156 L 21.003906 9.070312 L 21.003906 8.832031 Z M 21.234375 8.617188 "/>
<path style=" stroke:none;fill-rule:nonzero;fill:rgb(69.019608%,49.803922%,33.333333%);fill-opacity:1;" d="M 21.546875 8.832031 L 21.546875 9.070312 L 21.316406 9.285156 L 21.316406 8.617188 Z M 21.546875 8.832031 "/>
<path style=" stroke:none;fill-rule:nonzero;fill:rgb(69.019608%,49.803922%,33.333333%);fill-opacity:1;" d="M 21.855469 9.285156 L 21.625 9.070312 L 21.625 8.847656 C 21.707031 8.800781 21.785156 8.710938 21.855469 8.617188 Z M 21.855469 9.285156 "/>
<path style=" stroke:none;fill-rule:nonzero;fill:rgb(69.019608%,49.803922%,33.333333%);fill-opacity:1;" d="M 21.277344 9.582031 L 21.515625 9.355469 L 21.515625 14.875 C 21.515625 14.875 21.535156 15.148438 21.546875 15.324219 C 21.4375 15.433594 21.035156 15.84375 21.035156 15.84375 L 21.035156 9.355469 Z M 21.277344 9.582031 "/>
<path style=" stroke:none;fill-rule:nonzero;fill:rgb(69.019608%,49.803922%,33.333333%);fill-opacity:1;" d="M 20.894531 15.636719 C 20.894531 15.816406 20.570312 16.226562 20.414062 16.324219 L 20.414062 9.359375 L 20.652344 9.582031 L 20.894531 9.355469 Z M 20.894531 15.636719 "/>
<path style=" stroke:none;fill-rule:nonzero;fill:rgb(81.960784%,1.568627%,16.078431%);fill-opacity:1;" d="M 22.902344 15.039062 L 23.082031 14.917969 C 23.082031 14.917969 23.09375 14.976562 23.105469 15.054688 C 23.03125 15.160156 22.597656 15.75 22.382812 16.039062 C 22.328125 16.113281 22.285156 16.292969 22.285156 16.292969 C 22.285156 16.292969 22.207031 16.257812 22.207031 16.191406 C 22.207031 16.125 22.214844 16.046875 22.214844 16.046875 C 22.214844 16.046875 22.15625 16.113281 22.054688 16.113281 C 22.054688 16.03125 22.210938 15.945312 22.21875 15.832031 C 22.097656 15.917969 21.996094 15.875 21.859375 15.914062 C 21.707031 15.960938 21.667969 16.023438 21.621094 16.023438 C 21.59375 16.019531 21.570312 15.972656 21.578125 15.945312 C 21.597656 15.894531 21.78125 15.757812 21.914062 15.734375 C 21.945312 15.726562 22.1875 15.789062 22.238281 15.710938 C 22.4375 15.398438 22.769531 14.890625 22.800781 14.84375 C 22.820312 14.835938 22.839844 14.832031 22.855469 14.824219 C 22.855469 14.824219 22.851562 14.980469 22.902344 15.039062 Z M 22.902344 15.039062 "/>
<path style=" stroke:none;fill-rule:nonzero;fill:rgb(81.960784%,1.568627%,16.078431%);fill-opacity:1;" d="M 21.769531 16.011719 C 21.78125 16.023438 21.777344 16.039062 21.769531 16.050781 L 21.6875 16.121094 C 21.679688 16.128906 21.660156 16.125 21.652344 16.113281 C 21.640625 16.105469 21.644531 16.085938 21.652344 16.078125 L 21.734375 16.007812 C 21.738281 16.003906 21.746094 16 21.75 16.003906 C 21.757812 16.003906 21.765625 16.007812 21.769531 16.011719 Z M 21.769531 16.011719 "/>
<path style=" stroke:none;fill-rule:nonzero;fill:rgb(81.960784%,1.568627%,16.078431%);fill-opacity:1;" d="M 21.890625 16.097656 C 21.914062 16.125 21.914062 16.164062 21.886719 16.183594 L 21.695312 16.355469 C 21.667969 16.375 21.628906 16.371094 21.605469 16.34375 C 21.582031 16.316406 21.582031 16.277344 21.609375 16.253906 L 21.800781 16.085938 C 21.8125 16.078125 21.824219 16.074219 21.835938 16.074219 C 21.855469 16.070312 21.875 16.078125 21.890625 16.097656 Z M 21.890625 16.097656 "/>
<path style=" stroke:none;fill-rule:nonzero;fill:rgb(81.960784%,1.568627%,16.078431%);fill-opacity:1;" d="M 22 16.226562 C 22.027344 16.253906 22.023438 16.292969 22 16.316406 L 21.804688 16.484375 C 21.777344 16.507812 21.738281 16.503906 21.714844 16.476562 C 21.691406 16.449219 21.695312 16.40625 21.71875 16.386719 L 21.914062 16.21875 C 21.921875 16.210938 21.933594 16.203125 21.945312 16.203125 C 21.964844 16.203125 21.988281 16.210938 22 16.226562 Z M 22 16.226562 "/>
<path style=" stroke:none;fill-rule:nonzero;fill:rgb(81.960784%,1.568627%,16.078431%);fill-opacity:1;" d="M 22.070312 16.332031 C 22.089844 16.328125 22.109375 16.335938 22.125 16.355469 C 22.148438 16.382812 22.144531 16.421875 22.121094 16.445312 L 21.925781 16.609375 C 21.902344 16.632812 21.863281 16.628906 21.839844 16.601562 C 21.816406 16.574219 21.816406 16.535156 21.839844 16.511719 L 22.035156 16.34375 C 22.046875 16.335938 22.054688 16.332031 22.070312 16.332031 Z M 22.070312 16.332031 "/>
<path style=" stroke:none;fill-rule:nonzero;fill:rgb(0%,0%,0%);fill-opacity:1;" d="M 24.894531 8.445312 L 26.125 8.722656 C 26.183594 8.703125 26.445312 8.621094 26.632812 8.519531 C 26.957031 8.339844 27.125 8.15625 27.511719 8.140625 L 27.511719 7.847656 C 27.511719 7.6875 27.457031 7.546875 27.457031 7.398438 C 27.621094 7.351562 28.074219 6.800781 28.488281 6.554688 C 29.105469 6.953125 29.582031 7.605469 29.582031 7.90625 C 29.582031 7.90625 29.5625 14.363281 29.582031 16.613281 C 29.582031 16.742188 29.660156 16.925781 29.660156 16.925781 C 29.433594 16.832031 29.023438 16.269531 28.9375 16.054688 L 28.9375 16.15625 C 28.597656 16.003906 28.351562 15.597656 28.238281 15.386719 C 28.238281 15.417969 28.230469 15.492188 28.230469 15.492188 C 27.929688 15.226562 27.542969 13.660156 27.542969 13.660156 L 26.902344 14.289062 C 26.902344 14.289062 27.132812 14.761719 27.222656 14.847656 C 27.222656 14.847656 27.164062 14.855469 27.09375 14.855469 C 27.136719 14.914062 27.460938 15.378906 27.5625 15.554688 C 27.65625 15.71875 27.722656 15.644531 27.867188 15.644531 C 27.988281 15.644531 28.261719 15.839844 28.308594 15.914062 C 28.355469 15.996094 28.390625 16.097656 28.390625 16.179688 C 28.390625 16.269531 28.292969 16.390625 28.292969 16.390625 C 28.285156 16.347656 28.265625 16.335938 28.265625 16.335938 C 28.265625 16.335938 28.015625 16.644531 27.980469 16.6875 C 27.949219 16.71875 27.820312 16.738281 27.777344 16.699219 C 27.664062 16.59375 27.554688 16.523438 27.453125 16.375 C 27.402344 16.300781 27.398438 16.210938 27.339844 16.128906 C 27.140625 15.855469 26.742188 15.328125 26.652344 15.210938 C 26.648438 15.242188 26.640625 15.269531 26.636719 15.304688 C 26.535156 15.097656 26.039062 14.703125 26.039062 14.703125 L 25.523438 14.9375 C 25.523438 14.9375 26.488281 17.152344 27.34375 17.496094 C 27.34375 17.496094 26.972656 17.652344 26.515625 17.890625 C 26.449219 17.925781 26.378906 17.960938 26.308594 18 C 26.25 17.929688 26.191406 17.851562 26.132812 17.773438 C 25.859375 17.40625 25.589844 16.984375 25.589844 16.984375 C 25.574219 17.09375 25.71875 17.433594 25.960938 17.851562 C 26.007812 17.933594 26.058594 18.019531 26.113281 18.109375 C 26.050781 18.144531 25.992188 18.179688 25.929688 18.21875 C 25.476562 18.488281 25.050781 18.800781 24.894531 19.089844 L 24.785156 18.8125 L 24.894531 18.535156 L 24.894531 8.8125 L 24.839844 8.675781 Z M 24.894531 8.445312 "/>
<path style=" stroke:none;fill-rule:nonzero;fill:rgb(69.019608%,49.803922%,33.333333%);fill-opacity:1;" d="M 24.894531 18.535156 C 25.054688 18.359375 25.386719 18.148438 25.761719 17.953125 C 25.308594 17.140625 25.085938 15.851562 25.191406 15.597656 C 25.191406 15.597656 25.375 16.261719 25.605469 16.644531 C 25.816406 16.996094 26.074219 17.394531 26.324219 17.6875 C 26.53125 17.597656 26.730469 17.523438 26.902344 17.472656 C 26.152344 16.894531 25.382812 14.980469 25.382812 14.980469 L 26.175781 14.613281 C 26.175781 14.613281 26.472656 14.957031 26.570312 15.023438 C 26.570312 15.023438 26.613281 14.851562 26.636719 14.789062 C 26.636719 14.789062 26.75 14.875 26.8125 14.878906 C 26.8125 14.878906 26.832031 14.761719 26.84375 14.683594 C 26.921875 14.738281 27.054688 14.726562 27.054688 14.726562 C 26.941406 14.671875 26.804688 14.339844 26.804688 14.339844 L 27.5625 13.328125 C 27.5625 13.328125 27.828125 14.609375 28.132812 14.875 L 28.132812 9.359375 L 27.894531 9.582031 L 27.527344 9.242188 L 27.527344 8.980469 L 27.851562 9.285156 L 27.851562 8.503906 C 27.804688 8.429688 27.769531 8.375 27.746094 8.332031 C 27.695312 8.421875 27.523438 8.699219 27.328125 8.871094 C 27.292969 8.738281 27.078125 8.613281 27.078125 8.613281 C 27.078125 8.613281 27.003906 8.824219 26.886719 8.875 C 26.84375 8.800781 26.597656 8.640625 26.597656 8.640625 C 26.597656 8.640625 26.808594 8.671875 26.894531 8.75 C 26.96875 8.734375 26.984375 8.445312 26.984375 8.445312 C 26.984375 8.445312 27.296875 8.597656 27.351562 8.703125 C 27.410156 8.6875 27.503906 8.457031 27.539062 8.359375 C 27.484375 8.351562 27.40625 8.347656 27.308594 8.347656 C 27.21875 8.347656 27.105469 8.386719 26.984375 8.445312 C 26.855469 8.507812 26.71875 8.585938 26.597656 8.640625 C 26.441406 8.710938 26.203125 8.726562 26.132812 8.726562 C 26.214844 8.78125 26.300781 8.832031 26.394531 8.882812 C 26.394531 8.882812 26.023438 8.878906 25.761719 8.746094 C 25.667969 8.6875 25.570312 8.628906 25.488281 8.558594 C 25.523438 8.65625 25.578125 8.773438 25.667969 8.875 C 25.28125 8.84375 25.089844 8.625 25.035156 8.550781 C 25.011719 8.617188 24.964844 8.722656 24.894531 8.8125 L 24.753906 8.8125 L 24.753906 18.257812 Z M 24.894531 18.535156 "/>
<path style=" stroke:none;fill-rule:nonzero;fill:rgb(69.019608%,49.803922%,33.333333%);fill-opacity:1;" d="M 27.726562 7.425781 L 27.71875 7.601562 L 27.71875 8.121094 C 27.859375 8.074219 28.035156 7.84375 28.117188 7.722656 L 28.117188 7.652344 C 28.117188 7.585938 28.078125 7.535156 28.050781 7.507812 L 28.132812 7.480469 C 28.167969 7.515625 28.203125 7.570312 28.203125 7.640625 L 28.203125 7.679688 L 28.453125 7.949219 L 28.699219 7.578125 L 28.699219 7.484375 C 28.699219 7.425781 28.652344 7.355469 28.609375 7.308594 L 28.695312 7.28125 C 28.734375 7.332031 28.777344 7.40625 28.777344 7.476562 L 28.777344 7.546875 C 28.835938 7.609375 29.0625 7.839844 29.0625 7.839844 C 29.0625 7.839844 29.175781 7.597656 29.207031 7.53125 C 29.03125 7.292969 28.753906 7.027344 28.488281 6.832031 C 28.488281 6.832031 27.917969 7.359375 27.726562 7.425781 Z M 27.726562 7.425781 "/>
<path style=" stroke:none;fill-rule:nonzero;fill:rgb(69.019608%,49.803922%,33.333333%);fill-opacity:1;" d="M 29.175781 7.929688 L 29.175781 8.355469 L 29.375 8.542969 L 29.375 7.90625 C 29.375 7.84375 29.347656 7.769531 29.304688 7.691406 Z M 29.175781 7.929688 "/>
<path style=" stroke:none;fill-rule:nonzero;fill:rgb(69.019608%,49.803922%,33.333333%);fill-opacity:1;" d="M 28.554688 8.09375 L 28.554688 8.359375 L 28.785156 8.574219 L 28.785156 7.746094 Z M 28.554688 8.09375 "/>
<path style=" stroke:none;fill-rule:nonzero;fill:rgb(69.019608%,49.803922%,33.333333%);fill-opacity:1;" d="M 28.863281 8.570312 L 29.09375 8.359375 L 29.09375 8.046875 L 28.863281 7.808594 Z M 28.863281 8.570312 "/>
<path style=" stroke:none;fill-rule:nonzero;fill:rgb(69.019608%,49.803922%,33.333333%);fill-opacity:1;" d="M 27.820312 8.25 C 27.871094 8.324219 28.011719 8.507812 28.160156 8.589844 L 28.160156 7.863281 C 28.128906 7.921875 27.96875 8.175781 27.820312 8.25 Z M 27.820312 8.25 "/>
<path style=" stroke:none;fill-rule:nonzero;fill:rgb(69.019608%,49.803922%,33.333333%);fill-opacity:1;" d="M 28.242188 7.898438 L 28.242188 8.570312 L 28.472656 8.359375 L 28.472656 8.121094 Z M 28.242188 7.898438 "/>
<path style=" stroke:none;fill-rule:nonzero;fill:rgb(69.019608%,49.803922%,33.333333%);fill-opacity:1;" d="M 29.175781 8.613281 L 29.175781 9.285156 L 29.375 9.097656 L 29.375 8.800781 Z M 29.175781 8.613281 "/>
<path style=" stroke:none;fill-rule:nonzero;fill:rgb(69.019608%,49.803922%,33.333333%);fill-opacity:1;" d="M 28.863281 8.828125 L 28.863281 9.070312 L 29.09375 9.285156 L 29.09375 8.617188 Z M 28.863281 8.828125 "/>
<path style=" stroke:none;fill-rule:nonzero;fill:rgb(69.019608%,49.803922%,33.333333%);fill-opacity:1;" d="M 28.554688 8.617188 L 28.554688 9.285156 L 28.785156 9.070312 L 28.785156 8.832031 Z M 28.554688 8.617188 "/>
<path style=" stroke:none;fill-rule:nonzero;fill:rgb(69.019608%,49.803922%,33.333333%);fill-opacity:1;" d="M 28.242188 8.832031 L 28.242188 9.070312 L 28.472656 9.285156 L 28.472656 8.617188 Z M 28.242188 8.832031 "/>
<path style=" stroke:none;fill-rule:nonzero;fill:rgb(69.019608%,49.803922%,33.333333%);fill-opacity:1;" d="M 27.933594 9.285156 L 28.164062 9.070312 L 28.164062 8.847656 C 28.082031 8.800781 28.003906 8.710938 27.933594 8.617188 Z M 27.933594 9.285156 "/>
<path style=" stroke:none;fill-rule:nonzero;fill:rgb(69.019608%,49.803922%,33.333333%);fill-opacity:1;" d="M 28.511719 9.582031 L 28.273438 9.355469 L 28.273438 14.875 C 28.273438 14.875 28.253906 15.148438 28.242188 15.324219 C 28.351562 15.433594 28.753906 15.84375 28.753906 15.84375 L 28.753906 9.355469 Z M 28.511719 9.582031 "/>
<path style=" stroke:none;fill-rule:nonzero;fill:rgb(69.019608%,49.803922%,33.333333%);fill-opacity:1;" d="M 28.894531 15.636719 C 28.894531 15.816406 29.21875 16.226562 29.375 16.324219 L 29.375 9.359375 L 29.136719 9.582031 L 28.894531 9.355469 Z M 28.894531 15.636719 "/>
<path style=" stroke:none;fill-rule:nonzero;fill:rgb(81.960784%,1.568627%,16.078431%);fill-opacity:1;" d="M 26.886719 15.039062 L 26.707031 14.917969 C 26.707031 14.917969 26.695312 14.976562 26.683594 15.054688 C 26.757812 15.160156 27.191406 15.75 27.40625 16.039062 C 27.460938 16.113281 27.503906 16.292969 27.503906 16.292969 C 27.503906 16.292969 27.582031 16.257812 27.582031 16.191406 C 27.582031 16.125 27.574219 16.046875 27.574219 16.046875 C 27.574219 16.046875 27.632812 16.113281 27.734375 16.113281 C 27.734375 16.03125 27.578125 15.945312 27.570312 15.832031 C 27.691406 15.917969 27.792969 15.875 27.929688 15.914062 C 28.082031 15.960938 28.121094 16.023438 28.167969 16.023438 C 28.195312 16.019531 28.21875 15.972656 28.210938 15.945312 C 28.191406 15.894531 28.007812 15.757812 27.875 15.734375 C 27.84375 15.726562 27.601562 15.789062 27.550781 15.710938 C 27.351562 15.398438 27.019531 14.890625 26.988281 14.84375 C 26.96875 14.835938 26.949219 14.832031 26.933594 14.824219 C 26.933594 14.824219 26.933594 14.980469 26.886719 15.039062 Z M 26.886719 15.039062 "/>
<path style=" stroke:none;fill-rule:nonzero;fill:rgb(81.960784%,1.568627%,16.078431%);fill-opacity:1;" d="M 28.019531 16.011719 C 28.007812 16.023438 28.011719 16.039062 28.019531 16.050781 L 28.101562 16.121094 C 28.109375 16.128906 28.128906 16.125 28.136719 16.113281 C 28.148438 16.105469 28.144531 16.085938 28.136719 16.078125 L 28.054688 16.007812 C 28.050781 16.003906 28.042969 16 28.039062 16.003906 C 28.03125 16.003906 28.023438 16.007812 28.019531 16.011719 Z M 28.019531 16.011719 "/>
<path style=" stroke:none;fill-rule:nonzero;fill:rgb(81.960784%,1.568627%,16.078431%);fill-opacity:1;" d="M 27.898438 16.097656 C 27.875 16.125 27.875 16.164062 27.902344 16.183594 L 28.09375 16.355469 C 28.121094 16.375 28.160156 16.371094 28.183594 16.34375 C 28.207031 16.316406 28.207031 16.277344 28.179688 16.253906 L 27.988281 16.085938 C 27.976562 16.078125 27.964844 16.074219 27.953125 16.074219 C 27.933594 16.070312 27.914062 16.078125 27.898438 16.097656 Z M 27.898438 16.097656 "/>
<path style=" stroke:none;fill-rule:nonzero;fill:rgb(81.960784%,1.568627%,16.078431%);fill-opacity:1;" d="M 27.789062 16.226562 C 27.761719 16.253906 27.765625 16.292969 27.789062 16.316406 L 27.984375 16.484375 C 28.011719 16.507812 28.050781 16.503906 28.074219 16.476562 C 28.097656 16.449219 28.09375 16.40625 28.070312 16.386719 L 27.875 16.21875 C 27.867188 16.210938 27.855469 16.203125 27.84375 16.203125 C 27.824219 16.203125 27.800781 16.210938 27.789062 16.226562 Z M 27.789062 16.226562 "/>
<path style=" stroke:none;fill-rule:nonzero;fill:rgb(81.960784%,1.568627%,16.078431%);fill-opacity:1;" d="M 27.71875 16.332031 C 27.699219 16.328125 27.679688 16.335938 27.664062 16.355469 C 27.640625 16.382812 27.644531 16.421875 27.667969 16.445312 L 27.863281 16.609375 C 27.886719 16.632812 27.925781 16.628906 27.949219 16.601562 C 27.972656 16.574219 27.972656 16.535156 27.949219 16.511719 L 27.753906 16.34375 C 27.742188 16.335938 27.734375 16.332031 27.71875 16.332031 Z M 27.71875 16.332031 "/>
<path style=" stroke:none;fill-rule:nonzero;fill:rgb(69.019608%,49.803922%,33.333333%);fill-opacity:1;" d="M 24.609375 5.738281 C 24.925781 5.738281 25.152344 5.886719 25.453125 6.019531 C 25.53125 6.054688 25.605469 6.082031 25.667969 6.105469 C 25.628906 6.140625 25.597656 6.175781 25.585938 6.207031 C 25.585938 6.207031 25.722656 6.230469 25.785156 6.34375 C 25.785156 6.34375 25.65625 6.359375 25.632812 6.433594 C 25.707031 6.4375 25.777344 6.53125 25.777344 6.617188 L 25.597656 6.558594 C 25.597656 6.558594 25.640625 6.765625 25.640625 6.988281 C 25.640625 7.101562 25.476562 7.234375 25.476562 7.425781 C 25.476562 8.03125 25.628906 8.261719 25.738281 8.449219 C 25.777344 8.523438 25.8125 8.605469 25.886719 8.667969 C 25.574219 8.503906 25.339844 8.296875 25.339844 8.101562 L 25.339844 7.375 L 25.261719 7.375 L 25.261719 8.101562 C 25.261719 8.242188 25.292969 8.308594 25.292969 8.308594 C 25.34375 8.460938 25.441406 8.703125 25.503906 8.796875 C 25.21875 8.640625 25.070312 8.449219 25.070312 8.375 L 25.070312 7.375 L 24.992188 7.375 L 24.992188 8.390625 L 25.007812 8.460938 C 24.972656 8.511719 24.925781 8.574219 24.894531 8.59375 C 24.863281 8.574219 24.820312 8.511719 24.785156 8.460938 L 24.800781 8.390625 L 24.800781 7.375 L 24.71875 7.375 L 24.71875 8.375 C 24.71875 8.449219 24.574219 8.640625 24.289062 8.796875 C 24.347656 8.703125 24.449219 8.460938 24.496094 8.308594 C 24.496094 8.308594 24.53125 8.242188 24.53125 8.101562 L 24.53125 7.375 L 24.449219 7.375 L 24.449219 8.101562 C 24.449219 8.296875 24.21875 8.503906 23.90625 8.667969 C 23.980469 8.605469 24.011719 8.519531 24.054688 8.449219 C 24.171875 8.246094 24.320312 7.984375 24.320312 7.246094 C 24.320312 6.96875 24.277344 6.78125 24.207031 6.648438 C 24.183594 6.605469 24.15625 6.492188 24.320312 6.492188 C 24.40625 6.492188 24.605469 6.644531 24.605469 6.644531 C 24.605469 6.644531 24.597656 6.519531 24.496094 6.453125 C 24.480469 6.441406 24.453125 6.40625 24.453125 6.371094 C 24.453125 6.347656 24.496094 6.285156 24.53125 6.269531 C 24.550781 6.257812 24.191406 6.195312 24.191406 6.03125 C 24.191406 5.996094 24.210938 5.972656 24.289062 5.972656 C 24.386719 5.972656 24.546875 6.09375 24.6875 6.09375 C 24.792969 6.09375 24.835938 6.066406 24.941406 6.066406 C 25.074219 6.066406 25.351562 6.316406 25.445312 6.308594 C 25.339844 6.242188 25.167969 5.992188 24.910156 5.992188 C 24.824219 5.992188 24.742188 6.011719 24.660156 6.011719 C 24.550781 6.011719 24.445312 5.914062 24.332031 5.914062 C 24.253906 5.914062 24.167969 5.917969 24.15625 5.898438 C 24.132812 5.863281 24.152344 5.84375 24.175781 5.8125 C 24.214844 5.757812 24.324219 5.742188 24.429688 5.738281 C 24.464844 5.738281 24.496094 5.738281 24.527344 5.738281 C 24.558594 5.738281 24.585938 5.738281 24.609375 5.738281 Z M 24.609375 5.738281 "/>
<path style=" stroke:none;fill-rule:nonzero;fill:rgb(80%,3.529412%,18.431373%);fill-opacity:1;" d="M 23.574219 6.128906 C 23.574219 6.128906 23.644531 6.003906 23.8125 6.003906 C 23.882812 6.003906 24.117188 6 24.117188 6 C 24.148438 6.078125 24.292969 6.214844 24.292969 6.355469 C 24.292969 6.355469 24.148438 6.09375 23.742188 6.09375 C 23.644531 6.09375 23.574219 6.128906 23.574219 6.128906 Z M 23.574219 6.128906 "/>
<path style=" stroke:none;fill-rule:nonzero;fill:rgb(81.960784%,1.568627%,16.078431%);fill-opacity:1;" d="M 24.230469 6.40625 C 24.230469 6.40625 24.144531 6.496094 24.128906 6.542969 C 24.042969 6.511719 23.894531 6.359375 23.894531 6.359375 C 23.894531 6.359375 24.019531 6.433594 24.230469 6.40625 Z M 24.230469 6.40625 "/>
<path style=" stroke:none;fill-rule:nonzero;fill:rgb(0%,0%,0%);fill-opacity:1;" d="M 24.09375 6.164062 C 24.09375 6.164062 23.996094 6.132812 23.996094 6.101562 C 23.996094 6.058594 24.042969 6.058594 24.074219 6.089844 C 24.09375 6.113281 24.09375 6.164062 24.09375 6.164062 Z M 24.09375 6.164062 "/>
<path style=" stroke:none;fill-rule:nonzero;fill:rgb(0%,0%,0%);fill-opacity:1;" d="M 24.664062 6.167969 C 24.664062 6.105469 24.601562 6.054688 24.523438 6.054688 C 24.445312 6.054688 24.378906 6.105469 24.378906 6.167969 C 24.378906 6.230469 24.445312 6.28125 24.523438 6.28125 C 24.601562 6.28125 24.664062 6.230469 24.664062 6.167969 Z M 24.664062 6.167969 "/>
<path style=" stroke:none;fill-rule:nonzero;fill:rgb(96.078431%,83.137255%,0.784314%);fill-opacity:1;" d="M 24.621094 6.167969 C 24.621094 6.222656 24.578125 6.265625 24.523438 6.265625 C 24.46875 6.265625 24.421875 6.222656 24.421875 6.167969 C 24.421875 6.113281 24.46875 6.070312 24.523438 6.070312 C 24.578125 6.070312 24.621094 6.113281 24.621094 6.167969 Z M 24.621094 6.167969 "/>
<path style=" stroke:none;fill-rule:nonzero;fill:rgb(0%,0%,0%);fill-opacity:1;" d="M 24.5625 6.167969 C 24.5625 6.191406 24.546875 6.210938 24.523438 6.210938 C 24.5 6.210938 24.480469 6.191406 24.480469 6.167969 C 24.480469 6.144531 24.5 6.125 24.523438 6.125 C 24.546875 6.125 24.5625 6.144531 24.5625 6.167969 Z M 24.5625 6.167969 "/>
<path style=" stroke:none;fill-rule:nonzero;fill:rgb(0%,0%,0%);fill-opacity:1;" d="M 22.261719 16.441406 L 22.710938 16.6875 L 22.601562 17.1875 L 22.152344 16.945312 Z M 22.261719 16.441406 "/>
<path style=" stroke:none;fill-rule:nonzero;fill:rgb(0%,0%,0%);fill-opacity:1;" d="M 20.164062 11.632812 L 20 11.707031 L 21.832031 15.71875 L 22.027344 15.71875 Z M 22.324219 16.363281 L 22.191406 16.5 L 22.273438 16.679688 L 22.433594 16.605469 Z M 22.324219 16.363281 "/>
<path style=" stroke:none;fill-rule:nonzero;fill:rgb(0%,0%,0%);fill-opacity:1;" d="M 20.734375 14.792969 C 20.734375 14.792969 20.886719 15.113281 21.003906 15.15625 C 20.945312 15.140625 20.746094 15.210938 20.746094 15.210938 C 20.746094 15.210938 21.09375 15.523438 21.390625 15.542969 C 21.636719 15.558594 21.757812 15.4375 21.757812 15.4375 L 21.710938 15.171875 C 21.710938 15.171875 21.558594 14.988281 21.3125 14.902344 C 21.066406 14.816406 20.734375 14.792969 20.734375 14.792969 Z M 20.734375 14.792969 "/>
<path style=" stroke:none;fill-rule:nonzero;fill:rgb(0%,0%,0%);fill-opacity:1;" d="M 21.894531 14.222656 C 21.894531 14.222656 21.683594 14.40625 21.625 14.617188 C 21.566406 14.828125 21.664062 15.070312 21.664062 15.070312 L 21.839844 15.402344 C 21.839844 15.402344 22.089844 15.269531 22.195312 15.074219 C 22.300781 14.875 22.261719 14.609375 22.261719 14.609375 C 22.261719 14.609375 22.066406 14.683594 22.039062 14.714844 C 22.082031 14.496094 21.894531 14.222656 21.894531 14.222656 Z M 21.894531 14.222656 "/>
<path style=" stroke:none;fill-rule:nonzero;fill:rgb(0%,0%,0%);fill-opacity:1;" d="M 21.210938 14.136719 C 21.210938 14.136719 20.96875 14.21875 20.734375 14.207031 C 20.507812 14.191406 20.324219 14.003906 20.324219 14.003906 C 20.324219 14.003906 20.507812 13.878906 20.601562 13.894531 C 20.5 13.859375 20.355469 13.605469 20.355469 13.605469 C 20.355469 13.605469 20.5625 13.542969 20.746094 13.613281 C 20.929688 13.683594 21.089844 13.882812 21.089844 13.882812 Z M 21.210938 14.136719 "/>
<path style=" stroke:none;fill-rule:nonzero;fill:rgb(0%,0%,0%);fill-opacity:1;" d="M 21.292969 12.953125 C 21.292969 12.953125 21.414062 13.207031 21.386719 13.292969 C 21.425781 13.234375 21.566406 13.144531 21.566406 13.144531 C 21.566406 13.144531 21.652344 13.550781 21.570312 13.800781 C 21.488281 14.050781 21.238281 14.148438 21.238281 14.148438 L 20.960938 13.609375 C 20.960938 13.609375 20.921875 13.410156 21.007812 13.253906 C 21.09375 13.097656 21.292969 12.953125 21.292969 12.953125 Z M 21.292969 12.953125 "/>
<path style=" stroke:none;fill-rule:nonzero;fill:rgb(0%,0%,0%);fill-opacity:1;" d="M 19.71875 12.289062 C 19.71875 12.289062 19.980469 12.261719 20.21875 12.363281 C 20.421875 12.445312 20.480469 12.597656 20.480469 12.597656 L 20.578125 12.859375 C 20.578125 12.859375 20.296875 12.96875 20.070312 12.886719 C 19.84375 12.804688 19.679688 12.535156 19.679688 12.535156 C 19.679688 12.535156 19.835938 12.472656 19.894531 12.496094 C 19.808594 12.457031 19.71875 12.289062 19.71875 12.289062 Z M 19.71875 12.289062 "/>
<path style=" stroke:none;fill-rule:nonzero;fill:rgb(0%,0%,0%);fill-opacity:1;" d="M 20.542969 11.800781 C 20.542969 11.800781 20.65625 11.949219 20.660156 12.117188 C 20.691406 12.027344 20.835938 11.925781 20.835938 11.925781 C 20.835938 11.925781 20.980469 12.285156 20.949219 12.539062 C 20.917969 12.792969 20.703125 12.941406 20.703125 12.941406 L 20.441406 12.4375 C 20.441406 12.4375 20.355469 12.234375 20.378906 12.074219 C 20.40625 11.914062 20.542969 11.800781 20.542969 11.800781 Z M 20.542969 11.800781 "/>
<path style=" stroke:none;fill-rule:nonzero;fill:rgb(0%,0%,0%);fill-opacity:1;" d="M 19.636719 10.839844 C 19.636719 10.839844 19.585938 11.113281 19.667969 11.269531 C 19.742188 11.410156 19.785156 11.441406 19.785156 11.441406 C 19.648438 11.351562 19.441406 11.34375 19.441406 11.34375 C 19.441406 11.34375 19.515625 11.640625 19.691406 11.777344 C 19.867188 11.914062 20.140625 11.882812 20.140625 11.882812 C 20.140625 11.882812 20.320312 11.640625 20.308594 11.382812 C 20.296875 11.128906 20.089844 10.851562 20.089844 10.851562 C 20.089844 10.851562 20.011719 11.019531 20.003906 11.144531 C 19.953125 11.015625 19.636719 10.839844 19.636719 10.839844 Z M 19.636719 10.839844 "/>
<path style=" stroke:none;fill-rule:nonzero;fill:rgb(0%,0%,0%);fill-opacity:1;" d="M 21.773438 15.425781 L 21.78125 15.523438 C 21.945312 15.523438 21.96875 15.507812 22.011719 15.558594 C 22.039062 15.59375 22.105469 15.625 22.171875 15.59375 C 22.238281 15.5625 22.269531 15.480469 22.238281 15.414062 C 22.207031 15.347656 22.144531 15.335938 22.085938 15.347656 C 22.046875 15.355469 22.023438 15.382812 21.992188 15.398438 C 21.933594 15.429688 21.773438 15.425781 21.773438 15.425781 Z M 21.773438 15.425781 "/>
<path style=" stroke:none;fill-rule:nonzero;fill:rgb(0%,0%,0%);fill-opacity:1;" d="M 21.757812 15.347656 L 21.839844 15.40625 C 21.753906 15.546875 21.726562 15.558594 21.75 15.621094 C 21.761719 15.664062 21.753906 15.734375 21.691406 15.777344 C 21.632812 15.816406 21.546875 15.800781 21.507812 15.738281 C 21.464844 15.675781 21.488281 15.617188 21.527344 15.570312 C 21.554688 15.546875 21.59375 15.539062 21.621094 15.523438 C 21.679688 15.488281 21.757812 15.347656 21.757812 15.347656 Z M 21.757812 15.347656 "/>
<path style=" stroke:none;fill-rule:nonzero;fill:rgb(0%,0%,0%);fill-opacity:1;" d="M 21.207031 14.183594 L 21.214844 14.28125 C 21.378906 14.28125 21.402344 14.265625 21.445312 14.316406 C 21.472656 14.351562 21.539062 14.382812 21.605469 14.351562 C 21.671875 14.320312 21.699219 14.242188 21.671875 14.175781 C 21.640625 14.109375 21.578125 14.09375 21.519531 14.105469 C 21.480469 14.113281 21.457031 14.140625 21.425781 14.15625 C 21.367188 14.1875 21.207031 14.183594 21.207031 14.183594 Z M 21.207031 14.183594 "/>
<path style=" stroke:none;fill-rule:nonzero;fill:rgb(0%,0%,0%);fill-opacity:1;" d="M 21.238281 14.21875 L 21.308594 14.289062 C 21.203125 14.410156 21.175781 14.417969 21.1875 14.484375 C 21.195312 14.527344 21.171875 14.597656 21.105469 14.628906 C 21.039062 14.660156 20.960938 14.628906 20.929688 14.5625 C 20.898438 14.496094 20.929688 14.4375 20.976562 14.402344 C 21.007812 14.378906 21.042969 14.378906 21.078125 14.367188 C 21.140625 14.34375 21.238281 14.21875 21.238281 14.21875 Z M 21.238281 14.21875 "/>
<path style=" stroke:none;fill-rule:nonzero;fill:rgb(0%,0%,0%);fill-opacity:1;" d="M 20.65625 13.019531 L 20.664062 13.117188 C 20.828125 13.121094 20.851562 13.105469 20.894531 13.15625 C 20.921875 13.1875 20.988281 13.21875 21.054688 13.1875 C 21.121094 13.160156 21.152344 13.078125 21.121094 13.011719 C 21.089844 12.945312 21.027344 12.929688 20.96875 12.941406 C 20.933594 12.949219 20.910156 12.980469 20.878906 12.996094 C 20.816406 13.023438 20.65625 13.019531 20.65625 13.019531 Z M 20.65625 13.019531 "/>
<path style=" stroke:none;fill-rule:nonzero;fill:rgb(0%,0%,0%);fill-opacity:1;" d="M 20.703125 13 L 20.773438 13.070312 C 20.667969 13.195312 20.636719 13.203125 20.648438 13.265625 C 20.65625 13.308594 20.636719 13.378906 20.570312 13.410156 C 20.503906 13.441406 20.421875 13.410156 20.394531 13.34375 C 20.363281 13.277344 20.390625 13.222656 20.441406 13.183594 C 20.46875 13.160156 20.507812 13.160156 20.539062 13.148438 C 20.601562 13.125 20.703125 13 20.703125 13 Z M 20.703125 13 "/>
<path style=" stroke:none;fill-rule:nonzero;fill:rgb(0%,0%,0%);fill-opacity:1;" d="M 20.070312 11.792969 L 20.078125 11.890625 C 20.242188 11.890625 20.265625 11.875 20.308594 11.925781 C 20.335938 11.960938 20.402344 11.992188 20.46875 11.960938 C 20.535156 11.929688 20.566406 11.851562 20.535156 11.785156 C 20.503906 11.71875 20.445312 11.703125 20.382812 11.714844 C 20.347656 11.722656 20.324219 11.75 20.292969 11.765625 C 20.234375 11.796875 20.070312 11.792969 20.070312 11.792969 Z M 20.070312 11.792969 "/>
<path style=" stroke:none;fill-rule:nonzero;fill:rgb(0%,0%,0%);fill-opacity:1;" d="M 20.117188 11.773438 L 20.1875 11.84375 C 20.082031 11.964844 20.054688 11.972656 20.0625 12.039062 C 20.070312 12.082031 20.050781 12.152344 19.984375 12.183594 C 19.917969 12.214844 19.839844 12.183594 19.808594 12.117188 C 19.777344 12.050781 19.808594 11.992188 19.855469 11.957031 C 19.882812 11.933594 19.921875 11.933594 19.953125 11.921875 C 20.015625 11.898438 20.117188 11.773438 20.117188 11.773438 Z M 20.117188 11.773438 "/>
<path style=" stroke:none;fill-rule:nonzero;fill:rgb(96.078431%,83.137255%,0.784314%);fill-opacity:1;" d="M 22.324219 16.585938 L 22.605469 16.738281 L 22.535156 17.046875 L 22.257812 16.894531 Z M 22.324219 16.585938 "/>
<path style=" stroke:none;fill-rule:nonzero;fill:rgb(96.078431%,83.137255%,0.784314%);fill-opacity:1;" d="M 21.101562 13.890625 C 21.042969 13.914062 20.957031 13.660156 20.894531 13.519531 C 20.828125 13.378906 20.695312 13.15625 20.734375 13.140625 C 20.773438 13.121094 20.828125 13.238281 20.898438 13.382812 C 20.964844 13.53125 21.15625 13.867188 21.101562 13.890625 Z M 21.101562 13.890625 "/>
<path style=" stroke:none;fill-rule:nonzero;fill:rgb(96.078431%,83.137255%,0.784314%);fill-opacity:1;" d="M 20.503906 12.550781 C 20.445312 12.574219 20.378906 12.40625 20.316406 12.269531 C 20.25 12.125 20.1875 12.023438 20.226562 12.007812 C 20.265625 11.988281 20.328125 12.113281 20.382812 12.230469 C 20.433594 12.34375 20.558594 12.527344 20.503906 12.550781 Z M 20.503906 12.550781 "/>
<path style=" stroke:none;fill-rule:nonzero;fill:rgb(96.078431%,83.137255%,0.784314%);fill-opacity:1;" d="M 21.890625 15.589844 C 21.847656 15.605469 21.644531 15.183594 21.484375 14.828125 C 21.320312 14.472656 21.203125 14.1875 21.238281 14.167969 C 21.28125 14.152344 21.410156 14.484375 21.574219 14.839844 C 21.734375 15.195312 21.925781 15.582031 21.890625 15.589844 Z M 21.890625 15.589844 "/>
<path style=" stroke:none;fill-rule:nonzero;fill:rgb(3.529412%,46.666667%,32.941176%);fill-opacity:1;" d="M 19.714844 11.003906 C 19.714844 11.003906 19.707031 11.207031 19.773438 11.320312 C 19.839844 11.433594 19.988281 11.476562 19.988281 11.476562 C 19.988281 11.476562 19.996094 11.277344 19.929688 11.164062 C 19.863281 11.050781 19.714844 11.003906 19.714844 11.003906 Z M 19.714844 11.003906 "/>
<path style=" stroke:none;fill-rule:nonzero;fill:rgb(3.529412%,46.666667%,32.941176%);fill-opacity:1;" d="M 19.578125 11.457031 C 19.578125 11.457031 19.75 11.46875 19.851562 11.542969 C 19.953125 11.621094 19.992188 11.78125 19.992188 11.78125 C 19.992188 11.78125 19.875 11.792969 19.773438 11.714844 C 19.675781 11.640625 19.578125 11.457031 19.578125 11.457031 Z M 19.578125 11.457031 "/>
<path style=" stroke:none;fill-rule:nonzero;fill:rgb(3.529412%,46.666667%,32.941176%);fill-opacity:1;" d="M 20.121094 11.054688 C 20.121094 11.054688 20.066406 11.1875 20.070312 11.328125 C 20.078125 11.472656 20.160156 11.632812 20.160156 11.632812 C 20.160156 11.632812 20.238281 11.460938 20.230469 11.320312 C 20.222656 11.175781 20.144531 11.09375 20.121094 11.054688 Z M 20.121094 11.054688 "/>
<path style=" stroke:none;fill-rule:nonzero;fill:rgb(3.529412%,46.666667%,32.941176%);fill-opacity:1;" d="M 19.828125 12.339844 C 19.828125 12.339844 19.914062 12.460938 20.046875 12.527344 C 20.179688 12.589844 20.375 12.59375 20.375 12.59375 C 20.375 12.59375 20.277344 12.464844 20.144531 12.402344 C 20.011719 12.335938 19.828125 12.339844 19.828125 12.339844 Z M 19.828125 12.339844 "/>
<path style=" stroke:none;fill-rule:nonzero;fill:rgb(3.529412%,46.666667%,32.941176%);fill-opacity:1;" d="M 19.871094 12.617188 C 19.871094 12.617188 19.933594 12.742188 20.050781 12.792969 C 20.164062 12.847656 20.398438 12.84375 20.398438 12.84375 C 20.398438 12.84375 20.308594 12.726562 20.195312 12.675781 C 20.078125 12.621094 19.871094 12.617188 19.871094 12.617188 Z M 19.871094 12.617188 "/>
<path style=" stroke:none;fill-rule:nonzero;fill:rgb(3.529412%,46.666667%,32.941176%);fill-opacity:1;" d="M 20.53125 11.964844 C 20.53125 11.964844 20.464844 12.078125 20.46875 12.203125 C 20.476562 12.332031 20.558594 12.46875 20.558594 12.46875 C 20.558594 12.46875 20.617188 12.308594 20.609375 12.183594 C 20.605469 12.058594 20.53125 11.964844 20.53125 11.964844 Z M 20.53125 11.964844 "/>
<path style=" stroke:none;fill-rule:nonzero;fill:rgb(3.529412%,46.666667%,32.941176%);fill-opacity:1;" d="M 20.789062 12.125 C 20.789062 12.125 20.667969 12.285156 20.652344 12.449219 C 20.636719 12.613281 20.71875 12.78125 20.71875 12.78125 C 20.71875 12.78125 20.863281 12.636719 20.878906 12.472656 C 20.898438 12.308594 20.789062 12.125 20.789062 12.125 Z M 20.789062 12.125 "/>
<path style=" stroke:none;fill-rule:nonzero;fill:rgb(3.529412%,46.666667%,32.941176%);fill-opacity:1;" d="M 20.460938 13.636719 C 20.460938 13.636719 20.476562 13.695312 20.523438 13.757812 C 20.574219 13.820312 20.660156 13.886719 20.660156 13.886719 C 20.660156 13.886719 20.742188 13.859375 20.84375 13.882812 C 20.945312 13.902344 21.078125 13.996094 21.078125 13.996094 C 21.078125 13.996094 20.933594 13.777344 20.78125 13.691406 C 20.632812 13.609375 20.460938 13.636719 20.460938 13.636719 Z M 20.460938 13.636719 "/>
<path style=" stroke:none;fill-rule:nonzero;fill:rgb(3.529412%,46.666667%,32.941176%);fill-opacity:1;" d="M 20.445312 14.011719 C 20.445312 14.011719 20.632812 13.929688 20.789062 13.949219 C 20.945312 13.972656 21.085938 14.09375 21.085938 14.09375 C 21.085938 14.09375 20.875 14.167969 20.71875 14.144531 C 20.566406 14.125 20.445312 14.011719 20.445312 14.011719 Z M 20.445312 14.011719 "/>
<path style=" stroke:none;fill-rule:nonzero;fill:rgb(3.529412%,46.666667%,32.941176%);fill-opacity:1;" d="M 21.242188 13.132812 C 21.242188 13.132812 21.078125 13.308594 21.0625 13.464844 C 21.046875 13.617188 21.199219 13.757812 21.199219 13.757812 C 21.199219 13.757812 21.191406 13.660156 21.214844 13.597656 C 21.242188 13.53125 21.296875 13.460938 21.296875 13.460938 C 21.296875 13.460938 21.320312 13.382812 21.3125 13.320312 C 21.296875 13.230469 21.242188 13.132812 21.242188 13.132812 Z M 21.242188 13.132812 "/>
<path style=" stroke:none;fill-rule:nonzero;fill:rgb(3.529412%,46.666667%,32.941176%);fill-opacity:1;" d="M 21.484375 13.335938 C 21.484375 13.335938 21.324219 13.496094 21.285156 13.667969 C 21.242188 13.835938 21.316406 14.019531 21.316406 14.019531 C 21.316406 14.019531 21.460938 13.90625 21.5 13.734375 C 21.542969 13.566406 21.484375 13.335938 21.484375 13.335938 Z M 21.484375 13.335938 "/>
<path style=" stroke:none;fill-rule:nonzero;fill:rgb(3.529412%,46.666667%,32.941176%);fill-opacity:1;" d="M 21.875 14.363281 C 21.875 14.363281 21.949219 14.515625 21.964844 14.636719 C 21.984375 14.761719 21.96875 14.804688 21.96875 14.804688 C 21.96875 14.804688 21.894531 14.878906 21.859375 14.921875 C 21.816406 14.976562 21.8125 15.074219 21.8125 15.074219 C 21.8125 15.074219 21.664062 14.855469 21.6875 14.695312 C 21.710938 14.535156 21.875 14.363281 21.875 14.363281 Z M 21.875 14.363281 "/>
<path style=" stroke:none;fill-rule:nonzero;fill:rgb(3.529412%,46.666667%,32.941176%);fill-opacity:1;" d="M 22.1875 14.710938 C 22.1875 14.710938 22 14.835938 21.921875 14.960938 C 21.847656 15.089844 21.886719 15.222656 21.886719 15.222656 C 21.886719 15.222656 22.023438 15.210938 22.097656 15.082031 C 22.171875 14.953125 22.1875 14.710938 22.1875 14.710938 Z M 22.1875 14.710938 "/>
<path style=" stroke:none;fill-rule:nonzero;fill:rgb(3.529412%,46.666667%,32.941176%);fill-opacity:1;" d="M 20.945312 15.238281 C 20.945312 15.238281 21.21875 15.230469 21.382812 15.269531 C 21.550781 15.3125 21.609375 15.402344 21.609375 15.402344 C 21.609375 15.402344 21.421875 15.488281 21.257812 15.449219 C 21.089844 15.40625 20.945312 15.238281 20.945312 15.238281 Z M 20.945312 15.238281 "/>
<path style=" stroke:none;fill-rule:nonzero;fill:rgb(3.529412%,46.666667%,32.941176%);fill-opacity:1;" d="M 20.898438 14.914062 C 20.898438 14.914062 21.019531 15.105469 21.179688 15.171875 C 21.398438 15.269531 21.652344 15.222656 21.652344 15.222656 C 21.652344 15.222656 21.515625 15.054688 21.324219 14.980469 C 21.136719 14.90625 20.898438 14.914062 20.898438 14.914062 Z M 20.898438 14.914062 "/>
<path style=" stroke:none;fill-rule:nonzero;fill:rgb(0%,0%,0%);fill-opacity:1;" d="M 30.242188 11.164062 L 30.277344 11.242188 C 30.277344 11.242188 30.21875 11.261719 30.195312 11.3125 C 30.167969 11.363281 30.210938 11.433594 30.210938 11.433594 C 30.210938 11.433594 29.910156 11.410156 29.863281 11.441406 C 29.820312 11.46875 29.882812 11.675781 29.855469 11.851562 C 29.816406 12.09375 29.71875 12.074219 29.714844 12.121094 C 29.710938 12.167969 29.753906 12.238281 29.753906 12.238281 C 29.753906 12.238281 29.695312 12.257812 29.683594 12.28125 C 29.664062 12.320312 29.699219 12.390625 29.675781 12.433594 C 29.542969 12.691406 29.351562 13.070312 29.222656 13.320312 C 29.207031 13.355469 29.15625 13.367188 29.132812 13.414062 C 29.113281 13.457031 29.128906 13.519531 29.128906 13.519531 C 29.128906 13.519531 29.042969 13.527344 29.015625 13.582031 C 28.984375 13.644531 29.003906 13.726562 29.003906 13.726562 C 29.003906 13.726562 28.949219 13.734375 28.921875 13.785156 C 28.894531 13.839844 28.941406 13.871094 28.929688 13.894531 C 28.757812 14.230469 28.558594 14.625 28.433594 14.867188 C 28.386719 14.957031 28.230469 14.976562 28.136719 15.15625 C 28.050781 15.332031 28.175781 15.460938 28.175781 15.460938 C 28.175781 15.460938 28.042969 15.472656 28.007812 15.539062 C 27.972656 15.609375 28 15.71875 28.097656 15.765625 C 28.191406 15.816406 28.296875 15.777344 28.332031 15.707031 C 28.367188 15.636719 28.296875 15.523438 28.296875 15.523438 C 28.296875 15.523438 28.476562 15.546875 28.566406 15.371094 C 28.65625 15.191406 28.582031 15.054688 28.625 14.964844 C 28.75 14.722656 28.949219 14.328125 29.121094 13.992188 C 29.132812 13.96875 29.183594 13.988281 29.214844 13.933594 C 29.238281 13.882812 29.214844 13.835938 29.214844 13.835938 C 29.214844 13.835938 29.292969 13.800781 29.324219 13.742188 C 29.351562 13.683594 29.308594 13.609375 29.308594 13.609375 C 29.308594 13.609375 29.367188 13.589844 29.390625 13.546875 C 29.414062 13.5 29.398438 13.453125 29.414062 13.417969 C 29.542969 13.167969 29.734375 12.789062 29.867188 12.53125 C 29.890625 12.488281 29.964844 12.472656 29.984375 12.433594 C 29.996094 12.410156 29.976562 12.355469 29.976562 12.355469 C 29.976562 12.355469 30.058594 12.34375 30.09375 12.316406 C 30.132812 12.285156 30.058594 12.21875 30.234375 12.042969 C 30.359375 11.917969 30.5625 11.84375 30.558594 11.792969 C 30.554688 11.738281 30.359375 11.507812 30.359375 11.507812 C 30.359375 11.507812 30.441406 11.503906 30.46875 11.449219 C 30.492188 11.398438 30.476562 11.339844 30.476562 11.339844 L 30.558594 11.324219 L 30.558594 10.933594 Z M 27.515625 16.613281 C 27.503906 16.636719 27.503906 16.667969 27.515625 16.699219 C 27.515625 16.699219 27.417969 16.667969 27.382812 16.683594 C 27.351562 16.699219 27.382812 17.167969 27.382812 17.167969 C 27.382812 17.167969 27.78125 16.917969 27.773438 16.882812 C 27.769531 16.84375 27.683594 16.78125 27.683594 16.78125 C 27.714844 16.777344 27.742188 16.757812 27.753906 16.734375 C 27.765625 16.707031 27.769531 16.632812 27.679688 16.585938 C 27.644531 16.570312 27.613281 16.566406 27.589844 16.566406 C 27.550781 16.570312 27.523438 16.59375 27.515625 16.613281 Z M 27.515625 16.613281 "/>
<path style=" stroke:none;fill-rule:nonzero;fill:rgb(96.078431%,83.137255%,0.784314%);fill-opacity:1;" d="M 30.316406 11.179688 L 30.503906 11.277344 L 30.5 11.050781 Z M 30.316406 11.179688 "/>
<path style=" stroke:none;fill-rule:nonzero;fill:rgb(96.078431%,83.137255%,0.784314%);fill-opacity:1;" d="M 30.242188 11.316406 C 30.21875 11.363281 30.242188 11.425781 30.296875 11.453125 C 30.347656 11.480469 30.410156 11.460938 30.433594 11.414062 C 30.457031 11.367188 30.433594 11.308594 30.382812 11.28125 C 30.363281 11.269531 30.339844 11.265625 30.320312 11.269531 C 30.289062 11.269531 30.257812 11.289062 30.242188 11.316406 Z M 30.242188 11.316406 "/>
<path style=" stroke:none;fill-rule:nonzero;fill:rgb(96.078431%,83.137255%,0.784314%);fill-opacity:1;" d="M 29.917969 11.488281 C 29.898438 11.503906 29.925781 11.671875 29.921875 11.816406 C 29.914062 11.949219 29.871094 11.988281 29.847656 12.035156 C 29.828125 12.078125 29.746094 12.128906 29.746094 12.128906 L 29.8125 12.195312 C 29.8125 12.195312 29.855469 12.128906 29.921875 11.996094 C 30 11.84375 30 11.5625 30.023438 11.546875 C 30.042969 11.535156 30.207031 11.492188 30.207031 11.492188 C 30.207031 11.492188 30.054688 11.484375 29.972656 11.484375 C 29.945312 11.484375 29.925781 11.488281 29.917969 11.488281 Z M 29.917969 11.488281 "/>
<path style=" stroke:none;fill-rule:nonzero;fill:rgb(96.078431%,83.137255%,0.784314%);fill-opacity:1;" d="M 29.9375 12.269531 C 29.9375 12.269531 29.957031 12.210938 30.035156 12.058594 C 30.128906 11.878906 30.324219 11.75 30.328125 11.714844 C 30.332031 11.683594 30.257812 11.523438 30.257812 11.523438 C 30.257812 11.523438 30.085938 11.558594 30.0625 11.582031 C 30.039062 11.601562 30.046875 11.835938 29.957031 12.019531 C 29.878906 12.167969 29.84375 12.222656 29.84375 12.222656 Z M 29.9375 12.269531 "/>
<path style=" stroke:none;fill-rule:nonzero;fill:rgb(96.078431%,83.137255%,0.784314%);fill-opacity:1;" d="M 30.378906 11.726562 C 30.378906 11.753906 30.152344 11.917969 30.074219 12.074219 C 30.007812 12.207031 29.976562 12.277344 29.976562 12.277344 L 30.070312 12.292969 C 30.070312 12.292969 30.0625 12.199219 30.085938 12.15625 C 30.109375 12.109375 30.113281 12.050781 30.222656 11.96875 C 30.335938 11.878906 30.488281 11.800781 30.484375 11.777344 C 30.484375 11.757812 30.316406 11.546875 30.316406 11.546875 C 30.316406 11.546875 30.378906 11.703125 30.378906 11.726562 Z M 30.378906 11.726562 "/>
<path style=" stroke:none;fill-rule:nonzero;fill:rgb(96.078431%,83.137255%,0.784314%);fill-opacity:1;" d="M 29.710938 12.742188 C 29.847656 12.472656 29.890625 12.453125 29.90625 12.421875 C 29.925781 12.382812 29.921875 12.335938 29.859375 12.304688 C 29.835938 12.292969 29.816406 12.289062 29.800781 12.292969 C 29.773438 12.292969 29.75 12.3125 29.738281 12.335938 C 29.722656 12.371094 29.730469 12.414062 29.59375 12.683594 L 29.28125 13.292969 C 29.28125 13.292969 29.25 13.355469 29.3125 13.386719 C 29.371094 13.417969 29.398438 13.355469 29.398438 13.355469 Z M 29.710938 12.742188 "/>
<path style=" stroke:none;fill-rule:nonzero;fill:rgb(96.078431%,83.137255%,0.784314%);fill-opacity:1;" d="M 29.160156 13.441406 C 29.144531 13.476562 29.171875 13.523438 29.226562 13.550781 C 29.277344 13.578125 29.335938 13.574219 29.355469 13.539062 C 29.371094 13.507812 29.339844 13.457031 29.289062 13.429688 C 29.261719 13.417969 29.234375 13.410156 29.210938 13.414062 C 29.1875 13.414062 29.167969 13.425781 29.160156 13.441406 Z M 29.160156 13.441406 "/>
<path style=" stroke:none;fill-rule:nonzero;fill:rgb(96.078431%,83.137255%,0.784314%);fill-opacity:1;" d="M 29.046875 13.617188 C 29.023438 13.660156 29.058594 13.71875 29.121094 13.753906 C 29.1875 13.785156 29.257812 13.777344 29.277344 13.734375 C 29.300781 13.691406 29.265625 13.628906 29.203125 13.597656 C 29.175781 13.585938 29.152344 13.578125 29.128906 13.578125 C 29.09375 13.574219 29.058594 13.589844 29.046875 13.617188 Z M 29.046875 13.617188 "/>
<path style=" stroke:none;fill-rule:nonzero;fill:rgb(96.078431%,83.137255%,0.784314%);fill-opacity:1;" d="M 28.972656 13.808594 C 28.957031 13.84375 28.984375 13.890625 29.039062 13.917969 C 29.089844 13.945312 29.148438 13.941406 29.167969 13.90625 C 29.183594 13.875 29.152344 13.824219 29.101562 13.796875 C 29.074219 13.785156 29.046875 13.777344 29.023438 13.78125 C 29 13.78125 28.980469 13.792969 28.972656 13.808594 Z M 28.972656 13.808594 "/>
<path style=" stroke:none;fill-rule:nonzero;fill:rgb(96.078431%,83.137255%,0.784314%);fill-opacity:1;" d="M 28.925781 13.992188 C 28.925781 13.992188 28.578125 14.675781 28.457031 14.914062 C 28.417969 14.988281 28.253906 15.039062 28.191406 15.164062 C 28.125 15.289062 28.171875 15.410156 28.257812 15.453125 C 28.339844 15.496094 28.464844 15.464844 28.527344 15.335938 C 28.59375 15.210938 28.535156 15.050781 28.574219 14.972656 C 28.695312 14.734375 29.042969 14.054688 29.042969 14.054688 C 29.042969 14.054688 29.078125 13.992188 29.015625 13.960938 C 29 13.953125 28.988281 13.953125 28.976562 13.957031 C 28.941406 13.960938 28.925781 13.992188 28.925781 13.992188 Z M 28.925781 13.992188 "/>
<path style=" stroke:none;fill-rule:nonzero;fill:rgb(96.078431%,83.137255%,0.784314%);fill-opacity:1;" d="M 28.050781 15.574219 C 28.023438 15.625 28.054688 15.691406 28.117188 15.722656 C 28.179688 15.757812 28.253906 15.742188 28.28125 15.691406 C 28.304688 15.640625 28.273438 15.570312 28.210938 15.539062 C 28.1875 15.527344 28.164062 15.523438 28.140625 15.523438 C 28.101562 15.523438 28.066406 15.542969 28.050781 15.574219 Z M 28.050781 15.574219 "/>
<path style=" stroke:none;fill-rule:nonzero;fill:rgb(96.078431%,83.137255%,0.784314%);fill-opacity:1;" d="M 27.589844 16.613281 C 27.570312 16.613281 27.554688 16.621094 27.546875 16.632812 C 27.535156 16.660156 27.5625 16.699219 27.609375 16.722656 C 27.65625 16.746094 27.707031 16.746094 27.71875 16.71875 C 27.730469 16.695312 27.703125 16.652344 27.65625 16.628906 C 27.632812 16.617188 27.609375 16.613281 27.589844 16.613281 Z M 27.589844 16.613281 "/>
<path style=" stroke:none;fill-rule:nonzero;fill:rgb(96.078431%,83.137255%,0.784314%);fill-opacity:1;" d="M 27.429688 16.742188 L 27.429688 17.078125 L 27.703125 16.878906 C 27.703125 16.878906 27.664062 16.816406 27.582031 16.773438 C 27.503906 16.730469 27.429688 16.742188 27.429688 16.742188 Z M 27.429688 16.742188 "/>
<path style=" stroke:none;fill-rule:nonzero;fill:rgb(96.078431%,83.137255%,0.784314%);fill-opacity:1;" d="M 27.601562 9.265625 C 27.601562 9.082031 27.84375 8.902344 27.84375 8.902344 L 21.945312 8.902344 C 21.945312 8.902344 22.1875 9.082031 22.1875 9.265625 L 22.1875 13.65625 C 22.1875 13.769531 22.226562 13.847656 22.28125 13.917969 C 22.339844 14 22.457031 14.109375 22.585938 14.191406 C 22.972656 14.441406 23.617188 14.707031 24.109375 14.929688 C 24.515625 15.113281 24.683594 15.191406 24.894531 15.453125 C 25.105469 15.191406 25.273438 15.113281 25.683594 14.929688 C 26.171875 14.707031 26.820312 14.441406 27.207031 14.191406 C 27.332031 14.109375 27.453125 14 27.511719 13.917969 C 27.566406 13.847656 27.601562 13.769531 27.601562 13.65625 Z M 27.601562 9.265625 "/>
<path style=" stroke:none;fill-rule:nonzero;fill:rgb(81.960784%,1.568627%,16.078431%);fill-opacity:1;" d="M 22.328125 11.75 L 22.328125 9.265625 C 22.328125 9.125 22.257812 9.039062 22.257812 9.039062 L 27.53125 9.039062 C 27.53125 9.039062 27.460938 9.125 27.460938 9.265625 L 27.464844 11.75 L 24.894531 12.527344 Z M 22.328125 11.75 "/>
<path style=" stroke:none;fill-rule:nonzero;fill:rgb(4.313725%,27.058824%,73.333333%);fill-opacity:1;" d="M 27.464844 11.75 L 25.875 11.71875 L 23.917969 11.71875 L 22.328125 11.75 L 22.328125 13.65625 C 22.328125 13.75 22.425781 13.976562 23 14.261719 C 23.949219 14.734375 24.675781 14.953125 24.894531 15.222656 C 25.113281 14.953125 25.839844 14.734375 26.789062 14.261719 C 27.363281 13.976562 27.460938 13.75 27.460938 13.65625 Z M 27.464844 11.75 "/>
<path style=" stroke:none;fill-rule:nonzero;fill:rgb(0%,0%,0%);fill-opacity:1;" d="M 25.835938 11.648438 C 25.835938 11.648438 26.753906 11.417969 26.753906 10.4375 C 26.753906 9.671875 25.832031 9.292969 25.804688 9.109375 C 25.714844 9.425781 26.113281 9.863281 26.113281 10.378906 C 26.113281 11.050781 25.621094 11.082031 25.621094 11.082031 C 25.503906 11.082031 25.457031 11.164062 25.414062 11.164062 C 25.316406 11.152344 25.269531 11.03125 25.171875 11.03125 C 25.082031 11.03125 25.015625 11.167969 24.894531 11.167969 C 24.777344 11.167969 24.707031 11.03125 24.617188 11.03125 C 24.523438 11.03125 24.476562 11.152344 24.378906 11.164062 C 24.332031 11.164062 24.285156 11.082031 24.171875 11.082031 C 24.171875 11.082031 23.679688 11.050781 23.679688 10.378906 C 23.679688 9.863281 24.074219 9.425781 23.984375 9.109375 C 23.957031 9.292969 23.039062 9.671875 23.039062 10.4375 C 23.039062 11.417969 23.957031 11.648438 23.957031 11.648438 L 23.695312 12.125 C 23.695312 12.125 24.074219 12.144531 24.273438 12.316406 C 24.519531 12.523438 24.492188 12.960938 24.492188 13.28125 C 24.492188 13.53125 24.460938 13.796875 24.332031 13.90625 C 24.160156 14.054688 24.042969 14.0625 24.042969 14.238281 C 24.042969 14.378906 24.152344 14.410156 24.332031 14.503906 C 24.5625 14.625 24.554688 14.789062 24.894531 14.789062 C 25.238281 14.789062 25.226562 14.625 25.457031 14.503906 C 25.636719 14.410156 25.75 14.378906 25.75 14.238281 C 25.75 14.0625 25.632812 14.054688 25.457031 13.90625 C 25.328125 13.796875 25.296875 13.53125 25.296875 13.28125 C 25.296875 12.960938 25.273438 12.523438 25.515625 12.316406 C 25.71875 12.144531 26.097656 12.125 26.097656 12.125 Z M 25.835938 11.648438 "/>
<path style=" stroke:none;fill-rule:nonzero;fill:rgb(0%,0%,0%);fill-opacity:1;" d="M 24.894531 9.179688 L 24.734375 9.628906 L 24.300781 9.425781 L 24.507812 9.859375 L 24.054688 10.019531 L 24.507812 10.179688 L 24.300781 10.613281 L 24.734375 10.40625 L 24.894531 10.859375 L 25.054688 10.40625 L 25.488281 10.613281 L 25.285156 10.179688 L 25.734375 10.019531 L 25.285156 9.859375 L 25.488281 9.425781 L 25.054688 9.628906 Z M 24.894531 9.179688 "/>
<path style=" stroke:none;fill-rule:nonzero;fill:rgb(0%,0%,0%);fill-opacity:1;" d="M 23.917969 11.71875 C 23.917969 11.71875 23.351562 11.582031 23.140625 11.300781 C 22.769531 11.632812 22.328125 11.75 22.328125 11.75 C 22.328125 11.75 22.789062 11.957031 23.140625 12.222656 C 23.300781 11.992188 23.917969 11.71875 23.917969 11.71875 Z M 23.917969 11.71875 "/>
<path style=" stroke:none;fill-rule:nonzero;fill:rgb(0%,0%,0%);fill-opacity:1;" d="M 25.875 11.71875 C 25.875 11.71875 26.488281 11.992188 26.652344 12.222656 C 27 11.957031 27.464844 11.75 27.464844 11.75 C 27.464844 11.75 27.019531 11.632812 26.652344 11.300781 C 26.441406 11.582031 25.875 11.71875 25.875 11.71875 Z M 25.875 11.71875 "/>
<path style=" stroke:none;fill-rule:nonzero;fill:rgb(0%,0%,0%);fill-opacity:1;" d="M 24.148438 12.324219 L 23.929688 12.542969 L 24.148438 12.761719 L 24.371094 12.542969 Z M 24.148438 12.324219 "/>
<path style=" stroke:none;fill-rule:nonzero;fill:rgb(0%,0%,0%);fill-opacity:1;" d="M 25.640625 12.324219 L 25.421875 12.542969 L 25.640625 12.761719 L 25.863281 12.542969 Z M 25.640625 12.324219 "/>
<path style=" stroke:none;fill-rule:nonzero;fill:rgb(0%,0%,0%);fill-opacity:1;" d="M 24.09375 13.609375 C 24.09375 13.886719 24.066406 14.035156 24.066406 14.035156 C 24.066406 14.035156 24.378906 13.941406 24.441406 13.628906 C 24.46875 13.480469 24.5 12.9375 24.351562 12.84375 L 23.945312 12.761719 C 23.992188 12.871094 24.09375 13.207031 24.09375 13.609375 Z M 24.09375 13.609375 "/>
<path style=" stroke:none;fill-rule:nonzero;fill:rgb(0%,0%,0%);fill-opacity:1;" d="M 25.441406 12.84375 C 25.289062 12.9375 25.324219 13.480469 25.351562 13.628906 C 25.414062 13.941406 25.722656 14.035156 25.722656 14.035156 C 25.722656 14.035156 25.695312 13.886719 25.695312 13.609375 C 25.695312 13.207031 25.800781 12.871094 25.84375 12.761719 Z M 25.441406 12.84375 "/>
<path style=" stroke:none;fill-rule:nonzero;fill:rgb(0%,0%,0%);fill-opacity:1;" d="M 23.140625 12.859375 C 23 12.894531 22.914062 13.035156 22.949219 13.175781 C 22.957031 13.195312 22.964844 13.21875 22.972656 13.234375 C 22.953125 13.230469 22.933594 13.222656 22.910156 13.222656 C 22.902344 13.222656 22.890625 13.222656 22.882812 13.222656 C 22.75 13.226562 22.640625 13.332031 22.632812 13.464844 C 22.621094 13.609375 22.730469 13.734375 22.875 13.742188 C 22.894531 13.746094 22.917969 13.742188 22.9375 13.742188 C 22.925781 13.757812 22.914062 13.777344 22.90625 13.796875 C 22.851562 13.929688 22.917969 14.082031 23.050781 14.136719 C 23.183594 14.191406 23.335938 14.125 23.390625 13.992188 C 23.398438 13.96875 23.402344 13.949219 23.40625 13.929688 C 23.417969 13.945312 23.433594 13.960938 23.449219 13.976562 C 23.5625 14.070312 23.726562 14.054688 23.820312 13.945312 C 23.910156 13.832031 23.898438 13.667969 23.785156 13.578125 C 23.769531 13.5625 23.75 13.550781 23.730469 13.542969 C 23.753906 13.535156 23.773438 13.527344 23.789062 13.515625 C 23.914062 13.4375 23.949219 13.277344 23.871094 13.15625 C 23.820312 13.070312 23.726562 13.027344 23.636719 13.035156 C 23.59375 13.035156 23.550781 13.050781 23.511719 13.074219 C 23.496094 13.085938 23.476562 13.097656 23.464844 13.113281 C 23.464844 13.09375 23.460938 13.070312 23.457031 13.050781 C 23.425781 12.925781 23.3125 12.847656 23.191406 12.851562 C 23.175781 12.851562 23.15625 12.855469 23.140625 12.859375 Z M 23.140625 12.859375 "/>
<path style=" stroke:none;fill-rule:nonzero;fill:rgb(0%,0%,0%);fill-opacity:1;" d="M 25.910156 13.617188 C 25.941406 13.882812 26.15625 14.109375 26.421875 14.171875 C 26.378906 14.097656 26.347656 14.011719 26.339844 13.925781 C 26.304688 13.609375 26.550781 13.355469 26.882812 13.355469 C 26.9375 13.355469 26.988281 13.359375 27.035156 13.371094 C 26.917969 13.179688 26.699219 13.046875 26.457031 13.046875 C 26.121094 13.046875 25.878906 13.300781 25.910156 13.617188 Z M 25.910156 13.617188 "/>
<path style=" stroke:none;fill-rule:nonzero;fill:rgb(100%,82.352941%,0%);fill-opacity:1;" d="M 23.542969 10.378906 C 23.542969 10.882812 23.8125 11.179688 24.171875 11.179688 C 24.238281 11.179688 24.316406 11.273438 24.378906 11.273438 C 24.484375 11.273438 24.554688 11.15625 24.617188 11.15625 C 24.699219 11.15625 24.753906 11.285156 24.894531 11.285156 C 25.035156 11.285156 25.09375 11.15625 25.175781 11.15625 C 25.238281 11.15625 25.308594 11.273438 25.414062 11.273438 C 25.476562 11.273438 25.550781 11.179688 25.621094 11.179688 C 25.980469 11.179688 26.246094 10.882812 26.246094 10.378906 C 26.246094 9.96875 25.902344 9.46875 25.941406 9.386719 C 25.941406 9.386719 26.613281 9.871094 26.613281 10.4375 C 26.613281 11.355469 25.683594 11.582031 25.683594 11.582031 L 25.894531 12.050781 C 25.894531 12.050781 25.605469 12.09375 25.429688 12.234375 C 25.195312 12.425781 25.191406 12.9375 25.191406 13.28125 C 25.191406 13.6875 25.207031 13.859375 25.355469 13.972656 C 25.507812 14.085938 25.625 14.113281 25.625 14.230469 C 25.625 14.335938 25.503906 14.375 25.347656 14.445312 C 25.171875 14.523438 25.152344 14.660156 24.894531 14.660156 C 24.636719 14.660156 24.621094 14.523438 24.441406 14.445312 C 24.285156 14.375 24.164062 14.335938 24.164062 14.230469 C 24.164062 14.113281 24.28125 14.085938 24.4375 13.972656 C 24.585938 13.859375 24.597656 13.6875 24.597656 13.28125 C 24.597656 12.9375 24.597656 12.425781 24.363281 12.234375 C 24.1875 12.09375 23.898438 12.050781 23.898438 12.050781 L 24.105469 11.582031 C 24.105469 11.582031 23.179688 11.355469 23.179688 10.4375 C 23.179688 9.871094 23.851562 9.386719 23.851562 9.386719 C 23.890625 9.46875 23.542969 9.96875 23.542969 10.378906 Z M 24.542969 14.160156 C 24.363281 14.160156 24.246094 14.199219 24.246094 14.253906 C 24.246094 14.3125 24.363281 14.347656 24.542969 14.347656 C 24.59375 14.347656 24.648438 14.320312 24.648438 14.253906 C 24.648438 14.191406 24.59375 14.160156 24.542969 14.160156 Z M 25.246094 14.160156 C 25.199219 14.160156 25.144531 14.191406 25.144531 14.253906 C 25.144531 14.320312 25.199219 14.347656 25.246094 14.347656 C 25.429688 14.347656 25.546875 14.3125 25.546875 14.253906 C 25.546875 14.199219 25.429688 14.160156 25.246094 14.160156 Z M 25.246094 14.160156 "/>
<path style=" stroke:none;fill-rule:nonzero;fill:rgb(100%,82.352941%,0%);fill-opacity:1;" d="M 24.898438 9.484375 L 25 9.773438 L 25.273438 9.640625 L 25.144531 9.917969 L 25.429688 10.019531 L 25.144531 10.121094 L 25.273438 10.398438 L 25 10.265625 L 24.894531 10.554688 L 24.792969 10.265625 L 24.515625 10.398438 L 24.648438 10.121094 L 24.359375 10.019531 L 24.648438 9.917969 L 24.515625 9.640625 L 24.792969 9.773438 Z M 24.898438 9.484375 "/>
<path style=" stroke:none;fill-rule:nonzero;fill:rgb(100%,82.352941%,0%);fill-opacity:1;" d="M 23.613281 11.738281 C 23.613281 11.738281 23.140625 12.089844 23.140625 12.089844 L 23.132812 12.097656 L 23.125 12.089844 L 22.597656 11.757812 C 22.597656 11.757812 22.933594 11.640625 23.132812 11.441406 C 23.320312 11.65625 23.613281 11.738281 23.613281 11.738281 Z M 23.613281 11.738281 "/>
<path style=" stroke:none;fill-rule:nonzero;fill:rgb(100%,82.352941%,0%);fill-opacity:1;" d="M 27.191406 11.757812 C 27.191406 11.757812 26.84375 11.933594 26.667969 12.089844 L 26.65625 12.097656 L 26.652344 12.089844 C 26.484375 11.898438 26.175781 11.738281 26.175781 11.738281 C 26.175781 11.738281 26.472656 11.65625 26.660156 11.441406 C 26.855469 11.640625 27.191406 11.757812 27.191406 11.757812 Z M 27.191406 11.757812 "/>
<path style=" stroke:none;fill-rule:nonzero;fill:rgb(100%,82.352941%,0%);fill-opacity:1;" d="M 24.148438 12.429688 L 24.265625 12.542969 L 24.148438 12.660156 L 24.035156 12.542969 Z M 24.148438 12.429688 "/>
<path style=" stroke:none;fill-rule:nonzero;fill:rgb(100%,82.352941%,0%);fill-opacity:1;" d="M 25.640625 12.429688 L 25.757812 12.542969 L 25.640625 12.660156 L 25.527344 12.542969 Z M 25.640625 12.429688 "/>
<path style=" stroke:none;fill-rule:nonzero;fill:rgb(100%,82.352941%,0%);fill-opacity:1;" d="M 24.304688 12.929688 C 24.386719 13.042969 24.375 13.222656 24.375 13.472656 C 24.375 13.722656 24.183594 13.820312 24.183594 13.820312 C 24.183594 13.214844 24.121094 13.070312 24.089844 12.886719 Z M 24.304688 12.929688 "/>
<path style=" stroke:none;fill-rule:nonzero;fill:rgb(100%,82.352941%,0%);fill-opacity:1;" d="M 25.703125 12.886719 C 25.667969 13.070312 25.609375 13.214844 25.609375 13.820312 C 25.609375 13.820312 25.417969 13.722656 25.417969 13.472656 C 25.417969 13.222656 25.40625 13.042969 25.484375 12.929688 Z M 25.703125 12.886719 "/>
<path style=" stroke:none;fill-rule:nonzero;fill:rgb(100%,82.352941%,0%);fill-opacity:1;" d="M 23.410156 13.113281 C 23.417969 13.136719 23.417969 13.160156 23.417969 13.179688 C 23.414062 13.199219 23.410156 13.214844 23.402344 13.234375 C 23.371094 13.222656 23.339844 13.214844 23.300781 13.214844 C 23.214844 13.214844 23.136719 13.253906 23.082031 13.316406 C 23.066406 13.300781 23.054688 13.289062 23.046875 13.273438 C 23.035156 13.253906 23.023438 13.234375 23.019531 13.210938 C 22.992188 13.105469 23.058594 12.992188 23.164062 12.964844 C 23.179688 12.964844 23.195312 12.960938 23.207031 12.960938 C 23.300781 12.957031 23.386719 13.019531 23.410156 13.113281 Z M 23.410156 13.113281 "/>
<path style=" stroke:none;fill-rule:nonzero;fill:rgb(100%,82.352941%,0%);fill-opacity:1;" d="M 23.714844 13.492188 C 23.695312 13.507812 23.675781 13.515625 23.652344 13.519531 C 23.636719 13.523438 23.617188 13.523438 23.601562 13.523438 C 23.601562 13.488281 23.597656 13.453125 23.585938 13.421875 C 23.558594 13.335938 23.496094 13.273438 23.421875 13.242188 C 23.429688 13.226562 23.441406 13.207031 23.453125 13.195312 C 23.464844 13.175781 23.480469 13.160156 23.5 13.148438 C 23.59375 13.089844 23.71875 13.121094 23.78125 13.214844 C 23.789062 13.226562 23.792969 13.238281 23.796875 13.25 C 23.832031 13.339844 23.796875 13.441406 23.714844 13.492188 Z M 23.714844 13.492188 "/>
<path style=" stroke:none;fill-rule:nonzero;fill:rgb(100%,82.352941%,0%);fill-opacity:1;" d="M 23.449219 13.898438 C 23.429688 13.882812 23.417969 13.867188 23.40625 13.847656 C 23.394531 13.832031 23.390625 13.816406 23.386719 13.800781 C 23.417969 13.789062 23.449219 13.773438 23.476562 13.753906 C 23.546875 13.703125 23.589844 13.625 23.597656 13.542969 C 23.617188 13.546875 23.632812 13.550781 23.652344 13.554688 C 23.671875 13.5625 23.691406 13.574219 23.710938 13.589844 C 23.796875 13.660156 23.804688 13.789062 23.734375 13.875 C 23.726562 13.886719 23.714844 13.894531 23.703125 13.902344 C 23.628906 13.960938 23.523438 13.960938 23.449219 13.898438 Z M 23.449219 13.898438 "/>
<path style=" stroke:none;fill-rule:nonzero;fill:rgb(100%,82.352941%,0%);fill-opacity:1;" d="M 22.980469 13.769531 C 22.988281 13.75 23 13.730469 23.015625 13.714844 C 23.027344 13.699219 23.042969 13.691406 23.054688 13.679688 C 23.074219 13.707031 23.097656 13.734375 23.128906 13.753906 C 23.199219 13.804688 23.285156 13.820312 23.363281 13.800781 C 23.367188 13.820312 23.371094 13.839844 23.371094 13.859375 C 23.367188 13.878906 23.363281 13.902344 23.355469 13.921875 C 23.3125 14.027344 23.195312 14.078125 23.09375 14.035156 C 23.078125 14.03125 23.066406 14.023438 23.054688 14.015625 C 22.976562 13.964844 22.941406 13.863281 22.980469 13.769531 Z M 22.980469 13.769531 "/>
<path style=" stroke:none;fill-rule:nonzero;fill:rgb(100%,82.352941%,0%);fill-opacity:1;" d="M 22.957031 13.285156 C 22.980469 13.289062 23.003906 13.292969 23.023438 13.300781 C 23.039062 13.308594 23.054688 13.320312 23.066406 13.332031 C 23.046875 13.355469 23.03125 13.386719 23.019531 13.421875 C 22.992188 13.503906 23.003906 13.589844 23.046875 13.660156 C 23.03125 13.671875 23.011719 13.679688 22.996094 13.683594 C 22.972656 13.6875 22.953125 13.691406 22.929688 13.691406 C 22.816406 13.683594 22.734375 13.585938 22.742188 13.472656 C 22.742188 13.460938 22.746094 13.445312 22.75 13.433594 C 22.773438 13.34375 22.859375 13.277344 22.957031 13.285156 Z M 22.957031 13.285156 "/>
<path style=" stroke:none;fill-rule:nonzero;fill:rgb(100%,82.352941%,0%);fill-opacity:1;" d="M 23.5 13.511719 C 23.5 13.621094 23.410156 13.710938 23.300781 13.710938 C 23.195312 13.710938 23.105469 13.621094 23.105469 13.511719 C 23.105469 13.40625 23.195312 13.316406 23.300781 13.316406 C 23.410156 13.316406 23.5 13.40625 23.5 13.511719 Z M 23.5 13.511719 "/>
<path style=" stroke:none;fill-rule:nonzero;fill:rgb(100%,82.352941%,0%);fill-opacity:1;" d="M 26.746094 13.25 C 26.421875 13.3125 26.1875 13.597656 26.222656 13.933594 C 26.117188 13.847656 26.042969 13.734375 26.027344 13.605469 C 26 13.355469 26.183594 13.164062 26.457031 13.164062 C 26.5625 13.164062 26.660156 13.195312 26.746094 13.25 Z M 26.746094 13.25 "/>
</g>
</svg>
