<?xml version="1.0" encoding="UTF-8"?>
<svg xmlns="http://www.w3.org/2000/svg" xmlns:xlink="http://www.w3.org/1999/xlink" width="50pt" height="25pt" viewBox="0 0 50 25" version="1.1">
<g id="surface1">
<rect x="0" y="0" width="50" height="25" style="fill:rgb(76.862745%,15.294118%,18.431373%);fill-opacity:1;stroke:none;"/>
<path style=" stroke:none;fill-rule:nonzero;fill:rgb(0.392157%,31.764706%,59.215686%);fill-opacity:1;" d="M 16.667969 0 L 33.332031 0 L 33.332031 25 L 16.667969 25 Z M 16.667969 0 "/>
<path style=" stroke:none;fill-rule:nonzero;fill:rgb(97.647059%,81.176471%,0.784314%);fill-opacity:1;" d="M 10.625 8.542969 C 10.625 9.808594 9.597656 10.832031 8.332031 10.832031 C 7.066406 10.832031 6.042969 9.808594 6.042969 8.542969 C 6.042969 7.277344 7.066406 6.25 8.332031 6.25 C 9.597656 6.25 10.625 7.277344 10.625 8.542969 Z M 10.625 8.542969 "/>
<path style=" stroke:none;fill-rule:nonzero;fill:rgb(76.862745%,15.294118%,18.431373%);fill-opacity:1;" d="M 10.832031 7.5 C 10.832031 8.878906 9.714844 10 8.332031 10 C 6.953125 10 5.832031 8.878906 5.832031 7.5 C 5.832031 6.121094 6.953125 5 8.332031 5 C 9.714844 5 10.832031 6.121094 10.832031 7.5 Z M 10.832031 7.5 "/>
<path style=" stroke:none;fill-rule:nonzero;fill:rgb(97.647059%,81.176471%,0.784314%);fill-opacity:1;" d="M 10 7.917969 C 10 8.835938 9.253906 9.582031 8.332031 9.582031 C 7.414062 9.582031 6.667969 8.835938 6.667969 7.917969 C 6.667969 6.996094 7.414062 6.25 8.332031 6.25 C 9.253906 6.25 10 6.996094 10 7.917969 Z M 10 7.917969 "/>
<path style=" stroke:none;fill-rule:nonzero;fill:rgb(97.647059%,81.176471%,0.784314%);fill-opacity:1;" d="M 7.292969 4.792969 C 7.292969 5.367188 7.757812 5.832031 8.332031 5.832031 C 8.910156 5.832031 9.375 5.367188 9.375 4.792969 C 9.375 4.375 9.113281 4.324219 9.113281 4.167969 C 9.113281 4.011719 9.269531 3.800781 8.957031 3.542969 C 9.113281 3.800781 8.855469 3.855469 8.855469 4.113281 C 8.855469 4.375 8.957031 4.375 8.957031 4.582031 C 8.957031 4.699219 8.863281 4.792969 8.75 4.792969 C 8.636719 4.792969 8.542969 4.699219 8.542969 4.582031 C 8.542969 4.375 8.75 4.167969 8.75 3.855469 C 8.75 3.542969 8.699219 3.4375 8.542969 3.175781 C 8.386719 2.917969 8.125 2.707031 8.332031 2.5 C 8.019531 2.605469 8.175781 3.019531 8.175781 3.28125 C 8.175781 3.542969 7.96875 3.699219 7.96875 4.011719 C 7.96875 4.324219 8.125 4.375 8.125 4.582031 C 8.125 4.699219 8.03125 4.792969 7.917969 4.792969 C 7.800781 4.792969 7.707031 4.699219 7.707031 4.582031 C 7.707031 4.375 7.8125 4.375 7.8125 4.113281 C 7.8125 3.855469 7.550781 3.800781 7.707031 3.542969 C 7.394531 3.800781 7.550781 4.011719 7.550781 4.167969 C 7.550781 4.324219 7.292969 4.375 7.292969 4.792969 Z M 7.292969 4.792969 "/>
<path style=" stroke:none;fill-rule:nonzero;fill:rgb(97.647059%,81.176471%,0.784314%);fill-opacity:1;" d="M 3.75 11.25 L 3.75 21.25 L 5.832031 21.25 L 5.832031 11.25 Z M 10.832031 11.25 L 10.832031 21.25 L 12.917969 21.25 L 12.917969 11.25 Z M 6.25 12.917969 L 6.25 13.75 L 10.417969 13.75 L 10.417969 12.917969 Z M 6.25 18.75 L 6.25 19.582031 L 10.417969 19.582031 L 10.417969 18.75 Z M 6.25 11.25 L 10.417969 11.25 L 8.332031 12.5 Z M 6.25 20 L 10.417969 20 L 8.332031 21.25 Z M 6.25 20 "/>
<path style="fill-rule:nonzero;fill:rgb(97.647059%,81.176471%,0.784314%);fill-opacity:1;stroke-width:24;stroke-linecap:butt;stroke-linejoin:miter;stroke:rgb(76.862745%,15.294118%,18.431373%);stroke-opacity:1;stroke-miterlimit:4;" d="M 1012.125 1560 C 1012.125 1677 917.25 1771.875 799.875 1771.875 C 682.875 1771.875 588 1677 588 1560 C 588 1443 682.875 1348.125 799.875 1348.125 C 917.25 1348.125 1012.125 1443 1012.125 1560 Z M 1012.125 1560 " transform="matrix(0.0104167,0,0,0.0104167,0,0)"/>
<path style="fill:none;stroke-width:24;stroke-linecap:butt;stroke-linejoin:miter;stroke:rgb(76.862745%,15.294118%,18.431373%);stroke-opacity:1;stroke-miterlimit:4;" d="M 799.875 1348.125 C 858.375 1348.125 906 1395.375 906 1453.875 C 906 1512.375 858.375 1560 799.875 1560 C 741.375 1560 694.125 1607.625 694.125 1666.125 C 694.125 1724.625 741.375 1771.875 799.875 1771.875 " transform="matrix(0.0104167,0,0,0.0104167,0,0)"/>
<path style=" stroke:none;fill-rule:nonzero;fill:rgb(76.862745%,15.294118%,18.431373%);fill-opacity:1;" d="M 8.75 15.144531 C 8.75 15.375 8.5625 15.5625 8.332031 15.5625 C 8.101562 15.5625 7.917969 15.375 7.917969 15.144531 C 7.917969 14.914062 8.101562 14.730469 8.332031 14.730469 C 8.5625 14.730469 8.75 14.914062 8.75 15.144531 Z M 8.75 15.144531 "/>
<path style=" stroke:none;fill-rule:nonzero;fill:rgb(76.862745%,15.294118%,18.431373%);fill-opacity:1;" d="M 8.75 17.355469 C 8.75 17.585938 8.5625 17.769531 8.332031 17.769531 C 8.101562 17.769531 7.917969 17.585938 7.917969 17.355469 C 7.917969 17.125 8.101562 16.9375 8.332031 16.9375 C 8.5625 16.9375 8.75 17.125 8.75 17.355469 Z M 8.75 17.355469 "/>
</g>
</svg>
