<?xml version="1.0" encoding="UTF-8"?>
<svg xmlns="http://www.w3.org/2000/svg" xmlns:xlink="http://www.w3.org/1999/xlink" width="38pt" height="25pt" viewBox="0 0 38 25" version="1.1">
<g id="surface1">
<rect x="0" y="0" width="38" height="25" style="fill:rgb(0%,0%,0%);fill-opacity:1;stroke:none;"/>
<path style=" stroke:none;fill-rule:nonzero;fill:rgb(100%,100%,100%);fill-opacity:1;" d="M 0 0 L 38 0 L 38 8.59375 L 0 8.59375 Z M 0 0 "/>
<path style=" stroke:none;fill-rule:nonzero;fill:rgb(0%,44.313725%,40.784314%);fill-opacity:1;" d="M 0 0 L 38 0 L 38 7.8125 L 0 7.8125 Z M 0 0 "/>
<path style=" stroke:none;fill-rule:nonzero;fill:rgb(100%,100%,100%);fill-opacity:1;" d="M 0 16.394531 L 38 16.394531 L 38 25 L 0 25 Z M 0 16.394531 "/>
<path style=" stroke:none;fill-rule:nonzero;fill:rgb(98.823529%,88.235294%,0%);fill-opacity:1;" d="M 0 17.1875 L 38 17.1875 L 38 25 L 0 25 Z M 0 17.1875 "/>
<path style=" stroke:none;fill-rule:nonzero;fill:rgb(82.352941%,6.27451%,20.392157%);fill-opacity:1;" d="M 0 0 L 0 25 L 16.625 12.5 Z M 0 0 "/>
<path style=" stroke:none;fill-rule:nonzero;fill:rgb(98.823529%,88.235294%,0%);fill-opacity:1;" d="M 8.628906 17.1875 L 5.539062 14.957031 L 2.457031 17.1875 L 3.652344 13.597656 L 0.546875 11.394531 L 4.375 11.40625 L 5.542969 7.8125 L 6.710938 11.410156 L 10.535156 11.394531 L 7.429688 13.601562 Z M 8.628906 17.1875 "/>
<path style="fill-rule:evenodd;fill:rgb(100%,100%,100%);fill-opacity:1;stroke-width:1.25;stroke-linecap:round;stroke-linejoin:round;stroke:rgb(0%,0%,0%);stroke-opacity:1;stroke-miterlimit:4;" d="M 77.110633 167.896213 L 118.972647 167.896213 C 122.277543 171.691703 129.842083 173.254551 136.965969 167.896213 C 150.112111 160.677342 175.449646 167.896213 175.449646 167.896213 L 180.443711 162.612297 L 168.252317 122.648027 L 163.919231 117.959481 C 163.919231 117.959481 154.518639 112.37788 136.745643 114.238413 C 118.972647 116.098947 112.730066 113.568621 112.730066 113.568621 C 112.730066 113.568621 97.086893 115.429155 92.753807 117.661796 C 92.239712 118.033903 87.759742 122.648027 87.759742 122.648027 Z M 77.110633 167.896213 " transform="matrix(0.0531881,0,0,0.0524883,-1.241996,5.871008)"/>
<path style="fill:none;stroke-width:1.25;stroke-linecap:round;stroke-linejoin:round;stroke:rgb(0%,0%,0%);stroke-opacity:1;stroke-miterlimit:4;" d="M 85.556478 157.626066 C 85.556478 157.626066 125.508997 152.639835 137.039412 167.896213 C 130.503062 172.361495 124.774576 172.733602 118.605437 168.193899 C 119.633627 166.556629 133.000094 152.639835 167.003801 157.32838 " transform="matrix(0.0531881,0,0,0.0524883,-1.241996,5.871008)"/>
<path style="fill-rule:nonzero;fill:rgb(0%,0%,0%);fill-opacity:1;stroke-width:1.25;stroke-linecap:round;stroke-linejoin:round;stroke:rgb(0%,0%,0%);stroke-opacity:1;stroke-miterlimit:4;" d="M 128.299798 117.661796 L 128.00603 161.644819 M 163.919231 118.257167 L 171.410329 153.235206 M 93.121017 117.736217 L 89.008258 135.746186 " transform="matrix(0.0531881,0,0,0.0524883,-1.241996,5.871008)"/>
<path style="fill-rule:evenodd;fill:rgb(0%,0%,0%);fill-opacity:1;stroke-width:1.25;stroke-linecap:round;stroke-linejoin:round;stroke:rgb(0%,0%,0%);stroke-opacity:1;stroke-miterlimit:4;" d="M 49.937045 172.733602 L 59.77829 184.268912 C 60.953364 184.938705 61.981554 184.864283 63.009744 184.268912 L 77.551286 166.779893 L 83.720425 159.188914 C 84.675172 158.072594 84.968941 156.807431 84.822057 155.69111 L 96.572798 145.27212 C 97.527545 145.346542 98.115082 145.420963 99.06983 145.495384 C 97.894756 145.197699 97.086893 144.676749 97.968198 143.411586 L 100.612115 141.40221 L 102.668494 144.006957 C 102.668494 144.006957 99.730809 147.802446 99.437041 147.802446 C 99.143272 147.802446 96.205587 147.802446 96.205587 147.802446 L 90.10989 153.309627 L 92.753807 155.69111 L 96.793124 166.779893 L 101.787189 163.282089 L 98.555735 151.895621 L 105.532738 144.304643 L 102.962263 140.211468 L 104.651432 137.904406 C 104.651432 137.904406 128.887335 153.160784 138.214486 149.06761 C 138.508254 149.142031 138.802023 138.202091 138.802023 138.202091 C 138.802023 138.202091 113.758256 135.522922 113.170719 130.611112 C 112.583182 125.624881 118.678879 125.029511 118.678879 125.029511 L 116.034962 121.234021 L 116.622499 119.224645 L 121.029027 124.731825 L 130.943715 116.322212 L 189.256766 182.780485 C 192.414778 181.515322 193.149199 180.696687 193.369526 177.57099 C 193.222642 177.422147 136.158106 111.931351 136.158106 111.931351 L 140.564634 107.242806 C 141.445939 106.275328 141.739708 105.903221 141.739708 104.340373 L 148.422942 98.535507 C 150.479321 99.205299 151.727838 100.396041 152.82947 102.033311 L 171.263444 86.404825 C 171.704097 86.851353 173.17294 87.372303 174.20113 86.776932 L 204.679614 57.529338 L 171.483771 81.046487 L 170.308697 80.153431 C 170.308697 79.185953 171.483771 78.888268 170.308697 77.250998 C 168.986738 75.68815 167.077243 78.665004 166.783474 78.665004 C 166.489706 78.665004 162.009736 77.102155 160.981546 75.092779 L 160.687778 80.451116 L 152.241933 88.265359 L 145.779025 88.042095 L 136.451875 97.04708 L 135.2768 100.544883 L 136.745643 103.447316 C 136.745643 103.447316 131.82502 107.838177 131.82502 107.540491 C 131.82502 107.242806 130.79683 106.275328 130.79683 106.126485 L 134.983032 102.330996 L 135.570569 99.651827 L 134.175168 97.493608 C 133.734516 97.791293 128.299798 103.447316 128.00603 102.851946 C 127.565377 102.330996 112.289414 85.065241 112.289414 85.065241 L 113.170719 81.865122 L 103.256031 71.074025 C 99.583925 69.883283 93.928881 69.660019 92.753807 77.548683 C 91.799059 79.334796 84.307962 77.771948 84.307962 77.771948 L 80.195202 78.665004 L 57.134373 111.33598 L 69.986746 126.815623 L 96.205587 93.549276 L 97.01345 84.097763 L 102.52161 90.274736 C 104.357663 90.498 106.120275 90.572421 107.736001 89.679365 L 123.305733 107.093963 L 120.735259 109.624289 C 121.616564 110.591767 122.204101 111.187138 123.085407 112.154615 C 123.966712 111.559245 124.774576 110.889452 125.655881 110.294081 C 125.94965 110.666188 126.463745 111.410402 126.757513 111.782509 C 125.435555 112.526722 124.480807 113.4942 123.232291 114.163992 C 121.102469 112.824408 119.119532 111.112716 119.266416 108.433547 L 110.526802 115.726841 L 110.233034 117.140846 L 84.307962 138.723041 L 81.957814 139.020726 L 81.370277 145.718648 L 98.261967 131.727433 L 98.261967 129.718056 L 100.024578 131.132062 L 113.170719 120.63865 C 113.170719 120.63865 114.052025 121.829392 113.758256 121.829392 C 113.464488 121.829392 102.080957 132.322804 102.080957 132.322804 L 101.787189 133.513545 L 99.730809 135.225237 L 98.555735 134.406602 L 82.839119 148.397817 L 80.488971 148.397817 L 71.749357 157.105116 C 69.472651 157.32838 67.489714 157.551644 65.580218 158.891229 Z M 49.937045 172.733602 " transform="matrix(0.0531881,0,0,0.0524883,-1.241996,5.871008)"/>
</g>
</svg>
