<?xml version="1.0" encoding="UTF-8"?>
<svg xmlns="http://www.w3.org/2000/svg" xmlns:xlink="http://www.w3.org/1999/xlink" width="50pt" height="25pt" viewBox="0 0 50 25" version="1.1">
<g id="surface1">
<rect x="0" y="0" width="50" height="25" style="fill:rgb(0%,16.862745%,49.803922%);fill-opacity:1;stroke:none;"/>
<path style=" stroke:none;fill-rule:nonzero;fill:rgb(100%,77.647059%,11.764706%);fill-opacity:1;" d="M 0 11.457031 L 50 11.457031 L 50 13.542969 L 0 13.542969 Z M 0 11.457031 "/>
<path style=" stroke:none;fill-rule:nonzero;fill:rgb(100%,100%,100%);fill-opacity:1;" d="M 12.5 21.875 L 11.960938 19.71875 L 10.417969 21.316406 L 11.027344 19.179688 L 8.890625 19.792969 L 10.488281 18.246094 L 8.332031 17.707031 L 10.488281 17.167969 L 8.890625 15.625 L 11.027344 16.234375 L 10.417969 14.101562 L 11.960938 15.695312 L 12.5 13.542969 L 13.039062 15.695312 L 14.582031 14.101562 L 13.972656 16.234375 L 16.109375 15.625 L 14.511719 17.167969 L 16.667969 17.707031 L 14.511719 18.246094 L 16.109375 19.792969 L 13.972656 19.179688 L 14.582031 21.316406 L 13.039062 19.71875 Z M 12.5 21.875 "/>
</g>
</svg>
