<?xml version="1.0" encoding="UTF-8"?>
<svg xmlns="http://www.w3.org/2000/svg" xmlns:xlink="http://www.w3.org/1999/xlink" width="21pt" height="25pt" viewBox="0 0 21 25" version="1.1">
<g id="surface1">
<path style="fill-rule:nonzero;fill:rgb(86.27451%,7.843137%,23.529412%);fill-opacity:1;stroke-width:5.164675;stroke-linecap:butt;stroke-linejoin:miter;stroke:rgb(0%,21.960784%,57.647059%);stroke-opacity:1;stroke-miterlimit:4;" d="M -14.999404 37.568517 L 45.002796 37.568517 L -14.999404 -0.00179187 L -14.999404 80.005517 L 45.002796 80.005517 L -14.999404 19.996627 Z M -14.999404 37.568517 " transform="matrix(0.293414,0,0,0.286546,5.158843,1.336451)"/>
<path style=" stroke:none;fill-rule:nonzero;fill:rgb(86.27451%,7.843137%,23.529412%);fill-opacity:1;" d="M 0.757812 12.101562 L 18.363281 12.101562 L 0.757812 1.335938 L 0.757812 24.261719 L 18.363281 24.261719 L 0.757812 7.066406 Z M 0.757812 12.101562 "/>
<path style=" stroke:none;fill-rule:nonzero;fill:rgb(100%,100%,100%);fill-opacity:1;" d="M 1.652344 8.066406 C 2.21875 9.472656 3.609375 10.398438 5.160156 10.398438 C 6.707031 10.398438 8.097656 9.472656 8.664062 8.066406 C 8.664062 9.957031 7.09375 11.488281 5.160156 11.488281 C 3.222656 11.488281 1.652344 9.957031 1.652344 8.066406 "/>
<path style=" stroke:none;fill-rule:nonzero;fill:rgb(100%,100%,100%);fill-opacity:1;" d="M 6.789062 9.660156 C 6.789062 10.539062 6.058594 11.253906 5.160156 11.253906 C 4.257812 11.253906 3.527344 10.539062 3.527344 9.660156 C 3.527344 8.777344 4.257812 8.066406 5.160156 8.066406 C 6.058594 8.066406 6.789062 8.777344 6.789062 9.660156 Z M 6.789062 9.660156 "/>
<path style=" stroke:none;fill-rule:nonzero;fill:rgb(100%,100%,100%);fill-opacity:1;" d="M 5.785156 8.1875 L 5.601562 7.488281 L 5.160156 8.066406 "/>
<path style=" stroke:none;fill-rule:nonzero;fill:rgb(100%,100%,100%);fill-opacity:1;" d="M 6.3125 8.53125 L 6.417969 7.820312 L 5.785156 8.1875 "/>
<path style=" stroke:none;fill-rule:nonzero;fill:rgb(100%,100%,100%);fill-opacity:1;" d="M 6.667969 9.050781 L 7.042969 8.429688 L 6.3125 8.53125 "/>
<path style=" stroke:none;fill-rule:nonzero;fill:rgb(100%,100%,100%);fill-opacity:1;" d="M 6.789062 9.660156 L 7.382812 9.226562 L 6.667969 9.050781 "/>
<path style=" stroke:none;fill-rule:nonzero;fill:rgb(100%,100%,100%);fill-opacity:1;" d="M 6.667969 10.269531 L 7.382812 10.089844 L 6.789062 9.660156 "/>
<path style=" stroke:none;fill-rule:nonzero;fill:rgb(100%,100%,100%);fill-opacity:1;" d="M 6.3125 10.785156 L 7.042969 10.886719 L 6.667969 10.269531 "/>
<path style=" stroke:none;fill-rule:nonzero;fill:rgb(100%,100%,100%);fill-opacity:1;" d="M 4.535156 8.1875 L 4.714844 7.488281 L 5.160156 8.066406 "/>
<path style=" stroke:none;fill-rule:nonzero;fill:rgb(100%,100%,100%);fill-opacity:1;" d="M 4.003906 8.53125 L 3.898438 7.820312 L 4.535156 8.1875 "/>
<path style=" stroke:none;fill-rule:nonzero;fill:rgb(100%,100%,100%);fill-opacity:1;" d="M 3.652344 9.050781 L 3.273438 8.429688 L 4.003906 8.53125 "/>
<path style=" stroke:none;fill-rule:nonzero;fill:rgb(100%,100%,100%);fill-opacity:1;" d="M 3.527344 9.660156 L 2.9375 9.226562 L 3.652344 9.050781 "/>
<path style=" stroke:none;fill-rule:nonzero;fill:rgb(100%,100%,100%);fill-opacity:1;" d="M 3.652344 10.269531 L 2.9375 10.089844 L 3.527344 9.660156 "/>
<path style=" stroke:none;fill-rule:nonzero;fill:rgb(100%,100%,100%);fill-opacity:1;" d="M 4.003906 10.785156 L 3.273438 10.886719 L 3.652344 10.269531 "/>
<path style=" stroke:none;fill-rule:nonzero;fill:rgb(100%,100%,100%);fill-opacity:1;" d="M 7.546875 18.179688 C 7.546875 19.46875 6.476562 20.515625 5.160156 20.515625 C 3.839844 20.515625 2.769531 19.46875 2.769531 18.179688 C 2.769531 16.894531 3.839844 15.847656 5.160156 15.847656 C 6.476562 15.847656 7.546875 16.894531 7.546875 18.179688 Z M 7.546875 18.179688 "/>
<path style=" stroke:none;fill-rule:nonzero;fill:rgb(100%,100%,100%);fill-opacity:1;" d="M 5.777344 20.433594 L 5.160156 21.859375 L 4.539062 20.433594 "/>
<path style=" stroke:none;fill-rule:nonzero;fill:rgb(100%,100%,100%);fill-opacity:1;" d="M 4.539062 15.925781 L 5.160156 14.503906 L 5.777344 15.925781 "/>
<path style=" stroke:none;fill-rule:nonzero;fill:rgb(100%,100%,100%);fill-opacity:1;" d="M 2.851562 18.785156 L 1.390625 18.179688 L 2.851562 17.578125 "/>
<path style=" stroke:none;fill-rule:nonzero;fill:rgb(100%,100%,100%);fill-opacity:1;" d="M 7.46875 17.578125 L 8.925781 18.179688 L 7.46875 18.785156 "/>
<path style=" stroke:none;fill-rule:nonzero;fill:rgb(100%,100%,100%);fill-opacity:1;" d="M 4.539062 20.433594 L 3.273438 21.367188 L 3.46875 19.832031 "/>
<path style=" stroke:none;fill-rule:nonzero;fill:rgb(100%,100%,100%);fill-opacity:1;" d="M 5.777344 15.925781 L 7.042969 14.996094 L 6.847656 16.53125 "/>
<path style=" stroke:none;fill-rule:nonzero;fill:rgb(100%,100%,100%);fill-opacity:1;" d="M 2.851562 17.578125 L 1.894531 16.34375 L 3.46875 16.53125 "/>
<path style=" stroke:none;fill-rule:nonzero;fill:rgb(100%,100%,100%);fill-opacity:1;" d="M 7.46875 18.785156 L 8.421875 20.019531 L 6.847656 19.832031 "/>
<path style=" stroke:none;fill-rule:nonzero;fill:rgb(100%,100%,100%);fill-opacity:1;" d="M 3.46875 19.832031 L 1.894531 20.019531 L 2.851562 18.785156 "/>
<path style=" stroke:none;fill-rule:nonzero;fill:rgb(100%,100%,100%);fill-opacity:1;" d="M 6.847656 16.53125 L 8.421875 16.34375 L 7.46875 17.578125 "/>
<path style=" stroke:none;fill-rule:nonzero;fill:rgb(100%,100%,100%);fill-opacity:1;" d="M 3.46875 16.53125 L 3.273438 14.996094 L 4.539062 15.925781 "/>
<path style=" stroke:none;fill-rule:nonzero;fill:rgb(100%,100%,100%);fill-opacity:1;" d="M 6.847656 19.832031 L 7.042969 21.367188 L 5.777344 20.433594 "/>
</g>
</svg>
