<?xml version="1.0" encoding="UTF-8"?>
<svg xmlns="http://www.w3.org/2000/svg" xmlns:xlink="http://www.w3.org/1999/xlink" width="50pt" height="25pt" viewBox="0 0 50 25" version="1.1">
<defs>
<clipPath id="clip1">
  <path d="M 0 0 L 25 0 L 25 12.5 L 0 12.5 Z M 0 0 "/>
</clipPath>
<clipPath id="clip2">
  <path d="M 0 0 L 25 0 L 25 13 L 0 13 Z M 0 0 "/>
</clipPath>
<clipPath id="clip3">
  <path d="M 0 0 L 12.5 6.25 L 0 6.25 Z M 12.5 0 L 25 0 L 12.5 6.25 Z M 12.5 6.25 L 25 6.25 L 25 12.5 Z M 12.5 6.25 L 12.5 12.5 L 0 12.5 Z M 12.5 6.25 "/>
</clipPath>
<clipPath id="clip4">
  <path d="M 0 0 L 25 0 L 25 12.5 L 0 12.5 Z M 0 0 "/>
</clipPath>
</defs>
<g id="surface1">
<rect x="0" y="0" width="50" height="25" style="fill:rgb(0%,14.117647%,49.019608%);fill-opacity:1;stroke:none;"/>
<g clip-path="url(#clip1)" clip-rule="nonzero">
<path style="fill-rule:nonzero;fill:rgb(0%,0%,0%);fill-opacity:1;stroke-width:60;stroke-linecap:butt;stroke-linejoin:miter;stroke:rgb(100%,100%,100%);stroke-opacity:1;stroke-miterlimit:4;" d="M 0 0 L 600 300 M 0 300 L 600 0 " transform="matrix(0.0416667,0,0,0.0416667,0,0)"/>
</g>
<g clip-path="url(#clip2)" clip-rule="nonzero">
<g clip-path="url(#clip3)" clip-rule="nonzero">
<path style="fill-rule:nonzero;fill:rgb(0%,0%,0%);fill-opacity:1;stroke-width:40;stroke-linecap:butt;stroke-linejoin:miter;stroke:rgb(80%,7.843137%,16.862745%);stroke-opacity:1;stroke-miterlimit:4;" d="M 0 0 L 600 300 M 0 300 L 600 0 " transform="matrix(0.0416667,0,0,0.0416667,0,0)"/>
</g>
</g>
<g clip-path="url(#clip4)" clip-rule="nonzero">
<path style="fill-rule:nonzero;fill:rgb(0%,0%,0%);fill-opacity:1;stroke-width:100;stroke-linecap:butt;stroke-linejoin:miter;stroke:rgb(100%,100%,100%);stroke-opacity:1;stroke-miterlimit:4;" d="M 300 0 L 300 300 M 0 150 L 600 150 " transform="matrix(0.0416667,0,0,0.0416667,0,0)"/>
<path style="fill-rule:nonzero;fill:rgb(0%,0%,0%);fill-opacity:1;stroke-width:60;stroke-linecap:butt;stroke-linejoin:miter;stroke:rgb(80%,7.843137%,16.862745%);stroke-opacity:1;stroke-miterlimit:4;" d="M 300 0 L 300 300 M 0 150 L 600 150 " transform="matrix(0.0416667,0,0,0.0416667,0,0)"/>
</g>
<path style=" stroke:none;fill-rule:nonzero;fill:rgb(100%,100%,100%);fill-opacity:1;" d="M 37.5 4.386719 L 37.5 5.332031 L 39.390625 4.386719 Z M 37.5 4.386719 "/>
<path style=" stroke:none;fill-rule:nonzero;fill:rgb(100%,100%,100%);fill-opacity:1;" d="M 37.859375 5.496094 L 37.304688 4.730469 L 39.390625 4.386719 Z M 37.859375 5.496094 "/>
<path style=" stroke:none;fill-rule:nonzero;fill:rgb(100%,100%,100%);fill-opacity:1;" d="M 37.5 4.386719 L 37.5 5.332031 L 35.609375 4.386719 Z M 37.5 4.386719 "/>
<path style=" stroke:none;fill-rule:nonzero;fill:rgb(100%,100%,100%);fill-opacity:1;" d="M 37.140625 5.496094 L 37.695312 4.730469 L 35.609375 4.386719 Z M 37.140625 5.496094 "/>
<path style=" stroke:none;fill-rule:nonzero;fill:rgb(100%,100%,100%);fill-opacity:1;" d="M 38.085938 4.808594 L 37.183594 5.101562 L 38.667969 6.609375 Z M 38.085938 4.808594 "/>
<path style=" stroke:none;fill-rule:nonzero;fill:rgb(100%,100%,100%);fill-opacity:1;" d="M 37.140625 5.496094 L 37.695312 4.730469 L 38.667969 6.609375 Z M 37.140625 5.496094 "/>
<path style=" stroke:none;fill-rule:nonzero;fill:rgb(100%,100%,100%);fill-opacity:1;" d="M 36.914062 4.808594 L 37.816406 5.101562 L 37.5 3.011719 Z M 36.914062 4.808594 "/>
<path style=" stroke:none;fill-rule:nonzero;fill:rgb(100%,100%,100%);fill-opacity:1;" d="M 38.085938 4.808594 L 37.183594 5.101562 L 37.5 3.011719 Z M 38.085938 4.808594 "/>
<path style=" stroke:none;fill-rule:nonzero;fill:rgb(100%,100%,100%);fill-opacity:1;" d="M 36.914062 4.808594 L 37.816406 5.101562 L 36.332031 6.609375 Z M 36.914062 4.808594 "/>
<path style=" stroke:none;fill-rule:nonzero;fill:rgb(100%,100%,100%);fill-opacity:1;" d="M 37.859375 5.496094 L 37.304688 4.730469 L 36.332031 6.609375 Z M 37.859375 5.496094 "/>
<path style=" stroke:none;fill-rule:nonzero;fill:rgb(80%,7.843137%,16.862745%);fill-opacity:1;" d="M 37.5 4.59375 L 37.5 5.21875 L 38.75 4.59375 Z M 37.5 4.59375 "/>
<path style=" stroke:none;fill-rule:nonzero;fill:rgb(80%,7.843137%,16.862745%);fill-opacity:1;" d="M 37.738281 5.328125 L 37.371094 4.824219 L 38.75 4.59375 Z M 37.738281 5.328125 "/>
<path style=" stroke:none;fill-rule:nonzero;fill:rgb(80%,7.843137%,16.862745%);fill-opacity:1;" d="M 37.5 4.59375 L 37.5 5.21875 L 36.25 4.59375 Z M 37.5 4.59375 "/>
<path style=" stroke:none;fill-rule:nonzero;fill:rgb(80%,7.843137%,16.862745%);fill-opacity:1;" d="M 37.261719 5.328125 L 37.628906 4.824219 L 36.25 4.59375 Z M 37.261719 5.328125 "/>
<path style=" stroke:none;fill-rule:nonzero;fill:rgb(80%,7.843137%,16.862745%);fill-opacity:1;" d="M 37.886719 4.875 L 37.292969 5.066406 L 38.273438 6.0625 Z M 37.886719 4.875 "/>
<path style=" stroke:none;fill-rule:nonzero;fill:rgb(80%,7.843137%,16.862745%);fill-opacity:1;" d="M 37.261719 5.328125 L 37.628906 4.824219 L 38.273438 6.0625 Z M 37.261719 5.328125 "/>
<path style=" stroke:none;fill-rule:nonzero;fill:rgb(80%,7.843137%,16.862745%);fill-opacity:1;" d="M 37.113281 4.875 L 37.707031 5.066406 L 37.5 3.6875 Z M 37.113281 4.875 "/>
<path style=" stroke:none;fill-rule:nonzero;fill:rgb(80%,7.843137%,16.862745%);fill-opacity:1;" d="M 37.886719 4.875 L 37.292969 5.066406 L 37.5 3.6875 Z M 37.886719 4.875 "/>
<path style=" stroke:none;fill-rule:nonzero;fill:rgb(80%,7.843137%,16.862745%);fill-opacity:1;" d="M 37.113281 4.875 L 37.707031 5.066406 L 36.726562 6.0625 Z M 37.113281 4.875 "/>
<path style=" stroke:none;fill-rule:nonzero;fill:rgb(80%,7.843137%,16.862745%);fill-opacity:1;" d="M 37.738281 5.328125 L 37.371094 4.824219 L 36.726562 6.0625 Z M 37.738281 5.328125 "/>
<path style=" stroke:none;fill-rule:nonzero;fill:rgb(100%,100%,100%);fill-opacity:1;" d="M 42.453125 8.757812 L 42.453125 9.597656 L 44.132812 8.757812 Z M 42.453125 8.757812 "/>
<path style=" stroke:none;fill-rule:nonzero;fill:rgb(100%,100%,100%);fill-opacity:1;" d="M 42.773438 9.746094 L 42.277344 9.066406 L 44.132812 8.757812 Z M 42.773438 9.746094 "/>
<path style=" stroke:none;fill-rule:nonzero;fill:rgb(100%,100%,100%);fill-opacity:1;" d="M 42.453125 8.757812 L 42.453125 9.597656 L 40.769531 8.757812 Z M 42.453125 8.757812 "/>
<path style=" stroke:none;fill-rule:nonzero;fill:rgb(100%,100%,100%);fill-opacity:1;" d="M 42.128906 9.746094 L 42.625 9.066406 L 40.769531 8.757812 Z M 42.128906 9.746094 "/>
<path style=" stroke:none;fill-rule:nonzero;fill:rgb(100%,100%,100%);fill-opacity:1;" d="M 42.972656 9.136719 L 42.171875 9.394531 L 43.492188 10.734375 Z M 42.972656 9.136719 "/>
<path style=" stroke:none;fill-rule:nonzero;fill:rgb(100%,100%,100%);fill-opacity:1;" d="M 42.128906 9.746094 L 42.625 9.066406 L 43.492188 10.734375 Z M 42.128906 9.746094 "/>
<path style=" stroke:none;fill-rule:nonzero;fill:rgb(100%,100%,100%);fill-opacity:1;" d="M 41.929688 9.136719 L 42.730469 9.394531 L 42.453125 7.535156 Z M 41.929688 9.136719 "/>
<path style=" stroke:none;fill-rule:nonzero;fill:rgb(100%,100%,100%);fill-opacity:1;" d="M 42.972656 9.136719 L 42.171875 9.394531 L 42.453125 7.535156 Z M 42.972656 9.136719 "/>
<path style=" stroke:none;fill-rule:nonzero;fill:rgb(100%,100%,100%);fill-opacity:1;" d="M 41.929688 9.136719 L 42.730469 9.394531 L 41.410156 10.734375 Z M 41.929688 9.136719 "/>
<path style=" stroke:none;fill-rule:nonzero;fill:rgb(100%,100%,100%);fill-opacity:1;" d="M 42.773438 9.746094 L 42.277344 9.066406 L 41.410156 10.734375 Z M 42.773438 9.746094 "/>
<path style=" stroke:none;fill-rule:nonzero;fill:rgb(80%,7.843137%,16.862745%);fill-opacity:1;" d="M 42.453125 8.964844 L 42.453125 9.488281 L 43.492188 8.964844 Z M 42.453125 8.964844 "/>
<path style=" stroke:none;fill-rule:nonzero;fill:rgb(80%,7.843137%,16.862745%);fill-opacity:1;" d="M 42.648438 9.578125 L 42.34375 9.15625 L 43.492188 8.964844 Z M 42.648438 9.578125 "/>
<path style=" stroke:none;fill-rule:nonzero;fill:rgb(80%,7.843137%,16.862745%);fill-opacity:1;" d="M 42.453125 8.964844 L 42.453125 9.488281 L 41.410156 8.964844 Z M 42.453125 8.964844 "/>
<path style=" stroke:none;fill-rule:nonzero;fill:rgb(80%,7.843137%,16.862745%);fill-opacity:1;" d="M 42.253906 9.578125 L 42.558594 9.15625 L 41.410156 8.964844 Z M 42.253906 9.578125 "/>
<path style=" stroke:none;fill-rule:nonzero;fill:rgb(80%,7.843137%,16.862745%);fill-opacity:1;" d="M 42.773438 9.199219 L 42.277344 9.359375 L 43.09375 10.191406 Z M 42.773438 9.199219 "/>
<path style=" stroke:none;fill-rule:nonzero;fill:rgb(80%,7.843137%,16.862745%);fill-opacity:1;" d="M 42.253906 9.578125 L 42.558594 9.15625 L 43.09375 10.191406 Z M 42.253906 9.578125 "/>
<path style=" stroke:none;fill-rule:nonzero;fill:rgb(80%,7.843137%,16.862745%);fill-opacity:1;" d="M 42.128906 9.199219 L 42.625 9.359375 L 42.453125 8.207031 Z M 42.128906 9.199219 "/>
<path style=" stroke:none;fill-rule:nonzero;fill:rgb(80%,7.843137%,16.862745%);fill-opacity:1;" d="M 42.773438 9.199219 L 42.277344 9.359375 L 42.453125 8.207031 Z M 42.773438 9.199219 "/>
<path style=" stroke:none;fill-rule:nonzero;fill:rgb(80%,7.843137%,16.862745%);fill-opacity:1;" d="M 42.128906 9.199219 L 42.625 9.359375 L 41.808594 10.191406 Z M 42.128906 9.199219 "/>
<path style=" stroke:none;fill-rule:nonzero;fill:rgb(80%,7.843137%,16.862745%);fill-opacity:1;" d="M 42.648438 9.578125 L 42.34375 9.15625 L 41.808594 10.191406 Z M 42.648438 9.578125 "/>
<path style=" stroke:none;fill-rule:nonzero;fill:rgb(100%,100%,100%);fill-opacity:1;" d="M 31.722656 10.195312 L 31.722656 11.144531 L 33.613281 10.195312 Z M 31.722656 10.195312 "/>
<path style=" stroke:none;fill-rule:nonzero;fill:rgb(100%,100%,100%);fill-opacity:1;" d="M 32.085938 11.308594 L 31.527344 10.542969 L 33.613281 10.195312 Z M 32.085938 11.308594 "/>
<path style=" stroke:none;fill-rule:nonzero;fill:rgb(100%,100%,100%);fill-opacity:1;" d="M 31.722656 10.195312 L 31.722656 11.144531 L 29.832031 10.195312 Z M 31.722656 10.195312 "/>
<path style=" stroke:none;fill-rule:nonzero;fill:rgb(100%,100%,100%);fill-opacity:1;" d="M 31.363281 11.308594 L 31.917969 10.542969 L 29.832031 10.195312 Z M 31.363281 11.308594 "/>
<path style=" stroke:none;fill-rule:nonzero;fill:rgb(100%,100%,100%);fill-opacity:1;" d="M 32.308594 10.621094 L 31.410156 10.914062 L 32.890625 12.421875 Z M 32.308594 10.621094 "/>
<path style=" stroke:none;fill-rule:nonzero;fill:rgb(100%,100%,100%);fill-opacity:1;" d="M 31.363281 11.308594 L 31.917969 10.542969 L 32.890625 12.421875 Z M 31.363281 11.308594 "/>
<path style=" stroke:none;fill-rule:nonzero;fill:rgb(100%,100%,100%);fill-opacity:1;" d="M 31.140625 10.621094 L 32.039062 10.914062 L 31.722656 8.824219 Z M 31.140625 10.621094 "/>
<path style=" stroke:none;fill-rule:nonzero;fill:rgb(100%,100%,100%);fill-opacity:1;" d="M 32.308594 10.621094 L 31.410156 10.914062 L 31.722656 8.824219 Z M 32.308594 10.621094 "/>
<path style=" stroke:none;fill-rule:nonzero;fill:rgb(100%,100%,100%);fill-opacity:1;" d="M 31.140625 10.621094 L 32.039062 10.914062 L 30.554688 12.421875 Z M 31.140625 10.621094 "/>
<path style=" stroke:none;fill-rule:nonzero;fill:rgb(100%,100%,100%);fill-opacity:1;" d="M 32.085938 11.308594 L 31.527344 10.542969 L 30.554688 12.421875 Z M 32.085938 11.308594 "/>
<path style=" stroke:none;fill-rule:nonzero;fill:rgb(80%,7.843137%,16.862745%);fill-opacity:1;" d="M 31.722656 10.40625 L 31.722656 11.03125 L 32.972656 10.40625 Z M 31.722656 10.40625 "/>
<path style=" stroke:none;fill-rule:nonzero;fill:rgb(80%,7.843137%,16.862745%);fill-opacity:1;" d="M 31.960938 11.140625 L 31.59375 10.636719 L 32.972656 10.40625 Z M 31.960938 11.140625 "/>
<path style=" stroke:none;fill-rule:nonzero;fill:rgb(80%,7.843137%,16.862745%);fill-opacity:1;" d="M 31.722656 10.40625 L 31.722656 11.03125 L 30.472656 10.40625 Z M 31.722656 10.40625 "/>
<path style=" stroke:none;fill-rule:nonzero;fill:rgb(80%,7.843137%,16.862745%);fill-opacity:1;" d="M 31.484375 11.140625 L 31.851562 10.636719 L 30.472656 10.40625 Z M 31.484375 11.140625 "/>
<path style=" stroke:none;fill-rule:nonzero;fill:rgb(80%,7.843137%,16.862745%);fill-opacity:1;" d="M 32.109375 10.6875 L 31.515625 10.878906 L 32.496094 11.875 Z M 32.109375 10.6875 "/>
<path style=" stroke:none;fill-rule:nonzero;fill:rgb(80%,7.843137%,16.862745%);fill-opacity:1;" d="M 31.484375 11.140625 L 31.851562 10.636719 L 32.496094 11.875 Z M 31.484375 11.140625 "/>
<path style=" stroke:none;fill-rule:nonzero;fill:rgb(80%,7.843137%,16.862745%);fill-opacity:1;" d="M 31.335938 10.6875 L 31.929688 10.878906 L 31.722656 9.496094 Z M 31.335938 10.6875 "/>
<path style=" stroke:none;fill-rule:nonzero;fill:rgb(80%,7.843137%,16.862745%);fill-opacity:1;" d="M 32.109375 10.6875 L 31.515625 10.878906 L 31.722656 9.496094 Z M 32.109375 10.6875 "/>
<path style=" stroke:none;fill-rule:nonzero;fill:rgb(80%,7.843137%,16.862745%);fill-opacity:1;" d="M 31.335938 10.6875 L 31.929688 10.878906 L 30.949219 11.875 Z M 31.335938 10.6875 "/>
<path style=" stroke:none;fill-rule:nonzero;fill:rgb(80%,7.843137%,16.862745%);fill-opacity:1;" d="M 31.960938 11.140625 L 31.59375 10.636719 L 30.949219 11.875 Z M 31.960938 11.140625 "/>
<path style=" stroke:none;fill-rule:nonzero;fill:rgb(100%,100%,100%);fill-opacity:1;" d="M 37.5 19.316406 L 37.5 20.367188 L 39.601562 19.316406 Z M 37.5 19.316406 "/>
<path style=" stroke:none;fill-rule:nonzero;fill:rgb(100%,100%,100%);fill-opacity:1;" d="M 37.902344 20.550781 L 37.285156 19.703125 L 39.601562 19.316406 Z M 37.902344 20.550781 "/>
<path style=" stroke:none;fill-rule:nonzero;fill:rgb(100%,100%,100%);fill-opacity:1;" d="M 37.5 19.316406 L 37.5 20.367188 L 35.398438 19.316406 Z M 37.5 19.316406 "/>
<path style=" stroke:none;fill-rule:nonzero;fill:rgb(100%,100%,100%);fill-opacity:1;" d="M 37.097656 20.550781 L 37.714844 19.703125 L 35.398438 19.316406 Z M 37.097656 20.550781 "/>
<path style=" stroke:none;fill-rule:nonzero;fill:rgb(100%,100%,100%);fill-opacity:1;" d="M 38.148438 19.789062 L 37.148438 20.113281 L 38.796875 21.785156 Z M 38.148438 19.789062 "/>
<path style=" stroke:none;fill-rule:nonzero;fill:rgb(100%,100%,100%);fill-opacity:1;" d="M 37.097656 20.550781 L 37.714844 19.703125 L 38.796875 21.785156 Z M 37.097656 20.550781 "/>
<path style=" stroke:none;fill-rule:nonzero;fill:rgb(100%,100%,100%);fill-opacity:1;" d="M 36.851562 19.789062 L 37.851562 20.113281 L 37.5 17.792969 Z M 36.851562 19.789062 "/>
<path style=" stroke:none;fill-rule:nonzero;fill:rgb(100%,100%,100%);fill-opacity:1;" d="M 38.148438 19.789062 L 37.148438 20.113281 L 37.5 17.792969 Z M 38.148438 19.789062 "/>
<path style=" stroke:none;fill-rule:nonzero;fill:rgb(100%,100%,100%);fill-opacity:1;" d="M 36.851562 19.789062 L 37.851562 20.113281 L 36.203125 21.785156 Z M 36.851562 19.789062 "/>
<path style=" stroke:none;fill-rule:nonzero;fill:rgb(100%,100%,100%);fill-opacity:1;" d="M 37.902344 20.550781 L 37.285156 19.703125 L 36.203125 21.785156 Z M 37.902344 20.550781 "/>
<path style=" stroke:none;fill-rule:nonzero;fill:rgb(80%,7.843137%,16.862745%);fill-opacity:1;" d="M 37.5 19.527344 L 37.5 20.253906 L 38.957031 19.527344 Z M 37.5 19.527344 "/>
<path style=" stroke:none;fill-rule:nonzero;fill:rgb(80%,7.843137%,16.862745%);fill-opacity:1;" d="M 37.777344 20.382812 L 37.351562 19.792969 L 38.957031 19.527344 Z M 37.777344 20.382812 "/>
<path style=" stroke:none;fill-rule:nonzero;fill:rgb(80%,7.843137%,16.862745%);fill-opacity:1;" d="M 37.5 19.527344 L 37.5 20.253906 L 36.042969 19.527344 Z M 37.5 19.527344 "/>
<path style=" stroke:none;fill-rule:nonzero;fill:rgb(80%,7.843137%,16.862745%);fill-opacity:1;" d="M 37.222656 20.382812 L 37.648438 19.792969 L 36.042969 19.527344 Z M 37.222656 20.382812 "/>
<path style=" stroke:none;fill-rule:nonzero;fill:rgb(80%,7.843137%,16.862745%);fill-opacity:1;" d="M 37.949219 19.855469 L 37.257812 20.078125 L 38.402344 21.242188 Z M 37.949219 19.855469 "/>
<path style=" stroke:none;fill-rule:nonzero;fill:rgb(80%,7.843137%,16.862745%);fill-opacity:1;" d="M 37.222656 20.382812 L 37.648438 19.792969 L 38.402344 21.242188 Z M 37.222656 20.382812 "/>
<path style=" stroke:none;fill-rule:nonzero;fill:rgb(80%,7.843137%,16.862745%);fill-opacity:1;" d="M 37.050781 19.855469 L 37.742188 20.078125 L 37.5 18.464844 Z M 37.050781 19.855469 "/>
<path style=" stroke:none;fill-rule:nonzero;fill:rgb(80%,7.843137%,16.862745%);fill-opacity:1;" d="M 37.949219 19.855469 L 37.257812 20.078125 L 37.5 18.464844 Z M 37.949219 19.855469 "/>
<path style=" stroke:none;fill-rule:nonzero;fill:rgb(80%,7.843137%,16.862745%);fill-opacity:1;" d="M 37.050781 19.855469 L 37.742188 20.078125 L 36.597656 21.242188 Z M 37.050781 19.855469 "/>
<path style=" stroke:none;fill-rule:nonzero;fill:rgb(80%,7.843137%,16.862745%);fill-opacity:1;" d="M 37.777344 20.382812 L 37.351562 19.792969 L 36.597656 21.242188 Z M 37.777344 20.382812 "/>
</g>
</svg>
