<?xml version="1.0" encoding="UTF-8"?>
<svg xmlns="http://www.w3.org/2000/svg" xmlns:xlink="http://www.w3.org/1999/xlink" width="50pt" height="25pt" viewBox="0 0 50 25" version="1.1">
<g id="surface1">
<rect x="0" y="0" width="50" height="25" style="fill:rgb(0.784314%,30.980392%,63.529412%);fill-opacity:1;stroke:none;"/>
<path style=" stroke:none;fill-rule:nonzero;fill:rgb(100%,100%,100%);fill-opacity:1;" d="M 0 4.167969 L 50 4.167969 L 50 20.832031 L 0 20.832031 Z M 0 4.167969 "/>
<path style=" stroke:none;fill-rule:nonzero;fill:rgb(92.941176%,10.980392%,15.294118%);fill-opacity:1;" d="M 0 4.859375 L 50 4.859375 L 50 20.140625 L 0 20.140625 Z M 0 4.859375 "/>
<path style=" stroke:none;fill-rule:nonzero;fill:rgb(100%,100%,100%);fill-opacity:1;" d="M 22.222656 12.5 C 22.222656 15.566406 19.734375 18.054688 16.667969 18.054688 C 13.597656 18.054688 11.109375 15.566406 11.109375 12.5 C 11.109375 9.433594 13.597656 6.945312 16.667969 6.945312 C 19.734375 6.945312 22.222656 9.433594 22.222656 12.5 Z M 22.222656 12.5 "/>
<path style=" stroke:none;fill-rule:nonzero;fill:rgb(92.941176%,10.980392%,15.294118%);fill-opacity:1;" d="M 16.667969 7.117188 L 15.003906 12.238281 L 17.5625 13.066406 Z M 16.667969 7.117188 "/>
<path style=" stroke:none;fill-rule:nonzero;fill:rgb(92.941176%,10.980392%,15.294118%);fill-opacity:1;" d="M 16.667969 7.117188 L 18.328125 12.238281 L 15.769531 13.066406 Z M 16.667969 7.117188 "/>
<path style=" stroke:none;fill-rule:nonzero;fill:rgb(92.941176%,10.980392%,15.294118%);fill-opacity:1;" d="M 21.785156 10.835938 L 16.402344 10.835938 L 16.402344 13.527344 Z M 21.785156 10.835938 "/>
<path style=" stroke:none;fill-rule:nonzero;fill:rgb(92.941176%,10.980392%,15.294118%);fill-opacity:1;" d="M 21.785156 10.835938 L 17.429688 14 L 15.847656 11.824219 Z M 21.785156 10.835938 "/>
<path style=" stroke:none;fill-rule:nonzero;fill:rgb(92.941176%,10.980392%,15.294118%);fill-opacity:1;" d="M 11.546875 10.835938 L 15.902344 14 L 17.484375 11.824219 Z M 11.546875 10.835938 "/>
<path style=" stroke:none;fill-rule:nonzero;fill:rgb(92.941176%,10.980392%,15.294118%);fill-opacity:1;" d="M 11.546875 10.835938 L 16.929688 10.835938 L 16.929688 13.527344 Z M 11.546875 10.835938 "/>
<path style=" stroke:none;fill-rule:nonzero;fill:rgb(92.941176%,10.980392%,15.294118%);fill-opacity:1;" d="M 19.832031 16.855469 L 18.167969 11.734375 L 15.609375 12.566406 Z M 19.832031 16.855469 "/>
<path style=" stroke:none;fill-rule:nonzero;fill:rgb(92.941176%,10.980392%,15.294118%);fill-opacity:1;" d="M 19.832031 16.855469 L 15.476562 13.691406 L 17.058594 11.511719 Z M 19.832031 16.855469 "/>
<path style=" stroke:none;fill-rule:nonzero;fill:rgb(92.941176%,10.980392%,15.294118%);fill-opacity:1;" d="M 13.503906 16.855469 L 17.855469 13.691406 L 16.277344 11.511719 Z M 13.503906 16.855469 "/>
<path style=" stroke:none;fill-rule:nonzero;fill:rgb(92.941176%,10.980392%,15.294118%);fill-opacity:1;" d="M 13.503906 16.855469 L 15.167969 11.734375 L 17.726562 12.566406 Z M 13.503906 16.855469 "/>
</g>
</svg>
