<?xml version="1.0" encoding="UTF-8"?>
<svg xmlns="http://www.w3.org/2000/svg" xmlns:xlink="http://www.w3.org/1999/xlink" width="33pt" height="25pt" viewBox="0 0 33 25" version="1.1">
<g id="surface1">
<rect x="0" y="0" width="33" height="25" style="fill:rgb(0%,0%,0%);fill-opacity:1;stroke:none;"/>
<path style=" stroke:none;fill-rule:nonzero;fill:rgb(80.784314%,6.666667%,14.901961%);fill-opacity:1;" d="M 0 0 L 33 0 L 33 25 Z M 0 0 "/>
<path style=" stroke:none;fill-rule:nonzero;fill:rgb(98.823529%,81.960784%,8.627451%);fill-opacity:1;" d="M 20.429688 7.261719 C 20.1875 7.582031 19.609375 6.945312 18.917969 6.929688 C 18.230469 6.914062 17.738281 7.597656 17.539062 7.832031 C 17.335938 8.0625 16.6875 9.285156 16.703125 9.414062 C 16.71875 9.546875 17.105469 9.050781 17.25 8.964844 C 17.265625 9.140625 17.089844 9.34375 17.132812 9.402344 C 17.179688 9.460938 17.636719 9.050781 17.796875 9.039062 C 17.839844 9.152344 17.710938 9.269531 17.753906 9.445312 C 17.8125 9.503906 18.070312 9.152344 18.242188 9.082031 C 18.273438 9.210938 18.085938 9.460938 18.183594 9.617188 C 18.257812 9.632812 18.6875 9.125 18.832031 9.066406 C 18.976562 9.007812 18.761719 9.546875 18.832031 9.589844 C 18.960938 9.503906 19.367188 9.039062 19.496094 8.980469 C 19.625 8.921875 19.480469 9.574219 19.539062 9.574219 C 19.695312 9.460938 20.101562 8.90625 20.144531 8.820312 C 20.1875 8.730469 20.101562 9.664062 20.546875 10.15625 C 20.992188 10.652344 21.667969 11.21875 21.742188 11.21875 C 21.828125 11.058594 21.710938 10.722656 21.785156 10.738281 C 21.984375 10.957031 22.359375 11.277344 22.445312 11.277344 C 22.53125 11.277344 22.386719 10.925781 22.503906 10.925781 C 22.734375 11.144531 23.394531 12.003906 24.691406 12.394531 C 24.605469 12.148438 24.417969 11.929688 24.402344 11.816406 C 24.492188 11.828125 24.792969 11.972656 24.851562 11.960938 C 24.90625 11.945312 24.214844 11.085938 24.261719 10.972656 C 24.417969 10.957031 24.492188 11.058594 24.546875 10.984375 C 24.476562 10.871094 23.871094 10.1875 23.871094 10.027344 C 23.871094 9.867188 24.058594 10.054688 24.117188 10.027344 C 24.171875 9.996094 23.886719 9.386719 23.941406 9.3125 C 24 9.242188 24.632812 9.707031 24.792969 9.707031 C 24.949219 9.707031 24.835938 9.140625 24.90625 9.109375 C 24.980469 9.082031 25.511719 9.414062 25.628906 9.414062 C 25.742188 9.414062 25.726562 9.167969 25.769531 9.199219 C 25.816406 9.226562 27.066406 10.492188 26.636719 11.972656 C 26.203125 13.035156 25.339844 13.601562 24.074219 13.136719 C 24.144531 13.253906 24.820312 13.820312 25.554688 13.617188 C 26.289062 13.414062 27.183594 12.832031 27.082031 11.378906 C 26.980469 9.925781 26.503906 9.722656 26.433594 9.503906 C 26.363281 9.285156 26.546875 9.5625 26.707031 9.617188 C 26.867188 9.675781 26.679688 9.3125 26.636719 9.152344 C 26.59375 8.992188 27.109375 9.488281 27.238281 9.53125 C 27.371094 9.574219 26.9375 8.339844 26.808594 8.253906 C 26.679688 8.164062 26.9375 8.28125 27.023438 8.308594 C 27.109375 8.339844 26.230469 6.957031 26.042969 6.957031 C 25.859375 6.957031 26.203125 6.886719 26.304688 6.886719 C 26.40625 6.886719 25.296875 5.984375 25.109375 5.984375 C 24.921875 5.984375 25.511719 5.75 25.570312 5.738281 C 25.671875 5.75 24.289062 4.996094 23.050781 5.75 C 22.980469 5.691406 23.632812 5.234375 23.65625 5.039062 C 23.664062 4.988281 23.441406 4.878906 23.425781 4.820312 C 23.410156 4.761719 23.769531 4.589844 23.785156 4.457031 C 23.699219 4.339844 23.539062 4.382812 23.453125 4.355469 C 23.433594 4.246094 23.757812 3.976562 23.726562 3.859375 C 23.707031 3.796875 23.46875 3.773438 23.410156 3.816406 C 23.351562 3.859375 23.5625 3.511719 23.527344 3.410156 C 23.496094 3.367188 23.382812 3.394531 23.265625 3.425781 C 23.195312 3.410156 23.640625 2.785156 23.554688 2.699219 C 23.46875 2.609375 22.257812 3.335938 21.8125 4.152344 C 21.367188 4.964844 21.710938 5.621094 21.65625 5.898438 C 21.597656 6.171875 21.523438 6.449219 21.335938 6.449219 C 21.152344 6.449219 20.71875 6.160156 20.574219 6.011719 C 20.429688 5.867188 20.402344 5.765625 20.199219 5.707031 C 20 5.648438 19.539062 5.824219 19.367188 5.839844 C 19.191406 5.851562 18.515625 5.707031 18.472656 5.75 C 18.429688 5.796875 19.136719 6.058594 19.292969 6.144531 C 19.453125 6.230469 19.464844 6.347656 19.582031 6.421875 C 19.695312 6.492188 20.777344 6.8125 20.429688 7.261719 Z M 24.648438 9.3125 C 24.992188 9.664062 27.324219 11.234375 27.324219 13.152344 C 27.324219 15.070312 25.628906 15.011719 25.136719 14.957031 C 25.683594 15.421875 27.757812 15.332031 27.757812 13.152344 C 27.757812 11.234375 25.082031 9.3125 24.734375 9.140625 C 24.390625 8.964844 24.304688 8.964844 24.648438 9.3125 Z M 24.648438 9.3125 "/>
<path style=" stroke:none;fill-rule:nonzero;fill:rgb(100%,100%,100%);fill-opacity:1;" d="M 9.464844 18.167969 L 9.957031 16.570312 L 10.449219 18.1875 L 9.152344 17.195312 L 10.761719 17.195312 Z M 9.464844 18.167969 "/>
<path style=" stroke:none;fill-rule:nonzero;fill:rgb(100%,100%,100%);fill-opacity:1;" d="M 8.269531 7.746094 L 7.285156 10.945312 L 9.875 9 L 6.660156 9 L 9.253906 10.980469 Z M 8.269531 7.746094 "/>
<path style=" stroke:none;fill-rule:nonzero;fill:rgb(100%,100%,100%);fill-opacity:1;" d="M 4.488281 12.628906 L 3.503906 15.828125 L 6.09375 13.882812 L 2.878906 13.882812 L 5.472656 15.863281 Z M 4.488281 12.628906 "/>
<path style=" stroke:none;fill-rule:nonzero;fill:rgb(100%,100%,100%);fill-opacity:1;" d="M 12.03125 12.28125 L 11.046875 15.480469 L 13.640625 13.535156 L 10.421875 13.535156 L 13.015625 15.515625 Z M 12.03125 12.28125 "/>
<path style=" stroke:none;fill-rule:nonzero;fill:rgb(100%,100%,100%);fill-opacity:1;" d="M 8.269531 19.226562 L 7.285156 22.425781 L 9.875 20.480469 L 6.660156 20.480469 L 9.253906 22.460938 Z M 8.269531 19.226562 "/>
</g>
</svg>
