<?xml version="1.0" encoding="UTF-8"?>
<svg xmlns="http://www.w3.org/2000/svg" xmlns:xlink="http://www.w3.org/1999/xlink" width="45pt" height="25pt" viewBox="0 0 45 25" version="1.1">
<g id="surface1">
<rect x="0" y="0" width="45" height="25" style="fill:rgb(0%,21.960784%,65.882353%);fill-opacity:1;stroke:none;"/>
<path style=" stroke:none;fill-rule:nonzero;fill:rgb(100%,100%,100%);fill-opacity:1;" d="M 0 0 L 45 0 L 45 16.667969 L 0 16.667969 Z M 0 0 "/>
<path style=" stroke:none;fill-rule:nonzero;fill:rgb(83.529412%,16.862745%,11.764706%);fill-opacity:1;" d="M 0 0 L 45 0 L 45 8.332031 L 0 8.332031 Z M 0 0 "/>
<path style="fill:none;stroke-width:1.07585;stroke-linecap:butt;stroke-linejoin:miter;stroke:rgb(0%,0%,0%);stroke-opacity:1;stroke-miterlimit:4;" d="M 342.1875 165 C 342.1875 188.30625 323.28125 207.178125 300 207.178125 C 276.71875 207.178125 257.8125 188.30625 257.8125 165 C 257.8125 141.69375 276.71875 122.821875 300 122.821875 C 323.28125 122.821875 342.1875 141.69375 342.1875 165 Z M 342.1875 165 " transform="matrix(0.075,0,0,0.0757576,0,0)"/>
<path style="fill:none;stroke-width:0.47815;stroke-linecap:butt;stroke-linejoin:miter;stroke:rgb(0%,0%,0%);stroke-opacity:1;stroke-miterlimit:4;" d="M 334.6875 165 C 334.6875 184.129687 319.166667 199.65 300 199.65 C 280.833333 199.65 265.3125 184.129687 265.3125 165 C 265.3125 145.870312 280.833333 130.35 300 130.35 C 319.166667 130.35 334.6875 145.870312 334.6875 165 Z M 334.6875 165 " transform="matrix(0.075,0,0,0.0757576,0,0)"/>
<path style="fill:none;stroke-width:0.43816;stroke-linecap:butt;stroke-linejoin:miter;stroke:rgb(0%,0%,0%);stroke-opacity:1;stroke-miterlimit:4;" d="M 326.5625 165 C 326.5625 179.64375 314.6875 191.554688 300 191.554688 C 285.3125 191.554688 273.4375 179.64375 273.4375 165 C 273.4375 150.35625 285.3125 138.445312 300 138.445312 C 314.6875 138.445312 326.5625 150.35625 326.5625 165 Z M 326.5625 165 " transform="matrix(0.075,0,0,0.0757576,0,0)"/>
<path style=" stroke:none;fill-rule:nonzero;fill:rgb(0%,0%,0%);fill-opacity:1;" d="M 20.816406 13.734375 L 20.449219 13.953125 L 20.335938 13.761719 C 20.316406 13.726562 20.300781 13.699219 20.296875 13.675781 C 20.292969 13.652344 20.292969 13.632812 20.304688 13.609375 C 20.3125 13.589844 20.328125 13.570312 20.351562 13.558594 C 20.375 13.546875 20.394531 13.539062 20.414062 13.539062 C 20.433594 13.539062 20.453125 13.542969 20.46875 13.554688 C 20.480469 13.558594 20.496094 13.570312 20.507812 13.585938 C 20.503906 13.570312 20.503906 13.554688 20.503906 13.546875 C 20.503906 13.542969 20.507812 13.53125 20.511719 13.519531 C 20.519531 13.503906 20.523438 13.492188 20.527344 13.488281 L 20.601562 13.367188 L 20.675781 13.5 L 20.601562 13.625 C 20.589844 13.644531 20.585938 13.65625 20.585938 13.664062 C 20.582031 13.675781 20.585938 13.6875 20.59375 13.699219 L 20.597656 13.707031 L 20.746094 13.617188 Z M 20.527344 13.75 L 20.5 13.699219 C 20.496094 13.695312 20.488281 13.6875 20.476562 13.671875 C 20.472656 13.667969 20.464844 13.664062 20.457031 13.660156 C 20.445312 13.660156 20.4375 13.664062 20.429688 13.667969 C 20.417969 13.675781 20.410156 13.683594 20.410156 13.695312 C 20.40625 13.707031 20.414062 13.722656 20.425781 13.742188 L 20.453125 13.792969 Z M 20.527344 13.75 "/>
<path style=" stroke:none;fill-rule:nonzero;fill:rgb(0%,0%,0%);fill-opacity:1;" d="M 20.183594 13.460938 L 20.070312 13.125 L 20.15625 13.09375 L 20.226562 13.308594 L 20.292969 13.285156 L 20.226562 13.089844 L 20.308594 13.0625 L 20.375 13.257812 L 20.453125 13.230469 L 20.382812 13.011719 L 20.476562 12.980469 L 20.589844 13.328125 Z M 20.183594 13.460938 "/>
<path style=" stroke:none;fill-rule:nonzero;fill:rgb(0%,0%,0%);fill-opacity:1;" d="M 20.035156 12.960938 L 20.011719 12.738281 C 20.007812 12.691406 20.015625 12.652344 20.035156 12.628906 C 20.054688 12.601562 20.085938 12.585938 20.125 12.582031 C 20.167969 12.574219 20.203125 12.585938 20.230469 12.609375 C 20.257812 12.632812 20.273438 12.667969 20.28125 12.722656 L 20.289062 12.796875 L 20.445312 12.777344 L 20.460938 12.910156 Z M 20.203125 12.804688 L 20.199219 12.773438 C 20.195312 12.746094 20.191406 12.730469 20.179688 12.71875 C 20.167969 12.710938 20.15625 12.707031 20.144531 12.710938 C 20.132812 12.710938 20.121094 12.714844 20.113281 12.726562 C 20.105469 12.738281 20.101562 12.753906 20.105469 12.777344 L 20.109375 12.816406 Z M 20.203125 12.804688 "/>
<path style=" stroke:none;fill-rule:nonzero;fill:rgb(0%,0%,0%);fill-opacity:1;" d="M 20.023438 12.148438 L 20.039062 12.019531 L 20.289062 12.046875 C 20.316406 12.046875 20.339844 12.054688 20.359375 12.066406 C 20.382812 12.074219 20.398438 12.089844 20.414062 12.109375 C 20.429688 12.128906 20.441406 12.144531 20.445312 12.164062 C 20.449219 12.191406 20.453125 12.222656 20.449219 12.257812 C 20.445312 12.28125 20.441406 12.304688 20.4375 12.328125 C 20.429688 12.351562 20.421875 12.371094 20.414062 12.386719 C 20.402344 12.402344 20.390625 12.417969 20.371094 12.429688 C 20.355469 12.441406 20.335938 12.449219 20.320312 12.453125 C 20.292969 12.457031 20.265625 12.457031 20.246094 12.457031 L 19.992188 12.429688 L 20.007812 12.296875 L 20.265625 12.324219 C 20.289062 12.328125 20.308594 12.324219 20.324219 12.3125 C 20.335938 12.300781 20.347656 12.28125 20.347656 12.257812 C 20.351562 12.238281 20.347656 12.21875 20.335938 12.203125 C 20.324219 12.1875 20.304688 12.179688 20.28125 12.179688 Z M 20.023438 12.148438 "/>
<path style=" stroke:none;fill-rule:nonzero;fill:rgb(0%,0%,0%);fill-opacity:1;" d="M 20.082031 11.835938 L 20.160156 11.597656 C 20.175781 11.558594 20.195312 11.53125 20.222656 11.519531 C 20.25 11.503906 20.277344 11.503906 20.304688 11.511719 C 20.328125 11.519531 20.347656 11.535156 20.359375 11.554688 C 20.367188 11.570312 20.371094 11.589844 20.371094 11.609375 C 20.386719 11.582031 20.40625 11.566406 20.429688 11.558594 C 20.449219 11.550781 20.472656 11.550781 20.5 11.558594 C 20.519531 11.566406 20.535156 11.578125 20.550781 11.59375 C 20.5625 11.609375 20.570312 11.628906 20.574219 11.648438 C 20.578125 11.660156 20.578125 11.679688 20.574219 11.699219 C 20.566406 11.730469 20.5625 11.75 20.558594 11.757812 L 20.484375 11.976562 Z M 20.28125 11.761719 L 20.300781 11.707031 C 20.308594 11.6875 20.308594 11.675781 20.304688 11.664062 C 20.300781 11.652344 20.292969 11.648438 20.28125 11.640625 C 20.269531 11.636719 20.257812 11.636719 20.25 11.644531 C 20.238281 11.648438 20.230469 11.660156 20.226562 11.679688 L 20.207031 11.734375 Z M 20.441406 11.820312 L 20.464844 11.753906 C 20.46875 11.734375 20.472656 11.714844 20.46875 11.703125 C 20.460938 11.695312 20.453125 11.683594 20.441406 11.679688 C 20.429688 11.675781 20.417969 11.675781 20.40625 11.683594 C 20.398438 11.691406 20.390625 11.703125 20.382812 11.726562 L 20.359375 11.789062 Z M 20.441406 11.820312 "/>
<path style=" stroke:none;fill-rule:nonzero;fill:rgb(0%,0%,0%);fill-opacity:1;" d="M 20.28125 11.316406 L 20.351562 11.203125 L 20.625 11.371094 L 20.730469 11.191406 L 20.820312 11.246094 L 20.648438 11.539062 Z M 20.28125 11.316406 "/>
<path style=" stroke:none;fill-rule:nonzero;fill:rgb(0%,0%,0%);fill-opacity:1;" d="M 20.539062 10.921875 L 20.625 10.820312 L 20.953125 11.09375 L 20.867188 11.195312 Z M 20.539062 10.921875 "/>
<path style=" stroke:none;fill-rule:nonzero;fill:rgb(0%,0%,0%);fill-opacity:1;" d="M 21.113281 10.699219 L 21.222656 10.648438 C 21.238281 10.679688 21.246094 10.707031 21.25 10.734375 C 21.25 10.761719 21.246094 10.789062 21.234375 10.8125 C 21.222656 10.839844 21.203125 10.863281 21.171875 10.890625 C 21.136719 10.917969 21.105469 10.9375 21.074219 10.949219 C 21.042969 10.957031 21.007812 10.957031 20.96875 10.945312 C 20.933594 10.933594 20.894531 10.90625 20.859375 10.863281 C 20.816406 10.8125 20.792969 10.757812 20.796875 10.703125 C 20.800781 10.648438 20.828125 10.601562 20.882812 10.554688 C 20.921875 10.519531 20.960938 10.5 21 10.496094 C 21.035156 10.492188 21.074219 10.503906 21.117188 10.527344 L 21.042969 10.625 C 21.03125 10.617188 21.023438 10.613281 21.015625 10.609375 C 21.003906 10.609375 20.992188 10.609375 20.980469 10.609375 C 20.96875 10.613281 20.957031 10.621094 20.949219 10.628906 C 20.925781 10.648438 20.914062 10.671875 20.917969 10.699219 C 20.921875 10.722656 20.9375 10.75 20.960938 10.777344 C 20.992188 10.8125 21.019531 10.832031 21.039062 10.835938 C 21.0625 10.84375 21.082031 10.835938 21.101562 10.816406 C 21.121094 10.800781 21.132812 10.785156 21.132812 10.765625 C 21.132812 10.746094 21.128906 10.722656 21.113281 10.699219 Z M 21.113281 10.699219 "/>
<path style=" stroke:none;fill-rule:nonzero;fill:rgb(0%,0%,0%);fill-opacity:1;" d="M 21.570312 10.535156 L 21.4375 10.605469 L 21.449219 10.675781 L 21.332031 10.742188 L 21.273438 10.285156 L 21.398438 10.214844 L 21.742188 10.519531 L 21.621094 10.585938 Z M 21.5 10.464844 L 21.386719 10.351562 L 21.417969 10.507812 Z M 21.5 10.464844 "/>
<path style=" stroke:none;fill-rule:nonzero;fill:rgb(0%,0%,0%);fill-opacity:1;" d="M 21.902344 10.023438 L 22.097656 9.988281 C 22.136719 9.980469 22.167969 9.980469 22.191406 9.988281 C 22.21875 9.996094 22.238281 10.007812 22.257812 10.023438 C 22.277344 10.039062 22.292969 10.0625 22.300781 10.085938 C 22.3125 10.109375 22.320312 10.136719 22.328125 10.167969 C 22.335938 10.210938 22.335938 10.246094 22.328125 10.273438 C 22.324219 10.300781 22.3125 10.324219 22.296875 10.34375 C 22.28125 10.363281 22.265625 10.378906 22.246094 10.390625 C 22.21875 10.402344 22.191406 10.410156 22.167969 10.414062 L 21.976562 10.449219 Z M 22.050781 10.097656 L 22.089844 10.328125 L 22.121094 10.324219 C 22.148438 10.316406 22.167969 10.3125 22.179688 10.304688 C 22.1875 10.296875 22.195312 10.285156 22.199219 10.265625 C 22.203125 10.25 22.203125 10.226562 22.195312 10.191406 C 22.1875 10.148438 22.175781 10.117188 22.160156 10.101562 C 22.140625 10.089844 22.117188 10.085938 22.082031 10.089844 Z M 22.050781 10.097656 "/>
<path style=" stroke:none;fill-rule:nonzero;fill:rgb(0%,0%,0%);fill-opacity:1;" d="M 22.453125 9.949219 L 22.804688 9.964844 L 22.800781 10.054688 L 22.582031 10.046875 L 22.578125 10.113281 L 22.78125 10.125 L 22.777344 10.210938 L 22.574219 10.203125 L 22.570312 10.289062 L 22.796875 10.296875 L 22.792969 10.394531 L 22.433594 10.378906 Z M 22.453125 9.949219 "/>
<path style=" stroke:none;fill-rule:nonzero;fill:rgb(0%,0%,0%);fill-opacity:1;" d="M 22.964844 9.988281 L 23.09375 10.019531 L 23.015625 10.335938 L 23.21875 10.386719 L 23.191406 10.488281 L 22.863281 10.40625 Z M 22.964844 9.988281 "/>
<path style=" stroke:none;fill-rule:nonzero;fill:rgb(0%,0%,0%);fill-opacity:1;" d="M 23.652344 10.21875 L 23.839844 10.332031 C 23.878906 10.355469 23.90625 10.382812 23.914062 10.417969 C 23.921875 10.449219 23.917969 10.484375 23.894531 10.519531 C 23.875 10.554688 23.84375 10.578125 23.8125 10.585938 C 23.777344 10.59375 23.734375 10.585938 23.691406 10.558594 L 23.628906 10.519531 L 23.546875 10.65625 L 23.433594 10.589844 Z M 23.671875 10.445312 L 23.699219 10.460938 C 23.722656 10.476562 23.738281 10.480469 23.753906 10.476562 C 23.765625 10.476562 23.777344 10.46875 23.78125 10.457031 C 23.789062 10.445312 23.792969 10.433594 23.789062 10.417969 C 23.785156 10.40625 23.773438 10.394531 23.753906 10.382812 L 23.71875 10.363281 Z M 23.671875 10.445312 "/>
<path style=" stroke:none;fill-rule:nonzero;fill:rgb(0%,0%,0%);fill-opacity:1;" d="M 24.042969 10.949219 L 23.933594 10.84375 L 23.867188 10.882812 L 23.769531 10.789062 L 24.179688 10.585938 L 24.285156 10.683594 L 24.109375 11.109375 L 24.007812 11.015625 Z M 24.085938 10.859375 L 24.15625 10.714844 L 24.015625 10.796875 Z M 24.085938 10.859375 "/>
<path style=" stroke:none;fill-rule:nonzero;fill:rgb(0%,0%,0%);fill-opacity:1;" d="M 24.136719 11.148438 L 24.488281 10.902344 L 24.613281 11.085938 C 24.636719 11.121094 24.648438 11.148438 24.65625 11.171875 C 24.664062 11.191406 24.660156 11.214844 24.652344 11.234375 C 24.644531 11.257812 24.628906 11.277344 24.609375 11.292969 C 24.589844 11.304688 24.570312 11.3125 24.546875 11.3125 C 24.527344 11.316406 24.507812 11.3125 24.492188 11.304688 C 24.480469 11.296875 24.464844 11.289062 24.449219 11.273438 C 24.457031 11.289062 24.457031 11.304688 24.457031 11.3125 C 24.457031 11.316406 24.453125 11.328125 24.449219 11.34375 C 24.445312 11.355469 24.441406 11.367188 24.4375 11.371094 L 24.375 11.496094 L 24.289062 11.371094 L 24.355469 11.238281 C 24.367188 11.222656 24.371094 11.210938 24.371094 11.199219 C 24.371094 11.1875 24.367188 11.179688 24.359375 11.167969 L 24.351562 11.160156 L 24.210938 11.257812 Z M 24.421875 11.113281 L 24.453125 11.160156 C 24.453125 11.164062 24.464844 11.171875 24.476562 11.183594 C 24.480469 11.191406 24.488281 11.195312 24.5 11.195312 C 24.507812 11.195312 24.515625 11.191406 24.523438 11.1875 C 24.535156 11.179688 24.542969 11.167969 24.542969 11.15625 C 24.542969 11.148438 24.539062 11.132812 24.523438 11.109375 L 24.492188 11.0625 Z M 24.421875 11.113281 "/>
<path style=" stroke:none;fill-rule:nonzero;fill:rgb(0%,0%,0%);fill-opacity:1;" d="M 24.550781 11.757812 L 24.496094 11.617188 L 24.421875 11.625 L 24.375 11.496094 L 24.828125 11.488281 L 24.882812 11.621094 L 24.546875 11.933594 L 24.496094 11.804688 Z M 24.628906 11.695312 L 24.753906 11.59375 L 24.59375 11.609375 Z M 24.628906 11.695312 "/>
<path style=" stroke:none;fill-rule:nonzero;fill:rgb(0%,0%,0%);fill-opacity:1;" d="M 24.738281 12.167969 L 24.828125 12.15625 L 24.855469 12.359375 L 24.675781 12.386719 C 24.644531 12.351562 24.621094 12.320312 24.609375 12.289062 C 24.59375 12.261719 24.582031 12.226562 24.578125 12.1875 C 24.570312 12.136719 24.574219 12.09375 24.585938 12.058594 C 24.597656 12.023438 24.621094 11.996094 24.648438 11.972656 C 24.679688 11.949219 24.71875 11.933594 24.761719 11.929688 C 24.808594 11.921875 24.851562 11.925781 24.886719 11.9375 C 24.925781 11.953125 24.953125 11.976562 24.976562 12.011719 C 24.996094 12.039062 25.007812 12.078125 25.015625 12.125 C 25.023438 12.171875 25.023438 12.207031 25.019531 12.234375 C 25.011719 12.257812 25.003906 12.277344 24.988281 12.296875 C 24.972656 12.316406 24.949219 12.332031 24.925781 12.34375 L 24.882812 12.21875 C 24.898438 12.210938 24.910156 12.199219 24.917969 12.1875 C 24.921875 12.171875 24.925781 12.15625 24.921875 12.136719 C 24.917969 12.109375 24.902344 12.085938 24.882812 12.070312 C 24.859375 12.058594 24.828125 12.054688 24.785156 12.0625 C 24.738281 12.066406 24.707031 12.082031 24.691406 12.101562 C 24.671875 12.121094 24.667969 12.148438 24.671875 12.179688 C 24.671875 12.191406 24.675781 12.207031 24.683594 12.21875 C 24.691406 12.230469 24.699219 12.246094 24.710938 12.261719 L 24.75 12.257812 Z M 24.738281 12.167969 "/>
<path style=" stroke:none;fill-rule:nonzero;fill:rgb(0%,0%,0%);fill-opacity:1;" d="M 25.019531 12.792969 L 25.007812 12.925781 L 24.753906 12.902344 C 24.726562 12.902344 24.703125 12.894531 24.683594 12.886719 C 24.660156 12.875 24.640625 12.859375 24.628906 12.84375 C 24.613281 12.824219 24.601562 12.804688 24.597656 12.785156 C 24.589844 12.761719 24.585938 12.726562 24.589844 12.691406 C 24.59375 12.671875 24.597656 12.648438 24.601562 12.625 C 24.605469 12.601562 24.613281 12.578125 24.625 12.5625 C 24.632812 12.546875 24.648438 12.535156 24.664062 12.523438 C 24.679688 12.507812 24.699219 12.5 24.714844 12.496094 C 24.742188 12.492188 24.769531 12.488281 24.789062 12.492188 L 25.042969 12.515625 L 25.03125 12.648438 L 24.769531 12.625 C 24.746094 12.621094 24.730469 12.625 24.714844 12.636719 C 24.699219 12.648438 24.691406 12.667969 24.691406 12.691406 C 24.6875 12.714844 24.695312 12.730469 24.707031 12.746094 C 24.71875 12.761719 24.734375 12.769531 24.757812 12.769531 Z M 25.019531 12.792969 "/>
<path style=" stroke:none;fill-rule:nonzero;fill:rgb(0%,0%,0%);fill-opacity:1;" d="M 24.546875 13.25 L 24.59375 13.105469 L 24.53125 13.0625 L 24.574219 12.933594 L 24.929688 13.222656 L 24.886719 13.359375 L 24.429688 13.378906 L 24.472656 13.246094 Z M 24.640625 13.253906 L 24.804688 13.253906 L 24.671875 13.164062 Z M 24.640625 13.253906 "/>
<path style=" stroke:none;fill-rule:nonzero;fill:rgb(0%,0%,0%);fill-opacity:1;" d="M 24.796875 13.601562 L 24.71875 13.730469 L 24.550781 13.730469 L 24.632812 13.878906 L 24.554688 14.003906 L 24.429688 13.734375 L 24.277344 13.640625 L 24.34375 13.527344 L 24.496094 13.617188 Z M 24.796875 13.601562 "/>
<path style="fill-rule:nonzero;fill:rgb(0%,60.784314%,22.745098%);fill-opacity:1;stroke-width:0.1;stroke-linecap:butt;stroke-linejoin:miter;stroke:rgb(0%,0%,0%);stroke-opacity:1;stroke-miterlimit:4;" d="M 305.572917 145.303125 C 305.572917 145.303125 321.614583 152.2125 318.854167 166.495312 C 316.041667 180.778125 307.083333 180.726562 303.59375 182.273438 C 300.104167 183.871875 297.65625 186.140625 296.302083 185.83125 C 294.895833 185.470312 293.072917 184.439062 293.072917 184.439062 C 293.072917 184.439062 292.916667 186.759375 295.729167 187.171875 C 298.541667 187.635937 302.239583 183.510937 304.010417 183.046875 C 305.78125 182.582812 316.71875 181.396875 319.375 166.85625 C 322.447917 151.335938 305.677083 145.767188 305.572917 145.303125 Z M 305.572917 145.303125 " transform="matrix(0.075,0,0,0.0757576,0,0)"/>
<path style="fill-rule:nonzero;fill:rgb(0%,60.784314%,22.745098%);fill-opacity:1;stroke-width:0.1;stroke-linecap:butt;stroke-linejoin:miter;stroke:rgb(0%,0%,0%);stroke-opacity:1;stroke-miterlimit:4;" d="M 313.697917 148.345313 C 313.958333 149.53125 313.958333 150.459375 313.697917 150.510937 C 313.385417 150.510937 312.916667 149.582812 312.604167 148.396875 C 312.447917 147.675 312.34375 146.953125 312.395833 146.540625 C 312.5 146.128125 312.65625 146.128125 312.96875 146.489062 C 313.229167 146.85 313.489583 147.571875 313.697917 148.345313 Z M 313.697917 148.345313 " transform="matrix(0.075,0,0,0.0757576,0,0)"/>
<path style="fill-rule:nonzero;fill:rgb(0%,60.784314%,22.745098%);fill-opacity:1;stroke-width:0.1;stroke-linecap:butt;stroke-linejoin:miter;stroke:rgb(0%,0%,0%);stroke-opacity:1;stroke-miterlimit:4;" d="M 313.125 148.5 C 313.489583 149.221875 313.75 149.94375 313.75 150.35625 C 313.802083 150.76875 313.59375 150.820312 313.28125 150.510937 C 312.96875 150.201562 312.552083 149.582812 312.1875 148.860938 C 311.614583 147.726562 311.40625 146.746875 311.666667 146.64375 C 311.927083 146.540625 312.552083 147.365625 313.125 148.5 Z M 313.125 148.5 " transform="matrix(0.075,0,0,0.0757576,0,0)"/>
<path style="fill-rule:nonzero;fill:rgb(0%,60.784314%,22.745098%);fill-opacity:1;stroke-width:0.1;stroke-linecap:butt;stroke-linejoin:miter;stroke:rgb(0%,0%,0%);stroke-opacity:1;stroke-miterlimit:4;" d="M 311.510417 149.53125 C 312.65625 149.892188 313.541667 150.407813 313.489583 150.717187 C 313.489583 150.975 312.552083 150.975 311.40625 150.614062 C 310.3125 150.304688 309.375 149.789062 309.427083 149.479687 C 309.427083 149.221875 310.364583 149.221875 311.510417 149.53125 Z M 311.510417 149.53125 " transform="matrix(0.075,0,0,0.0757576,0,0)"/>
<path style="fill-rule:nonzero;fill:rgb(0%,60.784314%,22.745098%);fill-opacity:1;stroke-width:0.1;stroke-linecap:butt;stroke-linejoin:miter;stroke:rgb(0%,0%,0%);stroke-opacity:1;stroke-miterlimit:4;" d="M 311.770833 148.964062 C 312.447917 149.428125 313.020833 149.892188 313.28125 150.304688 C 313.541667 150.665625 313.4375 150.820312 313.072917 150.76875 C 312.65625 150.665625 311.979167 150.304688 311.302083 149.892188 C 310.625 149.428125 310.052083 148.9125 309.791667 148.551562 C 309.53125 148.190625 309.583333 147.984375 310 148.0875 C 310.416667 148.190625 311.09375 148.5 311.770833 148.964062 Z M 311.770833 148.964062 " transform="matrix(0.075,0,0,0.0757576,0,0)"/>
<path style="fill-rule:nonzero;fill:rgb(0%,60.784314%,22.745098%);fill-opacity:1;stroke-width:0.1;stroke-linecap:butt;stroke-linejoin:miter;stroke:rgb(0%,0%,0%);stroke-opacity:1;stroke-miterlimit:4;" d="M 312.447917 148.654687 C 313.020833 149.273438 313.489583 149.892188 313.645833 150.304688 C 313.854167 150.717187 313.697917 150.820312 313.28125 150.665625 C 312.916667 150.459375 312.291667 149.995312 311.71875 149.376563 C 310.885417 148.5 310.3125 147.571875 310.520833 147.365625 C 310.677083 147.210938 311.5625 147.778125 312.447917 148.654687 Z M 312.447917 148.654687 " transform="matrix(0.075,0,0,0.0757576,0,0)"/>
<path style="fill-rule:nonzero;fill:rgb(0%,60.784314%,22.745098%);fill-opacity:1;stroke-width:0.1;stroke-linecap:butt;stroke-linejoin:miter;stroke:rgb(0%,0%,0%);stroke-opacity:1;stroke-miterlimit:4;" d="M 313.541667 150.717187 C 313.59375 150.717187 312.916667 151.026562 312.8125 151.078125 C 312.65625 151.129687 312.447917 150.923438 312.03125 151.129687 C 311.666667 151.335938 311.354167 151.696875 311.25 151.954688 C 311.197917 152.160937 311.40625 152.264062 311.875 152.00625 C 312.395833 151.8 312.5 151.3875 312.760417 151.232812 C 312.96875 151.078125 313.385417 150.871875 313.59375 150.820312 C 313.697917 150.5625 314.010417 150.098437 314.21875 149.840625 C 314.375 149.582812 315 149.170312 315.260417 148.654687 C 315.46875 148.242188 315.364583 147.88125 315.104167 148.035937 C 314.84375 148.139062 314.479167 148.603125 314.322917 148.9125 C 314.114583 149.170312 314.270833 149.582812 314.114583 149.840625 C 313.958333 150.046875 313.59375 150.717187 313.541667 150.717187 Z M 313.541667 150.717187 " transform="matrix(0.075,0,0,0.0757576,0,0)"/>
<path style="fill-rule:nonzero;fill:rgb(0%,60.784314%,22.745098%);fill-opacity:1;stroke-width:0.1;stroke-linecap:butt;stroke-linejoin:miter;stroke:rgb(0%,0%,0%);stroke-opacity:1;stroke-miterlimit:4;" d="M 318.541667 152.315625 C 318.541667 154.171875 318.229167 155.564063 317.8125 155.460938 C 317.395833 155.357812 317.083333 153.810937 317.03125 152.00625 C 317.03125 150.15 317.34375 148.757812 317.760417 148.860938 C 318.125 148.964062 318.489583 150.510937 318.541667 152.315625 Z M 318.541667 152.315625 " transform="matrix(0.075,0,0,0.0757576,0,0)"/>
<path style="fill-rule:nonzero;fill:rgb(0%,60.784314%,22.745098%);fill-opacity:1;stroke-width:0.1;stroke-linecap:butt;stroke-linejoin:miter;stroke:rgb(0%,0%,0%);stroke-opacity:1;stroke-miterlimit:4;" d="M 317.708333 152.315625 C 317.96875 153.501563 318.072917 154.635937 317.96875 155.254687 C 317.864583 155.873437 317.604167 155.873437 317.239583 155.30625 C 316.875 154.6875 316.510417 153.604687 316.25 152.367188 C 315.989583 151.18125 315.885417 150.046875 315.989583 149.428125 C 316.09375 148.809375 316.354167 148.809375 316.71875 149.428125 C 317.083333 149.995312 317.447917 151.129687 317.708333 152.315625 Z M 317.708333 152.315625 " transform="matrix(0.075,0,0,0.0757576,0,0)"/>
<path style="fill-rule:nonzero;fill:rgb(0%,60.784314%,22.745098%);fill-opacity:1;stroke-width:0.1;stroke-linecap:butt;stroke-linejoin:miter;stroke:rgb(0%,0%,0%);stroke-opacity:1;stroke-miterlimit:4;" d="M 315.104167 153.089062 C 316.09375 153.759375 316.927083 154.48125 317.34375 155.048438 C 317.708333 155.615625 317.604167 155.873437 317.083333 155.821875 C 316.510417 155.71875 315.572917 155.254687 314.635417 154.635937 C 313.697917 153.965625 312.864583 153.24375 312.447917 152.676562 C 312.03125 152.109375 312.135417 151.851562 312.708333 151.903125 C 313.229167 152.00625 314.166667 152.470313 315.104167 153.089062 Z M 315.104167 153.089062 " transform="matrix(0.075,0,0,0.0757576,0,0)"/>
<path style="fill-rule:nonzero;fill:rgb(0%,60.784314%,22.745098%);fill-opacity:1;stroke-width:0.1;stroke-linecap:butt;stroke-linejoin:miter;stroke:rgb(0%,0%,0%);stroke-opacity:1;stroke-miterlimit:4;" d="M 315.625 152.367188 C 316.822917 153.810937 317.604167 155.254687 317.34375 155.564063 C 317.083333 155.873437 315.885417 154.945312 314.6875 153.501563 C 313.90625 152.521875 313.28125 151.542187 313.020833 150.923438 C 312.8125 150.253125 312.96875 150.046875 313.489583 150.35625 C 314.0625 150.665625 314.84375 151.439063 315.625 152.367188 Z M 315.625 152.367188 " transform="matrix(0.075,0,0,0.0757576,0,0)"/>
<path style="fill-rule:nonzero;fill:rgb(0%,60.784314%,22.745098%);fill-opacity:1;stroke-width:0.1;stroke-linecap:butt;stroke-linejoin:miter;stroke:rgb(0%,0%,0%);stroke-opacity:1;stroke-miterlimit:4;" d="M 316.666667 152.264062 C 317.291667 153.398438 317.708333 154.48125 317.8125 155.151562 C 317.916667 155.821875 317.708333 155.925 317.239583 155.5125 C 316.71875 155.048438 316.09375 154.120312 315.46875 152.985938 C 314.895833 151.903125 314.479167 150.820312 314.322917 150.15 C 314.21875 149.479687 314.479167 149.325 314.947917 149.789062 C 315.416667 150.201562 316.09375 151.18125 316.666667 152.264062 Z M 316.666667 152.264062 " transform="matrix(0.075,0,0,0.0757576,0,0)"/>
<path style="fill-rule:nonzero;fill:rgb(0%,60.784314%,22.745098%);fill-opacity:1;stroke-width:0.1;stroke-linecap:butt;stroke-linejoin:miter;stroke:rgb(0%,0%,0%);stroke-opacity:1;stroke-miterlimit:4;" d="M 317.552083 155.667187 C 317.604167 155.667187 316.614583 155.873437 316.40625 155.925 C 316.145833 155.925 315.989583 155.460938 315.364583 155.615625 C 314.6875 155.71875 314.21875 156.13125 314.010417 156.440625 C 313.802083 156.698437 314.0625 156.904687 314.791667 156.801562 C 315.572917 156.698437 315.885417 156.182812 316.25 156.079688 C 316.666667 155.976562 317.291667 155.821875 317.604167 155.821875 C 317.8125 155.564063 318.4375 155.048438 318.75 154.739062 C 319.0625 154.429688 320.104167 154.120312 320.572917 153.501563 C 321.041667 152.985938 321.041667 152.41875 320.572917 152.521875 C 320.15625 152.625 319.53125 153.0375 319.21875 153.398438 C 318.854167 153.759375 318.958333 154.378125 318.59375 154.739062 C 318.333333 154.945312 317.604167 155.667187 317.552083 155.667187 Z M 317.552083 155.667187 " transform="matrix(0.075,0,0,0.0757576,0,0)"/>
<path style="fill-rule:nonzero;fill:rgb(0%,60.784314%,22.745098%);fill-opacity:1;stroke-width:0.1;stroke-linecap:butt;stroke-linejoin:miter;stroke:rgb(0%,0%,0%);stroke-opacity:1;stroke-miterlimit:4;" d="M 321.145833 159.01875 C 320.9375 160.153125 320.625 161.184375 320.3125 161.648438 C 320 162.164062 319.739583 162.060937 319.635417 161.339062 C 319.479167 160.66875 319.53125 159.534375 319.739583 158.348437 C 319.947917 157.214062 320.260417 156.182812 320.572917 155.667187 C 320.885417 155.203125 321.145833 155.30625 321.25 156.028125 C 321.40625 156.698437 321.354167 157.832812 321.145833 159.01875 Z M 321.145833 159.01875 " transform="matrix(0.075,0,0,0.0757576,0,0)"/>
<path style="fill-rule:nonzero;fill:rgb(0%,60.784314%,22.745098%);fill-opacity:1;stroke-width:0.1;stroke-linecap:butt;stroke-linejoin:miter;stroke:rgb(0%,0%,0%);stroke-opacity:1;stroke-miterlimit:4;" d="M 320.364583 158.8125 C 320.364583 160.05 320.260417 161.184375 320.104167 161.751562 C 319.895833 162.370312 319.583333 162.31875 319.375 161.648438 C 319.114583 161.029687 318.958333 159.84375 318.90625 158.60625 C 318.90625 157.36875 319.010417 156.234375 319.21875 155.615625 C 319.375 155.048438 319.6875 155.1 319.895833 155.71875 C 320.15625 156.389062 320.3125 157.575 320.364583 158.8125 Z M 320.364583 158.8125 " transform="matrix(0.075,0,0,0.0757576,0,0)"/>
<path style="fill-rule:nonzero;fill:rgb(0%,60.784314%,22.745098%);fill-opacity:1;stroke-width:0.1;stroke-linecap:butt;stroke-linejoin:miter;stroke:rgb(0%,0%,0%);stroke-opacity:1;stroke-miterlimit:4;" d="M 317.708333 159.121875 C 318.958333 160.359375 319.791667 161.7 319.583333 162.060937 C 319.375 162.473437 318.177083 161.751562 316.927083 160.514062 C 315.677083 159.225 314.84375 157.884375 315.052083 157.523438 C 315.260417 157.1625 316.458333 157.832812 317.708333 159.121875 Z M 317.708333 159.121875 " transform="matrix(0.075,0,0,0.0757576,0,0)"/>
<path style="fill-rule:nonzero;fill:rgb(0%,60.784314%,22.745098%);fill-opacity:1;stroke-width:0.1;stroke-linecap:butt;stroke-linejoin:miter;stroke:rgb(0%,0%,0%);stroke-opacity:1;stroke-miterlimit:4;" d="M 318.333333 158.503125 C 319.270833 160.153125 319.739583 161.7 319.427083 161.957812 C 319.114583 162.215625 318.125 161.08125 317.1875 159.379687 C 316.302083 157.729687 315.78125 156.13125 316.09375 155.925 C 316.40625 155.667187 317.395833 156.801562 318.333333 158.503125 Z M 318.333333 158.503125 " transform="matrix(0.075,0,0,0.0757576,0,0)"/>
<path style="fill-rule:nonzero;fill:rgb(0%,60.784314%,22.745098%);fill-opacity:1;stroke-width:0.1;stroke-linecap:butt;stroke-linejoin:miter;stroke:rgb(0%,0%,0%);stroke-opacity:1;stroke-miterlimit:4;" d="M 319.375 158.554688 C 319.739583 159.792187 319.947917 160.978125 319.947917 161.648438 C 319.947917 162.31875 319.6875 162.421875 319.322917 161.854687 C 318.90625 161.339062 318.4375 160.25625 318.020833 159.070312 C 317.65625 157.832812 317.447917 156.698437 317.447917 155.976562 C 317.447917 155.30625 317.708333 155.203125 318.072917 155.770312 C 318.489583 156.285937 318.958333 157.36875 319.375 158.554688 Z M 319.375 158.554688 " transform="matrix(0.075,0,0,0.0757576,0,0)"/>
<path style="fill-rule:nonzero;fill:rgb(0%,60.784314%,22.745098%);fill-opacity:1;stroke-width:0.1;stroke-linecap:butt;stroke-linejoin:miter;stroke:rgb(0%,0%,0%);stroke-opacity:1;stroke-miterlimit:4;" d="M 319.635417 162.1125 C 319.635417 162.1125 318.59375 162.1125 318.385417 162.1125 C 318.177083 162.060937 318.072917 161.596875 317.447917 161.596875 C 316.822917 161.596875 316.25 161.90625 315.989583 162.164062 C 315.729167 162.370312 315.9375 162.679688 316.71875 162.679688 C 317.5 162.73125 317.864583 162.267187 318.28125 162.267187 C 318.645833 162.215625 319.270833 162.215625 319.635417 162.267187 C 319.895833 162.060937 320.572917 161.648438 320.9375 161.390625 C 321.302083 161.184375 322.34375 161.029687 322.96875 160.514062 C 323.489583 160.101562 323.59375 159.534375 323.125 159.534375 C 322.708333 159.585938 321.979167 159.895312 321.614583 160.153125 C 321.197917 160.4625 321.197917 161.08125 320.78125 161.339062 C 320.46875 161.49375 319.635417 162.1125 319.635417 162.1125 " transform="matrix(0.075,0,0,0.0757576,0,0)"/>
<path style="fill-rule:nonzero;fill:rgb(0%,60.784314%,22.745098%);fill-opacity:1;stroke-width:0.1;stroke-linecap:butt;stroke-linejoin:miter;stroke:rgb(0%,0%,0%);stroke-opacity:1;stroke-miterlimit:4;" d="M 321.354167 166.44375 C 320.364583 167.990625 319.322917 168.970312 319.0625 168.660937 C 318.802083 168.3 319.375 166.804688 320.3125 165.257812 C 321.302083 163.710938 322.34375 162.73125 322.604167 163.040625 C 322.864583 163.35 322.291667 164.896875 321.354167 166.44375 " transform="matrix(0.075,0,0,0.0757576,0,0)"/>
<path style="fill-rule:nonzero;fill:rgb(0%,60.784314%,22.745098%);fill-opacity:1;stroke-width:0.1;stroke-linecap:butt;stroke-linejoin:miter;stroke:rgb(0%,0%,0%);stroke-opacity:1;stroke-miterlimit:4;" d="M 320.677083 165.928125 C 320 167.68125 319.166667 168.970312 318.854167 168.764062 C 318.489583 168.557812 318.802083 166.907812 319.479167 165.154687 C 320.15625 163.35 320.989583 162.060937 321.354167 162.267187 C 321.666667 162.473437 321.40625 164.123437 320.677083 165.928125 " transform="matrix(0.075,0,0,0.0757576,0,0)"/>
<path style="fill-rule:nonzero;fill:rgb(0%,60.784314%,22.745098%);fill-opacity:1;stroke-width:0.1;stroke-linecap:butt;stroke-linejoin:miter;stroke:rgb(0%,0%,0%);stroke-opacity:1;stroke-miterlimit:4;" d="M 318.177083 165.103125 C 318.802083 166.753125 319.0625 168.351562 318.75 168.609375 C 318.385417 168.91875 317.604167 167.732812 316.927083 166.082812 C 316.302083 164.38125 316.041667 162.782812 316.40625 162.525 C 316.71875 162.267187 317.5 163.401562 318.177083 165.103125 " transform="matrix(0.075,0,0,0.0757576,0,0)"/>
<path style="fill-rule:nonzero;fill:rgb(0%,60.784314%,22.745098%);fill-opacity:1;stroke-width:0.1;stroke-linecap:butt;stroke-linejoin:miter;stroke:rgb(0%,0%,0%);stroke-opacity:1;stroke-miterlimit:4;" d="M 319.010417 164.79375 C 319.166667 166.701562 319.010417 168.351562 318.645833 168.454687 C 318.229167 168.557812 317.8125 167.0625 317.604167 165.154687 C 317.5 163.917187 317.552083 162.73125 317.65625 162.009375 C 317.8125 161.339062 318.072917 161.2875 318.385417 161.854687 C 318.645833 162.421875 318.854167 163.504687 319.010417 164.79375 " transform="matrix(0.075,0,0,0.0757576,0,0)"/>
<path style="fill-rule:nonzero;fill:rgb(0%,60.784314%,22.745098%);fill-opacity:1;stroke-width:0.1;stroke-linecap:butt;stroke-linejoin:miter;stroke:rgb(0%,0%,0%);stroke-opacity:1;stroke-miterlimit:4;" d="M 319.895833 165.309375 C 319.6875 167.26875 319.21875 168.815625 318.854167 168.815625 C 318.489583 168.764062 318.333333 167.165625 318.489583 165.20625 C 318.697917 163.246875 319.166667 161.648438 319.53125 161.7 C 319.895833 161.7 320.052083 163.35 319.895833 165.309375 " transform="matrix(0.075,0,0,0.0757576,0,0)"/>
<path style="fill-rule:nonzero;fill:rgb(0%,60.784314%,22.745098%);fill-opacity:1;stroke-width:0.1;stroke-linecap:butt;stroke-linejoin:miter;stroke:rgb(0%,0%,0%);stroke-opacity:1;stroke-miterlimit:4;" d="M 318.75 168.660937 C 318.75 168.660937 317.864583 168.3 317.65625 168.145312 C 317.5 168.042187 317.552083 167.578125 316.979167 167.320312 C 316.40625 167.010937 315.78125 167.0625 315.416667 167.217187 C 315.104167 167.320312 315.208333 167.68125 315.885417 167.990625 C 316.5625 168.351562 317.083333 168.145312 317.447917 168.248437 C 317.8125 168.403125 318.4375 168.609375 318.697917 168.815625 C 319.010417 168.7125 319.791667 168.609375 320.208333 168.557812 C 320.625 168.50625 321.666667 168.815625 322.395833 168.557812 C 323.020833 168.403125 323.333333 167.939062 322.916667 167.784375 C 322.552083 167.578125 321.770833 167.578125 321.302083 167.732812 C 320.833333 167.835938 320.572917 168.403125 320.104167 168.454687 C 319.739583 168.50625 318.802083 168.7125 318.75 168.660937 " transform="matrix(0.075,0,0,0.0757576,0,0)"/>
<path style="fill-rule:nonzero;fill:rgb(0%,60.784314%,22.745098%);fill-opacity:1;stroke-width:0.1;stroke-linecap:butt;stroke-linejoin:miter;stroke:rgb(0%,0%,0%);stroke-opacity:1;stroke-miterlimit:4;" d="M 319.322917 173.971875 C 317.760417 175.3125 316.302083 176.034375 316.09375 175.570312 C 315.885417 175.10625 317.03125 173.6625 318.59375 172.270312 C 320.208333 170.929688 321.614583 170.207812 321.822917 170.671875 C 322.03125 171.135937 320.9375 172.579687 319.322917 173.971875 " transform="matrix(0.075,0,0,0.0757576,0,0)"/>
<path style="fill-rule:nonzero;fill:rgb(0%,60.784314%,22.745098%);fill-opacity:1;stroke-width:0.1;stroke-linecap:butt;stroke-linejoin:miter;stroke:rgb(0%,0%,0%);stroke-opacity:1;stroke-miterlimit:4;" d="M 318.802083 173.146875 C 317.447917 174.9 316.09375 175.982812 315.78125 175.621875 C 315.520833 175.3125 316.354167 173.610937 317.708333 171.857812 C 319.0625 170.15625 320.416667 169.021875 320.729167 169.382812 C 320.989583 169.74375 320.15625 171.445312 318.802083 173.146875 " transform="matrix(0.075,0,0,0.0757576,0,0)"/>
<path style="fill-rule:nonzero;fill:rgb(0%,60.784314%,22.745098%);fill-opacity:1;stroke-width:0.1;stroke-linecap:butt;stroke-linejoin:miter;stroke:rgb(0%,0%,0%);stroke-opacity:1;stroke-miterlimit:4;" d="M 316.302083 171.342187 C 316.40625 172.682812 316.354167 174.023438 316.145833 174.796875 C 315.9375 175.570312 315.572917 175.673437 315.260417 175.10625 C 314.947917 174.539062 314.739583 173.353125 314.635417 171.960938 C 314.53125 170.620312 314.583333 169.279687 314.791667 168.50625 C 315 167.732812 315.3125 167.629687 315.625 168.196875 C 315.9375 168.764062 316.197917 170.001562 316.302083 171.342187 " transform="matrix(0.075,0,0,0.0757576,0,0)"/>
<path style="fill-rule:nonzero;fill:rgb(0%,60.784314%,22.745098%);fill-opacity:1;stroke-width:0.1;stroke-linecap:butt;stroke-linejoin:miter;stroke:rgb(0%,0%,0%);stroke-opacity:1;stroke-miterlimit:4;" d="M 317.291667 171.290625 C 316.875 173.45625 316.145833 175.209375 315.677083 175.209375 C 315.260417 175.209375 315.208333 173.404687 315.677083 171.239062 C 315.9375 169.795312 316.354167 168.50625 316.770833 167.784375 C 317.135417 167.0625 317.447917 167.114062 317.552083 167.835938 C 317.65625 168.557812 317.552083 169.846875 317.291667 171.290625 " transform="matrix(0.075,0,0,0.0757576,0,0)"/>
<path style="fill-rule:nonzero;fill:rgb(0%,60.784314%,22.745098%);fill-opacity:1;stroke-width:0.1;stroke-linecap:butt;stroke-linejoin:miter;stroke:rgb(0%,0%,0%);stroke-opacity:1;stroke-miterlimit:4;" d="M 318.125 172.167187 C 317.552083 173.559375 316.875 174.745312 316.40625 175.364062 C 315.885417 175.93125 315.572917 175.828125 315.625 175.054688 C 315.677083 174.28125 316.09375 172.940625 316.614583 171.548437 C 317.1875 170.207812 317.8125 169.021875 318.333333 168.403125 C 318.854167 167.835938 319.114583 167.939062 319.0625 168.7125 C 319.010417 169.485937 318.645833 170.826562 318.125 172.167187 " transform="matrix(0.075,0,0,0.0757576,0,0)"/>
<path style="fill-rule:nonzero;fill:rgb(0%,60.784314%,22.745098%);fill-opacity:1;stroke-width:0.1;stroke-linecap:butt;stroke-linejoin:miter;stroke:rgb(0%,0%,0%);stroke-opacity:1;stroke-miterlimit:4;" d="M 315.729167 175.467187 C 315.729167 175.51875 314.895833 174.745312 314.739583 174.539062 C 314.53125 174.332812 314.791667 173.86875 314.270833 173.353125 C 313.697917 172.8375 312.96875 172.682812 312.604167 172.682812 C 312.1875 172.734375 312.1875 173.095312 312.8125 173.765625 C 313.489583 174.384375 314.114583 174.28125 314.479167 174.590625 C 314.84375 174.848437 315.364583 175.364062 315.625 175.673437 C 315.989583 175.673437 316.875 175.828125 317.395833 175.879687 C 317.864583 175.982812 318.90625 176.704687 319.791667 176.704687 C 320.520833 176.75625 321.041667 176.34375 320.625 176.034375 C 320.260417 175.673437 319.427083 175.415625 318.854167 175.364062 C 318.333333 175.3125 317.8125 175.828125 317.291667 175.725 C 316.927083 175.673437 315.78125 175.570312 315.729167 175.467187 " transform="matrix(0.075,0,0,0.0757576,0,0)"/>
<path style="fill-rule:nonzero;fill:rgb(0%,60.784314%,22.745098%);fill-opacity:1;stroke-width:0.1;stroke-linecap:butt;stroke-linejoin:miter;stroke:rgb(0%,0%,0%);stroke-opacity:1;stroke-miterlimit:4;" d="M 314.166667 180.520312 C 312.708333 180.778125 311.354167 180.829687 310.625 180.623437 C 309.947917 180.46875 309.947917 180.05625 310.729167 179.64375 C 311.510417 179.179688 312.916667 178.767187 314.375 178.560937 C 315.833333 178.303125 317.1875 178.251562 317.916667 178.457812 C 318.59375 178.6125 318.541667 179.025 317.8125 179.4375 C 317.03125 179.901562 315.625 180.314062 314.166667 180.520312 " transform="matrix(0.075,0,0,0.0757576,0,0)"/>
<path style="fill-rule:nonzero;fill:rgb(0%,60.784314%,22.745098%);fill-opacity:1;stroke-width:0.1;stroke-linecap:butt;stroke-linejoin:miter;stroke:rgb(0%,0%,0%);stroke-opacity:1;stroke-miterlimit:4;" d="M 314.114583 179.489062 C 311.822917 180.314062 309.947917 180.623437 309.84375 180.107812 C 309.739583 179.592187 311.510417 178.457812 313.75 177.632812 C 315.989583 176.75625 317.916667 176.446875 318.020833 176.9625 C 318.072917 177.478125 316.354167 178.6125 314.114583 179.489062 " transform="matrix(0.075,0,0,0.0757576,0,0)"/>
<path style="fill-rule:nonzero;fill:rgb(0%,60.784314%,22.745098%);fill-opacity:1;stroke-width:0.1;stroke-linecap:butt;stroke-linejoin:miter;stroke:rgb(0%,0%,0%);stroke-opacity:1;stroke-miterlimit:4;" d="M 312.65625 176.292187 C 311.666667 178.354687 310.416667 180.004687 309.895833 179.901562 C 309.322917 179.798437 309.6875 177.99375 310.677083 175.93125 C 311.666667 173.86875 312.916667 172.21875 313.489583 172.321875 C 314.010417 172.425 313.645833 174.229687 312.65625 176.292187 " transform="matrix(0.075,0,0,0.0757576,0,0)"/>
<path style="fill-rule:nonzero;fill:rgb(0%,60.784314%,22.745098%);fill-opacity:1;stroke-width:0.1;stroke-linecap:butt;stroke-linejoin:miter;stroke:rgb(0%,0%,0%);stroke-opacity:1;stroke-miterlimit:4;" d="M 313.645833 176.807812 C 312.03125 178.664062 310.364583 179.901562 309.947917 179.64375 C 309.53125 179.385937 310.520833 177.632812 312.135417 175.828125 C 313.75 173.971875 315.416667 172.734375 315.833333 172.992188 C 316.25 173.301562 315.260417 175.003125 313.645833 176.807812 " transform="matrix(0.075,0,0,0.0757576,0,0)"/>
<path style="fill-rule:nonzero;fill:rgb(0%,60.784314%,22.745098%);fill-opacity:1;stroke-width:0.1;stroke-linecap:butt;stroke-linejoin:miter;stroke:rgb(0%,0%,0%);stroke-opacity:1;stroke-miterlimit:4;" d="M 313.958333 178.148438 C 312.65625 179.128125 311.40625 179.901562 310.572917 180.159375 C 309.791667 180.417187 309.583333 180.159375 310.052083 179.4375 C 310.520833 178.715625 311.5625 177.684375 312.864583 176.704687 C 314.84375 175.209375 316.666667 174.332812 316.979167 174.69375 C 317.291667 175.10625 315.9375 176.653125 313.958333 178.148438 " transform="matrix(0.075,0,0,0.0757576,0,0)"/>
<path style="fill-rule:nonzero;fill:rgb(0%,60.784314%,22.745098%);fill-opacity:1;stroke-width:0.1;stroke-linecap:butt;stroke-linejoin:miter;stroke:rgb(0%,0%,0%);stroke-opacity:1;stroke-miterlimit:4;" d="M 309.895833 179.953125 C 309.84375 179.953125 309.427083 178.715625 309.375 178.457812 C 309.322917 178.148438 309.84375 177.839062 309.583333 177.014062 C 309.322917 176.240625 308.75 175.621875 308.333333 175.415625 C 307.96875 175.260937 307.708333 175.621875 308.020833 176.55 C 308.28125 177.529687 308.958333 177.839062 309.114583 178.303125 C 309.322917 178.767187 309.583333 179.592187 309.6875 180.004687 C 310.052083 180.210938 310.78125 180.932812 311.197917 181.242188 C 311.666667 181.603125 312.239583 182.892187 313.072917 183.459375 C 313.802083 183.871875 314.479167 183.820312 314.322917 183.253125 C 314.114583 182.7375 313.4375 181.964062 312.96875 181.603125 C 312.447917 181.242188 311.666667 181.448437 311.25 181.0875 C 310.885417 180.778125 309.84375 180.004687 309.895833 179.953125 " transform="matrix(0.075,0,0,0.0757576,0,0)"/>
<path style="fill-rule:nonzero;fill:rgb(0%,60.784314%,22.745098%);fill-opacity:1;stroke-width:0.1;stroke-linecap:butt;stroke-linejoin:miter;stroke:rgb(0%,0%,0%);stroke-opacity:1;stroke-miterlimit:4;" d="M 307.395833 184.232812 C 305.104167 184.284375 303.229167 183.76875 303.229167 183.098437 C 303.229167 182.428125 305.104167 181.860937 307.395833 181.809375 C 309.739583 181.809375 311.5625 182.325 311.5625 182.94375 C 311.5625 183.614062 309.739583 184.18125 307.395833 184.232812 " transform="matrix(0.075,0,0,0.0757576,0,0)"/>
<path style="fill-rule:nonzero;fill:rgb(0%,60.784314%,22.745098%);fill-opacity:1;stroke-width:0.1;stroke-linecap:butt;stroke-linejoin:miter;stroke:rgb(0%,0%,0%);stroke-opacity:1;stroke-miterlimit:4;" d="M 306.822917 180.46875 C 305.364583 182.376562 303.75 183.5625 303.28125 183.15 C 302.760417 182.7375 303.541667 180.829687 305.052083 178.921875 C 306.510417 177.014062 308.125 175.828125 308.59375 176.240625 C 309.114583 176.653125 308.333333 178.560937 306.822917 180.46875 " transform="matrix(0.075,0,0,0.0757576,0,0)"/>
<path style="fill-rule:nonzero;fill:rgb(0%,60.784314%,22.745098%);fill-opacity:1;stroke-width:0.1;stroke-linecap:butt;stroke-linejoin:miter;stroke:rgb(0%,0%,0%);stroke-opacity:1;stroke-miterlimit:4;" d="M 307.447917 182.376562 C 305.260417 183.304688 303.333333 183.5625 303.072917 182.94375 C 302.864583 182.325 304.427083 181.0875 306.5625 180.159375 C 308.75 179.23125 310.677083 178.973437 310.9375 179.592187 C 311.145833 180.210938 309.583333 181.448437 307.447917 182.376562 " transform="matrix(0.075,0,0,0.0757576,0,0)"/>
<path style="fill-rule:nonzero;fill:rgb(0%,60.784314%,22.745098%);fill-opacity:1;stroke-width:0.1;stroke-linecap:butt;stroke-linejoin:miter;stroke:rgb(0%,0%,0%);stroke-opacity:1;stroke-miterlimit:4;" d="M 308.59375 145.664062 C 309.635417 146.64375 310.3125 147.520312 310 147.675 C 309.739583 147.829688 308.645833 147.159375 307.604167 146.179688 C 306.875 145.560937 306.354167 144.942187 306.145833 144.529687 C 305.9375 144.16875 306.145833 144.065625 306.666667 144.271875 C 307.135417 144.529687 307.864583 145.045312 308.59375 145.664062 " transform="matrix(0.075,0,0,0.0757576,0,0)"/>
<path style="fill-rule:nonzero;fill:rgb(0%,60.784314%,22.745098%);fill-opacity:1;stroke-width:0.1;stroke-linecap:butt;stroke-linejoin:miter;stroke:rgb(0%,0%,0%);stroke-opacity:1;stroke-miterlimit:4;" d="M 307.291667 146.746875 C 308.75 146.953125 309.947917 147.314063 310 147.623437 C 310.052083 147.932812 308.958333 148.035937 307.5 147.829688 C 306.041667 147.675 304.84375 147.2625 304.739583 146.953125 C 304.6875 146.64375 305.833333 146.540625 307.291667 146.746875 " transform="matrix(0.075,0,0,0.0757576,0,0)"/>
<path style="fill-rule:nonzero;fill:rgb(0%,60.784314%,22.745098%);fill-opacity:1;stroke-width:0.1;stroke-linecap:butt;stroke-linejoin:miter;stroke:rgb(0%,0%,0%);stroke-opacity:1;stroke-miterlimit:4;" d="M 307.8125 146.076562 C 309.166667 146.746875 310.15625 147.520312 310 147.726562 C 309.895833 147.984375 308.645833 147.623437 307.291667 146.901562 C 305.9375 146.23125 304.947917 145.457812 305.052083 145.251563 C 305.208333 144.99375 306.458333 145.354687 307.8125 146.076562 " transform="matrix(0.075,0,0,0.0757576,0,0)"/>
<path style="fill-rule:nonzero;fill:rgb(0%,60.784314%,22.745098%);fill-opacity:1;stroke-width:0.1;stroke-linecap:butt;stroke-linejoin:miter;stroke:rgb(0%,0%,0%);stroke-opacity:1;stroke-miterlimit:4;" d="M 288.802083 180.107812 C 288.802083 180.107812 292.34375 180.88125 295.416667 182.015625 C 298.489583 183.098437 303.125 186.965625 304.375 187.171875 C 305.833333 187.223437 307.760417 186.759375 308.489583 184.748437 C 306.354167 185.315625 305.052083 186.192187 302.96875 185.057812 C 302.239583 184.748437 299.84375 182.582812 297.1875 181.396875 C 294.583333 180.2625 289.270833 178.921875 289.270833 178.921875 L 288.802083 180.107812 " transform="matrix(0.075,0,0,0.0757576,0,0)"/>
<path style="fill-rule:nonzero;fill:rgb(0%,60.784314%,22.745098%);fill-opacity:1;stroke-width:0.1;stroke-linecap:butt;stroke-linejoin:miter;stroke:rgb(0%,0%,0%);stroke-opacity:1;stroke-miterlimit:4;" d="M 292.552083 148.139062 C 292.552083 148.139062 296.614583 146.025 296.614583 146.025 L 292.135417 147.159375 L 291.614583 147.932812 L 292.552083 148.139062 " transform="matrix(0.075,0,0,0.0757576,0,0)"/>
<path style="fill-rule:nonzero;fill:rgb(0%,60.784314%,22.745098%);fill-opacity:1;stroke-width:0.1;stroke-linecap:butt;stroke-linejoin:miter;stroke:rgb(0%,0%,0%);stroke-opacity:1;stroke-miterlimit:4;" d="M 296.40625 149.170312 C 294.84375 148.860938 292.395833 148.345313 290.885417 148.190625 C 291.927083 147.004687 293.4375 145.045312 294.322917 143.807812 C 293.697917 144.99375 292.760417 146.540625 292.395833 147.623437 C 293.489583 148.242188 295.208333 148.70625 296.40625 149.170312 " transform="matrix(0.075,0,0,0.0757576,0,0)"/>
<path style="fill-rule:nonzero;fill:rgb(0%,60.784314%,22.745098%);fill-opacity:1;stroke-width:0.1;stroke-linecap:butt;stroke-linejoin:miter;stroke:rgb(0%,0%,0%);stroke-opacity:1;stroke-miterlimit:4;" d="M 291.822917 148.396875 C 291.822917 148.396875 295.46875 145.6125 295.46875 145.6125 L 291.25 147.46875 L 290.885417 148.345313 L 291.822917 148.396875 " transform="matrix(0.075,0,0,0.0757576,0,0)"/>
<path style="fill-rule:nonzero;fill:rgb(0%,60.784314%,22.745098%);fill-opacity:1;stroke-width:0.1;stroke-linecap:butt;stroke-linejoin:miter;stroke:rgb(0%,0%,0%);stroke-opacity:1;stroke-miterlimit:4;" d="M 295.677083 149.11875 C 294.114583 148.809375 291.666667 148.242188 290.104167 148.139062 C 291.145833 146.901562 292.604167 144.839062 293.489583 143.601562 C 292.916667 144.7875 291.979167 146.385937 291.614583 147.520312 C 292.760417 148.139062 294.479167 148.603125 295.677083 149.11875 " transform="matrix(0.075,0,0,0.0757576,0,0)"/>
<path style="fill-rule:nonzero;fill:rgb(0%,60.784314%,22.745098%);fill-opacity:1;stroke-width:0.1;stroke-linecap:butt;stroke-linejoin:miter;stroke:rgb(0%,0%,0%);stroke-opacity:1;stroke-miterlimit:4;" d="M 291.25 148.654687 C 291.197917 148.603125 295.46875 146.85 295.46875 146.85 L 290.885417 147.623437 L 290.3125 148.345313 L 291.25 148.654687 " transform="matrix(0.075,0,0,0.0757576,0,0)"/>
<path style="fill-rule:nonzero;fill:rgb(0%,60.784314%,22.745098%);fill-opacity:1;stroke-width:0.1;stroke-linecap:butt;stroke-linejoin:miter;stroke:rgb(0%,0%,0%);stroke-opacity:1;stroke-miterlimit:4;" d="M 295.208333 149.170312 C 293.59375 149.015625 291.145833 148.70625 289.583333 148.757812 C 290.46875 147.417187 291.666667 145.148438 292.395833 143.75625 C 291.927083 145.045312 291.25 146.798438 291.041667 147.984375 C 292.1875 148.5 293.958333 148.809375 295.208333 149.170312 " transform="matrix(0.075,0,0,0.0757576,0,0)"/>
<path style="fill-rule:nonzero;fill:rgb(0%,60.784314%,22.745098%);fill-opacity:1;stroke-width:0.1;stroke-linecap:butt;stroke-linejoin:miter;stroke:rgb(0%,0%,0%);stroke-opacity:1;stroke-miterlimit:4;" d="M 290.78125 148.654687 C 290.78125 148.654687 293.697917 145.148438 293.697917 145.148438 L 290 147.88125 L 289.84375 148.809375 L 290.78125 148.654687 " transform="matrix(0.075,0,0,0.0757576,0,0)"/>
<path style="fill-rule:nonzero;fill:rgb(0%,60.784314%,22.745098%);fill-opacity:1;stroke-width:0.1;stroke-linecap:butt;stroke-linejoin:miter;stroke:rgb(0%,0%,0%);stroke-opacity:1;stroke-miterlimit:4;" d="M 295.208333 149.376563 C 293.489583 149.325 290.78125 149.170312 289.166667 149.325 C 289.947917 147.829688 290.989583 145.251563 291.614583 143.704688 C 291.302083 145.148438 290.729167 147.05625 290.625 148.396875 C 291.875 148.860938 293.802083 149.067187 295.208333 149.376563 " transform="matrix(0.075,0,0,0.0757576,0,0)"/>
<path style="fill-rule:nonzero;fill:rgb(0%,60.784314%,22.745098%);fill-opacity:1;stroke-width:0.1;stroke-linecap:butt;stroke-linejoin:miter;stroke:rgb(0%,0%,0%);stroke-opacity:1;stroke-miterlimit:4;" d="M 290.208333 149.479687 C 290.208333 149.479687 293.697917 146.128125 293.697917 146.128125 L 289.479167 148.448437 L 289.166667 149.479687 L 290.208333 149.479687 " transform="matrix(0.075,0,0,0.0757576,0,0)"/>
<path style="fill-rule:nonzero;fill:rgb(0%,60.784314%,22.745098%);fill-opacity:1;stroke-width:0.1;stroke-linecap:butt;stroke-linejoin:miter;stroke:rgb(0%,0%,0%);stroke-opacity:1;stroke-miterlimit:4;" d="M 294.427083 149.479687 C 292.552083 149.479687 289.739583 149.376563 287.916667 149.582812 C 289.114583 147.88125 290.729167 145.045312 291.770833 143.34375 C 291.09375 144.942187 290.052083 147.05625 289.6875 148.551562 C 290.989583 149.015625 292.96875 149.170312 294.427083 149.479687 " transform="matrix(0.075,0,0,0.0757576,0,0)"/>
<path style="fill-rule:nonzero;fill:rgb(0%,60.784314%,22.745098%);fill-opacity:1;stroke-width:0.1;stroke-linecap:butt;stroke-linejoin:miter;stroke:rgb(0%,0%,0%);stroke-opacity:1;stroke-miterlimit:4;" d="M 289.010417 149.7375 C 289.010417 149.685937 293.489583 145.973437 293.489583 145.973437 L 288.4375 148.654687 L 287.916667 149.7375 L 289.010417 149.7375 " transform="matrix(0.075,0,0,0.0757576,0,0)"/>
<path style="fill-rule:nonzero;fill:rgb(0%,60.784314%,22.745098%);fill-opacity:1;stroke-width:0.1;stroke-linecap:butt;stroke-linejoin:miter;stroke:rgb(0%,0%,0%);stroke-opacity:1;stroke-miterlimit:4;" d="M 293.75 149.582812 C 291.927083 149.840625 289.0625 150.15 287.34375 150.614062 C 288.28125 148.757812 289.479167 145.81875 290.208333 143.9625 C 289.791667 145.6125 289.114583 147.829688 288.90625 149.325 C 290.260417 149.634375 292.291667 149.479687 293.75 149.582812 " transform="matrix(0.075,0,0,0.0757576,0,0)"/>
<path style="fill-rule:nonzero;fill:rgb(0%,60.784314%,22.745098%);fill-opacity:1;stroke-width:0.1;stroke-linecap:butt;stroke-linejoin:miter;stroke:rgb(0%,0%,0%);stroke-opacity:1;stroke-miterlimit:4;" d="M 288.4375 150.510937 C 288.385417 150.459375 291.875 145.715625 291.875 145.715625 L 287.552083 149.582812 L 287.34375 150.820312 L 288.4375 150.510937 " transform="matrix(0.075,0,0,0.0757576,0,0)"/>
<path style="fill-rule:nonzero;fill:rgb(0%,60.784314%,22.745098%);fill-opacity:1;stroke-width:0.1;stroke-linecap:butt;stroke-linejoin:miter;stroke:rgb(0%,0%,0%);stroke-opacity:1;stroke-miterlimit:4;" d="M 292.760417 150.15 C 290.885417 150.35625 288.072917 150.510937 286.25 150.871875 C 287.291667 149.067187 288.697917 146.179688 289.53125 144.375 C 289.010417 145.973437 288.177083 148.190625 287.916667 149.634375 C 289.270833 149.995312 291.302083 149.995312 292.760417 150.15 " transform="matrix(0.075,0,0,0.0757576,0,0)"/>
<path style="fill-rule:nonzero;fill:rgb(0%,60.784314%,22.745098%);fill-opacity:1;stroke-width:0.1;stroke-linecap:butt;stroke-linejoin:miter;stroke:rgb(0%,0%,0%);stroke-opacity:1;stroke-miterlimit:4;" d="M 287.8125 150.975 C 287.8125 150.975 292.1875 147.210938 292.1875 147.210938 L 287.239583 149.892188 L 286.71875 150.975 L 287.8125 150.975 " transform="matrix(0.075,0,0,0.0757576,0,0)"/>
<path style="fill-rule:nonzero;fill:rgb(0%,60.784314%,22.745098%);fill-opacity:1;stroke-width:0.1;stroke-linecap:butt;stroke-linejoin:miter;stroke:rgb(0%,0%,0%);stroke-opacity:1;stroke-miterlimit:4;" d="M 292.1875 150.35625 C 290.364583 150.76875 287.5 151.232812 285.78125 151.8 C 286.614583 149.94375 287.708333 146.901562 288.385417 145.045312 C 288.020833 146.695312 287.395833 148.964062 287.291667 150.407813 C 288.697917 150.614062 290.729167 150.35625 292.1875 150.35625 " transform="matrix(0.075,0,0,0.0757576,0,0)"/>
<path style="fill-rule:nonzero;fill:rgb(0%,60.784314%,22.745098%);fill-opacity:1;stroke-width:0.1;stroke-linecap:butt;stroke-linejoin:miter;stroke:rgb(0%,0%,0%);stroke-opacity:1;stroke-miterlimit:4;" d="M 287.083333 151.18125 C 287.03125 151.18125 289.895833 145.973437 289.895833 145.973437 L 286.09375 150.510937 L 286.041667 151.696875 L 287.083333 151.18125 " transform="matrix(0.075,0,0,0.0757576,0,0)"/>
<path style="fill-rule:nonzero;fill:rgb(0%,60.784314%,22.745098%);fill-opacity:1;stroke-width:0.1;stroke-linecap:butt;stroke-linejoin:miter;stroke:rgb(0%,0%,0%);stroke-opacity:1;stroke-miterlimit:4;" d="M 292.1875 150.665625 C 290.208333 151.18125 287.135417 151.851562 285.3125 152.573437 C 285.989583 150.407813 286.822917 147.004687 287.34375 144.890625 C 287.1875 146.746875 286.770833 149.273438 286.822917 150.923438 C 288.385417 151.078125 290.572917 150.717187 292.1875 150.665625 " transform="matrix(0.075,0,0,0.0757576,0,0)"/>
<path style="fill-rule:nonzero;fill:rgb(0%,60.784314%,22.745098%);fill-opacity:1;stroke-width:0.1;stroke-linecap:butt;stroke-linejoin:miter;stroke:rgb(0%,0%,0%);stroke-opacity:1;stroke-miterlimit:4;" d="M 286.510417 152.367188 C 286.510417 152.367188 290.052083 147.159375 290.052083 147.159375 L 285.520833 151.3875 L 285.364583 152.728125 L 286.510417 152.367188 " transform="matrix(0.075,0,0,0.0757576,0,0)"/>
<path style="fill-rule:nonzero;fill:rgb(0%,60.784314%,22.745098%);fill-opacity:1;stroke-width:0.1;stroke-linecap:butt;stroke-linejoin:miter;stroke:rgb(0%,0%,0%);stroke-opacity:1;stroke-miterlimit:4;" d="M 291.40625 151.232812 C 289.479167 151.851562 286.458333 152.676562 284.635417 153.501563 C 285.260417 151.335938 285.885417 147.932812 286.302083 145.81875 C 286.25 147.675 285.9375 150.201562 286.09375 151.8 C 287.604167 151.903125 289.791667 151.3875 291.40625 151.232812 " transform="matrix(0.075,0,0,0.0757576,0,0)"/>
<path style="fill-rule:nonzero;fill:rgb(0%,60.784314%,22.745098%);fill-opacity:1;stroke-width:0.1;stroke-linecap:butt;stroke-linejoin:miter;stroke:rgb(0%,0%,0%);stroke-opacity:1;stroke-miterlimit:4;" d="M 285.833333 153.140625 C 285.78125 153.140625 288.489583 147.417187 288.489583 147.417187 L 284.6875 152.367188 L 284.6875 153.707812 L 285.833333 153.140625 " transform="matrix(0.075,0,0,0.0757576,0,0)"/>
<path style="fill-rule:nonzero;fill:rgb(0%,60.784314%,22.745098%);fill-opacity:1;stroke-width:0.1;stroke-linecap:butt;stroke-linejoin:miter;stroke:rgb(0%,0%,0%);stroke-opacity:1;stroke-miterlimit:4;" d="M 290.677083 152.057812 C 288.697917 152.470313 285.625 153.089062 283.75 153.707812 C 284.53125 151.645312 285.46875 148.29375 286.09375 146.23125 C 285.833333 148.035937 285.3125 150.510937 285.3125 152.160937 C 286.822917 152.367188 289.0625 152.057812 290.677083 152.057812 " transform="matrix(0.075,0,0,0.0757576,0,0)"/>
<path style="fill-rule:nonzero;fill:rgb(0%,60.784314%,22.745098%);fill-opacity:1;stroke-width:0.1;stroke-linecap:butt;stroke-linejoin:miter;stroke:rgb(0%,0%,0%);stroke-opacity:1;stroke-miterlimit:4;" d="M 285.15625 153.707812 C 285.15625 153.65625 289.583333 149.221875 289.583333 149.221875 L 284.375 152.521875 L 283.958333 153.810937 L 285.15625 153.707812 " transform="matrix(0.075,0,0,0.0757576,0,0)"/>
<path style="fill-rule:nonzero;fill:rgb(0%,60.784314%,22.745098%);fill-opacity:1;stroke-width:0.1;stroke-linecap:butt;stroke-linejoin:miter;stroke:rgb(0%,0%,0%);stroke-opacity:1;stroke-miterlimit:4;" d="M 289.791667 152.83125 C 287.8125 153.089062 284.791667 153.346875 282.916667 153.8625 C 283.802083 151.8 284.947917 148.448437 285.677083 146.4375 C 285.3125 148.242188 284.6875 150.76875 284.583333 152.41875 C 286.041667 152.779687 288.229167 152.676562 289.791667 152.83125 " transform="matrix(0.075,0,0,0.0757576,0,0)"/>
<path style="fill-rule:nonzero;fill:rgb(0%,60.784314%,22.745098%);fill-opacity:1;stroke-width:0.1;stroke-linecap:butt;stroke-linejoin:miter;stroke:rgb(0%,0%,0%);stroke-opacity:1;stroke-miterlimit:4;" d="M 284.322917 153.24375 C 284.270833 153.24375 287.291667 147.623437 287.291667 147.623437 L 283.229167 152.367188 L 283.177083 153.707812 L 284.322917 153.24375 " transform="matrix(0.075,0,0,0.0757576,0,0)"/>
<path style="fill-rule:nonzero;fill:rgb(0%,60.784314%,22.745098%);fill-opacity:1;stroke-width:0.1;stroke-linecap:butt;stroke-linejoin:miter;stroke:rgb(0%,0%,0%);stroke-opacity:1;stroke-miterlimit:4;" d="M 290.052083 152.160937 C 287.916667 153.0375 284.583333 154.223437 282.552083 155.30625 C 283.229167 152.779687 283.90625 148.757812 284.322917 146.282813 C 284.270833 148.448437 283.958333 151.3875 284.166667 153.24375 C 285.833333 153.192187 288.229167 152.470313 290.052083 152.160937 " transform="matrix(0.075,0,0,0.0757576,0,0)"/>
<path style="fill-rule:nonzero;fill:rgb(0%,60.784314%,22.745098%);fill-opacity:1;stroke-width:0.1;stroke-linecap:butt;stroke-linejoin:miter;stroke:rgb(0%,0%,0%);stroke-opacity:1;stroke-miterlimit:4;" d="M 283.90625 154.945312 C 283.854167 154.945312 287.447917 148.5 287.447917 148.5 L 282.760417 153.965625 L 282.604167 155.5125 L 283.90625 154.945312 " transform="matrix(0.075,0,0,0.0757576,0,0)"/>
<path style="fill-rule:nonzero;fill:rgb(0%,60.784314%,22.745098%);fill-opacity:1;stroke-width:0.1;stroke-linecap:butt;stroke-linejoin:miter;stroke:rgb(0%,0%,0%);stroke-opacity:1;stroke-miterlimit:4;" d="M 289.21875 152.934375 C 287.135417 153.914062 283.854167 155.30625 281.875 156.492188 C 282.447917 153.965625 282.96875 149.94375 283.28125 147.520312 C 283.28125 149.634375 283.125 152.521875 283.385417 154.378125 C 285.104167 154.223437 287.447917 153.346875 289.21875 152.934375 " transform="matrix(0.075,0,0,0.0757576,0,0)"/>
<path style="fill-rule:nonzero;fill:rgb(0%,60.784314%,22.745098%);fill-opacity:1;stroke-width:0.1;stroke-linecap:butt;stroke-linejoin:miter;stroke:rgb(0%,0%,0%);stroke-opacity:1;stroke-miterlimit:4;" d="M 283.177083 155.925 C 283.125 155.925 285.78125 148.964062 285.78125 148.964062 L 281.875 155.203125 L 281.979167 156.698437 L 283.177083 155.925 " transform="matrix(0.075,0,0,0.0757576,0,0)"/>
<path style="fill-rule:nonzero;fill:rgb(0%,60.784314%,22.745098%);fill-opacity:1;stroke-width:0.1;stroke-linecap:butt;stroke-linejoin:miter;stroke:rgb(0%,0%,0%);stroke-opacity:1;stroke-miterlimit:4;" d="M 288.28125 153.553125 C 286.197917 154.532813 282.916667 155.925 280.989583 157.1625 C 281.510417 154.584375 282.03125 150.614062 282.291667 148.139062 C 282.34375 150.253125 282.1875 153.192187 282.5 154.996875 C 284.166667 154.842187 286.510417 153.965625 288.28125 153.553125 " transform="matrix(0.075,0,0,0.0757576,0,0)"/>
<path style="fill-rule:nonzero;fill:rgb(0%,60.784314%,22.745098%);fill-opacity:1;stroke-width:0.1;stroke-linecap:butt;stroke-linejoin:miter;stroke:rgb(0%,0%,0%);stroke-opacity:1;stroke-miterlimit:4;" d="M 282.604167 156.801562 C 282.552083 156.75 286.614583 150.614062 286.614583 150.614062 L 281.510417 155.667187 L 281.302083 157.1625 L 282.604167 156.801562 " transform="matrix(0.075,0,0,0.0757576,0,0)"/>
<path style="fill-rule:nonzero;fill:rgb(0%,60.784314%,22.745098%);fill-opacity:1;stroke-width:0.1;stroke-linecap:butt;stroke-linejoin:miter;stroke:rgb(0%,0%,0%);stroke-opacity:1;stroke-miterlimit:4;" d="M 288.125 153.192187 C 286.25 154.6875 283.28125 156.904687 281.614583 158.503125 C 281.614583 155.976562 281.25 152.00625 281.041667 149.582812 C 281.510417 151.59375 281.979167 154.429688 282.65625 156.079688 C 284.270833 155.5125 286.458333 154.06875 288.125 153.192187 " transform="matrix(0.075,0,0,0.0757576,0,0)"/>
<path style="fill-rule:nonzero;fill:rgb(0%,60.784314%,22.745098%);fill-opacity:1;stroke-width:0.1;stroke-linecap:butt;stroke-linejoin:miter;stroke:rgb(0%,0%,0%);stroke-opacity:1;stroke-miterlimit:4;" d="M 282.760417 157.059375 C 282.760417 157.059375 283.229167 149.685937 283.229167 149.685937 L 281.302083 156.853125 L 281.822917 158.19375 L 282.760417 157.059375 " transform="matrix(0.075,0,0,0.0757576,0,0)"/>
<path style="fill-rule:nonzero;fill:rgb(0%,60.784314%,22.745098%);fill-opacity:1;stroke-width:0.1;stroke-linecap:butt;stroke-linejoin:miter;stroke:rgb(0%,0%,0%);stroke-opacity:1;stroke-miterlimit:4;" d="M 287.604167 153.914062 C 285.729167 155.357812 282.760417 157.523438 281.09375 159.173437 C 281.09375 156.595313 280.729167 152.625 280.572917 150.201562 C 280.989583 152.2125 281.458333 155.048438 282.083333 156.75 C 283.75 156.182812 285.9375 154.739062 287.604167 153.914062 " transform="matrix(0.075,0,0,0.0757576,0,0)"/>
<path style="fill-rule:nonzero;fill:rgb(0%,60.784314%,22.745098%);fill-opacity:1;stroke-width:0.1;stroke-linecap:butt;stroke-linejoin:miter;stroke:rgb(0%,0%,0%);stroke-opacity:1;stroke-miterlimit:4;" d="M 282.291667 158.296875 C 282.291667 158.296875 284.166667 151.129687 284.166667 151.129687 L 280.9375 157.729687 L 281.197917 159.225 L 282.291667 158.296875 " transform="matrix(0.075,0,0,0.0757576,0,0)"/>
<path style="fill-rule:nonzero;fill:rgb(0%,60.784314%,22.745098%);fill-opacity:1;stroke-width:0.1;stroke-linecap:butt;stroke-linejoin:miter;stroke:rgb(0%,0%,0%);stroke-opacity:1;stroke-miterlimit:4;" d="M 287.395833 154.06875 C 285.625 155.821875 282.8125 158.4 281.25 160.25625 C 280.9375 157.626563 280.15625 153.604687 279.6875 151.129687 C 280.416667 153.140625 281.197917 155.976562 282.03125 157.678125 C 283.645833 156.853125 285.729167 155.151562 287.395833 154.06875 " transform="matrix(0.075,0,0,0.0757576,0,0)"/>
<path style="fill-rule:nonzero;fill:rgb(0%,60.784314%,22.745098%);fill-opacity:1;stroke-width:0.1;stroke-linecap:butt;stroke-linejoin:miter;stroke:rgb(0%,0%,0%);stroke-opacity:1;stroke-miterlimit:4;" d="M 282.34375 159.225 C 282.291667 159.225 282.65625 151.59375 282.65625 151.59375 L 280.78125 159.01875 L 281.354167 160.410937 L 282.34375 159.225 " transform="matrix(0.075,0,0,0.0757576,0,0)"/>
<path style="fill-rule:nonzero;fill:rgb(0%,60.784314%,22.745098%);fill-opacity:1;stroke-width:0.1;stroke-linecap:butt;stroke-linejoin:miter;stroke:rgb(0%,0%,0%);stroke-opacity:1;stroke-miterlimit:4;" d="M 286.822917 155.30625 C 284.895833 156.904687 281.927083 159.173437 280.208333 160.926562 C 280.15625 158.245312 279.739583 154.120312 279.479167 151.59375 C 280 153.707812 280.520833 156.646875 281.25 158.4 C 282.916667 157.78125 285.104167 156.234375 286.822917 155.30625 " transform="matrix(0.075,0,0,0.0757576,0,0)"/>
<path style="fill-rule:nonzero;fill:rgb(0%,60.784314%,22.745098%);fill-opacity:1;stroke-width:0.1;stroke-linecap:butt;stroke-linejoin:miter;stroke:rgb(0%,0%,0%);stroke-opacity:1;stroke-miterlimit:4;" d="M 281.770833 160.101562 C 281.71875 160.101562 284.427083 152.934375 284.427083 152.934375 L 280.416667 159.276562 L 280.520833 160.875 L 281.770833 160.101562 " transform="matrix(0.075,0,0,0.0757576,0,0)"/>
<path style="fill-rule:nonzero;fill:rgb(0%,60.784314%,22.745098%);fill-opacity:1;stroke-width:0.1;stroke-linecap:butt;stroke-linejoin:miter;stroke:rgb(0%,0%,0%);stroke-opacity:1;stroke-miterlimit:4;" d="M 286.770833 155.357812 C 285.104167 157.110938 282.447917 159.740625 280.989583 161.648438 C 280.677083 158.967187 279.947917 154.89375 279.53125 152.41875 C 280.15625 154.429688 280.9375 157.317187 281.71875 159.01875 C 283.28125 158.19375 285.260417 156.440625 286.770833 155.357812 " transform="matrix(0.075,0,0,0.0757576,0,0)"/>
<path style="fill-rule:nonzero;fill:rgb(0%,60.784314%,22.745098%);fill-opacity:1;stroke-width:0.1;stroke-linecap:butt;stroke-linejoin:miter;stroke:rgb(0%,0%,0%);stroke-opacity:1;stroke-miterlimit:4;" d="M 281.875 160.4625 C 281.822917 160.4625 281.5625 152.882812 281.5625 152.882812 L 280.3125 160.4625 L 281.041667 161.751562 L 281.875 160.4625 " transform="matrix(0.075,0,0,0.0757576,0,0)"/>
<path style="fill-rule:nonzero;fill:rgb(0%,60.784314%,22.745098%);fill-opacity:1;stroke-width:0.1;stroke-linecap:butt;stroke-linejoin:miter;stroke:rgb(0%,0%,0%);stroke-opacity:1;stroke-miterlimit:4;" d="M 285.9375 155.925 C 284.322917 157.729687 281.770833 160.359375 280.3125 162.267187 C 280 159.6375 279.114583 155.564063 278.59375 153.0375 C 279.322917 155.1 280.15625 157.935937 281.041667 159.6375 C 282.552083 158.8125 284.479167 157.059375 285.9375 155.925 " transform="matrix(0.075,0,0,0.0757576,0,0)"/>
<path style="fill-rule:nonzero;fill:rgb(0%,60.784314%,22.745098%);fill-opacity:1;stroke-width:0.1;stroke-linecap:butt;stroke-linejoin:miter;stroke:rgb(0%,0%,0%);stroke-opacity:1;stroke-miterlimit:4;" d="M 281.40625 161.235937 C 281.40625 161.235937 282.291667 153.501563 282.291667 153.501563 L 280 160.823437 L 280.46875 162.31875 L 281.40625 161.235937 " transform="matrix(0.075,0,0,0.0757576,0,0)"/>
<path style="fill-rule:nonzero;fill:rgb(0%,60.784314%,22.745098%);fill-opacity:1;stroke-width:0.1;stroke-linecap:butt;stroke-linejoin:miter;stroke:rgb(0%,0%,0%);stroke-opacity:1;stroke-miterlimit:4;" d="M 285.625 156.234375 C 284.114583 158.142188 281.770833 161.029687 280.46875 163.092187 C 279.947917 160.4625 278.75 156.492188 278.072917 154.06875 C 278.958333 156.028125 280 158.8125 280.989583 160.410937 C 282.395833 159.43125 284.166667 157.471875 285.625 156.234375 " transform="matrix(0.075,0,0,0.0757576,0,0)"/>
<path style="fill-rule:nonzero;fill:rgb(0%,60.784314%,22.745098%);fill-opacity:1;stroke-width:0.1;stroke-linecap:butt;stroke-linejoin:miter;stroke:rgb(0%,0%,0%);stroke-opacity:1;stroke-miterlimit:4;" d="M 281.40625 161.957812 C 281.354167 161.957812 280.885417 154.223437 280.885417 154.223437 L 279.947917 161.90625 L 280.625 163.246875 L 281.40625 161.957812 " transform="matrix(0.075,0,0,0.0757576,0,0)"/>
<path style="fill-rule:nonzero;fill:rgb(0%,60.784314%,22.745098%);fill-opacity:1;stroke-width:0.1;stroke-linecap:butt;stroke-linejoin:miter;stroke:rgb(0%,0%,0%);stroke-opacity:1;stroke-miterlimit:4;" d="M 285.46875 156.646875 C 284.0625 158.709375 281.822917 161.751562 280.677083 163.865625 C 280 161.235937 278.59375 157.317187 277.760417 154.89375 C 278.75 156.801562 279.947917 159.585938 280.989583 161.132812 C 282.395833 160.05 284.114583 157.9875 285.46875 156.646875 " transform="matrix(0.075,0,0,0.0757576,0,0)"/>
<path style="fill-rule:nonzero;fill:rgb(0%,60.784314%,22.745098%);fill-opacity:1;stroke-width:0.1;stroke-linecap:butt;stroke-linejoin:miter;stroke:rgb(0%,0%,0%);stroke-opacity:1;stroke-miterlimit:4;" d="M 281.875 162.679688 C 281.822917 162.679688 282.65625 154.89375 282.65625 154.89375 L 280.46875 162.215625 L 280.9375 163.7625 L 281.875 162.679688 " transform="matrix(0.075,0,0,0.0757576,0,0)"/>
<path style="fill-rule:nonzero;fill:rgb(0%,60.784314%,22.745098%);fill-opacity:1;stroke-width:0.1;stroke-linecap:butt;stroke-linejoin:miter;stroke:rgb(0%,0%,0%);stroke-opacity:1;stroke-miterlimit:4;" d="M 285.15625 157.36875 C 283.958333 159.585938 282.03125 162.9375 281.041667 165.20625 C 280.15625 162.679688 278.4375 158.967187 277.395833 156.698437 C 278.541667 158.451562 279.947917 161.029687 281.145833 162.421875 C 282.447917 161.184375 283.958333 158.915625 285.15625 157.36875 " transform="matrix(0.075,0,0,0.0757576,0,0)"/>
<path style="fill-rule:nonzero;fill:rgb(0%,60.784314%,22.745098%);fill-opacity:1;stroke-width:0.1;stroke-linecap:butt;stroke-linejoin:miter;stroke:rgb(0%,0%,0%);stroke-opacity:1;stroke-miterlimit:4;" d="M 281.614583 163.298437 C 281.5625 163.35 279.427083 155.925 279.427083 155.925 L 280.15625 163.710938 L 281.145833 164.79375 L 281.614583 163.298437 " transform="matrix(0.075,0,0,0.0757576,0,0)"/>
<path style="fill-rule:nonzero;fill:rgb(0%,60.784314%,22.745098%);fill-opacity:1;stroke-width:0.1;stroke-linecap:butt;stroke-linejoin:miter;stroke:rgb(0%,0%,0%);stroke-opacity:1;stroke-miterlimit:4;" d="M 285.104167 158.245312 C 283.90625 160.4625 281.875 163.7625 280.833333 166.03125 C 279.895833 163.55625 278.177083 159.84375 277.135417 157.575 C 278.28125 159.328125 279.739583 161.90625 280.9375 163.246875 C 282.291667 162.060937 283.854167 159.740625 285.104167 158.245312 " transform="matrix(0.075,0,0,0.0757576,0,0)"/>
<path style="fill-rule:nonzero;fill:rgb(0%,60.784314%,22.745098%);fill-opacity:1;stroke-width:0.1;stroke-linecap:butt;stroke-linejoin:miter;stroke:rgb(0%,0%,0%);stroke-opacity:1;stroke-miterlimit:4;" d="M 281.71875 164.690625 C 281.666667 164.690625 280.9375 156.95625 280.9375 156.95625 L 280.208333 164.690625 L 280.989583 166.03125 L 281.71875 164.690625 " transform="matrix(0.075,0,0,0.0757576,0,0)"/>
<path style="fill-rule:nonzero;fill:rgb(0%,60.784314%,22.745098%);fill-opacity:1;stroke-width:0.1;stroke-linecap:butt;stroke-linejoin:miter;stroke:rgb(0%,0%,0%);stroke-opacity:1;stroke-miterlimit:4;" d="M 285.260417 158.915625 C 283.958333 161.08125 281.875 164.38125 280.833333 166.598437 C 279.947917 164.123437 278.28125 160.359375 277.239583 158.039062 C 278.385417 159.84375 279.791667 162.421875 280.989583 163.865625 C 282.395833 162.628125 283.958333 160.410937 285.260417 158.915625 " transform="matrix(0.075,0,0,0.0757576,0,0)"/>
<path style="fill-rule:nonzero;fill:rgb(0%,60.784314%,22.745098%);fill-opacity:1;stroke-width:0.1;stroke-linecap:butt;stroke-linejoin:miter;stroke:rgb(0%,0%,0%);stroke-opacity:1;stroke-miterlimit:4;" d="M 281.614583 165.309375 C 281.614583 165.309375 280.208333 157.729687 280.208333 157.729687 L 280.15625 165.515625 L 280.989583 166.753125 L 281.614583 165.309375 " transform="matrix(0.075,0,0,0.0757576,0,0)"/>
<path style="fill-rule:nonzero;fill:rgb(0%,60.784314%,22.745098%);fill-opacity:1;stroke-width:0.1;stroke-linecap:butt;stroke-linejoin:miter;stroke:rgb(0%,0%,0%);stroke-opacity:1;stroke-miterlimit:4;" d="M 284.6875 160.05 C 283.333333 162.1125 281.09375 165.20625 279.947917 167.371875 C 279.166667 164.845312 277.65625 160.978125 276.770833 158.60625 C 277.8125 160.4625 279.114583 163.14375 280.208333 164.639062 C 281.666667 163.55625 283.333333 161.442187 284.6875 160.05 " transform="matrix(0.075,0,0,0.0757576,0,0)"/>
<path style="fill-rule:nonzero;fill:rgb(0%,60.784314%,22.745098%);fill-opacity:1;stroke-width:0.1;stroke-linecap:butt;stroke-linejoin:miter;stroke:rgb(0%,0%,0%);stroke-opacity:1;stroke-miterlimit:4;" d="M 280.989583 166.185937 C 280.9375 166.185937 281.614583 158.4 281.614583 158.4 L 279.479167 165.773438 L 280 167.26875 L 280.989583 166.185937 " transform="matrix(0.075,0,0,0.0757576,0,0)"/>
<path style="fill-rule:nonzero;fill:rgb(0%,60.784314%,22.745098%);fill-opacity:1;stroke-width:0.1;stroke-linecap:butt;stroke-linejoin:miter;stroke:rgb(0%,0%,0%);stroke-opacity:1;stroke-miterlimit:4;" d="M 284.791667 160.204687 C 283.59375 162.473437 281.666667 165.876562 280.729167 168.196875 C 279.739583 165.721875 277.864583 162.1125 276.770833 159.84375 C 277.96875 161.596875 279.479167 164.071875 280.78125 165.4125 C 282.083333 164.123437 283.541667 161.803125 284.791667 160.204687 " transform="matrix(0.075,0,0,0.0757576,0,0)"/>
<path style="fill-rule:nonzero;fill:rgb(0%,60.784314%,22.745098%);fill-opacity:1;stroke-width:0.1;stroke-linecap:butt;stroke-linejoin:miter;stroke:rgb(0%,0%,0%);stroke-opacity:1;stroke-miterlimit:4;" d="M 280.729167 166.804688 C 280.677083 166.85625 278.333333 159.585938 278.333333 159.585938 L 279.21875 167.26875 L 280.260417 168.351562 L 280.729167 166.804688 " transform="matrix(0.075,0,0,0.0757576,0,0)"/>
<path style="fill-rule:nonzero;fill:rgb(0%,60.784314%,22.745098%);fill-opacity:1;stroke-width:0.1;stroke-linecap:butt;stroke-linejoin:miter;stroke:rgb(0%,0%,0%);stroke-opacity:1;stroke-miterlimit:4;" d="M 284.479167 160.823437 C 283.645833 163.246875 282.239583 167.010937 281.666667 169.5375 C 280.3125 167.320312 277.96875 164.175 276.510417 162.215625 C 277.96875 163.607812 279.84375 165.773438 281.302083 166.804688 C 282.395833 165.20625 283.489583 162.628125 284.479167 160.823437 " transform="matrix(0.075,0,0,0.0757576,0,0)"/>
<path style="fill-rule:nonzero;fill:rgb(0%,60.784314%,22.745098%);fill-opacity:1;stroke-width:0.1;stroke-linecap:butt;stroke-linejoin:miter;stroke:rgb(0%,0%,0%);stroke-opacity:1;stroke-miterlimit:4;" d="M 282.8125 167.423437 C 282.760417 167.423437 280.260417 160.25625 280.260417 160.25625 L 281.354167 167.939062 L 282.447917 168.970312 L 282.8125 167.423437 " transform="matrix(0.075,0,0,0.0757576,0,0)"/>
<path style="fill-rule:nonzero;fill:rgb(0%,60.784314%,22.745098%);fill-opacity:1;stroke-width:0.1;stroke-linecap:butt;stroke-linejoin:miter;stroke:rgb(0%,0%,0%);stroke-opacity:1;stroke-miterlimit:4;" d="M 284.427083 161.545312 C 283.645833 164.020312 282.291667 167.835938 281.71875 170.310937 C 280.364583 168.145312 277.96875 165 276.510417 163.040625 C 277.96875 164.432812 279.84375 166.546875 281.302083 167.578125 C 282.395833 166.03125 283.489583 163.401562 284.427083 161.545312 " transform="matrix(0.075,0,0,0.0757576,0,0)"/>
<path style="fill-rule:nonzero;fill:rgb(0%,60.784314%,22.745098%);fill-opacity:1;stroke-width:0.1;stroke-linecap:butt;stroke-linejoin:miter;stroke:rgb(0%,0%,0%);stroke-opacity:1;stroke-miterlimit:4;" d="M 282.864583 168.660937 C 282.8125 168.660937 279.53125 161.957812 279.53125 161.957812 L 281.458333 169.382812 L 282.604167 170.207812 L 282.864583 168.660937 " transform="matrix(0.075,0,0,0.0757576,0,0)"/>
<path style="fill-rule:nonzero;fill:rgb(0%,60.784314%,22.745098%);fill-opacity:1;stroke-width:0.1;stroke-linecap:butt;stroke-linejoin:miter;stroke:rgb(0%,0%,0%);stroke-opacity:1;stroke-miterlimit:4;" d="M 284.21875 162.164062 C 283.697917 164.742188 282.760417 168.7125 282.5 171.239062 C 280.885417 169.279687 278.177083 166.495312 276.510417 164.79375 C 278.125 165.979687 280.208333 167.784375 281.770833 168.609375 C 282.65625 166.907812 283.4375 164.123437 284.21875 162.164062 " transform="matrix(0.075,0,0,0.0757576,0,0)"/>
<path style="fill-rule:nonzero;fill:rgb(0%,60.784314%,22.745098%);fill-opacity:1;stroke-width:0.1;stroke-linecap:butt;stroke-linejoin:miter;stroke:rgb(0%,0%,0%);stroke-opacity:1;stroke-miterlimit:4;" d="M 283.072917 169.692187 C 283.020833 169.692187 281.302083 162.215625 281.302083 162.215625 L 281.5625 170.001562 L 282.5 171.135937 L 283.072917 169.692187 " transform="matrix(0.075,0,0,0.0757576,0,0)"/>
<path style="fill-rule:nonzero;fill:rgb(0%,60.784314%,22.745098%);fill-opacity:1;stroke-width:0.1;stroke-linecap:butt;stroke-linejoin:miter;stroke:rgb(0%,0%,0%);stroke-opacity:1;stroke-miterlimit:4;" d="M 284.21875 162.989062 C 283.958333 165.61875 283.385417 169.640625 283.333333 172.21875 C 281.5625 170.465625 278.59375 168.09375 276.822917 166.598437 C 278.489583 167.578125 280.78125 169.125 282.395833 169.692187 C 283.125 167.8875 283.645833 165 284.21875 162.989062 " transform="matrix(0.075,0,0,0.0757576,0,0)"/>
<path style="fill-rule:nonzero;fill:rgb(0%,60.784314%,22.745098%);fill-opacity:1;stroke-width:0.1;stroke-linecap:butt;stroke-linejoin:miter;stroke:rgb(0%,0%,0%);stroke-opacity:1;stroke-miterlimit:4;" d="M 283.177083 170.259375 C 283.125 170.259375 278.4375 164.845312 278.4375 164.845312 L 281.979167 171.39375 L 283.28125 171.80625 L 283.177083 170.259375 " transform="matrix(0.075,0,0,0.0757576,0,0)"/>
<path style="fill-rule:nonzero;fill:rgb(0%,60.784314%,22.745098%);fill-opacity:1;stroke-width:0.1;stroke-linecap:butt;stroke-linejoin:miter;stroke:rgb(0%,0%,0%);stroke-opacity:1;stroke-miterlimit:4;" d="M 284.322917 163.917187 C 284.010417 166.546875 283.4375 170.56875 283.385417 173.146875 C 281.666667 171.39375 278.697917 168.970312 276.875 167.526562 C 278.59375 168.454687 280.833333 170.001562 282.447917 170.620312 C 283.229167 168.764062 283.75 165.928125 284.322917 163.917187 " transform="matrix(0.075,0,0,0.0757576,0,0)"/>
<path style="fill-rule:nonzero;fill:rgb(0%,60.784314%,22.745098%);fill-opacity:1;stroke-width:0.1;stroke-linecap:butt;stroke-linejoin:miter;stroke:rgb(0%,0%,0%);stroke-opacity:1;stroke-miterlimit:4;" d="M 283.697917 171.496875 C 283.645833 171.496875 280.052083 164.948437 280.052083 164.948437 L 282.34375 172.270312 L 283.541667 173.095312 L 283.697917 171.496875 " transform="matrix(0.075,0,0,0.0757576,0,0)"/>
<path style="fill-rule:nonzero;fill:rgb(0%,60.784314%,22.745098%);fill-opacity:1;stroke-width:0.1;stroke-linecap:butt;stroke-linejoin:miter;stroke:rgb(0%,0%,0%);stroke-opacity:1;stroke-miterlimit:4;" d="M 284.53125 165 C 284.322917 167.629687 283.958333 171.703125 284.010417 174.28125 C 282.1875 172.63125 279.114583 170.414062 277.239583 169.021875 C 279.010417 169.898438 281.354167 171.290625 282.96875 171.80625 C 283.645833 169.95 284.010417 167.0625 284.53125 165 " transform="matrix(0.075,0,0,0.0757576,0,0)"/>
<path style="fill-rule:nonzero;fill:rgb(0%,60.784314%,22.745098%);fill-opacity:1;stroke-width:0.1;stroke-linecap:butt;stroke-linejoin:miter;stroke:rgb(0%,0%,0%);stroke-opacity:1;stroke-miterlimit:4;" d="M 284.166667 172.682812 C 284.114583 172.734375 279.635417 167.010937 279.635417 167.010937 L 282.916667 173.765625 L 284.21875 174.28125 L 284.166667 172.682812 " transform="matrix(0.075,0,0,0.0757576,0,0)"/>
<path style="fill-rule:nonzero;fill:rgb(0%,60.784314%,22.745098%);fill-opacity:1;stroke-width:0.1;stroke-linecap:butt;stroke-linejoin:miter;stroke:rgb(0%,0%,0%);stroke-opacity:1;stroke-miterlimit:4;" d="M 284.583333 166.185937 C 284.427083 168.867188 284.0625 172.940625 284.114583 175.51875 C 282.291667 173.86875 279.21875 171.651562 277.34375 170.310937 C 279.0625 171.1875 281.40625 172.528125 283.072917 173.04375 C 283.697917 171.135937 284.114583 168.248437 284.583333 166.185937 " transform="matrix(0.075,0,0,0.0757576,0,0)"/>
<path style="fill-rule:nonzero;fill:rgb(0%,60.784314%,22.745098%);fill-opacity:1;stroke-width:0.1;stroke-linecap:butt;stroke-linejoin:miter;stroke:rgb(0%,0%,0%);stroke-opacity:1;stroke-miterlimit:4;" d="M 284.583333 173.6625 C 284.53125 173.6625 281.40625 166.804688 281.40625 166.804688 L 283.177083 174.332812 L 284.270833 175.209375 L 284.583333 173.6625 " transform="matrix(0.075,0,0,0.0757576,0,0)"/>
<path style="fill-rule:nonzero;fill:rgb(0%,60.784314%,22.745098%);fill-opacity:1;stroke-width:0.1;stroke-linecap:butt;stroke-linejoin:miter;stroke:rgb(0%,0%,0%);stroke-opacity:1;stroke-miterlimit:4;" d="M 284.6875 167.010937 C 284.791667 169.640625 284.791667 173.765625 285.104167 176.292187 C 283.125 174.951562 279.895833 173.146875 277.916667 172.064062 C 279.6875 172.682812 282.135417 173.714062 283.802083 173.971875 C 284.322917 172.0125 284.427083 169.125 284.6875 167.010937 " transform="matrix(0.075,0,0,0.0757576,0,0)"/>
<path style="fill-rule:nonzero;fill:rgb(0%,60.784314%,22.745098%);fill-opacity:1;stroke-width:0.1;stroke-linecap:butt;stroke-linejoin:miter;stroke:rgb(0%,0%,0%);stroke-opacity:1;stroke-miterlimit:4;" d="M 285.104167 173.404687 C 285.104167 173.45625 279.322917 169.434375 279.322917 169.434375 L 284.21875 174.848437 L 285.572917 174.9 L 285.104167 173.404687 " transform="matrix(0.075,0,0,0.0757576,0,0)"/>
<path style="fill-rule:nonzero;fill:rgb(0%,60.784314%,22.745098%);fill-opacity:1;stroke-width:0.1;stroke-linecap:butt;stroke-linejoin:miter;stroke:rgb(0%,0%,0%);stroke-opacity:1;stroke-miterlimit:4;" d="M 284.895833 167.26875 C 285.104167 169.898438 285.3125 174.023438 285.78125 176.55 C 283.697917 175.260937 280.364583 173.610937 278.333333 172.579687 C 280.208333 173.095312 282.65625 174.075 284.375 174.28125 C 284.739583 172.321875 284.6875 169.382812 284.895833 167.26875 " transform="matrix(0.075,0,0,0.0757576,0,0)"/>
<path style="fill-rule:nonzero;fill:rgb(0%,60.784314%,22.745098%);fill-opacity:1;stroke-width:0.1;stroke-linecap:butt;stroke-linejoin:miter;stroke:rgb(0%,0%,0%);stroke-opacity:1;stroke-miterlimit:4;" d="M 285.729167 174.848437 C 285.677083 174.9 280.9375 169.33125 280.9375 169.33125 L 284.583333 175.982812 L 285.885417 176.446875 L 285.729167 174.848437 " transform="matrix(0.075,0,0,0.0757576,0,0)"/>
<path style="fill-rule:nonzero;fill:rgb(0%,60.784314%,22.745098%);fill-opacity:1;stroke-width:0.1;stroke-linecap:butt;stroke-linejoin:miter;stroke:rgb(0%,0%,0%);stroke-opacity:1;stroke-miterlimit:4;" d="M 285.3125 168.3 C 285.625 170.929688 286.041667 175.003125 286.5625 177.529687 C 284.479167 176.34375 281.09375 174.9 279.010417 173.971875 C 280.885417 174.435937 283.385417 175.209375 285.104167 175.3125 C 285.364583 173.353125 285.208333 170.414062 285.3125 168.3 " transform="matrix(0.075,0,0,0.0757576,0,0)"/>
<path style="fill-rule:nonzero;fill:rgb(0%,60.784314%,22.745098%);fill-opacity:1;stroke-width:0.1;stroke-linecap:butt;stroke-linejoin:miter;stroke:rgb(0%,0%,0%);stroke-opacity:1;stroke-miterlimit:4;" d="M 286.666667 175.776562 C 286.666667 175.828125 280.989583 171.754687 280.989583 171.754687 L 285.78125 177.220312 L 287.135417 177.323437 L 286.666667 175.776562 " transform="matrix(0.075,0,0,0.0757576,0,0)"/>
<path style="fill-rule:nonzero;fill:rgb(0%,60.784314%,22.745098%);fill-opacity:1;stroke-width:0.1;stroke-linecap:butt;stroke-linejoin:miter;stroke:rgb(0%,0%,0%);stroke-opacity:1;stroke-miterlimit:4;" d="M 285.46875 169.382812 C 285.989583 172.0125 286.666667 176.034375 287.34375 178.509375 C 285.208333 177.529687 281.71875 176.395312 279.583333 175.725 C 281.458333 175.982812 284.0625 176.55 285.729167 176.446875 C 285.885417 174.435937 285.520833 171.548437 285.46875 169.382812 " transform="matrix(0.075,0,0,0.0757576,0,0)"/>
<path style="fill-rule:nonzero;fill:rgb(0%,60.784314%,22.745098%);fill-opacity:1;stroke-width:0.1;stroke-linecap:butt;stroke-linejoin:miter;stroke:rgb(0%,0%,0%);stroke-opacity:1;stroke-miterlimit:4;" d="M 287.34375 176.601562 C 287.291667 176.601562 282.604167 170.98125 282.604167 170.98125 L 286.145833 177.684375 L 287.447917 178.2 L 287.34375 176.601562 " transform="matrix(0.075,0,0,0.0757576,0,0)"/>
<path style="fill-rule:nonzero;fill:rgb(0%,60.784314%,22.745098%);fill-opacity:1;stroke-width:0.1;stroke-linecap:butt;stroke-linejoin:miter;stroke:rgb(0%,0%,0%);stroke-opacity:1;stroke-miterlimit:4;" d="M 285.78125 170.104687 C 286.510417 172.63125 287.552083 176.601562 288.489583 178.973437 C 286.25 178.303125 282.760417 177.632812 280.572917 177.220312 C 282.447917 177.220312 285.052083 177.426562 286.71875 177.117188 C 286.666667 175.10625 286.041667 172.270312 285.78125 170.104687 " transform="matrix(0.075,0,0,0.0757576,0,0)"/>
<path style="fill-rule:nonzero;fill:rgb(0%,60.784314%,22.745098%);fill-opacity:1;stroke-width:0.1;stroke-linecap:butt;stroke-linejoin:miter;stroke:rgb(0%,0%,0%);stroke-opacity:1;stroke-miterlimit:4;" d="M 287.552083 176.601562 C 287.552083 176.653125 280.989583 175.209375 280.989583 175.209375 L 287.239583 178.303125 L 288.489583 177.839062 L 287.552083 176.601562 " transform="matrix(0.075,0,0,0.0757576,0,0)"/>
<path style="fill-rule:nonzero;fill:rgb(0%,60.784314%,22.745098%);fill-opacity:1;stroke-width:0.1;stroke-linecap:butt;stroke-linejoin:miter;stroke:rgb(0%,0%,0%);stroke-opacity:1;stroke-miterlimit:4;" d="M 286.197917 170.929688 C 286.927083 173.45625 287.96875 177.426562 288.90625 179.746875 C 286.666667 179.076562 283.125 178.40625 280.989583 177.942187 C 282.864583 177.99375 285.46875 178.2 287.083333 177.942187 C 287.083333 175.879687 286.458333 173.04375 286.197917 170.929688 " transform="matrix(0.075,0,0,0.0757576,0,0)"/>
<path style="fill-rule:nonzero;fill:rgb(0%,60.784314%,22.745098%);fill-opacity:1;stroke-width:0.1;stroke-linecap:butt;stroke-linejoin:miter;stroke:rgb(0%,0%,0%);stroke-opacity:1;stroke-miterlimit:4;" d="M 288.645833 177.323437 C 288.645833 177.323437 282.34375 174.229687 282.34375 174.229687 L 288.020833 178.81875 L 289.375 178.715625 L 288.645833 177.323437 " transform="matrix(0.075,0,0,0.0757576,0,0)"/>
<path style="fill-rule:nonzero;fill:rgb(0%,60.784314%,22.745098%);fill-opacity:1;stroke-width:0.1;stroke-linecap:butt;stroke-linejoin:miter;stroke:rgb(0%,0%,0%);stroke-opacity:1;stroke-miterlimit:4;" d="M 285.885417 171.342187 C 287.135417 173.6625 288.958333 177.323437 290.364583 179.385937 C 288.072917 179.23125 284.479167 179.334375 282.239583 179.4375 C 284.114583 179.025 286.666667 178.664062 288.229167 177.99375 C 287.760417 176.034375 286.5625 173.353125 285.885417 171.342187 " transform="matrix(0.075,0,0,0.0757576,0,0)"/>
<path style="fill-rule:nonzero;fill:rgb(0%,60.784314%,22.745098%);fill-opacity:1;stroke-width:0.1;stroke-linecap:butt;stroke-linejoin:miter;stroke:rgb(0%,0%,0%);stroke-opacity:1;stroke-miterlimit:4;" d="M 289.635417 177.99375 C 289.635417 178.045312 283.072917 176.189062 283.072917 176.189062 L 289.270833 179.64375 L 290.520833 179.282812 L 289.635417 177.99375 " transform="matrix(0.075,0,0,0.0757576,0,0)"/>
<path style="fill-rule:nonzero;fill:rgb(0%,60.784314%,22.745098%);fill-opacity:1;stroke-width:0.1;stroke-linecap:butt;stroke-linejoin:miter;stroke:rgb(0%,0%,0%);stroke-opacity:1;stroke-miterlimit:4;" d="M 286.5625 172.321875 C 287.8125 174.642187 289.6875 178.251562 291.09375 180.365625 C 288.802083 180.210938 285.208333 180.365625 283.020833 180.46875 C 284.84375 180.004687 287.395833 179.64375 288.958333 178.973437 C 288.489583 177.014062 287.291667 174.332812 286.5625 172.321875 " transform="matrix(0.075,0,0,0.0757576,0,0)"/>
<path style="fill-rule:nonzero;fill:rgb(0%,60.784314%,22.745098%);fill-opacity:1;stroke-width:0.1;stroke-linecap:butt;stroke-linejoin:miter;stroke:rgb(0%,0%,0%);stroke-opacity:1;stroke-miterlimit:4;" d="M 290.46875 178.509375 C 290.46875 178.560937 284.375 174.848437 284.375 174.848437 L 289.6875 180.004687 L 291.09375 180.004687 L 290.46875 178.509375 " transform="matrix(0.075,0,0,0.0757576,0,0)"/>
<path style="fill-rule:nonzero;fill:rgb(0%,60.784314%,22.745098%);fill-opacity:1;stroke-width:0.1;stroke-linecap:butt;stroke-linejoin:miter;stroke:rgb(0%,0%,0%);stroke-opacity:1;stroke-miterlimit:4;" d="M 287.083333 172.889062 C 288.541667 175.054688 290.729167 178.457812 292.291667 180.365625 C 290 180.520312 286.510417 181.139062 284.375 181.551562 C 286.09375 180.88125 288.59375 180.159375 290.052083 179.282812 C 289.427083 177.323437 287.96875 174.848437 287.083333 172.889062 " transform="matrix(0.075,0,0,0.0757576,0,0)"/>
<path style="fill-rule:nonzero;fill:rgb(0%,60.784314%,22.745098%);fill-opacity:1;stroke-width:0.1;stroke-linecap:butt;stroke-linejoin:miter;stroke:rgb(0%,0%,0%);stroke-opacity:1;stroke-miterlimit:4;" d="M 290.9375 179.076562 C 290.9375 179.128125 284.322917 178.921875 284.322917 178.921875 L 290.885417 180.829687 L 292.03125 180.107812 L 290.9375 179.076562 " transform="matrix(0.075,0,0,0.0757576,0,0)"/>
<path style="fill-rule:nonzero;fill:rgb(0%,60.784314%,22.745098%);fill-opacity:1;stroke-width:0.1;stroke-linecap:butt;stroke-linejoin:miter;stroke:rgb(0%,0%,0%);stroke-opacity:1;stroke-miterlimit:4;" d="M 294.739583 147.05625 C 294.739583 147.05625 299.53125 146.282813 299.53125 146.282813 L 294.791667 146.385937 L 293.958333 146.798438 L 294.739583 147.05625 " transform="matrix(0.075,0,0,0.0757576,0,0)"/>
<path style="fill-rule:nonzero;fill:rgb(0%,60.784314%,22.745098%);fill-opacity:1;stroke-width:0.1;stroke-linecap:butt;stroke-linejoin:miter;stroke:rgb(0%,0%,0%);stroke-opacity:1;stroke-miterlimit:4;" d="M 297.395833 148.0875 C 295.989583 147.675 293.90625 146.953125 292.5 146.64375 C 294.010417 146.025 296.197917 144.99375 297.604167 144.323437 C 296.5625 144.99375 295 145.870312 294.166667 146.489062 C 295 147.05625 296.40625 147.571875 297.395833 148.0875 " transform="matrix(0.075,0,0,0.0757576,0,0)"/>
<path style="fill-rule:nonzero;fill:rgb(0%,60.784314%,22.745098%);fill-opacity:1;stroke-width:0.1;stroke-linecap:butt;stroke-linejoin:miter;stroke:rgb(0%,0%,0%);stroke-opacity:1;stroke-miterlimit:4;" d="M 294.53125 147.210938 C 294.53125 147.210938 299.166667 145.973437 299.166667 145.973437 L 294.375 146.540625 L 293.645833 147.05625 L 294.53125 147.210938 " transform="matrix(0.075,0,0,0.0757576,0,0)"/>
<path style="fill-rule:nonzero;fill:rgb(0%,60.784314%,22.745098%);fill-opacity:1;stroke-width:0.1;stroke-linecap:butt;stroke-linejoin:miter;stroke:rgb(0%,0%,0%);stroke-opacity:1;stroke-miterlimit:4;" d="M 297.604167 148.396875 C 295.989583 148.242188 293.489583 147.932812 291.927083 147.932812 C 293.125 146.85 294.791667 145.096875 295.833333 144.014062 C 295.104167 145.045312 294.010417 146.385937 293.541667 147.365625 C 294.635417 147.778125 296.354167 148.0875 297.604167 148.396875 " transform="matrix(0.075,0,0,0.0757576,0,0)"/>
<path style="fill-rule:nonzero;fill:rgb(0%,60.784314%,22.745098%);fill-opacity:1;stroke-width:0.1;stroke-linecap:butt;stroke-linejoin:miter;stroke:rgb(0%,0%,0%);stroke-opacity:1;stroke-miterlimit:4;" d="M 292.864583 147.571875 C 292.864583 147.520312 297.604167 147.004687 297.604167 147.004687 L 292.96875 146.85 L 292.083333 147.2625 L 292.864583 147.571875 " transform="matrix(0.075,0,0,0.0757576,0,0)"/>
<path style="fill-rule:nonzero;fill:rgb(0%,60.784314%,22.745098%);fill-opacity:1;stroke-width:0.1;stroke-linecap:butt;stroke-linejoin:miter;stroke:rgb(0%,0%,0%);stroke-opacity:1;stroke-miterlimit:4;" d="M 296.354167 148.603125 C 294.895833 148.29375 292.708333 147.829688 291.197917 147.623437 C 292.604167 146.953125 294.6875 145.767188 295.9375 145.045312 C 295 145.767188 293.59375 146.695312 292.916667 147.365625 C 293.802083 147.829688 295.3125 148.190625 296.354167 148.603125 " transform="matrix(0.075,0,0,0.0757576,0,0)"/>
<path style="fill-rule:nonzero;fill:rgb(0%,60.784314%,22.745098%);fill-opacity:1;stroke-width:0.1;stroke-linecap:butt;stroke-linejoin:miter;stroke:rgb(0%,0%,0%);stroke-opacity:1;stroke-miterlimit:4;" d="M 292.447917 147.520312 C 292.395833 147.46875 296.614583 145.664062 296.614583 145.664062 L 292.03125 146.901562 L 291.458333 147.46875 L 292.447917 147.520312 " transform="matrix(0.075,0,0,0.0757576,0,0)"/>
<path style="fill-rule:nonzero;fill:rgb(0%,60.784314%,22.745098%);fill-opacity:1;stroke-width:0.1;stroke-linecap:butt;stroke-linejoin:miter;stroke:rgb(0%,0%,0%);stroke-opacity:1;stroke-miterlimit:4;" d="M 296.25 149.11875 C 295 148.603125 293.177083 147.778125 291.927083 147.417187 C 292.864583 146.540625 294.21875 144.99375 295 144.065625 C 294.427083 144.99375 293.59375 146.23125 293.177083 147.159375 C 294.010417 147.829688 295.3125 148.5 296.25 149.11875 " transform="matrix(0.075,0,0,0.0757576,0,0)"/>
<path style="fill-rule:nonzero;fill:rgb(0%,60.784314%,22.745098%);fill-opacity:1;stroke-width:0.1;stroke-linecap:butt;stroke-linejoin:miter;stroke:rgb(0%,0%,0%);stroke-opacity:1;stroke-miterlimit:4;" d="M 292.65625 147.829688 C 292.65625 147.778125 295.9375 146.385937 295.9375 146.385937 L 292.395833 146.901562 L 291.927083 147.520312 L 292.65625 147.829688 " transform="matrix(0.075,0,0,0.0757576,0,0)"/>
<path style="fill-rule:nonzero;fill:rgb(0%,60.784314%,22.745098%);fill-opacity:1;stroke-width:0.1;stroke-linecap:butt;stroke-linejoin:miter;stroke:rgb(0%,0%,0%);stroke-opacity:1;stroke-miterlimit:4;" d="M 289.947917 178.457812 C 289.947917 178.509375 283.125 178.509375 283.125 178.509375 L 290 180.210938 L 291.145833 179.4375 L 289.947917 178.457812 " transform="matrix(0.075,0,0,0.0757576,0,0)"/>
<path style="fill-rule:nonzero;fill:rgb(0%,60.784314%,22.745098%);fill-opacity:1;stroke-width:0.1;stroke-linecap:butt;stroke-linejoin:miter;stroke:rgb(0%,0%,0%);stroke-opacity:1;stroke-miterlimit:4;" d="M 291.145833 178.921875 C 291.145833 178.973437 284.270833 177.271875 284.270833 177.271875 L 290.885417 180.520312 L 292.1875 180.107812 L 291.145833 178.921875 " transform="matrix(0.075,0,0,0.0757576,0,0)"/>
<path style="fill-rule:nonzero;fill:rgb(0%,60.784314%,22.745098%);fill-opacity:1;stroke-width:0.1;stroke-linecap:butt;stroke-linejoin:miter;stroke:rgb(0%,0%,0%);stroke-opacity:1;stroke-miterlimit:4;" d="M 292.291667 179.334375 C 292.291667 179.4375 285.416667 179.025 285.416667 179.025 L 292.291667 181.0875 L 293.4375 180.417187 L 292.291667 179.334375 " transform="matrix(0.075,0,0,0.0757576,0,0)"/>
<path style="fill-rule:nonzero;fill:rgb(0%,60.784314%,22.745098%);fill-opacity:1;stroke-width:0.1;stroke-linecap:butt;stroke-linejoin:miter;stroke:rgb(0%,0%,0%);stroke-opacity:1;stroke-miterlimit:4;" d="M 287.916667 174.539062 C 289.739583 176.498437 292.395833 179.592187 294.270833 181.345312 C 291.979167 181.70625 288.489583 182.634375 286.354167 183.201562 C 288.072917 182.376562 290.46875 181.448437 291.822917 180.46875 C 290.9375 178.664062 289.114583 176.34375 287.916667 174.539062 " transform="matrix(0.075,0,0,0.0757576,0,0)"/>
<path style="fill-rule:nonzero;fill:rgb(0%,60.784314%,22.745098%);fill-opacity:1;stroke-width:0.1;stroke-linecap:butt;stroke-linejoin:miter;stroke:rgb(0%,0%,0%);stroke-opacity:1;stroke-miterlimit:4;" d="M 293.229167 179.695312 C 293.229167 179.746875 286.40625 177.478125 286.40625 177.478125 L 292.8125 181.29375 L 294.166667 180.984375 L 293.229167 179.695312 " transform="matrix(0.075,0,0,0.0757576,0,0)"/>
<path style="fill-rule:nonzero;fill:rgb(0%,60.784314%,22.745098%);fill-opacity:1;stroke-width:0.1;stroke-linecap:butt;stroke-linejoin:miter;stroke:rgb(0%,0%,0%);stroke-opacity:1;stroke-miterlimit:4;" d="M 288.59375 175.003125 C 290.520833 176.75625 293.4375 179.592187 295.416667 181.0875 C 293.229167 181.757812 289.947917 183.098437 287.96875 183.923437 C 289.53125 182.892187 291.770833 181.70625 293.020833 180.520312 C 291.927083 178.767187 289.895833 176.653125 288.59375 175.003125 " transform="matrix(0.075,0,0,0.0757576,0,0)"/>
<path style="fill-rule:nonzero;fill:rgb(0%,60.784314%,22.745098%);fill-opacity:1;stroke-width:0.1;stroke-linecap:butt;stroke-linejoin:miter;stroke:rgb(0%,0%,0%);stroke-opacity:1;stroke-miterlimit:4;" d="M 293.802083 180.107812 C 293.802083 180.159375 287.291667 181.396875 287.291667 181.396875 L 294.114583 181.860937 L 295.104167 180.932812 L 293.802083 180.107812 " transform="matrix(0.075,0,0,0.0757576,0,0)"/>
<path style="fill-rule:nonzero;fill:rgb(0%,60.784314%,22.745098%);fill-opacity:1;stroke-width:0.1;stroke-linecap:butt;stroke-linejoin:miter;stroke:rgb(0%,0%,0%);stroke-opacity:1;stroke-miterlimit:4;" d="M 292.447917 179.695312 C 292.447917 179.746875 285.677083 180.2625 285.677083 180.2625 L 292.65625 181.448437 L 293.697917 180.623437 L 292.447917 179.695312 " transform="matrix(0.075,0,0,0.0757576,0,0)"/>
<path style="fill-rule:nonzero;fill:rgb(0%,60.784314%,22.745098%);fill-opacity:1;stroke-width:0.1;stroke-linecap:butt;stroke-linejoin:miter;stroke:rgb(0%,0%,0%);stroke-opacity:1;stroke-miterlimit:4;" d="M 293.697917 180.05625 C 293.697917 180.107812 286.666667 178.973437 286.666667 178.973437 L 293.541667 181.757812 L 294.791667 181.242188 Z M 293.697917 180.05625 " transform="matrix(0.075,0,0,0.0757576,0,0)"/>
<path style="fill-rule:nonzero;fill:rgb(0%,60.784314%,22.745098%);fill-opacity:1;stroke-width:0.1;stroke-linecap:butt;stroke-linejoin:miter;stroke:rgb(0%,0%,0%);stroke-opacity:1;stroke-miterlimit:4;" d="M 294.84375 180.46875 C 294.84375 180.520312 287.96875 180.571875 287.96875 180.571875 L 294.947917 182.170312 L 296.09375 181.448437 Z M 294.84375 180.46875 " transform="matrix(0.075,0,0,0.0757576,0,0)"/>
<path style="fill-rule:nonzero;fill:rgb(0%,60.784314%,22.745098%);fill-opacity:1;stroke-width:0.1;stroke-linecap:butt;stroke-linejoin:miter;stroke:rgb(0%,0%,0%);stroke-opacity:1;stroke-miterlimit:4;" d="M 290.15625 175.93125 C 292.083333 177.7875 294.947917 180.726562 296.927083 182.273438 C 294.6875 182.789062 291.302083 183.975 289.21875 184.696875 C 290.833333 183.76875 293.177083 182.685937 294.479167 181.603125 C 293.4375 179.85 291.458333 177.684375 290.15625 175.93125 Z M 290.15625 175.93125 " transform="matrix(0.075,0,0,0.0757576,0,0)"/>
<path style="fill-rule:nonzero;fill:rgb(0%,60.784314%,22.745098%);fill-opacity:1;stroke-width:0.1;stroke-linecap:butt;stroke-linejoin:miter;stroke:rgb(0%,0%,0%);stroke-opacity:1;stroke-miterlimit:4;" d="M 295.833333 180.726562 C 295.78125 180.778125 288.802083 178.973437 288.802083 178.973437 L 295.520833 182.325 L 296.822917 181.964062 Z M 295.833333 180.726562 " transform="matrix(0.075,0,0,0.0757576,0,0)"/>
<path style="fill-rule:nonzero;fill:rgb(0%,60.784314%,22.745098%);fill-opacity:1;stroke-width:0.1;stroke-linecap:butt;stroke-linejoin:miter;stroke:rgb(0%,0%,0%);stroke-opacity:1;stroke-miterlimit:4;" d="M 290.833333 176.34375 C 292.864583 177.99375 295.989583 180.571875 298.125 181.964062 C 295.989583 182.7375 292.8125 184.335938 290.885417 185.315625 C 292.34375 184.18125 294.53125 182.789062 295.625 181.551562 C 294.427083 179.901562 292.291667 177.942187 290.833333 176.34375 Z M 290.833333 176.34375 " transform="matrix(0.075,0,0,0.0757576,0,0)"/>
<path style="fill-rule:nonzero;fill:rgb(0%,60.784314%,22.745098%);fill-opacity:1;stroke-width:0.1;stroke-linecap:butt;stroke-linejoin:miter;stroke:rgb(0%,0%,0%);stroke-opacity:1;stroke-miterlimit:4;" d="M 296.40625 181.139062 C 296.40625 181.190625 290 182.840625 290 182.840625 L 296.875 182.840625 L 297.760417 181.809375 Z M 296.40625 181.139062 " transform="matrix(0.075,0,0,0.0757576,0,0)"/>
<path style="fill-rule:nonzero;fill:rgb(99.607843%,87.45098%,0%);fill-opacity:1;stroke-width:0.298846;stroke-linecap:butt;stroke-linejoin:miter;stroke:rgb(0%,0%,0%);stroke-opacity:1;stroke-miterlimit:4;" d="M 305.208333 171.496875 L 300 167.939062 L 294.791667 171.496875 L 296.71875 165.773438 L 292.1875 162.164062 L 298.020833 162.164062 L 300 156.389062 L 301.927083 162.164062 L 307.8125 162.164062 L 303.28125 165.773438 Z M 305.208333 171.496875 " transform="matrix(0.075,0,0,0.0757576,0,0)"/>
</g>
</svg>
