<?xml version="1.0" encoding="UTF-8"?>
<svg xmlns="http://www.w3.org/2000/svg" xmlns:xlink="http://www.w3.org/1999/xlink" width="38pt" height="25pt" viewBox="0 0 38 25" version="1.1">
<g id="surface1">
<rect x="0" y="0" width="38" height="25" style="fill:rgb(100%,0%,0%);fill-opacity:1;stroke:none;"/>
<path style=" stroke:none;fill-rule:nonzero;fill:rgb(0%,40%,0%);fill-opacity:1;" d="M 0 0 L 15.199219 0 L 15.199219 25 L 0 25 Z M 0 0 "/>
<path style="fill-rule:evenodd;fill:rgb(100%,100%,0%);fill-opacity:1;stroke-width:0.573;stroke-linecap:round;stroke-linejoin:round;stroke:rgb(0%,0%,0%);stroke-opacity:1;stroke-miterlimit:4;" d="M 318.256579 262.0625 C 288.034539 261.125 149.506579 174.6875 148.519737 160.875 L 156.229441 148.125 C 169.921875 168.125 311.533717 252.1875 325.472862 249.1875 L 318.256579 262.0625 " transform="matrix(0.0633333,0,0,0.0625,0,0)"/>
<path style="fill-rule:evenodd;fill:rgb(100%,100%,0%);fill-opacity:1;stroke-width:0.573;stroke-linecap:round;stroke-linejoin:round;stroke:rgb(0%,0%,0%);stroke-opacity:1;stroke-miterlimit:4;" d="M 154.564145 146.375 C 151.850329 153.6875 190.768914 177.6875 237.520559 206.125 C 284.272204 234.5625 324.547697 252.1875 327.569901 249.625 C 327.754934 249.3125 328.988487 247.125 328.926809 247.125 C 328.310033 247.9375 326.953125 248.25 324.856086 247.625 C 312.212171 244 279.276316 228.875 238.445724 204.125 C 197.676809 179.375 162.150493 156.5625 156.661184 146.875 C 156.291118 146.1875 155.98273 145 156.044408 144 L 155.921053 144 L 154.749178 146.0625 Z M 318.935033 262.4375 C 318.441612 263.375 317.45477 263.375 315.666118 263.1875 C 304.379112 261.9375 270.086349 245.25 229.502467 221 C 182.319079 192.75 143.277138 167 147.532895 160.25 L 148.70477 158.1875 L 148.889803 158.3125 C 145.127467 169.6875 225.863487 215.875 230.612664 218.8125 C 277.364309 247.75 316.714638 264.6875 320.230263 260.25 Z M 318.935033 262.4375 " transform="matrix(0.0633333,0,0,0.0625,0,0)"/>
<path style="fill-rule:evenodd;fill:rgb(100%,100%,0%);fill-opacity:1;stroke-width:0.573;stroke-linecap:round;stroke-linejoin:round;stroke:rgb(0%,0%,0%);stroke-opacity:1;stroke-miterlimit:4;" d="M 240.172697 169.25 C 270.394737 169 307.709704 165.125 329.17352 156.5625 L 324.547697 149 C 311.903783 156.0625 274.342105 160.6875 239.925987 161.375 C 199.157072 161 170.415296 157.1875 156.044408 147.5 L 151.665296 155.5 C 178.125 166.75 205.263158 169.125 240.172697 169.25 " transform="matrix(0.0633333,0,0,0.0625,0,0)"/>
<path style="fill-rule:evenodd;fill:rgb(100%,100%,0%);fill-opacity:1;stroke-width:0.573;stroke-linecap:round;stroke-linejoin:round;stroke:rgb(0%,0%,0%);stroke-opacity:1;stroke-miterlimit:4;" d="M 330.46875 156.6875 C 329.728618 157.875 315.727796 162.75 295.065789 166.3125 C 281.064967 168.4375 262.808388 170.25 240.049342 170.25 C 218.400493 170.3125 200.760691 168.75 187.376645 166.9375 C 165.727796 163.5625 154.564145 158.8125 150.431743 157.125 C 150.801809 156.375 151.04852 155.8125 151.418586 155.0625 C 163.322368 159.8125 174.547697 162.6875 187.746711 164.6875 C 201.007401 166.5 218.462171 168.0625 239.987664 168 C 262.685033 168 280.694901 166.0625 294.634046 164 C 315.789474 160.5625 327.323191 156.1875 328.926809 154.125 Z M 326.398026 149.0625 C 324.115954 150.9375 312.643914 155 292.537007 158.1875 C 279.152961 160.125 262.068257 161.8125 240.296053 161.875 C 219.572368 161.875 202.672697 160.5 189.782072 158.625 C 169.366776 155.9375 158.511513 151.125 154.625822 149.75 C 154.995888 149.0625 155.427632 148.375 155.797697 147.6875 C 158.881579 149.25 169.366776 153.5 190.028783 156.4375 C 202.734375 158.25 219.695724 159.5625 240.296053 159.5625 C 262.006579 159.5625 278.844572 157.8125 292.166941 155.875 C 312.397204 153.125 323.252467 147.9375 324.917763 146.625 Z M 326.398026 149.0625 " transform="matrix(0.0633333,0,0,0.0625,0,0)"/>
<path style="fill-rule:evenodd;fill:rgb(100%,100%,0%);fill-opacity:1;stroke-width:0.573;stroke-linecap:round;stroke-linejoin:round;stroke:rgb(0%,0%,0%);stroke-opacity:1;stroke-miterlimit:4;" d="M 140.871711 205.6875 C 159.498355 215.6875 200.760691 220.6875 239.864309 221.0625 C 275.452303 221.125 321.833882 215.5625 339.165296 206.375 L 338.671875 196.375 C 333.244243 204.8125 283.59375 212.9375 239.494243 212.625 C 195.394737 212.3125 154.440789 205.5 140.810033 196.6875 L 140.871711 205.6875 " transform="matrix(0.0633333,0,0,0.0625,0,0)"/>
<path style="fill-rule:evenodd;fill:rgb(100%,100%,0%);fill-opacity:1;stroke-width:0.573;stroke-linecap:round;stroke-linejoin:round;stroke:rgb(0%,0%,0%);stroke-opacity:1;stroke-miterlimit:4;" d="M 340.090461 204.25 L 340.090461 206.625 C 337.5 209.75 321.155428 214.4375 300.678454 217.75 C 285.074013 220.125 264.782072 221.9375 239.432566 221.9375 C 215.378289 221.9375 196.134868 220.25 181.270559 217.9375 C 157.771382 214.5 142.722039 208.5 139.699836 206.75 L 139.699836 203.9375 C 148.766447 210 173.375822 214.375 181.578947 215.75 C 196.381579 218 215.501645 219.6875 239.432566 219.6875 C 264.658717 219.6875 284.827303 217.9375 300.370066 215.5625 C 315.049342 213.4375 336.019737 207.875 340.090461 204.25 Z M 340.152138 195.75 L 340.152138 198.125 C 337.5 201.25 321.155428 205.9375 300.678454 209.25 C 285.074013 211.625 264.782072 213.4375 239.432566 213.4375 C 215.378289 213.4375 196.196546 211.75 181.270559 209.4375 C 157.771382 206 142.722039 200 139.699836 198.25 L 139.699836 195.4375 C 148.766447 201.5 173.375822 205.875 181.640625 207.25 C 196.381579 209.5 215.501645 211.25 239.432566 211.25 C 264.658717 211.25 284.88898 209.4375 300.370066 207.0625 C 315.049342 204.9375 336.019737 199.375 340.152138 195.75 Z M 340.152138 195.75 " transform="matrix(0.0633333,0,0,0.0625,0,0)"/>
<path style="fill-rule:evenodd;fill:rgb(100%,100%,0%);fill-opacity:1;stroke-width:0.573;stroke-linecap:round;stroke-linejoin:round;stroke:rgb(0%,0%,0%);stroke-opacity:1;stroke-miterlimit:4;" d="M 239.802632 260.3125 C 196.998355 260.0625 160.361842 248.6875 152.652138 246.75 L 158.264803 255.625 C 171.957237 261.375 207.668586 269.9375 240.172697 269 C 272.676809 268.0625 301.110197 265.5 321.155428 255.75 L 326.891447 246.625 C 313.260691 253.0625 266.817434 260.25 239.802632 260.3125 " transform="matrix(0.0633333,0,0,0.0625,0,0)"/>
<path style="fill-rule:evenodd;fill:rgb(100%,100%,0%);fill-opacity:1;stroke-width:0.55;stroke-linecap:round;stroke-linejoin:round;stroke:rgb(0%,0%,0%);stroke-opacity:1;stroke-miterlimit:4;" d="M 323.314145 253.75 C 322.450658 255 321.587171 256.3125 320.723684 257.5625 C 311.287007 260.875 296.36102 264.375 290.131579 265.375 C 277.302632 268.0625 257.442434 270 239.802632 270 C 201.932566 269.4375 170.908717 262 156.352796 255.6875 L 155.180921 253.6875 L 155.365954 253.375 L 157.339638 254.125 C 183.305921 263.4375 212.417763 267.125 240.049342 267.8125 C 257.565789 267.875 275.143914 265.8125 289.32977 263.25 C 311.101974 258.875 319.921875 255.625 322.635691 254.125 Z M 328.310033 245.4375 C 328.310033 245.5 328.371711 245.5 328.371711 245.5 C 327.754934 246.625 327.07648 247.6875 326.398026 248.8125 C 321.402138 250.5625 307.709704 254.5625 287.787829 257.375 C 274.588816 259.1875 266.447368 260.875 240.296053 261.4375 C 191.262336 260.1875 159.560033 250.5625 151.973684 248.1875 L 150.863487 246.0625 C 179.296875 253.5 208.285362 258.6875 240.296053 259.1875 C 264.226974 258.6875 274.403783 256.9375 287.417763 255.125 C 310.731908 251.5 322.450658 247.6875 325.966283 246.5625 C 325.904605 246.5 325.842928 246.4375 325.78125 246.375 Z M 328.310033 245.4375 " transform="matrix(0.0633333,0,0,0.0625,0,0)"/>
<path style="fill-rule:evenodd;fill:rgb(100%,100%,0%);fill-opacity:1;stroke-width:0.573;stroke-linecap:round;stroke-linejoin:round;stroke:rgb(0%,0%,0%);stroke-opacity:1;stroke-miterlimit:4;" d="M 328.803454 197.75 C 328.988487 225.875 314.555921 251.125 302.960526 262.3125 C 286.554276 278.0625 264.782072 288.1875 239.432566 288.625 C 211.060855 289.1875 184.292763 270.6875 177.138158 262.5625 C 163.075658 246.6875 151.665296 226.5 151.29523 199.3125 C 153.022204 168.625 165.11102 147.1875 182.565789 132.5625 C 200.020559 117.875 223.334704 110.75 242.70148 111.25 C 265.028783 111.8125 291.180099 122.8125 309.189967 144.5625 C 321.032072 158.8125 326.151316 174.3125 328.803454 197.75 Z M 239.617599 101.4375 C 294.140625 101.4375 338.918586 145.75 338.918586 200.125 C 338.918586 254.5 294.140625 298.8125 239.617599 298.8125 C 185.15625 298.8125 140.748355 254.5 140.748355 200.125 C 140.748355 145.75 185.15625 101.4375 239.617599 101.4375 " transform="matrix(0.0633333,0,0,0.0625,0,0)"/>
<path style="fill-rule:evenodd;fill:rgb(100%,100%,0%);fill-opacity:1;stroke-width:0.573;stroke-linecap:round;stroke-linejoin:round;stroke:rgb(0%,0%,0%);stroke-opacity:1;stroke-miterlimit:4;" d="M 239.925987 101.0625 C 294.449013 101.0625 338.918586 145.5625 338.918586 200.125 C 338.918586 254.625 294.449013 299.125 239.925987 299.125 C 185.402961 299.125 140.871711 254.625 140.871711 200.125 C 140.871711 145.5625 185.402961 101.0625 239.925987 101.0625 Z M 143.092105 200.125 C 143.092105 253.375 186.821546 296.9375 239.925987 296.9375 C 293.030428 296.9375 336.759868 253.375 336.759868 200.125 C 336.759868 146.8125 293.030428 103.25 239.925987 103.25 C 186.821546 103.25 143.092105 146.8125 143.092105 200.125 Z M 143.092105 200.125 " transform="matrix(0.0633333,0,0,0.0625,0,0)"/>
<path style="fill-rule:evenodd;fill:rgb(100%,100%,0%);fill-opacity:1;stroke-width:0.573;stroke-linecap:round;stroke-linejoin:round;stroke:rgb(0%,0%,0%);stroke-opacity:1;stroke-miterlimit:4;" d="M 239.987664 109.3125 C 289.699836 109.3125 330.653783 150.125 330.653783 200 C 330.653783 249.875 289.699836 290.6875 239.987664 290.6875 C 190.275493 290.6875 149.321546 249.875 149.321546 200 C 149.321546 150.125 190.275493 109.3125 239.987664 109.3125 Z M 151.480263 200 C 151.480263 248.6875 191.447368 288.5625 239.987664 288.5625 C 288.527961 288.5625 328.495066 248.6875 328.495066 200 C 328.495066 151.3125 288.527961 111.5 239.987664 111.5 C 191.447368 111.5 151.480263 151.3125 151.480263 200 Z M 151.480263 200 " transform="matrix(0.0633333,0,0,0.0625,0,0)"/>
<path style="fill-rule:evenodd;fill:rgb(100%,100%,0%);fill-opacity:1;stroke-width:0.573;stroke-linecap:round;stroke-linejoin:round;stroke:rgb(0%,0%,0%);stroke-opacity:1;stroke-miterlimit:4;" d="M 243.996711 100.6875 L 235.485197 100.6875 L 235.485197 299.625 L 243.996711 299.625 Z M 243.996711 100.6875 " transform="matrix(0.0633333,0,0,0.0625,0,0)"/>
<path style="fill-rule:evenodd;fill:rgb(100%,100%,0%);fill-opacity:1;stroke-width:0.573;stroke-linecap:round;stroke-linejoin:round;stroke:rgb(0%,0%,0%);stroke-opacity:1;stroke-miterlimit:4;" d="M 243.133224 99.5625 L 245.291941 99.5625 L 245.291941 300.8125 L 243.133224 300.8125 Z M 234.683388 99.5625 L 236.903783 99.5625 L 236.903783 300.8125 L 234.683388 300.8125 Z M 234.683388 99.5625 " transform="matrix(0.0633333,0,0,0.0625,0,0)"/>
<path style="fill-rule:evenodd;fill:rgb(100%,100%,0%);fill-opacity:1;stroke-width:0.573;stroke-linecap:round;stroke-linejoin:round;stroke:rgb(0%,0%,0%);stroke-opacity:1;stroke-miterlimit:4;" d="M 338.980263 203.9375 L 338.980263 196.5625 L 332.997533 191 L 299.013158 182 L 249.979441 177 L 191.015625 180 L 149.013158 190 L 140.501645 196.25 L 140.501645 203.625 L 162.027138 194 L 212.972862 186 L 262.006579 186 L 298.026316 190 L 323.005757 196 Z M 338.980263 203.9375 " transform="matrix(0.0633333,0,0,0.0625,0,0)"/>
<path style="fill-rule:evenodd;fill:rgb(100%,100%,0%);fill-opacity:1;stroke-width:0.573;stroke-linecap:round;stroke-linejoin:round;stroke:rgb(0%,0%,0%);stroke-opacity:1;stroke-miterlimit:4;" d="M 239.925987 184.75 C 263.363487 184.75 285.999178 187 304.009046 190.5 C 322.574013 194.1875 335.649671 198.875 340.090461 204.0625 L 340.090461 206.625 C 334.724507 200.125 317.146382 195.375 303.577303 192.6875 C 285.752467 189.1875 263.178454 186.9375 239.925987 187 C 215.439967 187.0625 192.557566 189.375 174.979441 192.8125 C 160.855263 195.625 142.043586 201.1875 139.638158 206.6875 L 139.638158 204 C 140.933388 200.1875 154.995888 194.5 174.671053 190.5625 C 192.372533 187.125 215.254934 184.8125 239.925987 184.75 Z M 239.987664 176.25 C 263.363487 176.25 285.999178 178.5 304.009046 182 C 322.574013 185.6875 335.649671 190.375 340.152138 195.5625 L 340.152138 198.125 C 334.724507 191.6875 317.146382 186.875 303.577303 184.1875 C 285.752467 180.6875 263.240132 178.4375 239.987664 178.5 C 215.439967 178.5625 192.680921 180.875 175.102796 184.3125 C 161.472039 186.875 141.858553 192.6875 139.699836 198.1875 L 139.699836 195.5 C 140.933388 191.75 155.242599 185.8125 174.671053 182.0625 C 192.372533 178.625 215.254934 176.3125 239.987664 176.25 Z M 239.987664 176.25 " transform="matrix(0.0633333,0,0,0.0625,0,0)"/>
<path style="fill-rule:evenodd;fill:rgb(100%,100%,0%);fill-opacity:1;stroke-width:0.573;stroke-linecap:round;stroke-linejoin:round;stroke:rgb(0%,0%,0%);stroke-opacity:1;stroke-miterlimit:4;" d="M 239.494243 132.9375 C 276.315789 132.75 308.449836 138.125 323.190789 145.625 L 328.556743 154.9375 C 315.727796 148.0625 281.064967 140.875 239.555921 141.9375 C 205.694901 142.125 169.490132 145.6875 151.356908 155.375 L 157.771382 144.625 C 172.635691 136.9375 207.791941 133 239.494243 132.9375 " transform="matrix(0.0633333,0,0,0.0625,0,0)"/>
<path style="fill-rule:evenodd;fill:rgb(100%,100%,0%);fill-opacity:1;stroke-width:0.573;stroke-linecap:round;stroke-linejoin:round;stroke:rgb(0%,0%,0%);stroke-opacity:1;stroke-miterlimit:4;" d="M 239.987664 140.625 C 260.958059 140.5625 281.311678 141.75 297.471217 144.6875 C 312.458882 147.4375 326.82977 151.6875 328.865132 153.9375 L 330.46875 156.75 C 325.472862 153.5 313.075658 149.875 297.162829 146.8125 C 281.126645 143.8125 260.834704 142.8125 239.925987 142.875 C 216.241776 142.8125 197.800164 144.0625 181.949013 146.8125 C 165.234375 149.9375 153.63898 154.4375 150.740132 156.5625 L 152.34375 153.5625 C 157.894737 150.75 166.714638 147.3125 181.578947 144.625 C 197.92352 141.625 216.550164 140.75 239.987664 140.625 Z M 239.987664 132.125 C 260.094572 132.0625 279.95477 133.1875 295.435855 136 C 307.648026 138.375 319.675164 142.0625 324.115954 145.375 L 326.459704 149.0625 C 322.512336 144.6875 307.586349 140.5 294.449013 138.1875 C 279.091283 135.5 260.094572 134.5 239.987664 134.3125 C 218.832237 134.375 199.342105 135.6875 184.231086 138.4375 C 169.736842 141.1875 160.42352 144.4375 156.476151 146.9375 L 158.573191 143.875 C 164.000822 141 172.759046 138.375 183.86102 136.25 C 199.095395 133.4375 218.708882 132.1875 239.987664 132.125 Z M 239.987664 132.125 " transform="matrix(0.0633333,0,0,0.0625,0,0)"/>
<path style="fill-rule:evenodd;fill:rgb(100%,100%,0%);fill-opacity:1;stroke-width:0.573;stroke-linecap:round;stroke-linejoin:round;stroke:rgb(0%,0%,0%);stroke-opacity:1;stroke-miterlimit:4;" d="M 289.144737 241.25 C 270.949836 237.875 252.693257 237.375 239.925987 237.5 C 178.556743 238.25 158.696546 250.125 156.291118 253.75 L 151.665296 246.25 C 167.331414 234.9375 200.760691 228.5625 240.296053 229.1875 C 260.773026 229.5625 278.474507 230.875 293.400493 233.8125 L 289.144737 241.25 " transform="matrix(0.0633333,0,0,0.0625,0,0)"/>
<path style="fill-rule:evenodd;fill:rgb(100%,100%,0%);fill-opacity:1;stroke-width:0.55;stroke-linecap:round;stroke-linejoin:round;stroke:rgb(0%,0%,0%);stroke-opacity:1;stroke-miterlimit:4;" d="M 239.555921 236.4375 C 256.640625 236.6875 273.416941 237.4375 289.638158 240.4375 L 288.466283 242.5 C 273.416941 239.75 257.380757 238.6875 239.617599 238.75 C 216.981908 238.5625 194.037829 240.6875 174.115954 246.4375 C 167.824836 248.1875 157.401316 252.25 156.291118 255.5625 L 155.119243 253.625 C 155.489309 251.6875 161.780428 247.5625 173.560855 244.25 C 196.443257 237.6875 217.783717 236.625 239.555921 236.4375 Z M 240.35773 227.875 C 258.059211 228.1875 276.315789 229 294.078947 232.5625 L 292.845395 234.6875 C 276.809211 231.5 261.513158 230.4375 240.481086 230.125 C 217.722039 230.1875 193.606086 231.75 171.710526 238.125 C 164.617599 240.1875 152.405428 244.6875 151.973684 248.1875 L 150.801809 246.125 C 151.04852 242.9375 161.657072 238.75 171.155428 236 C 193.23602 229.5625 217.475329 227.875 240.35773 227.875 Z M 240.35773 227.875 " transform="matrix(0.0633333,0,0,0.0625,0,0)"/>
<path style="fill-rule:evenodd;fill:rgb(100%,100%,0%);fill-opacity:1;stroke-width:0.573;stroke-linecap:round;stroke-linejoin:round;stroke:rgb(0%,0%,0%);stroke-opacity:1;stroke-miterlimit:4;" d="M 327.569901 247.375 L 320.230263 258.8125 L 299.013158 240 L 243.996711 203 L 182.010691 169 L 149.814967 158 L 156.661184 145.25 L 159.004934 144 L 178.988487 149 L 244.983553 183 L 282.976974 207 L 314.987664 230 L 328.001645 245 Z M 327.569901 247.375 " transform="matrix(0.0633333,0,0,0.0625,0,0)"/>
<path style="fill-rule:evenodd;fill:rgb(100%,100%,0%);fill-opacity:1;stroke-width:0.573;stroke-linecap:round;stroke-linejoin:round;stroke:rgb(0%,0%,0%);stroke-opacity:1;stroke-miterlimit:4;" d="M 148.643092 158.3125 C 154.317434 154.4375 195.764803 172.9375 239.185855 199.125 C 282.483553 225.375 323.869243 255.0625 320.168586 260.625 L 318.935033 262.5 L 318.379934 263 C 318.503289 262.875 319.120066 262.125 318.318257 260.0625 C 316.467928 254 287.109375 230.5625 238.384046 201.1875 C 190.953947 172.875 151.356908 155.8125 147.409539 160.6875 Z M 329.111842 247.1875 C 332.689145 240.1875 294.202303 211.1875 246.463816 182.9375 C 197.615132 155.25 162.458882 139 156.044408 143.875 L 154.625822 146.4375 C 154.625822 146.5625 154.6875 146.25 154.934211 146.0625 C 156.106086 145 158.07977 145.0625 158.943257 145.0625 C 169.983553 145.25 201.624178 159.8125 245.970395 185.1875 C 265.398849 196.5 328.001645 236.6875 327.754934 248 C 327.816612 248.9375 327.878289 249.1875 327.508224 249.625 Z M 329.111842 247.1875 " transform="matrix(0.0633333,0,0,0.0625,0,0)"/>
<path style="fill-rule:nonzero;fill:rgb(100%,100%,100%);fill-opacity:1;stroke-width:0.67037;stroke-linecap:butt;stroke-linejoin:miter;stroke:rgb(0%,0%,0%);stroke-opacity:1;stroke-miterlimit:4;" d="M 180.592105 211 C 180.592105 227.25 187.253289 242 198.046875 252.75 C 208.902138 263.5 223.581414 270.3125 239.864309 270.3125 C 256.270559 270.3125 271.134868 263.6875 281.866776 252.9375 C 292.660362 242.1875 299.321546 227.375 299.321546 211.0625 L 299.321546 131.875 L 180.592105 131.75 Z M 180.592105 211 " transform="matrix(0.0633333,0,0,0.0625,0,0)"/>
<path style="fill-rule:nonzero;fill:rgb(100%,0%,0%);fill-opacity:1;stroke-width:0.50734;stroke-linecap:butt;stroke-linejoin:miter;stroke:rgb(0%,0%,0%);stroke-opacity:1;stroke-miterlimit:4;" d="M 182.8125 211.125 L 182.8125 211.1875 C 182.8125 226.75 189.288651 240.875 199.588816 251.1875 C 209.950658 261.5 224.198191 267.875 239.802632 267.875 C 255.46875 267.875 269.716283 261.5 280.016447 251.25 C 290.316612 241 296.731086 226.8125 296.731086 211.1875 L 296.731086 134.375 L 182.874178 134.375 L 182.8125 211.125 M 273.848684 157.375 L 273.848684 206.25 L 273.787007 211.4375 C 273.787007 212.8125 273.725329 214.375 273.540296 215.6875 C 272.615132 223.375 269.099507 230.125 263.79523 235.375 C 257.627467 241.5 249.177632 245.3125 239.740954 245.3125 C 230.427632 245.3125 222.101151 241.375 215.933388 235.1875 C 209.580592 228.875 205.941612 220.25 205.941612 211.25 L 205.879934 157.25 Z M 273.848684 157.375 " transform="matrix(0.0633333,0,0,0.0625,0,0)"/>
<path style=" stroke:none;fill-rule:nonzero;fill:rgb(100%,100%,0%);fill-opacity:1;" d="M 12.046875 9.652344 C 12.054688 9.308594 12.300781 9.226562 12.304688 9.222656 C 12.304688 9.222656 12.570312 9.3125 12.570312 9.65625 L 12.046875 9.652344 "/>
<path style="fill-rule:nonzero;fill:rgb(100%,100%,0%);fill-opacity:1;stroke-width:0.5;stroke-linecap:butt;stroke-linejoin:miter;stroke:rgb(0%,0%,0%);stroke-opacity:1;stroke-miterlimit:4;" d="M 186.821546 147.6875 L 186.143092 154.0625 L 190.275493 154.0625 C 190.337171 148.8125 194.222862 147.9375 194.346217 147.9375 C 194.407895 147.9375 198.355263 149.125 198.416941 154.0625 L 202.61102 154.0625 L 201.809211 147.625 Z M 186.821546 147.6875 " transform="matrix(0.0633333,0,0,0.0625,0,0)"/>
<path style="fill-rule:nonzero;fill:rgb(100%,100%,0%);fill-opacity:1;stroke-width:0.5;stroke-linecap:butt;stroke-linejoin:miter;stroke:rgb(0%,0%,0%);stroke-opacity:1;stroke-miterlimit:4;" d="M 185.834704 154.0625 L 202.796053 154.0625 C 203.166118 154.0625 203.474507 154.4375 203.474507 154.875 C 203.474507 155.25 203.166118 155.625 202.796053 155.625 L 185.834704 155.625 C 185.464638 155.625 185.217928 155.25 185.217928 154.875 C 185.217928 154.4375 185.464638 154.0625 185.834704 154.0625 Z M 185.834704 154.0625 " transform="matrix(0.0633333,0,0,0.0625,0,0)"/>
<path style="fill-rule:nonzero;fill:rgb(100%,100%,0%);fill-opacity:1;stroke-width:0.5;stroke-linecap:butt;stroke-linejoin:miter;stroke:rgb(0%,0%,0%);stroke-opacity:1;stroke-miterlimit:4;" d="M 192.002467 154 C 192.002467 150.6875 194.284539 149.75 194.284539 149.8125 C 194.284539 149.8125 196.628289 150.75 196.628289 154 L 192.002467 154 " transform="matrix(0.0633333,0,0,0.0625,0,0)"/>
<path style="fill-rule:nonzero;fill:rgb(100%,100%,0%);fill-opacity:1;stroke-width:0.5;stroke-linecap:butt;stroke-linejoin:miter;stroke:rgb(0%,0%,0%);stroke-opacity:1;stroke-miterlimit:4;" d="M 186.20477 145.0625 L 202.425987 145.0625 C 202.796053 145.0625 203.104441 145.375 203.104441 145.75 C 203.104441 146.125 202.796053 146.4375 202.425987 146.4375 L 186.20477 146.4375 C 185.896382 146.4375 185.587993 146.125 185.587993 145.75 C 185.587993 145.375 185.896382 145.0625 186.20477 145.0625 Z M 186.20477 145.0625 " transform="matrix(0.0633333,0,0,0.0625,0,0)"/>
<path style="fill-rule:nonzero;fill:rgb(100%,100%,0%);fill-opacity:1;stroke-width:0.5;stroke-linecap:butt;stroke-linejoin:miter;stroke:rgb(0%,0%,0%);stroke-opacity:1;stroke-miterlimit:4;" d="M 186.574836 146.5 L 202.117599 146.5 C 202.425987 146.5 202.672697 146.8125 202.672697 147.1875 C 202.672697 147.5625 202.425987 147.875 202.117599 147.875 L 186.574836 147.875 C 186.20477 147.875 185.958059 147.5625 185.958059 147.1875 C 185.958059 146.8125 186.20477 146.5 186.574836 146.5 Z M 186.574836 146.5 " transform="matrix(0.0633333,0,0,0.0625,0,0)"/>
<path style="fill-rule:nonzero;fill:rgb(100%,100%,0%);fill-opacity:1;stroke-width:0.5;stroke-linecap:butt;stroke-linejoin:miter;stroke:rgb(0%,0%,0%);stroke-opacity:1;stroke-miterlimit:4;" d="M 191.570724 135.875 L 192.804276 135.875 L 192.804276 136.75 L 193.667763 136.75 L 193.667763 135.875 L 194.962993 135.875 L 194.962993 136.75 L 195.82648 136.75 L 195.82648 135.875 L 197.121711 135.875 L 197.121711 137.875 C 197.121711 138.1875 196.875 138.375 196.566612 138.375 L 192.125822 138.375 C 191.817434 138.375 191.570724 138.1875 191.570724 137.875 Z M 191.570724 135.875 " transform="matrix(0.0633333,0,0,0.0625,0,0)"/>
<path style="fill-rule:nonzero;fill:rgb(100%,100%,0%);fill-opacity:1;stroke-width:0.5;stroke-linecap:butt;stroke-linejoin:miter;stroke:rgb(0%,0%,0%);stroke-opacity:1;stroke-miterlimit:4;" d="M 196.196546 138.5625 L 196.443257 145 L 192.1875 145 L 192.434211 138.5625 L 196.196546 138.5625 " transform="matrix(0.0633333,0,0,0.0625,0,0)"/>
<path style="fill-rule:nonzero;fill:rgb(100%,100%,0%);fill-opacity:1;stroke-width:0.5;stroke-linecap:butt;stroke-linejoin:miter;stroke:rgb(0%,0%,0%);stroke-opacity:1;stroke-miterlimit:4;" d="M 190.953947 141.5625 L 191.077303 145.0625 L 186.944901 145.0625 L 187.068257 141.5625 Z M 190.953947 141.5625 " transform="matrix(0.0633333,0,0,0.0625,0,0)"/>
<path style="fill-rule:nonzero;fill:rgb(100%,100%,0%);fill-opacity:1;stroke-width:0.5;stroke-linecap:butt;stroke-linejoin:miter;stroke:rgb(0%,0%,0%);stroke-opacity:1;stroke-miterlimit:4;" d="M 190.9535 141.5625 L 191.076855 145.0625 L 186.944454 145.0625 L 187.067809 141.5625 Z M 190.9535 141.5625 " transform="matrix(0.0633333,0,0,0.0625,0.671903,0)"/>
<path style="fill-rule:nonzero;fill:rgb(100%,100%,0%);fill-opacity:1;stroke-width:0.5;stroke-linecap:butt;stroke-linejoin:miter;stroke:rgb(0%,0%,0%);stroke-opacity:1;stroke-miterlimit:4;" d="M 186.328125 139.0625 L 187.5 139.0625 L 187.5 139.9375 L 188.363487 139.9375 L 188.363487 139 L 189.597039 139 L 189.597039 139.9375 L 190.460526 139.9375 L 190.460526 139 L 191.694079 139 L 191.694079 141.0625 C 191.694079 141.375 191.447368 141.5625 191.200658 141.5625 L 186.883224 141.5625 C 186.574836 141.5625 186.328125 141.3125 186.328125 141 Z M 186.328125 139.0625 " transform="matrix(0.0633333,0,0,0.0625,0,0)"/>
<path style="fill-rule:nonzero;fill:rgb(100%,100%,0%);fill-opacity:1;stroke-width:0.5;stroke-linecap:butt;stroke-linejoin:miter;stroke:rgb(0%,0%,0%);stroke-opacity:1;stroke-miterlimit:4;" d="M 186.327678 139.0625 L 187.499553 139.0625 L 187.499553 139.9375 L 188.363039 139.9375 L 188.363039 139 L 189.596592 139 L 189.596592 139.9375 L 190.460079 139.9375 L 190.460079 139 L 191.693632 139 L 191.693632 141.0625 C 191.693632 141.375 191.446921 141.5625 191.200211 141.5625 L 186.882776 141.5625 C 186.574388 141.5625 186.327678 141.3125 186.327678 141 Z M 186.327678 139.0625 " transform="matrix(0.0633333,0,0,0.0625,0.671903,0)"/>
<path style=" stroke:none;fill-rule:nonzero;fill:rgb(0%,0%,0%);fill-opacity:1;" d="M 12.28125 8.789062 C 12.277344 8.75 12.335938 8.75 12.335938 8.789062 L 12.335938 8.882812 L 12.28125 8.882812 L 12.28125 8.789062 "/>
<path style=" stroke:none;fill-rule:nonzero;fill:rgb(0%,0%,0%);fill-opacity:1;" d="M 11.941406 8.925781 C 11.941406 8.890625 11.996094 8.890625 11.996094 8.925781 L 11.996094 9 L 11.941406 9 L 11.941406 8.925781 "/>
<path style=" stroke:none;fill-rule:nonzero;fill:rgb(0%,0%,0%);fill-opacity:1;" d="M 12.617188 8.925781 C 12.617188 8.890625 12.667969 8.890625 12.667969 8.925781 L 12.667969 9 L 12.617188 9 L 12.617188 8.925781 "/>
<path style=" stroke:none;fill-rule:nonzero;fill:rgb(100%,100%,0%);fill-opacity:1;" d="M 12.046875 12.546875 C 12.054688 12.203125 12.300781 12.121094 12.304688 12.117188 C 12.304688 12.117188 12.570312 12.207031 12.570312 12.550781 L 12.046875 12.546875 "/>
<path style="fill-rule:nonzero;fill:rgb(100%,100%,0%);fill-opacity:1;stroke-width:0.5;stroke-linecap:butt;stroke-linejoin:miter;stroke:rgb(0%,0%,0%);stroke-opacity:1;stroke-miterlimit:4;" d="M 186.821546 147.6802 L 186.143092 154.0552 L 190.275493 154.0552 C 190.337171 148.8052 194.222862 147.9302 194.346217 147.9302 C 194.407895 147.9302 198.355263 149.1177 198.416941 154.0552 L 202.61102 154.0552 L 201.809211 147.6802 Z M 186.821546 147.6802 " transform="matrix(0.0633333,0,0,0.0625,0,2.894988)"/>
<path style="fill-rule:nonzero;fill:rgb(100%,100%,0%);fill-opacity:1;stroke-width:0.5;stroke-linecap:butt;stroke-linejoin:miter;stroke:rgb(0%,0%,0%);stroke-opacity:1;stroke-miterlimit:4;" d="M 185.834704 154.0552 L 202.796053 154.0552 C 203.166118 154.0552 203.474507 154.4302 203.474507 154.8677 C 203.474507 155.3052 203.166118 155.6177 202.796053 155.6177 L 185.834704 155.6177 C 185.464638 155.6177 185.217928 155.3052 185.217928 154.8677 C 185.217928 154.4302 185.464638 154.0552 185.834704 154.0552 Z M 185.834704 154.0552 " transform="matrix(0.0633333,0,0,0.0625,0,2.894988)"/>
<path style="fill-rule:nonzero;fill:rgb(100%,100%,0%);fill-opacity:1;stroke-width:0.5;stroke-linecap:butt;stroke-linejoin:miter;stroke:rgb(0%,0%,0%);stroke-opacity:1;stroke-miterlimit:4;" d="M 192.002467 154.0552 C 192.002467 150.7427 194.284539 149.8052 194.284539 149.8052 C 194.284539 149.8052 196.628289 150.7427 196.628289 154.0552 L 192.002467 154.0552 " transform="matrix(0.0633333,0,0,0.0625,0,2.894988)"/>
<path style="fill-rule:nonzero;fill:rgb(100%,100%,0%);fill-opacity:1;stroke-width:0.5;stroke-linecap:butt;stroke-linejoin:miter;stroke:rgb(0%,0%,0%);stroke-opacity:1;stroke-miterlimit:4;" d="M 186.20477 145.0552 L 202.425987 145.0552 C 202.796053 145.0552 203.104441 145.3677 203.104441 145.7427 C 203.104441 146.1177 202.796053 146.4302 202.425987 146.4302 L 186.20477 146.4302 C 185.896382 146.4302 185.587993 146.1177 185.587993 145.7427 C 185.587993 145.3677 185.896382 145.0552 186.20477 145.0552 Z M 186.20477 145.0552 " transform="matrix(0.0633333,0,0,0.0625,0,2.894988)"/>
<path style="fill-rule:nonzero;fill:rgb(100%,100%,0%);fill-opacity:1;stroke-width:0.5;stroke-linecap:butt;stroke-linejoin:miter;stroke:rgb(0%,0%,0%);stroke-opacity:1;stroke-miterlimit:4;" d="M 186.574836 146.4927 L 202.117599 146.4927 C 202.425987 146.4927 202.672697 146.8052 202.672697 147.1802 C 202.672697 147.5552 202.425987 147.8677 202.117599 147.8677 L 186.574836 147.8677 C 186.20477 147.8677 185.958059 147.5552 185.958059 147.1802 C 185.958059 146.8052 186.20477 146.4927 186.574836 146.4927 Z M 186.574836 146.4927 " transform="matrix(0.0633333,0,0,0.0625,0,2.894988)"/>
<path style="fill-rule:nonzero;fill:rgb(100%,100%,0%);fill-opacity:1;stroke-width:0.5;stroke-linecap:butt;stroke-linejoin:miter;stroke:rgb(0%,0%,0%);stroke-opacity:1;stroke-miterlimit:4;" d="M 191.570724 135.8677 L 192.804276 135.8677 L 192.804276 136.7427 L 193.667763 136.7427 L 193.667763 135.8677 L 194.962993 135.8677 L 194.962993 136.7427 L 195.82648 136.7427 L 195.82648 135.8677 L 197.121711 135.8677 L 197.121711 137.8677 C 197.121711 138.1802 196.875 138.3677 196.566612 138.3677 L 192.125822 138.3677 C 191.817434 138.3677 191.570724 138.1802 191.570724 137.8677 Z M 191.570724 135.8677 " transform="matrix(0.0633333,0,0,0.0625,0,2.894988)"/>
<path style="fill-rule:nonzero;fill:rgb(100%,100%,0%);fill-opacity:1;stroke-width:0.5;stroke-linecap:butt;stroke-linejoin:miter;stroke:rgb(0%,0%,0%);stroke-opacity:1;stroke-miterlimit:4;" d="M 196.196546 138.5552 L 196.443257 144.9927 L 192.1875 144.9927 L 192.434211 138.5552 L 196.196546 138.5552 " transform="matrix(0.0633333,0,0,0.0625,0,2.894988)"/>
<path style="fill-rule:nonzero;fill:rgb(100%,100%,0%);fill-opacity:1;stroke-width:0.5;stroke-linecap:butt;stroke-linejoin:miter;stroke:rgb(0%,0%,0%);stroke-opacity:1;stroke-miterlimit:4;" d="M 190.953947 141.5552 L 191.077303 145.0552 L 186.944901 145.0552 L 187.068257 141.5552 Z M 190.953947 141.5552 " transform="matrix(0.0633333,0,0,0.0625,0,2.894988)"/>
<path style="fill-rule:nonzero;fill:rgb(100%,100%,0%);fill-opacity:1;stroke-width:0.5;stroke-linecap:butt;stroke-linejoin:miter;stroke:rgb(0%,0%,0%);stroke-opacity:1;stroke-miterlimit:4;" d="M 190.9535 141.5552 L 191.076855 145.0552 L 186.944454 145.0552 L 187.067809 141.5552 Z M 190.9535 141.5552 " transform="matrix(0.0633333,0,0,0.0625,0.671903,2.894988)"/>
<path style="fill-rule:nonzero;fill:rgb(100%,100%,0%);fill-opacity:1;stroke-width:0.5;stroke-linecap:butt;stroke-linejoin:miter;stroke:rgb(0%,0%,0%);stroke-opacity:1;stroke-miterlimit:4;" d="M 186.328125 139.0552 L 187.5 139.0552 L 187.5 139.9302 L 188.363487 139.9302 L 188.363487 138.9927 L 189.597039 139.0552 L 189.597039 139.9302 L 190.460526 139.9302 L 190.460526 138.9927 L 191.694079 139.0552 L 191.694079 141.0552 C 191.694079 141.3677 191.447368 141.5552 191.200658 141.5552 L 186.883224 141.5552 C 186.574836 141.5552 186.328125 141.3052 186.328125 141.0552 Z M 186.328125 139.0552 " transform="matrix(0.0633333,0,0,0.0625,0,2.894988)"/>
<path style="fill-rule:nonzero;fill:rgb(100%,100%,0%);fill-opacity:1;stroke-width:0.5;stroke-linecap:butt;stroke-linejoin:miter;stroke:rgb(0%,0%,0%);stroke-opacity:1;stroke-miterlimit:4;" d="M 186.327678 139.0552 L 187.499553 139.0552 L 187.499553 139.9302 L 188.363039 139.9302 L 188.363039 138.9927 L 189.596592 139.0552 L 189.596592 139.9302 L 190.460079 139.9302 L 190.460079 138.9927 L 191.693632 139.0552 L 191.693632 141.0552 C 191.693632 141.3677 191.446921 141.5552 191.200211 141.5552 L 186.882776 141.5552 C 186.574388 141.5552 186.327678 141.3052 186.327678 141.0552 Z M 186.327678 139.0552 " transform="matrix(0.0633333,0,0,0.0625,0.671903,2.894988)"/>
<path style=" stroke:none;fill-rule:nonzero;fill:rgb(0%,0%,0%);fill-opacity:1;" d="M 12.28125 11.683594 C 12.277344 11.644531 12.335938 11.644531 12.335938 11.683594 L 12.335938 11.777344 L 12.28125 11.777344 L 12.28125 11.683594 "/>
<path style=" stroke:none;fill-rule:nonzero;fill:rgb(0%,0%,0%);fill-opacity:1;" d="M 11.941406 11.824219 C 11.941406 11.785156 11.996094 11.785156 11.996094 11.824219 L 11.996094 11.898438 L 11.941406 11.898438 L 11.941406 11.824219 "/>
<path style=" stroke:none;fill-rule:nonzero;fill:rgb(0%,0%,0%);fill-opacity:1;" d="M 12.617188 11.824219 C 12.617188 11.785156 12.667969 11.785156 12.667969 11.824219 L 12.667969 11.898438 L 12.617188 11.898438 L 12.617188 11.824219 "/>
<path style=" stroke:none;fill-rule:nonzero;fill:rgb(100%,100%,0%);fill-opacity:1;" d="M 13.1875 15.558594 C 12.945312 15.3125 13.0625 15.078125 13.0625 15.078125 C 13.0625 15.074219 13.316406 14.953125 13.5625 15.195312 L 13.1875 15.558594 "/>
<path style="fill-rule:nonzero;fill:rgb(100%,100%,0%);fill-opacity:1;stroke-width:0.5;stroke-linecap:butt;stroke-linejoin:miter;stroke:rgb(0%,0%,0%);stroke-opacity:1;stroke-miterlimit:4;" d="M 186.789088 147.68587 L 186.110268 154.009679 L 190.280719 154.040668 C 190.289837 148.816451 194.250124 147.926174 194.337932 147.925902 C 194.425741 147.925631 198.321182 149.09889 198.402546 154.059422 L 202.617346 154.046373 L 201.804316 147.639381 Z M 186.789088 147.68587 " transform="matrix(0.0446252,-0.0443497,0.0449411,0.0440381,-2.238292,17.194311)"/>
<path style="fill-rule:nonzero;fill:rgb(100%,100%,0%);fill-opacity:1;stroke-width:0.5;stroke-linecap:butt;stroke-linejoin:miter;stroke:rgb(0%,0%,0%);stroke-opacity:1;stroke-miterlimit:4;" d="M 185.845952 154.098299 L 202.792963 154.045829 C 203.144197 154.044741 203.447516 154.438909 203.44306 154.87793 C 203.482954 155.272913 203.128156 155.625218 202.776923 155.626305 L 185.874261 155.634737 C 185.523028 155.635825 185.175359 155.285695 185.179814 154.846674 C 185.18427 154.407653 185.494718 154.099386 185.845952 154.098299 Z M 185.845952 154.098299 " transform="matrix(0.0446252,-0.0443497,0.0449411,0.0440381,-2.238292,17.194311)"/>
<path style="fill-rule:nonzero;fill:rgb(100%,100%,0%);fill-opacity:1;stroke-width:0.5;stroke-linecap:butt;stroke-linejoin:miter;stroke:rgb(0%,0%,0%);stroke-opacity:1;stroke-miterlimit:4;" d="M 192.036886 154.03523 C 192.026399 150.742707 194.274869 149.81383 194.274869 149.81383 C 194.274869 149.81383 196.635892 150.772336 196.646379 154.064859 L 192.036886 154.03523 " transform="matrix(0.0446252,-0.0443497,0.0449411,0.0440381,-2.238292,17.194311)"/>
<path style="fill-rule:nonzero;fill:rgb(100%,100%,0%);fill-opacity:1;stroke-width:0.5;stroke-linecap:butt;stroke-linejoin:miter;stroke:rgb(0%,0%,0%);stroke-opacity:1;stroke-miterlimit:4;" d="M 186.201163 145.053646 L 202.489167 145.047117 C 202.79605 145.090067 203.056802 145.352664 203.096696 145.747648 C 203.048782 146.142903 202.826142 146.450897 202.474908 146.451985 L 186.186905 146.458514 C 185.835672 146.459601 185.61927 146.152966 185.579376 145.757983 C 185.58294 145.406766 185.84993 145.054733 186.201163 145.053646 Z M 186.201163 145.053646 " transform="matrix(0.0446252,-0.0443497,0.0449411,0.0440381,-2.238292,17.194311)"/>
<path style="fill-rule:nonzero;fill:rgb(100%,100%,0%);fill-opacity:1;stroke-width:0.5;stroke-linecap:butt;stroke-linejoin:miter;stroke:rgb(0%,0%,0%);stroke-opacity:1;stroke-miterlimit:4;" d="M 186.538139 146.457426 L 202.079325 146.49711 C 202.430559 146.496023 202.69131 146.75862 202.686855 147.197641 C 202.68329 147.548858 202.416301 147.900891 202.109417 147.85794 L 186.52388 147.862294 C 186.216106 147.907148 185.956245 147.556747 185.95981 147.20553 C 185.964265 146.766508 186.230364 146.50228 186.538139 146.457426 Z M 186.538139 146.457426 " transform="matrix(0.0446252,-0.0443497,0.0449411,0.0440381,-2.238292,17.194311)"/>
<path style="fill-rule:nonzero;fill:rgb(100%,100%,0%);fill-opacity:1;stroke-width:0.5;stroke-linecap:butt;stroke-linejoin:miter;stroke:rgb(0%,0%,0%);stroke-opacity:1;stroke-miterlimit:4;" d="M 191.562342 135.905692 L 192.791659 135.901886 L 192.782747 136.779928 L 193.705181 136.733172 L 193.714092 135.855129 L 194.943409 135.851323 L 194.934498 136.729365 L 195.85604 136.770413 L 195.821492 135.848604 L 197.094268 135.888564 L 197.118122 137.864024 C 197.114557 138.215241 196.84935 138.391665 196.585925 138.392481 L 192.152049 138.362308 C 191.844274 138.407161 191.583522 138.144564 191.586196 137.881152 Z M 191.562342 135.905692 " transform="matrix(0.0446252,-0.0443497,0.0449411,0.0440381,-2.238292,17.194311)"/>
<path style="fill-rule:nonzero;fill:rgb(100%,100%,0%);fill-opacity:1;stroke-width:0.5;stroke-linecap:butt;stroke-linejoin:miter;stroke:rgb(0%,0%,0%);stroke-opacity:1;stroke-miterlimit:4;" d="M 196.232909 138.569177 L 196.47474 145.021837 L 192.172131 145.035159 L 192.45715 138.580867 L 196.232909 138.569177 " transform="matrix(0.0446252,-0.0443497,0.0449411,0.0440381,-2.238292,17.194311)"/>
<path style="fill-rule:nonzero;fill:rgb(100%,100%,0%);fill-opacity:1;stroke-width:0.5;stroke-linecap:butt;stroke-linejoin:miter;stroke:rgb(0%,0%,0%);stroke-opacity:1;stroke-miterlimit:4;" d="M 190.93411 141.570833 L 191.030622 145.038693 L 186.94798 145.007433 L 187.070542 141.582795 Z M 190.93411 141.570833 " transform="matrix(0.0446252,-0.0443497,0.0449411,0.0440381,-2.238292,17.194311)"/>
<path style="fill-rule:nonzero;fill:rgb(100%,100%,0%);fill-opacity:1;stroke-width:0.5;stroke-linecap:butt;stroke-linejoin:miter;stroke:rgb(0%,0%,0%);stroke-opacity:1;stroke-miterlimit:4;" d="M 190.94992 141.537937 L 191.089891 145.049564 L 186.962899 145.062341 L 187.086353 141.549899 Z M 190.94992 141.537937 " transform="matrix(0.0446252,-0.0443497,0.0449411,0.0440381,-1.764863,16.723805)"/>
<path style="fill-rule:nonzero;fill:rgb(100%,100%,0%);fill-opacity:1;stroke-width:0.5;stroke-linecap:butt;stroke-linejoin:miter;stroke:rgb(0%,0%,0%);stroke-opacity:1;stroke-miterlimit:4;" d="M 186.30611 139.038919 L 187.535427 139.035113 L 187.526515 139.913155 L 188.404599 139.910436 L 188.370052 138.988628 L 189.642827 139.028588 L 189.633916 139.90663 L 190.511999 139.903912 L 190.520911 139.025869 L 191.750228 139.022063 L 191.729732 141.041561 C 191.682708 141.349012 191.46096 141.569202 191.197535 141.570017 L 186.851467 141.539573 C 186.588042 141.540388 186.28294 141.321829 186.329964 141.014378 Z M 186.30611 139.038919 " transform="matrix(0.0446252,-0.0443497,0.0449411,0.0440381,-2.238292,17.194311)"/>
<path style="fill-rule:nonzero;fill:rgb(100%,100%,0%);fill-opacity:1;stroke-width:0.5;stroke-linecap:butt;stroke-linejoin:miter;stroke:rgb(0%,0%,0%);stroke-opacity:1;stroke-miterlimit:4;" d="M 186.27757 139.050061 L 187.506887 139.046255 L 187.497976 139.924297 L 188.37606 139.921579 L 188.384971 139.043536 L 189.614288 139.03973 L 189.605376 139.917773 L 190.48346 139.915054 L 190.492371 139.037011 L 191.721688 139.033205 L 191.701192 141.052703 C 191.741977 141.359882 191.47677 141.536306 191.168995 141.58116 L 186.822928 141.550715 C 186.559502 141.551531 186.298751 141.288933 186.301424 141.025521 Z M 186.27757 139.050061 " transform="matrix(0.0446252,-0.0443497,0.0449411,0.0440381,-1.764863,16.723805)"/>
<path style=" stroke:none;fill-rule:nonzero;fill:rgb(0%,0%,0%);fill-opacity:1;" d="M 12.734375 14.785156 C 12.703125 14.761719 12.746094 14.71875 12.773438 14.75 L 12.839844 14.816406 L 12.804688 14.855469 L 12.734375 14.785156 "/>
<path style=" stroke:none;fill-rule:nonzero;fill:rgb(0%,0%,0%);fill-opacity:1;" d="M 12.597656 15.121094 C 12.570312 15.09375 12.605469 15.058594 12.632812 15.085938 L 12.6875 15.136719 L 12.648438 15.175781 L 12.597656 15.121094 "/>
<path style=" stroke:none;fill-rule:nonzero;fill:rgb(0%,0%,0%);fill-opacity:1;" d="M 13.070312 14.648438 C 13.042969 14.625 13.082031 14.585938 13.109375 14.613281 L 13.160156 14.664062 L 13.125 14.703125 L 13.070312 14.648438 "/>
<path style=" stroke:none;fill-rule:nonzero;fill:rgb(100%,100%,0%);fill-opacity:1;" d="M 14.941406 9.652344 C 14.949219 9.308594 15.195312 9.226562 15.199219 9.222656 C 15.199219 9.222656 15.46875 9.3125 15.464844 9.65625 L 14.941406 9.652344 "/>
<path style="fill-rule:nonzero;fill:rgb(100%,100%,0%);fill-opacity:1;stroke-width:0.5;stroke-linecap:butt;stroke-linejoin:miter;stroke:rgb(0%,0%,0%);stroke-opacity:1;stroke-miterlimit:4;" d="M 186.810871 147.6875 L 186.132417 154.0625 L 190.264818 154.0625 C 190.326496 148.8125 194.212187 147.9375 194.335542 147.9375 C 194.39722 147.9375 198.344588 149.125 198.406266 154.0625 L 202.600345 154.0625 L 201.860213 147.625 Z M 186.810871 147.6875 " transform="matrix(0.0633333,0,0,0.0625,2.895207,0)"/>
<path style="fill-rule:nonzero;fill:rgb(100%,100%,0%);fill-opacity:1;stroke-width:0.5;stroke-linecap:butt;stroke-linejoin:miter;stroke:rgb(0%,0%,0%);stroke-opacity:1;stroke-miterlimit:4;" d="M 185.824029 154.0625 L 202.785378 154.0625 C 203.155443 154.0625 203.463832 154.4375 203.463832 154.875 C 203.463832 155.25 203.155443 155.625 202.785378 155.625 L 185.824029 155.625 C 185.515641 155.625 185.207253 155.25 185.207253 154.875 C 185.207253 154.4375 185.515641 154.0625 185.824029 154.0625 Z M 185.824029 154.0625 " transform="matrix(0.0633333,0,0,0.0625,2.895207,0)"/>
<path style="fill-rule:nonzero;fill:rgb(100%,100%,0%);fill-opacity:1;stroke-width:0.5;stroke-linecap:butt;stroke-linejoin:miter;stroke:rgb(0%,0%,0%);stroke-opacity:1;stroke-miterlimit:4;" d="M 191.991792 154 C 192.05347 150.6875 194.273864 149.75 194.273864 149.8125 C 194.273864 149.8125 196.617614 150.75 196.617614 154 L 191.991792 154 " transform="matrix(0.0633333,0,0,0.0625,2.895207,0)"/>
<path style="fill-rule:nonzero;fill:rgb(100%,100%,0%);fill-opacity:1;stroke-width:0.5;stroke-linecap:butt;stroke-linejoin:miter;stroke:rgb(0%,0%,0%);stroke-opacity:1;stroke-miterlimit:4;" d="M 186.194095 145.0625 L 202.476989 145.0625 C 202.785378 145.0625 203.093766 145.375 203.093766 145.75 C 203.093766 146.125 202.785378 146.4375 202.476989 146.4375 L 186.194095 146.4375 C 185.885707 146.4375 185.577318 146.125 185.577318 145.75 C 185.577318 145.375 185.885707 145.0625 186.194095 145.0625 Z M 186.194095 145.0625 " transform="matrix(0.0633333,0,0,0.0625,2.895207,0)"/>
<path style="fill-rule:nonzero;fill:rgb(100%,100%,0%);fill-opacity:1;stroke-width:0.5;stroke-linecap:butt;stroke-linejoin:miter;stroke:rgb(0%,0%,0%);stroke-opacity:1;stroke-miterlimit:4;" d="M 186.564161 146.5 L 202.106924 146.5 C 202.415312 146.5 202.662022 146.8125 202.662022 147.1875 C 202.662022 147.5625 202.415312 147.875 202.106924 147.875 L 186.564161 147.875 C 186.194095 147.875 185.947384 147.5625 185.947384 147.1875 C 185.947384 146.8125 186.194095 146.5 186.564161 146.5 Z M 186.564161 146.5 " transform="matrix(0.0633333,0,0,0.0625,2.895207,0)"/>
<path style="fill-rule:nonzero;fill:rgb(100%,100%,0%);fill-opacity:1;stroke-width:0.5;stroke-linecap:butt;stroke-linejoin:miter;stroke:rgb(0%,0%,0%);stroke-opacity:1;stroke-miterlimit:4;" d="M 191.560049 135.875 L 192.793601 135.875 L 192.793601 136.75 L 193.718766 136.75 L 193.718766 135.875 L 194.952318 135.875 L 194.952318 136.75 L 195.815805 136.75 L 195.815805 135.875 L 197.111036 135.875 L 197.111036 137.875 C 197.111036 138.1875 196.864325 138.375 196.555937 138.375 L 192.115147 138.375 C 191.868437 138.375 191.560049 138.1875 191.560049 137.875 Z M 191.560049 135.875 " transform="matrix(0.0633333,0,0,0.0625,2.895207,0)"/>
<path style="fill-rule:nonzero;fill:rgb(100%,100%,0%);fill-opacity:1;stroke-width:0.5;stroke-linecap:butt;stroke-linejoin:miter;stroke:rgb(0%,0%,0%);stroke-opacity:1;stroke-miterlimit:4;" d="M 196.185871 138.5625 L 196.494259 145 L 192.176825 145 L 192.423536 138.5625 L 196.185871 138.5625 " transform="matrix(0.0633333,0,0,0.0625,2.895207,0)"/>
<path style="fill-rule:nonzero;fill:rgb(100%,100%,0%);fill-opacity:1;stroke-width:0.5;stroke-linecap:butt;stroke-linejoin:miter;stroke:rgb(0%,0%,0%);stroke-opacity:1;stroke-miterlimit:4;" d="M 190.943272 141.5625 L 191.066628 145.0625 L 186.934226 145.0625 L 187.057582 141.5625 Z M 190.943272 141.5625 " transform="matrix(0.0633333,0,0,0.0625,2.895207,0)"/>
<path style="fill-rule:nonzero;fill:rgb(100%,100%,0%);fill-opacity:1;stroke-width:0.5;stroke-linecap:butt;stroke-linejoin:miter;stroke:rgb(0%,0%,0%);stroke-opacity:1;stroke-miterlimit:4;" d="M 190.942825 141.5625 L 191.06618 145.0625 L 186.933779 145.0625 L 187.057134 141.5625 Z M 190.942825 141.5625 " transform="matrix(0.0633333,0,0,0.0625,3.567111,0)"/>
<path style="fill-rule:nonzero;fill:rgb(100%,100%,0%);fill-opacity:1;stroke-width:0.5;stroke-linecap:butt;stroke-linejoin:miter;stroke:rgb(0%,0%,0%);stroke-opacity:1;stroke-miterlimit:4;" d="M 186.31745 139.0625 L 187.489325 139.0625 L 187.489325 139.9375 L 188.352812 139.9375 L 188.352812 139 L 189.586364 139 L 189.586364 139.9375 L 190.511529 139.9375 L 190.511529 139 L 191.745082 139 L 191.683404 141.0625 C 191.683404 141.375 191.436693 141.5625 191.189983 141.5625 L 186.872549 141.5625 C 186.564161 141.5625 186.31745 141.3125 186.31745 141 Z M 186.31745 139.0625 " transform="matrix(0.0633333,0,0,0.0625,2.895207,0)"/>
<path style="fill-rule:nonzero;fill:rgb(100%,100%,0%);fill-opacity:1;stroke-width:0.5;stroke-linecap:butt;stroke-linejoin:miter;stroke:rgb(0%,0%,0%);stroke-opacity:1;stroke-miterlimit:4;" d="M 186.317003 139.0625 L 187.488878 139.0625 L 187.488878 139.9375 L 188.352364 139.9375 L 188.352364 139 L 189.585917 139 L 189.585917 139.9375 L 190.511082 139.9375 L 190.511082 139 L 191.744634 139 L 191.682957 141.0625 C 191.682957 141.375 191.436246 141.5625 191.189536 141.5625 L 186.872101 141.5625 C 186.563713 141.5625 186.317003 141.3125 186.317003 141 Z M 186.317003 139.0625 " transform="matrix(0.0633333,0,0,0.0625,3.567111,0)"/>
<path style=" stroke:none;fill-rule:nonzero;fill:rgb(0%,0%,0%);fill-opacity:1;" d="M 15.175781 8.789062 C 15.175781 8.75 15.230469 8.75 15.230469 8.789062 L 15.230469 8.882812 L 15.175781 8.882812 L 15.175781 8.789062 "/>
<path style=" stroke:none;fill-rule:nonzero;fill:rgb(0%,0%,0%);fill-opacity:1;" d="M 14.839844 8.925781 C 14.835938 8.890625 14.890625 8.890625 14.890625 8.925781 L 14.890625 9 L 14.839844 9 L 14.839844 8.925781 "/>
<path style=" stroke:none;fill-rule:nonzero;fill:rgb(0%,0%,0%);fill-opacity:1;" d="M 15.511719 8.925781 C 15.511719 8.890625 15.566406 8.890625 15.5625 8.925781 L 15.5625 9 L 15.511719 9 L 15.511719 8.925781 "/>
<path style=" stroke:none;fill-rule:nonzero;fill:rgb(100%,100%,0%);fill-opacity:1;" d="M 18.339844 9.652344 C 18.332031 9.308594 18.085938 9.226562 18.082031 9.222656 C 18.082031 9.222656 17.816406 9.3125 17.816406 9.65625 L 18.339844 9.652344 "/>
<path style="fill-rule:nonzero;fill:rgb(100%,100%,0%);fill-opacity:1;stroke-width:0.5;stroke-linecap:butt;stroke-linejoin:miter;stroke:rgb(0%,0%,0%);stroke-opacity:1;stroke-miterlimit:4;" d="M 186.8232 147.6875 L 186.144746 154.0625 L 190.277147 154.0625 C 190.338825 148.8125 194.224516 147.9375 194.347871 147.9375 C 194.409549 147.9375 198.356917 149.125 198.418595 154.0625 L 202.612674 154.0625 L 201.810864 147.625 Z M 186.8232 147.6875 " transform="matrix(-0.0633333,0,0,0.0625,30.386824,0)"/>
<path style="fill-rule:nonzero;fill:rgb(100%,100%,0%);fill-opacity:1;stroke-width:0.5;stroke-linecap:butt;stroke-linejoin:miter;stroke:rgb(0%,0%,0%);stroke-opacity:1;stroke-miterlimit:4;" d="M 185.836358 154.0625 L 202.797707 154.0625 C 203.167772 154.0625 203.414483 154.4375 203.414483 154.875 C 203.414483 155.25 203.167772 155.625 202.797707 155.625 L 185.836358 155.625 C 185.466292 155.625 185.219582 155.25 185.219582 154.875 C 185.219582 154.4375 185.466292 154.0625 185.836358 154.0625 Z M 185.836358 154.0625 " transform="matrix(-0.0633333,0,0,0.0625,30.386824,0)"/>
<path style="fill-rule:nonzero;fill:rgb(100%,100%,0%);fill-opacity:1;stroke-width:0.5;stroke-linecap:butt;stroke-linejoin:miter;stroke:rgb(0%,0%,0%);stroke-opacity:1;stroke-miterlimit:4;" d="M 192.004121 154 C 192.004121 150.6875 194.286193 149.75 194.286193 149.8125 C 194.286193 149.8125 196.629943 150.75 196.629943 154 L 192.004121 154 " transform="matrix(-0.0633333,0,0,0.0625,30.386824,0)"/>
<path style="fill-rule:nonzero;fill:rgb(100%,100%,0%);fill-opacity:1;stroke-width:0.5;stroke-linecap:butt;stroke-linejoin:miter;stroke:rgb(0%,0%,0%);stroke-opacity:1;stroke-miterlimit:4;" d="M 186.206424 145.0625 L 202.427641 145.0625 C 202.797707 145.0625 203.106095 145.375 203.106095 145.75 C 203.106095 146.125 202.797707 146.4375 202.427641 146.4375 L 186.206424 146.4375 C 185.898036 146.4375 185.589647 146.125 185.589647 145.75 C 185.589647 145.375 185.898036 145.0625 186.206424 145.0625 Z M 186.206424 145.0625 " transform="matrix(-0.0633333,0,0,0.0625,30.386824,0)"/>
<path style="fill-rule:nonzero;fill:rgb(100%,100%,0%);fill-opacity:1;stroke-width:0.5;stroke-linecap:butt;stroke-linejoin:miter;stroke:rgb(0%,0%,0%);stroke-opacity:1;stroke-miterlimit:4;" d="M 186.576489 146.5 L 202.057575 146.5 C 202.427641 146.5 202.674351 146.8125 202.674351 147.1875 C 202.674351 147.5625 202.427641 147.875 202.057575 147.875 L 186.576489 147.875 C 186.206424 147.875 185.959713 147.5625 185.959713 147.1875 C 185.959713 146.8125 186.206424 146.5 186.576489 146.5 Z M 186.576489 146.5 " transform="matrix(-0.0633333,0,0,0.0625,30.386824,0)"/>
<path style="fill-rule:nonzero;fill:rgb(100%,100%,0%);fill-opacity:1;stroke-width:0.5;stroke-linecap:butt;stroke-linejoin:miter;stroke:rgb(0%,0%,0%);stroke-opacity:1;stroke-miterlimit:4;" d="M 191.572378 135.875 L 192.80593 135.875 L 192.80593 136.75 L 193.669417 136.75 L 193.669417 135.875 L 194.964647 135.875 L 194.964647 136.75 L 195.828134 136.75 L 195.828134 135.875 L 197.123364 135.875 L 197.123364 137.875 C 197.123364 138.1875 196.876654 138.375 196.568266 138.375 L 192.127476 138.375 C 191.819088 138.375 191.572378 138.1875 191.572378 137.875 Z M 191.572378 135.875 " transform="matrix(-0.0633333,0,0,0.0625,30.386824,0)"/>
<path style="fill-rule:nonzero;fill:rgb(100%,100%,0%);fill-opacity:1;stroke-width:0.5;stroke-linecap:butt;stroke-linejoin:miter;stroke:rgb(0%,0%,0%);stroke-opacity:1;stroke-miterlimit:4;" d="M 196.1982 138.5625 L 196.444911 145 L 192.189154 145 L 192.435864 138.5625 L 196.1982 138.5625 " transform="matrix(-0.0633333,0,0,0.0625,30.386824,0)"/>
<path style="fill-rule:nonzero;fill:rgb(100%,100%,0%);fill-opacity:1;stroke-width:0.5;stroke-linecap:butt;stroke-linejoin:miter;stroke:rgb(0%,0%,0%);stroke-opacity:1;stroke-miterlimit:4;" d="M 190.955601 141.5625 L 191.078957 145.0625 L 186.946555 145.0625 L 187.069911 141.5625 Z M 190.955601 141.5625 " transform="matrix(-0.0633333,0,0,0.0625,30.386824,0)"/>
<path style="fill-rule:nonzero;fill:rgb(100%,100%,0%);fill-opacity:1;stroke-width:0.5;stroke-linecap:butt;stroke-linejoin:miter;stroke:rgb(0%,0%,0%);stroke-opacity:1;stroke-miterlimit:4;" d="M 190.955154 141.5625 L 191.078509 145.0625 L 186.946108 145.0625 L 187.069463 141.5625 Z M 190.955154 141.5625 " transform="matrix(-0.0633333,0,0,0.0625,29.71492,0)"/>
<path style="fill-rule:nonzero;fill:rgb(100%,100%,0%);fill-opacity:1;stroke-width:0.5;stroke-linecap:butt;stroke-linejoin:miter;stroke:rgb(0%,0%,0%);stroke-opacity:1;stroke-miterlimit:4;" d="M 186.329779 139.0625 L 187.501654 139.0625 L 187.501654 139.9375 L 188.365141 139.9375 L 188.365141 139 L 189.598693 139 L 189.598693 139.9375 L 190.46218 139.9375 L 190.46218 139 L 191.695733 139 L 191.695733 141.0625 C 191.695733 141.375 191.449022 141.5625 191.202312 141.5625 L 186.884878 141.5625 C 186.576489 141.5625 186.329779 141.3125 186.329779 141 L 186.268101 139.0625 Z M 186.329779 139.0625 " transform="matrix(-0.0633333,0,0,0.0625,30.386824,0)"/>
<path style="fill-rule:nonzero;fill:rgb(100%,100%,0%);fill-opacity:1;stroke-width:0.5;stroke-linecap:butt;stroke-linejoin:miter;stroke:rgb(0%,0%,0%);stroke-opacity:1;stroke-miterlimit:4;" d="M 186.329332 139.0625 L 187.501207 139.0625 L 187.501207 139.9375 L 188.364693 139.9375 L 188.364693 139 L 189.598246 139 L 189.598246 139.9375 L 190.461733 139.9375 L 190.461733 139 L 191.695286 139 L 191.695286 141.0625 C 191.695286 141.375 191.448575 141.5625 191.201864 141.5625 L 186.88443 141.5625 C 186.576042 141.5625 186.329332 141.3125 186.329332 141 Z M 186.329332 139.0625 " transform="matrix(-0.0633333,0,0,0.0625,29.71492,0)"/>
<path style=" stroke:none;fill-rule:nonzero;fill:rgb(0%,0%,0%);fill-opacity:1;" d="M 18.105469 8.789062 C 18.109375 8.75 18.050781 8.75 18.050781 8.789062 L 18.050781 8.882812 L 18.105469 8.882812 L 18.105469 8.789062 "/>
<path style=" stroke:none;fill-rule:nonzero;fill:rgb(0%,0%,0%);fill-opacity:1;" d="M 18.445312 8.925781 C 18.445312 8.890625 18.390625 8.890625 18.390625 8.925781 L 18.390625 9 L 18.445312 9 L 18.445312 8.925781 "/>
<path style=" stroke:none;fill-rule:nonzero;fill:rgb(0%,0%,0%);fill-opacity:1;" d="M 17.769531 8.925781 C 17.769531 8.890625 17.71875 8.890625 17.71875 8.925781 L 17.71875 9 L 17.769531 9 L 17.769531 8.925781 "/>
<path style=" stroke:none;fill-rule:nonzero;fill:rgb(100%,100%,0%);fill-opacity:1;" d="M 18.339844 12.546875 C 18.332031 12.203125 18.085938 12.121094 18.082031 12.117188 C 18.082031 12.117188 17.816406 12.207031 17.816406 12.550781 L 18.339844 12.546875 "/>
<path style="fill-rule:nonzero;fill:rgb(100%,100%,0%);fill-opacity:1;stroke-width:0.5;stroke-linecap:butt;stroke-linejoin:miter;stroke:rgb(0%,0%,0%);stroke-opacity:1;stroke-miterlimit:4;" d="M 186.8232 147.6802 L 186.144746 154.0552 L 190.277147 154.0552 C 190.338825 148.8052 194.224516 147.9302 194.347871 147.9302 C 194.409549 147.9302 198.356917 149.1177 198.418595 154.0552 L 202.612674 154.0552 L 201.810864 147.6802 Z M 186.8232 147.6802 " transform="matrix(-0.0633333,0,0,0.0625,30.386824,2.894988)"/>
<path style="fill-rule:nonzero;fill:rgb(100%,100%,0%);fill-opacity:1;stroke-width:0.5;stroke-linecap:butt;stroke-linejoin:miter;stroke:rgb(0%,0%,0%);stroke-opacity:1;stroke-miterlimit:4;" d="M 185.836358 154.0552 L 202.797707 154.0552 C 203.167772 154.0552 203.414483 154.4302 203.414483 154.8677 C 203.414483 155.3052 203.167772 155.6177 202.797707 155.6177 L 185.836358 155.6177 C 185.466292 155.6177 185.219582 155.3052 185.219582 154.8677 C 185.219582 154.4302 185.466292 154.0552 185.836358 154.0552 Z M 185.836358 154.0552 " transform="matrix(-0.0633333,0,0,0.0625,30.386824,2.894988)"/>
<path style="fill-rule:nonzero;fill:rgb(100%,100%,0%);fill-opacity:1;stroke-width:0.5;stroke-linecap:butt;stroke-linejoin:miter;stroke:rgb(0%,0%,0%);stroke-opacity:1;stroke-miterlimit:4;" d="M 192.004121 154.0552 C 192.004121 150.7427 194.286193 149.8052 194.286193 149.8052 C 194.286193 149.8052 196.629943 150.7427 196.629943 154.0552 L 192.004121 154.0552 " transform="matrix(-0.0633333,0,0,0.0625,30.386824,2.894988)"/>
<path style="fill-rule:nonzero;fill:rgb(100%,100%,0%);fill-opacity:1;stroke-width:0.5;stroke-linecap:butt;stroke-linejoin:miter;stroke:rgb(0%,0%,0%);stroke-opacity:1;stroke-miterlimit:4;" d="M 186.206424 145.0552 L 202.427641 145.0552 C 202.797707 145.0552 203.106095 145.3677 203.106095 145.7427 C 203.106095 146.1177 202.797707 146.4302 202.427641 146.4302 L 186.206424 146.4302 C 185.898036 146.4302 185.589647 146.1177 185.589647 145.7427 C 185.589647 145.3677 185.898036 145.0552 186.206424 145.0552 Z M 186.206424 145.0552 " transform="matrix(-0.0633333,0,0,0.0625,30.386824,2.894988)"/>
<path style="fill-rule:nonzero;fill:rgb(100%,100%,0%);fill-opacity:1;stroke-width:0.5;stroke-linecap:butt;stroke-linejoin:miter;stroke:rgb(0%,0%,0%);stroke-opacity:1;stroke-miterlimit:4;" d="M 186.576489 146.4927 L 202.057575 146.4927 C 202.427641 146.4927 202.674351 146.8052 202.674351 147.1802 C 202.674351 147.5552 202.427641 147.8677 202.057575 147.8677 L 186.576489 147.8677 C 186.206424 147.8677 185.959713 147.5552 185.959713 147.1802 C 185.959713 146.8052 186.206424 146.4927 186.576489 146.4927 Z M 186.576489 146.4927 " transform="matrix(-0.0633333,0,0,0.0625,30.386824,2.894988)"/>
<path style="fill-rule:nonzero;fill:rgb(100%,100%,0%);fill-opacity:1;stroke-width:0.5;stroke-linecap:butt;stroke-linejoin:miter;stroke:rgb(0%,0%,0%);stroke-opacity:1;stroke-miterlimit:4;" d="M 191.572378 135.8677 L 192.80593 135.8677 L 192.80593 136.7427 L 193.669417 136.7427 L 193.669417 135.8677 L 194.964647 135.8677 L 194.964647 136.7427 L 195.828134 136.7427 L 195.828134 135.8677 L 197.123364 135.8677 L 197.123364 137.8677 C 197.123364 138.1802 196.876654 138.3677 196.568266 138.3677 L 192.127476 138.3677 C 191.819088 138.3677 191.572378 138.1802 191.572378 137.8677 Z M 191.572378 135.8677 " transform="matrix(-0.0633333,0,0,0.0625,30.386824,2.894988)"/>
<path style="fill-rule:nonzero;fill:rgb(100%,100%,0%);fill-opacity:1;stroke-width:0.5;stroke-linecap:butt;stroke-linejoin:miter;stroke:rgb(0%,0%,0%);stroke-opacity:1;stroke-miterlimit:4;" d="M 196.1982 138.5552 L 196.444911 144.9927 L 192.189154 144.9927 L 192.435864 138.5552 L 196.1982 138.5552 " transform="matrix(-0.0633333,0,0,0.0625,30.386824,2.894988)"/>
<path style="fill-rule:nonzero;fill:rgb(100%,100%,0%);fill-opacity:1;stroke-width:0.5;stroke-linecap:butt;stroke-linejoin:miter;stroke:rgb(0%,0%,0%);stroke-opacity:1;stroke-miterlimit:4;" d="M 190.955601 141.5552 L 191.078957 145.0552 L 186.946555 145.0552 L 187.069911 141.5552 Z M 190.955601 141.5552 " transform="matrix(-0.0633333,0,0,0.0625,30.386824,2.894988)"/>
<path style="fill-rule:nonzero;fill:rgb(100%,100%,0%);fill-opacity:1;stroke-width:0.5;stroke-linecap:butt;stroke-linejoin:miter;stroke:rgb(0%,0%,0%);stroke-opacity:1;stroke-miterlimit:4;" d="M 190.955154 141.5552 L 191.078509 145.0552 L 186.946108 145.0552 L 187.069463 141.5552 Z M 190.955154 141.5552 " transform="matrix(-0.0633333,0,0,0.0625,29.71492,2.894988)"/>
<path style="fill-rule:nonzero;fill:rgb(100%,100%,0%);fill-opacity:1;stroke-width:0.5;stroke-linecap:butt;stroke-linejoin:miter;stroke:rgb(0%,0%,0%);stroke-opacity:1;stroke-miterlimit:4;" d="M 186.329779 139.0552 L 187.501654 139.0552 L 187.501654 139.9302 L 188.365141 139.9302 L 188.365141 138.9927 L 189.598693 139.0552 L 189.598693 139.9302 L 190.46218 139.9302 L 190.46218 138.9927 L 191.695733 139.0552 L 191.695733 141.0552 C 191.695733 141.3677 191.449022 141.5552 191.202312 141.5552 L 186.884878 141.5552 C 186.576489 141.5552 186.329779 141.3052 186.329779 141.0552 L 186.268101 139.0552 Z M 186.329779 139.0552 " transform="matrix(-0.0633333,0,0,0.0625,30.386824,2.894988)"/>
<path style="fill-rule:nonzero;fill:rgb(100%,100%,0%);fill-opacity:1;stroke-width:0.5;stroke-linecap:butt;stroke-linejoin:miter;stroke:rgb(0%,0%,0%);stroke-opacity:1;stroke-miterlimit:4;" d="M 186.329332 139.0552 L 187.501207 139.0552 L 187.501207 139.9302 L 188.364693 139.9302 L 188.364693 138.9927 L 189.598246 139.0552 L 189.598246 139.9302 L 190.461733 139.9302 L 190.461733 138.9927 L 191.695286 139.0552 L 191.695286 141.0552 C 191.695286 141.3677 191.448575 141.5552 191.201864 141.5552 L 186.88443 141.5552 C 186.576042 141.5552 186.329332 141.3052 186.329332 141.0552 Z M 186.329332 139.0552 " transform="matrix(-0.0633333,0,0,0.0625,29.71492,2.894988)"/>
<path style=" stroke:none;fill-rule:nonzero;fill:rgb(0%,0%,0%);fill-opacity:1;" d="M 18.105469 11.683594 C 18.109375 11.644531 18.050781 11.644531 18.050781 11.683594 L 18.050781 11.777344 L 18.105469 11.777344 L 18.105469 11.683594 "/>
<path style=" stroke:none;fill-rule:nonzero;fill:rgb(0%,0%,0%);fill-opacity:1;" d="M 18.445312 11.824219 C 18.445312 11.785156 18.390625 11.785156 18.390625 11.824219 L 18.390625 11.898438 L 18.445312 11.898438 L 18.445312 11.824219 "/>
<path style=" stroke:none;fill-rule:nonzero;fill:rgb(0%,0%,0%);fill-opacity:1;" d="M 17.769531 11.824219 C 17.769531 11.785156 17.71875 11.785156 17.71875 11.824219 L 17.71875 11.898438 L 17.769531 11.898438 L 17.769531 11.824219 "/>
<path style=" stroke:none;fill-rule:nonzero;fill:rgb(100%,100%,0%);fill-opacity:1;" d="M 17.199219 15.558594 C 17.441406 15.3125 17.324219 15.078125 17.324219 15.078125 C 17.324219 15.074219 17.070312 14.953125 16.824219 15.195312 L 17.199219 15.558594 "/>
<path style="fill-rule:nonzero;fill:rgb(100%,100%,0%);fill-opacity:1;stroke-width:0.5;stroke-linecap:butt;stroke-linejoin:miter;stroke:rgb(0%,0%,0%);stroke-opacity:1;stroke-miterlimit:4;" d="M 186.790253 147.687044 L 186.111433 154.010853 L 190.281884 154.041841 C 190.291002 148.817624 194.251289 147.927348 194.339098 147.927076 C 194.426906 147.926804 198.322347 149.100064 198.403711 154.060596 L 202.618512 154.047546 L 201.805481 147.640555 Z M 186.790253 147.687044 " transform="matrix(-0.0446252,-0.0443497,-0.0449411,0.0440381,32.625116,17.194311)"/>
<path style="fill-rule:nonzero;fill:rgb(100%,100%,0%);fill-opacity:1;stroke-width:0.5;stroke-linecap:butt;stroke-linejoin:miter;stroke:rgb(0%,0%,0%);stroke-opacity:1;stroke-miterlimit:4;" d="M 185.847117 154.099473 L 202.794129 154.047002 C 203.145362 154.045915 203.448681 154.440083 203.444225 154.879104 C 203.48412 155.274087 203.129322 155.626391 202.778088 155.627479 L 185.875426 155.635911 C 185.524193 155.636999 185.176524 155.286869 185.18098 154.847848 C 185.185435 154.408826 185.452425 154.056794 185.847117 154.099473 Z M 185.847117 154.099473 " transform="matrix(-0.0446252,-0.0443497,-0.0449411,0.0440381,32.625116,17.194311)"/>
<path style="fill-rule:nonzero;fill:rgb(100%,100%,0%);fill-opacity:1;stroke-width:0.5;stroke-linecap:butt;stroke-linejoin:miter;stroke:rgb(0%,0%,0%);stroke-opacity:1;stroke-miterlimit:4;" d="M 192.038051 154.036404 C 192.027565 150.743881 194.276034 149.815003 194.276034 149.815003 C 194.276034 149.815003 196.637057 150.77351 196.647544 154.066033 L 192.038051 154.036404 " transform="matrix(-0.0446252,-0.0443497,-0.0449411,0.0440381,32.625116,17.194311)"/>
<path style="fill-rule:nonzero;fill:rgb(100%,100%,0%);fill-opacity:1;stroke-width:0.5;stroke-linecap:butt;stroke-linejoin:miter;stroke:rgb(0%,0%,0%);stroke-opacity:1;stroke-miterlimit:4;" d="M 186.202329 145.054819 L 202.490332 145.04829 C 202.797216 145.091241 203.057967 145.353838 203.097861 145.748821 C 203.049947 146.144076 202.827307 146.452071 202.476074 146.453158 L 186.188071 146.459687 C 185.836837 146.460775 185.620435 146.15414 185.580541 145.759156 C 185.584106 145.407939 185.851095 145.055907 186.202329 145.054819 Z M 186.202329 145.054819 " transform="matrix(-0.0446252,-0.0443497,-0.0449411,0.0440381,32.625116,17.194311)"/>
<path style="fill-rule:nonzero;fill:rgb(100%,100%,0%);fill-opacity:1;stroke-width:0.5;stroke-linecap:butt;stroke-linejoin:miter;stroke:rgb(0%,0%,0%);stroke-opacity:1;stroke-miterlimit:4;" d="M 186.539304 146.4586 L 202.080491 146.498284 C 202.388266 146.45343 202.692476 146.759794 202.68802 147.198815 C 202.684456 147.550032 202.417466 147.902064 202.110582 147.859114 L 186.525046 147.863468 C 186.217271 147.908322 185.95741 147.55792 185.960975 147.206703 C 185.965431 146.767682 186.231529 146.503454 186.539304 146.4586 Z M 186.539304 146.4586 " transform="matrix(-0.0446252,-0.0443497,-0.0449411,0.0440381,32.625116,17.194311)"/>
<path style="fill-rule:nonzero;fill:rgb(100%,100%,0%);fill-opacity:1;stroke-width:0.5;stroke-linecap:butt;stroke-linejoin:miter;stroke:rgb(0%,0%,0%);stroke-opacity:1;stroke-miterlimit:4;" d="M 191.563507 135.906866 L 192.792824 135.903059 L 192.783913 136.781102 L 193.706346 136.734345 L 193.715257 135.856303 L 194.944574 135.852497 L 194.935663 136.730539 L 195.857205 136.771587 L 195.822658 135.849778 L 197.095433 135.889738 L 197.119287 137.865198 C 197.115722 138.216415 196.850515 138.392839 196.58709 138.393654 L 192.153214 138.363481 C 191.845439 138.408335 191.584688 138.145738 191.587361 137.882325 Z M 191.563507 135.906866 " transform="matrix(-0.0446252,-0.0443497,-0.0449411,0.0440381,32.625116,17.194311)"/>
<path style="fill-rule:nonzero;fill:rgb(100%,100%,0%);fill-opacity:1;stroke-width:0.5;stroke-linecap:butt;stroke-linejoin:miter;stroke:rgb(0%,0%,0%);stroke-opacity:1;stroke-miterlimit:4;" d="M 196.190616 138.526584 L 196.475906 145.023011 L 192.173296 145.036333 L 192.458315 138.582041 L 196.190616 138.526584 " transform="matrix(-0.0446252,-0.0443497,-0.0449411,0.0440381,32.625116,17.194311)"/>
<path style="fill-rule:nonzero;fill:rgb(100%,100%,0%);fill-opacity:1;stroke-width:0.5;stroke-linecap:butt;stroke-linejoin:miter;stroke:rgb(0%,0%,0%);stroke-opacity:1;stroke-miterlimit:4;" d="M 190.935275 141.572007 L 191.031788 145.039867 L 186.949145 145.008606 L 187.071708 141.583969 Z M 190.935275 141.572007 " transform="matrix(-0.0446252,-0.0443497,-0.0449411,0.0440381,32.625116,17.194311)"/>
<path style="fill-rule:nonzero;fill:rgb(100%,100%,0%);fill-opacity:1;stroke-width:0.5;stroke-linecap:butt;stroke-linejoin:miter;stroke:rgb(0%,0%,0%);stroke-opacity:1;stroke-miterlimit:4;" d="M 190.951085 141.539111 L 191.091057 145.050737 L 186.964064 145.063515 L 187.087518 141.551073 Z M 190.951085 141.539111 " transform="matrix(-0.0446252,-0.0443497,-0.0449411,0.0440381,32.151687,16.723805)"/>
<path style="fill-rule:nonzero;fill:rgb(100%,100%,0%);fill-opacity:1;stroke-width:0.5;stroke-linecap:butt;stroke-linejoin:miter;stroke:rgb(0%,0%,0%);stroke-opacity:1;stroke-miterlimit:4;" d="M 186.307275 139.040092 L 187.536592 139.036286 L 187.527681 139.914329 L 188.405764 139.91161 L 188.371217 138.989801 L 189.643993 139.029762 L 189.635081 139.907804 L 190.513165 139.905085 L 190.522076 139.027043 L 191.751393 139.023237 L 191.730897 141.042734 C 191.683874 141.350185 191.462125 141.570376 191.1987 141.571191 L 186.852632 141.540746 C 186.589207 141.541562 186.284106 141.323003 186.331129 141.015552 Z M 186.307275 139.040092 " transform="matrix(-0.0446252,-0.0443497,-0.0449411,0.0440381,32.625116,17.194311)"/>
<path style="fill-rule:nonzero;fill:rgb(100%,100%,0%);fill-opacity:1;stroke-width:0.5;stroke-linecap:butt;stroke-linejoin:miter;stroke:rgb(0%,0%,0%);stroke-opacity:1;stroke-miterlimit:4;" d="M 186.278736 139.051235 L 187.508053 139.047429 L 187.499141 139.925471 L 188.377225 139.922752 L 188.386136 139.04471 L 189.615453 139.040904 L 189.606542 139.918946 L 190.484625 139.916228 L 190.493537 139.038185 L 191.722854 139.034379 L 191.702358 141.053877 C 191.743143 141.361056 191.477935 141.53748 191.170161 141.582333 L 186.824093 141.551889 C 186.560668 141.552704 186.299916 141.290107 186.30259 141.026694 Z M 186.278736 139.051235 " transform="matrix(-0.0446252,-0.0443497,-0.0449411,0.0440381,32.151687,16.723805)"/>
<path style=" stroke:none;fill-rule:nonzero;fill:rgb(0%,0%,0%);fill-opacity:1;" d="M 17.652344 14.785156 C 17.683594 14.761719 17.640625 14.71875 17.613281 14.75 L 17.546875 14.816406 L 17.585938 14.855469 L 17.652344 14.785156 "/>
<path style=" stroke:none;fill-rule:nonzero;fill:rgb(0%,0%,0%);fill-opacity:1;" d="M 17.789062 15.121094 C 17.816406 15.09375 17.78125 15.058594 17.753906 15.085938 L 17.699219 15.136719 L 17.738281 15.175781 L 17.789062 15.121094 "/>
<path style=" stroke:none;fill-rule:nonzero;fill:rgb(0%,0%,0%);fill-opacity:1;" d="M 17.316406 14.648438 C 17.34375 14.625 17.304688 14.585938 17.277344 14.613281 L 17.226562 14.664062 L 17.261719 14.703125 L 17.316406 14.648438 "/>
<path style=" stroke:none;fill-rule:nonzero;fill:rgb(0%,20%,60%);fill-opacity:1;" d="M 14.734375 12.648438 L 14.734375 12.652344 C 14.734375 12.789062 14.789062 12.914062 14.875 13.007812 C 14.960938 13.097656 15.078125 13.15625 15.210938 13.15625 C 15.339844 13.15625 15.460938 13.097656 15.546875 13.007812 C 15.632812 12.914062 15.683594 12.789062 15.683594 12.652344 L 15.683594 11.976562 L 14.734375 11.976562 L 14.734375 12.648438 "/>
<path style=" stroke:none;fill-rule:nonzero;fill:rgb(100%,100%,100%);fill-opacity:1;" d="M 15.046875 12.234375 C 15.046875 12.285156 15.003906 12.328125 14.953125 12.328125 C 14.898438 12.328125 14.855469 12.285156 14.855469 12.234375 C 14.855469 12.183594 14.898438 12.140625 14.953125 12.140625 C 15.003906 12.140625 15.046875 12.183594 15.046875 12.234375 Z M 15.046875 12.234375 "/>
<path style=" stroke:none;fill-rule:nonzero;fill:rgb(100%,100%,100%);fill-opacity:1;" d="M 15.574219 12.234375 C 15.574219 12.285156 15.53125 12.328125 15.476562 12.328125 C 15.425781 12.328125 15.382812 12.285156 15.382812 12.234375 C 15.382812 12.183594 15.425781 12.140625 15.476562 12.140625 C 15.53125 12.140625 15.574219 12.183594 15.574219 12.234375 Z M 15.574219 12.234375 "/>
<path style=" stroke:none;fill-rule:nonzero;fill:rgb(100%,100%,100%);fill-opacity:1;" d="M 15.308594 12.484375 C 15.308594 12.535156 15.265625 12.578125 15.214844 12.578125 C 15.164062 12.578125 15.121094 12.535156 15.121094 12.484375 C 15.121094 12.433594 15.164062 12.390625 15.214844 12.390625 C 15.265625 12.390625 15.308594 12.433594 15.308594 12.484375 Z M 15.308594 12.484375 "/>
<path style=" stroke:none;fill-rule:nonzero;fill:rgb(100%,100%,100%);fill-opacity:1;" d="M 15.046875 12.746094 C 15.046875 12.796875 15.003906 12.835938 14.953125 12.835938 C 14.898438 12.835938 14.855469 12.796875 14.855469 12.746094 C 14.855469 12.695312 14.898438 12.652344 14.953125 12.652344 C 15.003906 12.652344 15.046875 12.695312 15.046875 12.746094 Z M 15.046875 12.746094 "/>
<path style=" stroke:none;fill-rule:nonzero;fill:rgb(100%,100%,100%);fill-opacity:1;" d="M 15.570312 12.742188 C 15.570312 12.796875 15.53125 12.835938 15.476562 12.835938 C 15.425781 12.835938 15.382812 12.796875 15.382812 12.742188 C 15.382812 12.691406 15.425781 12.652344 15.476562 12.652344 C 15.53125 12.652344 15.570312 12.691406 15.570312 12.742188 Z M 15.570312 12.742188 "/>
<path style=" stroke:none;fill-rule:nonzero;fill:rgb(0%,20%,60%);fill-opacity:1;" d="M 14.734375 11.023438 C 14.734375 11.164062 14.789062 11.289062 14.875 11.378906 C 14.960938 11.472656 15.078125 11.527344 15.210938 11.527344 C 15.339844 11.527344 15.460938 11.472656 15.546875 11.382812 C 15.632812 11.289062 15.683594 11.164062 15.683594 11.023438 L 15.683594 10.351562 L 14.734375 10.351562 L 14.734375 11.023438 "/>
<path style=" stroke:none;fill-rule:nonzero;fill:rgb(100%,100%,100%);fill-opacity:1;" d="M 15.046875 10.609375 C 15.046875 10.660156 15.003906 10.699219 14.953125 10.699219 C 14.898438 10.699219 14.855469 10.660156 14.855469 10.609375 C 14.855469 10.554688 14.898438 10.515625 14.953125 10.515625 C 15.003906 10.515625 15.046875 10.554688 15.046875 10.609375 Z M 15.046875 10.609375 "/>
<path style=" stroke:none;fill-rule:nonzero;fill:rgb(100%,100%,100%);fill-opacity:1;" d="M 15.574219 10.609375 C 15.574219 10.660156 15.53125 10.699219 15.476562 10.699219 C 15.425781 10.699219 15.382812 10.660156 15.382812 10.609375 C 15.382812 10.554688 15.425781 10.515625 15.476562 10.515625 C 15.53125 10.515625 15.574219 10.554688 15.574219 10.609375 Z M 15.574219 10.609375 "/>
<path style=" stroke:none;fill-rule:nonzero;fill:rgb(100%,100%,100%);fill-opacity:1;" d="M 15.308594 10.859375 C 15.308594 10.910156 15.265625 10.949219 15.214844 10.949219 C 15.164062 10.949219 15.121094 10.910156 15.121094 10.859375 C 15.121094 10.804688 15.164062 10.765625 15.214844 10.765625 C 15.265625 10.765625 15.308594 10.804688 15.308594 10.859375 Z M 15.308594 10.859375 "/>
<path style=" stroke:none;fill-rule:nonzero;fill:rgb(100%,100%,100%);fill-opacity:1;" d="M 15.046875 11.117188 C 15.046875 11.171875 15.003906 11.210938 14.953125 11.210938 C 14.898438 11.210938 14.855469 11.171875 14.855469 11.117188 C 14.855469 11.066406 14.898438 11.027344 14.953125 11.027344 C 15.003906 11.027344 15.046875 11.066406 15.046875 11.117188 Z M 15.046875 11.117188 "/>
<path style=" stroke:none;fill-rule:nonzero;fill:rgb(100%,100%,100%);fill-opacity:1;" d="M 15.570312 11.117188 C 15.570312 11.167969 15.53125 11.210938 15.476562 11.210938 C 15.425781 11.210938 15.382812 11.167969 15.382812 11.117188 C 15.382812 11.066406 15.425781 11.023438 15.476562 11.023438 C 15.53125 11.023438 15.570312 11.066406 15.570312 11.117188 Z M 15.570312 11.117188 "/>
<path style=" stroke:none;fill-rule:nonzero;fill:rgb(0%,20%,60%);fill-opacity:1;" d="M 13.417969 12.648438 L 13.417969 12.652344 C 13.417969 12.789062 13.46875 12.914062 13.554688 13.007812 C 13.644531 13.097656 13.761719 13.15625 13.890625 13.15625 C 14.023438 13.15625 14.140625 13.097656 14.226562 13.007812 C 14.3125 12.914062 14.367188 12.789062 14.367188 12.652344 L 14.367188 11.976562 L 13.417969 11.976562 L 13.417969 12.648438 "/>
<path style=" stroke:none;fill-rule:nonzero;fill:rgb(100%,100%,100%);fill-opacity:1;" d="M 13.726562 12.234375 C 13.726562 12.285156 13.6875 12.328125 13.632812 12.328125 C 13.582031 12.328125 13.539062 12.285156 13.539062 12.234375 C 13.539062 12.183594 13.582031 12.140625 13.632812 12.140625 C 13.6875 12.140625 13.726562 12.183594 13.726562 12.234375 Z M 13.726562 12.234375 "/>
<path style=" stroke:none;fill-rule:nonzero;fill:rgb(100%,100%,100%);fill-opacity:1;" d="M 14.253906 12.234375 C 14.253906 12.285156 14.210938 12.328125 14.160156 12.328125 C 14.109375 12.328125 14.066406 12.285156 14.066406 12.234375 C 14.066406 12.183594 14.109375 12.140625 14.160156 12.140625 C 14.210938 12.140625 14.253906 12.183594 14.253906 12.234375 Z M 14.253906 12.234375 "/>
<path style=" stroke:none;fill-rule:nonzero;fill:rgb(100%,100%,100%);fill-opacity:1;" d="M 13.992188 12.484375 C 13.992188 12.535156 13.949219 12.578125 13.898438 12.578125 C 13.84375 12.578125 13.804688 12.535156 13.804688 12.484375 C 13.804688 12.433594 13.84375 12.390625 13.898438 12.390625 C 13.949219 12.390625 13.992188 12.433594 13.992188 12.484375 Z M 13.992188 12.484375 "/>
<path style=" stroke:none;fill-rule:nonzero;fill:rgb(100%,100%,100%);fill-opacity:1;" d="M 13.726562 12.746094 C 13.726562 12.796875 13.6875 12.835938 13.632812 12.835938 C 13.582031 12.835938 13.539062 12.796875 13.539062 12.746094 C 13.539062 12.695312 13.582031 12.652344 13.632812 12.652344 C 13.6875 12.652344 13.726562 12.695312 13.726562 12.746094 Z M 13.726562 12.746094 "/>
<path style=" stroke:none;fill-rule:nonzero;fill:rgb(100%,100%,100%);fill-opacity:1;" d="M 14.253906 12.742188 C 14.253906 12.796875 14.210938 12.835938 14.160156 12.835938 C 14.109375 12.835938 14.066406 12.796875 14.066406 12.742188 C 14.066406 12.691406 14.109375 12.652344 14.160156 12.652344 C 14.210938 12.652344 14.253906 12.691406 14.253906 12.742188 Z M 14.253906 12.742188 "/>
<path style=" stroke:none;fill-rule:nonzero;fill:rgb(0%,20%,60%);fill-opacity:1;" d="M 16.046875 12.648438 L 16.046875 12.652344 C 16.046875 12.789062 16.101562 12.914062 16.1875 13.007812 C 16.273438 13.097656 16.394531 13.15625 16.523438 13.15625 C 16.652344 13.15625 16.773438 13.097656 16.859375 13.007812 C 16.945312 12.914062 17 12.789062 17 12.652344 L 17 11.976562 L 16.050781 11.976562 L 16.046875 12.648438 "/>
<path style=" stroke:none;fill-rule:nonzero;fill:rgb(100%,100%,100%);fill-opacity:1;" d="M 16.359375 12.234375 C 16.359375 12.285156 16.316406 12.328125 16.265625 12.328125 C 16.214844 12.328125 16.171875 12.285156 16.171875 12.234375 C 16.171875 12.183594 16.214844 12.140625 16.265625 12.140625 C 16.316406 12.140625 16.359375 12.183594 16.359375 12.234375 Z M 16.359375 12.234375 "/>
<path style=" stroke:none;fill-rule:nonzero;fill:rgb(100%,100%,100%);fill-opacity:1;" d="M 16.886719 12.234375 C 16.886719 12.285156 16.84375 12.328125 16.792969 12.328125 C 16.738281 12.328125 16.699219 12.285156 16.699219 12.234375 C 16.699219 12.183594 16.738281 12.140625 16.792969 12.140625 C 16.84375 12.140625 16.886719 12.183594 16.886719 12.234375 Z M 16.886719 12.234375 "/>
<path style=" stroke:none;fill-rule:nonzero;fill:rgb(100%,100%,100%);fill-opacity:1;" d="M 16.621094 12.484375 C 16.621094 12.535156 16.578125 12.578125 16.527344 12.578125 C 16.476562 12.578125 16.433594 12.535156 16.433594 12.484375 C 16.433594 12.433594 16.476562 12.390625 16.527344 12.390625 C 16.578125 12.390625 16.621094 12.433594 16.621094 12.484375 Z M 16.621094 12.484375 "/>
<path style=" stroke:none;fill-rule:nonzero;fill:rgb(100%,100%,100%);fill-opacity:1;" d="M 16.359375 12.746094 C 16.359375 12.796875 16.316406 12.835938 16.265625 12.835938 C 16.214844 12.835938 16.171875 12.796875 16.171875 12.746094 C 16.171875 12.695312 16.214844 12.652344 16.265625 12.652344 C 16.316406 12.652344 16.359375 12.695312 16.359375 12.746094 Z M 16.359375 12.746094 "/>
<path style=" stroke:none;fill-rule:nonzero;fill:rgb(100%,100%,100%);fill-opacity:1;" d="M 16.886719 12.742188 C 16.886719 12.796875 16.84375 12.835938 16.792969 12.835938 C 16.738281 12.835938 16.699219 12.796875 16.699219 12.742188 C 16.699219 12.691406 16.738281 12.652344 16.792969 12.652344 C 16.84375 12.652344 16.886719 12.691406 16.886719 12.742188 Z M 16.886719 12.742188 "/>
<path style=" stroke:none;fill-rule:nonzero;fill:rgb(0%,20%,60%);fill-opacity:1;" d="M 14.734375 14.261719 C 14.734375 14.402344 14.789062 14.527344 14.875 14.617188 C 14.960938 14.710938 15.078125 14.765625 15.210938 14.765625 C 15.339844 14.765625 15.460938 14.710938 15.546875 14.617188 C 15.632812 14.527344 15.683594 14.402344 15.683594 14.261719 L 15.683594 13.589844 L 14.734375 13.589844 L 14.734375 14.261719 "/>
<path style=" stroke:none;fill-rule:nonzero;fill:rgb(100%,100%,100%);fill-opacity:1;" d="M 15.046875 13.84375 C 15.046875 13.894531 15.003906 13.9375 14.953125 13.9375 C 14.898438 13.9375 14.855469 13.894531 14.855469 13.84375 C 14.855469 13.792969 14.898438 13.753906 14.953125 13.753906 C 15.003906 13.753906 15.046875 13.792969 15.046875 13.84375 Z M 15.046875 13.84375 "/>
<path style=" stroke:none;fill-rule:nonzero;fill:rgb(100%,100%,100%);fill-opacity:1;" d="M 15.574219 13.84375 C 15.574219 13.898438 15.53125 13.9375 15.476562 13.9375 C 15.425781 13.9375 15.382812 13.898438 15.382812 13.84375 C 15.382812 13.792969 15.425781 13.753906 15.476562 13.753906 C 15.53125 13.753906 15.574219 13.792969 15.574219 13.84375 Z M 15.574219 13.84375 "/>
<path style=" stroke:none;fill-rule:nonzero;fill:rgb(100%,100%,100%);fill-opacity:1;" d="M 15.308594 14.09375 C 15.308594 14.144531 15.265625 14.1875 15.214844 14.1875 C 15.164062 14.1875 15.121094 14.144531 15.121094 14.09375 C 15.121094 14.042969 15.164062 14.003906 15.214844 14.003906 C 15.265625 14.003906 15.308594 14.042969 15.308594 14.09375 Z M 15.308594 14.09375 "/>
<path style=" stroke:none;fill-rule:nonzero;fill:rgb(100%,100%,100%);fill-opacity:1;" d="M 15.046875 14.355469 C 15.046875 14.40625 15.003906 14.449219 14.953125 14.449219 C 14.898438 14.449219 14.855469 14.40625 14.855469 14.355469 C 14.855469 14.304688 14.898438 14.261719 14.953125 14.261719 C 15.003906 14.261719 15.046875 14.304688 15.046875 14.355469 Z M 15.046875 14.355469 "/>
<path style=" stroke:none;fill-rule:nonzero;fill:rgb(100%,100%,100%);fill-opacity:1;" d="M 15.570312 14.355469 C 15.570312 14.40625 15.53125 14.449219 15.476562 14.449219 C 15.425781 14.449219 15.382812 14.40625 15.382812 14.355469 C 15.382812 14.304688 15.425781 14.261719 15.476562 14.261719 C 15.53125 14.261719 15.570312 14.304688 15.570312 14.355469 Z M 15.570312 14.355469 "/>
</g>
</svg>
