<?xml version="1.0" encoding="UTF-8"?>
<svg xmlns="http://www.w3.org/2000/svg" xmlns:xlink="http://www.w3.org/1999/xlink" width="38pt" height="25pt" viewBox="0 0 38 25" version="1.1">
<g id="surface1">
<path style=" stroke:none;fill-rule:nonzero;fill:rgb(0%,63.137255%,87.058824%);fill-opacity:1;" d="M 0 0 L 38 0 L 38 12.5 L 0 12.5 Z M 0 0 "/>
<path style=" stroke:none;fill-rule:nonzero;fill:rgb(98.039216%,82.352941%,0.392157%);fill-opacity:1;" d="M 0 12.5 L 38 12.5 L 38 18.75 L 0 18.75 Z M 0 12.5 "/>
<path style=" stroke:none;fill-rule:nonzero;fill:rgb(12.54902%,37.647059%,23.921569%);fill-opacity:1;" d="M 0 18.75 L 38 18.75 L 38 25 L 0 25 Z M 0 18.75 "/>
<path style=" stroke:none;fill-rule:nonzero;fill:rgb(89.803922%,74.509804%,0.392157%);fill-opacity:1;" d="M 35.277344 6.53125 L 32.449219 6.695312 L 35.136719 7.574219 L 32.363281 7.007812 L 34.730469 8.546875 L 32.195312 7.292969 L 34.082031 9.382812 L 31.960938 7.523438 L 33.234375 10.023438 L 31.675781 7.6875 L 32.25 10.425781 L 31.355469 7.769531 L 31.191406 10.5625 L 31.15625 6.496094 Z M 35.277344 6.53125 "/>
<path style=" stroke:none;fill-rule:nonzero;fill:rgb(89.803922%,74.509804%,0.392157%);fill-opacity:1;" d="M 35.277344 6.53125 L 32.449219 6.367188 L 35.136719 5.488281 L 32.363281 6.054688 L 34.730469 4.515625 L 32.195312 5.769531 L 34.082031 3.679688 L 31.960938 5.539062 L 33.234375 3.039062 L 31.675781 5.375 L 32.25 2.636719 L 31.355469 5.292969 L 31.191406 2.5 L 31.15625 6.566406 Z M 35.277344 6.53125 "/>
<path style=" stroke:none;fill-rule:nonzero;fill:rgb(89.803922%,74.509804%,0.392157%);fill-opacity:1;" d="M 27.105469 6.53125 L 29.9375 6.695312 L 27.246094 7.574219 L 30.019531 7.007812 L 27.652344 8.546875 L 30.1875 7.292969 L 28.304688 9.382812 L 30.421875 7.523438 L 29.148438 10.023438 L 30.707031 7.6875 L 30.132812 10.425781 L 31.027344 7.769531 L 31.191406 10.5625 L 31.226562 6.496094 Z M 27.105469 6.53125 "/>
<path style=" stroke:none;fill-rule:nonzero;fill:rgb(89.803922%,74.509804%,0.392157%);fill-opacity:1;" d="M 27.105469 6.53125 L 29.9375 6.367188 L 27.246094 5.488281 L 30.019531 6.054688 L 27.652344 4.515625 L 30.1875 5.769531 L 28.304688 3.679688 L 30.421875 5.539062 L 29.148438 3.039062 L 30.707031 5.375 L 30.132812 2.636719 L 31.027344 5.292969 L 31.191406 2.5 L 31.226562 6.566406 Z M 27.105469 6.53125 "/>
<path style="fill-rule:nonzero;fill:rgb(89.803922%,74.509804%,0.392157%);fill-opacity:1;stroke-width:3.4;stroke-linecap:butt;stroke-linejoin:miter;stroke:rgb(0%,63.137255%,87.058824%);stroke-opacity:1;stroke-miterlimit:4;" d="M 34.297697 0 C 34.297697 18.9 18.976974 34.3125 -0.00740132 34.3125 C -18.991776 34.3125 -34.3125 18.9 -34.3125 0 C -34.3125 -18.9 -18.991776 -34.3125 -0.00740132 -34.3125 C 18.976974 -34.3125 34.297697 -18.9 34.297697 0 Z M 34.297697 0 " transform="matrix(0.0351852,0,0,0.0347222,31.191667,6.53125)"/>
</g>
</svg>
