<?xml version="1.0" encoding="UTF-8"?>
<svg xmlns="http://www.w3.org/2000/svg" xmlns:xlink="http://www.w3.org/1999/xlink" width="50pt" height="25pt" viewBox="0 0 50 25" version="1.1">
<g id="surface1">
<rect x="0" y="0" width="50" height="25" style="fill:rgb(80.784314%,6.666667%,14.901961%);fill-opacity:1;stroke:none;"/>
<path style=" stroke:none;fill-rule:nonzero;fill:rgb(0%,16.862745%,49.803922%);fill-opacity:1;" d="M 0 0 L 25 0 L 25 12.5 L 0 12.5 Z M 0 0 "/>
<path style=" stroke:none;fill-rule:nonzero;fill:rgb(100%,100%,100%);fill-opacity:1;" d="M 12.5 0.519531 L 13.359375 3.164062 L 11.109375 1.53125 L 13.890625 1.53125 L 11.640625 3.164062 Z M 12.5 0.519531 "/>
<path style=" stroke:none;fill-rule:nonzero;fill:rgb(100%,100%,100%);fill-opacity:1;" d="M 8.679688 3.644531 L 9.539062 6.289062 L 7.292969 4.65625 L 10.070312 4.65625 L 7.820312 6.289062 Z M 8.679688 3.644531 "/>
<path style=" stroke:none;fill-rule:nonzero;fill:rgb(100%,100%,100%);fill-opacity:1;" d="M 16.40625 3.125 L 17.210938 5.601562 L 15.105469 4.070312 L 17.707031 4.070312 L 15.601562 5.601562 Z M 16.40625 3.125 "/>
<path style=" stroke:none;fill-rule:nonzero;fill:rgb(100%,100%,100%);fill-opacity:1;" d="M 14.410156 6.335938 L 14.945312 7.984375 L 13.542969 6.964844 L 15.277344 6.964844 L 13.875 7.984375 Z M 14.410156 6.335938 "/>
<path style=" stroke:none;fill-rule:nonzero;fill:rgb(100%,100%,100%);fill-opacity:1;" d="M 12.5 8.675781 L 13.574219 11.980469 L 10.765625 9.9375 L 14.234375 9.9375 L 11.425781 11.980469 Z M 12.5 8.675781 "/>
</g>
</svg>
