<?xml version="1.0" encoding="UTF-8"?>
<svg xmlns="http://www.w3.org/2000/svg" xmlns:xlink="http://www.w3.org/1999/xlink" width="38pt" height="25pt" viewBox="0 0 38 25" version="1.1">
<g id="surface1">
<rect x="0" y="0" width="38" height="25" style="fill:rgb(0%,42.352941%,20.784314%);fill-opacity:1;stroke:none;"/>
<path style=" stroke:none;fill-rule:evenodd;fill:rgb(100%,100%,100%);fill-opacity:1;" d="M 16.378906 5.90625 C 16.359375 5.902344 16.332031 5.914062 16.289062 5.9375 C 16.195312 6 16.011719 6.1875 16.007812 6.40625 C 16 6.527344 15.976562 6.527344 16.058594 6.605469 C 16.117188 6.691406 16.175781 6.679688 16.296875 6.621094 C 16.363281 6.570312 16.386719 6.539062 16.410156 6.457031 C 16.4375 6.316406 16.261719 6.523438 16.238281 6.367188 C 16.199219 6.222656 16.3125 6.164062 16.417969 6.023438 C 16.421875 5.960938 16.421875 5.90625 16.378906 5.90625 Z M 18.105469 5.914062 C 18.070312 5.917969 18.03125 5.960938 17.976562 6.0625 C 17.933594 6.167969 17.761719 6.324219 17.886719 6.65625 C 17.988281 6.863281 18.03125 7.203125 17.984375 7.578125 C 17.914062 7.6875 17.898438 7.722656 17.804688 7.832031 C 17.671875 7.96875 17.53125 7.933594 17.421875 7.882812 C 17.320312 7.816406 17.242188 7.78125 17.195312 7.566406 C 17.203125 7.222656 17.222656 6.664062 17.160156 6.542969 C 17.066406 6.359375 16.914062 6.425781 16.847656 6.480469 C 16.53125 6.765625 16.375 7.25 16.277344 7.632812 C 16.191406 7.914062 16.097656 7.832031 16.03125 7.71875 C 15.871094 7.570312 15.859375 6.414062 15.667969 6.605469 C 15.359375 7.476562 15.84375 8.433594 16.179688 8.339844 C 16.425781 8.4375 16.578125 7.980469 16.679688 7.480469 C 16.746094 7.339844 16.800781 7.324219 16.832031 7.398438 C 16.824219 8.0625 16.882812 8.210938 17.054688 8.414062 C 17.441406 8.707031 17.761719 8.449219 17.785156 8.425781 C 17.8125 8.398438 18.089844 8.128906 18.089844 8.128906 C 18.15625 8.058594 18.242188 8.054688 18.339844 8.117188 C 18.429688 8.199219 18.417969 8.339844 18.613281 8.4375 C 18.78125 8.503906 19.132812 8.453125 19.21875 8.3125 C 19.328125 8.128906 19.355469 8.0625 19.40625 7.992188 C 19.484375 7.886719 19.617188 7.933594 19.617188 7.96875 C 19.605469 8.023438 19.527344 8.082031 19.582031 8.1875 C 19.675781 8.253906 19.695312 8.210938 19.753906 8.195312 C 19.949219 8.101562 20.09375 7.683594 20.09375 7.683594 C 20.105469 7.527344 20.015625 7.539062 19.957031 7.570312 C 19.882812 7.617188 19.875 7.632812 19.800781 7.675781 C 19.707031 7.691406 19.519531 7.753906 19.425781 7.613281 C 19.332031 7.441406 19.332031 7.207031 19.261719 7.039062 C 19.261719 7.023438 19.136719 6.769531 19.25 6.753906 C 19.308594 6.761719 19.4375 6.796875 19.457031 6.691406 C 19.515625 6.589844 19.324219 6.304688 19.191406 6.160156 C 19.078125 6.035156 18.917969 6.019531 18.765625 6.148438 C 18.660156 6.242188 18.675781 6.351562 18.652344 6.457031 C 18.625 6.574219 18.632812 6.722656 18.753906 6.878906 C 18.859375 7.085938 19.054688 7.355469 18.992188 7.730469 C 18.992188 7.730469 18.878906 7.910156 18.679688 7.886719 C 18.59375 7.871094 18.460938 7.835938 18.390625 7.3125 C 18.335938 6.914062 18.402344 6.359375 18.230469 6.101562 C 18.195312 6 18.160156 5.90625 18.105469 5.914062 Z M 17.558594 5.957031 C 17.507812 5.960938 17.449219 6.019531 17.402344 6.132812 C 17.363281 6.222656 17.316406 6.675781 17.324219 6.675781 C 17.292969 6.8125 17.464844 6.867188 17.546875 6.695312 C 17.667969 6.375 17.667969 6.238281 17.675781 6.105469 C 17.65625 6 17.609375 5.953125 17.558594 5.957031 Z M 19.578125 5.992188 C 19.523438 5.996094 19.480469 6.027344 19.464844 6.105469 C 19.445312 6.285156 19.457031 6.382812 19.484375 6.535156 C 19.507812 6.636719 19.660156 6.804688 19.730469 6.902344 C 20.082031 7.367188 20.417969 7.832031 20.742188 8.3125 C 20.792969 8.671875 20.828125 9.019531 20.855469 9.371094 C 20.90625 10.132812 20.921875 11.085938 20.875 11.890625 C 21.019531 11.894531 21.253906 11.660156 21.332031 11.3125 C 21.386719 10.832031 21.316406 9.851562 21.308594 9.570312 C 21.308594 9.453125 21.300781 9.3125 21.292969 9.164062 C 21.667969 9.773438 22.035156 10.417969 22.394531 11.128906 C 22.527344 11.066406 22.496094 10.335938 22.421875 10.234375 C 22.132812 9.625 21.734375 9.019531 21.609375 8.789062 C 21.5625 8.703125 21.40625 8.472656 21.222656 8.199219 C 21.1875 7.816406 21.152344 7.488281 21.125 7.390625 C 21.066406 6.984375 21.296875 7.4375 21.265625 7.199219 C 21.191406 6.792969 20.960938 6.519531 20.695312 6.144531 C 20.609375 6.023438 20.609375 6 20.476562 6.175781 C 20.394531 6.355469 20.398438 6.503906 20.421875 6.644531 C 20.386719 6.59375 20.339844 6.53125 20.28125 6.457031 C 20.046875 6.261719 20.03125 6.25 19.839844 6.089844 C 19.78125 6.050781 19.664062 5.984375 19.578125 5.992188 Z M 25.554688 6.054688 C 25.527344 6.046875 25.5 6.0625 25.46875 6.109375 C 25.410156 6.160156 25.34375 6.253906 25.347656 6.375 C 25.359375 6.589844 25.398438 6.808594 25.414062 7.023438 C 25.417969 7.054688 25.425781 7.082031 25.429688 7.109375 C 25.40625 7.082031 25.386719 7.058594 25.375 7.046875 C 24.949219 6.605469 25.570312 6.976562 25.292969 6.636719 C 25.0625 6.382812 24.992188 6.304688 24.792969 6.152344 C 24.695312 6.085938 24.632812 5.964844 24.601562 6.171875 C 24.585938 6.355469 24.574219 6.566406 24.585938 6.71875 C 24.585938 6.804688 24.675781 6.964844 24.753906 7.0625 C 25.035156 7.402344 25.324219 7.769531 25.613281 8.148438 C 25.675781 8.925781 25.691406 9.636719 25.753906 10.414062 C 25.742188 10.746094 25.640625 11.1875 25.542969 11.226562 C 25.542969 11.226562 25.390625 11.3125 25.292969 11.21875 C 25.21875 11.191406 24.929688 10.738281 24.929688 10.738281 C 24.777344 10.605469 24.679688 10.640625 24.574219 10.738281 C 24.28125 11.015625 24.148438 11.539062 23.949219 11.898438 C 23.898438 11.980469 23.753906 12.046875 23.59375 11.894531 C 23.183594 11.34375 23.425781 10.5625 23.375 10.761719 C 23.011719 11.167969 23.171875 11.835938 23.253906 11.980469 C 23.371094 12.214844 23.46875 12.367188 23.703125 12.484375 C 23.914062 12.636719 24.078125 12.542969 24.171875 12.433594 C 24.382812 12.214844 24.386719 11.65625 24.488281 11.546875 C 24.558594 11.34375 24.734375 11.378906 24.820312 11.46875 C 24.902344 11.585938 25 11.664062 25.125 11.726562 C 25.324219 11.902344 25.5625 11.933594 25.796875 11.773438 C 25.957031 11.6875 26.058594 11.570312 26.152344 11.34375 C 26.253906 11.078125 26.203125 9.6875 26.183594 8.914062 C 26.332031 9.121094 26.480469 9.335938 26.628906 9.550781 C 26.691406 10.230469 26.722656 10.898438 26.703125 11.542969 C 26.6875 11.667969 27.152344 11.160156 27.148438 10.917969 C 27.148438 10.710938 27.148438 10.519531 27.148438 10.339844 C 27.375 10.695312 27.59375 11.058594 27.800781 11.425781 C 27.929688 11.359375 27.886719 10.640625 27.804688 10.542969 C 27.589844 10.183594 27.3125 9.796875 27.09375 9.496094 C 27.054688 9.117188 26.996094 8.671875 26.96875 8.535156 C 26.929688 8.320312 26.886719 8 26.824219 7.746094 C 26.808594 7.648438 26.757812 7.332031 26.773438 7.300781 C 26.796875 7.230469 26.894531 7.304688 26.941406 7.222656 C 27.011719 7.144531 26.695312 6.339844 26.535156 6.113281 C 26.480469 6.007812 26.375 6.042969 26.246094 6.210938 C 26.128906 6.320312 26.171875 6.574219 26.21875 6.8125 C 26.335938 7.421875 26.441406 8.039062 26.523438 8.660156 C 26.371094 8.433594 26.179688 8.15625 25.996094 7.894531 C 25.988281 7.867188 25.972656 7.773438 25.972656 7.773438 C 25.972656 7.761719 25.945312 7.273438 25.925781 7.160156 C 25.921875 7.113281 25.910156 7.097656 25.957031 7.105469 C 26.011719 7.148438 26.019531 7.152344 26.050781 7.164062 C 26.105469 7.175781 26.152344 7.085938 26.121094 7.003906 C 25.953125 6.699219 25.789062 6.398438 25.621094 6.097656 C 25.601562 6.078125 25.582031 6.058594 25.554688 6.054688 Z M 10.125 6.070312 C 10.035156 6.066406 9.933594 6.121094 9.972656 6.230469 C 9.949219 6.289062 10.152344 6.492188 10.1875 6.601562 C 10.21875 6.679688 10.15625 6.933594 10.222656 6.957031 C 10.28125 6.980469 10.367188 6.78125 10.398438 6.59375 C 10.417969 6.492188 10.402344 6.144531 10.164062 6.074219 C 10.152344 6.070312 10.136719 6.070312 10.125 6.066406 Z M 27.703125 6.070312 C 27.679688 6.074219 27.65625 6.105469 27.617188 6.1875 C 27.523438 6.339844 27.492188 6.613281 27.527344 6.851562 C 27.753906 8.363281 27.921875 9.824219 27.957031 11.164062 C 27.9375 11.289062 27.933594 11.355469 27.871094 11.515625 C 27.738281 11.6875 27.589844 11.898438 27.453125 12 C 27.3125 12.101562 27.019531 12.199219 26.921875 12.273438 C 26.617188 12.449219 26.613281 12.652344 26.863281 12.65625 C 27.289062 12.609375 27.792969 12.574219 28.140625 12.054688 C 28.234375 11.910156 28.34375 11.515625 28.347656 11.277344 C 28.378906 9.863281 28.328125 8.484375 28.117188 7.460938 C 28.101562 7.363281 28.058594 7.132812 28.074219 7.105469 C 28.101562 7.035156 28.242188 7.113281 28.292969 7.03125 C 28.363281 6.957031 27.929688 6.410156 27.777344 6.175781 C 27.746094 6.117188 27.730469 6.066406 27.703125 6.070312 Z M 23.226562 6.09375 C 23.210938 6.097656 23.183594 6.125 23.136719 6.1875 C 23.015625 6.570312 22.976562 6.882812 23.019531 7.125 C 23.328125 8.699219 23.640625 10.136719 23.589844 11.636719 C 23.734375 11.636719 23.902344 11.308594 23.976562 10.984375 C 24.015625 10.535156 23.949219 10.261719 23.9375 10 C 23.925781 9.738281 23.636719 7.597656 23.574219 7.398438 C 23.503906 7.023438 23.859375 7.351562 23.820312 7.132812 C 23.699219 6.855469 23.394531 6.453125 23.296875 6.210938 C 23.261719 6.148438 23.257812 6.089844 23.226562 6.09375 Z M 12.332031 6.125 C 12.296875 6.128906 12.257812 6.160156 12.246094 6.210938 C 12.238281 6.242188 12.261719 6.300781 12.230469 6.316406 C 12.210938 6.332031 12.144531 6.320312 12.148438 6.230469 C 12.148438 6.199219 12.128906 6.171875 12.113281 6.152344 C 12.101562 6.144531 12.09375 6.140625 12.070312 6.140625 C 12.039062 6.140625 12.039062 6.148438 12.023438 6.171875 C 12.015625 6.199219 12.007812 6.222656 12.007812 6.25 C 12.003906 6.28125 11.992188 6.292969 11.964844 6.296875 C 11.941406 6.296875 11.945312 6.300781 11.925781 6.289062 C 11.910156 6.273438 11.894531 6.269531 11.894531 6.242188 C 11.894531 6.21875 11.890625 6.179688 11.882812 6.164062 C 11.871094 6.148438 11.851562 6.140625 11.832031 6.132812 C 11.714844 6.136719 11.707031 6.265625 11.714844 6.3125 C 11.707031 6.320312 11.703125 6.550781 11.859375 6.613281 C 12.066406 6.710938 12.457031 6.671875 12.441406 6.339844 C 12.441406 6.308594 12.433594 6.210938 12.429688 6.183594 C 12.410156 6.136719 12.371094 6.117188 12.332031 6.125 Z M 15.128906 6.125 C 15.058594 6.128906 14.992188 6.152344 14.9375 6.179688 C 14.800781 6.308594 14.769531 6.519531 14.878906 6.648438 C 14.984375 6.699219 15.089844 6.804688 15.019531 6.859375 C 14.71875 7.175781 13.941406 7.703125 13.902344 7.800781 C 13.898438 7.800781 13.898438 7.800781 13.898438 7.804688 C 13.898438 7.804688 13.898438 7.808594 13.898438 7.808594 C 13.898438 7.808594 13.898438 7.808594 13.902344 7.8125 C 13.902344 7.8125 13.90625 7.8125 13.90625 7.8125 C 13.90625 7.8125 13.90625 7.816406 13.910156 7.816406 C 13.949219 7.84375 14.433594 7.839844 14.488281 7.816406 C 14.488281 7.816406 14.492188 7.816406 14.492188 7.816406 C 14.492188 7.816406 14.492188 7.8125 14.492188 7.8125 C 14.660156 7.753906 15.457031 6.855469 15.457031 6.855469 C 15.414062 6.820312 15.375 6.796875 15.335938 6.761719 C 15.289062 6.722656 15.296875 6.6875 15.335938 6.648438 C 15.53125 6.535156 15.46875 6.285156 15.367188 6.171875 C 15.28125 6.136719 15.199219 6.121094 15.128906 6.125 Z M 22.4375 6.128906 C 22.417969 6.132812 22.390625 6.164062 22.351562 6.246094 C 22.257812 6.398438 22.195312 6.660156 22.203125 6.910156 C 22.40625 8.300781 22.46875 9.515625 22.601562 10.90625 C 22.613281 11.042969 22.589844 11.238281 22.5 11.316406 C 22.164062 11.660156 21.683594 12.085938 21.15625 12.28125 C 21.101562 12.34375 21.296875 12.613281 21.550781 12.613281 C 21.980469 12.5625 22.355469 12.328125 22.703125 11.703125 C 22.796875 11.558594 22.957031 11.25 22.964844 11.007812 C 22.996094 9.59375 22.890625 8.496094 22.675781 7.476562 C 22.664062 7.378906 22.671875 7.257812 22.691406 7.230469 C 22.71875 7.195312 22.8125 7.230469 22.859375 7.148438 C 22.933594 7.078125 22.664062 6.46875 22.515625 6.234375 C 22.484375 6.175781 22.464844 6.128906 22.4375 6.128906 Z M 11.117188 6.171875 C 11.054688 6.179688 11 6.226562 10.972656 6.289062 C 10.964844 6.511719 10.964844 6.734375 10.988281 6.941406 C 11.089844 7.300781 11.125 7.617188 11.175781 7.988281 C 11.1875 8.484375 10.882812 8.203125 10.898438 7.957031 C 10.96875 7.636719 10.949219 7.136719 10.886719 7.007812 C 10.839844 6.882812 10.78125 6.851562 10.660156 6.871094 C 10.566406 6.867188 10.320312 7.132812 10.25 7.570312 C 10.25 7.570312 10.195312 7.792969 10.167969 7.996094 C 10.132812 8.21875 9.984375 8.378906 9.878906 7.964844 C 9.785156 7.660156 9.730469 6.910156 9.578125 7.085938 C 9.53125 7.671875 9.480469 8.699219 9.984375 8.804688 C 10.589844 8.859375 10.253906 7.789062 10.476562 7.59375 C 10.515625 7.496094 10.59375 7.496094 10.601562 7.617188 L 10.601562 8.527344 C 10.59375 8.824219 10.792969 8.914062 10.945312 8.972656 C 11.105469 8.960938 11.210938 8.964844 11.273438 9.121094 C 11.296875 9.644531 11.324219 10.171875 11.347656 10.695312 C 11.347656 10.695312 11.71875 10.800781 11.734375 9.808594 C 11.753906 9.226562 11.617188 8.738281 11.699219 8.625 C 11.699219 8.515625 11.84375 8.511719 11.945312 8.5625 C 12.105469 8.675781 12.175781 8.8125 12.421875 8.757812 C 12.796875 8.65625 13.023438 8.472656 13.03125 8.1875 C 13.007812 7.917969 12.976562 7.648438 12.855469 7.375 C 12.875 7.328125 12.785156 7.199219 12.800781 7.148438 C 12.867188 7.253906 12.972656 7.246094 12.996094 7.148438 C 12.929688 6.941406 12.832031 6.742188 12.671875 6.65625 C 12.535156 6.539062 12.34375 6.566406 12.269531 6.804688 C 12.238281 7.085938 12.375 7.414062 12.578125 7.683594 C 12.621094 7.789062 12.683594 7.964844 12.65625 8.121094 C 12.546875 8.183594 12.4375 8.15625 12.347656 8.0625 C 12.347656 8.0625 12.046875 7.839844 12.046875 7.789062 C 12.128906 7.289062 12.066406 7.230469 12.019531 7.09375 C 11.988281 6.898438 11.898438 6.839844 11.824219 6.707031 C 11.75 6.628906 11.648438 6.628906 11.597656 6.707031 C 11.464844 6.933594 11.527344 7.421875 11.625 7.636719 C 11.691406 7.839844 11.796875 7.960938 11.75 7.960938 C 11.707031 8.074219 11.621094 8.050781 11.558594 7.917969 C 11.472656 7.648438 11.453125 7.246094 11.453125 7.066406 C 11.425781 6.839844 11.398438 6.359375 11.25 6.238281 C 11.207031 6.1875 11.160156 6.167969 11.117188 6.171875 Z M 13.25 6.175781 C 13.222656 6.179688 13.1875 6.195312 13.148438 6.203125 C 13.019531 6.246094 12.898438 6.355469 12.9375 6.570312 C 13.089844 7.488281 13.1875 8.1875 13.339844 9.101562 C 13.363281 9.210938 13.273438 9.351562 13.15625 9.335938 C 12.957031 9.203125 12.90625 8.933594 12.566406 8.945312 C 12.320312 8.949219 12.035156 9.214844 12 9.46875 C 11.960938 9.671875 11.945312 9.890625 12 10.070312 C 12.175781 10.273438 12.382812 10.253906 12.566406 10.207031 C 12.714844 10.144531 12.839844 10 12.890625 10.035156 C 12.890625 10.035156 12.894531 10.035156 12.894531 10.035156 C 12.925781 10.09375 12.890625 10.570312 12.1875 10.9375 C 11.753906 11.128906 11.410156 11.175781 11.226562 10.828125 C 11.113281 10.609375 11.234375 9.78125 10.953125 9.972656 C 10.117188 12.09375 12.90625 12.390625 13.21875 10.058594 C 13.238281 9.992188 13.300781 9.929688 13.34375 9.945312 C 13.363281 9.953125 13.382812 9.976562 13.386719 10.023438 C 13.324219 12.136719 11.230469 12.28125 10.871094 11.617188 C 10.785156 11.460938 10.757812 11.113281 10.75 10.902344 C 10.734375 10.777344 10.703125 10.703125 10.664062 10.675781 C 10.578125 10.613281 10.464844 10.777344 10.441406 11.0625 C 10.40625 11.289062 10.414062 11.351562 10.414062 11.574219 C 10.527344 13.242188 13.222656 12.523438 13.660156 11.148438 C 13.875 10.433594 13.65625 9.898438 13.726562 9.832031 C 13.726562 9.832031 13.730469 9.832031 13.730469 9.832031 C 13.730469 9.828125 13.734375 9.828125 13.734375 9.828125 C 13.734375 9.828125 13.738281 9.828125 13.738281 9.828125 C 13.738281 9.828125 13.742188 9.824219 13.746094 9.824219 C 14.015625 10.109375 14.390625 9.863281 14.472656 9.761719 C 14.507812 9.714844 14.59375 9.683594 14.65625 9.746094 C 14.867188 9.894531 15.230469 9.824219 15.308594 9.5625 C 15.351562 9.308594 15.390625 9.042969 15.398438 8.773438 C 15.261719 8.8125 15.152344 8.84375 15.109375 8.890625 C 15.097656 8.902344 15.089844 8.914062 15.085938 8.929688 C 15.074219 9.003906 15.066406 9.078125 15.054688 9.15625 C 15.050781 9.160156 15.050781 9.167969 15.046875 9.171875 C 15.039062 9.179688 15.03125 9.191406 15.019531 9.195312 C 14.972656 9.222656 14.890625 9.207031 14.886719 9.136719 C 14.820312 8.847656 14.554688 8.808594 14.394531 9.261719 C 14.285156 9.347656 14.085938 9.363281 14.066406 9.234375 C 14.089844 8.929688 13.96875 8.890625 13.722656 9.035156 C 13.640625 8.4375 13.5625 7.863281 13.484375 7.269531 C 13.585938 7.265625 13.679688 7.339844 13.773438 7.222656 C 13.671875 6.910156 13.457031 6.273438 13.335938 6.214844 C 13.335938 6.214844 13.335938 6.214844 13.332031 6.214844 C 13.328125 6.207031 13.320312 6.199219 13.316406 6.195312 C 13.3125 6.195312 13.308594 6.191406 13.308594 6.191406 C 13.304688 6.1875 13.300781 6.1875 13.300781 6.183594 C 13.296875 6.183594 13.289062 6.179688 13.285156 6.179688 C 13.273438 6.175781 13.261719 6.175781 13.25 6.175781 Z M 21.578125 6.179688 C 21.472656 6.175781 21.351562 6.242188 21.398438 6.375 C 21.371094 6.449219 21.628906 6.691406 21.667969 6.824219 C 21.742188 7.03125 21.613281 7.226562 21.691406 7.253906 C 21.761719 7.285156 21.859375 7.042969 21.898438 6.816406 C 21.941406 6.636719 21.808594 6.261719 21.621094 6.183594 C 21.609375 6.179688 21.59375 6.179688 21.578125 6.179688 Z M 15.089844 6.40625 C 15.140625 6.398438 15.199219 6.445312 15.226562 6.507812 C 15.257812 6.574219 15.242188 6.636719 15.191406 6.648438 C 15.140625 6.660156 15.078125 6.617188 15.046875 6.550781 C 15.015625 6.484375 15.03125 6.417969 15.082031 6.40625 C 15.085938 6.40625 15.085938 6.40625 15.089844 6.40625 Z M 27.125 6.710938 C 27.027344 6.710938 26.921875 6.78125 26.960938 6.925781 C 26.9375 7.003906 27.171875 7.269531 27.207031 7.414062 C 27.242188 7.515625 27.15625 7.847656 27.226562 7.878906 C 27.292969 7.914062 27.382812 7.648438 27.417969 7.40625 C 27.4375 7.269531 27.335938 6.800781 27.164062 6.71875 C 27.152344 6.714844 27.136719 6.714844 27.125 6.710938 Z M 20.472656 6.875 C 20.480469 6.914062 20.488281 6.953125 20.496094 6.992188 C 20.515625 7.082031 20.53125 7.167969 20.550781 7.25 C 20.472656 7.148438 20.410156 7.0625 20.382812 7.03125 C 20.207031 6.828125 20.386719 6.898438 20.472656 6.875 Z M 22.003906 7.617188 C 21.964844 7.625 21.929688 7.65625 21.917969 7.707031 C 21.910156 7.742188 21.933594 7.792969 21.902344 7.8125 C 21.886719 7.828125 21.816406 7.820312 21.820312 7.726562 C 21.820312 7.699219 21.796875 7.664062 21.785156 7.648438 C 21.773438 7.640625 21.761719 7.636719 21.738281 7.636719 C 21.710938 7.636719 21.710938 7.644531 21.695312 7.667969 C 21.6875 7.695312 21.679688 7.71875 21.679688 7.746094 C 21.675781 7.777344 21.664062 7.789062 21.640625 7.792969 C 21.613281 7.792969 21.617188 7.796875 21.59375 7.78125 C 21.582031 7.769531 21.566406 7.761719 21.566406 7.738281 C 21.566406 7.714844 21.558594 7.675781 21.550781 7.65625 C 21.542969 7.644531 21.523438 7.636719 21.5 7.632812 C 21.386719 7.632812 21.382812 7.757812 21.386719 7.808594 C 21.378906 7.816406 21.375 8.046875 21.527344 8.109375 C 21.738281 8.210938 22.128906 8.167969 22.113281 7.835938 C 22.113281 7.804688 22.105469 7.707031 22.101562 7.679688 C 22.082031 7.632812 22.042969 7.613281 22.003906 7.617188 Z M 15.003906 7.6875 C 14.980469 7.683594 14.945312 7.695312 14.90625 7.71875 C 14.722656 7.816406 14.652344 8.109375 14.765625 8.277344 C 14.875 8.429688 15.042969 8.375 15.066406 8.375 C 15.246094 8.394531 15.355469 8.039062 15.355469 8.039062 C 15.355469 8.039062 15.359375 7.9375 15.144531 8.128906 C 15.054688 8.144531 15.042969 8.113281 15.019531 8.0625 C 15 7.96875 15.003906 7.875 15.046875 7.78125 C 15.070312 7.726562 15.046875 7.691406 15.003906 7.6875 Z M 24.898438 7.734375 C 24.796875 7.726562 24.6875 7.792969 24.660156 7.929688 C 24.660156 8.011719 24.695312 8.058594 24.6875 8.132812 C 24.679688 8.175781 24.632812 8.203125 24.53125 8.152344 C 24.546875 8.136719 24.460938 8.019531 24.460938 8.019531 C 24.378906 7.96875 24.269531 8.023438 24.199219 8.066406 C 24.160156 8.136719 24.128906 8.257812 24.175781 8.382812 C 24.292969 8.597656 24.695312 8.960938 24.890625 8.964844 C 24.890625 8.773438 24.910156 8.515625 24.921875 8.355469 C 24.925781 8.292969 24.941406 8.226562 25 8.210938 C 25.058594 8.199219 25.160156 8.269531 25.160156 8.207031 C 25.152344 8.085938 25.125 7.902344 25.054688 7.816406 C 25.019531 7.765625 24.960938 7.734375 24.898438 7.734375 Z M 16.710938 8.40625 C 16.707031 8.40625 16.703125 8.410156 16.703125 8.410156 C 16.699219 8.410156 16.699219 8.414062 16.695312 8.414062 C 16.675781 8.429688 16.652344 8.464844 16.597656 8.5 C 16.507812 8.605469 16.492188 8.675781 16.496094 8.878906 C 16.503906 8.898438 16.667969 9.359375 16.8125 9.679688 C 16.90625 10.015625 16.996094 10.398438 16.929688 10.757812 C 16.707031 11.238281 16.257812 11.667969 15.824219 11.898438 C 15.605469 11.96875 15.414062 11.945312 15.363281 11.898438 C 15.363281 11.898438 15.359375 11.898438 15.359375 11.898438 C 15.234375 11.8125 15.230469 11.664062 15.238281 11.636719 C 15.238281 11.636719 15.238281 11.636719 15.242188 11.632812 C 15.605469 11.382812 16.023438 11.179688 16.351562 10.5 C 16.445312 10.242188 16.476562 10.085938 16.378906 9.6875 C 16.34375 9.535156 16.296875 9.414062 16.195312 9.308594 C 16.257812 9.277344 16.417969 9.394531 16.445312 9.320312 C 16.40625 9.128906 16.273438 8.871094 16.125 8.742188 C 15.996094 8.625 15.855469 8.609375 15.734375 8.71875 C 15.601562 8.792969 15.570312 9.054688 15.636719 9.289062 C 15.707031 9.460938 15.902344 9.492188 16.039062 9.84375 C 16.042969 9.867188 16.085938 10.109375 16.019531 10.203125 C 15.960938 10.378906 15.234375 10.941406 15.183594 10.976562 C 15.183594 10.976562 15.179688 10.980469 15.179688 10.980469 C 15.179688 10.980469 15.175781 10.984375 15.175781 10.984375 C 15.171875 10.984375 15.171875 10.984375 15.171875 10.984375 C 15.171875 10.984375 15.171875 10.980469 15.171875 10.980469 C 15.171875 10.980469 15.167969 10.980469 15.167969 10.980469 C 15.167969 10.964844 15.171875 10.929688 15.167969 10.871094 C 15.164062 10.765625 15.207031 10.527344 15.207031 10.484375 C 15.207031 10.484375 15.203125 10.480469 15.203125 10.480469 C 14.960938 10.632812 14.882812 11.101562 14.839844 11.238281 C 14.234375 11.652344 13.542969 11.960938 13.148438 12.378906 C 12.941406 12.699219 14.570312 12.015625 14.761719 11.933594 C 14.761719 11.933594 14.765625 11.933594 14.765625 11.9375 C 14.800781 11.976562 14.804688 12.113281 14.914062 12.234375 C 15.082031 12.460938 15.441406 12.601562 15.792969 12.515625 C 16.378906 12.304688 16.71875 11.910156 17.0625 11.472656 C 17.113281 11.398438 17.191406 11.34375 17.261719 11.398438 C 17.5 11.921875 18.183594 12.292969 19.066406 12.332031 C 19.269531 12.089844 19.171875 11.96875 19.089844 11.917969 C 19.0625 11.898438 18.648438 11.738281 18.585938 11.582031 C 18.546875 11.433594 18.644531 11.304688 18.839844 11.207031 C 19.40625 11.136719 19.964844 11.0625 20.503906 10.890625 C 20.511719 10.710938 20.617188 10.445312 20.6875 10.328125 C 20.738281 10.246094 20.769531 10.238281 20.78125 10.230469 C 20.78125 10.226562 20.785156 10.226562 20.785156 10.226562 C 20.785156 10.226562 20.785156 10.222656 20.785156 10.222656 C 20.789062 10.21875 20.785156 10.210938 20.785156 10.207031 L 20.695312 10.152344 L 18.882812 10.144531 C 18.859375 10.136719 18.84375 10.128906 18.835938 10.121094 C 18.832031 10.117188 18.832031 10.117188 18.832031 10.117188 C 18.832031 10.117188 18.832031 10.113281 18.828125 10.113281 C 18.828125 10.113281 18.828125 10.109375 18.828125 10.109375 C 18.828125 10.109375 18.824219 10.109375 18.824219 10.109375 C 18.824219 10.109375 18.824219 10.105469 18.824219 10.105469 C 18.824219 10.101562 18.824219 10.101562 18.824219 10.101562 C 18.824219 10.101562 18.824219 10.097656 18.824219 10.097656 C 18.824219 10.09375 18.824219 10.09375 18.824219 10.09375 C 18.824219 10.09375 18.824219 10.089844 18.824219 10.089844 C 18.824219 10.089844 18.824219 10.089844 18.828125 10.089844 C 18.835938 10.078125 18.855469 10.066406 18.882812 10.054688 C 19.316406 9.996094 20.082031 9.871094 20.132812 9.144531 C 20.125 8.765625 19.96875 8.515625 19.496094 8.449219 C 19.152344 8.472656 18.902344 8.804688 18.945312 9.167969 C 18.925781 9.265625 18.976562 9.460938 18.875 9.480469 C 18.210938 9.542969 17.484375 9.953125 17.460938 10.246094 C 17.460938 10.246094 17.457031 10.246094 17.457031 10.246094 C 17.457031 10.246094 17.457031 10.25 17.457031 10.25 C 17.457031 10.25 17.453125 10.25 17.453125 10.25 C 17.453125 10.25 17.453125 10.25 17.449219 10.25 C 17.449219 10.25 17.445312 10.25 17.445312 10.253906 C 17.445312 10.253906 17.441406 10.253906 17.441406 10.253906 C 17.4375 10.253906 17.4375 10.253906 17.4375 10.253906 C 17.433594 10.25 17.433594 10.25 17.429688 10.25 C 17.386719 10.238281 17.332031 10.167969 17.339844 10.070312 C 17.316406 9.558594 17.148438 8.984375 16.882812 8.542969 C 16.789062 8.449219 16.75 8.410156 16.722656 8.40625 C 16.722656 8.40625 16.71875 8.40625 16.71875 8.40625 C 16.71875 8.40625 16.714844 8.40625 16.714844 8.40625 C 16.710938 8.40625 16.710938 8.40625 16.710938 8.40625 Z M 18.441406 8.675781 C 18.402344 8.683594 18.367188 8.710938 18.355469 8.761719 C 18.347656 8.796875 18.371094 8.851562 18.339844 8.867188 C 18.324219 8.886719 18.253906 8.875 18.257812 8.78125 C 18.257812 8.753906 18.238281 8.722656 18.222656 8.703125 C 18.210938 8.695312 18.203125 8.691406 18.179688 8.691406 C 18.148438 8.695312 18.148438 8.703125 18.132812 8.726562 C 18.125 8.75 18.117188 8.773438 18.117188 8.800781 C 18.113281 8.835938 18.101562 8.84375 18.078125 8.851562 C 18.050781 8.851562 18.058594 8.851562 18.035156 8.839844 C 18.023438 8.824219 18.003906 8.820312 18.003906 8.796875 C 18.003906 8.769531 18 8.730469 17.992188 8.714844 C 17.980469 8.699219 17.960938 8.691406 17.941406 8.6875 C 17.824219 8.6875 17.820312 8.816406 17.824219 8.863281 C 17.816406 8.875 17.8125 9.105469 17.96875 9.167969 C 18.175781 9.265625 18.671875 9.207031 18.550781 8.890625 C 18.550781 8.863281 18.542969 8.761719 18.539062 8.734375 C 18.519531 8.6875 18.480469 8.667969 18.441406 8.675781 Z M 25.433594 8.957031 C 25.425781 8.957031 25.421875 8.957031 25.414062 8.960938 C 25.414062 8.960938 24.449219 9.636719 24.425781 9.660156 C 24.328125 9.746094 24.378906 10.039062 24.425781 10.007812 C 24.496094 10.03125 25.464844 9.382812 25.449219 9.304688 C 25.492188 9.308594 25.511719 8.972656 25.433594 8.957031 Z M 19.355469 9.058594 C 19.394531 9.054688 19.445312 9.066406 19.496094 9.097656 C 19.566406 9.136719 19.613281 9.199219 19.605469 9.246094 C 19.605469 9.246094 19.605469 9.25 19.605469 9.25 C 19.605469 9.25 19.601562 9.253906 19.601562 9.253906 C 19.601562 9.253906 19.601562 9.257812 19.601562 9.257812 C 19.601562 9.257812 19.601562 9.261719 19.601562 9.261719 C 19.597656 9.261719 19.597656 9.265625 19.597656 9.265625 C 19.597656 9.269531 19.59375 9.273438 19.589844 9.277344 C 19.554688 9.308594 19.472656 9.304688 19.398438 9.261719 C 19.328125 9.21875 19.28125 9.15625 19.289062 9.113281 C 19.289062 9.109375 19.289062 9.109375 19.289062 9.105469 C 19.289062 9.101562 19.292969 9.097656 19.296875 9.089844 C 19.296875 9.089844 19.296875 9.085938 19.300781 9.085938 C 19.300781 9.085938 19.300781 9.085938 19.300781 9.082031 C 19.300781 9.082031 19.304688 9.078125 19.308594 9.074219 C 19.320312 9.066406 19.335938 9.0625 19.355469 9.058594 Z M 10.898438 9.230469 C 10.398438 9.238281 9.664062 9.878906 9.644531 10.230469 C 10.171875 9.980469 10.691406 9.742188 11.226562 9.480469 C 11.140625 9.355469 11.222656 9.238281 10.898438 9.230469 Z M 12.519531 9.453125 C 12.566406 9.453125 12.621094 9.476562 12.648438 9.542969 C 12.671875 9.605469 12.648438 9.671875 12.617188 9.703125 C 12.617188 9.703125 12.617188 9.707031 12.617188 9.707031 C 12.597656 9.734375 12.523438 9.722656 12.46875 9.722656 C 12.40625 9.722656 12.375 9.710938 12.335938 9.660156 C 12.320312 9.605469 12.375 9.546875 12.398438 9.503906 C 12.402344 9.5 12.40625 9.496094 12.410156 9.492188 C 12.429688 9.472656 12.464844 9.457031 12.5 9.453125 C 12.503906 9.453125 12.511719 9.453125 12.519531 9.453125 Z M 25.246094 9.648438 C 25.15625 9.660156 25.070312 9.742188 25.109375 9.875 C 25.085938 9.953125 25.230469 10.226562 25.269531 10.371094 C 25.300781 10.472656 25.222656 10.765625 25.296875 10.796875 C 25.359375 10.832031 25.53125 10.621094 25.523438 10.363281 C 25.542969 10.230469 25.476562 9.738281 25.304688 9.652344 C 25.285156 9.648438 25.265625 9.644531 25.246094 9.648438 Z M 14.4375 10.128906 C 14.359375 10.136719 14.289062 10.175781 14.320312 10.285156 C 14.316406 10.367188 14.542969 10.460938 14.554688 10.644531 C 14.585938 10.722656 14.507812 10.964844 14.574219 10.988281 C 14.636719 11.011719 14.722656 10.820312 14.753906 10.640625 C 14.773438 10.542969 14.675781 10.199219 14.515625 10.136719 C 14.488281 10.132812 14.460938 10.128906 14.4375 10.128906 Z M 17.671875 10.566406 C 17.675781 10.566406 17.683594 10.566406 17.6875 10.566406 C 17.691406 10.566406 17.691406 10.566406 17.691406 10.566406 C 17.894531 10.621094 18.191406 10.625 18.449219 10.652344 C 18.660156 10.664062 18.761719 10.828125 18.566406 10.894531 C 18.371094 10.960938 18.183594 11.011719 18.183594 11.289062 C 18.210938 11.425781 18.203125 11.5 18.183594 11.53125 C 18.179688 11.535156 18.179688 11.539062 18.175781 11.539062 C 18.175781 11.539062 18.175781 11.539062 18.175781 11.542969 C 18.175781 11.542969 18.171875 11.542969 18.171875 11.542969 L 18.171875 11.546875 C 18.167969 11.546875 18.167969 11.546875 18.167969 11.546875 C 18.164062 11.550781 18.160156 11.550781 18.15625 11.550781 C 18.15625 11.554688 18.152344 11.554688 18.148438 11.554688 C 18.101562 11.558594 18.035156 11.515625 17.984375 11.492188 C 17.867188 11.40625 17.53125 11.199219 17.480469 10.761719 C 17.476562 10.660156 17.550781 10.574219 17.671875 10.566406 Z M 9.769531 10.90625 C 9.757812 10.90625 9.734375 10.941406 9.699219 10.984375 C 9.402344 11.453125 9.375 12.152344 9.539062 12.359375 C 9.625 12.457031 9.769531 12.5 9.875 12.472656 C 10.0625 12.390625 10.144531 12.015625 10.101562 11.878906 C 10.039062 11.785156 9.988281 11.769531 9.925781 11.851562 C 9.796875 12.113281 9.742188 11.933594 9.730469 11.785156 C 9.710938 11.507812 9.738281 11.25 9.765625 11.046875 C 9.785156 10.941406 9.78125 10.90625 9.769531 10.90625 Z M 19.910156 11.519531 C 19.890625 11.519531 19.867188 11.523438 19.84375 11.535156 C 19.835938 11.535156 19.628906 11.671875 19.5625 11.769531 C 19.519531 11.800781 19.527344 11.828125 19.539062 11.878906 C 19.570312 11.953125 19.625 11.929688 19.691406 11.894531 C 19.773438 11.886719 19.816406 11.941406 19.808594 12.039062 C 19.769531 12.164062 19.828125 12.210938 19.828125 12.21875 C 19.828125 12.226562 19.90625 12.296875 20.003906 12.242188 C 20.207031 12.164062 20.332031 12.089844 20.613281 12.03125 C 20.6875 12.027344 20.683594 11.832031 20.566406 11.824219 C 20.414062 11.832031 20.273438 11.839844 20.121094 11.960938 C 20.023438 11.980469 20.007812 11.925781 19.988281 11.875 C 19.964844 11.75 20.042969 11.660156 20.027344 11.566406 C 20.03125 11.570312 19.976562 11.523438 19.910156 11.519531 Z M 26.40625 11.757812 C 26.367188 11.761719 26.328125 11.765625 26.269531 11.769531 C 26.207031 11.78125 26.1875 11.808594 26.175781 11.882812 C 26.179688 11.996094 26.25 11.992188 26.320312 12.035156 C 26.363281 12.085938 26.390625 12.132812 26.316406 12.21875 C 26.25 12.28125 26.203125 12.316406 26.132812 12.375 C 26.101562 12.429688 26.082031 12.511719 26.179688 12.539062 C 26.359375 12.589844 26.777344 12.320312 26.777344 12.316406 C 26.847656 12.265625 26.824219 12.167969 26.820312 12.167969 C 26.777344 12.125 26.691406 12.152344 26.628906 12.144531 C 26.601562 12.144531 26.507812 12.132812 26.550781 12.050781 C 26.589844 12 26.601562 11.96875 26.628906 11.90625 C 26.65625 11.84375 26.632812 11.804688 26.53125 11.769531 C 26.480469 11.761719 26.441406 11.757812 26.40625 11.757812 Z M 23.691406 17.179688 C 23.390625 17.257812 23.398438 17.5625 23.59375 17.699219 C 20.421875 17.699219 15.554688 17.644531 14.511719 17.644531 C 13.925781 17.644531 12.078125 17.578125 12.042969 17.578125 C 12.441406 18.148438 13.015625 18.265625 13.765625 18.277344 C 15.171875 18.277344 21.699219 18.261719 23.558594 18.261719 C 23.425781 18.492188 23.570312 18.863281 23.671875 18.933594 C 23.675781 18.933594 23.679688 18.933594 23.679688 18.9375 C 23.683594 18.9375 23.691406 18.941406 23.695312 18.941406 C 23.695312 18.941406 23.699219 18.941406 23.699219 18.941406 C 23.820312 18.96875 23.875 18.882812 23.917969 18.816406 C 24.117188 18.835938 25.238281 18.851562 25.34375 18.816406 C 25.414062 18.914062 25.484375 19.011719 25.613281 18.996094 C 25.847656 18.945312 26.027344 18.921875 26.035156 18.457031 C 26.035156 18.457031 26.011719 17.667969 25.484375 17.714844 C 25.359375 17.734375 25.011719 17.769531 25.011719 17.769531 C 24.609375 17.722656 24.3125 17.71875 23.855469 17.699219 C 23.898438 17.648438 23.972656 17.433594 23.882812 17.359375 C 23.859375 17.339844 23.824219 17.328125 23.773438 17.332031 C 23.773438 17.332031 23.769531 17.332031 23.769531 17.332031 C 23.765625 17.328125 23.765625 17.328125 23.765625 17.328125 C 23.761719 17.328125 23.757812 17.324219 23.757812 17.320312 C 23.753906 17.320312 23.753906 17.320312 23.753906 17.316406 C 23.730469 17.285156 23.71875 17.203125 23.703125 17.183594 C 23.703125 17.183594 23.699219 17.183594 23.699219 17.183594 C 23.699219 17.183594 23.699219 17.179688 23.699219 17.179688 C 23.699219 17.179688 23.695312 17.179688 23.695312 17.179688 C 23.695312 17.179688 23.691406 17.179688 23.691406 17.179688 Z M 23.90625 18.308594 C 23.910156 18.308594 23.910156 18.308594 23.910156 18.308594 C 24.371094 18.332031 24.808594 18.3125 25.269531 18.335938 C 25.34375 18.398438 25.304688 18.539062 25.257812 18.5625 C 25.257812 18.5625 25.253906 18.566406 25.25 18.566406 C 25.25 18.566406 25.246094 18.566406 25.246094 18.566406 C 25.242188 18.566406 25.238281 18.566406 25.238281 18.566406 C 25.085938 18.5625 25 18.558594 24.851562 18.554688 C 24.851562 18.546875 24.847656 18.539062 24.847656 18.535156 C 24.8125 18.429688 24.554688 18.4375 24.492188 18.519531 C 24.492188 18.519531 24.488281 18.519531 24.488281 18.523438 C 24.488281 18.523438 24.488281 18.527344 24.484375 18.527344 C 24.484375 18.53125 24.484375 18.535156 24.484375 18.535156 C 24.480469 18.539062 24.480469 18.542969 24.480469 18.546875 C 24.480469 18.550781 24.480469 18.554688 24.480469 18.558594 C 24.277344 18.585938 24.09375 18.554688 23.890625 18.546875 C 23.832031 18.472656 23.839844 18.339844 23.90625 18.308594 Z M 23.90625 18.308594 "/>
</g>
</svg>
