<?xml version="1.0" encoding="UTF-8"?>
<svg xmlns="http://www.w3.org/2000/svg" xmlns:xlink="http://www.w3.org/1999/xlink" width="38pt" height="25pt" viewBox="0 0 38 25" version="1.1">
<g id="surface1">
<path style=" stroke:none;fill-rule:nonzero;fill:rgb(0%,52.156863%,24.705882%);fill-opacity:1;" d="M 0 0 L 12.667969 0 L 12.667969 25 L 0 25 Z M 0 0 "/>
<path style=" stroke:none;fill-rule:nonzero;fill:rgb(99.215686%,93.72549%,25.882353%);fill-opacity:1;" d="M 12.667969 0 L 25.332031 0 L 25.332031 25 L 12.667969 25 Z M 12.667969 0 "/>
<path style=" stroke:none;fill-rule:nonzero;fill:rgb(89.019608%,10.588235%,13.72549%);fill-opacity:1;" d="M 25.332031 0 L 38 0 L 38 25 L 25.332031 25 Z M 25.332031 0 "/>
<path style=" stroke:none;fill-rule:nonzero;fill:rgb(0%,52.156863%,24.705882%);fill-opacity:1;" d="M 19 8.332031 L 17.695312 12.296875 L 19.703125 12.941406 Z M 19 8.332031 "/>
<path style=" stroke:none;fill-rule:nonzero;fill:rgb(0%,52.156863%,24.705882%);fill-opacity:1;" d="M 19 8.332031 L 20.304688 12.296875 L 18.296875 12.941406 Z M 19 8.332031 "/>
<path style=" stroke:none;fill-rule:nonzero;fill:rgb(0%,52.156863%,24.705882%);fill-opacity:1;" d="M 23.015625 11.210938 L 18.792969 11.210938 L 18.792969 13.296875 Z M 23.015625 11.210938 "/>
<path style=" stroke:none;fill-rule:nonzero;fill:rgb(0%,52.156863%,24.705882%);fill-opacity:1;" d="M 23.015625 11.210938 L 19.601562 13.660156 L 18.359375 11.976562 Z M 23.015625 11.210938 "/>
<path style=" stroke:none;fill-rule:nonzero;fill:rgb(0%,52.156863%,24.705882%);fill-opacity:1;" d="M 21.480469 15.871094 L 20.175781 11.90625 L 18.167969 12.550781 Z M 21.480469 15.871094 "/>
<path style=" stroke:none;fill-rule:nonzero;fill:rgb(0%,52.156863%,24.705882%);fill-opacity:1;" d="M 21.480469 15.871094 L 18.066406 13.421875 L 19.308594 11.738281 Z M 21.480469 15.871094 "/>
<path style=" stroke:none;fill-rule:nonzero;fill:rgb(0%,52.156863%,24.705882%);fill-opacity:1;" d="M 16.519531 15.871094 L 19.933594 13.421875 L 18.691406 11.738281 Z M 16.519531 15.871094 "/>
<path style=" stroke:none;fill-rule:nonzero;fill:rgb(0%,52.156863%,24.705882%);fill-opacity:1;" d="M 16.519531 15.871094 L 17.824219 11.90625 L 19.832031 12.550781 Z M 16.519531 15.871094 "/>
<path style=" stroke:none;fill-rule:nonzero;fill:rgb(0%,52.156863%,24.705882%);fill-opacity:1;" d="M 14.984375 11.210938 L 18.398438 13.660156 L 19.640625 11.976562 Z M 14.984375 11.210938 "/>
<path style=" stroke:none;fill-rule:nonzero;fill:rgb(0%,52.156863%,24.705882%);fill-opacity:1;" d="M 14.984375 11.210938 L 19.207031 11.210938 L 19.207031 13.296875 Z M 14.984375 11.210938 "/>
</g>
</svg>
