<?xml version="1.0" encoding="UTF-8"?>
<svg xmlns="http://www.w3.org/2000/svg" xmlns:xlink="http://www.w3.org/1999/xlink" width="37pt" height="25pt" viewBox="0 0 37 25" version="1.1">
<g id="surface1">
<path style=" stroke:none;fill-rule:nonzero;fill:rgb(100%,100%,100%);fill-opacity:1;" d="M 0 0 L 37 0 L 37 24.957031 L 0 24.957031 Z M 0 0 "/>
<path style="fill-rule:nonzero;fill:rgb(0%,0%,0%);fill-opacity:1;stroke-width:2;stroke-linecap:butt;stroke-linejoin:miter;stroke:rgb(0%,0%,0%);stroke-opacity:1;stroke-miterlimit:4;" d="M -6.002461 -25.001319 L 5.999312 -24.999266 M -5.997395 -22.001092 L 5.996261 -22.000004 M -6.000445 -19.001831 L 6.001327 -18.999777 " transform="matrix(0.408363,-0.522769,0.612545,0.348513,18.5,12.477719)"/>
<path style="fill-rule:nonzero;fill:rgb(0%,0%,0%);fill-opacity:1;stroke-width:2;stroke-linecap:butt;stroke-linejoin:miter;stroke:rgb(0%,0%,0%);stroke-opacity:1;stroke-miterlimit:4;" d="M -5.998265 -25.002264 L 6.003507 -25.000211 M -5.998372 -21.998588 L 6.000457 -22.000949 M -6.001423 -18.999327 L 6.00035 -18.997273 " transform="matrix(0.408363,-0.522769,0.612545,0.348513,45.451991,27.812273)"/>
<path style="fill-rule:nonzero;fill:rgb(0%,0%,0%);fill-opacity:1;stroke-width:1;stroke-linecap:butt;stroke-linejoin:miter;stroke:rgb(100%,100%,100%);stroke-opacity:1;stroke-miterlimit:4;" d="M 0.000715511 17.000818 L 0.00136907 26.999644 " transform="matrix(0.408363,-0.522769,0.612545,0.348513,18.5,12.477719)"/>
<path style=" stroke:none;fill-rule:nonzero;fill:rgb(77.647059%,4.705882%,18.823529%);fill-opacity:1;" d="M 23.398438 6.203125 C 27.460938 8.515625 28.558594 13.195312 25.851562 16.660156 C 23.144531 20.125 17.660156 21.0625 13.601562 18.75 C 9.539062 16.441406 8.441406 11.761719 11.148438 8.296875 C 13.855469 4.832031 19.339844 3.894531 23.398438 6.203125 Z M 23.398438 6.203125 "/>
<path style=" stroke:none;fill-rule:nonzero;fill:rgb(0%,20.392157%,47.058824%);fill-opacity:1;" d="M 11.148438 8.296875 C 9.796875 10.027344 10.34375 12.367188 12.375 13.523438 C 14.40625 14.679688 17.148438 14.210938 18.5 12.476562 C 19.851562 10.746094 22.59375 10.277344 24.625 11.433594 C 26.65625 12.585938 27.203125 14.925781 25.851562 16.660156 C 23.144531 20.125 17.660156 21.0625 13.601562 18.75 C 9.539062 16.441406 8.441406 11.761719 11.148438 8.296875 Z M 11.148438 8.296875 "/>
<path style="fill-rule:nonzero;fill:rgb(0%,0%,0%);fill-opacity:1;stroke-width:2;stroke-linecap:butt;stroke-linejoin:miter;stroke:rgb(0%,0%,0%);stroke-opacity:1;stroke-miterlimit:4;" d="M -6.001423 -25.000673 L 6.00035 -25.002727 M -5.998372 -22.001412 L 6.000457 -21.999051 M -5.998265 -18.997736 L 6.003507 -18.999789 " transform="matrix(-0.408363,-0.522769,0.612545,-0.348513,18.5,12.477719)"/>
<path style="fill-rule:nonzero;fill:rgb(0%,0%,0%);fill-opacity:1;stroke-width:2;stroke-linecap:butt;stroke-linejoin:miter;stroke:rgb(0%,0%,0%);stroke-opacity:1;stroke-miterlimit:4;" d="M -6.000445 -24.998169 L 6.001327 -25.000223 M -5.997395 -21.998908 L 5.996261 -21.999996 M -6.002461 -18.998681 L 5.999312 -19.000734 " transform="matrix(-0.408363,-0.522769,0.612545,-0.348513,45.451991,-2.856835)"/>
<path style="fill-rule:nonzero;fill:rgb(0%,0%,0%);fill-opacity:1;stroke-width:1;stroke-linecap:butt;stroke-linejoin:miter;stroke:rgb(100%,100%,100%);stroke-opacity:1;stroke-miterlimit:4;" d="M -0.000482949 -23.499862 L 0.00256753 -20.5006 M -0.00282657 16.999411 L 0.000494497 20.502642 M -0.00162811 23.498454 L -0.00152091 26.50213 " transform="matrix(-0.408363,-0.522769,0.612545,-0.348513,18.5,12.477719)"/>
</g>
</svg>
