<?xml version="1.0" encoding="UTF-8" standalone="no"?>
<!-- Created with Inkscape (http://www.inkscape.org/) -->

<svg
   xmlns:dc="http://purl.org/dc/elements/1.1/"
   xmlns:cc="http://creativecommons.org/ns#"
   xmlns:rdf="http://www.w3.org/1999/02/22-rdf-syntax-ns#"
   xmlns:svg="http://www.w3.org/2000/svg"
   xmlns="http://www.w3.org/2000/svg"
   xmlns:xlink="http://www.w3.org/1999/xlink"
   version="1.1"
   width="280"
   height="186.66667"
   viewBox="-36 -24 22.4 14.933334"
   id="svg2">
  <title
     id="title4">Flag of South Korea</title>
  <metadata
     id="metadata30">
    <rdf:RDF>
      <cc:Work
         rdf:about="">
        <dc:format>image/svg+xml</dc:format>
        <dc:type
           rdf:resource="http://purl.org/dc/dcmitype/StillImage" />
        <dc:title>Flag of South Korea</dc:title>
      </cc:Work>
    </rdf:RDF>
  </metadata>
  <defs
     id="defs28" />
  <rect
     width="22.4"
     height="14.933333"
     x="-36"
     y="-24"
     id="rect6"
     style="fill:#ffffff" />
  <g
     transform="matrix(0.24722547,-0.31282491,0.37083821,0.20854994,-24.8,-16.533333)"
     id="g8">
    <g
       id="b2">
      <path
         d="M -6,-25 H 6 m -12,3 H 6 m -12,3 H 6"
         id="b"
         style="stroke:#000000;stroke-width:2" />
      <use
         id="use12"
         x="0"
         y="44"
         width="72"
         height="48"
         xlink:href="#b" />
    </g>
    <path
       d="M 0,17 V 27"
       id="path14"
       style="stroke:#ffffff;stroke-width:1" />
    <circle
       cx="0"
       cy="0"
       r="12"
       id="circle16"
       style="fill:#c60c30" />
    <path
       d="M 0,-12 A 6,6 0 0 0 0,0 6,6 0 0 1 0,12 12,12 0 0 1 0,-12 z"
       id="path18"
       style="fill:#003478" />
  </g>
  <g
     transform="matrix(-0.24722547,-0.31282491,0.37083821,-0.20854994,-24.8,-16.533333)"
     id="g20">
    <use
       id="use22"
       x="0"
       y="0"
       width="72"
       height="48"
       xlink:href="#b2" />
    <path
       d="m 0,-23.5 v 3 M 0,17 v 3.5 m 0,3 v 3"
       id="path24"
       style="stroke:#ffffff;stroke-width:1" />
  </g>
</svg>
