<?xml version="1.0" encoding="UTF-8" standalone="no"?>
<!-- Generator: Adobe Illustrator 12.0.0, SVG Export Plug-In . SVG Version: 6.00 Build 51448)  -->

<svg
   xmlns:dc="http://purl.org/dc/elements/1.1/"
   xmlns:cc="http://creativecommons.org/ns#"
   xmlns:rdf="http://www.w3.org/1999/02/22-rdf-syntax-ns#"
   xmlns:svg="http://www.w3.org/2000/svg"
   xmlns="http://www.w3.org/2000/svg"
   xmlns:xlink="http://www.w3.org/1999/xlink"
   xmlns:sodipodi="http://sodipodi.sourceforge.net/DTD/sodipodi-0.dtd"
   xmlns:inkscape="http://www.inkscape.org/namespaces/inkscape"
   xml:space="preserve"
   overflow="visible"
   height="437.99899"
   viewBox="-213.686 -165.55 437.13 437.99701"
   width="437.129"
   version="1.1"
   enable-background="new -213.686 -165.55 439.741 440.618"
   id="svg2"
   inkscape:version="0.47 r22583"
   sodipodi:docname="ZZ.svg"
   style="overflow:visible"><sodipodi:namedview
   pagecolor="#ffffff"
   bordercolor="#666666"
   borderopacity="1"
   objecttolerance="10"
   gridtolerance="10"
   guidetolerance="10"
   inkscape:pageopacity="0"
   inkscape:pageshadow="2"
   inkscape:window-width="1280"
   inkscape:window-height="1004"
   id="namedview551"
   showgrid="false"
   inkscape:zoom="1.0712178"
   inkscape:cx="198.75782"
   inkscape:cy="190.82067"
   inkscape:window-x="-8"
   inkscape:window-y="-8"
   inkscape:window-maximized="1"
   inkscape:current-layer="svg2" /><metadata
   id="metadata4"><rdf:RDF><cc:Work
       rdf:about=""><dc:format>image/svg+xml</dc:format><dc:type
         rdf:resource="http://purl.org/dc/dcmitype/StillImage" /><dc:title /></cc:Work></rdf:RDF></metadata><defs
   id="defs6"><inkscape:perspective
   sodipodi:type="inkscape:persp3d"
   inkscape:vp_x="0 : 220.31 : 1"
   inkscape:vp_y="0 : 1000 : 0"
   inkscape:vp_z="439.73999 : 220.31 : 1"
   inkscape:persp3d-origin="219.87 : 146.87333 : 1"
   id="perspective553" />
<path
   id="path3251-4-5"
   d="m 9.2413,119.48 a 86.142,86.142 0 1 1 -172.28,0 86.142,86.142 0 1 1 172.28,0 z"
   transform="matrix(0,1,-1,0,-269.44818,55.248921)"
   style="opacity:0.2;fill:#00ff00;fill-rule:evenodd" />
	<linearGradient
   inkscape:collect="always"
   xlink:href="#polygon16_4_"
   id="linearGradient4152"
   gradientUnits="userSpaceOnUse"
   gradientTransform="translate(-1227.4805,-1687.2539)"
   x1="1044.2"
   y1="1632.6"
   x2="1423.1"
   y2="1851.4" /></defs>
			<linearGradient
   id="polygon16_4_"
   y2="1851.4"
   gradientUnits="userSpaceOnUse"
   y1="1632.6"
   gradientTransform="translate(-1227.4805,-1687.2539)"
   x2="1423.1"
   x1="1044.2">
			<stop
   stop-color="#CBA93D"
   offset="0.1942"
   id="stop10" />
			<stop
   stop-color="#A97B2B"
   offset="0.5041"
   id="stop12" />
			<stop
   stop-color="#CBA93D"
   offset="0.8636"
   id="stop14" />
		</linearGradient>
		<polygon
   points="138.02,194.34 145.34,223.86 117.78,211.01 121.04,241.25 95.473,224.77 94.585,255.17 71.504,235.36 66.465,265.36 46.324,242.57 37.218,271.59 20.383,246.26 7.406,273.76 -5.843,246.38 -22.411,271.89 -31.848,242.98 -51.719,266.01 -57.124,236.08 -79.96,256.16 -81.207,225.77 -106.58,242.54 -103.66,212.27 -131.09,225.42 -124.08,195.82 -153.03,205.13 -142.07,176.76 -172.02,182.06 -157.33,155.43 -187.72,156.62 -169.54,132.24 -199.8,129.27 -178.46,107.61 -208.03,100.52 -183.92,81.992 -212.24,70.918 -185.82,55.852 -212.38,41.039 -184.18,29.666 -208.51,11.412 -179.02,3.969 -200.63,-17.434 -170.4,-20.767 -188.87,-44.934 -158.46,-44.092 -173.46,-70.554 -143.45,-65.573 -154.7,-93.83 -125.65,-84.825 -132.98,-114.34 -105.41,-101.49 -108.67,-131.73 -83.102,-115.25 -82.213,-145.65 -59.136,-125.84 -54.101,-155.84 -33.955,-133.05 -24.851,-162.07 -8.017,-136.74 4.964,-164.24 18.21,-136.86 34.775,-162.38 44.217,-133.46 64.086,-156.49 69.49,-126.56 92.328,-146.65 93.576,-116.26 118.95,-133.03 116.03,-102.75 143.46,-115.9 136.44,-86.307 165.4,-95.613 154.44,-67.24 184.39,-72.546 169.69,-45.918 200.08,-47.108 181.9,-22.727 212.17,-19.761 190.82,1.905 220.4,8.99 196.28,27.523 224.61,38.597 198.19,53.664 224.75,68.476 196.54,79.851 220.88,98.103 191.39,105.55 213,126.95 182.77,130.28 201.24,154.45 170.83,153.61 185.82,180.07 155.82,175.09 167.07,203.35 "
   id="polygon16"
   style="fill:url(#linearGradient4152);stroke:none"
   transform="translate(-1.306,-1.3114936)" />
		<circle
   cx="6.184"
   cy="54.759998"
   r="160.86"
   id="circle18"
   sodipodi:cx="6.184"
   sodipodi:cy="54.759998"
   sodipodi:rx="160.86"
   sodipodi:ry="160.86"
   style="fill:#26374d;stroke:#000000;stroke-width:1.125"
   transform="translate(-1.306,-1.3114936)" />
	<path
   id="path3236"
   d="m 4.8686772,-84.052457 a 137.50412,137.50412 0 1 0 0,275.008237 137.50412,137.50412 0 0 0 0,-275.008237 z"
   style="opacity:0.5;fill:none" />
			<path
   d="m 37.453,-44.636493 c 0.86,-0.373 1.412,-1.039 1.658,-1.984 0.235,-0.916 0.146,-1.832 -0.283,-2.676 -0.563,-1.119 -1.732,-2.071 -3.558,-2.527 -3.164,-0.816 -4.101,0.237 -4.101,0.237 l -1.138,4.84 c 0,0 -0.313,1.221 3.082,2.074 1.866,0.482 3.325,0.473 4.34,0.036 z"
   id="path21"
   style="fill:#c8a736;stroke:#000000;stroke-width:1.125" />
			<path
   d="m 23.37,-53.455493 c 0,0 0.99,-1.042 4.425,-0.188 3.438,0.854 4.802,3.13 4.238,5.277 -0.542,2.082 -2.768,2.797 -6.457,1.878 -3.688,-0.915 -3.367,-2.133 -3.367,-2.133"
   id="path23"
   style="fill:#c8a736;stroke:#000000;stroke-width:1.125" />
			<path
   d="m 14.076,-54.322493 c 0,0 0.802,-1.193 4.405,-0.921 3.598,0.271 5.385,2.293 5.219,4.504 -0.163,2.144 -2.254,3.217 -6.12,2.924 -3.866,-0.292 -3.771,-1.546 -3.771,-1.546"
   id="path25"
   style="fill:#c8a736;stroke:#000000;stroke-width:1.125" />
			<path
   d="m 5.587,-55.134493 c 0,0 0.775,-1.195 4.257,-0.933 3.478,0.264 5.203,2.28 5.032,4.489 -0.164,2.146 -2.185,3.224 -5.923,2.941 -3.73,-0.282 -3.64,-1.536 -3.64,-1.536"
   id="path27"
   style="fill:#c8a736;stroke:#000000;stroke-width:1.125" />
			<path
   d="m -2.466,-54.577493 c 0,0 0.561,-1.29 3.813,-1.5 3.257,-0.209 5.116,1.556 5.259,3.771 0.132,2.146 -1.6,3.488 -5.097,3.715 -3.498,0.224 -3.575,-1.032 -3.575,-1.032"
   id="path29"
   style="fill:#c8a736;stroke:#000000;stroke-width:1.125" />
			<path
   d="m -10.719,-53.938493 c 0,0 0.643,-1.301 4.262,-1.551 3.619,-0.25 5.664,1.491 5.793,3.706 0.123,2.15 -1.819,3.517 -5.706,3.787 -3.888,0.274 -3.96,-0.986 -3.96,-0.986"
   id="path31"
   style="fill:#c8a736;stroke:#000000;stroke-width:1.125" />
			<path
   d="m -19.583,-51.915493 c 0,0 0.396,-1.383 3.904,-2.231 3.507,-0.851 5.833,0.522 6.352,2.676 0.504,2.091 -1.15,3.759 -4.916,4.671 -3.771,0.91 -4.064,-0.312 -4.064,-0.312"
   id="path33"
   style="fill:#c8a736;stroke:#000000;stroke-width:1.125" />
			<path
   d="m -27.907,-50.073493 c 0,0 0.365,-1.375 3.76,-2.197 3.392,-0.82 5.651,0.565 6.17,2.722 0.509,2.091 -1.084,3.741 -4.724,4.625 -3.645,0.882 -3.94,-0.341 -3.94,-0.341"
   id="path35"
   style="fill:#c8a736;stroke:#000000;stroke-width:1.125" />
			<path
   d="m -35.94,-46.840493 c 0,0 0.13,-1.403 3.155,-2.621 3.024,-1.219 5.347,-0.126 6.169,1.93 0.798,2 -0.425,3.817 -3.675,5.124 -3.248,1.313 -3.716,0.144 -3.716,0.144"
   id="path37"
   style="fill:#c8a736;stroke:#000000;stroke-width:1.125" />
			<path
   d="m -43.654,-43.617493 c 0,0 0.203,-1.434 3.594,-2.817 3.388,-1.389 5.896,-0.381 6.709,1.686 0.791,2.001 -0.639,3.916 -4.281,5.402 -3.635,1.486 -4.098,0.315 -4.098,0.315"
   id="path39"
   style="fill:#c8a736;stroke:#000000;stroke-width:1.125" />
			<path
   d="m -51.36,-38.950493 c 0,0 -0.061,-1.438 3.008,-3.344 3.064,-1.906 5.701,-1.332 6.871,0.552 1.138,1.825 0.088,3.926 -3.209,5.975 -3.29,2.047 -3.955,0.979 -3.955,0.979"
   id="path41"
   style="fill:#c8a736;stroke:#000000;stroke-width:1.125" />
			<path
   d="m -58.69,-34.588493 c 0,0 -0.079,-1.424 2.884,-3.27 2.966,-1.84 5.542,-1.23 6.719,0.653 1.133,1.825 0.142,3.893 -3.044,5.871 -3.18,1.978 -3.846,0.91 -3.846,0.91"
   id="path43"
   style="fill:#c8a736;stroke:#000000;stroke-width:1.125" />
			<path
   d="m -64.919,-29.335493 c 0,0 -0.312,-1.373 2.19,-3.467 2.506,-2.095 5.046,-1.771 6.467,-0.067 1.38,1.651 0.776,3.759 -1.911,6.007 -2.687,2.249 -3.491,1.283 -3.491,1.283"
   id="path45"
   style="fill:#c8a736;stroke:#000000;stroke-width:1.125" />
			<path
   d="m -71.298,-23.853493 c 0,0 -0.248,-1.431 2.562,-3.804 2.813,-2.379 5.518,-2.205 6.929,-0.492 1.367,1.659 0.594,3.928 -2.429,6.48 -3.017,2.555 -3.814,1.582 -3.814,1.582"
   id="path47"
   style="fill:#c8a736;stroke:#000000;stroke-width:1.125" />
			<path
   d="m -77.145,-17.070493 c 0,0 -0.497,-1.346 1.826,-4.106 2.328,-2.761 5.012,-3.026 6.705,-1.598 1.646,1.387 1.296,3.709 -1.204,6.677 -2.501,2.964 -3.461,2.153 -3.461,2.153"
   id="path49"
   style="fill:#c8a736;stroke:#000000;stroke-width:1.125" />
			<path
   d="m -82.769,-10.658493 c 0,0 -0.516,-1.327 1.732,-3.994 2.247,-2.668 4.892,-2.885 6.588,-1.454 1.645,1.387 1.335,3.655 -1.081,6.5229994 -2.414,2.862 -3.378,2.05 -3.378,2.05"
   id="path51"
   style="fill:#c8a736;stroke:#000000;stroke-width:1.125" />
			<path
   d="m -87.338,-3.3034936 c 0,0 -0.723,-1.206 0.996,-3.979 1.72,-2.7699994 4.229,-3.2609994 6.119,-2.089 1.821,1.138 1.907,3.327 0.063,6.301 -1.846,2.97900009 -2.913,2.31300009 -2.913,2.31300009"
   id="path53"
   style="fill:#c8a736;stroke:#000000;stroke-width:1.125" />
			<path
   d="m -91.478,3.5785064 c 0,0 -0.694,-1.258 1.154,-4.27599991 1.85,-3.01800009 4.435,-3.63300009 6.313,-2.45100009 1.816,1.146 1.836,3.47800009 -0.155,6.72 -1.979,3.238 -3.047,2.568 -3.047,2.568"
   id="path55"
   style="fill:#c8a736;stroke:#000000;stroke-width:1.125" />
			<path
   d="m -95.107,12.178507 c 0,0 -0.896,-1.123 0.451,-4.4740006 1.346,-3.348 3.813,-4.443 5.868,-3.618 1.991,0.8 2.393,3.117 0.945,6.7150006 -1.444,3.601 -2.609,3.129 -2.609,3.129"
   id="path57"
   style="fill:#c8a736;stroke:#000000;stroke-width:1.125" />
			<path
   d="m -98.436,20.031507 c 0,0 -0.906,-1.104 0.396,-4.34 1.298,-3.237 3.737,-4.272 5.798,-3.446 1.995,0.804 2.415,3.056 1.02,6.534 -1.396,3.475 -2.563,3.008 -2.563,3.008"
   id="path59"
   style="fill:#c8a736;stroke:#000000;stroke-width:1.125" />
			<path
   d="m -100.857,29.053507 c 0,0 -0.978,-1.063 0.096,-4.529 1.08,-3.467 3.44,-4.746 5.557,-4.063 2.047,0.664 2.621,2.97 1.463,6.691 -1.154,3.722 -2.353,3.335 -2.353,3.335"
   id="path61"
   style="fill:#c8a736;stroke:#000000;stroke-width:1.125" />
			<path
   d="m -102.186,38.048507 c 0,0 -1.146,-0.868 -0.667,-4.444 0.479,-3.577 2.601,-5.244 4.799,-4.954 2.13,0.289 3.087,2.438 2.566,6.278 -0.514,3.846 -1.761,3.677 -1.761,3.677"
   id="path63"
   style="fill:#c8a736;stroke:#000000;stroke-width:1.125" />
			<path
   d="m -103.486,46.477507 c 0,0 -1.146,-0.842 -0.681,-4.301 0.462,-3.456 2.575,-5.063 4.771,-4.767 2.133,0.286 3.095,2.368 2.595,6.08 -0.497,3.714 -1.743,3.548 -1.743,3.548"
   id="path65"
   style="fill:#c8a736;stroke:#000000;stroke-width:1.125" />
			<path
   d="m -103.386,55.136507 c 0,0 -1.26,-0.625 -1.297,-3.89 -0.039,-3.259 1.817,-5.025 4.035,-5.05 2.15,-0.021 3.401,1.779 3.441,5.28 0.047,3.502 -1.215,3.515 -1.215,3.515"
   id="path67"
   style="fill:#c8a736;stroke:#000000;stroke-width:1.125" />
			<path
   d="m -103.176,63.492507 c 0,0 -1.261,-0.715 -1.325,-4.371 -0.063,-3.662 1.781,-5.63 4.002,-5.642 2.156,-0.012 3.419,2.012 3.483,5.945 0.067,3.927 -1.188,3.937 -1.188,3.937"
   id="path69"
   style="fill:#c8a736;stroke:#000000;stroke-width:1.125" />
			<path
   d="m -101.616,72.364507 c 0,0 -1.359,-0.471 -2.026,-4.012 -0.665,-3.552 0.819,-5.798 3.003,-6.211 2.113,-0.4 3.69,1.346 4.406,5.156 0.718,3.81 -0.521,4.039 -0.521,4.039"
   id="path71"
   style="fill:#c8a736;stroke:#000000;stroke-width:1.125" />
			<path
   d="m -100.203,80.774507 c 0,0 -1.354,-0.438 -2.004,-3.865 -0.64,-3.434 0.858,-5.617 3.039,-6.025 2.113,-0.395 3.678,1.281 4.367,4.965 0.693,3.68 -0.542,3.912 -0.542,3.912"
   id="path73"
   style="fill:#c8a736;stroke:#000000;stroke-width:1.125" />
			<path
   d="m -97.562,88.483507 c 0,0 -1.396,-0.207 -2.438,-3.301 -1.045,-3.088 0.178,-5.341 2.28,-6.041 2.039,-0.688 3.782,0.637 4.907,3.961 1.125,3.319 -0.068,3.719 -0.068,3.719"
   id="path75"
   style="fill:#c8a736;stroke:#000000;stroke-width:1.125" />
			<path
   d="m -94.765,96.416507 c 0,0 -1.422,-0.28 -2.618,-3.763 -1.198,-3.485 -0.055,-5.938 2.054,-6.637 2.041,-0.676 3.874,0.871 5.157,4.609 1.285,3.736 0.094,4.131 0.094,4.131"
   id="path77"
   style="fill:#c8a736;stroke:#000000;stroke-width:1.125" />
			<path
   d="m -90.558,104.32851 c 0,0 -1.438,-0.021 -3.167,-3.188 -1.729,-3.168003 -1.007,-5.771003 0.938,-6.830003 1.894,-1.031 3.93,0.139 5.785,3.543 1.855,3.403003 0.754,4.004003 0.754,4.004003"
   id="path79"
   style="fill:#c8a736;stroke:#000000;stroke-width:1.125" />
			<path
   d="m -86.622,111.88851 -3.096,-3.062 c -1.676,-3.063 -0.921,-5.604 1.031,-6.666 1.885,-1.031 3.892,0.08 5.688,3.368 1.792,3.287 0.689,3.89 0.689,3.89"
   id="path81"
   style="fill:#c8a736;stroke:#000000;stroke-width:1.125" />
			<path
   d="m -81.426,118.80851 c 0,0 -1.386,0.24 -3.345,-2.369 -1.961,-2.605 -1.506,-5.127 0.271,-6.461 1.72,-1.285 3.793,-0.572 5.898,2.221 2.104,2.799 1.097,3.551 1.097,3.551"
   id="path83"
   style="fill:#c8a736;stroke:#000000;stroke-width:1.125" />
			<path
   d="m -76.508,125.16851 c 0,0 -1.426,0.194 -3.567,-2.625 -2.146,-2.817 -1.781,-5.446 0,-6.771 1.729,-1.279 3.903,-0.449 6.206,2.58 2.304,3.021 1.292,3.771 1.292,3.771"
   id="path85"
   style="fill:#c8a736;stroke:#000000;stroke-width:1.125" />
			<path
   d="m -69.807,131.66851 c 0,0 -1.373,0.426 -4.011,-2.037 -2.636,-2.469 -2.76,-5.162 -1.242,-6.78 1.469,-1.57 3.771,-1.095 6.599,1.551 2.833,2.652 1.97,3.565 1.97,3.565"
   id="path87"
   style="fill:#c8a736;stroke:#000000;stroke-width:1.125" />
			<path
   d="m -63.699,137.61851 c 0,0 -1.354,0.443 -3.903,-1.941 -2.543,-2.379 -2.625,-5.031 -1.104,-6.652 1.47,-1.567 3.718,-1.145 6.459,1.412 2.73,2.562 1.874,3.479 1.874,3.479"
   id="path89"
   style="fill:#c8a736;stroke:#000000;stroke-width:1.125" />
			<path
   d="m -56.823,142.39851 c 0,0 -1.241,0.658 -3.915,-1.215 -2.678,-1.867 -3.026,-4.406 -1.753,-6.22 1.233,-1.762 3.427,-1.729 6.296,0.274 2.873,2.011 2.151,3.037 2.151,3.037"
   id="path91"
   style="fill:#c8a736;stroke:#000000;stroke-width:1.125" />
			<path
   d="m -49.976,147.04851 c 0,0 -1.308,0.619 -4.293,-1.446 -2.984,-2.063 -3.498,-4.705 -2.22,-6.517 1.245,-1.754 3.617,-1.606 6.825,0.604 3.206,2.215 2.475,3.235 2.475,3.235"
   id="path93"
   style="fill:#c8a736;stroke:#000000;stroke-width:1.125" />
			<path
   d="m -41.789,151.00851 c 0,0 -1.17,0.83 -4.442,-0.696 -3.271,-1.521 -4.229,-4.045 -3.289,-6.054 0.904,-1.95 3.241,-2.217 6.756,-0.58 3.516,1.644 2.982,2.781 2.982,2.781"
   id="path95"
   style="fill:#c8a736;stroke:#000000;stroke-width:1.125" />
			<path
   d="m -34.133,154.75851 c 0,0 -1.146,0.847 -4.311,-0.627 -3.161,-1.471 -4.063,-3.967 -3.118,-5.976 0.904,-1.952 3.179,-2.25 6.574,-0.664 3.396,1.589 2.867,2.724 2.867,2.724"
   id="path97"
   style="fill:#c8a736;stroke:#000000;stroke-width:1.125" />
			<path
   d="m -25.841,157.24851 c 0,0 -0.973,1.019 -4.1,0.08 -3.127,-0.939 -4.257,-3.24 -3.616,-5.361 0.625,-2.062 2.715,-2.719 6.068,-1.711 3.356,1.007 2.991,2.209 2.991,2.209"
   id="path99"
   style="fill:#c8a736;stroke:#000000;stroke-width:1.125" />
			<path
   d="m -17.801,159.54851 c 0,0 -1.056,0.992 -4.568,-0.037 -3.514,-1.032 -4.844,-3.389 -4.188,-5.504 0.633,-2.058 2.942,-2.662 6.718,-1.549 3.771,1.104 3.4,2.31 3.4,2.31"
   id="path101"
   style="fill:#c8a736;stroke:#000000;stroke-width:1.125" />
			<path
   d="m -8.867,160.70851 c 0,0 -0.85,1.157 -4.438,0.733 -3.585,-0.426 -5.28,-2.521 -5.024,-4.721 0.252,-2.137 2.387,-3.121 6.236,-2.666 3.849,0.457 3.702,1.707 3.702,1.707"
   id="path103"
   style="fill:#c8a736;stroke:#000000;stroke-width:1.125" />
			<path
   d="m -0.419,161.86851 c 0,0 -0.828,1.164 -4.29,0.754 -3.469,-0.408 -5.101,-2.494 -4.843,-4.696 0.255,-2.138 2.315,-3.13 6.04,-2.689 3.72,0.441 3.575,1.689 3.575,1.689"
   id="path105"
   style="fill:#c8a736;stroke:#000000;stroke-width:1.125" />
			<path
   d="m 7.726,161.64851 c 0,0 -0.611,1.271 -3.874,1.342 -3.262,0.082 -5.049,-1.766 -5.095,-3.979 -0.043,-2.154 1.738,-3.416 5.243,-3.498 3.504,-0.086 3.531,1.176 3.531,1.176"
   id="path107"
   style="fill:#c8a736;stroke:#000000;stroke-width:1.125" />
			<path
   d="m 16.137,161.34851 c 0,0 -0.702,1.274 -4.381,1.373 -3.681,0.104 -5.682,-1.718 -5.717,-3.938 -0.032,-2.15 1.988,-3.438 5.94,-3.549 3.95,-0.109 3.968,1.148 3.968,1.148"
   id="path109"
   style="fill:#c8a736;stroke:#000000;stroke-width:1.125" />
			<path
   d="m 24.94,159.70851 c 0,0 -0.453,1.364 -3.993,2.067 -3.538,0.703 -5.802,-0.764 -6.236,-2.938 -0.415,-2.108 1.308,-3.705 5.108,-4.461 3.803,-0.757 4.047,0.478 4.047,0.478"
   id="path111"
   style="fill:#c8a736;stroke:#000000;stroke-width:1.125" />
			<path
   d="m 33.331,158.20851 c 0,0 -0.426,1.358 -3.845,2.039 -3.422,0.684 -5.625,-0.796 -6.056,-2.976 -0.419,-2.104 1.238,-3.69 4.915,-4.42 3.669,-0.729 3.914,0.5 3.914,0.5"
   id="path113"
   style="fill:#c8a736;stroke:#000000;stroke-width:1.125" />
			<path
   d="m 41.493,155.30851 c 0,0 -0.188,1.396 -3.264,2.489 -3.073,1.093 -5.347,-0.094 -6.088,-2.188 -0.719,-2.03 0.585,-3.789 3.884,-4.969 3.302,-1.176 3.719,0.012 3.719,0.012"
   id="path115"
   style="fill:#c8a736;stroke:#000000;stroke-width:1.125" />
			<path
   d="m 49.022,152.51851 c 0,0 -0.239,1.414 -3.571,2.621 -3.33,1.204 -5.728,0.069 -6.461,-2.023 -0.706,-2.031 0.737,-3.863 4.313,-5.156 3.573,-1.291 3.983,-0.104 3.983,-0.104"
   id="path117"
   style="fill:#c8a736;stroke:#000000;stroke-width:1.125" />
			<path
   d="m 57.223,148.05851 c 0,0 0,1.44 -3.146,3.219 -3.141,1.781 -5.75,1.096 -6.842,-0.834 -1.06,-1.871 0.079,-3.93 3.453,-5.836 3.374,-1.91 3.99,-0.814 3.99,-0.814"
   id="path119"
   style="fill:#c8a736;stroke:#000000;stroke-width:1.125" />
			<path
   d="m 64.726,144.00851 c 0,0 0.024,1.424 -3.017,3.145 -3.034,1.721 -5.589,1.004 -6.679,-0.926 -1.06,-1.875 0.021,-3.896 3.283,-5.744 3.258,-1.844 3.879,-0.75 3.879,-0.75"
   id="path121"
   style="fill:#c8a736;stroke:#000000;stroke-width:1.125" />
			<path
   d="m 71.747,138.56851 c 0,0 0.265,1.379 -2.31,3.387 -2.572,2.004 -5.104,1.594 -6.468,-0.158 -1.316,-1.695 -0.646,-3.779 2.117,-5.938 2.765,-2.152 3.532,-1.156 3.532,-1.156"
   id="path123"
   style="fill:#c8a736;stroke:#000000;stroke-width:1.125" />
			<path
   d="m 78.204,133.38851 c 0,0 0.204,1.434 -2.646,3.682 -2.852,2.242 -5.524,1.959 -6.88,0.201 -1.313,-1.709 -0.479,-3.931 2.585,-6.34 3.062,-2.42 3.832,-1.418 3.832,-1.418"
   id="path125"
   style="fill:#c8a736;stroke:#000000;stroke-width:1.125" />
			<path
   d="m 84.392,126.72851 c 0,0 0.453,1.36 -1.971,4.039 -2.416,2.682 -5.107,2.854 -6.756,1.367 -1.595,-1.443 -1.162,-3.755 1.437,-6.63 2.6,-2.877 3.532,-2.03 3.532,-2.03"
   id="path127"
   style="fill:#c8a736;stroke:#000000;stroke-width:1.125" />
			<path
   d="m 90.233,120.51851 c 0,0 0.469,1.346 -1.869,3.934 -2.341,2.59 -4.984,2.717 -6.633,1.229 -1.596,-1.443 -1.215,-3.703 1.304,-6.484 2.515,-2.778 3.448,-1.936 3.448,-1.936"
   id="path129"
   style="fill:#c8a736;stroke:#000000;stroke-width:1.125" />
			<path
   d="m 95.052,113.32851 c 0,0 0.687,1.229 -1.131,3.938 -1.816,2.711 -4.347,3.113 -6.188,1.877 -1.784,-1.201 -1.798,-3.391 0.152,-6.301 1.949,-2.914 2.992,-2.213 2.992,-2.213"
   id="path131"
   style="fill:#c8a736;stroke:#000000;stroke-width:1.125" />
			<path
   d="m 99.614,106.31851 c 0,0 0.638,1.303 -1.383,4.352 -2.024,3.057 -4.658,3.633 -6.495,2.389 -1.781,-1.213 -1.676,-3.596 0.498,-6.875 2.164,-3.277 3.208,-2.568 3.208,-2.568"
   id="path133"
   style="fill:#c8a736;stroke:#000000;stroke-width:1.125" />
			<path
   d="m 103.354,98.119507 c 0,0 0.854,1.155 -0.601,4.457003 -1.464,3.303 -3.961,4.309 -5.988,3.416 -1.969,-0.873 -2.281,-3.203 -0.715,-6.748003 1.565,-3.546 2.719,-3.035 2.719,-3.035"
   id="path135"
   style="fill:#c8a736;stroke:#000000;stroke-width:1.125" />
			<path
   d="m 106.954,90.388507 c 0,0 0.867,1.135 -0.539,4.321 -1.408,3.19 -3.891,4.142 -5.914,3.246 -1.967,-0.873 -2.308,-3.14 -0.791,-6.563 1.521,-3.431 2.668,-2.922 2.668,-2.922"
   id="path137"
   style="fill:#c8a736;stroke:#000000;stroke-width:1.125" />
			<path
   d="m 109.144,82.539507 c 0,0 1.029,0.961 0.143,4.101 -0.893,3.139 -3.173,4.303 -5.306,3.696 -2.068,-0.594 -2.759,-2.67 -1.804,-6.043 0.955,-3.371 2.162,-3.028 2.162,-3.028"
   id="path139"
   style="fill:#c8a736;stroke:#000000;stroke-width:1.125" />
			<path
   d="m 111.324,74.414507 c 0,0 1.011,1.043 0.028,4.592 -0.987,3.543 -3.319,4.921 -5.449,4.306 -2.068,-0.603 -2.703,-2.914 -1.646,-6.724 1.057,-3.81 2.267,-3.455 2.267,-3.455"
   id="path141"
   style="fill:#c8a736;stroke:#000000;stroke-width:1.125" />
			<path
   d="m 112.334,65.513507 c 0,0 1.17,0.836 0.801,4.426 -0.367,3.59 -2.437,5.319 -4.641,5.098 -2.144,-0.223 -3.156,-2.344 -2.765,-6.201 0.396,-3.852 1.646,-3.727 1.646,-3.727"
   id="path143"
   style="fill:#c8a736;stroke:#000000;stroke-width:1.125" />
			<path
   d="m 113.374,57.053507 c 0,0 1.174,0.804 0.816,4.276 -0.354,3.47 -2.416,5.141 -4.625,4.908 -2.141,-0.221 -3.161,-2.268 -2.779,-5.993 0.381,-3.729 1.635,-3.6 1.635,-3.6"
   id="path145"
   style="fill:#c8a736;stroke:#000000;stroke-width:1.125" />
			<path
   d="m 113.014,48.404507 c 0,0 1.279,0.589 1.418,3.847 0.142,3.258 -1.664,5.08 -3.883,5.169 -2.15,0.089 -3.453,-1.668 -3.603,-5.167 -0.153,-3.5 1.104,-3.551 1.104,-3.551"
   id="path147"
   style="fill:#c8a736;stroke:#000000;stroke-width:1.125" />
			<path
   d="m 112.554,40.384507 c 0,0 1.285,0.647 1.455,4.185 0.17,3.534 -1.615,5.499 -3.836,5.577 -2.15,0.078 -3.476,-1.839 -3.656,-5.638 -0.188,-3.794 1.072,-3.84 1.072,-3.84"
   id="path149"
   style="fill:#c8a736;stroke:#000000;stroke-width:1.125" />
			<path
   d="m 110.714,31.232507 c 0,0 1.371,0.428 2.148,3.953 0.775,3.523 -0.646,5.815 -2.814,6.292 -2.097,0.463 -3.728,-1.229 -4.563,-5.018 -0.832,-3.787 0.396,-4.056 0.396,-4.056"
   id="path151"
   style="fill:#c8a736;stroke:#000000;stroke-width:1.125" />
			<path
   d="m 109.044,22.871507 c 0,0 1.371,0.398 2.119,3.809 0.745,3.406 -0.688,5.637 -2.854,6.111 -2.102,0.46 -3.717,-1.163 -4.521,-4.826 -0.807,-3.658 0.426,-3.928 0.426,-3.928"
   id="path153"
   style="fill:#c8a736;stroke:#000000;stroke-width:1.125" />
			<path
   d="m 105.654,13.889507 c 0,0 1.435,0.229 2.78,3.708 1.35,3.481 0.316,6.021 -1.752,6.817 -2.006,0.772 -3.905,-0.714 -5.354,-4.451 -1.447,-3.735 -0.277,-4.185 -0.277,-4.185"
   id="path155"
   style="fill:#c8a736;stroke:#000000;stroke-width:1.125" />
			<path
   d="m 102.554,6.2165064 c 0,0 1.432,0.22 2.763,3.595 1.33,3.3760006 0.285,5.8540006 -1.786,6.6440006 -2.014,0.767 -3.902,-0.672 -5.332,-4.299 C 96.774,8.5325064 97.953,8.0855064 97.953,8.0855064"
   id="path157"
   style="fill:#c8a736;stroke:#000000;stroke-width:1.125" />
			<path
   d="m 97.951,-1.6264936 c 0,0 1.438,-0.041 3.307,3.05 1.869,3.09 1.258,5.718 -0.641,6.864 -1.84,1.112 -3.929,0.034 -5.936,-3.284 -2.004,-3.319 -0.93,-3.969 -0.93,-3.969"
   id="path159"
   style="fill:#c8a736;stroke:#000000;stroke-width:1.125" />
			<path
   d="m 93.687,-9.0084936 c 0,0 1.421,-0.063 3.229,2.924 1.805,2.985 1.159,5.55800009 -0.734,6.70300009 -1.844,1.11499991 -3.896,0.095 -5.834,-3.11300009 -1.938,-3.206 -0.862,-3.858 -0.862,-3.858"
   id="path161"
   style="fill:#c8a736;stroke:#000000;stroke-width:1.125" />
			<path
   d="m 88.185,-15.695493 c 0,0 1.375,-0.301 3.448,2.219 2.074,2.519 1.729,5.0599994 0.021,6.4659994 -1.664,1.364 -3.769,0.747 -5.991,-1.959 -2.228,-2.7039994 -1.254,-3.5009994 -1.254,-3.5009994"
   id="path163"
   style="fill:#c8a736;stroke:#000000;stroke-width:1.125" />
			<path
   d="m 82.784,-22.078493 c 0,0 1.431,-0.237 3.774,2.576 2.343,2.813 2.138,5.509 0.412,6.906 -1.67,1.354 -3.926,0.569 -6.438,-2.454 -2.519,-3.021 -1.537,-3.813 -1.537,-3.813"
   id="path165"
   style="fill:#c8a736;stroke:#000000;stroke-width:1.125" />
			<path
   d="m 76.013,-28.020493 c 0,0 1.35,-0.488 4.095,1.86 2.737,2.348 2.983,5.035 1.542,6.72 -1.401,1.632 -3.721,1.263 -6.664,-1.262 -2.943,-2.521 -2.124,-3.475 -2.124,-3.475"
   id="path167"
   style="fill:#c8a736;stroke:#000000;stroke-width:1.125" />
			<path
   d="m 69.646,-33.695493 c 0,0 1.336,-0.504 3.983,1.766 2.649,2.271 2.844,4.914 1.401,6.599 -1.399,1.63 -3.668,1.308 -6.518,-1.133 -2.845,-2.437 -2.025,-3.394 -2.025,-3.394"
   id="path169"
   style="fill:#c8a736;stroke:#000000;stroke-width:1.125" />
			<path
   d="m 62.76,-38.048493 c 0,0 1.217,-0.709 3.968,1.045 2.752,1.752 3.212,4.275 2.014,6.143 -1.159,1.813 -3.351,1.872 -6.302,-0.012 -2.956,-1.885 -2.279,-2.941 -2.279,-2.941"
   id="path171"
   style="fill:#c8a736;stroke:#000000;stroke-width:1.125" />
			<path
   d="m 55.607,-42.481493 c 0,0 1.288,-0.666 4.401,1.299 3.116,1.963 3.764,4.594 2.557,6.456 -1.169,1.808 -3.566,1.748 -6.908,-0.361 -3.343,-2.106 -2.656,-3.162 -2.656,-3.162"
   id="path173"
   style="fill:#c8a736;stroke:#000000;stroke-width:1.125" />
			<path
   d="m 47.378,-46.011493 c 0,0 1.134,-0.882 4.469,0.505 3.331,1.387 4.396,3.864 3.541,5.912 -0.827,1.984 -3.149,2.351 -6.726,0.86 -3.583,-1.489 -3.095,-2.65 -3.095,-2.65"
   id="path175"
   style="fill:#c8a736;stroke:#000000;stroke-width:1.125" />
			<path
   d="m 39.114,-46.620493 c -0.246,0.945 -0.8,1.611 -1.66,1.984 0.081,0.43 0.6,1.314 3.096,2.345 3.583,1.487 5.892,1.129 6.72,-0.86 0.852,-2.048 -0.204,-4.529 -3.531,-5.91 -3.331,-1.382 -4.453,-0.49 -4.453,-0.49 l -0.454,0.258 c 0.427,0.842 0.517,1.758 0.282,2.673 z"
   id="path177"
   style="fill:#c8a736;stroke:#000000;stroke-width:1.125" />
			<path
   d="m -43.071,-90.920493 c -1.267,-0.547 -2.083,-1.53 -2.441,-2.917 -0.347,-1.348 -0.215,-2.699 0.415,-3.944 0.824,-1.642 2.553,-3.042997 5.23,-3.717997 4.668,-1.201 6.034,0.352 6.034,0.352 l 1.675,7.124997 c 0,0 0.455,1.801 -4.535,3.052 -2.733,0.71 -4.878,0.694 -6.378,0.05 z"
   id="path179"
   style="fill:#c8a736;stroke:#000000;stroke-width:1.125" />
			<path
   d="m -22.341,-103.90149 c 0,0 -1.456,-1.538 -6.507,-0.277 -5.063,1.26 -7.075,4.602997 -6.248,7.767997 0.799,3.066 4.067,4.118 9.5,2.769 5.429,-1.351 4.958,-3.144 4.958,-3.144"
   id="path181"
   style="fill:#c8a736;stroke:#000000;stroke-width:1.125" />
			<path
   d="m -8.661,-105.17149 c 0,0 -1.179,-1.761 -6.481,-1.358 -5.297,0.398 -7.931,3.375 -7.679,6.628997 0.235,3.156 3.316,4.73 9.006,4.305 5.688,-0.428 5.549,-2.272 5.549,-2.272"
   id="path183"
   style="fill:#c8a736;stroke:#000000;stroke-width:1.125" />
			<path
   d="m 3.832,-106.37149 c 0,0 -1.146,-1.763 -6.263,-1.373 -5.124,0.39 -7.654,3.359 -7.409,6.613 0.243,3.154997 3.216,4.746997 8.716,4.325997 5.5,-0.413 5.358,-2.257 5.358,-2.257"
   id="path185"
   style="fill:#c8a736;stroke:#000000;stroke-width:1.125" />
			<path
   d="m 15.684,-105.55149 c 0,0 -0.827,-1.898 -5.618,-2.206 -4.784,-0.309 -7.529,2.288 -7.732,5.551 -0.196,3.155997 2.349,5.135997 7.499,5.465997 5.148,0.33 5.266,-1.516 5.266,-1.516"
   id="path187"
   style="fill:#c8a736;stroke:#000000;stroke-width:1.125" />
			<path
   d="m 27.823,-104.61149 c 0,0 -0.942,-1.911 -6.271,-2.279 -5.325,-0.369 -8.339,2.196 -8.528,5.45 -0.176,3.164997 2.681,5.174997 8.402,5.570997 5.721,0.405 5.832,-1.448 5.832,-1.448"
   id="path189"
   style="fill:#c8a736;stroke:#000000;stroke-width:1.125" />
			<path
   d="m 40.866,-101.63149 c 0,0 -0.564,-2.032 -5.734,-3.283 -5.169,-1.252 -8.58,0.771 -9.348,3.938 -0.737,3.080997 1.696,5.532997 7.229,6.875997 5.563,1.344 5.987,-0.457 5.987,-0.457"
   id="path191"
   style="fill:#c8a736;stroke:#000000;stroke-width:1.125" />
			<path
   d="m 53.127,-98.921493 c 0,0 -0.53,-2.024997 -5.531,-3.239997 -4.998,-1.207 -8.313,0.833 -9.088,4.002997 -0.739,3.083 1.602,5.512 6.944,6.811 5.376,1.305 5.817,-0.495 5.817,-0.495"
   id="path193"
   style="fill:#c8a736;stroke:#000000;stroke-width:1.125" />
			<path
   d="m 64.947,-94.167493 c 0,0 -0.188,-2.063 -4.64,-3.854 -4.447,-1.8 -7.873,-0.188 -9.083,2.844 -1.181,2.938 0.632,5.615 5.405,7.536 4.777,1.935 5.47,0.217 5.47,0.217"
   id="path195"
   style="fill:#c8a736;stroke:#000000;stroke-width:1.125" />
			<path
   d="m 76.308,-89.420493 c 0,0 -0.299,-2.115 -5.295,-4.155 -4.979,-2.04 -8.676,-0.556 -9.869,2.482 -1.159,2.945 0.942,5.766 6.303,7.954 5.346,2.183 6.035,0.465 6.035,0.465"
   id="path197"
   style="fill:#c8a736;stroke:#000000;stroke-width:1.125" />
			<path
   d="m 87.64,-82.551493 c 0,0 0.095,-2.114 -4.416,-4.919 -4.512,-2.806 -8.395,-1.964 -10.117,0.81 -1.664,2.693 -0.126,5.781 4.729,8.796 4.844,3.014 5.813,1.438 5.813,1.438"
   id="path199"
   style="fill:#c8a736;stroke:#000000;stroke-width:1.125" />
			<path
   d="m 98.437,-76.133493 c 0,0 0.108,-2.092 -4.242,-4.809 -4.368,-2.713 -8.158,-1.813 -9.888,0.96 -1.662,2.686 -0.203,5.729 4.479,8.64 4.686,2.908 5.656,1.342 5.656,1.342"
   id="path201"
   style="fill:#c8a736;stroke:#000000;stroke-width:1.125" />
			<path
   d="m 107.594,-68.403493 c 0,0 0.457,-2.018 -3.217,-5.098 -3.693,-3.083 -7.436,-2.602 -9.508,-0.098 -2.047,2.43 -1.147,5.532 2.795,8.841 3.961,3.313 5.139,1.891 5.139,1.891"
   id="path203"
   style="fill:#c8a736;stroke:#000000;stroke-width:1.125" />
			<path
   d="m 116.984,-60.325493 c 0,0 0.378,-2.106 -3.756,-5.601 -4.154,-3.502 -8.127,-3.24 -10.206,-0.721 -2.012,2.438 -0.86,5.774 3.572,9.539 4.447,3.757 5.625,2.323 5.625,2.323"
   id="path205"
   style="fill:#c8a736;stroke:#000000;stroke-width:1.125" />
			<path
   d="m 125.594,-50.346493 c 0,0 0.732,-1.979 -2.688,-6.043 -3.428,-4.064 -7.371,-4.455 -9.87,-2.354 -2.42,2.047 -1.902,5.466 1.778,9.831 3.677,4.364 5.095,3.171 5.095,3.171"
   id="path207"
   style="fill:#c8a736;stroke:#000000;stroke-width:1.125" />
			<path
   d="m 133.874,-40.905493 c 0,0 0.754,-1.957 -2.563,-5.878 -3.3,-3.928 -7.183,-4.251 -9.681,-2.143 -2.42,2.038 -1.967,5.383 1.588,9.604 3.552,4.215 4.971,3.016 4.971,3.016"
   id="path209"
   style="fill:#c8a736;stroke:#000000;stroke-width:1.125" />
			<path
   d="m 140.604,-30.084493 c 0,0 1.052,-1.771 -1.479,-5.848 -2.533,-4.079 -6.223,-4.809 -9.008,-3.083 -2.672,1.68 -2.813,4.896 -0.095,9.275 2.72,4.386 4.289,3.405 4.289,3.405"
   id="path211"
   style="fill:#c8a736;stroke:#000000;stroke-width:1.125" />
			<path
   d="m 146.684,-19.954493 c 0,0 1.022,-1.851 -1.697,-6.291 -2.722,-4.438 -6.521,-5.346 -9.287,-3.608 -2.669,1.688 -2.702,5.114 0.236,9.892 2.922,4.77 4.479,3.78 4.479,3.78"
   id="path213"
   style="fill:#c8a736;stroke:#000000;stroke-width:1.125" />
			<path
   d="m 152.024,-7.2984936 c 0,0 1.319,-1.65 -0.656,-6.5829994 -1.979,-4.926 -5.608,-6.539 -8.647,-5.323 -2.92,1.178 -3.504,4.59 -1.383,9.8819994 2.121,5.301 3.836,4.604 3.836,4.604"
   id="path215"
   style="fill:#c8a736;stroke:#000000;stroke-width:1.125" />
			<path
   d="m 156.934,4.2645064 c 0,0 1.338,-1.626 -0.581,-6.388 -1.905,-4.771 -5.503,-6.292 -8.533,-5.078 -2.938,1.187 -3.554,4.5 -1.493,9.621 2.041,5.114 3.771,4.423 3.771,4.423"
   id="path217"
   style="fill:#c8a736;stroke:#000000;stroke-width:1.125" />
			<path
   d="m 160.504,17.545507 c 0,0 1.428,-1.567 -0.146,-6.666 -1.589,-5.1050006 -5.074,-6.9890006 -8.188,-5.9770006 -3,0.976 -3.849,4.363 -2.137,9.8450006 1.696,5.474 3.457,4.905 3.457,4.905"
   id="path219"
   style="fill:#c8a736;stroke:#000000;stroke-width:1.125" />
			<path
   d="m 162.444,30.779507 c 0,0 1.681,-1.274 0.989,-6.539 -0.708,-5.264 -3.838,-7.716 -7.074,-7.295 -3.126,0.427 -4.54,3.592 -3.771,9.246 0.752,5.66 2.593,5.405 2.593,5.405"
   id="path221"
   style="fill:#c8a736;stroke:#000000;stroke-width:1.125" />
			<path
   d="m 164.364,43.188507 c 0,0 1.684,-1.237 1.006,-6.328 -0.676,-5.092 -3.787,-7.453 -7.025,-7.02 -3.146,0.42 -4.56,3.486 -3.82,8.954 0.722,5.466 2.563,5.219 2.563,5.219"
   id="path223"
   style="fill:#c8a736;stroke:#000000;stroke-width:1.125" />
			<path
   d="m 164.214,55.928507 c 0,0 1.854,-0.921 1.916,-5.72 0.063,-4.798 -2.688,-7.401 -5.94,-7.431 -3.177,-0.03 -5.015,2.617 -5.078,7.769 -0.063,5.159 1.79,5.175 1.79,5.175"
   id="path225"
   style="fill:#c8a736;stroke:#000000;stroke-width:1.125" />
			<path
   d="m 163.914,68.233507 c 0,0 1.854,-1.051 1.948,-6.436 0.095,-5.391 -2.625,-8.282 -5.896,-8.298 -3.174,-0.023 -5.031,2.96 -5.121,8.75 -0.11,5.78 1.742,5.786 1.742,5.786"
   id="path227"
   style="fill:#c8a736;stroke:#000000;stroke-width:1.125" />
			<path
   d="m 161.614,81.297507 c 0,0 1.995,-0.69 2.97,-5.909 0.987,-5.218 -1.211,-8.529 -4.416,-9.134 -3.106,-0.584 -5.438,1.979 -6.488,7.591 -1.053,5.61 0.771,5.952 0.771,5.952"
   id="path229"
   style="fill:#c8a736;stroke:#000000;stroke-width:1.125" />
			<path
   d="m 159.534,93.668507 c 0,0 1.979,-0.646 2.94,-5.685 0.941,-5.055 -1.258,-8.278 -4.479,-8.881 -3.111,-0.565 -5.408,1.892 -6.43,7.32 -1.023,5.414 0.805,5.758 0.805,5.758"
   id="path231"
   style="fill:#c8a736;stroke:#000000;stroke-width:1.125" />
			<path
   d="m 155.644,105.01851 c 0,0 2.058,-0.299 3.598,-4.855 1.541,-4.545003 -0.269,-7.859003 -3.36,-8.906003 -3.002,-1.006 -5.563,0.945 -7.215,5.834 -1.666,4.893003 0.094,5.475003 0.094,5.475003"
   id="path233"
   style="fill:#c8a736;stroke:#000000;stroke-width:1.125" />
			<path
   d="m 151.524,116.68851 c 0,0 2.093,-0.42 3.852,-5.533 1.773,-5.127 0.094,-8.74 -3.021,-9.764 -3,-1.004 -5.706,1.276 -7.593,6.78 -1.902,5.502 -0.144,6.091 -0.144,6.091"
   id="path235"
   style="fill:#c8a736;stroke:#000000;stroke-width:1.125" />
			<path
   d="m 145.334,128.33851 c 0,0 2.123,-0.03 4.668,-4.709 2.545,-4.647 1.478,-8.473 -1.385,-10.047 -2.781,-1.515 -5.781,0.209 -8.521,5.22 -2.719,5.006 -1.098,5.893 -1.098,5.893"
   id="path237"
   style="fill:#c8a736;stroke:#000000;stroke-width:1.125" />
			<path
   d="m 139.554,139.46851 4.541,-4.5 c 2.47,-4.515 1.365,-8.248 -1.513,-9.824 -2.766,-1.515 -5.719,0.121 -8.376,4.967 -2.641,4.846 -1.006,5.729 -1.006,5.729"
   id="path239"
   style="fill:#c8a736;stroke:#000000;stroke-width:1.125" />
			<path
   d="m 131.894,149.66851 c 0,0 2.042,0.345 4.919,-3.494 2.894,-3.84 2.219,-7.541 -0.396,-9.508 -2.533,-1.892 -5.578,-0.854 -8.672,3.271 -3.113,4.125 -1.621,5.231 -1.621,5.231"
   id="path241"
   style="fill:#c8a736;stroke:#000000;stroke-width:1.125" />
			<path
   d="m 124.654,159.00851 c 0,0 2.104,0.282 5.267,-3.869 3.146,-4.14 2.605,-8.009 0,-9.959 -2.543,-1.892 -5.755,-0.658 -9.147,3.797 -3.38,4.453 -1.901,5.545 -1.901,5.545"
   id="path243"
   style="fill:#c8a736;stroke:#000000;stroke-width:1.125" />
			<path
   d="m 114.794,168.57851 c 0,0 2.025,0.629 5.904,-3 3.866,-3.63 4.055,-7.604 1.825,-9.988 -2.168,-2.31 -5.546,-1.604 -9.715,2.296 -4.169,3.898 -2.906,5.247 -2.906,5.247"
   id="path245"
   style="fill:#c8a736;stroke:#000000;stroke-width:1.125" />
			<path
   d="m 105.804,177.33851 c 0,0 1.996,0.658 5.734,-2.862 3.76,-3.511 3.866,-7.406 1.635,-9.795 -2.166,-2.31 -5.469,-1.677 -9.506,2.09 -4.026,3.78 -2.752,5.129 -2.752,5.129"
   id="path247"
   style="fill:#c8a736;stroke:#000000;stroke-width:1.125" />
			<path
   d="m 95.689,184.36851 c 0,0 1.821,0.973 5.766,-1.783 3.931,-2.744 4.452,-6.479 2.58,-9.147 -1.823,-2.594 -5.045,-2.549 -9.272,0.403 -4.228,2.957 -3.156,4.472 -3.156,4.472"
   id="path249"
   style="fill:#c8a736;stroke:#000000;stroke-width:1.125" />
			<path
   d="m 85.612,191.21851 c 0,0 1.919,0.903 6.317,-2.127 4.399,-3.048 5.156,-6.931 3.271,-9.597 -1.84,-2.584 -5.328,-2.369 -10.04,0.899 -4.717,3.254 -3.647,4.771 -3.647,4.771"
   id="path251"
   style="fill:#c8a736;stroke:#000000;stroke-width:1.125" />
			<path
   d="m 73.56,197.04851 c 0,0 1.729,1.218 6.534,-1.021 4.826,-2.25 6.223,-5.953 4.845,-8.922 -1.336,-2.865 -4.765,-3.256 -9.935,-0.843 -5.188,2.414 -4.4,4.078 -4.4,4.078"
   id="path253"
   style="fill:#c8a736;stroke:#000000;stroke-width:1.125" />
			<path
   d="m 62.288,202.55851 c 0,0 1.683,1.246 6.35,-0.927 4.653,-2.161 5.973,-5.836 4.593,-8.789 -1.339,-2.881 -4.684,-3.313 -9.685,-0.975 -4.995,2.327 -4.211,4.008 -4.211,4.008"
   id="path255"
   style="fill:#c8a736;stroke:#000000;stroke-width:1.125" />
			<path
   d="m 50.095,206.23851 c 0,0 1.429,1.479 6.02,0.102 4.604,-1.381 6.272,-4.77 5.331,-7.891 -0.929,-3.029 -3.992,-3.986 -8.929,-2.521 -4.948,1.484 -4.403,3.256 -4.403,3.256"
   id="path257"
   style="fill:#c8a736;stroke:#000000;stroke-width:1.125" />
			<path
   d="m 38.244,209.60851 c 0,0 1.557,1.459 6.728,-0.062 5.167,-1.514 7.136,-4.976 6.175,-8.094 -0.943,-3.033 -4.341,-3.912 -9.888,-2.283 -5.546,1.634 -5.018,3.388 -5.018,3.388"
   id="path259"
   style="fill:#c8a736;stroke:#000000;stroke-width:1.125" />
			<path
   d="m 25.106,211.31851 c 0,0 1.257,1.711 6.522,1.08 5.281,-0.613 7.78,-3.705 7.402,-6.943 -0.378,-3.15 -3.504,-4.59 -9.179,-3.93 -5.677,0.676 -5.455,2.521 -5.455,2.521"
   id="path261"
   style="fill:#c8a736;stroke:#000000;stroke-width:1.125" />
			<path
   d="m 12.665,213.04851 c 0,0 1.22,1.713 6.318,1.106 5.096,-0.612 7.503,-3.676 7.125,-6.93 -0.375,-3.135 -3.407,-4.604 -8.896,-3.943 -5.469,0.646 -5.26,2.476 -5.26,2.476"
   id="path263"
   style="fill:#c8a736;stroke:#000000;stroke-width:1.125" />
			<path
   d="m 0.683,212.70851 c 0,0 0.904,1.875 5.704,1.979 4.793,0.104 7.436,-2.596 7.497,-5.864 0.063,-3.164 -2.563,-5.039 -7.717,-5.146 -5.158,-0.121 -5.193,1.728 -5.193,1.728"
   id="path265"
   style="fill:#c8a736;stroke:#000000;stroke-width:1.125" />
			<path
   d="m -11.694,212.27851 c 0,0 1.037,1.873 6.443,2.025 5.422,0.151 8.36,-2.531 8.417,-5.802 0.054,-3.166 -2.925,-5.073 -8.747,-5.219 -5.813,-0.183 -5.84,1.676 -5.84,1.676"
   id="path267"
   style="fill:#c8a736;stroke:#000000;stroke-width:1.125" />
			<path
   d="m -24.652,209.84851 c 0,0 0.666,2.012 5.877,3.045 5.21,1.032 8.539,-1.123 9.181,-4.334 0.619,-3.104 -1.918,-5.445 -7.521,-6.554 -5.594,-1.125 -5.957,0.705 -5.957,0.705"
   id="path269"
   style="fill:#c8a736;stroke:#000000;stroke-width:1.125" />
			<path
   d="m -36.997,207.64851 c 0,0 0.621,1.994 5.657,3 5.036,1.004 8.272,-1.172 8.909,-4.381 0.612,-3.104 -1.821,-5.429 -7.237,-6.509 -5.406,-1.082 -5.768,0.731 -5.768,0.731"
   id="path271"
   style="fill:#c8a736;stroke:#000000;stroke-width:1.125" />
			<path
   d="m -49.013,203.36851 c 0,0 0.272,2.053 4.8,3.674 4.521,1.603 7.866,-0.135 8.95,-3.226 1.055,-2.983 -0.849,-5.58 -5.705,-7.305 -4.862,-1.725 -5.479,0.018 -5.479,0.018"
   id="path273"
   style="fill:#c8a736;stroke:#000000;stroke-width:1.125" />
			<path
   d="m -60.092,199.25851 c 0,0 0.352,2.086 5.25,3.868 4.904,1.771 8.438,0.104 9.51,-2.983 1.043,-2.98 -1.086,-5.685 -6.351,-7.588 -5.258,-1.906 -5.862,-0.152 -5.862,-0.152"
   id="path275"
   style="fill:#c8a736;stroke:#000000;stroke-width:1.125" />
			<path
   d="m -72.17,192.70851 c 0,0 0,2.112 4.628,4.737 4.627,2.607 8.464,1.604 10.075,-1.229 1.559,-2.76 -0.117,-5.788 -5.085,-8.592 -4.967,-2.808 -5.878,-1.201 -5.878,-1.201"
   id="path277"
   style="fill:#c8a736;stroke:#000000;stroke-width:1.125" />
			<path
   d="m -83.212,186.73851 c 0,0 -0.031,2.096 4.439,4.635 4.464,2.521 8.219,1.469 9.83,-1.365 1.558,-2.76 -0.03,-5.729 -4.833,-8.457 -4.792,-2.717 -5.704,-1.094 -5.704,-1.094"
   id="path279"
   style="fill:#c8a736;stroke:#000000;stroke-width:1.125" />
			<path
   d="m -93.545,178.72851 c 0,0 -0.385,2.037 3.403,4.992 3.785,2.952 7.514,2.342 9.518,-0.24 1.94,-2.486 0.95,-5.563 -3.12,-8.74 -4.063,-3.162 -5.202,-1.693 -5.202,-1.693"
   id="path281"
   style="fill:#c8a736;stroke:#000000;stroke-width:1.125" />
			<path
   d="m -103.046,171.10851 c 0,0 -0.297,2.113 3.9,5.41 4.188,3.313 8.125,2.896 10.118,0.301 1.926,-2.506 0.7,-5.783 -3.803,-9.332 -4.501,-3.568 -5.635,-2.083 -5.635,-2.083"
   id="path283"
   style="fill:#c8a736;stroke:#000000;stroke-width:1.125" />
			<path
   d="m -112.156,161.30851 c 0,0 -0.668,2.012 2.9,5.954 3.562,3.943 7.521,4.199 9.939,2.011 2.349,-2.129 1.712,-5.521 -2.105,-9.748 -3.836,-4.244 -5.202,-3 -5.202,-3"
   id="path285"
   style="fill:#c8a736;stroke:#000000;stroke-width:1.125" />
			<path
   d="m -120.746,152.16851 c 0,0 -0.689,1.966 2.751,5.785 3.44,3.81 7.341,3.989 9.759,1.799 2.352,-2.129 1.784,-5.444 -1.916,-9.536 -3.69,-4.095 -5.066,-2.847 -5.066,-2.847"
   id="path287"
   style="fill:#c8a736;stroke:#000000;stroke-width:1.125" />
			<path
   d="m -127.846,141.57851 c 0,0 -1.007,1.799 1.665,5.804 2.671,3.989 6.396,4.575 9.104,2.76 2.625,-1.771 2.648,-4.992 -0.227,-9.281 -2.858,-4.285 -4.4,-3.256 -4.4,-3.256"
   id="path289"
   style="fill:#c8a736;stroke:#000000;stroke-width:1.125" />
			<path
   d="m -134.556,131.26851 c 0,0 -0.938,1.905 2.034,6.403 2.968,4.5 6.857,5.345 9.557,3.511 2.625,-1.781 2.468,-5.291 -0.73,-10.123 -3.188,-4.813 -4.722,-3.779 -4.722,-3.779"
   id="path291"
   style="fill:#c8a736;stroke:#000000;stroke-width:1.125" />
			<path
   d="m -140.056,119.20851 c 0,0 -1.267,1.694 0.889,6.554 2.146,4.856 5.824,6.344 8.811,5.024 2.895,-1.287 3.362,-4.709 1.054,-9.931 -2.312,-5.219 -4,-4.469 -4,-4.469"
   id="path293"
   style="fill:#c8a736;stroke:#000000;stroke-width:1.125" />
			<path
   d="m -145.366,107.82851 c 0,0 -1.272,1.666 0.803,6.354 2.072,4.695 5.721,6.092 8.707,4.771 2.894,-1.275 3.396,-4.619 1.162,-9.658 -2.231,-5.035 -3.924,-4.285 -3.924,-4.285"
   id="path295"
   style="fill:#c8a736;stroke:#000000;stroke-width:1.125" />
			<path
   d="m -148.586,96.263507 c 0,0 -1.508,1.409 -0.204,6.045003 1.302,4.616 4.666,6.327 7.811,5.442 3.042,-0.886 4.056,-3.931 2.649,-8.896003 -1.399,-4.979 -3.185,-4.471 -3.185,-4.471"
   id="path297"
   style="fill:#c8a736;stroke:#000000;stroke-width:1.125" />
			<path
   d="m -151.796,84.309507 c 0,0 -1.482,1.528 -0.037,6.748 1.452,5.233 4.88,7.26 8.023,6.344 3.041,-0.887 3.977,-4.287 2.411,-9.898 -1.549,-5.607 -3.333,-5.086 -3.333,-5.086"
   id="path299"
   style="fill:#c8a736;stroke:#000000;stroke-width:1.125" />
			<path
   d="m -153.286,71.201507 c 0,0 -1.72,1.229 -1.178,6.522 0.54,5.281 3.583,7.83 6.827,7.5 3.15,-0.332 4.65,-3.436 4.07,-9.117 -0.589,-5.666 -2.429,-5.489 -2.429,-5.489"
   id="path301"
   style="fill:#c8a736;stroke:#000000;stroke-width:1.125" />
			<path
   d="m -154.816,58.756507 c 0,0 -1.729,1.186 -1.203,6.29 0.52,5.104 3.561,7.566 6.807,7.232 3.15,-0.33 4.656,-3.344 4.093,-8.832 -0.563,-5.489 -2.403,-5.294 -2.403,-5.294"
   id="path303"
   style="fill:#c8a736;stroke:#000000;stroke-width:1.125" />
			<path
   d="m -154.276,46.023507 c 0,0 -1.878,0.869 -2.085,5.66 -0.204,4.799 2.454,7.484 5.716,7.61 3.157,0.129 5.084,-2.459 5.306,-7.61 0.22,-5.149 -1.626,-5.219 -1.626,-5.219"
   id="path305"
   style="fill:#c8a736;stroke:#000000;stroke-width:1.125" />
			<path
   d="m -153.606,34.221507 c 0,0 -1.896,0.952 -2.146,6.156 -0.25,5.203 2.38,8.09 5.642,8.21 3.167,0.113 5.114,-2.707 5.385,-8.3 0.273,-5.579 -1.582,-5.654 -1.582,-5.654"
   id="path307"
   style="fill:#c8a736;stroke:#000000;stroke-width:1.125" />
			<path
   d="m -150.886,20.747507 c 0,0 -2.021,0.63 -3.167,5.816 -1.142,5.188 0.95,8.563 4.142,9.269 3.09,0.675 5.492,-1.815 6.719,-7.386 1.227,-5.579 -0.58,-5.969 -0.58,-5.969"
   id="path309"
   style="fill:#c8a736;stroke:#000000;stroke-width:1.125" />
			<path
   d="m -148.436,8.4415064 c 0,0 -2.013,0.593 -3.119,5.6070006 -1.1,5.008 1.014,8.293 4.203,8.991 3.091,0.683 5.47,-1.71 6.656,-7.102 1.182,-5.384 -0.628,-5.78 -0.628,-5.78"
   id="path311"
   style="fill:#c8a736;stroke:#000000;stroke-width:1.125" />
			<path
   d="m -143.446,-4.7714936 c 0,0 -2.104,0.329 -4.093,5.45800009 -1.979,5.12099991 -0.465,8.86299991 2.576,10.03200051 2.955,1.133 5.744,-1.0500006 7.883,-6.5540006 2.128,-5.496 0.405,-6.156 0.405,-6.156"
   id="path313"
   style="fill:#c8a736;stroke:#000000;stroke-width:1.125" />
			<path
   d="m -138.886,-16.070493 c 0,0 -2.099,0.323 -4.063,5.294 -1.957,4.9629994 -0.417,8.6149994 2.634,9.77799949 2.963,1.125 5.743,-0.99000009 7.845,-6.32900009 2.104,-5.3379994 0.376,-5.9979994 0.376,-5.9979994"
   id="path315"
   style="fill:#c8a736;stroke:#000000;stroke-width:1.125" />
			<path
   d="m -132.116,-27.612493 c 0,0 -2.112,-0.066 -4.863,4.485 -2.75,4.543 -1.854,8.413 0.943,10.108 2.703,1.633 5.783,0.044 8.729,-4.839 2.957,-4.888 1.368,-5.841 1.368,-5.841"
   id="path317"
   style="fill:#c8a736;stroke:#000000;stroke-width:1.125" />
			<path
   d="m -125.836,-38.485493 c 0,0 -2.093,-0.09 -4.747,4.306 -2.657,4.393 -1.722,8.181 1.076,9.869 2.711,1.642 5.729,0.135 8.589,-4.582 2.854,-4.718 1.266,-5.679 1.266,-5.679"
   id="path319"
   style="fill:#c8a736;stroke:#000000;stroke-width:1.125" />
			<path
   d="m -117.736,-48.321493 c 0,0 -2.025,-0.441 -5.083,3.263 -3.051,3.712 -2.547,7.452 -0.023,9.522 2.451,2.001 5.546,1.093 8.814,-2.887 3.283,-3.981 1.854,-5.152 1.854,-5.152"
   id="path321"
   style="fill:#c8a736;stroke:#000000;stroke-width:1.125" />
			<path
   d="m -109.786,-57.717493 c 0,0 -2.104,-0.354 -5.557,3.788 -3.452,4.146 -3.146,8.111 -0.604,10.167 2.46,1.995 5.774,0.84 9.479,-3.613 3.7,-4.439 2.263,-5.609 2.263,-5.609"
   id="path323"
   style="fill:#c8a736;stroke:#000000;stroke-width:1.125" />
			<path
   d="m -99.822,-66.459493 c 0,0 -1.987,-0.72 -6.028,2.737 -4.032,3.456 -4.394,7.408 -2.271,9.892 2.062,2.4 5.479,1.859 9.808,-1.86 4.337,-3.705 3.136,-5.114 3.136,-5.114"
   id="path325"
   style="fill:#c8a736;stroke:#000000;stroke-width:1.125" />
			<path
   d="m -90.449,-74.813493 c 0,0 -1.966,-0.742 -5.859,2.594 -3.906,3.344 -4.188,7.235 -2.064,9.719 2.061,2.399 5.397,1.92 9.586,-1.673 4.188,-3.584 2.986,-4.994 2.986,-4.994"
   id="path327"
   style="fill:#c8a736;stroke:#000000;stroke-width:1.125" />
			<path
   d="m -80.319,-81.225493 c 0,0 -1.782,-1.042 -5.829,1.545 -4.049,2.58 -4.723,6.291 -2.965,9.035 1.708,2.67 4.93,2.761 9.274,-0.016 4.352,-2.773 3.354,-4.333 3.354,-4.333"
   id="path329"
   style="fill:#c8a736;stroke:#000000;stroke-width:1.125" />
			<path
   d="m -69.789,-87.747493 c 0,0 -1.9,-0.983 -6.473,1.913 -4.592,2.886 -5.54,6.762 -3.767,9.499 1.721,2.663 5.259,2.572 10.176,-0.532 4.919,-3.096 3.914,-4.656 3.914,-4.656"
   id="path331"
   style="fill:#c8a736;stroke:#000000;stroke-width:1.125" />
			<path
   d="m -57.672,-92.945493 c 0,0 -1.672,-1.297 -6.576,0.742 -4.904,2.04 -6.469,5.691 -5.219,8.707 1.219,2.916 4.627,3.457 9.899,1.267 5.271,-2.188 4.56,-3.897 4.56,-3.897"
   id="path333"
   style="fill:#c8a736;stroke:#000000;stroke-width:1.125" />
			<path
   d="m -45.516,-93.837493 c 0.36,1.388 1.181,2.37 2.441,2.917 -0.108,0.63 -0.88,1.935 -4.56,3.45 -5.272,2.188 -8.667,1.666 -9.896,-1.268 -1.249,-3.013 0.309,-6.666 5.202,-8.697 4.902,-2.031 6.556,-0.722 6.556,-0.722 l 0.666,0.375 c -0.62,1.246 -0.754,2.597 -0.409,3.945 z"
   id="path335"
   style="fill:#c8a736;stroke:#000000;stroke-width:1.125" />
	<g
   transform="translate(-5.306,-3.3114936)"
   id="g337"
   style="stroke:#000000;stroke-width:1.125"><path
     d="m -36.342,-4.335 c 0,9.514 -14.751,9.514 -14.751,0 -0.002,-9.51 14.751,-9.51 14.751,0"
     id="path339"
     style="fill:#c8a736" /><path
     d="m -40.382,-7.491 c 0.529,0.207 3.375,7.125 -3.375,7.125"
     id="path341"
     style="fill:none;stroke-linecap:round" /></g><g
   transform="translate(-5.306,-4.7816186)"
   id="g343"
   style="stroke:#000000;stroke-width:1.125"><path
     d="m 73.86,-2.863 c 0,9.513 -14.751,9.513 -14.751,0 0,-9.514 14.751,-9.514 14.751,0"
     id="path345"
     style="fill:#c8a736" /><path
     d="m 63.868,0.009 c 8.25,2.25 7.114,-5.256 4.875,-6"
     id="path347"
     style="fill:none;stroke-linecap:round" /></g><g
   transform="translate(-5.1635,-1.3114936)"
   id="g349"
   style="stroke:#000000;stroke-width:1.125"><path
     d="m 17.417,145.3 c 0,9.514 -14.75,9.514 -14.75,0 0,-9.514 14.75,-9.513 14.75,0"
     id="path351"
     style="fill:#c8a736" /><path
     d="m 10.618,148.35 c 4.125,-0.375 3.859,-6.281 2.625,-7.125"
     id="path353"
     style="fill:none;stroke-linecap:round" /></g><g
   transform="translate(-5.306,-1.3114936)"
   id="g355"
   style="stroke:#000000;stroke-width:1.125">
		<path
   d="m -6.004,132.34 c -5.963,-0.939 -9.313,-10.256 -2.932,-13.172 3.924,-1.797 8.077,-0.136 10.254,3.451 1.52,2.498 1.438,5.43 1.26,8.243 -0.406,6.498 -3.703,11.804 -10.6,12.608 -6.278,0.732 -13.202,-0.778 -18.933,-3.303 -34.786,-15.324 -15.58,-66.973 -49.608,-83.644 7.42,-3.298 13.688,0.794 19.704,5.443 -1.711,-6.619 -4.15,-20.725 2.354,-26.007 5.299,-4.304 6.652,15.445 6.652,16.812 4.927,-7.951 7.294,-17.54 7.514,-26.848 0.039,-1.751 0.396,-1.935 -1.233,-2.214 -2.799,-0.481 -5.915,-1.553 -7.678,-3.914 -1.922,-2.576 -1.562,-7.13 -0.468,-10.002 1.35,-3.558 5.586,-4.006 8.905,-3.688 8.791,0.836 11.889,10.137 11.539,17.73 -0.344,7.521 -1.188,14.12 -3.047,21.445 -2.418,9.521 -5.08,18.99 -7.037,28.622 -1.79,8.804 -2.508,16.923 -0.229,25.718 2.239,8.661 6.146,17.239 11.692,24.295 3.665,4.66 7.938,8.489 14.075,8.657 2.528,0.068 5.17,0.287 7.692,0 0.702,-0.077 0.209,-0.068 0.124,-0.232"
   id="path357"
   style="fill:#c8a736" />
		<path
   d="m -5.627,132.15 c -1.749,5.271 -8.801,5.565 -13.325,4.67 -6.101,-1.209 -10.99,-5.28 -14.521,-10.252 -7.67,-10.803 -10.473,-25.008 -11.751,-37.952 -0.627,-6.354 -0.941,-12.759 0.413,-19.039 2.085,-9.64 6.675,-18.505 9.369,-27.963 2.361,-8.292 3.532,-18.325 1.26,-26.797 -0.295,-1.109 -1.315,-3.425 -2.593,-1.827"
   id="path359"
   style="fill:none" />
		<path
   d="m -42.784,23.312 c 7.132,-1.127 8.443,-6.38 5.816,-11.072"
   id="path361"
   style="fill:none" />
	</g><g
   transform="translate(-5.306,-1.3114936)"
   id="g363"
   style="stroke:#000000;stroke-width:1.125"><path
     d="m 75.868,57.384 c -4.998,-9.561 -8.704,-20.94 -7.419,-31.826 0.254,-2.15 1.03,-4.063 1.094,-6.208 0.101,-3.313 0.204,-6.628 0.303,-9.941 -3.238,5.216 -6.475,10.434 -9.717,15.65 -1.982,3.197 1.006,9.911 1.721,13.36 1.41,6.881 2.833,13.761 4.25,20.641 0.359,1.761 1.52,2.143 3.006,3.243 2.625,1.941 5.253,3.886 7.878,5.828 0.399,-0.713 3.066,-4.51 2.705,-5.052 -1.275,-1.898 -2.55,-3.797 -3.821,-5.695"
     id="path365"
     style="fill:#c8a736" /><path
     d="m 65.743,16.134 c -1.114,8.378 -2.55,17.852 -1.188,26.222 1.152,7.104 4.923,13.982 9.438,19.528 0.724,-2.225 1.899,-4.462 3.627,-6.067 2.444,-2.274 7.688,-2.902 9.909,0.067 3.287,4.389 0.406,13.8 -4.893,15.183 C 77.474,72.419 70.935,69.774 66.977,66.526 60.763,61.437 58.112,53.309 57.005,45.624 55.211,33.154 55.141,12.832 69.359,7.15 c 6.385,-2.549 14.76,1.622 11.459,9.37 -3.072,7.218 -12.505,6.634 -15.075,-0.386"
     id="path367"
     style="fill:#c8a736" /><path
     d="m 83.368,59.259 c 0,0 2.625,7.125 -5.625,7.875"
     id="path369"
     style="fill:none;stroke-linecap:round" /><path
     d="m 76.243,12.384 c 2.25,1.125 1.875,7.125 -6,3"
     id="path371"
     style="fill:none;stroke-linecap:round" /></g><g
   transform="translate(-5.306,-1.3114936)"
   id="g373"
   style="stroke:#000000;stroke-width:1.125"><path
     d="m 31.993,128.63 c 1.747,1.781 4.688,1.287 6.79,0.529 9.28,-3.343 17.094,-12.881 22.813,-20.468 2.215,-2.938 7.018,-8.834 5.412,-13.019 -0.9,-2.352 3.073,-5.686 4.581,-7.729 0.792,7.777 1.595,15.544 2.39,23.322 0.164,1.619 -1.759,2.599 -2.881,3.657 -3.564,3.345 -7.132,6.693 -10.699,10.039 -3.551,3.339 -7.104,6.67 -10.655,10.011 -0.699,0.651 -3.554,4.209 -4.559,3.86 -7.276,-2.487 -14.551,-4.977 -21.829,-7.469 2.879,-0.915 5.759,-1.821 8.637,-2.733"
     id="path375"
     style="fill:#c8a736" /><path
     d="m 70.618,97.883 c 1.711,7.986 -6.938,16.479 -11.625,21.75 -5.565,6.262 -15.026,14.535 -24.167,13.729 -2.276,-0.202 -0.768,-2.817 -0.636,-4.646 0.119,-1.646 0.079,-3.471 -0.762,-4.941 -1.971,-3.449 -7.499,-2.645 -9.942,-0.229 -4.246,4.19 -2.889,10.084 0.794,14.041 11.527,12.397 33.157,0.414 41.738,-9.389 6.327,-7.22 12.068,-16.847 13.374,-26.527 0.811,-5.977 -0.345,-14.083 -7.016,-16.21 -9.655,-3.081 -12.357,13.138 -1.758,12.433"
     id="path377"
     style="fill:#c8a736" /><path
     d="M 44.743,136.13 C 75.118,123.755 75.493,93.38 75.493,93.38"
     id="path379"
     style="fill:none;stroke-linecap:round" /></g><g
   transform="translate(-4.9527319,-1.3114936)"
   id="g381"><path
   d="m -14.96,-8.503 c 0,5.188 1.147,12.902 -5.768,12.856 -3.583,-0.024 -7.313,-0.076 -9.581,-3.331 -2.072,-2.979 -1.719,-6.54 -1.146,-9.911 1.512,-8.905 4.728,-17.022 12.291,-22.537 6.504,-4.739 14.606,-6.76 22.512,-7.506 9.703,-0.917 20.236,-0.566 29.501,2.741 10.155,3.625 16.659,11.54 17.483,22.31 0.225,2.981 0.258,6.128 -0.044,9.093 -0.614,6.045 -3.787,8.216 -9.651,7.765 -5.735,-0.441 -6.219,-6.08 -6.219,-10.839 0,-2.675 -2.886,-4.183 -5.031,-5.015 -8.121,-3.15 -17.97,-2.924 -26.5,-2.186 -3.36,0.294 -17.847,1.05 -17.847,6.56"
   id="path383"
   style="fill:#c8a736;stroke:#000000;stroke-width:1.125" /><path
   d="m -22.757,-2.241 c 5.727,-11.865 19.993,-17.307 32.38,-17.609 12.445,-0.305 28.451,3.657 34.742,15.734"
   id="path385"
   style="fill:none;stroke:#000000;stroke-width:1.125;stroke-linecap:round" /><path
   d="m 10.243,-5.735 c -12.369,0 -12.369,19.185 0,19.185 12.368,-10e-4 12.368,-19.185 0,-19.185 m 10e-4,15.988 c -8.249,0 -8.249,-12.79 0,-12.79 8.245,0 8.246,12.79 0,12.79"
   id="path387"
   style="fill:#c8a736;stroke:#000000;stroke-width:1.125" /><path
   d="m 32.671,80.017 c 2.042,0.933 4.138,2.063 5.765,3.627 1.776,1.709 -5.955,7.282 -7.74,8.342 C 27.25,94.021 20.542,98.392 17.671,93.452 14.784,88.473 15.938,81.175 15.822,75.523 15.498,59.215 15.172,42.906 14.85,26.6 20.829,26.647 47.663,27.649 44.079,17.042 42.037,10.981 34.5,12.298 29.532,12.298 H 12.447 c -1.472,0 0.242,-3.638 -1.366,-4.567 -3.61,-2.085 -1.846,4.567 -2.824,4.567 H -8.382 c -5.146,0 -13.076,-1.171 -14.23,5.813 -1.121,6.774 10.848,8.279 15.45,8.314 4.302,0.032 8.604,0.066 12.907,0.102 -0.486,16.167 -0.971,32.338 -1.457,48.502 -0.177,5.81 1.146,13.179 -1.701,18.354 -2.628,4.779 -8.593,0.916 -11.962,-0.918 -3.656,-1.99 -6.669,-4.848 -9.205,-8.135 1.583,-1.976 4.125,-3.281 6.392,-4.312 -6.604,-3.19 -12.986,-7.043 -18.862,-11.444 -0.299,9.336 2.528,19.391 8.156,26.936 0.06,-1.965 0.203,-4.285 1.396,-5.945 4.898,6.303 10.607,11.277 17.984,14.379 5.127,2.158 10.688,7.82 13.755,12.445 2.967,-4.539 8.219,-9.633 13.019,-12.1 7.566,-3.894 13.368,-7.838 18.72,-14.724 1.191,1.658 1.339,3.985 1.396,5.947 1.126,0 3.718,-6.312 4.08,-7.104 2.813,-6.197 4.299,-13.015 4.083,-19.83 -5.879,4.394 -12.261,8.248 -18.868,11.439"
   id="path389"
   style="fill:#c8a736;stroke:#000000;stroke-width:1.125" />
				<path
   d="m 27.82,25.983 c 0,1.988 3,1.283 3,-0.519 v -4.905 c 0,-2.086 0.937,-6.759 0,-8.646 0,-1.986 -3,-1.281 -3,0.52 v 4.905 8.645"
   id="path391"
   style="fill:#c8a736;stroke:#000000;stroke-width:1.125" />
				<path
   d="m 30.858,25.79 c 0,1.869 3,1.809 3,-0.063 v -3.979 c 0,-2.47 0.999,-7.37 0,-9.641 0,-1.869 -3,-1.808 -3,0.063 v 3.979 9.641"
   id="path393"
   style="fill:#c8a736;stroke:#000000;stroke-width:1.125" />
				<path
   d="m 33.895,25.92 c 0,1.888 3,1.239 3,-0.521 v -4.905 c 0,-2.04 0.947,-6.814 0,-8.644 0,-1.891 -3,-1.241 -3,0.519 v 4.905 8.646"
   id="path395"
   style="fill:#c8a736;stroke:#000000;stroke-width:1.125" />
				<path
   d="m -6.605,25.983 c 0,1.988 -3,1.283 -3,-0.519 v -4.905 c 0,-2.086 -0.935,-6.759 0,-8.646 0,-1.986 3,-1.281 3,0.52 v 4.905 8.645"
   id="path397"
   style="fill:#c8a736;stroke:#000000;stroke-width:1.125" />
				<path
   d="m -9.643,25.79 c 0,1.869 -3,1.809 -3,-0.063 v -3.979 c 0,-2.47 -0.999,-7.37 0,-9.641 0,-1.869 3,-1.808 3,0.063 v 3.979 9.641"
   id="path399"
   style="fill:#c8a736;stroke:#000000;stroke-width:1.125" />
				<path
   d="m -12.68,25.92 c 0,1.888 -3,1.239 -3,-0.521 v -4.905 c 0,-2.04 -0.943,-6.814 0,-8.644 0,-1.891 3,-1.241 3,0.519 v 4.905 8.646"
   id="path401"
   style="fill:#c8a736;stroke:#000000;stroke-width:1.125" />
		<path
   d="m 21.001,95.763 c -6.297,0.192 -9.089,-3.867 -9.313,-9.638 -0.28,-7.135 -0.232,-14.28 -0.229,-21.42 0.006,-12.612 0.102,-25.227 0.255,-37.84"
   id="path403"
   style="fill:none;stroke:#000000;stroke-width:1.125" /><path
   d="m -2.639,99.644 c 5.38,2.308 9.725,7.756 13.172,12.328 2.535,-3.462 5.392,-6.867 8.729,-9.58 3.972,-3.228 9.167,-3.599 12.544,-7.813"
   id="path405"
   style="fill:none;stroke:#000000;stroke-width:1.125;stroke-linecap:round" />
			<path
   d="m -11.626,-32.056 1.814,5.149 4.475,-1.578 -1.814,-5.149 2.709,-0.955 4.706,13.349 -2.708,0.955 -1.964,-5.565 -4.473,1.578 1.963,5.564 -2.708,0.956 -4.709,-13.349 2.709,-0.955 z"
   id="path407"
   style="fill:#26374d" />
			<path
   d="m 8.217,-21.805 c -3.754,0.19 -6.146,-2.862 -6.347,-6.89 -0.218,-4.236 2.075,-7.529 5.813,-7.719 3.904,-0.198 6.205,2.942 6.406,6.844 0.231,4.656 -2.136,7.574 -5.849,7.763 l -0.023,0.002 z M 8.22,-24.35 c 1.944,-0.099 2.957,-2.188 2.814,-4.957 -0.134,-2.539 -1.318,-4.664 -3.301,-4.563 -1.979,0.101 -2.983,2.296 -2.852,4.938 0.138,2.664 1.395,4.683 3.318,4.583 L 8.22,-24.35 z"
   id="path409"
   style="fill:#26374d" />
			<path
   d="m 18.818,-35.746 c 0.907,-0.01 2.155,0.085 3.887,0.394 1.749,0.313 2.947,0.909 3.65,1.824 0.678,0.825 0.993,2.076 0.747,3.438 -0.246,1.386 -0.845,2.475 -1.722,3.105 -1.146,0.819 -2.681,1.037 -4.354,0.738 -0.372,-0.066 -0.706,-0.147 -0.957,-0.256 l -0.89,5.003 -2.811,-0.502 2.45,-13.744 z m 1.683,6.825 c 0.229,0.105 0.525,0.18 0.936,0.252 1.506,0.27 2.59,-0.412 2.842,-1.818 0.228,-1.281 -0.415,-2.187 -1.849,-2.44 -0.577,-0.104 -0.975,-0.13 -1.192,-0.104 l -0.737,4.11 z"
   id="path411"
   style="fill:#26374d" />
			<path
   d="m 36.457,-22.279 -4.303,-1.863 -1.337,3.083 4.807,2.08 -1.044,2.409 -7.439,-3.223 5.626,-12.988 7.197,3.117 -1.043,2.408 -4.563,-1.975 -1.166,2.697 4.303,1.862 -1.038,2.393 z"
   id="path413"
   style="fill:#26374d" />
	</g>
<g
   transform="translate(-1.133708,-5.3114936)"
   id="g415"
   style="fill:#c8a736;fill-rule:nonzero"><path
     style="text-indent:0;text-align:start;text-transform:none;direction:ltr;block-progression:tb;color:#000000;enable-background:accumulate"
     d="m -42.287,171.61 -0.13401,0.38058 -1.6813,4.7653 -5.0458,0 -0.41274,0 0.32519,0.25551 3.9255,3.084 -1.4026,4.7671 -0.11078,0.37879 0.32698,-0.21798 4.2096,-2.807 4.2096,2.807 0.32698,0.21798 -0.11078,-0.37879 -1.4026,-4.7671 3.9255,-3.084 0.32519,-0.25551 -0.41274,0 -5.0458,0 -1.6813,-4.7653 -0.13401,-0.38058 z"
     id="path417" /><path
     style="text-indent:0;text-align:start;text-transform:none;direction:ltr;block-progression:tb;color:#000000;enable-background:accumulate"
     d="m 54.312,171.88 -0.13401,0.38058 -1.6813,4.7653 -5.0458,0 -0.41274,0 0.32519,0.25551 3.9255,3.084 -1.4026,4.7671 -0.11078,0.37879 0.32698,-0.21798 4.2096,-2.807 4.2096,2.807 0.32698,0.21798 -0.11078,-0.37879 -1.4026,-4.7671 3.9255,-3.084 0.32519,-0.25551 -0.41274,0 -5.0458,0 -1.6813,-4.7653 -0.13401,-0.38058 z"
     id="path419" /></g>
<g
   font-stretch="normal"
   font-variant="normal"
   display="none"
   font-style="normal"
   id="g421"
   style="font-style:normal;font-variant:normal;font-stretch:normal;fill:#ff0000;display:none"
   transform="translate(-1.306,-1.3114936)"><text
   font-size="13px"
   line-height="125%"
   font-weight="bold"
   xml:space="preserve"
   style="font-size:13px;font-weight:bold;text-align:center;line-height:125%;letter-spacing:0px;word-spacing:0px;writing-mode:lr-tb;text-anchor:middle;font-family:Sans"
   transform="matrix(1.433388,0,0,1.433388,563.67332,85.794624)"
   id="text423"
   sodipodi:linespacing="125%"><textPath
     xlink:href="#path3251-4-5"
     style="text-align:center;line-height:125%;writing-mode:lr-tb;text-anchor:middle"
     line-height="125%"
     startOffset="50%"
     dy="0 0 0 0 0 0 0 0 0 0 0 1.776284 0 0 0 0 0 0 0 0 1.776284 0 0 0 0 0 0 0 0 0 0 0 0 0 0 0 0 1.776284"
     id="textPath425">SEAL <tspan
   style="font-size:8.37177372px;font-style:normal;font-variant:normal;font-weight:bold;font-stretch:normal;text-align:center;line-height:125%;writing-mode:lr-tb;text-anchor:middle;fill:#ff0000;font-family:Myriad Pro SemiExt"
   font-weight="bold"
   font-variant="normal"
   font-size="8.37177372px"
   line-height="125%"
   font-stretch="normal"
   dy="-1.776284"
   font-style="normal"
   id="tspan427">OF THE</tspan> STATE <tspan
   style="font-size:8.37177372px;font-style:normal;font-variant:normal;font-weight:bold;font-stretch:normal;text-align:center;line-height:125%;writing-mode:lr-tb;text-anchor:middle;fill:#ff0000;font-family:Myriad Pro SemiExt"
   font-weight="bold"
   font-variant="normal"
   font-size="8.37177372px"
   line-height="125%"
   font-stretch="normal"
   dy="-1.776284"
   font-style="normal"
   id="tspan429">OF</tspan> RHODE ISLAND <tspan
   style="font-size:8.37177372px;font-style:normal;font-variant:normal;font-weight:bold;font-stretch:normal;text-align:center;line-height:125%;writing-mode:lr-tb;text-anchor:middle;fill:#ff0000;font-family:Myriad Pro SemiExt"
   font-weight="bold"
   font-variant="normal"
   font-size="8.37177372px"
   line-height="125%"
   font-stretch="normal"
   dy="-1.776284"
   font-style="normal"
   id="tspan431">AND</tspan> PROVIDENCE PLANTATIONS</textPath></text>

<text
   font-size="28px"
   line-height="125%"
   font-weight="600"
   xml:space="preserve"
   style="font-size:28px;font-weight:600;text-align:center;line-height:125%;letter-spacing:0px;word-spacing:0px;writing-mode:lr-tb;text-anchor:middle;font-family:Myriad Pro Light SemiExt"
   transform="translate(-0.9082687,0.70013393)"
   id="text433"
   sodipodi:linespacing="125%"><textPath
     style="font-size:28px;font-style:normal;font-variant:normal;font-weight:600;font-stretch:normal;text-align:center;line-height:125%;writing-mode:lr-tb;text-anchor:middle;fill:#ff0000;font-family:Myriad Pro Light SemiExt"
     font-weight="600"
     startOffset="50%"
     xlink:href="#path3236"
     font-size="28px"
     line-height="125%"
     font-stretch="normal"
     dx="0 -0.93351281 0.4667564 0.4667564"
     font-variant="normal"
     font-style="normal"
     id="textPath435">1636</textPath></text>

</g><g
   style="font-size:13px;font-style:normal;font-variant:normal;font-weight:bold;font-stretch:normal;text-align:center;line-height:125%;letter-spacing:0px;word-spacing:0px;writing-mode:lr-tb;text-anchor:middle;fill:#c8a736;font-family:Sans"
   font-weight="bold"
   transform="matrix(1.433388,0,0,1.433388,562.36732,84.483131)"
   line-height="125%"
   font-stretch="normal"
   font-size="13px"
   font-variant="normal"
   font-style="normal"
   id="g437"><path
     d="m -434.05,52.4 c -0.15821,-0.31444 -0.42114,-0.67148 -0.78879,-1.0711 -0.36765,-0.39961 -0.79602,-0.76634 -1.2851,-1.1002 -1.1913,-0.76092 -2.2129,-1.0816 -3.0647,-0.96212 -0.85185,0.11951 -1.4904,0.50704 -1.9157,1.1626 -0.39924,0.5971 -0.54042,1.208 -0.42354,1.8328 0.11689,0.62475 0.472,1.3025 1.0653,2.0333 0.42795,0.52402 0.72118,0.94668 0.87971,1.268 0.15853,0.3213 0.15672,0.60169 -0.005,0.8412 -0.13821,0.20935 -0.35236,0.3188 -0.64244,0.32835 -0.29007,0.0095 -0.63962,-0.11805 -1.0487,-0.38279 -0.43175,-0.29877 -0.77354,-0.59728 -1.0254,-0.89553 -0.25181,-0.29826 -0.43494,-0.54547 -0.5494,-0.74164 l -1.4165,1.1685 c 0.18056,0.30034 0.42689,0.61206 0.73899,0.93516 0.31213,0.32309 0.72099,0.65515 1.2266,0.99618 0.9722,0.62842 1.8806,0.90928 2.7252,0.84258 0.8446,-0.06671 1.5035,-0.44279 1.9767,-1.1282 0.41216,-0.6458 0.52465,-1.2996 0.33746,-1.9615 -0.18718,-0.66185 -0.56906,-1.3225 -1.1456,-1.982 -0.41278,-0.48806 -0.67441,-0.88685 -0.7849,-1.1964 -0.11048,-0.30952 -0.0887,-0.57379 0.0654,-0.79282 0.17346,-0.25748 0.4197,-0.38675 0.73871,-0.38783 0.31902,-0.0011 0.69195,0.13861 1.1188,0.41908 0.43604,0.29917 0.80604,0.62977 1.11,0.99181 0.30397,0.36203 0.53755,0.70229 0.70076,1.0208 z"
     id="path439" /><path
     d="m -449.19,47.753 3.0206,2.4556 -1.1882,1.4616 -3.2047,-2.6052 -1.1354,1.3966 4.9261,4.0046 5.9322,-7.2971 -5.0993,-4.1455 -1.1354,1.3966 3.3779,2.746 -1.3378,1.6456 -3.0206,-2.4556 z"
     id="path441" /><path
     d="m -452.72,39.928 1.1889,-2.3654 -1.7328,-1.7401 -4.3401,8.9691 2.1069,2.1158 8.8789,-4.4113 -1.654,-1.661 -2.3014,1.2482 z m 0.74343,3.0601 -1.8766,0.96296 c -0.25392,0.13595 -0.51157,0.28176 -0.77294,0.43743 -0.26136,0.15567 -0.51407,0.30148 -0.75814,0.43746 l -0.0197,-0.01977 c 0.13597,-0.24452 0.27751,-0.50198 0.42462,-0.77237 0.14713,-0.2704 0.28622,-0.53526 0.41727,-0.79458 l 0.94126,-1.9022 z"
     id="path443" /><path
     d="m -454.09,34.765 -4.0292,-4.978 -1.4424,1.1675 2.6335,3.2536 -5.8673,4.749 1.3958,1.7244 z"
     id="path445" /><path
     d="m -463.26,25.137 c -0.50718,-0.7798 -1.1342,-1.2609 -1.881,-1.4433 -0.74683,-0.18242 -1.5015,-0.04147 -2.264,0.42285 -0.70761,0.45554 -1.1466,1.0461 -1.3168,1.7717 -0.17025,0.72557 -0.0127,1.4896 0.47265,2.292 0.50055,0.76501 1.1274,1.2347 1.8805,1.4091 0.7531,0.17436 1.5067,0.03241 2.2608,-0.42584 0.69699,-0.45049 1.1313,-1.0373 1.3029,-1.7604 0.1716,-0.72312 0.0214,-1.4761 -0.45057,-2.2589 z m -0.90517,0.5107 c 0.25126,0.42219 0.30462,0.84533 0.1601,1.2694 -0.14452,0.4241 -0.4419,0.78123 -0.89215,1.0714 -0.45955,0.28488 -0.91422,0.40469 -1.364,0.35942 -0.44981,-0.04527 -0.81518,-0.27851 -1.0961,-0.69972 -0.25732,-0.43609 -0.30864,-0.86711 -0.15396,-1.2931 0.15468,-0.42596 0.45326,-0.78054 0.89572,-1.0637 0.46854,-0.28992 0.92407,-0.40903 1.3666,-0.35732 0.44253,0.05171 0.80233,0.28722 1.0794,0.70655 z"
     id="path447" /><path
     d="m -465.46,21.688 -0.63284,-1.171 -1.9738,1.0667 -1.0866,-2.0106 -0.95009,0.51344 1.0866,2.0106 -1.09,0.58906 -1.1622,-2.1506 -0.95009,0.51344 1.795,3.3216 z"
     id="path449" /><path
     d="m -469.08,14.551 -0.53927,-1.217 -4.1637,1.845 -0.69867,-1.5767 -0.995,0.44091 1.9264,4.3474 0.995,-0.44091 -0.68849,-1.5537 z"
     id="path451" /><path
     d="m -475.93,12.934 5.2979,-1.9417 -0.45805,-1.2498 -2.2088,0.8095 -0.83543,-2.2795 2.2088,-0.8095 -0.45804,-1.2498 -5.2979,1.9417 0.45805,1.2498 2.0201,-0.74036 0.83543,2.2795 -2.0201,0.74036 z"
     id="path453" /><path
     d="m -477.09,2.4499 0.65972,2.2406 -1.0842,0.31922 -0.69992,-2.3771 -1.036,0.30503 1.0759,3.654 5.4128,-1.5937 -1.1137,-3.7825 -1.036,0.30503 0.73775,2.5056 -1.2207,0.35942 -0.65972,-2.2406 z"
     id="path455" /><path
     d="m -473.64,-3.0842 c 0.11802,-0.33163 0.19447,-0.76839 0.22935,-1.3103 0.0349,-0.54188 0.004,-1.1049 -0.0925,-1.6892 -0.27297,-1.387 -0.74693,-2.3471 -1.4219,-2.8804 -0.67495,-0.53327 -1.3963,-0.72718 -2.1641,-0.58173 -0.70751,0.12391 -1.2467,0.44394 -1.6176,0.96008 -0.3709,0.51615 -0.61553,1.2411 -0.73389,2.175 -0.0832,0.67143 -0.18613,1.1754 -0.30888,1.512 -0.12275,0.3366 -0.32672,0.52902 -0.61191,0.57725 -0.24684,0.044721 -0.47392,-0.034474 -0.68124,-0.23759 -0.20731,-0.20311 -0.35658,-0.54397 -0.44779,-1.0226 -0.0823,-0.51855 -0.10264,-0.97189 -0.061,-1.36 0.0417,-0.38811 0.0938,-0.6913 0.15658,-0.90958 l -1.8234,-0.21677 c -0.0924,0.33804 -0.14754,0.73149 -0.16549,1.1804 -0.0179,0.44887 0.0245,0.97388 0.12727,1.575 0.21738,1.137 0.64195,1.9878 1.2737,2.5523 0.63177,0.56451 1.3589,0.78102 2.1814,0.64953 0.75163,-0.14822 1.302,-0.51862 1.6512,-1.1112 0.34916,-0.59259 0.56294,-1.3251 0.64134,-2.1976 0.0677,-0.63562 0.17519,-1.1003 0.32262,-1.394 0.14744,-0.29372 0.35356,-0.46054 0.61836,-0.50046 0.30599,-0.052489 0.56958,0.036207 0.79077,0.26609 0.22119,0.22989 0.37786,0.59601 0.47001,1.0984 0.085,0.52193 0.1016,1.0178 0.0499,1.4877 -0.0517,0.46988 -0.13632,0.87384 -0.2538,1.2119 z"
     id="path457" /><path
     d="m -474.72,-13.694 -0.17371,-2.2117 -7.567,0.59432 -0.22505,-2.8654 -1.8083,0.14202 0.62055,7.9008 1.8083,-0.14203 -0.22178,-2.8237 z"
     id="path459" /><path
     d="m -477.51,-25.481 2.5334,-0.7684 0.0669,-2.4548 -9.4904,3.0353 -0.0814,2.9848 9.3151,3.3945 0.0639,-2.3432 -2.4904,-0.80767 z m -1.7053,2.6474 -1.991,-0.69635 c -0.27349,-0.09033 -0.5567,-0.17656 -0.84962,-0.25871 -0.2929,-0.08213 -0.57272,-0.16479 -0.83944,-0.24796 l 7.6e-4,-0.0279 c 0.2709,-0.06996 0.55501,-0.1448 0.85233,-0.22452 0.29733,-0.07971 0.58511,-0.16142 0.86335,-0.24515 l 2.0271,-0.62867 z"
     id="path461" /><path
     d="m -474.45,-32.11 0.29539,-2.1987 -7.5227,-1.0106 0.38271,-2.8487 -1.7977,-0.24152 -1.0552,7.8546 1.7977,0.24152 0.37714,-2.8072 z"
     id="path463" /><path
     d="m -477.7,-45.568 -0.88533,3.7908 -1.8343,-0.42839 0.93928,-4.0218 -1.7527,-0.40935 -1.4438,6.1822 9.1577,2.1388 1.4946,-6.3995 -1.7528,-0.40935 -0.99005,4.2392 -2.0652,-0.48233 0.88533,-3.7908 z"
     id="path465" /><path
     d="m -471.44,-51.803 c 0.30718,-0.87804 0.30472,-1.6684 -0.007,-2.371 -0.31211,-0.70259 -0.88492,-1.2137 -1.7185,-1.5334 -0.79305,-0.28161 -1.5287,-0.26805 -2.2071,0.04068 -0.67833,0.30874 -1.1867,0.9004 -1.5251,1.775 -0.29953,0.86376 -0.28814,1.6469 0.0342,2.3496 0.32232,0.70262 0.89529,1.2123 1.7189,1.5291 0.78257,0.27629 1.5124,0.26134 2.1896,-0.04483 0.6772,-0.30617 1.1813,-0.88526 1.5124,-1.7373 z m -0.95746,-0.40426 c -0.18057,0.45691 -0.48286,0.75778 -0.90685,0.90261 -0.42399,0.14484 -0.88841,0.12775 -1.3933,-0.05125 -0.50635,-0.18958 -0.87908,-0.47622 -1.1182,-0.85989 -0.2391,-0.38367 -0.27782,-0.81541 -0.11617,-1.2952 0.18787,-0.4702 0.49764,-0.77428 0.92932,-0.91221 0.43168,-0.13793 0.89481,-0.11834 1.3894,0.05876 0.51584,0.19362 0.88854,0.48136 1.1181,0.8632 0.22955,0.38185 0.26307,0.81057 0.10054,1.2862 z"
     id="path467" /><path
     d="m -470.05,-55.656 0.5405,-1.2164 -2.0503,-0.91103 0.92803,-2.0886 -0.9869,-0.43852 -0.92803,2.0886 -1.1323,-0.50311 0.99262,-2.2339 -0.9869,-0.43852 -1.5331,3.4503 z"
     id="path469" /><path
     d="m -464.94,-62.362 1.1198,-1.8989 -3.1609,-1.864 0.38272,-0.649 c 0.23613,-0.41014 0.51123,-0.67176 0.82529,-0.78488 0.31406,-0.1131 0.75349,-0.08344 1.3183,0.08899 0.59866,0.17453 1.0806,0.30148 1.4458,0.38086 0.36522,0.07939 0.62637,0.12068 0.78343,0.12386 l 1.1553,-1.959 c -0.23114,-0.02122 -0.60316,-0.10224 -1.1161,-0.24308 -0.51292,-0.14082 -1.0511,-0.2834 -1.6146,-0.42773 -0.41735,-0.09628 -0.80537,-0.13072 -1.1641,-0.10332 -0.35868,0.02741 -0.67913,0.1462 -0.96135,0.35638 l -0.0481,-0.02835 c 0.0996,-0.4076 0.0731,-0.86734 -0.0796,-1.3792 -0.1527,-0.51187 -0.49425,-0.93871 -1.0246,-1.2805 -0.38131,-0.22148 -0.75668,-0.34834 -1.1261,-0.3806 -0.3694,-0.03223 -0.71648,0.01956 -1.0412,0.15538 -0.39657,0.16604 -0.78092,0.44356 -1.1531,0.83254 -0.37214,0.389 -0.74986,0.90934 -1.1332,1.561 -0.32658,0.55726 -0.60741,1.0747 -0.84248,1.5522 -0.23506,0.47759 -0.42098,0.889 -0.55775,1.2342 z m -5.5866,-5.8538 c 0.0282,-0.07753 0.0816,-0.19788 0.16027,-0.36106 0.0787,-0.16316 0.19659,-0.37912 0.35372,-0.64789 0.26114,-0.44567 0.55957,-0.74686 0.89528,-0.90356 0.33572,-0.15669 0.69409,-0.12691 1.0751,0.08934 0.35545,0.21502 0.55228,0.51872 0.59051,0.91112 0.0382,0.39241 -0.0875,0.83796 -0.3772,1.3366 l -0.51031,0.86534 z"
     id="path471" /><path
     d="m -467.9,-75.614 7.5179,5.6497 1.3328,-1.7735 -3.1343,-2.3555 2.4309,-3.2347 3.1343,2.3555 1.3328,-1.7735 -7.5179,-5.6497 -1.3328,1.7735 2.8666,2.1543 -2.4309,3.2347 -2.8666,-2.1543 z"
     id="path473" /><path
     d="m -450.8,-81.346 c 1.0615,-1.13 1.592,-2.3356 1.5914,-3.617 -5.4e-4,-1.2813 -0.52768,-2.4472 -1.5814,-3.4976 -1.0178,-0.96509 -2.1477,-1.4417 -3.3898,-1.4299 -1.2421,0.01182 -2.4165,0.56952 -3.5232,1.6731 -1.0402,1.1134 -1.5522,2.3142 -1.5362,3.6025 0.0161,1.2883 0.54441,2.4521 1.585,3.4914 1.0054,0.94989 2.1274,1.4205 3.3661,1.4118 1.2386,-0.0087 2.3981,-0.55009 3.4784,-1.6243 z m -1.1854,-1.2631 c -0.58395,0.57401 -1.2478,0.82803 -1.9917,0.76206 -0.74383,-0.06596 -1.4398,-0.40592 -2.0879,-1.0199 -0.64324,-0.6311 -1.0173,-1.3197 -1.1222,-2.0658 -0.1049,-0.74612 0.12795,-1.43 0.69856,-2.0517 0.60405,-0.58933 1.2815,-0.84317 2.0324,-0.7615 0.75087,0.08168 1.4432,0.42458 2.0769,1.0287 0.65496,0.64366 1.0282,1.3339 1.1198,2.0708 0.0916,0.7369 -0.14715,1.4127 -0.71623,2.0273 z"
     id="path475" /><path
     d="m -446.24,-86.168 c 0.2482,-0.14399 0.55461,-0.34364 0.91924,-0.59894 0.36462,-0.2553 0.79397,-0.58042 1.288,-0.97536 0.79489,-0.63594 1.4467,-1.2969 1.9556,-1.9828 0.50881,-0.68591 0.83921,-1.3796 0.99119,-2.0811 0.13337,-0.59598 0.12382,-1.2293 -0.0286,-1.9001 -0.15247,-0.67074 -0.50147,-1.3537 -1.047,-2.049 -0.50999,-0.62537 -1.0614,-1.0655 -1.6542,-1.3203 -0.59281,-0.25481 -1.2058,-0.35924 -1.839,-0.3133 -0.60723,0.03144 -1.2338,0.19351 -1.8796,0.4862 -0.6458,0.29271 -1.3542,0.74853 -2.1251,1.3674 -0.46024,0.3693 -0.89188,0.738 -1.2949,1.1061 -0.40305,0.36813 -0.75845,0.72038 -1.0662,1.0568 z m -3.0635,-7.363 c 0.0669,-0.08239 0.1691,-0.19195 0.3065,-0.32866 0.13741,-0.1367 0.31958,-0.29703 0.54652,-0.481 0.82078,-0.65894 1.6228,-0.98868 2.4062,-0.98924 0.78332,-5.33e-4 1.4878,0.3786 2.1134,1.1374 0.66083,0.84312 0.90792,1.6861 0.74127,2.5291 -0.16666,0.84295 -0.70412,1.6223 -1.6124,2.338 -0.12256,0.09946 -0.24745,0.19743 -0.37464,0.2939 -0.1272,0.09647 -0.23959,0.171 -0.33716,0.22357 z"
     id="path477" /><path
     d="m -435.7,-100.79 -3.2826,2.0926 -1.0125,-1.5883 3.4826,-2.2201 -0.96754,-1.5177 -5.3533,3.4126 5.0552,7.9299 5.5415,-3.5326 -0.96754,-1.5177 -3.6708,2.3401 -1.14,-1.7883 3.2826,-2.0926 z"
     id="path479" /><path
     d="m -432.4,-106.77 4.1841,8.4221 1.9868,-0.98704 -4.1841,-8.4221 z"
     id="path481" /><path
     d="m -424.96,-100.54 c 0.34913,0.0449 0.79216,0.0267 1.3291,-0.0543 0.53692,-0.0811 1.0806,-0.23085 1.6309,-0.44935 1.2973,-0.56146 2.1348,-1.2286 2.5124,-2.0015 0.37766,-0.77286 0.41386,-1.519 0.10858,-2.2383 -0.27143,-0.66501 -0.69873,-1.1239 -1.2819,-1.3766 -0.58317,-0.25275 -1.3436,-0.33773 -2.2812,-0.25495 -0.67376,0.0614 -1.1881,0.0679 -1.5431,0.0195 -0.355,-0.0484 -0.58636,-0.20683 -0.6941,-0.47526 -0.0961,-0.2317 -0.067,-0.47042 0.0874,-0.71617 0.15441,-0.24574 0.45577,-0.46403 0.90408,-0.65487 0.48922,-0.19062 0.92788,-0.30682 1.316,-0.34862 0.3881,-0.0418 0.69546,-0.0552 0.92208,-0.0403 l -0.17566,-1.8278 c -0.34994,-0.0184 -0.74613,0.0113 -1.1886,0.0891 -0.44243,0.0779 -0.94643,0.23089 -1.512,0.45905 -1.0649,0.45404 -1.806,1.0497 -2.2234,1.787 -0.41736,0.7373 -0.47441,1.4938 -0.17115,2.2696 0.30456,0.70298 0.78347,1.1621 1.4367,1.3773 0.65326,0.21526 1.4145,0.26849 2.2837,0.1597 0.63548,-0.069 1.1124,-0.0626 1.4307,0.019 0.31834,0.0816 0.52515,0.24761 0.62043,0.49789 0.11632,0.28784 0.0857,0.56425 -0.092,0.82924 -0.17763,0.265 -0.5021,0.49589 -0.9734,0.69268 -0.49195,0.19395 -0.973,0.31558 -1.4431,0.36489 -0.47014,0.0493 -0.88285,0.0525 -1.2381,0.01 z"
     id="path483" /><path
     d="m -416.82,-103.23 6.127,-1.8641 -0.54013,-1.7754 -4.0046,1.2184 -2.1971,-7.2216 -2.1224,0.64573 z"
     id="path485" /><path
     d="m -404.52,-108.95 1.2992,2.3066 2.4109,-0.46669 -5.0201,-8.607 -2.9315,0.56746 -1.2949,9.8294 2.3013,-0.44548 0.24872,-2.6063 z m -2.9541,-1.091 0.24829,-2.0946 c 0.0289,-0.28657 0.0517,-0.58173 0.0684,-0.88549 0.0167,-0.30375 0.0367,-0.59482 0.0601,-0.87323 l 0.0274,-0.005 c 0.12701,0.2493 0.26165,0.51043 0.40391,0.78341 0.14225,0.27299 0.2844,0.53622 0.42644,0.7897 l 1.0531,1.8426 z"
     id="path487" /><path
     d="m -397.41,-107.41 -0.22152,-3.0616 c -0.0497,-0.69936 -0.10428,-1.3809 -0.16367,-2.0446 -0.0594,-0.66368 -0.13033,-1.33 -0.21283,-1.999 l 0.0557,-0.004 c 0.31149,0.57522 0.64889,1.1459 1.0122,1.7122 0.3633,0.56622 0.72677,1.1106 1.0904,1.633 l 2.4616,3.4731 2.4075,-0.17419 -0.67866,-9.3796 -2.0596,0.14902 0.21346,2.9503 c 0.0446,0.65281 0.0988,1.2813 0.16266,1.8855 0.0638,0.60421 0.15655,1.2334 0.27822,1.8876 l -0.0417,0.003 c -0.27893,-0.55599 -0.58301,-1.1093 -0.91225,-1.6599 -0.32924,-0.5506 -0.67729,-1.0832 -1.0442,-1.5979 l -2.358,-3.2008 -2.7276,0.19735 0.67866,9.3796 z"
     id="path489" /><path
     d="m -389.05,-107.95 c 0.28127,0.0568 0.64302,0.11051 1.0852,0.16117 0.44222,0.0507 0.97919,0.092 1.6109,0.12394 1.0167,0.051 1.9429,-0.0115 2.7786,-0.18757 0.83568,-0.17607 1.543,-0.47627 2.1218,-0.9006 0.49501,-0.35769 0.90782,-0.83813 1.2385,-1.4413 0.33061,-0.60319 0.52223,-1.3459 0.57485,-2.228 0.0329,-0.80629 -0.088,-1.5013 -0.36282,-2.0852 -0.2748,-0.5838 -0.66443,-1.0684 -1.1689,-1.4539 -0.4754,-0.3791 -1.0518,-0.6732 -1.7294,-0.88231 -0.67751,-0.2091 -1.51,-0.33758 -2.4974,-0.38544 -0.58939,-0.0287 -1.157,-0.0389 -1.7028,-0.0306 -0.5458,0.008 -1.0454,0.0363 -1.4988,0.0841 z m 2.5889,-7.543 c 0.10474,-0.0173 0.25386,-0.0316 0.44736,-0.0428 0.19349,-0.0112 0.43617,-0.0105 0.72804,0.002 1.0513,0.051 1.8704,0.33595 2.4571,0.85493 0.58672,0.51899 0.86268,1.2699 0.82786,2.2528 -0.0644,1.0693 -0.43838,1.8642 -1.1221,2.3847 -0.68368,0.52049 -1.6028,0.74751 -2.7572,0.68103 -0.1577,-0.007 -0.31614,-0.0163 -0.47532,-0.0284 -0.15919,-0.0121 -0.29273,-0.0309 -0.40063,-0.0562 z"
     id="path491" /><path
     d="m -371.96,-109.47 0.22361,1.5726 1.4495,0.26453 -0.9306,-5.9055 -1.7624,-0.32164 -2.866,5.2126 1.3836,0.2525 0.70702,-1.4028 z m -1.4136,-1.2536 0.59527,-1.1168 c 0.0786,-0.15389 0.15569,-0.31393 0.23123,-0.4801 0.0755,-0.16616 0.15016,-0.32451 0.22391,-0.47505 l 0.0165,0.003 c 0.0167,0.16704 0.035,0.34236 0.0551,0.52596 0.02,0.18361 0.0421,0.36175 0.0663,0.5344 l 0.18712,1.2596 z"
     id="path493" /><path
     d="m -368.19,-107.12 0.45994,-1.7834 c 0.10556,-0.40721 0.20496,-0.80521 0.2982,-1.194 0.0932,-0.38878 0.18042,-0.78128 0.26153,-1.1775 l 0.0324,0.008 c 0.067,0.38671 0.1497,0.77582 0.24794,1.1673 0.0982,0.39152 0.20075,0.77062 0.30756,1.1373 l 0.73515,2.4461 1.4024,0.36168 1.4091,-5.4637 -1.1998,-0.30941 -0.44321,1.7186 c -0.0996,0.37977 -0.18902,0.74755 -0.26834,1.1034 -0.0793,0.35581 -0.14702,0.73137 -0.20304,1.1267 l -0.0243,-0.006 c -0.0522,-0.36955 -0.11924,-0.74239 -0.20109,-1.1185 -0.0819,-0.37612 -0.17785,-0.74562 -0.28797,-1.1085 l -0.72833,-2.2714 -1.5889,-0.40976 -1.4091,5.4637 z"
     id="path495" /><path
     d="m -363.2,-105.81 c 0.15295,0.0791 0.35283,0.16957 0.59966,0.27157 0.24682,0.102 0.54985,0.21419 0.90909,0.33658 0.57823,0.19674 1.1229,0.31307 1.6341,0.34898 0.51115,0.0359 0.96865,-0.0209 1.3725,-0.17049 0.34447,-0.12493 0.66172,-0.33422 0.95175,-0.62785 0.29001,-0.29363 0.52278,-0.69062 0.6983,-1.191 0.15166,-0.45981 0.19625,-0.88075 0.13377,-1.2628 -0.0625,-0.38207 -0.20756,-0.72582 -0.43521,-1.0312 -0.21192,-0.29696 -0.49613,-0.56151 -0.85264,-0.79365 -0.35651,-0.23213 -0.81571,-0.44325 -1.3776,-0.63334 -0.33534,-0.11356 -0.66116,-0.21285 -0.97744,-0.29787 -0.31629,-0.085 -0.60918,-0.15104 -0.87865,-0.19811 z m 2.735,-3.9263 c 0.0633,0.007 0.15167,0.0236 0.26517,0.0489 0.11349,0.0254 0.25339,0.0657 0.41969,0.12114 0.59822,0.2024 1.0239,0.5016 1.277,0.8976 0.25314,0.396 0.2888,0.87468 0.10699,1.436 -0.21309,0.6064 -0.5597,1.0035 -1.0398,1.1913 -0.48014,0.18782 -1.0478,0.16757 -1.703,-0.0607 -0.0899,-0.0299 -0.17974,-0.0614 -0.26959,-0.0946 -0.0899,-0.0332 -0.16382,-0.066 -0.22191,-0.0984 z"
     id="path497" /><path
     d="m -354.55,-100.73 1.9852,0.95873 1.4502,-3.0029 c 0.0866,0.0654 0.19232,0.13517 0.31724,0.20938 0.12491,0.0742 0.26034,0.14672 0.40627,0.21752 0.63517,0.30837 1.2404,0.50834 1.8156,0.59989 0.57525,0.0916 1.1165,0.0631 1.6237,-0.0855 0.37509,-0.10292 0.71152,-0.29423 1.0093,-0.57394 0.29778,-0.27971 0.54477,-0.62269 0.74097,-1.0289 0.20827,-0.44463 0.30709,-0.87918 0.29647,-1.3036 -0.0106,-0.42446 -0.10617,-0.80954 -0.28655,-1.1552 -0.18298,-0.35436 -0.46646,-0.69915 -0.85042,-1.0344 -0.38398,-0.33522 -0.88551,-0.65361 -1.5046,-0.95519 -0.66955,-0.32142 -1.2477,-0.5774 -1.7345,-0.76795 -0.48677,-0.19053 -0.89803,-0.33491 -1.2338,-0.43315 z m 5.3589,-6.027 c 0.16998,0.033 0.48163,0.15772 0.93496,0.37407 0.51869,0.25212 0.87147,0.55098 1.0584,0.89657 0.18688,0.34561 0.18653,0.71796 -10e-4,1.1171 -0.22073,0.43831 -0.54844,0.6971 -0.98314,0.7764 -0.43471,0.0793 -0.92636,-0.0123 -1.475,-0.27461 -0.16831,-0.0806 -0.31078,-0.15461 -0.4274,-0.22191 -0.11664,-0.0673 -0.21535,-0.13563 -0.29612,-0.20499 z"
     id="path499" /><path
     d="m -346.78,-96.877 1.8773,1.1557 1.9238,-3.1249 0.6416,0.395 c 0.40557,0.24389 0.66192,0.52391 0.76904,0.84006 0.10712,0.31616 0.0691,0.75494 -0.11404,1.3164 -0.18589,0.59524 -0.32198,1.0747 -0.40829,1.4383 -0.0863,0.36365 -0.13257,0.62396 -0.13874,0.78094 l 1.9367,1.1923 c 0.0256,-0.23069 0.11369,-0.6011 0.26426,-1.1112 0.15054,-0.51014 0.30333,-1.0455 0.45836,-1.6062 0.1042,-0.41545 0.14601,-0.80274 0.12544,-1.1619 -0.0206,-0.35914 -0.13326,-0.68179 -0.33802,-0.96796 l 0.0292,-0.04753 c 0.40564,0.10738 0.8658,0.08961 1.3805,-0.05333 0.51468,-0.14294 0.94794,-0.4763 1.2998,-1.0001 0.2287,-0.37703 0.36268,-0.74991 0.40195,-1.1186 0.0392,-0.36872 -0.006,-0.71673 -0.13555,-1.044 -0.15847,-0.39965 -0.42862,-0.78921 -0.81046,-1.1687 -0.38185,-0.37946 -0.89492,-0.76701 -1.5392,-1.1626 -0.55094,-0.33713 -1.0629,-0.62775 -1.536,-0.87186 -0.47303,-0.2441 -0.88082,-0.43781 -1.2234,-0.58112 z m 5.959,-5.4742 c 0.077,0.0297 0.19629,0.0854 0.35794,0.16712 0.16164,0.0818 0.37532,0.20376 0.64104,0.36598 0.44062,0.26956 0.73608,0.57366 0.88637,0.91229 0.15028,0.33864 0.11369,0.69638 -0.10977,1.0732 -0.22174,0.35129 -0.52913,0.54231 -0.92218,0.57307 -0.39307,0.03076 -0.83614,-0.10342 -1.3292,-0.40255 l -0.85548,-0.52667 z"
     id="path501" /><path
     d="m -335.83,-89.276 c 1.2315,0.9418 2.4846,1.3477 3.7594,1.2176 1.2747,-0.13009 2.3813,-0.77241 3.3198,-1.927 0.85724,-1.1102 1.2172,-2.2825 1.0799,-3.517 -0.13735,-1.2345 -0.81094,-2.3465 -2.0208,-3.336 -1.2129,-0.92228 -2.4593,-1.3103 -3.7394,-1.1641 -1.28,0.14625 -2.3845,0.78955 -3.3132,1.9299 -0.84337,1.0963 -1.1981,2.2602 -1.0643,3.4916 0.13385,1.2314 0.78974,2.3302 1.9676,3.2964 z m 1.1368,-1.307 c -0.63011,-0.52292 -0.94996,-1.1577 -0.95954,-1.9044 -0.01,-0.74669 0.25826,-1.4735 0.80355,-2.1803 0.56283,-0.70375 1.2101,-1.1455 1.9418,-1.3254 0.73169,-0.17981 1.4356,-0.0173 2.1118,0.48753 0.64739,0.54136 0.96842,1.1897 0.9631,1.945 -0.005,0.75528 -0.27649,1.4787 -0.81343,2.1703 -0.57414,0.71668 -1.2231,1.1578 -1.947,1.3235 -0.72386,0.16563 -1.4203,-0.0036 -2.0894,-0.50758 z"
     id="path503" /><path
     d="m -326.99,-81.53 9.1363,-4.1511 -1.6535,-1.6615 -3.8227,1.8554 c -0.51057,0.24931 -1.023,0.5091 -1.5373,0.77938 -0.51432,0.27027 -1.0194,0.55721 -1.5153,0.86083 l -0.0197,-0.01978 c 0.32273,-0.5176 0.62078,-1.0266 0.89414,-1.5271 0.27336,-0.50045 0.54676,-1.0194 0.82022,-1.5568 l 1.8836,-3.7051 -1.7125,-1.7209 -4.3235,8.9874 z"
     id="path505" /><path
     d="m -316.72,-84.231 -7.1759,6.0782 1.4339,1.6928 7.1759,-6.0782 z"
     id="path507" /><path
     d="m -321.12,-75.027 c 0.12904,0.2563 0.31018,0.574 0.54342,0.95311 0.23324,0.37911 0.53235,0.82696 0.89733,1.3436 0.58772,0.83117 1.2089,1.521 1.8634,2.0696 0.65455,0.54856 1.3274,0.91947 2.0187,1.1127 0.58702,0.16845 1.2198,0.19645 1.8984,0.08401 0.6786,-0.11246 1.3811,-0.42038 2.1074,-0.92376 0.65449,-0.47204 1.1265,-0.99639 1.416,-1.573 0.28948,-0.57666 0.43005,-1.1824 0.42171,-1.8172 0.005,-0.60803 -0.12007,-1.243 -0.37398,-1.9051 -0.25393,-0.66201 -0.66697,-1.3961 -1.2391,-2.2023 -0.34139,-0.48132 -0.68387,-0.93405 -1.0274,-1.3582 -0.3436,-0.42415 -0.67417,-0.7998 -0.99172,-1.127 z m 7.5316,-2.6219 c 0.0783,0.0717 0.18159,0.18018 0.30993,0.32543 0.12831,0.14526 0.27757,0.33661 0.44777,0.57406 0.60915,0.85838 0.89079,1.6786 0.84493,2.4605 -0.0459,0.78198 -0.46609,1.4628 -1.2606,2.0423 -0.88079,0.60972 -1.737,0.80643 -2.5686,0.59012 -0.8316,-0.21632 -1.5777,-0.79901 -2.2384,-1.7481 -0.092,-0.12824 -0.18242,-0.25871 -0.27118,-0.3914 -0.0888,-0.13269 -0.1565,-0.2493 -0.2032,-0.34981 z"
     id="path509" /><path
     d="m -307.14,-63.632 -1.8936,-3.4013 1.6458,-0.91624 2.0089,3.6085 1.5726,-0.87552 -3.088,-5.5468 -8.2166,4.5744 3.1966,5.7419 1.5726,-0.87552 -2.1175,-3.8036 1.853,-1.0316 1.8936,3.4013 z"
     id="path511" /><path
     d="m -310.41,-57.189 2.8273,-1.1953 c 0.64612,-0.27222 1.2738,-0.54326 1.8831,-0.81314 0.60923,-0.26988 1.2173,-0.55156 1.8241,-0.84504 l 0.0217,0.05141 c -0.44432,0.48008 -0.87604,0.98324 -1.2952,1.5095 -0.41912,0.52624 -0.81749,1.0456 -1.1951,1.5581 l -2.4958,3.4486 0.93995,2.2233 8.6619,-3.662 -0.80412,-1.902 -2.7245,1.1518 c -0.60371,0.25238 -1.1813,0.50604 -1.7328,0.76098 -0.55151,0.25493 -1.1174,0.54529 -1.6976,0.87108 l -0.0163,-0.03856 c 0.43661,-0.44306 0.86257,-0.90908 1.2779,-1.398 0.41531,-0.48897 0.80755,-0.98996 1.1767,-1.503 l 2.2714,-3.2628 -1.0649,-2.5189 -8.6619,3.662 z"
     id="path513" /><path
     d="m -303.29,-42.94 c -0.17331,-0.21216 -0.34404,-0.48685 -0.51218,-0.82409 -0.16815,-0.33725 -0.30828,-0.6936 -0.42038,-1.0691 -0.28758,-1.0407 -0.2438,-1.915 0.13135,-2.6228 0.37513,-0.70781 0.99506,-1.1911 1.8598,-1.4498 0.97203,-0.26353 1.7936,-0.1722 2.4646,0.27398 0.67106,0.44618 1.1439,1.134 1.4186,2.0634 0.1204,0.42452 0.19257,0.81774 0.21651,1.1797 0.0239,0.36191 0.0184,0.67611 -0.0165,0.9426 l 1.7937,-0.03109 c 0.0506,-0.24503 0.0578,-0.60093 0.0216,-1.0677 -0.0362,-0.46678 -0.14135,-1.0078 -0.31553,-1.6232 -0.46941,-1.5487 -1.2718,-2.6955 -2.4071,-3.4404 -1.1354,-0.74484 -2.4583,-0.91405 -3.9688,-0.50763 -1.3129,0.38822 -2.2624,1.1425 -2.8484,2.2628 -0.58598,1.1203 -0.64365,2.5366 -0.173,4.2488 0.19012,0.62734 0.39767,1.156 0.62265,1.5859 0.22499,0.42993 0.42098,0.73297 0.58798,0.90911 z"
     id="path515" /><path
     d="m -298.06,-35.553 -0.71109,-3.8273 1.8519,-0.34407 0.75442,4.0605 1.7696,-0.32878 -1.1596,-6.2417 -9.246,1.7178 1.2004,6.4612 1.7696,-0.32878 -0.79519,-4.28 2.0851,-0.3874 0.71108,3.8273 z"
     id="path517" /><path
     d="m -303.08,-29.531 0.11381,2.2016 3.3303,-0.17216 c -0.0157,0.10734 -0.0261,0.23362 -0.0311,0.37883 -0.005,0.14521 -0.003,0.29881 0.005,0.46082 0.035,0.7052 0.15064,1.332 0.34694,1.8804 0.1963,0.54841 0.4815,1.0093 0.85562,1.3826 0.27058,0.2794 0.60009,0.48242 0.98853,0.60905 0.38842,0.12661 0.8079,0.17828 1.2584,0.155 0.49,-0.03116 0.91854,-0.15344 1.2856,-0.36684 0.36706,-0.21342 0.65878,-0.48231 0.87517,-0.80668 0.22273,-0.33083 0.38876,-0.74516 0.49809,-1.243 0.10931,-0.49786 0.14736,-1.0907 0.11414,-1.7785 -0.0401,-0.74162 -0.0936,-1.3716 -0.16057,-1.8901 -0.067,-0.51843 -0.13811,-0.94845 -0.21339,-1.2901 z m 7.8612,1.8011 c 0.0528,0.16493 0.0933,0.49814 0.12154,0.99966 0.0283,0.57602 -0.0641,1.029 -0.27729,1.3591 -0.21318,0.33003 -0.53984,0.50875 -0.97997,0.53617 -0.49044,0.0172 -0.87493,-0.14572 -1.1535,-0.48875 -0.27853,-0.34304 -0.43466,-0.81815 -0.46837,-1.4253 -0.0102,-0.18634 -0.0139,-0.34683 -0.0109,-0.48145 0.003,-0.13463 0.0154,-0.25403 0.0374,-0.3582 z"
     id="path519" /><path
     d="m -302.74,-20.87 -0.26977,6.3986 1.8541,0.07817 0.17632,-4.1821 7.5418,0.31797 0.0935,-2.2165 z"
     id="path521" /><path
     d="m -301.41,-7.3715 -2.6061,0.46535 -0.35496,2.4299 9.7814,-1.8989 0.4316,-2.9545 -8.8516,-4.4657 -0.33883,2.3194 2.3782,1.0948 z m 2.0046,-2.4286 1.8953,0.92551 c 0.26098,0.12184 0.53209,0.24076 0.81333,0.35676 0.28122,0.11599 0.54938,0.23095 0.80448,0.34489 l -0.004,0.027613 c -0.27724,0.037638 -0.56818,0.078569 -0.8728,0.12279 -0.30464,0.044211 -0.60004,0.09154 -0.88619,0.14199 l -2.0869,0.38609 z"
     id="path523" /><path
     d="m -305.21,-1.1717 2.9627,0.8032 c 0.67647,0.18429 1.3377,0.35814 1.9837,0.52153 0.64599,0.16338 1.2983,0.31674 1.957,0.46008 l -0.0146,0.053867 c -0.64586,0.10379 -1.296,0.23352 -1.9505,0.38919 -0.6545,0.15566 -1.2884,0.31871 -1.9017,0.48916 l -4.0916,1.1749 -0.63161,2.3297 9.0765,2.4607 0.54033,-1.9931 -2.8549,-0.77399 c -0.63085,-0.17375 -1.2419,-0.33038 -1.8333,-0.4699 -0.59133,-0.13954 -1.2158,-0.26005 -1.8735,-0.36154 l 0.0109,-0.0404 c 0.61695,-0.079412 1.2397,-0.18345 1.8682,-0.31212 0.6285,-0.12868 1.2463,-0.28105 1.8533,-0.45711 l 3.8004,-1.1671 0.71558,-2.6395 -9.0765,-2.4607 z"
     id="path525" /><path
     d="m -308.32,8.8147 -0.81197,2.0646 7.0636,2.7781 -1.052,2.6748 1.688,0.66388 2.9006,-7.3753 -1.688,-0.66388 -1.0367,2.6359 z"
     id="path527" /><path
     d="m -310.98,20.635 -2.6133,-0.42329 -1.139,2.1755 9.8587,1.4449 1.385,-2.6453 -6.8751,-7.1433 -1.0873,2.0766 1.882,1.8201 z m 2.6953,-1.6285 1.4823,1.5006 c 0.20596,0.20134 0.42244,0.40328 0.64944,0.60581 0.227,0.20251 0.44201,0.39974 0.64503,0.59168 l -0.0129,0.02472 c -0.27407,-0.05623 -0.56216,-0.11388 -0.86426,-0.17295 -0.3021,-0.05909 -0.59652,-0.11218 -0.88324,-0.15926 l -2.0971,-0.32627 z"
     id="path529" /><path
     d="m -316.65,25.241 -1.2333,1.8441 6.3093,4.2197 -1.5979,2.3892 1.5077,1.0084 4.4059,-6.5876 -1.5077,-1.0084 -1.5746,2.3544 z"
     id="path531" /><path
     d="m -312.84,36.153 -7.4175,-5.7809 -1.3638,1.7498 7.4175,5.7809 z"
     id="path533" /><path
     d="m -325.96,36.881 c -1.0404,1.1494 -1.5485,2.3647 -1.5243,3.6458 0.0242,1.2811 0.57283,2.437 1.6458,3.4678 1.0355,0.94611 2.174,1.4018 3.4157,1.367 1.2416,-0.03478 2.4056,-0.6141 3.4917,-1.738 1.0194,-1.1324 1.5092,-2.3425 1.4693,-3.6303 -0.0399,-1.2877 -0.58965,-2.4416 -1.6493,-3.4615 -1.0228,-0.93114 -2.1533,-1.3809 -3.3916,-1.3494 -1.2383,0.03156 -2.3875,0.59432 -3.4478,1.6883 z m 1.2085,1.2409 c 0.57324,-0.5847 1.2323,-0.85095 1.9772,-0.79875 0.74492,0.05219 1.447,0.37923 2.1064,0.98111 0.6548,0.6191 1.0415,1.3007 1.1602,2.0448 0.11869,0.74405 -0.10148,1.4321 -0.66051,2.0643 -0.59304,0.6004 -1.2657,0.86671 -2.018,0.79895 -0.75225,-0.06779 -1.4508,-0.39783 -2.0956,-0.99013 -0.66675,-0.63145 -1.0527,-1.3147 -1.1579,-2.0498 -0.1052,-0.73508 0.12101,-1.4152 0.67863,-2.0402 z"
     id="path535" /><path
     d="m -332.04,43.074 1.9684,2.3554 c 0.44892,0.53856 0.89134,1.0598 1.3273,1.5638 0.43592,0.50396 0.88278,1.0033 1.3406,1.4981 l -0.0428,0.03579 c -0.58885,-0.28488 -1.1961,-0.55098 -1.8217,-0.79828 -0.62565,-0.24732 -1.2386,-0.47678 -1.839,-0.68839 l -4.0268,-1.3808 -1.8522,1.5478 6.0303,7.2162 1.5846,-1.3242 -1.8968,-2.2698 c -0.41757,-0.50378 -0.82874,-0.98221 -1.2335,-1.4353 -0.40477,-0.4531 -0.84762,-0.90961 -1.3286,-1.3695 l 0.0321,-0.02684 c 0.55119,0.28831 1.1212,0.55974 1.7101,0.81429 0.58888,0.25454 1.1825,0.4835 1.7809,0.6869 l 3.7836,1.2203 2.0985,-1.7536 -6.0303,-7.2162 z"
     id="path537" /><path
     d="m -338.04,48.545 c -0.3511,0.02521 -0.78176,0.13072 -1.292,0.31655 -0.51022,0.18583 -1.0134,0.44034 -1.5096,0.76355 -1.1603,0.80735 -1.849,1.6272 -2.0661,2.4596 -0.21706,0.83236 -0.10472,1.5708 0.33702,2.2154 0.39779,0.59806 0.90754,0.96319 1.5292,1.0954 0.62169,0.1322 1.3839,0.06484 2.2865,-0.20206 0.64824,-0.19368 1.1511,-0.30195 1.5087,-0.32481 0.35755,-0.02288 0.61571,0.08657 0.77449,0.32833 0.14015,0.20805 0.15889,0.44782 0.0562,0.71929 -0.10267,0.27146 -0.35481,0.54512 -0.75642,0.821 -0.44176,0.28376 -0.84871,0.48457 -1.2208,0.60242 -0.37212,0.11783 -0.67073,0.19189 -0.89582,0.22217 l 0.5343,1.7568 c 0.34666,-0.05126 0.72911,-0.15886 1.1474,-0.32282 0.41823,-0.16398 0.88193,-0.41381 1.3911,-0.7495 0.9538,-0.65601 1.5622,-1.3867 1.8252,-2.192 0.26302,-0.80537 0.16906,-1.5582 -0.28187,-2.2585 -0.43779,-0.6287 -0.99816,-0.98383 -1.6811,-1.0654 -0.68295,-0.08157 -1.4396,0.01707 -2.2701,0.2959 -0.60922,0.1935 -1.0779,0.28177 -1.4062,0.26481 -0.32821,-0.01697 -0.5638,-0.13867 -0.70678,-0.3651 -0.17103,-0.2591 -0.19574,-0.5361 -0.0741,-0.83103 0.12161,-0.29493 0.3939,-0.58553 0.81687,-0.8718 0.44378,-0.28756 0.89119,-0.50208 1.3422,-0.64356 0.45106,-0.14148 0.85495,-0.22636 1.2117,-0.25462 z"
     id="path539" /></g><g
   style="font-size:28px;font-style:normal;font-variant:normal;font-weight:600;font-stretch:normal;text-align:center;line-height:125%;letter-spacing:0px;word-spacing:0px;writing-mode:lr-tb;text-anchor:middle;fill:#c8a736;font-family:Myriad Pro Light SemiExt"
   font-weight="600"
   transform="translate(-2.2142687,-0.61135958)"
   line-height="125%"
   font-stretch="normal"
   font-size="28px"
   font-variant="normal"
   font-style="normal"
   id="g541"><path
     d="m -18.968,189.97 3.4187,0.60605 3.1769,-17.92 -2.9224,-0.51807 -4.9027,1.3489 0.13734,2.7542 3.6568,-1.0579 0.05514,0.01 z"
     id="path543" /><path
     d="m 3.4708,173.86 c -0.22027,-0.0289 -0.47602,-0.0513 -0.76724,-0.0673 -0.29125,-0.016 -0.63218,-0.0229 -1.0228,-0.0207 -1.4706,-0.0118 -2.8116,0.16898 -4.023,0.54225 -1.2114,0.37331 -2.304,0.94194 -3.2777,1.7059 -1.0774,0.8397 -1.9572,1.9307 -2.6393,3.273 -0.68214,1.3423 -1.0853,2.8711 -1.2094,4.5863 -0.13832,2.3129 0.37922,4.2474 1.5526,5.8036 1.17338,1.5562 2.9518,2.4361 5.3353,2.6398 2.0767,0.0838 3.7834,-0.45433 5.1202,-1.6145 1.3367,-1.1602 2.0811,-2.6516 2.2332,-4.4743 0.081921,-1.9032 -0.41049,-3.4141 -1.4772,-4.5326 -1.0668,-1.1184 -2.4655,-1.7411 -4.1963,-1.868 -1.0211,-0.0563 -1.918,0.0551 -2.6907,0.33404 -0.77276,0.279 -1.414,0.66647 -1.9237,1.1624 l -0.083823,-0.005 c 0.29678,-1.2773 1.0195,-2.3621 2.1682,-3.2545 1.1486,-0.89233 2.7729,-1.3856 4.8729,-1.4797 0.36412,-0.0173 0.69742,-0.019 0.99993,-0.005 0.30248,0.0138 0.58507,0.0368 0.8478,0.069 z m -5.9055,15.779 c -1.2641,-0.12232 -2.1811,-0.62021 -2.7511,-1.4937 -0.56999,-0.87346 -0.83652,-1.8833 -0.79959,-3.0296 0.01398,-0.2066 0.045475,-0.38577 0.094486,-0.5375 0.049,-0.15172 0.11316,-0.2937 0.19247,-0.42593 0.32878,-0.55387 0.80315,-1.0001 1.4231,-1.3387 0.61995,-0.33858 1.3067,-0.49044 2.0603,-0.45561 1.1245,0.0934 1.973,0.49332 2.5457,1.1998 0.57262,0.70646 0.82838,1.594 0.76726,2.6627 -0.082257,1.0428 -0.43726,1.8837 -1.065,2.5228 -0.62777,0.63912 -1.4317,0.93888 -2.4117,0.89928 z"
     id="path545" /><path
     d="m 6.8982,191.36 c 0.56452,0.33422 1.3451,0.6128 2.3417,0.83574 0.99658,0.22294 2.124,0.30727 3.3823,0.25299 2.4042,-0.16666 4.2308,-0.79944 5.4799,-1.8984 1.249,-1.0989 1.8376,-2.4491 1.7657,-4.0505 -0.09626,-1.2139 -0.56691,-2.1918 -1.412,-2.9337 -0.84506,-0.74181 -1.8819,-1.177 -3.1105,-1.3054 l -0.0031,-0.0559 c 1.1784,-0.47812 2.044,-1.1004 2.5968,-1.8667 0.55275,-0.76633 0.80196,-1.6352 0.74762,-2.6067 -0.06903,-1.2394 -0.63445,-2.2623 -1.6963,-3.0688 -1.0618,-0.80647 -2.6008,-1.1732 -4.617,-1.1003 -1.2223,0.0827 -2.339,0.30157 -3.3501,0.6566 -1.0111,0.35506 -1.7959,0.74503 -2.3545,1.1699 l 1.0075,2.5247 c 0.40901,-0.30805 0.98451,-0.61646 1.7265,-0.92524 0.74197,-0.30875 1.5414,-0.49623 2.3983,-0.56243 1.1102,-0.0391 1.9242,0.14647 2.4421,0.55684 0.51786,0.4104 0.78841,0.91319 0.81165,1.5084 -0.0035,0.87592 -0.38368,1.5288 -1.1406,1.9588 -0.75696,0.42994 -1.5806,0.66548 -2.471,0.70662 l -1.9011,0.10407 0.14233,2.6001 1.9291,-0.1056 c 1.0946,-0.0669 2.0838,0.11728 2.9676,0.55261 0.88376,0.43534 1.3848,1.1791 1.5032,2.2311 0.06642,0.67988 -0.18766,1.3317 -0.76224,1.9556 -0.57459,0.62384 -1.5732,0.99397 -2.9957,1.1104 -1.0038,0.0298 -1.9359,-0.0722 -2.7964,-0.3061 -0.86048,-0.23389 -1.4978,-0.45722 -1.912,-0.66999 z"
     id="path547" /><path
     d="m 32.16,171.05 c -0.22082,0.0243 -0.47456,0.0634 -0.76122,0.11717 -0.28668,0.0538 -0.61947,0.12821 -0.99835,0.2232 -1.4311,0.33844 -2.6906,0.83305 -3.7784,1.4838 -1.0878,0.6508 -2.0138,1.4631 -2.7778,2.4368 -0.84671,1.0719 -1.4417,2.3409 -1.7848,3.807 -0.34319,1.4661 -0.37101,3.0468 -0.08347,4.7423 0.41593,2.2794 1.3789,4.0352 2.8888,5.2675 1.5099,1.2323 3.4466,1.6639 5.8101,1.2947 2.037,-0.41266 3.5667,-1.3414 4.589,-2.7863 1.0223,-1.4449 1.3905,-3.0706 1.1046,-4.8771 -0.37324,-1.8681 -1.211,-3.2184 -2.5132,-4.051 -1.3022,-0.83253 -2.809,-1.1045 -4.5203,-0.81597 -1.0051,0.18827 -1.8498,0.50981 -2.534,0.96462 -0.68419,0.45484 -1.2148,0.98375 -1.5919,1.5867 l -0.08271,0.0147 c -0.01563,-1.3112 0.42824,-2.5368 1.3316,-3.6768 0.90336,-1.14 2.3637,-2.0055 4.381,-2.5966 0.34955,-0.10342 0.67286,-0.18443 0.96995,-0.24304 0.29707,-0.0586 0.57703,-0.10346 0.83988,-0.13467 z m -1.982,16.731 c -1.2569,0.18194 -2.266,-0.0835 -3.0274,-0.79625 -0.76144,-0.71277 -1.2606,-1.6302 -1.4974,-2.7523 -0.03558,-0.204 -0.04761,-0.38551 -0.03611,-0.54455 0.0115,-0.15902 0.04003,-0.31219 0.08561,-0.45949 0.18756,-0.61619 0.54214,-1.1625 1.0637,-1.6388 0.5216,-0.47634 1.1525,-0.78724 1.8927,-0.93269 1.1144,-0.17681 2.0337,0.01 2.758,0.55965 0.72426,0.54994 1.1838,1.3512 1.3787,2.4037 0.1682,1.0324 0.02347,1.9336 -0.4342,2.7038 -0.45768,0.77012 -1.1672,1.2525 -2.1285,1.4472 z"
     id="path549" /></g></svg>