<?xml version="1.0" encoding="UTF-8"?>
<svg xmlns="http://www.w3.org/2000/svg" xmlns:xlink="http://www.w3.org/1999/xlink" width="28pt" height="20pt" viewBox="0 0 28 20" version="1.1">
<g id="surface1">
<rect x="0" y="0" width="28" height="20" style="fill:rgb(5.882353%,12.54902%,29.411765%);fill-opacity:1;stroke:none;"/>
<path style=" stroke:none;fill-rule:nonzero;fill:rgb(100%,71.372549%,7.058824%);fill-opacity:1;" d="M 22.898438 2.601562 L 22.582031 3.589844 L 23.070312 3.75 Z M 22.898438 2.601562 "/>
<path style=" stroke:none;fill-rule:nonzero;fill:rgb(100%,71.372549%,7.058824%);fill-opacity:1;" d="M 22.898438 2.601562 L 23.214844 3.589844 L 22.726562 3.75 Z M 22.898438 2.601562 "/>
<path style=" stroke:none;fill-rule:nonzero;fill:rgb(100%,71.372549%,7.058824%);fill-opacity:1;" d="M 23.875 3.320312 L 22.847656 3.320312 L 22.847656 3.839844 Z M 23.875 3.320312 "/>
<path style=" stroke:none;fill-rule:nonzero;fill:rgb(100%,71.372549%,7.058824%);fill-opacity:1;" d="M 23.875 3.320312 L 23.042969 3.929688 L 22.742188 3.507812 Z M 23.875 3.320312 "/>
<path style=" stroke:none;fill-rule:nonzero;fill:rgb(100%,71.372549%,7.058824%);fill-opacity:1;" d="M 21.921875 3.320312 L 22.753906 3.929688 L 23.054688 3.507812 Z M 21.921875 3.320312 "/>
<path style=" stroke:none;fill-rule:nonzero;fill:rgb(100%,71.372549%,7.058824%);fill-opacity:1;" d="M 21.921875 3.320312 L 22.949219 3.320312 L 22.949219 3.839844 Z M 21.921875 3.320312 "/>
<path style=" stroke:none;fill-rule:nonzero;fill:rgb(100%,71.372549%,7.058824%);fill-opacity:1;" d="M 23.503906 4.480469 L 23.183594 3.492188 L 22.695312 3.652344 Z M 23.503906 4.480469 "/>
<path style=" stroke:none;fill-rule:nonzero;fill:rgb(100%,71.372549%,7.058824%);fill-opacity:1;" d="M 23.503906 4.480469 L 22.671875 3.871094 L 22.972656 3.449219 Z M 23.503906 4.480469 "/>
<path style=" stroke:none;fill-rule:nonzero;fill:rgb(100%,71.372549%,7.058824%);fill-opacity:1;" d="M 22.292969 4.480469 L 23.125 3.871094 L 22.824219 3.449219 Z M 22.292969 4.480469 "/>
<path style=" stroke:none;fill-rule:nonzero;fill:rgb(100%,71.372549%,7.058824%);fill-opacity:1;" d="M 22.292969 4.480469 L 22.613281 3.492188 L 23.101562 3.652344 Z M 22.292969 4.480469 "/>
<path style=" stroke:none;fill-rule:nonzero;fill:rgb(100%,71.372549%,7.058824%);fill-opacity:1;" d="M 4.527344 7.300781 L 4.339844 7.890625 L 4.628906 7.984375 Z M 4.527344 7.300781 "/>
<path style=" stroke:none;fill-rule:nonzero;fill:rgb(100%,71.372549%,7.058824%);fill-opacity:1;" d="M 4.527344 7.300781 L 4.71875 7.890625 L 4.425781 7.984375 Z M 4.527344 7.300781 "/>
<path style=" stroke:none;fill-rule:nonzero;fill:rgb(100%,71.372549%,7.058824%);fill-opacity:1;" d="M 5.109375 7.726562 L 4.5 7.726562 L 4.5 8.039062 Z M 5.109375 7.726562 "/>
<path style=" stroke:none;fill-rule:nonzero;fill:rgb(100%,71.372549%,7.058824%);fill-opacity:1;" d="M 5.109375 7.726562 L 4.617188 8.09375 L 4.433594 7.84375 Z M 5.109375 7.726562 "/>
<path style=" stroke:none;fill-rule:nonzero;fill:rgb(100%,71.372549%,7.058824%);fill-opacity:1;" d="M 3.945312 7.726562 L 4.441406 8.09375 L 4.621094 7.84375 Z M 3.945312 7.726562 "/>
<path style=" stroke:none;fill-rule:nonzero;fill:rgb(100%,71.372549%,7.058824%);fill-opacity:1;" d="M 3.945312 7.726562 L 4.558594 7.726562 L 4.558594 8.039062 Z M 3.945312 7.726562 "/>
<path style=" stroke:none;fill-rule:nonzero;fill:rgb(100%,71.372549%,7.058824%);fill-opacity:1;" d="M 4.886719 8.421875 L 4.699219 7.832031 L 4.40625 7.925781 Z M 4.886719 8.421875 "/>
<path style=" stroke:none;fill-rule:nonzero;fill:rgb(100%,71.372549%,7.058824%);fill-opacity:1;" d="M 4.886719 8.421875 L 4.394531 8.058594 L 4.574219 7.804688 Z M 4.886719 8.421875 "/>
<path style=" stroke:none;fill-rule:nonzero;fill:rgb(100%,71.372549%,7.058824%);fill-opacity:1;" d="M 4.167969 8.421875 L 4.664062 8.058594 L 4.484375 7.804688 Z M 4.167969 8.421875 "/>
<path style=" stroke:none;fill-rule:nonzero;fill:rgb(100%,71.372549%,7.058824%);fill-opacity:1;" d="M 4.167969 8.421875 L 4.355469 7.832031 L 4.648438 7.925781 Z M 4.167969 8.421875 "/>
<path style=" stroke:none;fill-rule:nonzero;fill:rgb(100%,71.372549%,7.058824%);fill-opacity:1;" d="M 7.832031 8.539062 L 7.640625 9.128906 L 7.933594 9.226562 Z M 7.832031 8.539062 "/>
<path style=" stroke:none;fill-rule:nonzero;fill:rgb(100%,71.372549%,7.058824%);fill-opacity:1;" d="M 7.832031 8.539062 L 8.019531 9.128906 L 7.726562 9.226562 Z M 7.832031 8.539062 "/>
<path style=" stroke:none;fill-rule:nonzero;fill:rgb(100%,71.372549%,7.058824%);fill-opacity:1;" d="M 8.414062 8.96875 L 7.800781 8.96875 L 7.800781 9.277344 Z M 8.414062 8.96875 "/>
<path style=" stroke:none;fill-rule:nonzero;fill:rgb(100%,71.372549%,7.058824%);fill-opacity:1;" d="M 8.414062 8.96875 L 7.917969 9.332031 L 7.738281 9.082031 Z M 8.414062 8.96875 "/>
<path style=" stroke:none;fill-rule:nonzero;fill:rgb(100%,71.372549%,7.058824%);fill-opacity:1;" d="M 7.246094 8.96875 L 7.742188 9.332031 L 7.921875 9.082031 Z M 7.246094 8.96875 "/>
<path style=" stroke:none;fill-rule:nonzero;fill:rgb(100%,71.372549%,7.058824%);fill-opacity:1;" d="M 7.246094 8.96875 L 7.859375 8.96875 L 7.859375 9.277344 Z M 7.246094 8.96875 "/>
<path style=" stroke:none;fill-rule:nonzero;fill:rgb(100%,71.372549%,7.058824%);fill-opacity:1;" d="M 8.191406 9.660156 L 8 9.070312 L 7.710938 9.167969 Z M 8.191406 9.660156 "/>
<path style=" stroke:none;fill-rule:nonzero;fill:rgb(100%,71.372549%,7.058824%);fill-opacity:1;" d="M 8.191406 9.660156 L 7.695312 9.296875 L 7.875 9.046875 Z M 8.191406 9.660156 "/>
<path style=" stroke:none;fill-rule:nonzero;fill:rgb(100%,71.372549%,7.058824%);fill-opacity:1;" d="M 7.46875 9.660156 L 7.964844 9.296875 L 7.785156 9.046875 Z M 7.46875 9.660156 "/>
<path style=" stroke:none;fill-rule:nonzero;fill:rgb(100%,71.372549%,7.058824%);fill-opacity:1;" d="M 7.46875 9.660156 L 7.660156 9.070312 L 7.949219 9.167969 Z M 7.46875 9.660156 "/>
<path style=" stroke:none;fill-rule:nonzero;fill:rgb(100%,71.372549%,7.058824%);fill-opacity:1;" d="M 9.472656 10.320312 L 9.28125 10.910156 L 9.574219 11.003906 Z M 9.472656 10.320312 "/>
<path style=" stroke:none;fill-rule:nonzero;fill:rgb(100%,71.372549%,7.058824%);fill-opacity:1;" d="M 9.472656 10.320312 L 9.660156 10.910156 L 9.371094 11.003906 Z M 9.472656 10.320312 "/>
<path style=" stroke:none;fill-rule:nonzero;fill:rgb(100%,71.372549%,7.058824%);fill-opacity:1;" d="M 10.054688 10.75 L 9.441406 10.75 L 9.441406 11.058594 Z M 10.054688 10.75 "/>
<path style=" stroke:none;fill-rule:nonzero;fill:rgb(100%,71.372549%,7.058824%);fill-opacity:1;" d="M 10.054688 10.75 L 9.558594 11.113281 L 9.378906 10.863281 Z M 10.054688 10.75 "/>
<path style=" stroke:none;fill-rule:nonzero;fill:rgb(100%,71.372549%,7.058824%);fill-opacity:1;" d="M 8.890625 10.75 L 9.382812 11.113281 L 9.566406 10.863281 Z M 8.890625 10.75 "/>
<path style=" stroke:none;fill-rule:nonzero;fill:rgb(100%,71.372549%,7.058824%);fill-opacity:1;" d="M 8.890625 10.75 L 9.5 10.75 L 9.5 11.058594 Z M 8.890625 10.75 "/>
<path style=" stroke:none;fill-rule:nonzero;fill:rgb(100%,71.372549%,7.058824%);fill-opacity:1;" d="M 9.832031 11.441406 L 9.644531 10.851562 L 9.351562 10.949219 Z M 9.832031 11.441406 "/>
<path style=" stroke:none;fill-rule:nonzero;fill:rgb(100%,71.372549%,7.058824%);fill-opacity:1;" d="M 9.832031 11.441406 L 9.335938 11.078125 L 9.515625 10.828125 Z M 9.832031 11.441406 "/>
<path style=" stroke:none;fill-rule:nonzero;fill:rgb(100%,71.372549%,7.058824%);fill-opacity:1;" d="M 9.113281 11.441406 L 9.605469 11.078125 L 9.425781 10.828125 Z M 9.113281 11.441406 "/>
<path style=" stroke:none;fill-rule:nonzero;fill:rgb(100%,71.372549%,7.058824%);fill-opacity:1;" d="M 9.113281 11.441406 L 9.300781 10.851562 L 9.59375 10.949219 Z M 9.113281 11.441406 "/>
<path style=" stroke:none;fill-rule:nonzero;fill:rgb(100%,71.372549%,7.058824%);fill-opacity:1;" d="M 11.132812 12.179688 L 10.941406 12.769531 L 11.234375 12.867188 Z M 11.132812 12.179688 "/>
<path style=" stroke:none;fill-rule:nonzero;fill:rgb(100%,71.372549%,7.058824%);fill-opacity:1;" d="M 11.132812 12.179688 L 11.320312 12.769531 L 11.03125 12.867188 Z M 11.132812 12.179688 "/>
<path style=" stroke:none;fill-rule:nonzero;fill:rgb(100%,71.372549%,7.058824%);fill-opacity:1;" d="M 11.714844 12.609375 L 11.101562 12.609375 L 11.101562 12.917969 Z M 11.714844 12.609375 "/>
<path style=" stroke:none;fill-rule:nonzero;fill:rgb(100%,71.372549%,7.058824%);fill-opacity:1;" d="M 11.714844 12.609375 L 11.21875 12.972656 L 11.039062 12.722656 Z M 11.714844 12.609375 "/>
<path style=" stroke:none;fill-rule:nonzero;fill:rgb(100%,71.372549%,7.058824%);fill-opacity:1;" d="M 10.550781 12.609375 L 11.046875 12.972656 L 11.226562 12.722656 Z M 10.550781 12.609375 "/>
<path style=" stroke:none;fill-rule:nonzero;fill:rgb(100%,71.372549%,7.058824%);fill-opacity:1;" d="M 10.550781 12.609375 L 11.164062 12.609375 L 11.164062 12.917969 Z M 10.550781 12.609375 "/>
<path style=" stroke:none;fill-rule:nonzero;fill:rgb(100%,71.372549%,7.058824%);fill-opacity:1;" d="M 11.492188 13.300781 L 11.304688 12.710938 L 11.011719 12.808594 Z M 11.492188 13.300781 "/>
<path style=" stroke:none;fill-rule:nonzero;fill:rgb(100%,71.372549%,7.058824%);fill-opacity:1;" d="M 11.492188 13.300781 L 10.996094 12.9375 L 11.175781 12.6875 Z M 11.492188 13.300781 "/>
<path style=" stroke:none;fill-rule:nonzero;fill:rgb(100%,71.372549%,7.058824%);fill-opacity:1;" d="M 10.773438 13.300781 L 11.269531 12.9375 L 11.089844 12.6875 Z M 10.773438 13.300781 "/>
<path style=" stroke:none;fill-rule:nonzero;fill:rgb(100%,71.372549%,7.058824%);fill-opacity:1;" d="M 10.773438 13.300781 L 10.960938 12.710938 L 11.253906 12.808594 Z M 10.773438 13.300781 "/>
<path style=" stroke:none;fill-rule:nonzero;fill:rgb(100%,71.372549%,7.058824%);fill-opacity:1;" d="M 16.078125 13.960938 L 15.886719 14.550781 L 16.179688 14.644531 Z M 16.078125 13.960938 "/>
<path style=" stroke:none;fill-rule:nonzero;fill:rgb(100%,71.372549%,7.058824%);fill-opacity:1;" d="M 16.078125 13.960938 L 16.265625 14.550781 L 15.972656 14.644531 Z M 16.078125 13.960938 "/>
<path style=" stroke:none;fill-rule:nonzero;fill:rgb(100%,71.372549%,7.058824%);fill-opacity:1;" d="M 16.660156 14.386719 L 16.046875 14.386719 L 16.046875 14.699219 Z M 16.660156 14.386719 "/>
<path style=" stroke:none;fill-rule:nonzero;fill:rgb(100%,71.372549%,7.058824%);fill-opacity:1;" d="M 16.660156 14.386719 L 16.164062 14.753906 L 15.984375 14.503906 Z M 16.660156 14.386719 "/>
<path style=" stroke:none;fill-rule:nonzero;fill:rgb(100%,71.372549%,7.058824%);fill-opacity:1;" d="M 15.492188 14.386719 L 15.988281 14.753906 L 16.167969 14.503906 Z M 15.492188 14.386719 "/>
<path style=" stroke:none;fill-rule:nonzero;fill:rgb(100%,71.372549%,7.058824%);fill-opacity:1;" d="M 15.492188 14.386719 L 16.105469 14.386719 L 16.105469 14.699219 Z M 15.492188 14.386719 "/>
<path style=" stroke:none;fill-rule:nonzero;fill:rgb(100%,71.372549%,7.058824%);fill-opacity:1;" d="M 16.4375 15.082031 L 16.246094 14.492188 L 15.957031 14.585938 Z M 16.4375 15.082031 "/>
<path style=" stroke:none;fill-rule:nonzero;fill:rgb(100%,71.372549%,7.058824%);fill-opacity:1;" d="M 16.4375 15.082031 L 15.941406 14.71875 L 16.121094 14.464844 Z M 16.4375 15.082031 "/>
<path style=" stroke:none;fill-rule:nonzero;fill:rgb(100%,71.372549%,7.058824%);fill-opacity:1;" d="M 15.714844 15.082031 L 16.210938 14.71875 L 16.03125 14.464844 Z M 15.714844 15.082031 "/>
<path style=" stroke:none;fill-rule:nonzero;fill:rgb(100%,71.372549%,7.058824%);fill-opacity:1;" d="M 15.714844 15.082031 L 15.90625 14.492188 L 16.195312 14.585938 Z M 15.714844 15.082031 "/>
<path style=" stroke:none;fill-rule:nonzero;fill:rgb(100%,71.372549%,7.058824%);fill-opacity:1;" d="M 10.914062 14.800781 L 10.726562 15.390625 L 11.015625 15.484375 Z M 10.914062 14.800781 "/>
<path style=" stroke:none;fill-rule:nonzero;fill:rgb(100%,71.372549%,7.058824%);fill-opacity:1;" d="M 10.914062 14.800781 L 11.105469 15.390625 L 10.8125 15.484375 Z M 10.914062 14.800781 "/>
<path style=" stroke:none;fill-rule:nonzero;fill:rgb(100%,71.372549%,7.058824%);fill-opacity:1;" d="M 11.5 15.226562 L 10.886719 15.226562 L 10.886719 15.539062 Z M 11.5 15.226562 "/>
<path style=" stroke:none;fill-rule:nonzero;fill:rgb(100%,71.372549%,7.058824%);fill-opacity:1;" d="M 11.5 15.226562 L 11.003906 15.59375 L 10.820312 15.34375 Z M 11.5 15.226562 "/>
<path style=" stroke:none;fill-rule:nonzero;fill:rgb(100%,71.372549%,7.058824%);fill-opacity:1;" d="M 10.332031 15.226562 L 10.828125 15.59375 L 11.007812 15.34375 Z M 10.332031 15.226562 "/>
<path style=" stroke:none;fill-rule:nonzero;fill:rgb(100%,71.372549%,7.058824%);fill-opacity:1;" d="M 10.332031 15.226562 L 10.945312 15.226562 L 10.945312 15.539062 Z M 10.332031 15.226562 "/>
<path style=" stroke:none;fill-rule:nonzero;fill:rgb(100%,71.372549%,7.058824%);fill-opacity:1;" d="M 11.277344 15.921875 L 11.085938 15.332031 L 10.792969 15.425781 Z M 11.277344 15.921875 "/>
<path style=" stroke:none;fill-rule:nonzero;fill:rgb(100%,71.372549%,7.058824%);fill-opacity:1;" d="M 11.277344 15.921875 L 10.78125 15.558594 L 10.960938 15.304688 Z M 11.277344 15.921875 "/>
<path style=" stroke:none;fill-rule:nonzero;fill:rgb(100%,71.372549%,7.058824%);fill-opacity:1;" d="M 10.554688 15.921875 L 11.050781 15.558594 L 10.871094 15.304688 Z M 10.554688 15.921875 "/>
<path style=" stroke:none;fill-rule:nonzero;fill:rgb(100%,71.372549%,7.058824%);fill-opacity:1;" d="M 10.554688 15.921875 L 10.746094 15.332031 L 11.035156 15.425781 Z M 10.554688 15.921875 "/>
<path style=" stroke:none;fill-rule:nonzero;fill:rgb(100%,71.372549%,7.058824%);fill-opacity:1;" d="M 14.632812 16.039062 L 14.441406 16.628906 L 14.734375 16.726562 Z M 14.632812 16.039062 "/>
<path style=" stroke:none;fill-rule:nonzero;fill:rgb(100%,71.372549%,7.058824%);fill-opacity:1;" d="M 14.632812 16.039062 L 14.820312 16.628906 L 14.53125 16.726562 Z M 14.632812 16.039062 "/>
<path style=" stroke:none;fill-rule:nonzero;fill:rgb(100%,71.372549%,7.058824%);fill-opacity:1;" d="M 15.214844 16.46875 L 14.601562 16.46875 L 14.601562 16.777344 Z M 15.214844 16.46875 "/>
<path style=" stroke:none;fill-rule:nonzero;fill:rgb(100%,71.372549%,7.058824%);fill-opacity:1;" d="M 15.214844 16.46875 L 14.71875 16.832031 L 14.539062 16.582031 Z M 15.214844 16.46875 "/>
<path style=" stroke:none;fill-rule:nonzero;fill:rgb(100%,71.372549%,7.058824%);fill-opacity:1;" d="M 14.050781 16.46875 L 14.546875 16.832031 L 14.726562 16.582031 Z M 14.050781 16.46875 "/>
<path style=" stroke:none;fill-rule:nonzero;fill:rgb(100%,71.372549%,7.058824%);fill-opacity:1;" d="M 14.050781 16.46875 L 14.664062 16.46875 L 14.664062 16.777344 Z M 14.050781 16.46875 "/>
<path style=" stroke:none;fill-rule:nonzero;fill:rgb(100%,71.372549%,7.058824%);fill-opacity:1;" d="M 14.992188 17.160156 L 14.804688 16.570312 L 14.511719 16.667969 Z M 14.992188 17.160156 "/>
<path style=" stroke:none;fill-rule:nonzero;fill:rgb(100%,71.372549%,7.058824%);fill-opacity:1;" d="M 14.992188 17.160156 L 14.496094 16.796875 L 14.675781 16.546875 Z M 14.992188 17.160156 "/>
<path style=" stroke:none;fill-rule:nonzero;fill:rgb(100%,71.372549%,7.058824%);fill-opacity:1;" d="M 14.273438 17.160156 L 14.769531 16.796875 L 14.589844 16.546875 Z M 14.273438 17.160156 "/>
<path style=" stroke:none;fill-rule:nonzero;fill:rgb(100%,71.372549%,7.058824%);fill-opacity:1;" d="M 14.273438 17.160156 L 14.460938 16.570312 L 14.753906 16.667969 Z M 14.273438 17.160156 "/>
</g>
</svg>
