<?xml version="1.0" encoding="UTF-8"?>
<svg xmlns="http://www.w3.org/2000/svg" xmlns:xlink="http://www.w3.org/1999/xlink" width="33pt" height="20pt" viewBox="0 0 33 20" version="1.1">
<g id="surface1">
<path style=" stroke:none;fill-rule:nonzero;fill:rgb(80%,0%,0%);fill-opacity:1;" d="M 0 0 L 30.523438 0 L 30.523438 20 L 0 20 Z M 0 0 "/>
<path style=" stroke:none;fill-rule:nonzero;fill:rgb(100%,100%,100%);fill-opacity:1;" d="M 30.523438 0 L 30.9375 0 L 30.9375 20 L 30.523438 20 Z M 30.523438 0 "/>
<path style=" stroke:none;fill-rule:nonzero;fill:rgb(0%,17.647059%,39.607843%);fill-opacity:1;" d="M 30.9375 0 L 33 0 L 33 20 L 30.9375 20 Z M 30.9375 0 "/>
<path style=" stroke:none;fill-rule:nonzero;fill:rgb(100%,100%,100%);fill-opacity:1;" d="M 20.625 10 C 20.625 12.992188 18.222656 15.417969 15.261719 15.417969 C 12.300781 15.417969 9.898438 12.992188 9.898438 10 C 9.898438 7.007812 12.300781 4.582031 15.261719 4.582031 C 18.222656 4.582031 20.625 7.007812 20.625 10 Z M 20.625 10 "/>
<path style=" stroke:none;fill-rule:nonzero;fill:rgb(0%,17.647059%,39.607843%);fill-opacity:1;" d="M 20.210938 10 C 20.210938 12.761719 17.996094 15 15.261719 15 C 12.527344 15 10.3125 12.761719 10.3125 10 C 10.3125 7.238281 12.527344 5 15.261719 5 C 17.996094 5 20.210938 7.238281 20.210938 10 Z M 20.210938 10 "/>
<path style=" stroke:none;fill-rule:nonzero;fill:rgb(100%,100%,100%);fill-opacity:1;" d="M 15.199219 10.199219 L 13.824219 12.109375 L 14.769531 12.800781 "/>
<path style=" stroke:none;fill-rule:nonzero;fill:rgb(100%,100%,100%);fill-opacity:1;" d="M 15.199219 10.199219 L 15.199219 12.558594 L 14.03125 12.558594 "/>
<path style=" stroke:none;fill-rule:nonzero;fill:rgb(100%,100%,100%);fill-opacity:1;" d="M 16.8125 12.445312 L 14.589844 11.714844 L 14.230469 12.835938 "/>
<path style=" stroke:none;fill-rule:nonzero;fill:rgb(100%,100%,100%);fill-opacity:1;" d="M 16.8125 12.445312 L 14.589844 13.171875 L 14.230469 12.050781 "/>
<path style=" stroke:none;fill-rule:nonzero;fill:rgb(100%,100%,100%);fill-opacity:1;" d="M 15.199219 14.6875 L 15.199219 12.328125 L 14.03125 12.328125 "/>
<path style=" stroke:none;fill-rule:nonzero;fill:rgb(100%,100%,100%);fill-opacity:1;" d="M 15.199219 14.6875 L 13.824219 12.777344 L 14.769531 12.085938 "/>
<path style=" stroke:none;fill-rule:nonzero;fill:rgb(100%,100%,100%);fill-opacity:1;" d="M 12.585938 13.832031 L 14.808594 13.101562 L 14.449219 11.980469 "/>
<path style=" stroke:none;fill-rule:nonzero;fill:rgb(100%,100%,100%);fill-opacity:1;" d="M 12.585938 13.832031 L 13.960938 11.921875 L 14.90625 12.617188 "/>
<path style=" stroke:none;fill-rule:nonzero;fill:rgb(100%,100%,100%);fill-opacity:1;" d="M 12.585938 11.054688 L 13.960938 12.964844 L 14.90625 12.273438 "/>
<path style=" stroke:none;fill-rule:nonzero;fill:rgb(100%,100%,100%);fill-opacity:1;" d="M 12.585938 11.054688 L 14.808594 11.785156 L 14.449219 12.910156 "/>
<path style=" stroke:none;fill-rule:nonzero;fill:rgb(100%,100%,100%);fill-opacity:1;" d="M 15.125 9.84375 L 14.171875 7.6875 L 13.105469 8.167969 "/>
<path style=" stroke:none;fill-rule:nonzero;fill:rgb(100%,100%,100%);fill-opacity:1;" d="M 15.125 9.84375 L 13.101562 8.664062 L 13.683594 7.640625 "/>
<path style=" stroke:none;fill-rule:nonzero;fill:rgb(100%,100%,100%);fill-opacity:1;" d="M 12.390625 10.136719 L 14.128906 8.554688 L 13.347656 7.679688 "/>
<path style=" stroke:none;fill-rule:nonzero;fill:rgb(100%,100%,100%);fill-opacity:1;" d="M 12.390625 10.136719 L 12.878906 7.824219 L 14.019531 8.070312 "/>
<path style=" stroke:none;fill-rule:nonzero;fill:rgb(100%,100%,100%);fill-opacity:1;" d="M 11.273438 7.601562 L 13.296875 8.78125 L 13.882812 7.757812 "/>
<path style=" stroke:none;fill-rule:nonzero;fill:rgb(100%,100%,100%);fill-opacity:1;" d="M 11.273438 7.601562 L 13.597656 7.351562 L 13.722656 8.527344 "/>
<path style=" stroke:none;fill-rule:nonzero;fill:rgb(100%,100%,100%);fill-opacity:1;" d="M 13.316406 5.742188 L 12.828125 8.050781 L 13.972656 8.296875 "/>
<path style=" stroke:none;fill-rule:nonzero;fill:rgb(100%,100%,100%);fill-opacity:1;" d="M 13.316406 5.742188 L 14.265625 7.898438 L 13.199219 8.378906 "/>
<path style=" stroke:none;fill-rule:nonzero;fill:rgb(100%,100%,100%);fill-opacity:1;" d="M 15.695312 7.128906 L 13.371094 7.378906 L 13.492188 8.550781 "/>
<path style=" stroke:none;fill-rule:nonzero;fill:rgb(100%,100%,100%);fill-opacity:1;" d="M 15.695312 7.128906 L 13.957031 8.710938 L 13.175781 7.832031 "/>
<path style=" stroke:none;fill-rule:nonzero;fill:rgb(100%,100%,100%);fill-opacity:1;" d="M 15.464844 9.957031 L 17.789062 10.203125 L 17.910156 9.03125 "/>
<path style=" stroke:none;fill-rule:nonzero;fill:rgb(100%,100%,100%);fill-opacity:1;" d="M 15.464844 9.957031 L 17.488281 8.777344 L 18.074219 9.796875 "/>
<path style=" stroke:none;fill-rule:nonzero;fill:rgb(100%,100%,100%);fill-opacity:1;" d="M 16.582031 7.421875 L 17.066406 9.730469 L 18.210938 9.484375 "/>
<path style=" stroke:none;fill-rule:nonzero;fill:rgb(100%,100%,100%);fill-opacity:1;" d="M 16.582031 7.421875 L 18.320312 9 L 17.535156 9.878906 "/>
<path style=" stroke:none;fill-rule:nonzero;fill:rgb(100%,100%,100%);fill-opacity:1;" d="M 19.316406 7.710938 L 17.289062 8.890625 L 17.875 9.914062 "/>
<path style=" stroke:none;fill-rule:nonzero;fill:rgb(100%,100%,100%);fill-opacity:1;" d="M 19.316406 7.710938 L 18.363281 9.867188 L 17.296875 9.386719 "/>
<path style=" stroke:none;fill-rule:nonzero;fill:rgb(100%,100%,100%);fill-opacity:1;" d="M 19.886719 10.425781 L 18.148438 8.847656 L 17.367188 9.722656 "/>
<path style=" stroke:none;fill-rule:nonzero;fill:rgb(100%,100%,100%);fill-opacity:1;" d="M 19.886719 10.425781 L 17.5625 10.179688 L 17.683594 9.003906 "/>
<path style=" stroke:none;fill-rule:nonzero;fill:rgb(100%,100%,100%);fill-opacity:1;" d="M 17.507812 11.8125 L 18.457031 9.65625 L 17.390625 9.175781 "/>
<path style=" stroke:none;fill-rule:nonzero;fill:rgb(100%,100%,100%);fill-opacity:1;" d="M 17.507812 11.8125 L 17.019531 9.503906 L 18.164062 9.257812 "/>
</g>
</svg>
