<?xml version="1.0" encoding="UTF-8"?>
<svg xmlns="http://www.w3.org/2000/svg" xmlns:xlink="http://www.w3.org/1999/xlink" width="39pt" height="25pt" viewBox="0 0 39 25" version="1.1">
<g id="surface1">
<path style=" stroke:none;fill-rule:nonzero;fill:rgb(18.823529%,44.705882%,68.627451%);fill-opacity:1;" d="M 10.289062 21.265625 L 10.367188 21.117188 L 10.460938 21.105469 L 10.476562 21.140625 L 10.386719 21.265625 Z M 10.707031 21.113281 L 10.964844 21.21875 L 11.050781 21.207031 L 11.117188 21.046875 L 11.089844 20.90625 L 10.917969 20.882812 L 10.75 20.957031 Z M 11.980469 21.527344 L 12.132812 21.753906 L 12.234375 21.742188 L 12.28125 21.722656 L 12.339844 21.777344 L 12.492188 21.769531 L 12.535156 21.707031 L 12.414062 21.636719 L 12.332031 21.480469 L 12.246094 21.332031 L 12.007812 21.453125 Z M 12.816406 21.898438 L 12.867188 21.816406 L 13.0625 21.855469 L 13.089844 21.835938 L 13.34375 21.863281 L 13.328125 21.917969 L 13.222656 21.976562 L 13.042969 21.964844 Z M 13.035156 22.109375 L 13.117188 22.273438 L 13.242188 22.226562 L 13.257812 22.15625 L 13.1875 22.070312 L 13.035156 22.058594 Z M 13.324219 22.0625 L 13.417969 21.945312 L 13.609375 22.042969 L 13.792969 22.089844 L 13.972656 22.203125 L 13.972656 22.285156 L 13.824219 22.359375 L 13.625 22.398438 L 13.523438 22.339844 Z M 14.011719 22.707031 L 14.078125 22.652344 L 14.21875 22.722656 L 14.535156 22.867188 L 14.671875 22.957031 L 14.742188 23.054688 L 14.820312 23.238281 L 14.988281 23.34375 L 14.972656 23.398438 L 14.8125 23.53125 L 14.640625 23.59375 L 14.582031 23.566406 L 14.453125 23.640625 L 14.351562 23.773438 L 14.257812 23.894531 L 14.1875 23.886719 L 14.039062 23.78125 L 14.023438 23.59375 L 14.050781 23.492188 L 13.984375 23.257812 L 13.898438 23.183594 L 13.890625 23.074219 L 13.984375 23.035156 L 14.070312 22.910156 L 14.09375 22.867188 L 14.023438 22.792969 Z M 14.011719 22.707031 "/>
<path style=" stroke:none;fill-rule:nonzero;fill:rgb(83.529412%,18.823529%,20.392157%);fill-opacity:1;" d="M 7.183594 18.546875 L 7.171875 22.085938 L 7.238281 22.125 L 7.367188 22.132812 L 7.425781 22.085938 L 7.53125 22.085938 L 7.539062 22.203125 L 7.828125 22.484375 L 7.847656 22.59375 L 7.988281 22.511719 L 8.015625 22.507812 L 8.027344 22.378906 L 8.089844 22.3125 L 8.136719 22.304688 L 8.214844 22.246094 L 8.34375 22.332031 L 8.367188 22.453125 L 8.449219 22.5 L 8.496094 22.601562 L 8.65625 22.675781 L 8.796875 22.921875 L 8.910156 23.082031 L 9.003906 23.195312 L 9.0625 23.351562 L 9.269531 23.425781 L 9.484375 23.511719 L 9.527344 23.691406 L 9.546875 23.820312 L 9.503906 23.960938 L 9.433594 24.054688 L 9.363281 24.019531 L 9.304688 23.894531 L 9.191406 23.832031 L 9.117188 23.785156 L 9.085938 23.820312 L 9.144531 23.933594 L 9.152344 24.089844 L 9.105469 24.109375 L 9.023438 24.027344 L 8.9375 23.972656 L 8.957031 24.042969 L 9.011719 24.113281 L 8.976562 24.148438 C 8.976562 24.148438 8.945312 24.136719 8.921875 24.109375 C 8.902344 24.082031 8.835938 23.96875 8.835938 23.96875 L 8.796875 23.875 C 8.796875 23.875 8.785156 23.925781 8.757812 23.914062 C 8.730469 23.902344 8.703125 23.855469 8.703125 23.855469 L 8.777344 23.773438 L 8.714844 23.714844 L 8.714844 23.503906 L 8.683594 23.503906 L 8.648438 23.644531 L 8.601562 23.667969 L 8.5625 23.511719 L 8.535156 23.359375 L 8.503906 23.335938 L 8.515625 23.570312 L 8.515625 23.617188 L 8.457031 23.566406 L 8.308594 23.316406 L 8.222656 23.296875 L 8.195312 23.144531 L 8.128906 23.023438 L 8.0625 22.976562 L 8.0625 22.882812 L 8.148438 22.828125 L 8.128906 22.816406 L 8.019531 22.839844 L 7.878906 22.742188 L 7.773438 22.621094 L 7.574219 22.511719 L 7.40625 22.40625 L 7.460938 22.273438 L 7.460938 22.203125 L 7.386719 22.273438 L 7.265625 22.320312 L 7.113281 22.273438 L 6.878906 22.171875 L 6.652344 22.171875 L 6.625 22.191406 L 6.355469 22.03125 L 6.269531 22.015625 L 6.15625 21.777344 L 6.007812 21.789062 L 5.863281 21.851562 L 5.882812 22.039062 L 5.929688 21.917969 L 5.96875 21.929688 L 5.910156 22.109375 L 6.042969 21.996094 L 6.070312 22.0625 L 5.910156 22.246094 L 5.855469 22.230469 L 5.835938 22.152344 L 5.78125 22.117188 L 5.726562 22.164062 L 5.613281 22.089844 L 5.488281 22.179688 L 5.414062 22.265625 L 5.273438 22.351562 L 5.078125 22.347656 L 5.058594 22.257812 L 5.214844 22.230469 L 5.214844 22.179688 L 5.121094 22.152344 L 5.160156 22.050781 L 5.253906 21.890625 L 5.253906 21.816406 L 5.261719 21.78125 L 5.441406 21.6875 L 5.480469 21.742188 L 5.59375 21.742188 L 5.539062 21.636719 L 5.386719 21.621094 L 5.179688 21.734375 L 5.078125 21.875 L 5.003906 21.984375 L 4.960938 22.078125 L 4.785156 22.136719 L 4.65625 22.246094 L 4.644531 22.3125 L 4.738281 22.351562 L 4.773438 22.441406 L 4.65625 22.574219 L 4.390625 22.746094 L 4.070312 22.921875 L 3.984375 22.96875 L 3.761719 23.015625 L 3.542969 23.109375 L 3.613281 23.164062 L 3.554688 23.222656 L 3.535156 23.269531 L 3.421875 23.230469 L 3.289062 23.238281 L 3.253906 23.332031 L 3.214844 23.332031 L 3.226562 23.230469 L 3.082031 23.285156 L 2.960938 23.324219 L 2.820312 23.269531 L 2.699219 23.351562 L 2.566406 23.351562 L 2.476562 23.40625 L 2.410156 23.4375 L 2.324219 23.425781 L 2.21875 23.378906 L 2.125 23.40625 L 2.085938 23.445312 L 2.015625 23.398438 L 2.015625 23.316406 L 2.144531 23.265625 L 2.40625 23.289062 L 2.585938 23.222656 L 2.671875 23.136719 L 2.792969 23.109375 L 2.867188 23.078125 L 2.980469 23.082031 L 3.046875 23.136719 L 3.085938 23.125 L 3.179688 23.007812 L 3.308594 22.96875 L 3.449219 22.941406 L 3.5 22.929688 L 3.527344 22.949219 L 3.5625 22.949219 L 3.613281 22.796875 L 3.78125 22.734375 L 3.863281 22.582031 L 3.957031 22.394531 L 4.023438 22.332031 L 4.035156 22.226562 L 3.96875 22.277344 L 3.828125 22.304688 L 3.800781 22.207031 L 3.75 22.191406 L 3.707031 22.230469 L 3.703125 22.351562 L 3.640625 22.347656 L 3.582031 22.105469 L 3.527344 22.160156 L 3.480469 22.136719 L 3.46875 22.058594 L 3.300781 22.066406 L 3.214844 22.113281 L 3.105469 22.097656 L 3.167969 22.039062 L 3.1875 21.929688 L 3.160156 21.851562 L 3.222656 21.808594 L 3.273438 21.804688 L 3.246094 21.730469 L 3.246094 21.546875 L 3.207031 21.507812 L 3.175781 21.566406 L 2.917969 21.566406 L 2.859375 21.515625 L 2.832031 21.355469 L 2.746094 21.207031 L 2.746094 21.164062 L 2.832031 21.132812 L 2.839844 21.046875 L 2.886719 21 L 2.851562 20.976562 L 2.800781 21 L 2.753906 20.882812 L 2.792969 20.675781 L 2.980469 20.542969 L 3.085938 20.476562 L 3.167969 20.320312 L 3.28125 20.269531 L 3.386719 20.316406 L 3.402344 20.414062 L 3.5 20.402344 L 3.636719 20.300781 L 3.703125 20.328125 L 3.742188 20.355469 L 3.808594 20.355469 L 3.902344 20.300781 L 3.9375 20.121094 C 3.9375 20.121094 3.949219 20 3.976562 19.980469 C 4.003906 19.960938 4.015625 19.9375 4.015625 19.9375 L 3.96875 19.859375 L 3.863281 19.890625 L 3.730469 19.925781 L 3.648438 19.90625 L 3.5 19.832031 L 3.292969 19.824219 L 3.148438 19.671875 L 3.167969 19.511719 L 3.195312 19.410156 L 3.105469 19.335938 L 3.027344 19.183594 L 3.046875 19.148438 L 3.328125 19.128906 L 3.414062 19.128906 L 3.453125 19.167969 L 3.480469 19.167969 L 3.476562 19.101562 L 3.636719 19.074219 L 3.742188 19.089844 L 3.800781 19.136719 L 3.742188 19.222656 L 3.722656 19.28125 L 3.835938 19.347656 L 4.042969 19.421875 L 4.117188 19.382812 L 4.023438 19.203125 L 3.984375 19.066406 L 4.023438 19.035156 L 3.882812 18.953125 L 3.863281 18.90625 L 3.882812 18.839844 L 3.847656 18.679688 L 3.730469 18.484375 L 3.628906 18.3125 L 3.75 18.230469 L 3.882812 18.230469 L 3.957031 18.257812 L 4.128906 18.25 L 4.285156 18.101562 L 4.332031 17.976562 L 4.484375 17.875 L 4.550781 17.914062 L 4.664062 17.886719 L 4.820312 17.800781 L 4.867188 17.792969 L 4.90625 17.828125 L 5.09375 17.820312 L 5.207031 17.695312 L 5.253906 17.695312 L 5.398438 17.792969 L 5.480469 17.882812 L 5.460938 17.929688 L 5.488281 17.976562 L 5.554688 17.910156 L 5.714844 17.921875 L 5.726562 18.078125 L 5.808594 18.136719 L 6.101562 18.164062 L 6.363281 18.335938 L 6.421875 18.296875 L 6.636719 18.40625 L 6.722656 18.378906 L 6.804688 18.34375 L 7.003906 18.425781 Z M 2.425781 19.746094 L 2.511719 19.964844 L 2.503906 20.007812 L 2.386719 19.992188 L 2.3125 19.824219 L 2.238281 19.765625 L 2.136719 19.765625 L 2.132812 19.65625 L 2.203125 19.558594 L 2.25 19.65625 L 2.3125 19.71875 Z M 2.316406 21.132812 L 2.472656 21.164062 L 2.625 21.207031 L 2.660156 21.246094 L 2.59375 21.402344 L 2.464844 21.394531 L 2.324219 21.246094 Z M 1.460938 20.550781 L 1.507812 20.65625 L 1.554688 20.722656 L 1.507812 20.757812 L 1.421875 20.628906 L 1.421875 20.550781 Z M 0.894531 23.578125 L 1.035156 23.484375 L 1.175781 23.445312 L 1.28125 23.457031 L 1.300781 23.523438 L 1.382812 23.546875 L 1.460938 23.464844 L 1.449219 23.398438 L 1.5625 23.371094 L 1.683594 23.476562 L 1.636719 23.550781 L 1.457031 23.597656 L 1.34375 23.578125 L 1.1875 23.53125 L 1.007812 23.59375 L 0.941406 23.605469 Z M 2.917969 23.390625 L 2.988281 23.472656 L 3.074219 23.40625 L 3.011719 23.351562 Z M 3.039062 23.519531 L 3.085938 23.425781 L 3.175781 23.4375 L 3.140625 23.519531 Z M 4.015625 23.4375 L 4.078125 23.511719 L 4.117188 23.464844 L 4.082031 23.382812 Z M 4.378906 22.921875 L 4.425781 23.164062 L 4.542969 23.195312 L 4.75 23.074219 L 4.933594 22.96875 L 4.867188 22.867188 L 4.886719 22.769531 L 4.796875 22.820312 L 4.679688 22.789062 L 4.746094 22.742188 L 4.824219 22.773438 L 4.984375 22.699219 L 5.003906 22.640625 L 4.90625 22.605469 L 4.9375 22.527344 L 4.824219 22.605469 L 4.632812 22.753906 L 4.429688 22.875 Z M 6.128906 22.097656 L 6.230469 22.039062 L 6.1875 21.964844 L 6.117188 22.003906 Z M 6.128906 22.097656 "/>
<path style=" stroke:none;fill-rule:nonzero;fill:rgb(100%,60%,60%);fill-opacity:1;" d="M 31.890625 18.207031 L 31.984375 18.511719 L 32.136719 18.914062 L 32.359375 19.304688 L 32.511719 19.5625 L 32.710938 19.792969 L 32.878906 19.945312 L 32.945312 20.066406 L 32.898438 20.121094 L 32.867188 20.175781 L 32.984375 20.480469 L 33.105469 20.601562 L 33.214844 20.824219 L 33.359375 21.066406 L 33.546875 21.40625 L 33.601562 21.722656 L 33.621094 22.21875 L 33.648438 22.292969 L 33.632812 22.433594 L 33.535156 22.488281 L 33.546875 22.566406 L 33.519531 22.648438 L 33.535156 22.746094 L 33.554688 22.828125 L 33.441406 22.960938 L 33.3125 23.023438 L 33.152344 23.027344 L 33.09375 23.097656 L 32.992188 23.136719 L 32.9375 23.117188 L 32.890625 23.074219 L 32.878906 22.957031 L 32.84375 22.816406 L 32.707031 22.601562 L 32.558594 22.507812 L 32.398438 22.492188 L 32.363281 22.546875 L 32.238281 22.367188 L 32.210938 22.21875 L 32.101562 22.050781 L 32.03125 22.003906 L 31.964844 22.089844 L 31.890625 22.078125 L 31.800781 21.871094 L 31.683594 21.707031 L 31.5625 21.488281 L 31.453125 21.359375 L 31.308594 21.207031 L 31.394531 21.105469 L 31.527344 20.878906 L 31.523438 20.8125 L 31.335938 20.769531 L 31.269531 20.796875 L 31.28125 20.824219 L 31.386719 20.863281 L 31.328125 21.050781 L 31.292969 21.070312 L 31.222656 20.90625 L 31.167969 20.703125 L 31.152344 20.589844 L 31.214844 20.394531 L 31.214844 20 L 31.085938 19.84375 L 31.035156 19.71875 L 30.820312 19.664062 L 30.738281 19.636719 L 30.671875 19.53125 L 30.53125 19.464844 L 30.484375 19.324219 L 30.371094 19.28125 L 30.273438 19.128906 L 30.097656 19.066406 L 29.976562 19.007812 L 29.871094 19.007812 L 29.703125 19.042969 L 29.695312 19.121094 L 29.730469 19.160156 L 29.710938 19.207031 L 29.582031 19.203125 L 29.429688 19.347656 L 29.28125 19.429688 L 29.121094 19.429688 L 28.988281 19.484375 L 28.972656 19.371094 L 28.90625 19.289062 L 28.789062 19.242188 L 28.71875 19.183594 L 28.386719 19.019531 L 28.070312 18.949219 L 27.890625 18.972656 L 27.644531 18.996094 L 27.398438 19.082031 L 27.253906 19.105469 L 27.242188 18.773438 L 27.136719 18.691406 L 27.0625 18.617188 L 27.074219 18.492188 L 27.496094 18.4375 L 28.554688 18.316406 L 28.835938 18.289062 L 29.058594 18.300781 L 29.167969 18.464844 L 29.226562 18.523438 L 29.5625 18.542969 L 30.007812 18.519531 L 30.898438 18.464844 L 31.125 18.4375 L 31.3125 18.4375 L 31.320312 18.558594 L 31.476562 18.589844 L 31.492188 18.390625 L 31.425781 18.203125 L 31.464844 18.175781 L 31.675781 18.191406 Z M 32.40625 23.695312 L 32.507812 23.667969 L 32.5625 23.660156 L 32.621094 23.5625 L 32.71875 23.496094 L 32.773438 23.515625 L 32.84375 23.527344 L 32.859375 23.570312 L 32.714844 23.621094 L 32.542969 23.683594 L 32.445312 23.734375 Z M 32.964844 23.488281 L 33.015625 23.53125 L 33.128906 23.445312 L 33.351562 23.269531 L 33.503906 23.109375 L 33.609375 22.835938 L 33.648438 22.765625 L 33.65625 22.625 L 33.625 22.644531 L 33.585938 22.761719 L 33.523438 22.953125 L 33.390625 23.167969 L 33.210938 23.34375 L 33.070312 23.425781 Z M 32.964844 23.488281 "/>
<path style=" stroke:none;fill-rule:nonzero;fill:rgb(83.529412%,18.823529%,20.392157%);fill-opacity:1;" d="M 32.128906 16.855469 L 32.058594 16.898438 L 31.949219 16.84375 L 31.921875 16.753906 L 31.871094 16.609375 L 31.777344 16.519531 L 31.667969 16.496094 L 31.601562 16.292969 L 31.488281 16.046875 L 31.316406 15.964844 L 31.226562 15.882812 L 31.175781 15.777344 L 31.085938 15.695312 L 30.992188 15.644531 L 30.898438 15.523438 L 30.773438 15.429688 L 30.585938 15.355469 L 30.566406 15.292969 L 30.464844 15.175781 L 30.445312 15.113281 L 30.304688 14.898438 L 30.164062 14.90625 L 29.996094 14.804688 L 29.945312 14.75 L 29.929688 14.679688 L 29.964844 14.597656 L 30.058594 14.558594 L 30.042969 14.46875 L 30.296875 14.363281 L 30.671875 14.175781 L 30.972656 14.140625 L 31.65625 14.121094 L 31.75 14.203125 L 31.816406 14.335938 L 31.996094 14.316406 L 32.519531 14.257812 L 32.636719 14.289062 L 33.160156 14.605469 L 33.578125 14.941406 L 33.355469 15.167969 L 33.246094 15.421875 L 33.226562 15.683594 L 33.160156 15.71875 L 33.113281 15.832031 L 33.011719 15.859375 L 32.925781 16.003906 L 32.8125 16.121094 L 32.71875 16.261719 L 32.652344 16.292969 L 32.503906 16.433594 L 32.382812 16.441406 L 32.425781 16.574219 L 32.21875 16.804688 Z M 32.128906 16.855469 "/>
<path style=" stroke:none;fill-rule:nonzero;fill:rgb(83.529412%,18.823529%,20.392157%);fill-opacity:1;" d="M 29.167969 14.578125 L 28.96875 14.609375 L 28.621094 14.65625 L 28.265625 14.695312 L 28.265625 14.785156 L 28.273438 14.871094 L 28.300781 15.011719 L 28.441406 15.34375 L 28.539062 15.75 L 28.601562 16.003906 L 28.667969 16.207031 L 28.726562 16.496094 L 28.8125 16.757812 L 28.921875 16.898438 L 28.941406 17.039062 L 29.019531 17.070312 L 29.027344 17.160156 L 28.953125 17.359375 L 28.933594 17.492188 L 28.929688 17.574219 L 28.996094 17.753906 L 29.007812 17.976562 L 28.976562 18.078125 L 29 18.109375 L 29.0625 18.144531 L 29.089844 18.285156 L 29.195312 18.445312 L 29.253906 18.503906 L 29.582031 18.511719 L 30.03125 18.484375 L 30.921875 18.433594 L 31.144531 18.402344 L 31.335938 18.40625 L 31.339844 18.527344 L 31.449219 18.558594 L 31.460938 18.378906 L 31.394531 18.191406 L 31.441406 18.125 L 31.683594 18.15625 L 31.886719 18.171875 L 31.855469 17.910156 L 31.949219 17.492188 L 32.011719 17.320312 L 31.988281 17.210938 L 32.128906 16.953125 L 32.105469 16.898438 L 32.027344 16.925781 L 31.921875 16.871094 L 31.894531 16.785156 L 31.839844 16.636719 L 31.746094 16.550781 L 31.640625 16.523438 L 31.574219 16.324219 L 31.453125 16.058594 L 31.277344 15.980469 L 31.191406 15.898438 L 31.136719 15.792969 L 31.050781 15.710938 L 30.957031 15.660156 L 30.863281 15.539062 L 30.738281 15.445312 L 30.550781 15.371094 L 30.527344 15.308594 L 30.429688 15.1875 L 30.410156 15.128906 L 30.269531 14.925781 L 30.128906 14.933594 L 29.957031 14.804688 L 29.902344 14.753906 L 29.890625 14.679688 L 29.925781 14.597656 L 30.019531 14.546875 L 29.972656 14.496094 L 29.976562 14.484375 L 29.738281 14.523438 L 29.449219 14.558594 Z M 29.167969 14.578125 "/>
<path style=" stroke:none;fill-rule:nonzero;fill:rgb(83.529412%,18.823529%,20.392157%);fill-opacity:1;" d="M 26.519531 19.089844 L 26.453125 18.457031 L 26.339844 17.679688 L 26.347656 17.097656 L 26.378906 15.8125 L 26.375 15.121094 L 26.378906 14.855469 L 26.703125 14.839844 L 27.851562 14.730469 L 28.21875 14.703125 L 28.214844 14.792969 L 28.222656 14.882812 L 28.246094 15.023438 L 28.386719 15.351562 L 28.488281 15.761719 L 28.546875 16.015625 L 28.617188 16.214844 L 28.675781 16.503906 L 28.761719 16.765625 L 28.871094 16.90625 L 28.890625 17.046875 L 28.96875 17.082031 L 28.976562 17.167969 L 28.902344 17.367188 L 28.882812 17.503906 L 28.875 17.582031 L 28.941406 17.765625 L 28.957031 17.984375 L 28.921875 18.085938 L 28.949219 18.121094 L 29.011719 18.152344 L 29.054688 18.257812 L 28.792969 18.257812 L 28.511719 18.285156 L 27.453125 18.40625 L 27.023438 18.464844 L 27.019531 18.621094 L 27.09375 18.691406 L 27.199219 18.773438 L 27.226562 19.101562 L 26.996094 19.210938 L 26.882812 19.195312 L 26.996094 19.117188 L 26.996094 19.074219 L 26.867188 18.828125 L 26.773438 18.800781 L 26.714844 18.980469 L 26.660156 19.09375 L 26.632812 19.089844 Z M 26.519531 19.089844 "/>
<path style=" stroke:none;fill-rule:nonzero;fill:rgb(83.529412%,18.823529%,20.392157%);fill-opacity:1;" d="M 35.0625 12.109375 L 35.132812 12.304688 L 35.28125 12.574219 L 35.378906 12.675781 L 35.40625 12.769531 L 35.304688 12.773438 L 35.339844 12.800781 L 35.328125 12.976562 L 35.21875 13.03125 L 35.191406 13.117188 L 35.140625 13.238281 L 34.984375 13.304688 L 34.886719 13.289062 L 34.824219 13.285156 L 34.757812 13.230469 L 34.769531 13.285156 L 34.769531 13.324219 L 34.851562 13.324219 L 34.886719 13.378906 L 34.804688 13.640625 L 34.976562 13.640625 L 35.003906 13.707031 L 35.097656 13.613281 L 35.152344 13.59375 L 35.070312 13.738281 L 34.945312 13.941406 L 34.890625 13.941406 L 34.84375 13.921875 L 34.730469 13.949219 L 34.515625 14.046875 L 34.25 14.269531 L 34.109375 14.464844 L 34.027344 14.730469 L 34.007812 14.832031 L 33.816406 14.851562 L 33.589844 14.90625 L 33.179688 14.566406 L 32.65625 14.253906 L 32.535156 14.21875 L 32.015625 14.28125 L 31.839844 14.3125 L 31.769531 14.175781 L 31.648438 14.089844 L 30.964844 14.109375 L 30.664062 14.144531 L 30.292969 14.332031 L 30.039062 14.4375 L 29.96875 14.449219 L 29.730469 14.492188 L 29.441406 14.523438 L 29.160156 14.542969 L 29.183594 14.375 L 29.253906 14.316406 L 29.371094 14.289062 L 29.394531 14.136719 L 29.570312 14.019531 L 29.730469 13.960938 L 29.902344 13.8125 L 30.085938 13.726562 L 30.113281 13.597656 L 30.273438 13.4375 L 30.296875 13.429688 C 30.296875 13.429688 30.296875 13.480469 30.332031 13.480469 C 30.367188 13.480469 30.414062 13.492188 30.414062 13.492188 L 30.503906 13.34375 L 30.59375 13.316406 L 30.6875 13.332031 L 30.753906 13.183594 L 30.875 13.078125 L 30.894531 12.988281 L 30.894531 12.824219 L 31.082031 12.855469 L 31.375 12.800781 L 32.03125 12.722656 L 32.738281 12.613281 L 33.5625 12.449219 L 34.378906 12.277344 L 34.847656 12.160156 Z M 35.222656 13.476562 L 35.328125 13.375 L 35.460938 13.265625 L 35.523438 13.242188 L 35.53125 13.15625 L 35.503906 12.902344 L 35.441406 12.804688 L 35.417969 12.726562 L 35.445312 12.71875 L 35.558594 12.945312 L 35.578125 13.128906 L 35.570312 13.269531 L 35.429688 13.335938 L 35.3125 13.433594 L 35.265625 13.484375 Z M 35.222656 13.476562 "/>
<path style=" stroke:none;fill-rule:nonzero;fill:rgb(82.745098%,82.745098%,82.745098%);fill-opacity:1;" d="M 29.476562 13.03125 L 27.328125 13.238281 L 26.679688 13.3125 L 26.488281 13.332031 L 26.328125 13.332031 L 26.328125 13.492188 L 25.980469 13.511719 L 25.691406 13.539062 L 25.234375 13.539062 L 25.222656 13.78125 L 25.132812 14.042969 L 25.09375 14.167969 L 25.035156 14.351562 L 25.023438 14.457031 L 24.855469 14.550781 L 24.917969 14.699219 L 24.875 14.878906 L 24.835938 14.910156 L 25.136719 14.902344 L 26.132812 14.824219 L 26.351562 14.816406 L 26.6875 14.796875 L 27.835938 14.691406 L 28.257812 14.65625 L 28.605469 14.617188 L 28.953125 14.570312 L 29.15625 14.535156 L 29.148438 14.347656 L 29.222656 14.289062 L 29.335938 14.261719 L 29.363281 14.105469 L 29.535156 13.992188 L 29.695312 13.933594 L 29.871094 13.785156 L 30.050781 13.699219 L 30.085938 13.550781 L 30.265625 13.390625 L 30.292969 13.382812 C 30.292969 13.382812 30.292969 13.429688 30.328125 13.429688 C 30.359375 13.429688 30.40625 13.445312 30.40625 13.445312 L 30.5 13.296875 L 30.585938 13.269531 L 30.679688 13.285156 L 30.75 13.136719 L 30.835938 13.042969 L 30.859375 13.003906 L 30.867188 12.839844 L 30.804688 12.828125 L 30.707031 12.910156 L 30.378906 12.914062 L 29.882812 12.992188 Z M 29.476562 13.03125 "/>
<path style=" stroke:none;fill-rule:nonzero;fill:rgb(82.745098%,82.745098%,82.745098%);fill-opacity:1;" d="M 36.796875 7.191406 L 36.777344 7.015625 L 36.742188 6.835938 L 36.671875 6.589844 L 36.910156 6.527344 L 36.976562 6.574219 L 37.117188 6.753906 L 37.238281 6.941406 L 37.117188 7.003906 L 37.0625 6.996094 L 37.019531 7.070312 L 36.917969 7.152344 Z M 36.796875 7.191406 "/>
<path style=" stroke:none;fill-rule:nonzero;fill:rgb(18.823529%,44.705882%,68.627451%);fill-opacity:1;" d="M 36.761719 7.199219 L 36.734375 7.027344 L 36.703125 6.847656 L 36.632812 6.597656 L 36.460938 6.636719 L 35.558594 6.832031 L 35.585938 6.96875 L 35.648438 7.273438 L 35.648438 7.605469 L 35.601562 7.699219 L 35.675781 7.789062 L 35.882812 7.648438 L 36.027344 7.511719 L 36.109375 7.425781 L 36.140625 7.453125 L 36.253906 7.394531 L 36.46875 7.347656 Z M 36.761719 7.199219 "/>
<path style=" stroke:none;fill-rule:nonzero;fill:rgb(82.745098%,82.745098%,82.745098%);fill-opacity:1;" d="M 37.867188 6.945312 L 37.957031 6.914062 L 37.976562 6.84375 L 38.019531 6.847656 L 38.0625 6.945312 L 38.011719 6.964844 L 37.847656 6.96875 Z M 37.480469 6.976562 L 37.574219 6.867188 L 37.640625 6.867188 L 37.71875 6.929688 L 37.617188 6.972656 L 37.527344 7.015625 Z M 36.042969 6.066406 L 36.765625 5.890625 L 36.855469 5.863281 L 36.945312 5.730469 L 37.097656 5.660156 L 37.21875 5.84375 L 37.117188 6.058594 L 37.105469 6.121094 L 37.183594 6.226562 L 37.230469 6.191406 L 37.304688 6.191406 L 37.398438 6.300781 L 37.558594 6.546875 L 37.707031 6.566406 L 37.800781 6.527344 L 37.875 6.453125 L 37.839844 6.339844 L 37.753906 6.273438 L 37.691406 6.308594 L 37.652344 6.253906 L 37.671875 6.234375 L 37.761719 6.226562 L 37.832031 6.261719 L 37.914062 6.359375 L 37.953125 6.480469 L 37.96875 6.582031 L 37.792969 6.640625 L 37.632812 6.722656 L 37.472656 6.910156 L 37.390625 6.96875 L 37.390625 6.929688 L 37.492188 6.871094 L 37.511719 6.796875 L 37.480469 6.667969 L 37.359375 6.730469 L 37.324219 6.789062 L 37.34375 6.882812 L 37.257812 6.925781 L 37.144531 6.738281 L 37.003906 6.554688 L 36.921875 6.480469 L 36.648438 6.558594 L 36.4375 6.601562 L 35.535156 6.800781 L 35.519531 6.59375 L 35.546875 6.15625 L 35.761719 6.121094 Z M 36.042969 6.066406 "/>
<path style=" stroke:none;fill-rule:nonzero;fill:rgb(82.745098%,82.745098%,82.745098%);fill-opacity:1;" d="M 38.828125 2.941406 L 38.910156 3.03125 L 39.003906 3.183594 L 39.003906 3.265625 L 38.917969 3.457031 L 38.835938 3.484375 L 38.695312 3.613281 L 38.496094 3.839844 C 38.496094 3.839844 38.46875 3.839844 38.441406 3.839844 C 38.414062 3.839844 38.402344 3.753906 38.402344 3.753906 L 38.328125 3.761719 L 38.289062 3.820312 L 38.1875 3.878906 L 38.148438 3.941406 L 38.214844 4 L 38.195312 4.027344 L 38.175781 4.140625 L 38.09375 4.136719 L 38.09375 4.066406 L 38.082031 4.015625 L 38.019531 4.027344 L 37.945312 3.894531 L 37.859375 3.949219 L 37.914062 4.007812 L 37.925781 4.054688 L 37.894531 4.109375 L 37.90625 4.234375 L 37.914062 4.304688 L 37.847656 4.410156 L 37.726562 4.429688 L 37.714844 4.550781 L 37.492188 4.679688 L 37.4375 4.699219 L 37.371094 4.636719 L 37.246094 4.785156 L 37.285156 4.917969 L 37.226562 4.972656 L 37.21875 5.152344 L 37.171875 5.414062 L 37.070312 5.367188 L 37.050781 5.238281 L 36.890625 5.191406 L 36.875 5.078125 L 36.574219 4.105469 L 36.402344 3.539062 L 36.460938 3.535156 L 36.523438 3.550781 L 36.523438 3.445312 L 36.554688 3.21875 L 36.664062 3.023438 L 36.722656 2.855469 L 36.644531 2.753906 L 36.644531 2.507812 L 36.675781 2.464844 L 36.710938 2.351562 L 36.703125 2.292969 L 36.695312 2.089844 L 36.769531 1.890625 L 36.890625 1.519531 L 36.976562 1.347656 L 37.03125 1.347656 L 37.085938 1.355469 L 37.085938 1.402344 L 37.136719 1.496094 L 37.253906 1.519531 L 37.285156 1.488281 L 37.285156 1.449219 L 37.453125 1.328125 L 37.527344 1.253906 L 37.585938 1.261719 L 37.832031 1.359375 L 37.914062 1.402344 L 38.289062 2.640625 L 38.535156 2.640625 L 38.570312 2.722656 L 38.574219 2.921875 L 38.695312 3.015625 L 38.730469 3.015625 L 38.734375 2.996094 L 38.714844 2.949219 Z M 37.964844 4.191406 L 38.027344 4.128906 L 38.085938 4.171875 L 38.109375 4.273438 L 38.039062 4.308594 Z M 38.242188 3.949219 L 38.316406 4.023438 C 38.316406 4.023438 38.367188 4.027344 38.367188 4.015625 C 38.367188 4 38.378906 3.929688 38.378906 3.929688 L 38.414062 3.898438 L 38.382812 3.824219 L 38.296875 3.855469 Z M 38.242188 3.949219 "/>
<path style=" stroke:none;fill-rule:nonzero;fill:rgb(83.529412%,18.823529%,20.392157%);fill-opacity:1;" d="M 37.074219 5.640625 L 37.109375 5.597656 L 37.15625 5.460938 L 37.050781 5.421875 L 37.03125 5.292969 L 36.871094 5.246094 L 36.855469 5.132812 L 36.554688 4.160156 L 36.367188 3.558594 L 36.328125 3.558594 L 36.300781 3.625 L 36.277344 3.605469 L 36.234375 3.566406 L 36.175781 3.644531 L 36.171875 3.855469 L 36.1875 4.089844 L 36.265625 4.203125 L 36.265625 4.371094 L 36.113281 4.582031 L 36.003906 4.628906 L 36.003906 4.675781 L 36.050781 4.75 L 36.050781 5.105469 L 36.019531 5.484375 L 36.011719 5.6875 L 36.050781 5.742188 L 36.046875 5.929688 L 36.027344 6 L 36.085938 6.039062 L 36.765625 5.84375 L 36.859375 5.816406 L 36.921875 5.710938 Z M 37.074219 5.640625 "/>
<path style=" stroke:none;fill-rule:nonzero;fill:rgb(18.823529%,44.705882%,68.627451%);fill-opacity:1;" d="M 35.566406 6.109375 L 35.535156 5.875 L 35.433594 5.460938 L 35.410156 5.449219 L 35.289062 5.394531 L 35.320312 5.273438 L 35.289062 5.1875 L 35.175781 4.996094 L 35.214844 4.832031 L 35.183594 4.621094 L 35.082031 4.351562 L 35.050781 4.148438 L 36.136719 3.867188 L 36.148438 4.109375 L 36.230469 4.222656 L 36.230469 4.390625 L 36.074219 4.558594 L 35.96875 4.605469 L 35.96875 4.652344 L 36.015625 4.726562 L 36.015625 5.082031 L 35.980469 5.460938 L 35.972656 5.664062 L 36.015625 5.71875 L 36.007812 5.90625 L 35.988281 5.976562 L 36.015625 6.042969 L 35.726562 6.101562 Z M 35.566406 6.109375 "/>
<path style=" stroke:none;fill-rule:nonzero;fill:rgb(18.823529%,44.705882%,68.627451%);fill-opacity:1;" d="M 34.917969 7.589844 L 34.871094 7.550781 L 34.761719 7.542969 L 34.667969 7.460938 L 34.601562 7.207031 L 34.460938 7.210938 L 34.359375 7.101562 L 33.554688 7.28125 L 31.777344 7.644531 L 31.464844 7.695312 L 31.4375 7.425781 L 31.496094 7.378906 L 31.546875 7.332031 L 31.589844 7.265625 L 31.664062 7.21875 L 31.742188 7.144531 L 31.761719 7.078125 L 31.847656 6.964844 L 31.894531 6.921875 L 31.890625 6.882812 L 31.835938 6.757812 L 31.761719 6.75 L 31.683594 6.496094 L 31.804688 6.421875 L 31.984375 6.359375 L 32.152344 6.308594 L 32.285156 6.285156 L 32.542969 6.28125 L 32.625 6.332031 L 32.691406 6.339844 L 32.777344 6.285156 L 32.886719 6.238281 L 33.101562 6.21875 L 33.1875 6.144531 L 33.261719 6.011719 L 33.328125 5.933594 L 33.414062 5.933594 L 33.496094 5.886719 L 33.5 5.789062 L 33.441406 5.703125 L 33.425781 5.644531 L 33.472656 5.554688 L 33.472656 5.496094 L 33.402344 5.496094 L 33.328125 5.460938 L 33.292969 5.414062 L 33.285156 5.308594 L 33.527344 5.082031 L 33.554688 5.046875 L 33.613281 4.925781 L 33.734375 4.738281 L 33.847656 4.585938 L 33.933594 4.484375 L 34.035156 4.410156 L 34.164062 4.355469 L 34.390625 4.304688 L 34.523438 4.308594 L 34.710938 4.25 L 35.023438 4.164062 L 35.046875 4.371094 L 35.144531 4.636719 L 35.179688 4.851562 L 35.140625 5.011719 L 35.246094 5.199219 L 35.28125 5.289062 L 35.246094 5.410156 L 35.367188 5.460938 L 35.394531 5.476562 L 35.519531 5.933594 L 35.496094 6.140625 L 35.476562 6.589844 L 35.511719 6.820312 L 35.542969 6.964844 L 35.605469 7.265625 L 35.605469 7.601562 L 35.558594 7.695312 L 35.632812 7.777344 L 35.667969 7.847656 L 35.585938 7.921875 L 35.601562 7.976562 L 35.652344 7.960938 L 35.714844 7.910156 L 35.808594 7.800781 L 35.855469 7.773438 L 35.921875 7.800781 L 36.015625 7.808594 L 36.34375 7.648438 L 36.460938 7.535156 L 36.515625 7.472656 L 36.691406 7.539062 L 36.550781 7.6875 L 36.390625 7.808594 L 36.09375 8.03125 L 35.988281 8.070312 L 35.746094 8.148438 L 35.582031 8.195312 L 35.53125 8.175781 L 35.523438 8.023438 L 35.542969 7.910156 L 35.535156 7.820312 L 35.417969 7.75 L 35.230469 7.710938 L 35.070312 7.664062 Z M 34.917969 7.589844 "/>
<path style=" stroke:none;fill-rule:nonzero;fill:rgb(82.745098%,82.745098%,82.745098%);fill-opacity:1;" d="M 34.898438 7.628906 L 34.8125 7.726562 L 34.8125 7.855469 L 34.730469 7.984375 L 34.722656 8.050781 L 34.777344 8.101562 L 34.769531 8.203125 L 34.675781 8.25 L 34.710938 8.363281 L 34.71875 8.410156 L 34.832031 8.425781 L 34.871094 8.53125 L 35.019531 8.632812 L 35.117188 8.699219 L 35.117188 8.734375 L 34.984375 8.859375 L 34.917969 8.953125 L 34.859375 9.066406 L 34.765625 9.121094 L 34.714844 9.152344 L 34.703125 9.203125 L 34.679688 9.308594 L 34.722656 9.402344 L 34.859375 9.523438 L 35.058594 9.617188 L 35.226562 9.644531 L 35.234375 9.703125 L 35.199219 9.746094 L 35.210938 9.859375 L 35.246094 9.859375 L 35.332031 9.757812 L 35.367188 9.558594 L 35.480469 9.390625 L 35.605469 9.121094 L 35.652344 8.894531 L 35.628906 8.847656 L 35.621094 8.457031 L 35.554688 8.316406 L 35.507812 8.351562 L 35.394531 8.363281 L 35.375 8.34375 L 35.421875 8.304688 L 35.507812 8.222656 L 35.507812 8.179688 L 35.492188 8.035156 L 35.511719 7.921875 L 35.507812 7.835938 L 35.398438 7.789062 L 35.210938 7.746094 L 35.050781 7.699219 Z M 34.898438 7.628906 "/>
<path style=" stroke:none;fill-rule:nonzero;fill:rgb(83.529412%,18.823529%,20.392157%);fill-opacity:1;" d="M 34.652344 9.125 L 34.699219 9.097656 L 34.792969 9.074219 L 34.851562 8.960938 L 34.917969 8.863281 L 35.054688 8.738281 L 35.054688 8.703125 L 34.953125 8.636719 L 34.804688 8.535156 L 34.765625 8.429688 L 34.652344 8.417969 L 34.644531 8.371094 L 34.613281 8.253906 L 34.707031 8.207031 L 34.710938 8.109375 L 34.660156 8.054688 L 34.664062 7.988281 L 34.746094 7.859375 L 34.746094 7.734375 L 34.84375 7.632812 L 34.851562 7.585938 L 34.746094 7.582031 L 34.652344 7.5 L 34.550781 7.277344 L 34.425781 7.238281 L 34.328125 7.152344 L 33.5625 7.320312 L 31.78125 7.679688 L 31.414062 7.742188 L 31.394531 7.449219 L 31.167969 7.679688 L 31.113281 7.699219 L 30.941406 7.824219 L 31.058594 8.617188 L 31.164062 9.023438 L 31.3125 9.820312 L 31.445312 9.792969 L 31.941406 9.730469 L 33.507812 9.414062 L 34.125 9.296875 L 34.46875 9.230469 L 34.476562 9.21875 L 34.566406 9.152344 Z M 34.652344 9.125 "/>
<path style=" stroke:none;fill-rule:nonzero;fill:rgb(82.745098%,82.745098%,82.745098%);fill-opacity:1;" d="M 34.660156 9.289062 L 34.683594 9.203125 L 34.683594 9.152344 L 34.632812 9.148438 L 34.542969 9.214844 L 34.484375 9.277344 L 34.542969 9.449219 L 34.636719 9.683594 L 34.722656 10.085938 L 34.792969 10.347656 L 35 10.339844 L 35.253906 10.292969 L 35.160156 9.988281 L 35.117188 10.007812 L 34.972656 9.90625 L 34.898438 9.710938 L 34.816406 9.5625 L 34.722656 9.523438 L 34.636719 9.375 Z M 34.660156 9.289062 "/>
<path style=" stroke:none;fill-rule:nonzero;fill:rgb(60%,81.176471%,92.54902%);fill-opacity:1;" d="M 35.261719 10.320312 L 35.007812 10.375 L 34.769531 10.382812 L 34.691406 10.085938 L 34.605469 9.683594 L 34.511719 9.449219 L 34.457031 9.269531 L 34.148438 9.335938 L 33.53125 9.453125 L 31.984375 9.765625 L 32.03125 9.972656 L 32.070312 10.207031 L 32.082031 10.195312 L 32.171875 10.09375 L 32.265625 9.984375 L 32.363281 9.960938 L 32.425781 9.898438 L 32.496094 9.792969 L 32.550781 9.820312 L 32.671875 9.804688 L 32.777344 9.71875 L 32.863281 9.65625 L 32.9375 9.636719 L 33.007812 9.683594 L 33.125 9.746094 L 33.207031 9.820312 L 33.257812 9.882812 L 33.425781 9.953125 L 33.425781 10.074219 L 33.65625 10.128906 L 33.703125 10.148438 L 33.761719 10.066406 L 33.878906 10.148438 L 33.828125 10.25 L 33.796875 10.414062 L 33.722656 10.523438 L 33.722656 10.609375 L 33.75 10.683594 L 33.957031 10.738281 L 34.136719 10.738281 L 34.261719 10.777344 L 34.351562 10.789062 L 34.390625 10.703125 L 34.328125 10.617188 L 34.328125 10.542969 L 34.230469 10.457031 L 34.144531 10.226562 L 34.195312 10.007812 L 34.191406 9.917969 L 34.136719 9.867188 C 34.136719 9.867188 34.195312 9.796875 34.195312 9.773438 C 34.195312 9.746094 34.214844 9.683594 34.214844 9.683594 L 34.296875 9.632812 L 34.375 9.5625 L 34.398438 9.605469 L 34.335938 9.671875 L 34.28125 9.824219 L 34.296875 9.871094 L 34.371094 9.886719 L 34.390625 10.113281 L 34.304688 10.152344 L 34.316406 10.300781 L 34.335938 10.292969 L 34.382812 10.214844 L 34.449219 10.289062 L 34.382812 10.339844 L 34.371094 10.480469 L 34.476562 10.621094 L 34.636719 10.644531 L 34.703125 10.609375 L 34.839844 10.78125 L 34.894531 10.804688 L 35.167969 10.6875 L 35.253906 10.523438 Z M 34.574219 10.695312 L 34.621094 10.796875 L 34.628906 10.871094 L 34.675781 10.949219 C 34.675781 10.949219 34.710938 10.910156 34.710938 10.898438 C 34.710938 10.882812 34.679688 10.769531 34.679688 10.769531 L 34.652344 10.671875 Z M 34.574219 10.695312 "/>
<path style=" stroke:none;fill-rule:nonzero;fill:rgb(82.745098%,82.745098%,82.745098%);fill-opacity:1;" d="M 31.9375 9.769531 L 31.984375 9.972656 L 32.027344 10.257812 L 32.175781 10.144531 L 32.269531 10.019531 L 32.375 9.992188 L 32.433594 9.933594 L 32.507812 9.824219 L 32.554688 9.851562 L 32.675781 9.839844 L 32.785156 9.75 L 32.867188 9.691406 L 32.941406 9.671875 L 32.996094 9.714844 L 33.089844 9.757812 L 33.167969 9.832031 L 33.226562 9.886719 L 33.21875 10.082031 L 32.984375 9.953125 L 32.800781 9.878906 L 32.792969 10.101562 L 32.773438 10.1875 L 32.707031 10.300781 L 32.679688 10.367188 L 32.550781 10.46875 L 32.53125 10.5625 L 32.390625 10.578125 L 32.378906 10.703125 L 32.332031 10.929688 L 32.222656 10.929688 L 32.171875 10.898438 L 32.105469 10.785156 L 32.03125 10.789062 L 32.015625 10.972656 L 31.929688 11.246094 L 31.722656 11.695312 L 31.757812 11.75 L 31.75 11.863281 L 31.664062 11.945312 L 31.601562 11.929688 L 31.46875 12.03125 L 31.363281 11.992188 L 31.289062 12.183594 C 31.289062 12.183594 31.132812 12.21875 31.109375 12.226562 C 31.082031 12.230469 31.007812 12.171875 31.007812 12.171875 L 30.90625 12.265625 L 30.800781 12.292969 L 30.679688 12.257812 L 30.625 12.203125 L 30.535156 12.078125 L 30.40625 11.996094 L 30.296875 11.882812 L 30.179688 11.730469 L 30.152344 11.636719 L 30.042969 11.574219 L 30.011719 11.507812 L 30 11.289062 L 30.089844 11.285156 L 30.171875 11.253906 L 30.179688 11.140625 L 30.246094 11.078125 L 30.25 10.871094 L 30.292969 10.710938 L 30.34375 10.683594 L 30.398438 10.730469 L 30.417969 10.804688 L 30.492188 10.765625 L 30.511719 10.695312 L 30.464844 10.625 L 30.464844 10.523438 L 30.503906 10.46875 L 30.597656 10.328125 L 30.652344 10.269531 L 30.738281 10.289062 L 30.832031 10.222656 L 30.960938 10.082031 L 31.054688 9.917969 L 31.066406 9.683594 L 31.085938 9.476562 L 31.085938 9.28125 L 31.039062 9.15625 L 31.082031 9.09375 L 31.132812 9.042969 L 31.277344 9.863281 L 31.46875 9.832031 Z M 31.9375 9.769531 "/>
<path style=" stroke:none;fill-rule:nonzero;fill:rgb(83.529412%,18.823529%,20.392157%);fill-opacity:1;" d="M 30.5 12.082031 L 30.402344 12.195312 L 30.230469 12.34375 L 30.050781 12.585938 L 29.976562 12.660156 L 29.976562 12.746094 L 29.816406 12.835938 L 29.582031 12.976562 L 29.4375 12.992188 L 27.292969 13.195312 L 26.640625 13.269531 L 26.449219 13.289062 L 26.289062 13.289062 L 26.28125 13.464844 L 25.941406 13.46875 L 25.65625 13.496094 L 25.222656 13.503906 L 25.300781 13.496094 L 25.390625 13.421875 L 25.476562 13.375 L 25.488281 13.242188 L 25.523438 13.167969 L 25.457031 13.0625 L 25.492188 12.984375 L 25.585938 12.910156 L 25.671875 12.882812 L 25.785156 12.9375 L 25.933594 12.988281 L 25.980469 12.976562 L 25.984375 12.882812 L 25.933594 12.78125 L 25.945312 12.6875 L 26.027344 12.628906 L 26.132812 12.601562 L 26.199219 12.574219 L 26.167969 12.5 L 26.140625 12.417969 L 26.1875 12.386719 L 26.230469 12.25 L 26.355469 12.179688 L 26.59375 12.136719 L 26.742188 12.117188 L 26.800781 12.199219 L 26.875 12.230469 L 26.949219 12.097656 L 27.070312 12.039062 L 27.148438 12.105469 L 27.183594 12.152344 L 27.269531 12.132812 L 27.261719 11.992188 L 27.382812 11.921875 L 27.429688 11.890625 L 27.476562 11.957031 L 27.671875 11.957031 L 27.703125 11.871094 L 27.691406 11.777344 L 27.8125 11.628906 L 28.003906 11.46875 L 28.023438 11.28125 L 28.140625 11.265625 L 28.300781 11.191406 L 28.414062 11.113281 L 28.398438 11.03125 L 28.339844 10.972656 L 28.363281 10.882812 L 28.535156 10.871094 L 28.632812 10.839844 L 28.753906 10.90625 L 28.820312 11.085938 L 29.0625 11.097656 L 29.136719 11.171875 L 29.222656 11.179688 L 29.324219 11.121094 L 29.449219 11.140625 L 29.503906 11.199219 L 29.617188 11.09375 L 29.691406 11.039062 L 29.757812 11.039062 L 29.785156 11.152344 L 29.855469 11.191406 L 29.957031 11.285156 L 29.964844 11.511719 L 29.996094 11.578125 L 30.105469 11.640625 L 30.132812 11.734375 L 30.25 11.886719 L 30.359375 12.003906 Z M 30.5 12.082031 "/>
<path style=" stroke:none;fill-rule:nonzero;fill:rgb(83.529412%,18.823529%,20.392157%);fill-opacity:1;" d="M 30.898438 7.820312 L 30.644531 7.988281 L 30.484375 8.082031 L 30.34375 8.238281 L 30.179688 8.398438 L 30.042969 8.429688 L 29.925781 8.453125 L 29.695312 8.558594 L 29.609375 8.566406 L 29.46875 8.4375 L 29.253906 8.464844 L 29.148438 8.40625 L 29.050781 8.347656 L 28.847656 8.378906 L 28.425781 8.445312 L 28.105469 8.496094 L 28.160156 9.101562 L 28.230469 9.671875 L 28.339844 10.644531 L 28.363281 10.84375 L 28.53125 10.839844 L 28.632812 10.804688 L 28.773438 10.867188 L 28.859375 11.046875 L 29.070312 11.046875 L 29.148438 11.136719 L 29.222656 11.132812 L 29.328125 11.078125 L 29.429688 11.09375 L 29.511719 11.152344 L 29.582031 11.0625 L 29.679688 11.011719 L 29.765625 10.980469 L 29.792969 11.097656 L 29.867188 11.136719 L 30.011719 11.234375 L 30.101562 11.230469 L 30.148438 11.183594 L 30.144531 11.125 L 30.210938 11.066406 L 30.21875 10.855469 L 30.257812 10.695312 L 30.320312 10.636719 L 30.382812 10.675781 L 30.417969 10.722656 L 30.46875 10.71875 L 30.453125 10.617188 L 30.429688 10.589844 L 30.429688 10.488281 L 30.46875 10.4375 L 30.5625 10.296875 L 30.617188 10.234375 L 30.703125 10.253906 L 30.796875 10.1875 L 30.921875 10.046875 L 31.015625 9.886719 L 31.023438 9.660156 L 31.046875 9.453125 L 31.046875 9.257812 L 31 9.132812 L 31.039062 9.070312 L 31.078125 9.03125 L 31.019531 8.625 Z M 30.898438 7.820312 "/>
<path style=" stroke:none;fill-rule:nonzero;fill:rgb(82.745098%,82.745098%,82.745098%);fill-opacity:1;" d="M 24.703125 3.136719 L 24.777344 3.054688 L 24.867188 3.019531 L 25.089844 2.859375 L 25.183594 2.835938 L 25.203125 2.855469 L 24.992188 3.066406 L 24.851562 3.148438 L 24.769531 3.1875 Z M 28.265625 4.46875 L 28.292969 4.574219 L 28.425781 4.582031 L 28.480469 4.53125 C 28.480469 4.53125 28.476562 4.46875 28.464844 4.464844 C 28.449219 4.457031 28.394531 4.386719 28.394531 4.386719 L 28.304688 4.398438 L 28.238281 4.402344 L 28.226562 4.449219 Z M 29.507812 7.085938 L 29.375 6.742188 L 29.28125 6.367188 L 29.183594 6.234375 L 29.074219 6.160156 L 29.007812 6.207031 L 28.847656 6.28125 L 28.765625 6.488281 L 28.652344 6.640625 L 28.605469 6.667969 L 28.546875 6.640625 C 28.546875 6.640625 28.441406 6.582031 28.445312 6.554688 C 28.453125 6.527344 28.464844 6.347656 28.464844 6.347656 L 28.605469 6.292969 L 28.640625 6.152344 L 28.667969 6.046875 L 28.765625 5.976562 L 28.753906 5.5625 L 28.6875 5.46875 L 28.632812 5.433594 L 28.601562 5.347656 L 28.632812 5.316406 L 28.699219 5.328125 L 28.707031 5.261719 L 28.605469 5.167969 L 28.554688 5.058594 L 28.445312 5.058594 L 28.257812 5 L 28.03125 4.859375 L 27.917969 4.859375 L 27.890625 4.886719 L 27.851562 4.867188 L 27.722656 4.773438 L 27.605469 4.84375 L 27.484375 4.941406 L 27.496094 5.085938 L 27.539062 5.101562 L 27.625 5.121094 L 27.644531 5.152344 L 27.539062 5.1875 L 27.429688 5.199219 L 27.371094 5.273438 L 27.355469 5.363281 L 27.371094 5.429688 L 27.382812 5.65625 L 27.234375 5.742188 L 27.210938 5.738281 L 27.210938 5.5625 L 27.261719 5.460938 L 27.289062 5.363281 L 27.257812 5.328125 L 27.175781 5.363281 L 27.136719 5.535156 L 27.023438 5.582031 L 26.949219 5.664062 L 26.941406 5.703125 L 26.96875 5.738281 L 26.941406 5.84375 L 26.847656 5.863281 L 26.847656 5.910156 L 26.882812 6.011719 L 26.835938 6.265625 L 26.769531 6.433594 L 26.796875 6.628906 L 26.816406 6.675781 L 26.78125 6.777344 L 26.769531 6.808594 L 26.753906 6.921875 L 26.902344 7.171875 L 27.023438 7.441406 L 27.082031 7.640625 L 27.050781 7.835938 L 27.007812 8.082031 L 26.910156 8.296875 L 26.894531 8.410156 L 26.761719 8.539062 L 26.941406 8.53125 L 27.828125 8.4375 L 28.128906 8.398438 L 28.132812 8.46875 L 28.417969 8.417969 L 28.84375 8.355469 L 29.003906 8.335938 L 29.007812 8.3125 L 29.015625 8.25 L 29.101562 8.097656 L 29.183594 8.023438 L 29.175781 7.816406 L 29.242188 7.75 L 29.285156 7.734375 L 29.296875 7.585938 L 29.359375 7.460938 L 29.402344 7.488281 L 29.410156 7.511719 L 29.441406 7.519531 L 29.523438 7.480469 Z M 24.117188 4.347656 L 24.148438 4.324219 L 24.261719 4.289062 L 24.40625 4.195312 L 24.40625 4.15625 L 24.433594 4.128906 L 24.683594 4.089844 L 24.78125 4.007812 L 24.964844 3.921875 L 24.96875 3.867188 L 25.050781 3.746094 L 25.125 3.714844 L 25.175781 3.640625 L 25.269531 3.546875 L 25.449219 3.445312 L 25.644531 3.425781 L 25.691406 3.472656 L 25.679688 3.511719 L 25.523438 3.550781 L 25.464844 3.679688 L 25.371094 3.714844 L 25.351562 3.8125 L 25.25 3.949219 L 25.238281 4.054688 L 25.269531 4.074219 L 25.3125 4.027344 L 25.457031 3.90625 L 25.511719 3.960938 L 25.605469 3.960938 L 25.738281 4 L 25.800781 4.046875 L 25.859375 4.175781 L 25.972656 4.289062 L 26.132812 4.28125 L 26.191406 4.242188 L 26.261719 4.296875 L 26.328125 4.316406 L 26.378906 4.28125 L 26.425781 4.28125 L 26.496094 4.242188 L 26.660156 4.09375 L 26.800781 4.046875 L 27.074219 4.035156 L 27.261719 3.953125 L 27.371094 3.902344 L 27.429688 3.90625 L 27.429688 4.140625 L 27.449219 4.15625 L 27.570312 4.1875 L 27.652344 4.167969 L 27.90625 4.101562 L 27.953125 4.054688 L 28.011719 4.074219 L 28.011719 4.363281 L 28.144531 4.492188 L 28.199219 4.515625 L 28.253906 4.558594 L 28.199219 4.570312 L 28.164062 4.558594 L 28.011719 4.539062 L 27.925781 4.5625 L 27.832031 4.558594 L 27.699219 4.617188 L 27.625 4.617188 L 27.382812 4.5625 L 27.167969 4.570312 L 27.089844 4.679688 L 26.800781 4.703125 L 26.703125 4.738281 L 26.65625 4.867188 L 26.601562 4.914062 L 26.582031 4.90625 L 26.519531 4.839844 L 26.332031 4.941406 L 26.308594 4.941406 L 26.261719 4.871094 L 26.226562 4.878906 L 26.144531 5.058594 L 26.105469 5.226562 L 25.976562 5.519531 L 25.925781 5.476562 L 25.871094 5.433594 L 25.789062 5.003906 L 25.640625 4.949219 L 25.558594 4.855469 L 25.054688 4.742188 L 24.9375 4.699219 L 24.597656 4.609375 L 24.273438 4.558594 Z M 24.117188 4.347656 "/>
<path style=" stroke:none;fill-rule:nonzero;fill:rgb(82.745098%,82.745098%,82.745098%);fill-opacity:1;" d="M 15.296875 5.695312 L 14.863281 5.664062 L 13.535156 5.527344 L 12.863281 5.441406 L 11.691406 5.269531 L 10.867188 5.148438 L 10.808594 5.609375 L 10.652344 6.617188 L 10.433594 7.878906 L 10.371094 8.3125 L 10.300781 8.804688 L 10.570312 8.84375 L 11.640625 8.949219 L 12.492188 9.042969 L 14.015625 9.214844 L 15 9.332031 L 15.183594 7.5 L 15.246094 6.449219 Z M 15.296875 5.695312 "/>
<path style=" stroke:none;fill-rule:nonzero;fill:rgb(82.745098%,82.745098%,82.745098%);fill-opacity:1;" d="M 15.398438 4.804688 L 15.425781 4.34375 L 15.519531 3.316406 C 15.539062 3.105469 15.5625 2.964844 15.574219 2.675781 L 15.613281 2.074219 L 14.347656 1.957031 L 13.136719 1.808594 L 11.925781 1.640625 L 10.589844 1.421875 L 9.828125 1.28125 L 8.472656 0.992188 L 8.289062 1.878906 L 8.429688 2.191406 L 8.371094 2.378906 L 8.449219 2.570312 L 8.582031 2.625 L 8.773438 3.074219 L 8.882812 3.203125 L 8.902344 3.253906 L 9.042969 3.300781 L 9.0625 3.386719 L 8.769531 4.113281 L 8.769531 4.21875 L 8.875 4.351562 L 8.910156 4.351562 L 9.109375 4.226562 L 9.136719 4.179688 L 9.203125 4.210938 L 9.195312 4.425781 L 9.308594 4.949219 L 9.433594 5.054688 L 9.46875 5.082031 L 9.546875 5.175781 L 9.527344 5.320312 L 9.554688 5.460938 L 9.601562 5.5 L 9.695312 5.402344 L 9.808594 5.402344 L 9.941406 5.46875 L 10.046875 5.433594 L 10.214844 5.433594 L 10.367188 5.5 L 10.480469 5.480469 L 10.5 5.355469 L 10.625 5.328125 L 10.679688 5.386719 L 10.699219 5.519531 L 10.773438 5.574219 L 10.835938 5.09375 L 11.691406 5.21875 L 12.855469 5.382812 L 13.542969 5.460938 L 14.84375 5.605469 L 15.296875 5.667969 L 15.339844 5.027344 Z M 15.398438 4.804688 "/>
<path style=" stroke:none;fill-rule:nonzero;fill:rgb(83.529412%,18.823529%,20.392157%);fill-opacity:1;" d="M 7.351562 7.238281 C 6.417969 7.058594 6.769531 7.121094 6.476562 7.058594 L 6.660156 6.332031 L 6.839844 5.597656 L 6.898438 5.421875 L 7 5.175781 L 6.949219 5.082031 L 6.847656 5.085938 L 6.8125 5.042969 L 6.832031 4.996094 L 6.847656 4.867188 L 7.03125 4.640625 L 7.105469 4.621094 L 7.152344 4.574219 L 7.175781 4.441406 L 7.214844 4.414062 L 7.375 4.171875 L 7.535156 3.992188 L 7.546875 3.835938 L 7.402344 3.726562 L 7.347656 3.542969 L 7.367188 3.144531 L 7.515625 2.460938 L 7.703125 1.597656 L 7.859375 1.039062 L 7.890625 0.882812 L 8.425781 0.984375 L 8.253906 1.878906 L 8.375 2.195312 L 8.332031 2.386719 L 8.414062 2.578125 L 8.546875 2.648438 L 8.730469 3.054688 L 8.84375 3.210938 L 8.871094 3.257812 L 9.011719 3.304688 L 9.03125 3.410156 L 8.742188 4.109375 L 8.757812 4.246094 L 8.867188 4.363281 L 8.945312 4.386719 L 9.144531 4.234375 L 9.160156 4.214844 L 9.164062 4.25 L 9.175781 4.421875 L 9.28125 4.957031 L 9.425781 5.066406 L 9.441406 5.101562 L 9.53125 5.203125 L 9.5 5.320312 L 9.527344 5.472656 L 9.609375 5.511719 L 9.695312 5.445312 L 9.804688 5.421875 L 9.941406 5.488281 L 10.046875 5.464844 L 10.203125 5.457031 L 10.367188 5.523438 L 10.480469 5.511719 L 10.519531 5.417969 L 10.625 5.347656 L 10.652344 5.417969 L 10.679688 5.511719 L 10.773438 5.617188 L 10.617188 6.609375 L 10.40625 7.8125 L 10.234375 7.800781 L 9.894531 7.734375 L 9.488281 7.660156 L 8.988281 7.5625 L 8.46875 7.457031 L 8.117188 7.382812 L 7.734375 7.3125 Z M 7.351562 7.238281 "/>
<path style=" stroke:none;fill-rule:nonzero;fill:rgb(18.823529%,44.705882%,68.627451%);fill-opacity:1;" d="M 4.519531 0 L 4.699219 0.0585938 L 5.097656 0.175781 L 5.453125 0.253906 L 6.28125 0.488281 L 7.230469 0.722656 L 7.859375 0.863281 L 7.816406 1.027344 L 7.648438 1.597656 L 7.464844 2.460938 L 7.332031 3.128906 L 7.316406 3.519531 L 6.773438 3.355469 L 6.128906 3.21875 L 5.5625 3.242188 L 5.5 3.179688 L 5.277344 3.257812 L 5.113281 3.246094 L 5 3.171875 L 4.9375 3.195312 L 4.761719 3.1875 L 4.683594 3.128906 L 4.488281 3.058594 L 4.425781 3.046875 L 4.222656 2.992188 L 4.148438 3.054688 L 3.910156 3.042969 L 3.710938 2.882812 L 3.722656 2.851562 L 3.722656 2.523438 L 3.636719 2.359375 L 3.464844 2.332031 L 3.449219 2.234375 L 3.347656 2.207031 L 3.226562 2.183594 L 3.152344 2.226562 L 3.058594 2.105469 L 3.074219 1.984375 L 3.1875 1.96875 L 3.253906 1.804688 L 3.148438 1.757812 L 3.152344 1.601562 L 3.335938 1.574219 L 3.222656 1.460938 L 3.160156 1.167969 L 3.1875 1.046875 L 3.1875 0.71875 L 3.113281 0.582031 L 3.207031 0.195312 L 3.292969 0.214844 L 3.394531 0.335938 L 3.507812 0.441406 L 3.640625 0.523438 L 3.828125 0.609375 L 3.957031 0.636719 L 4.078125 0.695312 L 4.21875 0.738281 L 4.3125 0.730469 L 4.3125 0.628906 L 4.363281 0.582031 L 4.449219 0.53125 L 4.464844 0.578125 L 4.476562 0.648438 L 4.382812 0.671875 L 4.371094 0.757812 L 4.445312 0.816406 L 4.492188 0.917969 L 4.519531 1 L 4.578125 0.992188 L 4.585938 0.9375 L 4.542969 0.882812 L 4.523438 0.75 L 4.558594 0.675781 L 4.53125 0.617188 L 4.53125 0.523438 L 4.605469 0.375 L 4.558594 0.269531 L 4.457031 0.0664062 L 4.472656 0.0351562 Z M 4.125 0.246094 L 4.210938 0.242188 L 4.230469 0.296875 L 4.292969 0.230469 L 4.390625 0.230469 L 4.425781 0.292969 L 4.359375 0.363281 L 4.386719 0.398438 L 4.355469 0.484375 L 4.300781 0.5 C 4.300781 0.5 4.265625 0.503906 4.265625 0.488281 C 4.265625 0.476562 4.324219 0.382812 4.324219 0.382812 L 4.253906 0.359375 L 4.242188 0.417969 L 4.210938 0.445312 L 4.148438 0.351562 Z M 4.125 0.246094 "/>
<path style=" stroke:none;fill-rule:nonzero;fill:rgb(82.745098%,82.745098%,82.745098%);fill-opacity:1;" d="M 15.414062 13.558594 L 16.351562 13.601562 L 17.640625 13.648438 L 17.542969 14.621094 L 17.53125 15.375 L 17.53125 15.460938 L 17.710938 15.621094 L 17.785156 15.652344 L 17.859375 15.664062 L 17.886719 15.613281 L 17.925781 15.648438 L 17.996094 15.667969 L 18.0625 15.636719 L 18.109375 15.65625 L 18.097656 15.796875 L 18.273438 15.839844 L 18.386719 15.871094 L 18.546875 15.894531 L 18.640625 15.96875 L 18.773438 15.90625 L 18.890625 15.921875 L 18.972656 16.035156 L 19.015625 16.050781 L 19.011719 16.128906 L 19.136719 16.179688 L 19.253906 16.105469 L 19.316406 16.117188 L 19.414062 16.125 L 19.429688 16.203125 L 19.621094 16.285156 L 19.734375 16.277344 L 19.816406 16.105469 L 19.828125 16.105469 L 19.875 16.183594 L 20.058594 16.226562 L 20.199219 16.277344 L 20.332031 16.308594 L 20.421875 16.277344 L 20.457031 16.171875 L 20.609375 16.171875 L 20.6875 16.203125 L 20.816406 16.140625 L 20.84375 16.140625 L 20.859375 16.183594 L 21.035156 16.183594 L 21.132812 16.132812 L 21.203125 16.144531 L 21.261719 16.222656 L 21.382812 16.292969 L 21.527344 16.335938 L 21.640625 16.394531 L 21.742188 16.464844 L 21.878906 16.425781 L 21.957031 16.46875 L 21.980469 16.886719 L 21.992188 17.289062 L 22.019531 17.683594 L 22.042969 17.851562 L 22.152344 18.042969 L 22.199219 18.210938 L 22.359375 18.472656 L 22.378906 18.59375 L 22.402344 18.632812 L 22.375 18.945312 L 22.265625 19.125 L 22.304688 19.246094 L 22.289062 19.347656 L 22.253906 19.652344 L 22.195312 19.765625 L 22.222656 19.945312 L 21.988281 20.011719 L 21.578125 20.199219 L 21.539062 20.28125 L 21.433594 20.359375 L 21.347656 20.421875 L 21.292969 20.457031 L 21.058594 20.675781 L 20.945312 20.761719 L 20.722656 20.898438 L 20.488281 20.996094 L 20.230469 21.140625 L 20.15625 21.199219 L 19.914062 21.347656 L 19.773438 21.375 L 19.613281 21.601562 L 19.445312 21.613281 L 19.40625 21.695312 L 19.5 21.773438 L 19.441406 22.003906 L 19.386719 22.191406 L 19.339844 22.351562 L 19.304688 22.539062 L 19.339844 22.640625 L 19.414062 22.929688 L 19.453125 23.183594 L 19.527344 23.296875 L 19.488281 23.355469 L 19.359375 23.4375 L 19.125 23.277344 L 18.898438 23.230469 L 18.84375 23.25 L 18.710938 23.222656 L 18.539062 23.09375 L 18.324219 23.046875 L 18.007812 22.90625 L 17.921875 22.746094 L 17.871094 22.480469 L 17.734375 22.398438 L 17.707031 22.304688 L 17.734375 22.277344 L 17.75 22.136719 L 17.695312 22.109375 L 17.667969 22.070312 L 17.722656 21.890625 L 17.65625 21.796875 L 17.523438 21.742188 L 17.382812 21.5625 L 17.234375 21.285156 L 17.058594 21.179688 L 17.066406 21.097656 L 16.847656 20.589844 L 16.8125 20.414062 L 16.738281 20.335938 L 16.734375 20.273438 L 16.484375 20.054688 L 16.378906 19.925781 L 16.378906 19.878906 L 16.269531 19.792969 L 15.992188 19.746094 L 15.683594 19.71875 L 15.554688 19.625 L 15.367188 19.699219 L 15.222656 19.757812 L 15.128906 19.890625 L 15.085938 20.046875 L 14.90625 20.300781 L 14.808594 20.402344 L 14.699219 20.363281 L 14.625 20.316406 L 14.546875 20.289062 L 14.386719 20.195312 L 14.386719 20.167969 L 14.3125 20.085938 L 14.097656 20 L 13.789062 19.679688 L 13.699219 19.484375 L 13.699219 19.148438 L 13.5625 18.878906 L 13.542969 18.765625 L 13.476562 18.726562 L 13.429688 18.640625 L 13.222656 18.550781 L 13.167969 18.484375 L 12.875 18.15625 L 12.820312 18.023438 L 12.628906 17.929688 L 12.566406 17.746094 L 12.460938 17.625 L 12.378906 17.605469 L 12.351562 17.414062 L 12.683594 17.441406 L 13.886719 17.554688 L 15.085938 17.621094 L 15.179688 16.636719 L 15.339844 14.332031 L 15.40625 13.554688 L 15.464844 13.554688 M 19.558594 23.257812 L 19.535156 22.960938 L 19.421875 22.664062 L 19.398438 22.371094 L 19.460938 22.03125 L 19.597656 21.746094 L 19.742188 21.519531 L 19.871094 21.375 L 19.898438 21.382812 L 19.703125 21.660156 L 19.519531 21.929688 L 19.4375 22.203125 L 19.425781 22.417969 L 19.460938 22.675781 L 19.566406 22.972656 L 19.585938 23.1875 L 19.59375 23.246094 Z M 19.558594 23.257812 "/>
<path style=" stroke:none;fill-rule:nonzero;fill:rgb(60%,81.176471%,92.54902%);fill-opacity:1;" d="M 6.304688 15.769531 L 6.460938 15.75 L 6.523438 15.667969 L 6.550781 15.585938 L 6.421875 15.582031 L 6.375 15.511719 L 6.40625 15.4375 L 6.40625 15.183594 L 6.496094 15.128906 L 6.609375 15.023438 L 6.625 14.816406 L 6.695312 14.671875 L 6.773438 14.585938 L 6.910156 14.515625 L 6.960938 14.484375 L 6.992188 14.421875 L 6.957031 14.386719 L 6.917969 14.324219 L 6.878906 14.101562 L 6.757812 13.882812 L 6.761719 13.769531 L 6.671875 13.632812 L 6.050781 12.671875 L 5.25 11.480469 L 4.320312 10.109375 L 3.796875 9.300781 L 3.871094 9 L 4.152344 7.925781 L 4.488281 6.621094 L 3.976562 6.484375 L 3.417969 6.34375 L 2.898438 6.171875 L 2.585938 6.085938 L 2.113281 5.964844 L 1.820312 5.863281 L 1.757812 6.058594 L 1.75 6.367188 L 1.535156 6.855469 L 1.410156 6.964844 L 1.394531 7.011719 L 1.320312 7.042969 L 1.261719 7.21875 L 1.226562 7.351562 L 1.34375 7.527344 L 1.410156 7.699219 L 1.457031 7.847656 L 1.441406 8.117188 L 1.367188 8.242188 L 1.34375 8.484375 L 1.300781 8.640625 L 1.375 8.800781 L 1.488281 8.988281 L 1.582031 9.1875 L 1.636719 9.355469 L 1.621094 9.492188 L 1.609375 9.511719 L 1.609375 9.597656 L 1.84375 9.859375 L 1.824219 9.960938 L 1.796875 10.054688 L 1.769531 10.132812 L 1.777344 10.476562 L 1.863281 10.628906 L 1.945312 10.738281 L 2.058594 10.757812 L 2.097656 10.871094 L 2.050781 11.019531 L 1.964844 11.085938 L 1.917969 11.085938 L 1.882812 11.246094 L 1.902344 11.367188 L 2.039062 11.546875 L 2.105469 11.769531 L 2.164062 11.964844 L 2.21875 12.089844 L 2.359375 12.332031 L 2.417969 12.441406 L 2.4375 12.558594 L 2.503906 12.601562 L 2.503906 12.699219 L 2.472656 12.78125 L 2.378906 13.15625 L 2.480469 13.269531 L 2.652344 13.289062 L 2.839844 13.363281 L 3 13.453125 L 3.121094 13.453125 L 3.242188 13.578125 L 3.347656 13.78125 L 3.394531 13.875 L 3.554688 13.960938 L 3.753906 13.996094 L 3.816406 14.082031 L 3.84375 14.214844 L 3.78125 14.242188 L 3.796875 14.28125 L 3.929688 14.316406 L 4.042969 14.324219 L 4.164062 14.515625 L 4.324219 14.691406 L 4.355469 14.785156 L 4.464844 14.960938 L 4.476562 15.09375 L 4.476562 15.480469 L 4.496094 15.554688 L 4.914062 15.617188 L 5.726562 15.730469 Z M 2.664062 13.710938 L 2.71875 13.773438 L 2.710938 13.828125 L 2.578125 13.824219 L 2.554688 13.773438 L 2.527344 13.714844 Z M 2.746094 13.710938 L 2.796875 13.683594 L 2.941406 13.769531 L 3.070312 13.820312 L 3.035156 13.847656 L 2.847656 13.835938 L 2.78125 13.769531 Z M 3.601562 14.53125 L 3.675781 14.628906 L 3.707031 14.667969 L 3.773438 14.691406 L 3.796875 14.632812 L 3.753906 14.558594 L 3.644531 14.472656 L 3.601562 14.480469 Z M 3.542969 14.890625 L 3.613281 15.019531 L 3.664062 15.101562 L 3.605469 15.109375 L 3.550781 15.058594 C 3.550781 15.058594 3.523438 15 3.523438 14.984375 C 3.523438 14.964844 3.523438 14.890625 3.523438 14.890625 Z M 3.542969 14.890625 "/>
<path style=" stroke:none;fill-rule:nonzero;fill:rgb(83.529412%,18.823529%,20.392157%);fill-opacity:1;" d="M 6.34375 15.800781 L 6.234375 15.890625 L 6.222656 15.953125 L 6.242188 15.992188 L 7.023438 16.433594 L 7.527344 16.75 L 8.136719 17.105469 L 8.832031 17.519531 L 9.339844 17.621094 L 10.378906 17.734375 L 10.480469 17.214844 L 10.636719 16.085938 L 10.925781 13.890625 L 11.101562 12.609375 L 10.085938 12.457031 L 8.960938 12.265625 L 7.578125 12.003906 L 7.457031 12.753906 L 7.4375 12.773438 L 7.367188 12.882812 L 7.261719 12.878906 L 7.210938 12.765625 L 7.097656 12.75 L 7.058594 12.703125 L 7.019531 12.703125 L 6.984375 12.726562 L 6.902344 12.769531 L 6.898438 13.058594 L 6.886719 13.128906 L 6.863281 13.648438 L 6.804688 13.738281 L 6.78125 13.878906 L 6.894531 14.082031 L 6.945312 14.324219 L 6.976562 14.367188 L 7.019531 14.390625 L 7.015625 14.484375 L 6.949219 14.539062 L 6.808594 14.613281 L 6.726562 14.691406 L 6.667969 14.84375 L 6.640625 15.046875 L 6.523438 15.160156 L 6.4375 15.191406 L 6.433594 15.433594 L 6.414062 15.503906 L 6.433594 15.535156 L 6.585938 15.558594 L 6.5625 15.671875 L 6.5 15.761719 Z M 6.34375 15.800781 "/>
<path style=" stroke:none;fill-rule:nonzero;fill:rgb(60%,81.176471%,92.54902%);fill-opacity:1;" d="M 6.464844 7.097656 L 7.332031 7.285156 L 7.734375 7.367188 L 8.117188 7.441406 L 8.390625 7.507812 L 8.367188 7.753906 L 8.222656 8.472656 L 8.050781 9.300781 L 7.972656 9.703125 L 7.882812 10.253906 L 7.75 10.933594 L 7.605469 11.582031 L 7.523438 12.007812 L 7.421875 12.703125 L 7.402344 12.746094 L 7.359375 12.847656 L 7.28125 12.84375 L 7.238281 12.730469 L 7.121094 12.710938 L 7.066406 12.667969 L 6.980469 12.683594 L 6.941406 12.710938 L 6.890625 12.769531 L 6.871094 13.058594 L 6.847656 13.128906 L 6.832031 13.628906 L 6.777344 13.703125 L 6.699219 13.609375 L 6.097656 12.664062 L 5.296875 11.460938 L 4.355469 10.058594 L 3.84375 9.289062 L 3.910156 9.015625 L 4.199219 7.9375 L 4.523438 6.640625 L 5.914062 6.976562 L 6.480469 7.101562 "/>
<path style=" stroke:none;fill-rule:nonzero;fill:rgb(83.529412%,18.823529%,20.392157%);fill-opacity:1;" d="M 11.109375 12.558594 L 10.089844 12.414062 L 8.992188 12.214844 L 7.59375 11.964844 L 7.660156 11.582031 L 7.792969 10.953125 L 7.929688 10.265625 L 8.019531 9.703125 L 8.097656 9.332031 L 8.253906 8.484375 L 8.402344 7.757812 L 8.445312 7.527344 L 8.972656 7.621094 L 9.46875 7.707031 L 9.894531 7.78125 L 10.238281 7.839844 L 10.390625 7.859375 L 10.332031 8.300781 L 10.234375 8.847656 L 10.558594 8.886719 L 11.238281 8.960938 L 11.578125 8.996094 L 11.488281 9.90625 L 11.355469 10.839844 L 11.199219 11.996094 L 11.132812 12.457031 Z M 11.109375 12.558594 "/>
<path style=" stroke:none;fill-rule:nonzero;fill:rgb(18.823529%,44.705882%,68.627451%);fill-opacity:1;" d="M 16.304688 10.382812 L 16.367188 9.5 L 15.039062 9.375 L 14.027344 9.261719 L 12.484375 9.089844 L 11.628906 8.988281 L 11.519531 9.90625 L 11.390625 10.835938 L 11.234375 11.996094 L 11.171875 12.457031 L 11.160156 12.570312 L 12.5625 12.726562 L 14.125 12.90625 L 15.445312 13.035156 L 16.132812 13.070312 "/>
<path style=" stroke:none;fill-rule:nonzero;fill:rgb(82.745098%,82.745098%,82.745098%);fill-opacity:1;" d="M 12.339844 17.605469 L 12.3125 17.351562 L 12.671875 17.375 L 13.890625 17.503906 L 15.066406 17.5625 L 15.148438 16.636719 L 15.300781 14.320312 L 15.347656 13.515625 L 15.429688 13.53125 L 15.429688 13.070312 L 14.097656 12.972656 L 12.570312 12.789062 L 11.144531 12.617188 L 10.972656 13.890625 L 10.683594 16.097656 L 10.527344 17.214844 L 10.445312 17.765625 L 11.082031 17.847656 L 11.136719 17.433594 L 11.824219 17.539062 Z M 12.339844 17.605469 "/>
<path style=" stroke:none;fill-rule:nonzero;fill:rgb(18.823529%,44.705882%,68.627451%);fill-opacity:1;" d="M 6.449219 7.0625 L 6.628906 6.320312 L 6.820312 5.578125 L 6.863281 5.402344 L 6.960938 5.167969 L 6.9375 5.121094 L 6.832031 5.121094 L 6.78125 5.050781 L 6.796875 4.988281 L 6.820312 4.855469 L 7.003906 4.628906 L 7.078125 4.582031 L 7.125 4.535156 L 7.1875 4.386719 L 7.355469 4.152344 L 7.503906 3.992188 L 7.511719 3.847656 L 7.378906 3.746094 L 7.328125 3.558594 L 6.78125 3.402344 L 6.15625 3.257812 L 5.515625 3.261719 L 5.5 3.203125 L 5.273438 3.289062 L 5.085938 3.265625 L 4.988281 3.199219 L 4.9375 3.230469 L 4.742188 3.21875 L 4.671875 3.164062 L 4.453125 3.078125 L 4.421875 3.082031 L 4.242188 3.019531 L 4.160156 3.097656 L 3.90625 3.082031 L 3.660156 2.910156 L 3.6875 2.878906 L 3.695312 2.554688 L 3.601562 2.394531 L 3.433594 2.371094 L 3.402344 2.265625 L 3.308594 2.246094 L 3.066406 2.332031 L 2.972656 2.601562 L 2.839844 3.015625 L 2.707031 3.285156 L 2.5 3.867188 L 2.230469 4.429688 L 1.898438 4.953125 L 1.816406 5.074219 L 1.785156 5.429688 L 1.730469 5.675781 L 1.839844 5.824219 L 2.121094 5.917969 L 2.597656 6.054688 L 2.925781 6.160156 L 3.4375 6.308594 L 3.988281 6.457031 L 4.535156 6.605469 "/>
<path style=" stroke:none;fill-rule:nonzero;fill:rgb(83.529412%,18.823529%,20.392157%);fill-opacity:1;" d="M 20.140625 5.027344 L 20.125 4.71875 L 20.042969 4.414062 L 19.96875 3.847656 L 19.949219 3.441406 L 19.867188 3.3125 L 19.800781 3.089844 L 19.800781 2.664062 L 19.828125 2.503906 L 19.742188 2.273438 L 18.566406 2.25 L 17.796875 2.226562 L 16.699219 2.171875 L 15.667969 2.09375 L 15.617188 2.683594 L 15.558594 3.308594 L 15.464844 4.34375 L 15.445312 4.800781 L 17.796875 4.957031 Z M 20.140625 5.027344 "/>
<path style=" stroke:none;fill-rule:nonzero;fill:rgb(83.529412%,18.823529%,20.392157%);fill-opacity:1;" d="M 20.203125 8.160156 L 20.160156 8.113281 L 20.097656 7.964844 L 20.175781 7.8125 L 20.21875 7.582031 L 20.113281 7.496094 L 20.097656 7.382812 L 20.125 7.257812 L 20.210938 7.222656 L 20.226562 6.988281 L 20.222656 5.738281 L 20.195312 5.617188 L 20.027344 5.46875 L 19.984375 5.386719 L 19.984375 5.304688 L 20.0625 5.253906 L 20.128906 5.175781 L 20.136719 5.0625 L 17.761719 4.996094 L 15.4375 4.835938 L 15.40625 5.054688 L 15.339844 5.710938 L 15.285156 6.457031 L 15.21875 7.476562 L 15.882812 7.519531 L 16.695312 7.566406 L 17.4375 7.621094 L 18.421875 7.671875 L 18.867188 7.640625 L 18.984375 7.738281 L 19.164062 7.859375 L 19.203125 7.890625 L 19.347656 7.855469 L 19.515625 7.839844 L 19.628906 7.839844 L 19.757812 7.890625 L 19.945312 7.949219 L 20.078125 8.023438 L 20.101562 8.101562 L 20.140625 8.179688 L 20.167969 8.160156 Z M 20.203125 8.160156 "/>
<path style=" stroke:none;fill-rule:nonzero;fill:rgb(82.745098%,82.745098%,82.745098%);fill-opacity:1;" d="M 20.675781 9.976562 L 20.730469 10.085938 L 20.734375 10.175781 L 20.832031 10.328125 L 20.945312 10.460938 L 20.738281 10.460938 L 18.9375 10.421875 L 17.25 10.382812 L 16.375 10.34375 L 16.417969 9.460938 L 15.039062 9.347656 L 15.21875 7.523438 L 15.863281 7.566406 L 16.695312 7.613281 L 17.429688 7.660156 L 18.414062 7.707031 L 18.859375 7.6875 L 18.945312 7.78125 L 19.140625 7.90625 L 19.191406 7.945312 L 19.371094 7.886719 L 19.53125 7.867188 L 19.644531 7.859375 L 19.71875 7.914062 L 19.925781 7.980469 L 20.050781 8.046875 L 20.070312 8.113281 L 20.105469 8.199219 L 20.183594 8.199219 L 20.214844 8.203125 L 20.257812 8.417969 L 20.371094 8.75 L 20.421875 8.941406 L 20.507812 9.101562 L 20.53125 9.304688 L 20.589844 9.484375 L 20.613281 9.75 "/>
<path style=" stroke:none;fill-rule:nonzero;fill:rgb(83.529412%,18.823529%,20.392157%);fill-opacity:1;" d="M 24.082031 8.09375 L 24.085938 8.175781 L 24.183594 8.222656 L 24.230469 8.277344 L 24.242188 8.328125 L 24.40625 8.460938 L 24.433594 8.550781 L 24.398438 8.667969 L 24.339844 8.816406 L 24.304688 8.929688 L 24.214844 8.996094 L 24.144531 9.019531 L 23.917969 9.082031 L 23.890625 9.175781 L 23.855469 9.269531 L 23.878906 9.328125 L 23.949219 9.398438 L 23.949219 9.550781 L 23.859375 9.617188 L 23.84375 9.679688 L 23.84375 9.78125 L 23.78125 9.800781 L 23.710938 9.859375 L 23.691406 9.921875 L 23.710938 9.992188 L 23.652344 10.042969 L 23.558594 9.929688 L 23.496094 9.820312 L 23.152344 9.855469 L 22.730469 9.878906 L 21.695312 9.90625 L 21.15625 9.914062 L 20.769531 9.925781 L 20.714844 9.929688 L 20.644531 9.746094 L 20.636719 9.46875 L 20.570312 9.300781 L 20.542969 9.082031 L 20.445312 8.929688 L 20.410156 8.730469 L 20.296875 8.417969 L 20.25 8.195312 L 20.191406 8.105469 L 20.125 7.992188 L 20.203125 7.8125 L 20.257812 7.574219 L 20.144531 7.488281 L 20.125 7.375 L 20.164062 7.269531 L 20.710938 7.269531 L 22.765625 7.242188 L 23.585938 7.214844 L 23.664062 7.328125 L 23.738281 7.4375 L 23.757812 7.46875 L 23.679688 7.585938 L 23.699219 7.757812 L 23.804688 7.921875 L 23.925781 7.996094 L 24.027344 8.003906 Z M 24.082031 8.09375 "/>
<path style=" stroke:none;fill-rule:nonzero;fill:rgb(82.745098%,82.745098%,82.745098%);fill-opacity:1;" d="M 26.476562 19.097656 L 26.46875 19.148438 L 26.253906 19.148438 L 26.191406 19.113281 L 26.105469 19.101562 L 25.824219 19.183594 L 25.753906 19.148438 L 25.644531 19.324219 L 25.597656 19.355469 L 25.554688 19.25 L 25.503906 19.089844 L 25.363281 18.957031 L 25.410156 18.644531 L 25.382812 18.605469 L 25.308594 18.617188 L 24.964844 18.644531 L 23.964844 18.671875 L 23.945312 18.605469 L 23.972656 18.277344 L 24.117188 18.019531 L 24.332031 17.640625 L 24.296875 17.554688 L 24.34375 17.554688 L 24.371094 17.421875 L 24.277344 17.347656 L 24.285156 17.269531 L 24.199219 17.082031 L 24.1875 16.859375 L 24.246094 16.75 L 24.230469 16.570312 L 24.171875 16.445312 L 24.230469 16.390625 L 24.171875 16.304688 L 24.191406 16.226562 L 24.230469 15.972656 L 24.351562 15.859375 L 24.324219 15.773438 L 24.476562 15.554688 L 24.589844 15.515625 L 24.589844 15.414062 L 24.558594 15.355469 L 24.671875 15.136719 L 24.789062 15.089844 L 24.792969 14.949219 L 25.152344 14.945312 L 26.148438 14.867188 L 26.335938 14.855469 L 26.335938 15.121094 L 26.34375 15.808594 L 26.308594 17.097656 L 26.304688 17.679688 L 26.417969 18.457031 Z M 26.476562 19.097656 "/>
<path style=" stroke:none;fill-rule:nonzero;fill:rgb(100%,60%,60%);fill-opacity:1;" d="M 26.222656 12.210938 L 26.226562 12.089844 L 26.246094 11.902344 L 26.339844 11.78125 L 26.414062 11.621094 L 26.519531 11.449219 L 26.5 11.207031 L 26.425781 11.09375 L 26.414062 10.957031 L 26.449219 10.730469 L 26.425781 10.441406 L 26.375 9.777344 L 26.320312 9.140625 L 26.28125 8.65625 L 26.40625 8.691406 L 26.46875 8.734375 L 26.515625 8.71875 L 26.601562 8.640625 L 26.71875 8.570312 L 26.929688 8.566406 L 27.839844 8.472656 L 28.070312 8.449219 L 28.132812 9.109375 L 28.308594 10.636719 L 28.332031 10.878906 L 28.316406 10.972656 L 28.367188 11.046875 L 28.371094 11.101562 L 28.265625 11.167969 L 28.121094 11.234375 L 27.988281 11.257812 L 27.964844 11.457031 L 27.773438 11.59375 L 27.65625 11.761719 L 27.671875 11.859375 L 27.648438 11.925781 L 27.511719 11.925781 L 27.445312 11.855469 L 27.339844 11.910156 L 27.230469 11.972656 L 27.238281 12.097656 L 27.1875 12.109375 L 27.167969 12.066406 L 27.078125 12.003906 L 26.945312 12.058594 L 26.878906 12.183594 L 26.820312 12.152344 L 26.761719 12.085938 L 26.574219 12.105469 L 26.34375 12.144531 Z M 26.222656 12.210938 "/>
<path style=" stroke:none;fill-rule:nonzero;fill:rgb(83.529412%,18.823529%,20.392157%);fill-opacity:1;" d="M 26.199219 12.242188 L 26.199219 12.089844 L 26.210938 11.890625 L 26.308594 11.757812 L 26.382812 11.601562 L 26.488281 11.441406 L 26.472656 11.226562 L 26.390625 11.078125 L 26.386719 10.941406 L 26.414062 10.722656 L 26.378906 10.421875 L 26.335938 9.769531 L 26.28125 9.148438 L 26.246094 8.664062 L 26.234375 8.625 L 26.199219 8.519531 L 26.148438 8.363281 L 26.078125 8.289062 L 26.019531 8.183594 L 26.011719 7.957031 L 25.601562 8.011719 L 24.476562 8.082031 L 24.117188 8.0625 L 24.125 8.164062 L 24.21875 8.191406 L 24.257812 8.238281 L 24.277344 8.3125 L 24.4375 8.457031 L 24.464844 8.550781 L 24.4375 8.691406 L 24.363281 8.84375 L 24.332031 8.949219 L 24.238281 9.023438 L 24.164062 9.054688 L 23.945312 9.109375 L 23.917969 9.1875 L 23.890625 9.269531 L 23.917969 9.328125 L 23.992188 9.394531 L 23.984375 9.566406 L 23.90625 9.632812 L 23.878906 9.699219 L 23.878906 9.8125 L 23.804688 9.832031 L 23.738281 9.878906 L 23.726562 9.933594 L 23.738281 10.019531 L 23.667969 10.074219 L 23.625 10.191406 L 23.644531 10.34375 L 23.738281 10.644531 L 24.039062 10.957031 L 24.265625 11.109375 L 24.257812 11.289062 L 24.296875 11.347656 L 24.558594 11.367188 L 24.671875 11.421875 L 24.644531 11.574219 L 24.550781 11.820312 L 24.523438 11.953125 L 24.617188 12.113281 L 24.882812 12.332031 L 25.070312 12.359375 L 25.15625 12.570312 L 25.242188 12.703125 L 25.203125 12.824219 L 25.269531 12.996094 L 25.34375 13.082031 L 25.425781 13.050781 L 25.453125 12.960938 L 25.539062 12.898438 L 25.671875 12.855469 L 25.800781 12.902344 L 25.917969 12.945312 L 25.949219 12.9375 L 25.949219 12.886719 L 25.902344 12.773438 L 25.921875 12.671875 L 26.015625 12.609375 L 26.113281 12.566406 L 26.164062 12.550781 L 26.136719 12.496094 L 26.105469 12.40625 L 26.160156 12.351562 Z M 26.199219 12.242188 "/>
<path style=" stroke:none;fill-rule:nonzero;fill:rgb(82.745098%,82.745098%,82.745098%);fill-opacity:1;" d="M 20.164062 5.0625 L 20.144531 4.710938 L 20.070312 4.410156 L 19.992188 3.847656 L 19.972656 3.441406 L 19.898438 3.300781 L 19.832031 3.089844 L 19.832031 2.664062 L 19.859375 2.503906 L 19.785156 2.277344 L 21.03125 2.277344 L 21.046875 1.9375 L 21.070312 1.929688 L 21.164062 1.949219 L 21.246094 1.984375 L 21.28125 2.210938 L 21.339844 2.464844 L 21.40625 2.535156 L 21.605469 2.535156 L 21.621094 2.59375 L 21.882812 2.605469 L 21.882812 2.695312 L 22.082031 2.695312 L 22.09375 2.640625 L 22.140625 2.59375 L 22.234375 2.566406 L 22.289062 2.605469 L 22.410156 2.605469 L 22.570312 2.714844 L 22.789062 2.816406 L 22.890625 2.835938 L 22.910156 2.792969 L 22.972656 2.773438 L 22.992188 2.894531 L 23.097656 2.949219 L 23.117188 2.929688 L 23.171875 2.9375 L 23.171875 3.023438 L 23.277344 3.0625 L 23.40625 3.0625 L 23.472656 3.03125 L 23.605469 2.894531 L 23.710938 2.875 L 23.746094 2.949219 L 23.765625 3.003906 L 23.804688 3.003906 L 23.847656 2.96875 L 24.214844 2.957031 L 24.289062 3.082031 L 24.316406 3.082031 L 24.34375 3.039062 L 24.527344 3.023438 L 24.503906 3.117188 L 24.339844 3.195312 L 23.957031 3.363281 L 23.761719 3.445312 L 23.632812 3.550781 L 23.53125 3.699219 L 23.4375 3.859375 L 23.367188 3.894531 L 23.179688 4.101562 L 23.125 4.109375 L 22.964844 4.230469 L 22.847656 4.359375 L 22.839844 4.484375 L 22.847656 4.808594 L 22.78125 4.875 L 22.566406 5.042969 L 22.488281 5.28125 L 22.59375 5.433594 L 22.613281 5.535156 L 22.566406 5.660156 L 22.554688 5.8125 L 22.574219 6.105469 L 22.71875 6.277344 L 22.839844 6.277344 L 22.945312 6.371094 L 23.074219 6.425781 L 23.226562 6.636719 L 23.519531 6.84375 L 23.597656 6.929688 L 23.605469 7.15625 L 22.753906 7.1875 L 20.261719 7.207031 L 20.25 5.726562 L 20.230469 5.601562 L 20.058594 5.460938 L 20.011719 5.386719 L 20.011719 5.320312 L 20.097656 5.253906 L 20.152344 5.195312 Z M 20.164062 5.0625 "/>
<path style=" stroke:none;fill-rule:nonzero;fill:rgb(83.529412%,18.823529%,20.392157%);fill-opacity:1;" d="M 25.996094 7.910156 L 26.011719 7.789062 L 25.945312 7.601562 L 25.917969 7.347656 L 25.871094 7.246094 L 25.914062 7.117188 L 25.945312 6.996094 L 26.007812 6.890625 L 25.980469 6.75 L 25.953125 6.601562 L 25.972656 6.527344 L 26.054688 6.425781 L 26.058594 6.3125 L 26.027344 6.261719 L 26.054688 6.152344 L 26.074219 6.019531 L 26.1875 5.785156 L 26.308594 5.503906 L 26.3125 5.410156 L 26.300781 5.367188 L 26.265625 5.390625 L 26.09375 5.648438 L 25.980469 5.816406 L 25.898438 5.890625 L 25.867188 5.984375 L 25.804688 6.019531 L 25.757812 6.097656 L 25.699219 6.085938 L 25.691406 6.011719 L 25.746094 5.910156 L 25.832031 5.71875 L 25.90625 5.648438 L 25.953125 5.554688 L 25.882812 5.515625 L 25.828125 5.460938 L 25.761719 5.035156 L 25.609375 4.988281 L 25.554688 4.890625 L 25.03125 4.777344 L 24.929688 4.730469 L 24.589844 4.636719 L 24.25 4.589844 L 24.074219 4.363281 L 24.054688 4.417969 L 24.007812 4.410156 L 23.980469 4.363281 L 23.867188 4.328125 L 23.820312 4.335938 L 23.746094 4.375 L 23.707031 4.351562 L 23.734375 4.269531 L 23.8125 4.140625 L 23.859375 4.09375 L 23.78125 4.035156 L 23.691406 4.066406 L 23.574219 4.148438 L 23.265625 4.28125 L 23.144531 4.308594 L 23.023438 4.289062 L 22.984375 4.253906 L 22.894531 4.371094 L 22.886719 4.484375 L 22.886719 4.835938 L 22.839844 4.902344 L 22.621094 5.0625 L 22.527344 5.308594 L 22.546875 5.320312 L 22.648438 5.402344 L 22.679688 5.535156 L 22.601562 5.667969 L 22.601562 5.832031 L 22.621094 6.105469 L 22.746094 6.226562 L 22.886719 6.226562 L 22.960938 6.359375 L 23.105469 6.378906 L 23.265625 6.617188 L 23.558594 6.789062 L 23.644531 6.902344 L 23.679688 7.210938 L 23.710938 7.347656 L 23.804688 7.414062 L 23.8125 7.46875 L 23.726562 7.613281 L 23.738281 7.746094 L 23.84375 7.90625 L 23.945312 7.953125 L 24.070312 7.972656 L 24.125 8.03125 L 24.503906 8.03125 L 25.582031 7.96875 Z M 25.996094 7.910156 "/>
<path style=" stroke:none;fill-rule:nonzero;fill:rgb(83.529412%,18.823529%,20.392157%);fill-opacity:1;" d="M 23.632812 10.082031 L 23.53125 9.953125 L 23.480469 9.859375 L 23.160156 9.886719 L 22.753906 9.90625 L 21.703125 9.945312 L 21.148438 9.953125 L 20.820312 9.957031 L 20.726562 9.964844 L 20.777344 10.066406 L 20.769531 10.160156 L 20.871094 10.324219 L 21 10.492188 L 21.128906 10.609375 L 21.222656 10.617188 L 21.277344 10.65625 L 21.277344 10.777344 L 21.203125 10.84375 L 21.183594 10.9375 L 21.269531 11.082031 L 21.375 11.203125 L 21.476562 11.28125 L 21.535156 11.765625 L 21.507812 13.230469 L 21.515625 13.421875 L 21.535156 13.644531 L 22.503906 13.640625 L 23.464844 13.613281 L 24.324219 13.578125 L 24.804688 13.570312 L 24.894531 13.710938 L 24.867188 13.847656 L 24.738281 13.949219 L 24.714844 14.023438 L 24.9375 14.042969 L 25.097656 14.015625 L 25.171875 13.789062 L 25.199219 13.546875 L 25.292969 13.460938 L 25.363281 13.398438 L 25.449219 13.355469 L 25.453125 13.238281 L 25.476562 13.167969 L 25.433594 13.09375 L 25.320312 13.101562 L 25.230469 12.992188 L 25.175781 12.816406 L 25.207031 12.710938 L 25.128906 12.570312 L 25.050781 12.378906 L 24.855469 12.347656 L 24.566406 12.113281 L 24.496094 11.945312 L 24.527344 11.8125 L 24.613281 11.558594 L 24.632812 11.441406 L 24.550781 11.398438 L 24.265625 11.367188 L 24.226562 11.292969 L 24.21875 11.121094 L 23.992188 10.976562 L 23.703125 10.65625 L 23.609375 10.351562 L 23.601562 10.175781 Z M 23.632812 10.082031 "/>
<path style=" stroke:none;fill-rule:nonzero;fill:rgb(83.529412%,18.823529%,20.392157%);fill-opacity:1;" d="M 25.089844 14.039062 L 24.929688 14.078125 L 24.671875 14.058594 L 24.703125 13.933594 L 24.835938 13.820312 L 24.851562 13.726562 L 24.777344 13.601562 L 24.324219 13.621094 L 23.464844 13.660156 L 22.5 13.6875 L 21.535156 13.707031 L 21.601562 13.992188 L 21.601562 14.332031 L 21.65625 14.789062 L 21.667969 16.355469 L 21.761719 16.4375 L 21.882812 16.378906 L 21.996094 16.425781 L 22.015625 16.855469 L 22.960938 16.847656 L 23.742188 16.816406 L 24.160156 16.808594 L 24.207031 16.722656 L 24.195312 16.574219 L 24.121094 16.449219 L 24.1875 16.390625 L 24.121094 16.285156 L 24.148438 16.179688 L 24.207031 15.949219 L 24.308594 15.863281 L 24.28125 15.769531 L 24.433594 15.546875 L 24.546875 15.488281 L 24.542969 15.425781 L 24.527344 15.351562 L 24.644531 15.121094 L 24.746094 15.066406 L 24.761719 14.925781 L 24.832031 14.875 L 24.871094 14.699219 L 24.8125 14.53125 L 24.980469 14.433594 L 25.003906 14.351562 L 25.054688 14.171875 Z M 25.089844 14.039062 "/>
<path style=" stroke:none;fill-rule:nonzero;fill:rgb(83.529412%,18.823529%,20.392157%);fill-opacity:1;" d="M 16.171875 13.109375 L 15.730469 13.089844 L 15.464844 13.070312 L 15.472656 13.078125 L 15.445312 13.511719 L 16.351562 13.570312 L 17.679688 13.625 L 17.582031 14.636719 L 17.5625 15.375 L 17.574219 15.441406 L 17.753906 15.59375 L 17.835938 15.640625 L 17.867188 15.632812 L 17.894531 15.546875 L 17.949219 15.621094 L 18.035156 15.621094 L 18.035156 15.566406 L 18.148438 15.621094 L 18.128906 15.78125 L 18.300781 15.792969 L 18.40625 15.839844 L 18.574219 15.867188 L 18.679688 15.945312 L 18.773438 15.859375 L 18.914062 15.886719 L 19.019531 16.03125 L 19.058594 16.03125 L 19.058594 16.125 L 19.152344 16.152344 L 19.246094 16.058594 L 19.320312 16.085938 L 19.425781 16.085938 L 19.464844 16.191406 L 19.664062 16.265625 L 19.71875 16.238281 L 19.796875 16.066406 L 19.84375 16.066406 L 19.890625 16.152344 L 20.058594 16.179688 L 20.210938 16.238281 L 20.332031 16.277344 L 20.410156 16.238281 L 20.4375 16.132812 L 20.617188 16.132812 L 20.703125 16.171875 L 20.816406 16.085938 L 20.863281 16.085938 L 20.890625 16.152344 L 21.0625 16.152344 L 21.128906 16.066406 L 21.203125 16.085938 L 21.289062 16.191406 L 21.421875 16.265625 L 21.554688 16.304688 L 21.632812 16.351562 L 21.617188 14.808594 L 21.5625 14.351562 L 21.554688 13.984375 L 21.496094 13.714844 L 21.464844 13.417969 L 21.460938 13.257812 L 20.957031 13.269531 L 19.039062 13.253906 L 17.175781 13.167969 Z M 16.171875 13.109375 "/>
<path style=" stroke:none;fill-rule:nonzero;fill:rgb(83.529412%,18.823529%,20.392157%);fill-opacity:1;" d="M 21.464844 13.214844 L 20.945312 13.222656 L 19.039062 13.207031 L 17.195312 13.121094 L 16.175781 13.066406 L 16.347656 10.382812 L 17.25 10.417969 L 18.925781 10.476562 L 20.75 10.492188 L 20.960938 10.492188 L 21.09375 10.628906 L 21.210938 10.636719 L 21.246094 10.679688 L 21.246094 10.765625 L 21.171875 10.832031 L 21.152344 10.9375 L 21.242188 11.089844 L 21.347656 11.21875 L 21.453125 11.300781 L 21.496094 11.765625 Z M 21.464844 13.214844 "/>
<path style=" stroke:none;fill-rule:nonzero;fill:rgb(100%,60%,60%);fill-opacity:1;" d="M 25.554688 19.347656 L 25.511719 19.238281 L 25.464844 19.109375 L 25.328125 18.960938 L 25.363281 18.683594 L 25.359375 18.636719 L 25.308594 18.648438 L 24.96875 18.6875 L 23.933594 18.707031 L 23.902344 18.605469 L 23.941406 18.257812 L 24.078125 18.011719 L 24.285156 17.648438 L 24.261719 17.550781 L 24.316406 17.523438 L 24.332031 17.441406 L 24.238281 17.355469 L 24.234375 17.277344 L 24.160156 17.09375 L 24.140625 16.847656 L 23.738281 16.855469 L 22.941406 16.890625 L 22.023438 16.894531 L 22.027344 17.289062 L 22.054688 17.679688 L 22.082031 17.839844 L 22.1875 18.011719 L 22.226562 18.21875 L 22.40625 18.445312 L 22.414062 18.578125 L 22.441406 18.605469 L 22.414062 18.957031 L 22.292969 19.167969 L 22.355469 19.25 L 22.328125 19.355469 L 22.300781 19.660156 L 22.242188 19.792969 L 22.25 19.941406 L 22.441406 19.878906 L 22.777344 19.867188 L 23.203125 20.011719 L 23.472656 20.058594 L 23.625 20 L 23.761719 20.046875 L 23.894531 20.085938 L 23.925781 20 L 23.792969 19.953125 L 23.6875 19.972656 L 23.574219 19.90625 C 23.574219 19.90625 23.578125 19.851562 23.605469 19.84375 C 23.632812 19.839844 23.734375 19.804688 23.734375 19.804688 L 23.804688 19.867188 L 23.878906 19.824219 L 24.015625 19.851562 L 24.074219 19.953125 L 24.085938 20.046875 L 24.273438 20.058594 L 24.347656 20.132812 L 24.316406 20.199219 L 24.261719 20.234375 L 24.328125 20.300781 L 24.675781 20.449219 L 24.824219 20.394531 L 24.863281 20.292969 L 24.96875 20.269531 L 25.042969 20.207031 L 25.097656 20.246094 L 25.128906 20.367188 L 25.035156 20.402344 L 25.0625 20.429688 L 25.203125 20.375 L 25.296875 20.234375 L 25.332031 20.214844 L 25.242188 20.199219 L 25.277344 20.132812 L 25.269531 20.074219 L 25.359375 20.054688 L 25.40625 20 L 25.429688 20.035156 C 25.429688 20.035156 25.425781 20.160156 25.457031 20.160156 C 25.492188 20.160156 25.632812 20.1875 25.632812 20.1875 L 25.800781 20.269531 L 25.839844 20.328125 L 25.960938 20.328125 L 26.007812 20.367188 L 26.101562 20.242188 L 26.101562 20.179688 L 26.046875 20.179688 L 25.90625 20.066406 L 25.664062 20.035156 L 25.53125 19.9375 L 25.578125 19.824219 L 25.671875 19.839844 L 25.679688 19.8125 L 25.605469 19.773438 L 25.605469 19.75 L 25.738281 19.75 L 25.8125 19.625 L 25.757812 19.542969 L 25.746094 19.429688 L 25.683594 19.4375 L 25.605469 19.523438 L 25.578125 19.632812 L 25.453125 19.605469 L 25.410156 19.53125 L 25.484375 19.449219 L 25.570312 19.375 Z M 25.554688 19.347656 "/>
<path style=" stroke:none;fill-rule:nonzero;fill:rgb(82.745098%,82.745098%,82.745098%);fill-opacity:1;" d="M 34.929688 10.898438 L 34.921875 10.816406 L 35.191406 10.710938 L 35.15625 10.847656 L 35.039062 11.003906 L 35.019531 11.191406 L 35.039062 11.332031 L 34.964844 11.539062 L 34.875 11.621094 L 34.8125 11.425781 L 34.832031 11.199219 L 34.898438 11.027344 Z M 35.023438 12.074219 L 32.617188 12.59375 L 31.070312 12.8125 L 30.792969 12.796875 L 30.6875 12.875 L 30.382812 12.886719 L 30.035156 12.925781 L 29.667969 12.964844 L 30.019531 12.761719 L 30.015625 12.675781 L 30.082031 12.585938 L 30.515625 12.109375 L 30.679688 12.292969 L 30.835938 12.335938 L 30.941406 12.289062 L 31.035156 12.234375 L 31.140625 12.289062 L 31.300781 12.230469 L 31.378906 12.039062 L 31.484375 12.0625 L 31.605469 11.976562 L 31.679688 11.996094 L 31.796875 11.84375 L 31.808594 11.757812 L 31.769531 11.703125 L 31.8125 11.625 L 32.03125 11.117188 L 32.054688 10.878906 L 32.105469 10.859375 L 32.195312 10.957031 L 32.359375 10.945312 L 32.4375 10.632812 L 32.554688 10.609375 L 32.597656 10.496094 L 32.703125 10.398438 L 32.757812 10.300781 L 32.820312 10.164062 L 32.824219 9.953125 L 33.230469 10.109375 C 33.257812 10.125 33.253906 9.914062 33.253906 9.914062 L 33.421875 9.96875 L 33.402344 10.078125 L 33.742188 10.199219 L 33.796875 10.273438 L 33.757812 10.425781 L 33.707031 10.480469 L 33.6875 10.554688 L 33.707031 10.652344 L 33.789062 10.707031 L 33.949219 10.765625 L 34.070312 10.808594 L 34.273438 10.847656 L 34.359375 10.933594 L 34.492188 10.949219 L 34.527344 11 L 34.511719 11.195312 L 34.566406 11.238281 L 34.546875 11.320312 L 34.597656 11.351562 L 34.589844 11.410156 L 34.476562 11.40625 L 34.480469 11.472656 L 34.574219 11.535156 L 34.582031 11.59375 L 34.65625 11.667969 L 34.675781 11.773438 L 34.570312 11.832031 L 34.632812 11.894531 L 34.875 11.824219 Z M 35.023438 12.074219 "/>
<path style=" stroke:none;fill-rule:nonzero;fill:rgb(82.745098%,82.745098%,82.745098%);fill-opacity:1;" d="M 33.804688 10.261719 L 33.761719 10.191406 L 33.71875 10.15625 L 33.765625 10.089844 L 33.859375 10.152344 Z M 33.804688 10.261719 "/>
<path style="fill:none;stroke-width:2;stroke-linecap:butt;stroke-linejoin:miter;stroke:rgb(66.27451%,66.27451%,66.27451%);stroke-opacity:1;stroke-miterlimit:4;" d="M 226.682692 486.639844 L 226.682692 541.663594 L 274.852764 601.963594 M 0 418.613906 L 159.622396 418.613906 L 226.682692 486.639844 L 312.633213 486.639844 L 365.620292 540.627187 L 365.620292 598.948594 " transform="matrix(0.0413574,0,0,0.0414594,0,0)"/>
</g>
</svg>
