<?xml version="1.0" encoding="UTF-8"?>
<svg xmlns="http://www.w3.org/2000/svg" xmlns:xlink="http://www.w3.org/1999/xlink" width="29pt" height="25pt" viewBox="0 0 29 25" version="1.1">
<g id="surface1">
<path style=" stroke:none;fill-rule:nonzero;fill:rgb(83.921569%,61.568627%,21.176471%);fill-opacity:1;" d="M 18.375 24.324219 C 18.207031 24.515625 17.992188 24.699219 17.789062 24.863281 C 16.480469 23.492188 14.941406 21.972656 13.480469 21.972656 C 12.574219 21.972656 11.917969 22.671875 11.15625 23.164062 C 10.101562 23.847656 8.652344 24.234375 7.410156 23.730469 C 6.742188 23.472656 6.09375 23.09375 5.609375 22.480469 C 6.585938 23.164062 8.050781 23.253906 9.15625 22.792969 C 10.375 22.277344 11.617188 21.597656 13.007812 21.597656 C 15.058594 21.597656 17.007812 23.003906 18.375 24.324219 Z M 3.222656 20.011719 C 4.578125 21.578125 6.792969 21.074219 8.605469 21.464844 C 8.855469 21.519531 9.09375 21.601562 9.363281 21.5625 C 9.148438 21.421875 8.863281 21.40625 8.617188 21.3125 C 7.210938 20.777344 6.992188 19.25 6.222656 18.203125 C 7.203125 18.863281 8.019531 19.769531 8.9375 20.621094 C 9.574219 21.214844 10.371094 21.46875 11.199219 21.636719 C 11 21.710938 10.742188 21.695312 10.527344 21.75 C 9.042969 22.121094 7.398438 22.710938 5.816406 22.183594 C 4.796875 21.839844 3.738281 21.035156 3.222656 20.011719 Z M 1.046875 16.390625 C 1.894531 18.332031 4.019531 18.484375 5.433594 19.675781 C 5.703125 19.902344 5.96875 20.109375 6.265625 20.25 L 6.28125 20.234375 C 5.953125 19.933594 5.601562 19.578125 5.347656 19.207031 C 4.539062 18.015625 4.808594 16.390625 4.1875 15.128906 C 4.753906 15.816406 5.285156 16.523438 5.609375 17.308594 C 6.132812 18.574219 6.3125 20.019531 7.488281 20.980469 C 6.214844 20.554688 4.746094 20.636719 3.597656 19.878906 C 2.394531 19.078125 1.277344 17.816406 1.046875 16.390625 Z M 0.140625 12.460938 C 0.261719 14.171875 2.0625 15.085938 2.917969 16.492188 C 3.101562 16.792969 3.289062 17.101562 3.554688 17.34375 C 3.515625 17.164062 3.367188 17 3.285156 16.824219 C 3.007812 16.21875 2.886719 15.523438 2.953125 14.804688 C 3.039062 13.929688 3.398438 13.117188 3.257812 12.199219 C 3.996094 13.816406 3.757812 15.835938 4.1875 17.582031 C 4.28125 17.96875 4.511719 18.304688 4.65625 18.671875 C 3.929688 18.113281 2.980469 17.617188 2.183594 16.980469 C 1.410156 16.363281 0.742188 15.644531 0.394531 14.707031 C 0.144531 14.03125 0.078125 13.222656 0.140625 12.460938 Z M 0.191406 9.308594 C 0.277344 8.929688 0.34375 8.535156 0.507812 8.183594 C 0.195312 9.796875 1.257812 10.960938 1.617188 12.359375 C 1.753906 12.882812 1.800781 13.445312 2.011719 13.933594 C 2.03125 13.945312 2.046875 13.925781 2.058594 13.910156 C 1.539062 12.421875 2.304688 11.050781 3.050781 9.878906 C 3.246094 9.570312 3.339844 9.210938 3.433594 8.851562 C 3.515625 9.523438 3.371094 10.300781 3.25 10.996094 C 3.089844 11.890625 2.789062 12.726562 2.550781 13.589844 C 2.394531 14.125 2.433594 14.734375 2.515625 15.296875 L 2.4375 15.238281 C 1.882812 14.199219 0.785156 13.386719 0.457031 12.25 C 0.191406 11.34375 0.0078125 10.296875 0.191406 9.308594 Z M 0.777344 7.574219 C 0.777344 6.355469 1.246094 5.359375 1.949219 4.449219 C 1.972656 4.4375 1.984375 4.417969 2.011719 4.421875 C 1.238281 5.617188 1.941406 7.125 1.84375 8.476562 L 1.742188 9.867188 C 1.753906 9.878906 1.753906 9.921875 1.792969 9.90625 C 1.835938 9.75 1.851562 9.585938 1.878906 9.425781 C 2.0625 8.304688 3.035156 7.523438 3.859375 6.730469 C 4.054688 6.546875 4.199219 6.324219 4.289062 6.085938 C 4.222656 6.644531 4.066406 7.214844 3.820312 7.722656 C 3.183594 9.023438 1.960938 10.074219 1.742188 11.550781 C 1.632812 10.136719 0.777344 9.082031 0.777344 7.574219 Z M 2.820312 3.457031 C 3.210938 3.019531 3.648438 2.675781 4.167969 2.542969 C 3.15625 3.246094 3.210938 4.503906 2.902344 5.554688 C 2.789062 5.9375 2.625 6.296875 2.535156 6.695312 L 2.558594 6.714844 C 2.726562 6.265625 3.015625 5.835938 3.390625 5.476562 C 4.101562 4.796875 5.171875 4.386719 5.523438 3.394531 C 5.503906 4.773438 4.34375 5.824219 3.285156 6.632812 C 2.808594 6.996094 2.402344 7.488281 2.15625 8 C 2.199219 7.617188 2.21875 7.300781 2.183594 6.929688 C 2.074219 5.722656 2.003906 4.371094 2.820312 3.457031 Z M 6.917969 1.136719 C 6.167969 1.800781 5.667969 2.660156 5.09375 3.429688 C 4.613281 4.070312 3.957031 4.46875 3.390625 5.007812 C 3.699219 4.367188 3.753906 3.632812 4.140625 3.011719 C 4.804688 1.949219 5.898438 1.539062 6.917969 1.136719 Z M 6.917969 1.136719 "/>
<path style=" stroke:none;fill-rule:nonzero;fill:rgb(83.921569%,61.568627%,21.176471%);fill-opacity:1;" d="M 10.625 24.324219 C 10.792969 24.515625 11.007812 24.699219 11.210938 24.863281 C 12.519531 23.492188 14.058594 21.972656 15.519531 21.972656 C 16.425781 21.972656 17.082031 22.671875 17.84375 23.164062 C 18.898438 23.847656 20.347656 24.234375 21.589844 23.730469 C 22.257812 23.472656 22.90625 23.09375 23.390625 22.480469 C 22.414062 23.164062 20.949219 23.253906 19.84375 22.792969 C 18.625 22.277344 17.382812 21.597656 15.992188 21.597656 C 13.941406 21.597656 11.992188 23.003906 10.625 24.324219 Z M 25.777344 20.011719 C 24.421875 21.578125 22.207031 21.074219 20.394531 21.464844 C 20.144531 21.519531 19.90625 21.601562 19.636719 21.5625 C 19.851562 21.421875 20.136719 21.40625 20.382812 21.3125 C 21.789062 20.777344 22.007812 19.25 22.777344 18.203125 C 21.796875 18.863281 20.980469 19.769531 20.0625 20.621094 C 19.425781 21.214844 18.628906 21.46875 17.800781 21.636719 C 18 21.710938 18.257812 21.695312 18.472656 21.75 C 19.957031 22.121094 21.601562 22.710938 23.183594 22.183594 C 24.203125 21.839844 25.261719 21.035156 25.777344 20.011719 Z M 27.953125 16.390625 C 27.105469 18.332031 24.980469 18.484375 23.566406 19.675781 C 23.296875 19.902344 23.03125 20.109375 22.734375 20.25 L 22.71875 20.234375 C 23.046875 19.933594 23.398438 19.578125 23.652344 19.207031 C 24.460938 18.015625 24.191406 16.390625 24.8125 15.128906 C 24.246094 15.816406 23.714844 16.523438 23.390625 17.308594 C 22.867188 18.574219 22.6875 20.019531 21.511719 20.980469 C 22.785156 20.554688 24.253906 20.636719 25.402344 19.878906 C 26.605469 19.078125 27.722656 17.816406 27.953125 16.390625 Z M 28.859375 12.460938 C 28.738281 14.171875 26.9375 15.085938 26.082031 16.492188 C 25.898438 16.792969 25.710938 17.101562 25.445312 17.34375 C 25.484375 17.164062 25.632812 17 25.714844 16.824219 C 25.992188 16.21875 26.113281 15.523438 26.046875 14.804688 C 25.960938 13.929688 25.601562 13.117188 25.742188 12.199219 C 25.003906 13.816406 25.242188 15.835938 24.8125 17.582031 C 24.71875 17.96875 24.488281 18.304688 24.34375 18.671875 C 25.070312 18.113281 26.019531 17.617188 26.816406 16.980469 C 27.589844 16.363281 28.257812 15.644531 28.605469 14.707031 C 28.855469 14.03125 28.921875 13.222656 28.859375 12.460938 Z M 28.808594 9.308594 C 28.722656 8.929688 28.65625 8.535156 28.492188 8.183594 C 28.804688 9.796875 27.742188 10.960938 27.382812 12.359375 C 27.246094 12.882812 27.199219 13.445312 26.988281 13.933594 C 26.96875 13.945312 26.953125 13.925781 26.941406 13.910156 C 27.460938 12.421875 26.695312 11.050781 25.949219 9.878906 C 25.753906 9.570312 25.660156 9.210938 25.566406 8.851562 C 25.484375 9.523438 25.628906 10.300781 25.75 10.996094 C 25.910156 11.890625 26.210938 12.726562 26.449219 13.589844 C 26.605469 14.125 26.566406 14.734375 26.484375 15.296875 L 26.5625 15.238281 C 27.117188 14.199219 28.214844 13.386719 28.542969 12.25 C 28.808594 11.34375 28.992188 10.296875 28.808594 9.308594 Z M 28.222656 7.574219 C 28.222656 6.355469 27.753906 5.359375 27.050781 4.449219 C 27.027344 4.4375 27.015625 4.417969 26.988281 4.421875 C 27.761719 5.617188 27.058594 7.125 27.15625 8.476562 L 27.257812 9.867188 C 27.246094 9.878906 27.246094 9.921875 27.207031 9.90625 C 27.164062 9.75 27.148438 9.585938 27.121094 9.425781 C 26.9375 8.304688 25.964844 7.523438 25.140625 6.730469 C 24.945312 6.546875 24.800781 6.324219 24.710938 6.085938 C 24.777344 6.644531 24.933594 7.214844 25.179688 7.722656 C 25.816406 9.023438 27.039062 10.074219 27.257812 11.550781 C 27.367188 10.136719 28.222656 9.082031 28.222656 7.574219 Z M 26.179688 3.457031 C 25.789062 3.019531 25.351562 2.675781 24.832031 2.542969 C 25.84375 3.246094 25.789062 4.503906 26.097656 5.554688 C 26.210938 5.9375 26.375 6.296875 26.464844 6.695312 L 26.441406 6.714844 C 26.273438 6.265625 25.984375 5.835938 25.609375 5.476562 C 24.898438 4.796875 23.828125 4.386719 23.476562 3.394531 C 23.496094 4.773438 24.65625 5.824219 25.714844 6.632812 C 26.191406 6.996094 26.597656 7.488281 26.84375 8 C 26.800781 7.617188 26.78125 7.300781 26.816406 6.929688 C 26.925781 5.722656 26.996094 4.371094 26.179688 3.457031 Z M 22.082031 1.136719 C 22.832031 1.800781 23.332031 2.660156 23.90625 3.429688 C 24.386719 4.070312 25.042969 4.46875 25.609375 5.007812 C 25.300781 4.367188 25.246094 3.632812 24.859375 3.011719 C 24.195312 1.949219 23.101562 1.539062 22.082031 1.136719 Z M 22.082031 1.136719 "/>
<path style=" stroke:none;fill-rule:nonzero;fill:rgb(83.921569%,61.568627%,21.176471%);fill-opacity:1;" d="M 23.652344 14.929688 L 23.433594 14.804688 C 22.964844 15.785156 22.339844 16.679688 21.597656 17.449219 L 20.304688 16.140625 C 20.9375 15.480469 21.449219 14.726562 21.824219 13.917969 L 21.605469 13.796875 C 21.234375 14.597656 20.734375 15.332031 20.128906 15.960938 L 18.957031 14.777344 C 19.460938 14.246094 19.859375 13.640625 20.148438 12.988281 L 19.929688 12.867188 C 19.648438 13.511719 19.257812 14.097656 18.78125 14.597656 L 17.488281 13.285156 C 17.847656 12.898438 18.125 12.457031 18.316406 11.972656 L 18.097656 11.855469 C 17.914062 12.324219 17.648438 12.75 17.3125 13.109375 L 16.136719 11.921875 C 16.472656 11.542969 16.667969 11.066406 16.695312 10.558594 L 18.359375 10.558594 C 18.34375 11.015625 18.25 11.449219 18.097656 11.855469 L 18.316406 11.972656 C 18.488281 11.527344 18.589844 11.050781 18.601562 10.558594 L 20.4375 10.558594 C 20.421875 11.378906 20.238281 12.160156 19.929688 12.867188 L 20.148438 12.988281 C 20.480469 12.230469 20.664062 11.410156 20.679688 10.558594 L 22.339844 10.558594 C 22.324219 11.714844 22.0625 12.808594 21.605469 13.796875 L 21.824219 13.917969 C 22.308594 12.878906 22.570312 11.738281 22.585938 10.558594 L 24.421875 10.558594 C 24.402344 12.078125 24.046875 13.519531 23.433594 14.804688 L 23.652344 14.929688 C 24.316406 13.546875 24.667969 12.019531 24.667969 10.433594 C 24.667969 9.089844 24.414062 7.785156 23.929688 6.574219 L 23.703125 6.671875 C 24.160156 7.816406 24.40625 9.042969 24.421875 10.3125 L 22.585938 10.3125 C 22.570312 9.300781 22.375 8.320312 22.015625 7.40625 L 21.792969 7.503906 C 22.136719 8.386719 22.328125 9.335938 22.34375 10.3125 L 20.683594 10.3125 C 20.667969 9.566406 20.523438 8.84375 20.265625 8.167969 L 20.039062 8.265625 C 20.285156 8.910156 20.421875 9.601562 20.4375 10.3125 L 18.601562 10.3125 C 18.589844 9.855469 18.503906 9.414062 18.355469 9 L 18.128906 9.097656 C 18.265625 9.484375 18.34375 9.890625 18.359375 10.3125 L 16.695312 10.3125 C 16.667969 9.804688 16.472656 9.328125 16.140625 8.949219 L 17.316406 7.761719 C 17.679688 8.152344 17.953125 8.605469 18.128906 9.097656 L 18.355469 9 C 18.164062 8.480469 17.875 8 17.488281 7.585938 L 18.785156 6.269531 C 19.335938 6.855469 19.761719 7.53125 20.039062 8.265625 L 20.265625 8.167969 C 19.972656 7.40625 19.535156 6.703125 18.957031 6.09375 L 20.132812 4.90625 C 20.859375 5.664062 21.417969 6.546875 21.792969 7.503906 L 22.015625 7.40625 C 21.628906 6.421875 21.054688 5.511719 20.304688 4.730469 L 21.601562 3.417969 C 22.519531 4.367188 23.226562 5.472656 23.703125 6.671875 L 23.929688 6.574219 C 23.425781 5.308594 22.671875 4.144531 21.691406 3.152344 C 20.707031 2.15625 19.554688 1.390625 18.300781 0.878906 L 18.207031 1.109375 C 19.394531 1.59375 20.488281 2.3125 21.429688 3.242188 L 20.132812 4.554688 C 19.371094 3.8125 18.492188 3.234375 17.539062 2.84375 L 17.449219 3.074219 C 18.371094 3.453125 19.222656 4.011719 19.957031 4.734375 L 18.785156 5.921875 C 18.214844 5.367188 17.554688 4.933594 16.84375 4.636719 L 16.753906 4.871094 C 17.433594 5.152344 18.066406 5.566406 18.613281 6.097656 L 17.316406 7.410156 C 16.949219 7.0625 16.535156 6.789062 16.082031 6.597656 L 15.992188 6.828125 C 16.414062 7.007812 16.800781 7.261719 17.140625 7.585938 L 15.964844 8.777344 C 15.59375 8.4375 15.125 8.242188 14.621094 8.214844 L 14.621094 6.53125 C 15.101562 6.542969 15.5625 6.648438 15.992188 6.828125 L 16.082031 6.597656 C 15.625 6.40625 15.132812 6.296875 14.621094 6.28125 L 14.621094 4.425781 C 15.363281 4.4375 16.085938 4.59375 16.753906 4.871094 L 16.84375 4.636719 C 16.144531 4.351562 15.394531 4.191406 14.621094 4.175781 L 14.621094 2.492188 C 15.605469 2.507812 16.5625 2.707031 17.449219 3.070312 L 17.539062 2.839844 C 16.621094 2.464844 15.636719 2.261719 14.621094 2.246094 L 14.621094 0.386719 C 15.871094 0.402344 17.082031 0.652344 18.207031 1.113281 L 18.300781 0.878906 C 17.109375 0.394531 15.824219 0.136719 14.5 0.136719 C 12.867188 0.136719 11.320312 0.53125 9.949219 1.230469 L 10.0625 1.445312 C 11.386719 0.773438 12.855469 0.40625 14.378906 0.386719 L 14.378906 2.246094 C 13.136719 2.265625 11.960938 2.570312 10.914062 3.097656 L 11.027344 3.3125 C 12.058594 2.792969 13.195312 2.511719 14.378906 2.492188 L 14.378906 4.175781 C 13.453125 4.195312 12.578125 4.417969 11.796875 4.804688 L 11.910156 5.023438 C 12.671875 4.648438 13.507812 4.441406 14.378906 4.421875 L 14.378906 6.28125 C 13.800781 6.296875 13.253906 6.4375 12.761719 6.671875 L 12.875 6.886719 C 13.339844 6.667969 13.851562 6.546875 14.378906 6.527344 L 14.378906 8.214844 C 14.121094 8.226562 13.875 8.289062 13.648438 8.382812 L 13.757812 8.601562 C 13.992188 8.507812 14.242188 8.457031 14.5 8.457031 C 15.023438 8.457031 15.511719 8.660156 15.882812 9.035156 C 16.253906 9.410156 16.457031 9.90625 16.457031 10.4375 C 16.457031 11.527344 15.578125 12.417969 14.5 12.417969 C 13.976562 12.417969 13.488281 12.210938 13.117188 11.835938 C 12.746094 11.464844 12.542969 10.964844 12.542969 10.4375 C 12.542969 9.90625 12.746094 9.410156 13.117188 9.035156 C 13.304688 8.847656 13.523438 8.699219 13.757812 8.601562 L 13.648438 8.382812 C 13.421875 8.480469 13.214844 8.613281 13.035156 8.777344 L 11.859375 7.585938 C 12.164062 7.296875 12.503906 7.0625 12.875 6.886719 L 12.761719 6.671875 C 12.363281 6.859375 12 7.109375 11.6875 7.410156 L 10.390625 6.097656 C 10.84375 5.652344 11.355469 5.292969 11.910156 5.023438 L 11.796875 4.804688 C 11.214844 5.09375 10.679688 5.472656 10.21875 5.921875 L 9.042969 4.730469 C 9.636719 4.148438 10.304688 3.671875 11.027344 3.3125 L 10.914062 3.097656 C 10.160156 3.476562 9.46875 3.96875 8.871094 4.558594 L 7.570312 3.242188 C 8.316406 2.507812 9.15625 1.90625 10.0625 1.445312 L 9.949219 1.230469 C 7.972656 2.238281 6.359375 3.878906 5.378906 5.894531 L 5.589844 6.007812 C 6.046875 5.066406 6.652344 4.191406 7.398438 3.417969 L 8.699219 4.734375 C 8.09375 5.367188 7.589844 6.09375 7.207031 6.894531 L 7.421875 7.011719 C 7.78125 6.246094 8.269531 5.535156 8.867188 4.90625 L 10.042969 6.097656 C 9.570312 6.597656 9.179688 7.175781 8.886719 7.8125 L 9.101562 7.929688 C 9.375 7.324219 9.75 6.765625 10.214844 6.273438 L 11.511719 7.585938 C 11.179688 7.941406 10.910156 8.359375 10.71875 8.816406 L 10.933594 8.933594 C 11.109375 8.503906 11.363281 8.109375 11.683594 7.761719 L 12.863281 8.953125 C 12.539062 9.320312 12.332031 9.792969 12.304688 10.3125 L 10.640625 10.3125 C 10.65625 9.832031 10.757812 9.367188 10.933594 8.933594 L 10.71875 8.816406 C 10.527344 9.277344 10.414062 9.78125 10.398438 10.3125 L 8.5625 10.3125 C 8.578125 9.476562 8.765625 8.667969 9.101562 7.929688 L 8.886719 7.8125 C 8.539062 8.578125 8.335938 9.421875 8.320312 10.3125 L 6.65625 10.3125 C 6.675781 9.152344 6.9375 8.03125 7.421875 7.011719 L 7.207031 6.894531 C 6.714844 7.933594 6.429688 9.089844 6.414062 10.3125 L 4.578125 10.3125 C 4.597656 8.796875 4.949219 7.332031 5.589844 6.007812 L 5.378906 5.894531 C 4.707031 7.265625 4.332031 8.804688 4.332031 10.4375 C 4.332031 11.433594 4.472656 12.410156 4.742188 13.339844 L 4.980469 13.277344 C 4.726562 12.40625 4.589844 11.492188 4.578125 10.5625 L 6.414062 10.5625 C 6.425781 11.339844 6.542969 12.097656 6.761719 12.824219 L 6.996094 12.765625 C 6.785156 12.058594 6.667969 11.316406 6.65625 10.5625 L 8.316406 10.5625 C 8.332031 11.175781 8.429688 11.78125 8.613281 12.351562 L 8.847656 12.292969 C 8.671875 11.738281 8.574219 11.15625 8.5625 10.5625 L 10.398438 10.5625 C 10.410156 11 10.488281 11.429688 10.632812 11.835938 L 10.871094 11.777344 C 10.734375 11.390625 10.65625 10.980469 10.640625 10.5625 L 12.304688 10.5625 C 12.332031 11.066406 12.527344 11.542969 12.859375 11.921875 L 11.683594 13.113281 C 11.320312 12.722656 11.046875 12.269531 10.871094 11.777344 L 10.632812 11.835938 C 10.820312 12.371094 11.117188 12.863281 11.511719 13.289062 L 10.214844 14.601562 C 9.585938 13.9375 9.125 13.148438 8.851562 12.292969 L 8.613281 12.351562 C 8.894531 13.25 9.378906 14.078125 10.042969 14.777344 L 8.867188 15.964844 C 7.992188 15.050781 7.355469 13.957031 7 12.765625 L 6.761719 12.824219 C 7.128906 14.058594 7.785156 15.191406 8.695312 16.140625 L 7.398438 17.453125 C 6.25 16.265625 5.433594 14.835938 4.980469 13.277344 L 4.742188 13.339844 C 5.214844 14.976562 6.085938 16.480469 7.308594 17.71875 C 8.140625 18.558594 9.085938 19.238281 10.117188 19.734375 L 10.238281 19.515625 C 9.265625 19.046875 8.363281 18.414062 7.570312 17.628906 L 8.867188 16.316406 C 9.542969 16.980469 10.3125 17.507812 11.140625 17.894531 L 11.261719 17.675781 C 10.449219 17.300781 9.699219 16.789062 9.042969 16.140625 L 10.214844 14.953125 C 10.765625 15.488281 11.398438 15.910156 12.082031 16.203125 L 12.203125 15.988281 C 11.539062 15.703125 10.925781 15.296875 10.390625 14.777344 L 11.6875 13.464844 C 12.101562 13.863281 12.585938 14.164062 13.113281 14.351562 L 13.234375 14.132812 C 12.730469 13.957031 12.261719 13.671875 11.859375 13.289062 L 13.035156 12.097656 C 13.410156 12.4375 13.878906 12.632812 14.378906 12.660156 L 14.378906 14.347656 C 13.984375 14.335938 13.601562 14.261719 13.234375 14.132812 L 13.113281 14.351562 C 13.515625 14.5 13.941406 14.582031 14.378906 14.59375 L 14.378906 16.453125 C 13.621094 16.4375 12.882812 16.277344 12.203125 15.988281 L 12.082031 16.203125 C 12.800781 16.515625 13.578125 16.683594 14.378906 16.699219 L 14.378906 18.382812 C 13.285156 18.363281 12.230469 18.121094 11.261719 17.675781 L 11.140625 17.894531 C 12.148438 18.359375 13.242188 18.613281 14.378906 18.628906 L 14.378906 20.488281 C 12.921875 20.46875 11.515625 20.132812 10.238281 19.515625 L 10.117188 19.734375 C 11.46875 20.390625 12.957031 20.738281 14.5 20.738281 C 16.121094 20.738281 17.679688 20.355469 19.082031 19.636719 L 18.96875 19.40625 C 17.65625 20.078125 16.183594 20.46875 14.625 20.488281 L 14.625 18.628906 C 15.859375 18.609375 17.050781 18.3125 18.128906 17.761719 L 18.015625 17.539062 C 16.992188 18.058594 15.839844 18.363281 14.625 18.382812 L 14.625 16.699219 C 15.550781 16.679688 16.445312 16.457031 17.253906 16.046875 L 17.140625 15.824219 C 16.378906 16.207031 15.527344 16.433594 14.625 16.453125 L 14.625 14.59375 C 15.214844 14.578125 15.785156 14.433594 16.300781 14.175781 L 16.1875 13.953125 C 15.714844 14.1875 15.183594 14.328125 14.625 14.347656 L 14.625 12.660156 C 15.125 12.632812 15.59375 12.4375 15.964844 12.097656 L 17.140625 13.289062 C 16.859375 13.554688 16.539062 13.78125 16.1875 13.953125 L 16.300781 14.175781 C 16.667969 13.992188 17.011719 13.753906 17.316406 13.464844 L 18.609375 14.777344 C 18.179688 15.195312 17.683594 15.550781 17.140625 15.824219 L 17.253906 16.046875 C 17.8125 15.765625 18.328125 15.402344 18.785156 14.953125 L 19.957031 16.140625 C 19.386719 16.699219 18.730469 17.171875 18.015625 17.539062 L 18.128906 17.761719 C 18.855469 17.390625 19.53125 16.910156 20.132812 16.316406 L 21.425781 17.628906 C 20.703125 18.339844 19.875 18.941406 18.96875 19.40625 L 19.082031 19.636719 C 20.035156 19.148438 20.914062 18.507812 21.691406 17.722656 C 22.507812 16.894531 23.164062 15.953125 23.65625 14.929688 Z M 23.652344 14.929688 "/>
<path style=" stroke:none;fill-rule:nonzero;fill:rgb(83.921569%,61.568627%,21.176471%);fill-opacity:1;" d="M 15.082031 8.050781 L 15.019531 8.054688 L 15.023438 8.128906 L 15.085938 8.125 Z M 15.082031 8.050781 "/>
<path style=" stroke:none;fill-rule:nonzero;fill:rgb(83.921569%,61.568627%,21.176471%);fill-opacity:1;" d="M 14.929688 7.953125 L 15.011719 7.953125 L 15.011719 8.015625 L 14.929688 8.015625 Z M 14.929688 7.953125 "/>
<path style=" stroke:none;fill-rule:nonzero;fill:rgb(83.921569%,61.568627%,21.176471%);fill-opacity:1;" d="M 14.78125 7.929688 L 14.855469 7.941406 L 14.863281 7.878906 L 14.792969 7.867188 Z M 14.78125 7.929688 "/>
<path style=" stroke:none;fill-rule:nonzero;fill:rgb(83.921569%,61.568627%,21.176471%);fill-opacity:1;" d="M 14.722656 7.910156 L 14.652344 7.898438 L 14.660156 7.835938 L 14.730469 7.847656 Z M 14.722656 7.910156 "/>
<path style=" stroke:none;fill-rule:nonzero;fill:rgb(83.921569%,61.568627%,21.176471%);fill-opacity:1;" d="M 14.132812 7.824219 L 14.214844 7.824219 L 14.214844 7.890625 L 14.132812 7.890625 Z M 14.132812 7.824219 "/>
<path style=" stroke:none;fill-rule:nonzero;fill:rgb(83.921569%,61.568627%,21.176471%);fill-opacity:1;" d="M 13.953125 7.953125 L 14.023438 7.960938 L 14.03125 7.898438 L 13.960938 7.890625 Z M 13.953125 7.953125 "/>
<path style=" stroke:none;fill-rule:nonzero;fill:rgb(83.921569%,61.568627%,21.176471%);fill-opacity:1;" d="M 13.960938 8.046875 L 13.878906 8.027344 L 13.890625 7.964844 L 13.976562 7.984375 Z M 13.960938 8.046875 "/>
<path style=" stroke:none;fill-rule:nonzero;fill:rgb(83.921569%,61.568627%,21.176471%);fill-opacity:1;" d="M 13.8125 8.125 L 13.800781 8.0625 L 13.863281 8.050781 L 13.875 8.113281 Z M 13.8125 8.125 "/>
<path style=" stroke:none;fill-rule:nonzero;fill:rgb(83.921569%,61.568627%,21.176471%);fill-opacity:1;" d="M 5.761719 14.59375 L 5.761719 14.730469 L 5.824219 14.730469 L 5.8125 14.574219 L 5.730469 14.542969 L 5.730469 14.488281 L 5.679688 14.488281 L 5.679688 14.59375 Z M 5.761719 14.59375 "/>
<path style=" stroke:none;fill-rule:nonzero;fill:rgb(83.921569%,61.568627%,21.176471%);fill-opacity:1;" d="M 6.191406 14.976562 L 6.34375 15.046875 L 6.398438 15.195312 L 6.46875 15.25 L 6.539062 15.40625 L 6.5 15.480469 L 6.386719 15.375 L 6.304688 15.257812 L 6.265625 15.164062 Z M 6.191406 14.976562 "/>
<path style=" stroke:none;fill-rule:nonzero;fill:rgb(83.921569%,61.568627%,21.176471%);fill-opacity:1;" d="M 8.785156 18.222656 L 8.839844 18.359375 L 8.765625 18.402344 L 8.726562 18.339844 L 8.621094 18.308594 L 8.613281 18.210938 L 8.53125 18.085938 L 8.652344 18.105469 Z M 8.785156 18.222656 "/>
<path style=" stroke:none;fill-rule:nonzero;fill:rgb(83.921569%,61.568627%,21.176471%);fill-opacity:1;" d="M 14.183594 8.734375 L 14.070312 8.734375 L 14.050781 8.5 L 14.109375 8.457031 L 14.109375 8.34375 L 13.75 8.34375 L 13.742188 8.226562 L 13.792969 8.195312 L 13.710938 8.164062 L 13.648438 8.246094 L 13.628906 8.34375 L 13.527344 8.363281 L 13.527344 8.417969 L 13.453125 8.417969 L 13.453125 8.554688 L 13.167969 8.796875 L 12.59375 8.773438 C 12.550781 8.871094 12.449219 8.765625 12.449219 8.765625 C 12.429688 8.699219 12.285156 8.765625 12.285156 8.765625 C 12.285156 8.878906 12.089844 8.710938 12.089844 8.710938 L 11.730469 8.449219 C 11.527344 8.257812 11.21875 8.5 11.207031 8.554688 C 11.21875 8.699219 10.972656 8.585938 10.972656 8.585938 C 10.972656 8.585938 10.765625 8.523438 10.734375 8.605469 C 10.707031 8.691406 10.570312 8.667969 10.570312 8.667969 L 10.550781 8.710938 L 10.449219 8.734375 L 10.429688 8.796875 L 10.304688 8.816406 L 10.613281 8.804688 C 10.695312 8.796875 10.582031 8.984375 10.53125 8.976562 L 10.386719 8.984375 L 10.335938 9.039062 L 10.203125 9.039062 L 10.140625 9.121094 L 9.945312 9.113281 C 9.945312 9.113281 9.832031 9.207031 9.84375 9.238281 C 9.855469 9.269531 9.824219 9.367188 9.792969 9.367188 C 9.761719 9.367188 9.699219 9.460938 9.71875 9.492188 C 9.742188 9.523438 9.660156 9.628906 9.660156 9.628906 L 9.636719 9.734375 L 9.578125 9.753906 L 9.578125 10.039062 L 9.453125 10.125 L 9.453125 10.25 L 9.269531 10.453125 L 9.289062 10.621094 L 9.136719 10.789062 L 9.15625 10.957031 L 9.0625 10.988281 L 9.042969 11.0625 L 9.003906 11.285156 L 9.105469 11.296875 C 9.15625 11.273438 9.144531 11.433594 9.105469 11.453125 C 9.0625 11.472656 8.953125 11.515625 9.011719 11.558594 C 9.074219 11.601562 8.847656 11.589844 8.847656 11.527344 C 8.847656 11.464844 8.726562 11.410156 8.695312 11.433594 C 8.664062 11.453125 8.613281 11.335938 8.613281 11.335938 C 8.5 11.222656 8.152344 11.347656 8.152344 11.347656 L 8.101562 11.515625 C 7.988281 11.539062 7.914062 11.726562 7.914062 11.726562 C 7.824219 11.757812 7.75 11.875 7.78125 11.90625 C 7.8125 11.9375 7.730469 11.949219 7.730469 11.949219 L 7.730469 12.179688 L 7.679688 12.253906 L 7.691406 12.507812 C 7.75 12.507812 7.742188 12.625 7.742188 12.625 C 7.636719 12.632812 7.660156 12.769531 7.660156 12.769531 L 7.445312 12.84375 L 7.402344 12.90625 L 7.136719 12.898438 L 7.0625 12.972656 L 6.992188 12.898438 L 6.480469 12.898438 L 6.457031 12.84375 L 6.355469 12.824219 L 6.347656 12.707031 L 6.191406 12.71875 L 6.160156 12.78125 L 5.996094 12.792969 C 6.007812 12.898438 5.832031 13.054688 5.8125 13.015625 C 5.792969 12.972656 5.679688 12.855469 5.730469 12.835938 C 5.78125 12.8125 5.914062 12.792969 5.914062 12.792969 L 5.914062 12.71875 L 5.535156 12.707031 L 5.496094 12.769531 L 5.339844 12.78125 L 5.339844 12.949219 L 5.269531 12.972656 C 5.21875 13.003906 5.277344 13.117188 5.277344 13.117188 C 5.351562 13.191406 5.269531 13.308594 5.269531 13.308594 C 5.207031 13.371094 5.320312 13.488281 5.320312 13.488281 C 5.402344 13.507812 5.269531 13.574219 5.269531 13.574219 C 5.289062 13.679688 5.351562 13.710938 5.351562 13.710938 C 5.289062 13.816406 5.390625 13.867188 5.390625 13.867188 L 5.402344 14.046875 L 5.472656 14.089844 L 5.472656 14.203125 L 5.515625 14.277344 L 5.679688 14.277344 L 5.667969 14.015625 C 5.527344 13.847656 5.792969 13.804688 5.800781 13.867188 C 5.8125 13.929688 5.925781 13.960938 5.925781 13.960938 C 5.945312 14.121094 6.121094 14.214844 6.171875 14.058594 C 6.222656 13.898438 6.265625 13.992188 6.292969 14.066406 C 6.324219 14.140625 6.519531 14.320312 6.519531 14.320312 L 6.675781 14.320312 L 6.695312 14.46875 C 6.871094 14.457031 6.921875 14.480469 6.992188 14.722656 C 7.0625 14.964844 7.257812 15.027344 7.257812 15.027344 L 7.402344 15.015625 C 7.402344 14.890625 7.546875 15.039062 7.546875 15.101562 C 7.546875 15.164062 7.824219 15.40625 7.824219 15.40625 L 8.101562 15.46875 L 8.355469 15.679688 L 8.550781 15.660156 L 8.632812 15.660156 C 8.683594 15.480469 8.929688 15.671875 8.953125 15.734375 C 8.972656 15.796875 9.136719 15.902344 9.15625 15.851562 C 9.175781 15.796875 9.289062 15.828125 9.308594 15.988281 C 9.332031 16.144531 9.402344 16.113281 9.402344 16.113281 L 9.988281 16.101562 L 10.191406 15.921875 L 10.714844 15.914062 C 10.980469 15.902344 10.816406 15.535156 10.765625 15.535156 C 10.675781 15.460938 10.796875 15.152344 10.796875 15.152344 L 10.050781 14.449219 C 9.875 14.449219 10.027344 14.195312 10.027344 14.195312 C 10.160156 14.109375 9.996094 13.972656 9.996094 13.972656 C 10.019531 13.847656 9.925781 13.699219 9.925781 13.699219 C 9.742188 13.570312 9.792969 13.328125 9.792969 13.328125 L 9.792969 13.160156 C 9.636719 13.011719 9.855469 12.992188 9.855469 12.992188 C 9.925781 12.867188 9.800781 12.769531 9.800781 12.769531 L 9.792969 12.632812 L 9.628906 12.613281 L 9.609375 12.117188 L 9.238281 11.578125 C 9.167969 11.558594 9.21875 11.433594 9.21875 11.433594 C 9.308594 11.378906 9.199219 11.253906 9.199219 11.253906 L 9.1875 11.019531 L 9.402344 11 L 9.453125 10.914062 L 9.554688 10.914062 L 9.546875 10.640625 C 9.597656 10.503906 9.71875 10.578125 9.71875 10.578125 L 9.863281 10.589844 L 9.945312 10.429688 L 9.964844 10.304688 L 9.855469 10.292969 C 9.730469 10.21875 9.792969 9.945312 9.792969 9.945312 C 9.988281 9.648438 10.210938 9.820312 10.210938 9.820312 L 10.355469 9.808594 C 10.570312 9.957031 10.375 10.230469 10.375 10.230469 C 10.335938 10.292969 10.355469 10.492188 10.355469 10.492188 L 10.40625 10.832031 L 10.273438 10.945312 C 10.160156 11.011719 10.160156 11.15625 10.285156 11.1875 C 10.367188 11.199219 10.335938 11.398438 10.210938 11.261719 C 10.027344 11.261719 10.316406 11.433594 10.234375 11.390625 C 10.417969 11.484375 10.375 11.304688 10.375 11.304688 L 10.625 11.105469 C 10.714844 11.03125 10.878906 11.261719 10.878906 11.292969 C 10.878906 11.328125 11.289062 11.304688 11.289062 11.304688 C 11.402344 11.378906 11.445312 11.570312 11.445312 11.570312 C 11.558594 11.421875 11.792969 11.558594 11.617188 11.640625 C 11.78125 11.746094 11.78125 11.84375 11.78125 11.84375 C 11.914062 11.800781 11.914062 11.90625 11.914062 11.9375 C 11.914062 11.96875 11.957031 11.78125 11.957031 11.78125 C 11.800781 11.664062 12.160156 11.621094 12.058594 11.832031 L 11.996094 11.925781 L 12.101562 12.011719 L 12.109375 12.253906 C 12.335938 12.234375 12.273438 11.949219 12.273438 11.949219 L 12.378906 11.925781 C 12.378906 11.832031 12.449219 11.886719 12.449219 11.886719 C 12.378906 11.527344 12.613281 11.464844 12.613281 11.464844 C 12.746094 11.433594 12.757812 11.148438 12.757812 11.148438 C 12.664062 11.105469 12.714844 10.957031 12.816406 11.082031 C 12.921875 11.210938 12.757812 10.832031 12.757812 10.832031 L 12.675781 10.757812 L 12.5625 10.746094 L 12.550781 10.628906 L 12.367188 10.628906 L 12.335938 10.777344 L 12.265625 10.800781 L 12.242188 10.757812 L 12.214844 10.871094 L 12.027344 10.871094 L 12.019531 10.746094 L 12.132812 10.714844 L 12.171875 10.652344 L 12.203125 10.484375 L 12.335938 10.484375 L 12.511719 10.429688 C 12.519531 10.25 12.613281 10.292969 12.613281 10.292969 L 12.675781 10.34375 L 12.765625 10.417969 L 12.777344 10.484375 L 12.714844 10.515625 L 12.707031 10.597656 L 12.734375 10.714844 L 12.816406 10.714844 C 12.847656 10.546875 13.0625 10.546875 13.125 10.652344 L 13.1875 10.503906 C 13.042969 10.429688 13.183594 10.3125 13.226562 10.367188 C 13.265625 10.417969 13.363281 10.230469 13.363281 10.230469 C 13.363281 10.230469 13.433594 10.324219 13.363281 10.199219 C 13.289062 10.070312 13.414062 10.007812 13.414062 10.007812 C 13.394531 9.882812 13.546875 9.902344 13.546875 9.902344 L 13.558594 9.734375 L 13.414062 9.722656 C 13.382812 9.871094 13.257812 9.746094 13.320312 9.714844 C 13.382812 9.679688 13.445312 9.617188 13.445312 9.617188 L 13.445312 9.511719 L 13.503906 9.492188 L 13.515625 9.386719 L 13.667969 9.386719 L 13.804688 9.324219 L 13.832031 9.269531 L 13.976562 9.257812 L 14.183594 9.070312 L 14.160156 8.984375 C 14.039062 8.984375 14.160156 8.890625 14.160156 8.890625 Z M 14.183594 8.734375 "/>
<path style=" stroke:none;fill-rule:nonzero;fill:rgb(83.921569%,61.568627%,21.176471%);fill-opacity:1;" d="M 10.046875 10.820312 L 9.863281 10.800781 L 9.875 10.871094 L 9.925781 10.871094 C 10.007812 11.019531 9.9375 11.378906 9.9375 11.378906 C 9.9375 11.378906 9.8125 11.390625 9.792969 11.328125 C 9.773438 11.261719 9.71875 11.464844 9.761719 11.496094 C 9.800781 11.527344 9.945312 11.496094 9.957031 11.609375 C 9.964844 11.726562 10.046875 11.539062 10.046875 11.539062 Z M 10.046875 10.820312 "/>
<path style=" stroke:none;fill-rule:nonzero;fill:rgb(83.921569%,61.568627%,21.176471%);fill-opacity:1;" d="M 9.863281 11.675781 L 9.863281 11.925781 L 10.027344 12.148438 L 10.089844 12 L 10.109375 11.90625 L 10.039062 11.875 L 10.046875 11.714844 L 10.109375 11.707031 L 10.121094 11.632812 L 9.964844 11.738281 Z M 9.863281 11.675781 "/>
<path style=" stroke:none;fill-rule:nonzero;fill:rgb(83.921569%,61.568627%,21.176471%);fill-opacity:1;" d="M 10.128906 12.378906 L 10.128906 12.273438 L 10.058594 12.285156 L 10.046875 12.371094 Z M 10.128906 12.378906 "/>
<path style=" stroke:none;fill-rule:nonzero;fill:rgb(83.921569%,61.568627%,21.176471%);fill-opacity:1;" d="M 10.039062 12.886719 L 10.039062 12.8125 L 9.953125 12.824219 L 9.953125 12.898438 Z M 10.039062 12.886719 "/>
<path style=" stroke:none;fill-rule:nonzero;fill:rgb(83.921569%,61.568627%,21.176471%);fill-opacity:1;" d="M 10.160156 12.5625 C 10.183594 12.5625 10.203125 12.542969 10.203125 12.519531 C 10.203125 12.492188 10.183594 12.472656 10.160156 12.472656 C 10.136719 12.472656 10.117188 12.492188 10.117188 12.519531 C 10.117188 12.542969 10.136719 12.5625 10.160156 12.5625 Z M 10.160156 12.5625 "/>
<path style=" stroke:none;fill-rule:nonzero;fill:rgb(83.921569%,61.568627%,21.176471%);fill-opacity:1;" d="M 10.273438 12.738281 C 10.273438 12.765625 10.253906 12.785156 10.230469 12.785156 C 10.207031 12.785156 10.1875 12.765625 10.1875 12.738281 C 10.1875 12.714844 10.207031 12.695312 10.230469 12.695312 C 10.253906 12.695312 10.273438 12.714844 10.273438 12.738281 Z M 10.273438 12.738281 "/>
<path style=" stroke:none;fill-rule:nonzero;fill:rgb(83.921569%,61.568627%,21.176471%);fill-opacity:1;" d="M 10.277344 11.535156 C 10.277344 11.558594 10.257812 11.578125 10.234375 11.578125 C 10.210938 11.578125 10.191406 11.558594 10.191406 11.535156 C 10.191406 11.511719 10.210938 11.488281 10.234375 11.488281 C 10.257812 11.488281 10.277344 11.511719 10.277344 11.535156 Z M 10.277344 11.535156 "/>
<path style=" stroke:none;fill-rule:nonzero;fill:rgb(83.921569%,61.568627%,21.176471%);fill-opacity:1;" d="M 13.527344 10.101562 L 13.585938 10.101562 L 13.597656 10.167969 L 13.554688 10.207031 L 13.535156 10.261719 L 13.453125 10.28125 L 13.269531 10.460938 L 13.257812 10.546875 L 13.207031 10.621094 L 13.148438 10.777344 L 12.929688 10.789062 L 12.890625 10.976562 L 12.921875 11.136719 L 13.105469 11.210938 L 13.125 11.105469 L 13.1875 11.074219 L 13.199219 10.96875 L 13.238281 10.894531 L 13.300781 10.820312 L 13.320312 10.734375 L 13.421875 10.671875 L 13.546875 10.652344 L 13.597656 10.589844 L 13.617188 10.460938 L 13.625 10.367188 L 13.667969 10.304688 L 13.792969 10.25 L 13.792969 10.050781 L 13.730469 10.050781 L 13.722656 9.976562 L 13.609375 9.964844 L 13.585938 10.019531 L 13.535156 10.019531 Z M 13.527344 10.101562 "/>
<path style=" stroke:none;fill-rule:nonzero;fill:rgb(83.921569%,61.568627%,21.176471%);fill-opacity:1;" d="M 14.007812 10.695312 L 14.007812 10.546875 L 13.988281 10.410156 L 13.832031 10.335938 L 13.71875 10.441406 L 13.699219 10.589844 L 13.699219 10.683594 L 13.597656 10.703125 L 13.578125 10.988281 L 13.496094 11.019531 L 13.503906 11.125 L 13.390625 11.15625 L 13.28125 11.191406 L 13.257812 11.328125 L 13.175781 11.378906 L 13.136719 11.507812 L 13.085938 11.8125 C 13.085938 11.8125 13.175781 11.992188 13.226562 11.90625 C 13.28125 11.820312 13.363281 11.8125 13.363281 11.8125 L 13.390625 11.738281 L 13.667969 11.75 C 13.691406 11.632812 13.824219 11.675781 13.824219 11.726562 C 13.824219 11.78125 13.925781 11.738281 13.925781 11.738281 L 13.996094 11.621094 L 14.109375 11.621094 L 14.121094 11.496094 L 14.171875 11.464844 L 14.171875 11.273438 C 14.335938 11.222656 14.316406 11.0625 14.316406 11.0625 L 14.355469 11.011719 L 14.335938 10.9375 C 14.253906 10.90625 14.292969 10.832031 14.347656 10.851562 C 14.398438 10.875 14.273438 10.757812 14.273438 10.757812 C 14.210938 10.808594 14.160156 10.695312 14.160156 10.695312 Z M 14.007812 10.695312 "/>
<path style=" stroke:none;fill-rule:nonzero;fill:rgb(83.921569%,61.568627%,21.176471%);fill-opacity:1;" d="M 14.171875 11.96875 C 14.160156 12.097656 14.007812 12.136719 14.007812 12.136719 L 13.894531 12.105469 L 13.832031 12.054688 L 13.824219 11.90625 L 13.914062 11.894531 L 13.9375 11.960938 Z M 14.171875 11.96875 "/>
<path style=" stroke:none;fill-rule:nonzero;fill:rgb(83.921569%,61.568627%,21.176471%);fill-opacity:1;" d="M 14.726562 11.296875 C 14.746094 11.386719 14.746094 11.148438 14.789062 11.15625 C 14.828125 11.167969 14.796875 11.011719 14.796875 11.011719 L 14.613281 11.148438 C 14.707031 11.15625 14.714844 11.253906 14.726562 11.296875 Z M 14.726562 11.296875 "/>
<path style=" stroke:none;fill-rule:nonzero;fill:rgb(83.921569%,61.568627%,21.176471%);fill-opacity:1;" d="M 15.269531 10.746094 C 15.308594 10.839844 15.300781 10.976562 15.453125 11.082031 C 15.503906 11.121094 15.421875 11.1875 15.371094 11.15625 C 15.320312 11.125 15.175781 10.894531 15.175781 10.894531 L 15.175781 10.757812 C 15.207031 10.671875 15.25 10.707031 15.269531 10.746094 Z M 15.269531 10.746094 "/>
<path style=" stroke:none;fill-rule:nonzero;fill:rgb(83.921569%,61.568627%,21.176471%);fill-opacity:1;" d="M 15.269531 13.953125 L 15.300781 13.984375 L 15.332031 14.035156 L 15.402344 13.921875 L 15.339844 13.898438 Z M 15.269531 13.953125 "/>
<path style=" stroke:none;fill-rule:nonzero;fill:rgb(83.921569%,61.568627%,21.176471%);fill-opacity:1;" d="M 16.496094 13.628906 L 16.578125 13.578125 L 16.546875 13.523438 L 16.464844 13.578125 Z M 16.496094 13.628906 "/>
<path style=" stroke:none;fill-rule:nonzero;fill:rgb(83.921569%,61.568627%,21.176471%);fill-opacity:1;" d="M 19.464844 15.828125 L 19.558594 15.871094 L 19.566406 16.050781 C 19.691406 16.175781 20.089844 16.070312 20.089844 16.039062 C 20.089844 16.007812 20.070312 15.648438 20.070312 15.648438 L 20.019531 15.597656 L 20.007812 15.332031 C 20.050781 15.195312 19.8125 14.996094 19.792969 15.039062 C 19.773438 15.078125 19.640625 15.046875 19.640625 15.089844 C 19.640625 15.132812 19.558594 15.34375 19.597656 15.417969 C 19.640625 15.492188 19.566406 15.492188 19.558594 15.566406 C 19.546875 15.640625 19.445312 15.765625 19.464844 15.828125 Z M 19.464844 15.828125 "/>
<path style=" stroke:none;fill-rule:nonzero;fill:rgb(83.921569%,61.568627%,21.176471%);fill-opacity:1;" d="M 19.238281 15.40625 C 19.21875 15.488281 19.148438 15.535156 19.105469 15.5 C 19.0625 15.46875 19.15625 15.554688 19.175781 15.597656 C 19.199219 15.640625 19.257812 15.640625 19.28125 15.597656 C 19.300781 15.554688 19.289062 15.460938 19.3125 15.417969 C 19.332031 15.375 19.25 15.363281 19.238281 15.40625 Z M 19.238281 15.40625 "/>
<path style=" stroke:none;fill-rule:nonzero;fill:rgb(83.921569%,61.568627%,21.176471%);fill-opacity:1;" d="M 18.761719 13.472656 L 18.832031 13.472656 L 18.832031 13.671875 L 18.761719 13.671875 Z M 18.761719 13.472656 "/>
<path style=" stroke:none;fill-rule:nonzero;fill:rgb(83.921569%,61.568627%,21.176471%);fill-opacity:1;" d="M 19.824219 11.441406 C 19.777344 11.382812 20.027344 11.273438 20.070312 11.402344 C 20.109375 11.527344 20.070312 11.507812 20.027344 11.496094 C 19.988281 11.484375 19.886719 11.527344 19.824219 11.441406 Z M 19.824219 11.441406 "/>
<path style=" stroke:none;fill-rule:nonzero;fill:rgb(83.921569%,61.568627%,21.176471%);fill-opacity:1;" d="M 20.042969 10.03125 L 20.035156 10.09375 L 20.144531 10.113281 L 20.15625 10.050781 Z M 20.042969 10.03125 "/>
<path style=" stroke:none;fill-rule:nonzero;fill:rgb(83.921569%,61.568627%,21.176471%);fill-opacity:1;" d="M 19.757812 10.210938 L 19.765625 10.230469 L 19.820312 10.207031 L 19.800781 10.15625 L 19.789062 10.121094 L 19.757812 10.140625 L 19.679688 10.183594 L 19.613281 10.140625 L 19.582031 10.191406 L 19.664062 10.246094 L 19.679688 10.253906 L 19.695312 10.246094 Z M 19.757812 10.210938 "/>
<path style=" stroke:none;fill-rule:nonzero;fill:rgb(83.921569%,61.568627%,21.176471%);fill-opacity:1;" d="M 20.140625 7.644531 L 19.988281 7.644531 C 19.988281 7.644531 20.039062 7.667969 19.894531 7.53125 C 19.75 7.394531 19.660156 7.5625 19.660156 7.5625 L 19.496094 7.582031 L 19.496094 7.75 L 19.414062 7.785156 L 19.421875 7.890625 L 19.535156 7.878906 C 19.535156 7.878906 19.535156 8.003906 19.566406 7.953125 C 19.597656 7.898438 19.855469 7.960938 19.832031 8.089844 C 19.824219 8.140625 20.089844 8.277344 20.058594 8.449219 C 20.191406 8.46875 20.160156 8.605469 20.160156 8.605469 L 20.335938 8.628906 L 20.386719 8.523438 L 20.4375 8.53125 L 20.4375 8.46875 L 20.324219 8.4375 L 20.304688 8.101562 L 20.234375 8.046875 L 20.253906 7.960938 L 20.171875 7.929688 L 20.214844 7.792969 Z M 20.140625 7.644531 "/>
<path style=" stroke:none;fill-rule:nonzero;fill:rgb(83.921569%,61.568627%,21.176471%);fill-opacity:1;" d="M 20.59375 8.722656 L 20.511719 8.710938 L 20.324219 8.742188 L 20.222656 8.945312 C 20.222656 8.945312 20.273438 8.976562 20.316406 9.050781 C 20.355469 9.121094 20.378906 9.554688 20.253906 9.628906 C 20.132812 9.703125 20.265625 9.660156 20.265625 9.660156 L 20.242188 9.890625 C 20.273438 9.996094 20.324219 9.945312 20.355469 9.890625 C 20.386719 9.839844 20.417969 9.828125 20.460938 9.777344 C 20.5 9.722656 20.5625 9.628906 20.570312 9.554688 C 20.582031 9.480469 20.632812 9.367188 20.601562 9.332031 C 20.570312 9.300781 20.632812 9.15625 20.632812 9.15625 C 20.632812 9.15625 20.675781 9.070312 20.632812 8.984375 C 20.59375 8.902344 20.644531 8.804688 20.675781 8.765625 Z M 20.59375 8.722656 "/>
<path style=" stroke:none;fill-rule:nonzero;fill:rgb(83.921569%,61.568627%,21.176471%);fill-opacity:1;" d="M 20.714844 9.152344 L 20.726562 9.066406 L 20.789062 9.074219 L 20.777344 9.160156 Z M 20.714844 9.152344 "/>
<path style=" stroke:none;fill-rule:nonzero;fill:rgb(83.921569%,61.568627%,21.176471%);fill-opacity:1;" d="M 20.710938 9.445312 L 20.65625 9.414062 L 20.6875 9.351562 L 20.742188 9.378906 Z M 20.710938 9.445312 "/>
<path style=" stroke:none;fill-rule:nonzero;fill:rgb(83.921569%,61.568627%,21.176471%);fill-opacity:1;" d="M 20.625 8.605469 L 20.582031 8.511719 C 20.582031 8.511719 20.582031 8.425781 20.601562 8.386719 C 20.625 8.34375 20.5625 8.300781 20.53125 8.289062 C 20.5 8.28125 20.511719 8.195312 20.5 8.152344 C 20.488281 8.109375 20.417969 8.078125 20.417969 8.078125 C 20.417969 8.078125 20.398438 7.921875 20.398438 7.890625 C 20.398438 7.859375 20.304688 7.816406 20.335938 7.785156 C 20.367188 7.753906 20.386719 7.710938 20.417969 7.6875 C 20.449219 7.667969 20.386719 7.519531 20.4375 7.550781 C 20.488281 7.582031 20.488281 7.636719 20.511719 7.679688 C 20.53125 7.71875 20.5 7.867188 20.550781 7.898438 C 20.601562 7.929688 20.542969 8.035156 20.625 8.035156 C 20.707031 8.035156 20.652344 8.238281 20.652344 8.238281 C 20.652344 8.238281 20.632812 8.386719 20.683594 8.394531 C 20.734375 8.40625 20.707031 8.660156 20.707031 8.660156 Z M 20.625 8.605469 "/>
<path style=" stroke:none;fill-rule:nonzero;fill:rgb(83.921569%,61.568627%,21.176471%);fill-opacity:1;" d="M 19.957031 6.898438 C 19.988281 6.941406 20.050781 6.972656 20.050781 7.015625 C 20.050781 7.054688 20.027344 7.085938 20.089844 7.097656 C 20.152344 7.109375 20.191406 7.085938 20.214844 7.140625 C 20.234375 7.191406 20.234375 7.277344 20.222656 7.320312 C 20.214844 7.363281 20.234375 7.425781 20.285156 7.425781 C 20.335938 7.425781 20.347656 7.433594 20.347656 7.46875 C 20.347656 7.5 20.410156 7.351562 20.410156 7.351562 C 20.355469 7.308594 20.316406 7.214844 20.316406 7.214844 C 20.316406 7.214844 20.265625 7.066406 20.265625 7.046875 C 20.265625 7.023438 20.191406 7.003906 20.164062 6.992188 C 20.132812 6.980469 20.078125 6.886719 20.078125 6.886719 Z M 19.957031 6.898438 "/>
<path style=" stroke:none;fill-rule:nonzero;fill:rgb(83.921569%,61.568627%,21.176471%);fill-opacity:1;" d="M 20.058594 6.804688 C 20.027344 6.761719 19.996094 6.730469 19.957031 6.707031 C 19.914062 6.6875 19.886719 6.667969 19.84375 6.667969 C 19.804688 6.667969 19.761719 6.625 19.78125 6.570312 C 19.804688 6.519531 19.75 6.496094 19.75 6.457031 C 19.75 6.414062 19.78125 6.414062 19.832031 6.445312 C 19.886719 6.476562 19.875 6.488281 19.914062 6.539062 C 19.957031 6.59375 19.976562 6.644531 20.019531 6.632812 C 20.058594 6.625 20.089844 6.730469 20.132812 6.699219 C 20.171875 6.667969 20.160156 6.773438 20.160156 6.773438 Z M 20.058594 6.804688 "/>
<path style=" stroke:none;fill-rule:nonzero;fill:rgb(83.921569%,61.568627%,21.176471%);fill-opacity:1;" d="M 18.859375 7.996094 C 18.914062 8.054688 18.550781 8.035156 18.550781 7.996094 C 18.550781 7.953125 18.582031 7.804688 18.675781 7.835938 C 18.765625 7.867188 18.777344 7.648438 18.777344 7.648438 C 18.777344 7.648438 18.695312 7.65625 18.765625 7.613281 C 18.839844 7.574219 18.765625 7.507812 18.734375 7.476562 C 18.707031 7.445312 18.675781 7.394531 18.675781 7.394531 L 18.816406 7.394531 C 18.878906 7.351562 18.898438 7.152344 18.898438 7.152344 C 19.023438 7.191406 19.085938 7.109375 19.085938 7.109375 C 19.085938 7.109375 19.105469 7.171875 19.148438 7.226562 C 19.1875 7.277344 19.042969 7.296875 19.09375 7.332031 C 19.148438 7.363281 19.167969 7.457031 19.148438 7.488281 C 19.125 7.519531 19.011719 7.5 19.011719 7.457031 C 19.011719 7.414062 18.972656 7.507812 19.011719 7.5625 C 19.054688 7.613281 18.960938 7.6875 18.941406 7.6875 C 18.921875 7.6875 18.789062 7.710938 18.898438 7.773438 C 19.011719 7.835938 19.136719 7.804688 19.136719 7.804688 C 19.136719 7.804688 19.230469 7.792969 19.257812 7.847656 C 19.289062 7.898438 19.25 7.910156 19.199219 7.910156 C 19.148438 7.910156 18.898438 7.890625 18.898438 7.890625 C 18.898438 7.890625 18.828125 7.960938 18.859375 7.996094 Z M 18.859375 7.996094 "/>
<path style=" stroke:none;fill-rule:nonzero;fill:rgb(83.921569%,61.568627%,21.176471%);fill-opacity:1;" d="M 18.203125 8.089844 C 18.253906 8.078125 18.378906 8.070312 18.398438 8.101562 C 18.417969 8.132812 18.324219 8.171875 18.324219 8.171875 L 18.203125 8.195312 C 18.160156 8.140625 18.152344 8.101562 18.203125 8.089844 Z M 18.203125 8.089844 "/>
<path style=" stroke:none;fill-rule:nonzero;fill:rgb(83.921569%,61.568627%,21.176471%);fill-opacity:1;" d="M 19.527344 7.203125 C 19.609375 7.160156 19.78125 7.160156 19.773438 7.097656 C 19.761719 7.035156 19.875 7.015625 19.875 7.015625 L 19.90625 7.140625 L 19.996094 7.203125 L 20.007812 7.320312 C 20.007812 7.320312 20.039062 7.296875 19.925781 7.332031 C 19.8125 7.363281 19.886719 7.414062 19.886719 7.414062 L 19.640625 7.425781 L 19.609375 7.320312 Z M 19.527344 7.203125 "/>
<path style=" stroke:none;fill-rule:nonzero;fill:rgb(83.921569%,61.568627%,21.176471%);fill-opacity:1;" d="M 19.125 6.632812 C 19.1875 6.632812 19.105469 6.878906 19.269531 6.855469 C 19.433594 6.835938 19.28125 6.929688 19.402344 6.941406 C 19.527344 6.949219 19.496094 6.84375 19.535156 6.773438 C 19.578125 6.699219 19.558594 6.65625 19.484375 6.632812 C 19.414062 6.613281 19.414062 6.613281 19.390625 6.527344 C 19.371094 6.445312 19.289062 6.421875 19.289062 6.421875 L 19.257812 6.296875 L 19.125 6.382812 L 18.992188 6.5625 C 18.992188 6.699219 19.0625 6.632812 19.125 6.632812 Z M 19.125 6.632812 "/>
<path style=" stroke:none;fill-rule:nonzero;fill:rgb(83.921569%,61.568627%,21.176471%);fill-opacity:1;" d="M 19.398438 7.527344 L 19.429688 7.460938 L 19.484375 7.492188 L 19.453125 7.554688 Z M 19.398438 7.527344 "/>
<path style=" stroke:none;fill-rule:nonzero;fill:rgb(83.921569%,61.568627%,21.176471%);fill-opacity:1;" d="M 19.289062 7.425781 L 19.351562 7.425781 L 19.351562 7.5 L 19.289062 7.5 Z M 19.289062 7.425781 "/>
<path style=" stroke:none;fill-rule:nonzero;fill:rgb(83.921569%,61.568627%,21.176471%);fill-opacity:1;" d="M 19.339844 6.019531 L 19.351562 6.113281 L 19.289062 6.121094 L 19.28125 6.027344 Z M 19.339844 6.019531 "/>
<path style=" stroke:none;fill-rule:nonzero;fill:rgb(83.921569%,61.568627%,21.176471%);fill-opacity:1;" d="M 19.167969 7.003906 L 19.230469 7.003906 L 19.230469 7.054688 L 19.167969 7.054688 Z M 19.167969 7.003906 "/>
<path style=" stroke:none;fill-rule:nonzero;fill:rgb(83.921569%,61.568627%,21.176471%);fill-opacity:1;" d="M 19.003906 7.003906 L 19 6.9375 L 19.101562 6.929688 L 19.109375 6.992188 Z M 19.003906 7.003906 "/>
<path style=" stroke:none;fill-rule:nonzero;fill:rgb(83.921569%,61.568627%,21.176471%);fill-opacity:1;" d="M 18.160156 8.015625 L 18.101562 7.992188 L 18.132812 7.917969 L 18.191406 7.941406 Z M 18.160156 8.015625 "/>
<path style=" stroke:none;fill-rule:nonzero;fill:rgb(83.921569%,61.568627%,21.176471%);fill-opacity:1;" d="M 17.835938 7.824219 L 17.832031 7.761719 L 17.933594 7.75 L 17.941406 7.8125 Z M 17.835938 7.824219 "/>
<path style=" stroke:none;fill-rule:nonzero;fill:rgb(83.921569%,61.568627%,21.176471%);fill-opacity:1;" d="M 16.058594 7.804688 L 15.832031 7.816406 L 15.835938 7.878906 L 16.058594 7.867188 Z M 16.058594 7.804688 "/>
<path style=" stroke:none;fill-rule:nonzero;fill:rgb(83.921569%,61.568627%,21.176471%);fill-opacity:1;" d="M 15.679688 7.894531 L 15.660156 7.800781 L 15.722656 7.789062 L 15.742188 7.882812 Z M 15.679688 7.894531 "/>
<path style=" stroke:none;fill-rule:nonzero;fill:rgb(83.921569%,61.568627%,21.176471%);fill-opacity:1;" d="M 15.636719 7.960938 L 15.617188 7.902344 L 15.648438 7.890625 L 15.667969 7.953125 Z M 15.636719 7.960938 "/>
<path style=" stroke:none;fill-rule:nonzero;fill:rgb(83.921569%,61.568627%,21.176471%);fill-opacity:1;" d="M 16.152344 7.785156 L 16.140625 7.859375 L 16.253906 7.867188 C 16.253906 7.867188 16.304688 7.910156 16.304688 7.941406 C 16.304688 7.972656 16.375 8.003906 16.417969 8.003906 C 16.457031 8.003906 16.570312 7.921875 16.570312 7.921875 C 16.570312 7.921875 16.621094 7.773438 16.582031 7.785156 C 16.539062 7.792969 16.457031 7.859375 16.449219 7.792969 C 16.4375 7.730469 16.316406 7.761719 16.316406 7.761719 Z M 16.152344 7.785156 "/>
<path style=" stroke:none;fill-rule:nonzero;fill:rgb(83.921569%,61.568627%,21.176471%);fill-opacity:1;" d="M 16.664062 7.667969 C 16.664062 7.699219 16.644531 7.742188 16.703125 7.753906 C 16.765625 7.761719 16.878906 7.710938 16.890625 7.773438 C 16.898438 7.835938 16.898438 7.878906 16.980469 7.910156 C 17.0625 7.941406 17.117188 7.953125 17.175781 7.953125 C 17.238281 7.953125 17.371094 7.929688 17.371094 7.929688 C 17.371094 7.929688 17.515625 7.953125 17.546875 7.984375 C 17.660156 8.101562 17.730469 8.132812 17.761719 8.078125 C 17.792969 8.027344 17.75 7.910156 17.742188 7.867188 C 17.730469 7.824219 17.585938 7.625 17.535156 7.667969 C 17.484375 7.710938 17.472656 7.667969 17.382812 7.699219 C 17.289062 7.730469 17.09375 7.710938 17.085938 7.667969 C 17.074219 7.625 16.929688 7.605469 16.929688 7.5625 C 16.929688 7.519531 16.828125 7.46875 16.839844 7.53125 C 16.847656 7.59375 16.765625 7.625 16.746094 7.605469 C 16.726562 7.582031 16.664062 7.667969 16.664062 7.667969 Z M 16.664062 7.667969 "/>
<path style=" stroke:none;fill-rule:nonzero;fill:rgb(83.921569%,61.568627%,21.176471%);fill-opacity:1;" d="M 19.023438 6.316406 L 19.09375 6.085938 C 18.992188 6.066406 19.011719 5.949219 19.011719 5.949219 C 19.003906 5.855469 18.859375 5.75 18.808594 5.78125 C 18.757812 5.8125 18.777344 5.558594 18.777344 5.558594 C 18.777344 5.558594 18.871094 5.496094 18.910156 5.527344 C 18.953125 5.558594 18.5625 5 18.480469 5.050781 C 18.398438 5.105469 18.214844 5 18.222656 4.90625 C 18.234375 4.808594 17.855469 4.492188 17.855469 4.492188 C 17.855469 4.492188 17.730469 4.410156 17.710938 4.472656 C 17.691406 4.535156 17.648438 4.578125 17.710938 4.609375 C 17.773438 4.640625 17.761719 4.558594 17.832031 4.628906 C 17.90625 4.703125 18.039062 4.800781 17.988281 4.863281 C 17.9375 4.925781 17.875 4.945312 17.875 4.945312 L 17.945312 5.03125 L 18.058594 5.03125 L 18.078125 5.210938 C 18.078125 5.210938 18.203125 5.273438 18.234375 5.347656 C 18.265625 5.421875 18.265625 5.464844 18.234375 5.507812 C 18.203125 5.546875 18.140625 5.621094 18.152344 5.695312 C 18.160156 5.769531 18.242188 5.800781 18.242188 5.800781 L 18.324219 5.8125 L 18.386719 5.84375 L 18.386719 5.980469 C 18.46875 5.960938 18.601562 6.074219 18.59375 6.148438 C 18.582031 6.222656 18.613281 6.179688 18.714844 6.253906 C 18.820312 6.328125 18.789062 6.339844 18.859375 6.390625 C 18.929688 6.445312 18.992188 6.414062 19.023438 6.316406 Z M 19.023438 6.316406 "/>
<path style=" stroke:none;fill-rule:nonzero;fill:rgb(83.921569%,61.568627%,21.176471%);fill-opacity:1;" d="M 17.332031 4.882812 C 17.320312 4.839844 17.300781 4.695312 17.363281 4.703125 C 17.421875 4.714844 17.382812 4.703125 17.453125 4.734375 C 17.527344 4.769531 17.535156 4.683594 17.535156 4.683594 L 17.648438 4.683594 L 17.792969 4.800781 L 17.773438 4.894531 L 17.667969 4.90625 C 17.617188 4.820312 17.515625 4.851562 17.535156 4.925781 C 17.554688 5 17.484375 5.136719 17.445312 5.148438 C 17.402344 5.15625 17.269531 5.15625 17.28125 5.09375 C 17.289062 5.03125 17.332031 4.882812 17.332031 4.882812 Z M 17.332031 4.882812 "/>
<path style=" stroke:none;fill-rule:nonzero;fill:rgb(83.921569%,61.568627%,21.176471%);fill-opacity:1;" d="M 17.25 4.597656 L 17.25 4.515625 C 17.25 4.515625 17.238281 4.429688 17.1875 4.429688 C 17.136719 4.429688 17.042969 4.367188 17.0625 4.324219 C 17.085938 4.28125 16.890625 4.242188 16.890625 4.242188 C 16.890625 4.242188 16.714844 4.070312 16.777344 4.09375 C 16.839844 4.113281 16.808594 4.019531 16.808594 4.019531 C 16.808594 4.019531 16.683594 4.039062 16.652344 4.03125 C 16.625 4.019531 16.632812 3.925781 16.632812 3.925781 C 16.632812 3.925781 16.511719 3.890625 16.511719 3.925781 C 16.511719 3.957031 16.550781 3.957031 16.570312 4.019531 C 16.59375 4.082031 16.582031 4.1875 16.675781 4.207031 C 16.765625 4.230469 16.789062 4.25 16.796875 4.292969 C 16.808594 4.335938 16.921875 4.347656 16.921875 4.347656 L 17.003906 4.386719 Z M 17.25 4.597656 "/>
<path style=" stroke:none;fill-rule:nonzero;fill:rgb(83.921569%,61.568627%,21.176471%);fill-opacity:1;" d="M 16.140625 3.523438 L 16.109375 3.4375 L 16.027344 3.417969 L 16.027344 3.511719 Z M 16.140625 3.523438 "/>
<path style=" stroke:none;fill-rule:nonzero;fill:rgb(83.921569%,61.568627%,21.176471%);fill-opacity:1;" d="M 16.109375 3.082031 C 16.003906 3 16.253906 3.144531 16.253906 3.144531 C 16.335938 3.144531 16.386719 3.207031 16.386719 3.238281 C 16.386719 3.269531 16.5 3.261719 16.5 3.261719 L 16.511719 3.1875 L 16.429688 3.082031 L 16.355469 3.027344 C 16.355469 3.027344 16.242188 3.019531 16.242188 2.984375 C 16.242188 2.953125 16.152344 3.113281 16.109375 3.082031 Z M 16.109375 3.082031 "/>
<path style=" stroke:none;fill-rule:nonzero;fill:rgb(83.921569%,61.568627%,21.176471%);fill-opacity:1;" d="M 17.996094 3.144531 C 17.96875 3.234375 17.957031 3.367188 17.90625 3.367188 C 17.855469 3.367188 17.875 3.503906 17.875 3.503906 C 17.875 3.503906 18.007812 3.503906 18.046875 3.511719 C 18.089844 3.523438 18.089844 3.628906 18.089844 3.628906 C 18.242188 3.617188 18.304688 3.828125 18.285156 3.882812 C 18.265625 3.933594 18.347656 3.933594 18.347656 3.933594 C 18.347656 3.933594 18.347656 4.101562 18.324219 4.144531 C 18.304688 4.1875 18.457031 4.21875 18.5 4.28125 C 18.539062 4.347656 18.480469 4.558594 18.449219 4.566406 C 18.417969 4.578125 18.53125 4.609375 18.519531 4.664062 C 18.511719 4.714844 18.550781 4.664062 18.5625 4.746094 C 18.570312 4.832031 18.59375 5.011719 18.59375 5.011719 L 18.734375 5.019531 C 18.757812 4.882812 19.019531 4.878906 19.0625 4.894531 C 19.238281 4.957031 19.371094 5.230469 19.371094 5.296875 C 19.371094 5.359375 19.257812 5.367188 19.257812 5.367188 L 19.28125 5.675781 C 19.453125 5.726562 19.597656 5.980469 19.578125 6.023438 C 19.554688 6.066406 19.699219 6.054688 19.699219 6.054688 C 19.71875 5.863281 19.894531 5.925781 19.90625 5.992188 C 19.914062 6.054688 19.945312 6.191406 19.945312 6.191406 L 19.996094 6.285156 L 20.070312 6.359375 L 20.183594 6.347656 L 20.210938 6.414062 L 20.347656 6.433594 C 20.347656 6.433594 20.460938 6.558594 20.46875 6.59375 C 20.480469 6.625 20.632812 6.613281 20.675781 6.625 C 20.714844 6.632812 20.777344 6.664062 20.785156 6.71875 C 20.796875 6.769531 20.859375 6.855469 20.859375 6.855469 C 20.859375 6.855469 20.980469 6.886719 20.992188 6.929688 C 21.003906 6.972656 21.054688 7.066406 21.054688 7.066406 L 21.15625 7.152344 L 21.167969 7.246094 L 21.28125 7.257812 L 21.308594 7.382812 L 21.496094 7.371094 L 21.597656 7.296875 C 21.730469 7.226562 21.824219 7.128906 21.832031 7.085938 C 21.84375 7.046875 21.863281 6.886719 21.964844 6.917969 C 22.070312 6.949219 21.996094 6.6875 21.996094 6.6875 C 21.996094 6.6875 21.855469 6.582031 21.863281 6.527344 C 21.875 6.476562 21.71875 6.371094 21.730469 6.328125 C 21.742188 6.285156 21.597656 6.203125 21.609375 6.160156 C 21.617188 6.117188 21.535156 6 21.535156 6 L 21.382812 5.855469 L 21.363281 5.757812 L 21.238281 5.75 L 20.992188 5.441406 L 21.003906 5.359375 L 20.929688 5.347656 L 20.929688 5.230469 L 20.859375 5.191406 L 20.746094 5.179688 L 20.519531 4.925781 L 20.5 4.808594 L 20.386719 4.808594 L 20.40625 4.589844 C 20.480469 4.492188 20.4375 4.3125 20.4375 4.3125 C 20.4375 4.3125 20.292969 4.386719 20.222656 4.355469 C 20.152344 4.324219 20.253906 4.25 20.253906 4.25 L 20.253906 4.167969 L 20.191406 4.101562 C 20.191406 4.101562 20.019531 4.125 20.007812 4.09375 C 19.996094 4.0625 19.964844 3.925781 19.964844 3.925781 L 19.957031 3.746094 L 19.882812 3.714844 L 19.875 3.648438 L 19.761719 3.660156 L 19.761719 3.535156 L 19.699219 3.511719 L 19.636719 3.480469 L 19.628906 3.355469 L 19.402344 3.34375 L 19.332031 3.238281 L 19.25 3.113281 L 18.992188 3.089844 L 18.929688 3.027344 L 18.828125 3.007812 L 18.757812 2.976562 L 18.726562 3.027344 L 18.53125 3.039062 L 18.519531 3.101562 C 18.417969 3.15625 18.007812 3.113281 17.996094 3.144531 Z M 17.996094 3.144531 "/>
<path style=" stroke:none;fill-rule:nonzero;fill:rgb(83.921569%,61.568627%,21.176471%);fill-opacity:1;" d="M 19.074219 2.871094 C 19.058594 2.785156 19.28125 2.710938 19.332031 2.773438 C 19.382812 2.839844 19.527344 2.847656 19.546875 3.164062 C 19.554688 3.277344 19.363281 3.050781 19.363281 3.050781 L 19.207031 2.996094 C 19.125 2.976562 19.085938 2.921875 19.074219 2.871094 Z M 19.074219 2.871094 "/>
<path style=" stroke:none;fill-rule:nonzero;fill:rgb(83.921569%,61.568627%,21.176471%);fill-opacity:1;" d="M 16.066406 3 L 16.011719 2.972656 L 16.050781 2.878906 L 16.105469 2.902344 Z M 16.066406 3 "/>
<path style=" stroke:none;fill-rule:nonzero;fill:rgb(83.921569%,61.568627%,21.176471%);fill-opacity:1;" d="M 15.535156 1.964844 L 15.402344 1.828125 L 15.402344 1.710938 L 15.363281 1.667969 L 15.320312 1.519531 L 15.1875 1.476562 L 15.054688 1.53125 L 14.910156 1.625 L 14.757812 1.648438 L 14.675781 1.742188 L 15.003906 1.773438 L 15.0625 1.878906 L 15.300781 1.898438 L 15.453125 2.058594 C 15.585938 2.101562 15.617188 2.035156 15.535156 1.964844 Z M 15.535156 1.964844 "/>
<path style=" stroke:none;fill-rule:nonzero;fill:rgb(83.921569%,61.568627%,21.176471%);fill-opacity:1;" d="M 15.515625 1.445312 C 15.492188 1.355469 15.363281 1.5625 15.496094 1.605469 C 15.628906 1.648438 15.761719 1.605469 15.761719 1.605469 L 15.792969 1.542969 L 16.304688 1.550781 C 16.347656 1.507812 16.367188 1.445312 16.367188 1.445312 C 16.367188 1.445312 16.488281 1.402344 16.542969 1.425781 C 16.59375 1.445312 16.550781 1.277344 16.5 1.296875 C 16.449219 1.320312 16.347656 1.308594 16.347656 1.308594 L 16.160156 1.308594 C 16.152344 1.234375 15.988281 1.265625 15.976562 1.308594 C 15.964844 1.351562 15.90625 1.363281 15.90625 1.363281 L 15.667969 1.382812 C 15.648438 1.445312 15.527344 1.488281 15.515625 1.445312 Z M 15.515625 1.445312 "/>
<path style=" stroke:none;fill-rule:nonzero;fill:rgb(83.921569%,61.568627%,21.176471%);fill-opacity:1;" d="M 14.5 3.226562 C 14.65625 3.277344 14.714844 3.238281 14.726562 3.195312 C 14.734375 3.15625 14.746094 3.144531 14.808594 3.132812 C 14.871094 3.121094 14.796875 2.996094 14.734375 3.007812 C 14.675781 3.015625 14.613281 2.984375 14.601562 2.933594 C 14.59375 2.878906 14.488281 2.742188 14.480469 2.847656 C 14.46875 2.953125 14.40625 2.953125 14.417969 3.027344 C 14.429688 3.101562 14.460938 3.210938 14.5 3.226562 Z M 14.5 3.226562 "/>
<path style=" stroke:none;fill-rule:nonzero;fill:rgb(83.921569%,61.568627%,21.176471%);fill-opacity:1;" d="M 13.320312 3.34375 C 13.3125 3.308594 13.527344 3.300781 13.558594 3.332031 C 13.585938 3.367188 13.566406 3.417969 13.660156 3.417969 C 13.75 3.417969 13.710938 3.480469 13.699219 3.511719 C 13.691406 3.542969 13.585938 3.535156 13.578125 3.503906 C 13.566406 3.472656 13.414062 3.460938 13.414062 3.460938 C 13.414062 3.460938 13.332031 3.398438 13.320312 3.34375 Z M 13.320312 3.34375 "/>
<path style=" stroke:none;fill-rule:nonzero;fill:rgb(83.921569%,61.568627%,21.176471%);fill-opacity:1;" d="M 16.703125 1.214844 L 16.722656 1.234375 L 16.746094 1.21875 L 16.847656 1.132812 L 16.808594 1.085938 L 16.726562 1.152344 L 16.675781 1.097656 L 16.632812 1.140625 Z M 16.703125 1.214844 "/>
<path style=" stroke:none;fill-rule:nonzero;fill:rgb(83.921569%,61.568627%,21.176471%);fill-opacity:1;" d="M 16.242188 0.96875 L 16.261719 0.957031 L 16.375 0.882812 L 16.339844 0.828125 L 16.242188 0.890625 L 16.179688 0.851562 L 16.144531 0.902344 L 16.226562 0.957031 Z M 16.242188 0.96875 "/>
<path style=" stroke:none;fill-rule:nonzero;fill:rgb(83.921569%,61.568627%,21.176471%);fill-opacity:1;" d="M 15.878906 3.121094 L 15.941406 3.222656 L 15.992188 3.191406 L 15.921875 3.074219 L 15.914062 3.0625 L 15.898438 3.058594 L 15.796875 3.050781 L 15.789062 3.113281 Z M 15.878906 3.121094 "/>
<path style=" stroke:none;fill-rule:nonzero;fill:rgb(83.921569%,61.568627%,21.176471%);fill-opacity:1;" d="M 12.519531 6 L 12.53125 6.117188 L 12.683594 6.117188 C 12.746094 6.117188 12.632812 6.042969 12.632812 6.042969 C 12.632812 6.042969 12.511719 6.054688 12.519531 6 Z M 12.519531 6 "/>
<path style=" stroke:none;fill-rule:nonzero;fill:rgb(83.921569%,61.568627%,21.176471%);fill-opacity:1;" d="M 12.714844 6.003906 L 12.753906 5.957031 L 12.816406 6.007812 L 12.777344 6.058594 Z M 12.714844 6.003906 "/>
<path style=" stroke:none;fill-rule:nonzero;fill:rgb(83.921569%,61.568627%,21.176471%);fill-opacity:1;" d="M 10.847656 4.03125 L 10.890625 3.988281 L 10.953125 4.050781 L 10.910156 4.09375 Z M 10.847656 4.03125 "/>
<path style=" stroke:none;fill-rule:nonzero;fill:rgb(83.921569%,61.568627%,21.176471%);fill-opacity:1;" d="M 13.738281 17.664062 L 13.785156 17.707031 L 13.835938 17.652344 L 13.863281 17.625 L 13.828125 17.605469 L 13.722656 17.550781 L 13.695312 17.609375 L 13.761719 17.640625 Z M 13.738281 17.664062 "/>
<path style=" stroke:none;fill-rule:nonzero;fill:rgb(83.921569%,61.568627%,21.176471%);fill-opacity:1;" d="M 12.933594 16.898438 L 13.003906 16.949219 L 13.042969 16.898438 L 13 16.871094 L 13.03125 16.84375 L 12.992188 16.796875 L 12.929688 16.847656 L 12.902344 16.875 Z M 12.933594 16.898438 "/>
<path style=" stroke:none;fill-rule:nonzero;fill:rgb(83.921569%,61.568627%,21.176471%);fill-opacity:1;" d="M 20.660156 14.84375 C 20.644531 14.789062 20.585938 14.769531 20.578125 14.765625 L 20.558594 14.824219 C 20.566406 14.828125 20.570312 14.832031 20.578125 14.835938 L 20.589844 14.890625 C 20.585938 14.898438 20.582031 14.902344 20.578125 14.910156 L 20.625 14.953125 C 20.65625 14.914062 20.667969 14.878906 20.660156 14.84375 Z M 20.660156 14.84375 "/>
<path style=" stroke:none;fill-rule:nonzero;fill:rgb(83.921569%,61.568627%,21.176471%);fill-opacity:1;" d="M 20.753906 14.644531 L 20.652344 14.636719 L 20.660156 14.542969 L 20.761719 14.558594 Z M 20.753906 14.644531 "/>
<path style=" stroke:none;fill-rule:nonzero;fill:rgb(83.921569%,61.568627%,21.176471%);fill-opacity:1;" d="M 23.132812 13.824219 C 23.175781 13.792969 23.230469 13.742188 23.222656 13.863281 C 23.214844 13.980469 23.171875 13.941406 23.132812 13.980469 C 23.09375 14.019531 23.070312 13.863281 23.132812 13.824219 Z M 23.132812 13.824219 "/>
<path style=" stroke:none;fill-rule:nonzero;fill:rgb(83.921569%,61.568627%,21.176471%);fill-opacity:1;" d="M 23.652344 13.375 C 23.652344 13.375 23.652344 13.367188 23.652344 13.359375 C 23.648438 13.34375 23.648438 13.320312 23.636719 13.292969 L 23.582031 13.324219 C 23.585938 13.335938 23.589844 13.351562 23.589844 13.367188 C 23.59375 13.382812 23.59375 13.40625 23.609375 13.417969 C 23.621094 13.425781 23.636719 13.429688 23.652344 13.425781 L 23.640625 13.367188 C 23.644531 13.367188 23.652344 13.371094 23.652344 13.375 Z M 23.652344 13.375 "/>
<path style=" stroke:none;fill-rule:nonzero;fill:rgb(83.921569%,61.568627%,21.176471%);fill-opacity:1;" d="M 23.515625 13.425781 C 23.53125 13.492188 23.554688 13.554688 23.554688 13.558594 L 23.613281 13.535156 C 23.613281 13.535156 23.589844 13.472656 23.574219 13.410156 Z M 23.515625 13.425781 "/>
<path style=" stroke:none;fill-rule:nonzero;fill:rgb(83.921569%,61.568627%,21.176471%);fill-opacity:1;" d="M 23.292969 13.675781 L 23.230469 13.667969 C 23.226562 13.71875 23.238281 13.78125 23.285156 13.789062 L 23.296875 13.730469 C 23.300781 13.730469 23.300781 13.730469 23.300781 13.730469 C 23.292969 13.726562 23.289062 13.699219 23.292969 13.675781 Z M 23.292969 13.675781 "/>
<path style=" stroke:none;fill-rule:nonzero;fill:rgb(83.921569%,61.568627%,21.176471%);fill-opacity:1;" d="M 23.023438 12.417969 C 23.019531 12.398438 23.007812 12.382812 22.988281 12.375 C 22.945312 12.351562 22.867188 12.386719 22.828125 12.414062 L 22.863281 12.464844 C 22.902344 12.4375 22.953125 12.425781 22.964844 12.429688 C 22.964844 12.429688 22.960938 12.429688 22.960938 12.429688 Z M 23.023438 12.417969 "/>
<path style=" stroke:none;fill-rule:nonzero;fill:rgb(83.921569%,61.568627%,21.176471%);fill-opacity:1;" d="M 20.183594 9.050781 C 20.140625 9.089844 20.050781 9.113281 20.050781 9.113281 L 20.019531 9.226562 L 19.96875 9.269531 C 19.96875 9.269531 19.976562 9.300781 19.96875 9.375 C 19.957031 9.449219 19.863281 9.492188 19.863281 9.492188 L 19.824219 9.542969 C 19.824219 9.542969 19.574219 9.558594 19.546875 9.542969 C 19.453125 9.503906 19.515625 9.375 19.578125 9.386719 C 19.636719 9.398438 19.566406 9.207031 19.566406 9.207031 L 19.648438 9.195312 C 19.648438 9.195312 19.660156 9.007812 19.691406 9.007812 C 19.71875 9.007812 19.679688 8.945312 19.636719 8.910156 C 19.597656 8.878906 19.546875 8.773438 19.503906 8.785156 C 19.464844 8.796875 19.300781 8.785156 19.300781 8.785156 L 19.269531 8.847656 L 19.15625 8.871094 C 19.15625 8.871094 19.167969 8.953125 19.144531 8.976562 C 19.085938 9.050781 18.847656 9.207031 18.953125 8.945312 L 18.980469 8.878906 L 18.980469 8.785156 L 18.796875 8.773438 C 18.796875 8.773438 18.707031 8.742188 18.707031 8.699219 C 18.707031 8.660156 18.695312 8.605469 18.695312 8.605469 L 18.480469 8.363281 L 18.222656 8.332031 L 18.203125 8.277344 L 18.046875 8.257812 C 17.863281 8.164062 17.699219 8.246094 17.730469 8.40625 C 17.761719 8.5625 17.8125 8.628906 17.710938 8.628906 C 17.609375 8.628906 17.585938 8.542969 17.585938 8.542969 C 17.585938 8.542969 17.503906 8.511719 17.503906 8.554688 C 17.503906 8.59375 17.472656 8.679688 17.503906 8.722656 C 17.535156 8.765625 17.464844 8.828125 17.433594 8.796875 C 17.402344 8.765625 17.320312 8.667969 17.339844 8.636719 C 17.363281 8.605469 17.199219 8.40625 17.363281 8.375 C 17.527344 8.34375 17.351562 8.246094 17.414062 8.226562 L 17.496094 8.183594 L 17.578125 8.183594 L 17.628906 8.140625 L 17.496094 8.121094 L 17.414062 8.109375 L 17.257812 8.101562 C 17.105469 8.207031 17.074219 8.332031 17.074219 8.332031 C 16.992188 8.492188 16.796875 8.269531 16.871094 8.183594 C 16.941406 8.101562 16.644531 8.175781 16.59375 8.214844 C 16.539062 8.257812 16.386719 8.238281 16.386719 8.238281 C 16.355469 8.332031 16.210938 8.226562 16.253906 8.164062 C 16.292969 8.101562 16.292969 8.058594 16.292969 8.058594 L 16.242188 8.046875 L 16.183594 8.164062 C 16.039062 8.164062 15.996094 8.246094 16.027344 8.300781 C 16.058594 8.351562 15.988281 8.289062 15.964844 8.363281 C 15.945312 8.4375 15.976562 8.4375 16.039062 8.46875 C 16.101562 8.5 16.007812 8.5 16.046875 8.554688 C 16.089844 8.605469 16.210938 8.554688 16.140625 8.628906 C 16.070312 8.699219 15.925781 8.667969 15.925781 8.667969 C 15.914062 8.765625 15.71875 8.742188 15.699219 8.710938 C 15.679688 8.679688 15.527344 8.492188 15.527344 8.492188 L 15.332031 8.480469 C 15.308594 8.332031 15.421875 8.40625 15.464844 8.289062 C 15.503906 8.175781 15.527344 7.984375 15.527344 7.984375 C 15.527344 7.984375 15.363281 7.972656 15.351562 8.027344 C 15.339844 8.078125 15.238281 8.109375 15.238281 8.109375 C 15.238281 8.109375 15.15625 8.140625 15.1875 8.183594 C 15.21875 8.226562 15.125 8.246094 15.125 8.246094 C 15.125 8.246094 15.140625 8.316406 15.117188 8.34375 C 15.035156 8.425781 14.828125 8.351562 14.796875 8.320312 L 14.675781 8.269531 L 14.550781 8.183594 L 14.40625 8.246094 L 14.367188 8.289062 L 14.210938 8.289062 L 14.203125 8.417969 L 14.480469 8.449219 L 14.5 8.707031 L 14.386719 8.667969 L 14.316406 8.667969 L 14.285156 8.605469 L 14.222656 8.59375 L 14.222656 8.828125 L 14.285156 8.878906 L 14.335938 8.933594 L 14.4375 8.945312 L 14.460938 9.070312 L 14.714844 9.082031 L 14.746094 9.132812 L 14.898438 9.144531 L 15.199219 9.449219 L 15.175781 9.542969 L 15.125 9.574219 C 15.144531 9.648438 14.992188 9.609375 14.992188 9.609375 L 14.992188 9.671875 L 15.0625 9.679688 L 15.136719 9.722656 L 15.238281 9.542969 C 15.351562 9.46875 15.402344 9.574219 15.414062 9.640625 C 15.421875 9.703125 15.363281 9.691406 15.363281 9.691406 L 15.363281 9.839844 L 15.421875 9.859375 C 15.527344 9.988281 15.382812 10.0625 15.382812 10.0625 L 15.351562 10.167969 C 15.320312 10.261719 15.207031 10.242188 15.207031 10.242188 L 15.167969 10.304688 L 15.042969 10.335938 L 15.285156 10.367188 C 15.308594 10.28125 15.371094 10.261719 15.402344 10.304688 C 15.433594 10.347656 15.433594 10.417969 15.433594 10.417969 L 15.496094 10.429688 L 15.484375 10.546875 L 15.546875 10.566406 L 15.546875 10.90625 L 15.617188 10.988281 C 15.742188 10.9375 15.742188 11.019531 15.679688 11.0625 C 15.617188 11.105469 15.660156 11.292969 15.660156 11.292969 L 15.609375 11.347656 L 15.609375 11.433594 L 15.546875 11.472656 L 15.546875 11.589844 C 15.445312 11.539062 15.320312 11.558594 15.289062 11.589844 C 15.199219 11.527344 15.003906 11.546875 15.003906 11.601562 C 15.0625 11.683594 14.929688 11.707031 14.929688 11.707031 L 14.859375 11.789062 C 14.910156 11.894531 14.808594 11.90625 14.808594 11.90625 L 14.808594 12.105469 L 14.683594 12.222656 L 14.695312 12.496094 C 14.695312 12.570312 14.847656 12.582031 14.878906 12.539062 C 14.910156 12.496094 15.035156 12.625 15.035156 12.625 L 15.125 12.625 L 15.144531 12.433594 L 15.085938 12.402344 L 15.085938 12.097656 L 15.1875 11.980469 C 15.308594 11.9375 15.269531 12.253906 15.269531 12.285156 C 15.28125 12.402344 15.332031 12.390625 15.382812 12.371094 C 15.484375 12.328125 15.402344 12.488281 15.320312 12.476562 C 15.238281 12.464844 15.289062 12.582031 15.289062 12.582031 L 15.339844 12.601562 L 15.25 12.675781 L 15.167969 12.769531 L 15.0625 12.738281 L 14.941406 12.730469 L 14.898438 12.65625 L 14.828125 12.644531 L 14.816406 12.792969 L 14.765625 12.855469 L 14.644531 12.980469 C 14.808594 12.980469 14.621094 13.097656 14.582031 13.097656 C 14.675781 13.128906 14.570312 13.222656 14.335938 13.152344 L 14.335938 13.222656 L 14.253906 13.234375 L 14.324219 13.320312 L 14.40625 13.328125 L 14.375 13.507812 C 14.375 13.644531 14.039062 13.550781 14.007812 13.519531 L 13.996094 13.710938 L 13.9375 13.71875 L 13.945312 13.847656 L 13.9375 14.027344 L 14.046875 14.003906 L 14.046875 14.078125 L 14.324219 14.089844 L 14.726562 13.65625 L 14.960938 13.605469 C 14.980469 13.5 15.085938 13.625 15.085938 13.625 C 15.1875 13.613281 15.207031 13.6875 15.207031 13.6875 L 15.339844 13.710938 C 15.453125 13.742188 15.386719 13.753906 15.390625 13.792969 C 15.402344 13.855469 15.453125 13.835938 15.453125 13.835938 L 15.472656 13.699219 L 15.535156 13.710938 L 15.472656 13.636719 L 15.359375 13.582031 L 15.238281 13.53125 C 15.15625 13.414062 15.257812 13.433594 15.339844 13.445312 L 15.472656 13.445312 C 15.472656 13.445312 15.628906 13.65625 15.628906 13.710938 C 15.628906 13.761719 15.699219 13.773438 15.699219 13.773438 L 15.792969 13.761719 L 15.824219 13.835938 L 15.914062 13.835938 L 15.945312 13.898438 L 16.128906 13.898438 L 16.140625 13.804688 L 15.964844 13.773438 L 15.957031 13.667969 L 15.832031 13.636719 C 15.792969 13.457031 15.863281 13.402344 15.914062 13.488281 L 15.976562 13.5 L 15.957031 13.339844 L 16.027344 13.320312 L 16.007812 13.097656 L 15.945312 13.078125 L 15.945312 13.003906 L 16.203125 13.011719 C 16.183594 12.875 16.210938 12.8125 16.210938 12.8125 L 16.285156 12.8125 L 16.292969 12.867188 L 16.609375 12.894531 L 16.832031 12.636719 C 16.820312 12.617188 16.851562 12.605469 16.828125 12.582031 C 16.796875 12.550781 16.757812 12.582031 16.703125 12.550781 C 16.652344 12.519531 16.703125 12.339844 16.695312 12.296875 C 16.683594 12.253906 16.871094 12.191406 16.839844 12.285156 C 16.808594 12.382812 16.839844 12.421875 16.839844 12.421875 C 16.972656 12.296875 17.085938 12.433594 17.074219 12.464844 C 17.0625 12.496094 17.144531 12.527344 17.195312 12.496094 C 17.25 12.464844 17.308594 12.589844 17.289062 12.65625 C 17.269531 12.71875 17.085938 12.707031 17.074219 12.644531 C 17.0625 12.582031 17.03125 12.601562 17.011719 12.632812 C 16.992188 12.664062 16.898438 12.6875 16.847656 12.65625 C 16.839844 12.648438 16.832031 12.644531 16.832031 12.636719 L 16.609375 12.894531 L 16.621094 12.898438 C 16.746094 12.972656 16.683594 13.066406 16.644531 13.085938 C 16.601562 13.109375 16.53125 13.109375 16.53125 13.109375 L 16.511719 13.152344 L 16.242188 13.171875 L 16.222656 13.277344 C 16.089844 13.253906 16.039062 13.402344 16.070312 13.476562 C 16.101562 13.550781 16.070312 13.613281 16.070312 13.613281 L 16.183594 13.667969 L 16.324219 13.625 C 16.347656 13.519531 16.4375 13.5 16.519531 13.433594 C 16.601562 13.371094 16.734375 13.550781 16.695312 13.636719 C 16.652344 13.71875 16.652344 13.75 16.652344 13.75 L 16.664062 13.847656 L 16.5625 13.886719 L 16.480469 13.929688 L 16.46875 13.984375 L 16.191406 13.984375 L 16.140625 14.035156 L 16.007812 14.046875 L 15.964844 14.109375 L 15.875 14.121094 C 15.875 14.121094 15.71875 14.195312 15.78125 14.277344 C 15.84375 14.363281 15.527344 14.351562 15.453125 14.238281 C 15.433594 14.34375 15.320312 14.246094 15.320312 14.246094 L 15.207031 14.214844 L 15.195312 14.058594 C 15.175781 13.953125 14.980469 13.953125 14.992188 14.027344 C 15.003906 14.097656 14.621094 14.058594 14.621094 14.058594 L 14.5 14.117188 L 14.386719 14.183594 L 14.375 14.238281 L 14.191406 14.257812 L 14.109375 14.300781 L 14.078125 14.238281 L 13.996094 14.238281 L 13.914062 14.351562 C 13.699219 14.363281 13.496094 14.488281 13.515625 14.542969 C 13.535156 14.59375 13.433594 14.648438 13.433594 14.648438 L 13.339844 14.679688 L 13.277344 14.773438 L 13.15625 14.816406 L 13.136719 15.039062 L 13.074219 15.082031 L 13.074219 15.175781 L 13.003906 15.195312 L 13.003906 15.25 L 12.898438 15.257812 L 12.960938 15.417969 L 13.042969 15.460938 C 13.1875 15.480469 13.125 15.660156 13.125 15.660156 L 13.207031 15.671875 L 13.25 15.785156 L 13.332031 15.957031 C 13.359375 16.082031 13.453125 16.050781 13.496094 16.039062 C 13.535156 16.03125 13.578125 16.167969 13.578125 16.167969 L 13.988281 16.175781 C 13.988281 16.175781 13.964844 16.21875 14.039062 16.242188 C 14.109375 16.261719 14.582031 16.28125 14.601562 16.25 C 14.582031 16.15625 14.859375 16.132812 14.972656 16.21875 C 15.085938 16.304688 15.238281 16.25 15.238281 16.25 L 15.390625 16.441406 L 15.496094 16.671875 L 15.667969 16.726562 L 15.792969 16.757812 L 15.832031 16.9375 L 15.925781 16.945312 L 15.957031 17.0625 C 16.070312 17.148438 15.925781 17.328125 15.925781 17.328125 L 15.925781 17.558594 L 16.007812 17.601562 L 15.996094 17.683594 L 16.128906 17.820312 L 16.285156 17.832031 L 16.675781 18.253906 L 16.980469 18.347656 L 17.03125 18.519531 L 17.113281 18.507812 L 17.175781 18.453125 L 17.421875 18.445312 L 17.546875 18.328125 L 17.679688 18.308594 L 18.816406 17.328125 L 18.714844 17.261719 L 18.714844 17.03125 C 18.898438 16.894531 18.910156 16.652344 18.734375 16.628906 C 18.601562 16.613281 18.664062 16.472656 18.785156 16.449219 L 18.859375 16.417969 L 18.859375 16.324219 L 19.09375 16.101562 L 19.09375 15.933594 L 18.582031 15.503906 C 18.355469 15.417969 18.582031 14.910156 18.734375 14.921875 C 18.890625 14.933594 18.726562 14.140625 18.726562 14.140625 L 18.644531 14.101562 L 18.664062 13.847656 L 18.550781 13.847656 L 18.367188 14.089844 L 18.316406 14.257812 C 18.292969 14.480469 17.660156 14.4375 17.628906 14.40625 C 17.597656 14.375 17.382812 14.277344 17.382812 14.277344 C 17.382812 14.277344 17.21875 14.140625 17.1875 14.183594 C 17.15625 14.226562 17.011719 14.132812 17.011719 14.164062 C 17.011719 14.195312 16.878906 14.089844 16.878906 14.089844 L 16.675781 14.015625 L 16.828125 13.984375 L 16.796875 13.855469 L 17.0625 13.996094 C 17.09375 14.035156 17.226562 14.027344 17.226562 14.027344 L 17.269531 14.078125 C 17.269531 14.078125 17.351562 14.066406 17.402344 14.132812 C 17.453125 14.195312 17.71875 14.140625 17.71875 14.140625 L 17.792969 14.207031 L 17.90625 14.246094 L 18.222656 14.257812 L 18.234375 14.058594 L 18.292969 13.996094 L 18.285156 13.867188 L 18.355469 13.804688 L 18.355469 13.699219 L 18.417969 13.679688 L 18.429688 13.445312 L 18.480469 13.4375 L 18.480469 12.929688 L 18.324219 12.78125 C 18.316406 12.835938 18.152344 12.835938 18.152344 12.835938 C 18.152344 12.835938 18.109375 12.910156 18.078125 12.910156 C 18.046875 12.910156 18.121094 13.003906 18.101562 13.066406 C 18.078125 13.128906 17.996094 13.128906 17.996094 13.128906 L 17.84375 13.171875 L 17.800781 13.226562 L 17.636719 13.226562 L 17.617188 13.085938 L 17.800781 13.035156 L 17.90625 12.980469 L 17.957031 12.875 C 17.964844 12.769531 18.089844 12.78125 18.089844 12.78125 C 18.089844 12.78125 18.324219 12.582031 18.335938 12.488281 C 18.347656 12.390625 18.429688 12.128906 18.570312 12.128906 L 18.839844 12.128906 C 18.941406 12.085938 18.910156 11.949219 18.910156 11.949219 L 19.042969 11.929688 L 19.0625 12 C 19.0625 12 19.25 12.023438 19.269531 11.992188 C 19.289062 11.960938 19.332031 11.886719 19.382812 11.917969 C 19.433594 11.949219 19.597656 11.84375 19.597656 11.84375 C 19.609375 11.769531 19.863281 11.800781 19.863281 11.800781 L 19.894531 11.707031 C 19.894531 11.707031 19.71875 11.464844 19.691406 11.464844 C 19.660156 11.464844 19.496094 11.316406 19.472656 11.367188 C 19.308594 11.328125 19.320312 11.09375 19.320312 11.09375 L 19.257812 10.945312 C 19.257812 10.863281 19.105469 10.683594 19.074219 10.703125 C 18.921875 10.589844 19.035156 10.453125 19.074219 10.441406 C 19.117188 10.429688 19.21875 10.28125 19.21875 10.28125 L 19.269531 10.136719 L 19.445312 10.082031 L 19.464844 9.945312 L 19.371094 9.933594 C 19.371094 9.933594 19.472656 9.746094 19.527344 9.746094 C 19.578125 9.746094 19.914062 9.746094 19.945312 9.722656 C 19.976562 9.703125 20.039062 9.535156 20.039062 9.503906 C 20.039062 9.472656 20.121094 9.460938 20.152344 9.449219 C 20.183594 9.4375 20.253906 9.355469 20.273438 9.3125 C 20.292969 9.269531 20.222656 9.007812 20.183594 9.050781 Z M 20.183594 9.050781 "/>
<path style=" stroke:none;fill-rule:nonzero;fill:rgb(83.921569%,61.568627%,21.176471%);fill-opacity:1;" d="M 14.5 12.851562 C 14.515625 12.835938 14.53125 12.898438 14.5625 12.890625 C 14.59375 12.882812 14.609375 12.945312 14.578125 12.945312 C 14.546875 12.945312 14.546875 12.984375 14.546875 13 C 14.546875 13.015625 14.546875 13.054688 14.523438 13.078125 C 14.5 13.101562 14.476562 13.085938 14.445312 13.070312 C 14.414062 13.054688 14.398438 13.054688 14.363281 13.054688 C 14.324219 13.054688 14.355469 13.121094 14.355469 13.121094 C 14.355469 13.121094 14.191406 13.109375 14.222656 13.085938 C 14.253906 13.0625 14.285156 13.054688 14.261719 13.039062 C 14.238281 13.023438 14.261719 13.007812 14.261719 12.976562 C 14.261719 12.945312 14.339844 12.960938 14.316406 12.9375 C 14.292969 12.914062 14.316406 12.820312 14.355469 12.875 L 14.375 12.820312 C 14.355469 12.792969 14.371094 12.785156 14.324219 12.769531 C 14.277344 12.753906 14.316406 12.660156 14.316406 12.660156 L 14.324219 12.597656 C 14.339844 12.519531 14.492188 12.511719 14.5 12.582031 C 14.507812 12.652344 14.5 12.699219 14.5 12.699219 L 14.546875 12.714844 C 14.546875 12.714844 14.539062 12.761719 14.5 12.761719 C 14.460938 12.761719 14.5 12.785156 14.476562 12.8125 Z M 14.5 12.851562 "/>
<path style=" stroke:none;fill-rule:nonzero;fill:rgb(83.921569%,61.568627%,21.176471%);fill-opacity:1;" d="M 13.992188 12.929688 C 14.015625 12.882812 14.070312 12.675781 14.128906 12.738281 C 14.191406 12.804688 14.230469 12.738281 14.230469 12.738281 C 14.230469 12.738281 14.261719 12.769531 14.246094 12.835938 C 14.230469 12.898438 14.214844 12.960938 14.175781 12.96875 C 14.136719 12.976562 14.109375 13 14.0625 13.007812 C 14.015625 13.015625 13.992188 12.929688 13.992188 12.929688 Z M 13.992188 12.929688 "/>
</g>
</svg>
