<?xml version="1.0" encoding="UTF-8"?>
<svg xmlns="http://www.w3.org/2000/svg" xmlns:xlink="http://www.w3.org/1999/xlink" width="30pt" height="20pt" viewBox="0 0 30 20" version="1.1">
<g id="surface1">
<rect x="0" y="0" width="30" height="20" style="fill:rgb(0%,15.686275%,40.784314%);fill-opacity:1;stroke:none;"/>
<path style=" stroke:none;fill-rule:nonzero;fill:rgb(100%,100%,100%);fill-opacity:1;" d="M 0 6.667969 L 30 6.667969 L 30 13.332031 L 0 13.332031 Z M 0 6.667969 "/>
<path style=" stroke:none;fill-rule:nonzero;fill:rgb(74.901961%,3.921569%,18.823529%);fill-opacity:1;" d="M 18.847656 12.5 C 17.648438 15.457031 14.523438 17.152344 11.394531 16.542969 C 8.261719 15.933594 6 13.191406 6 10 C 6 6.808594 8.261719 4.066406 11.394531 3.457031 C 14.523438 2.847656 17.648438 4.542969 18.847656 7.5 L 12.667969 10 Z M 18.847656 12.5 "/>
<path style=" stroke:none;fill-rule:nonzero;fill:rgb(100%,84.313725%,0%);fill-opacity:1;" d="M 16 10 C 16 11.839844 14.507812 13.332031 12.667969 13.332031 C 10.824219 13.332031 9.332031 11.839844 9.332031 10 C 9.332031 8.160156 10.824219 6.667969 12.667969 6.667969 C 14.507812 6.667969 16 8.160156 16 10 Z M 16 10 "/>
</g>
</svg>
