<?xml version="1.0" encoding="UTF-8"?>
<svg xmlns="http://www.w3.org/2000/svg" xmlns:xlink="http://www.w3.org/1999/xlink" width="30pt" height="20pt" viewBox="0 0 30 20" version="1.1">
<g id="surface1">
<path style=" stroke:none;fill-rule:evenodd;fill:rgb(74.901961%,3.921569%,18.823529%);fill-opacity:1;" d="M 10 0 L 30 0 L 30 10.003906 L 10 10.003906 Z M 10 0 "/>
<path style=" stroke:none;fill-rule:evenodd;fill:rgb(0%,15.686275%,40.784314%);fill-opacity:1;" d="M 0 0 L 10 0 L 10 20 L 0 20 Z M 0 0 "/>
<path style=" stroke:none;fill-rule:evenodd;fill:rgb(100%,100%,100%);fill-opacity:1;" d="M 10.003906 10.007812 L 29.996094 10.007812 L 29.996094 20 L 10.003906 20 Z M 10.003906 10.007812 "/>
<path style="fill-rule:evenodd;fill:rgb(100%,79.215686%,0%);fill-opacity:1;stroke-width:1;stroke-linecap:butt;stroke-linejoin:miter;stroke:rgb(0%,15.686275%,40.784314%);stroke-opacity:1;stroke-miterlimit:4;" d="M 37.402344 117.285156 C 21.777344 126.074219 18.945312 129.6875 10.351562 136.328125 L 29.394531 136.816406 C 29.101562 138.574219 25 160.546875 24.609375 162.109375 C 38.867188 152.636719 45.703125 148.242188 65.234375 142.773438 C 72.949219 140.625 64.550781 132.714844 63.769531 130.664062 C 58.496094 133.007812 54.394531 135.839844 50.488281 139.355469 " transform="matrix(0.04,0,0,0.04,0,0)"/>
<path style="fill-rule:evenodd;fill:rgb(100%,79.215686%,0%);fill-opacity:1;stroke-width:1;stroke-linecap:butt;stroke-linejoin:miter;stroke:rgb(0%,15.686275%,40.784314%);stroke-opacity:1;stroke-miterlimit:4;" d="M 50.78125 139.160156 C 79.882812 112.5 176.269531 113.085938 203.125 139.941406 C 204.003906 139.648438 221.386719 110.351562 220.507812 110.644531 C 167.773438 73.730469 73.339844 80.078125 33.691406 109.179688 L 34.179688 110.9375 Z M 50.78125 139.160156 " transform="matrix(0.04,0,0,0.04,0,0)"/>
<path style="fill:none;stroke-width:3.124997;stroke-linecap:round;stroke-linejoin:round;stroke:rgb(0%,15.686275%,40.784314%);stroke-opacity:1;stroke-miterlimit:4;" d="M 55.761719 127.539062 C 55.566406 127.246094 47.265625 111.71875 47.265625 111.71875 L 60.9375 123.730469 L 57.714844 106.152344 L 66.699219 121.191406 " transform="matrix(0.04,0,0,0.04,0,0)"/>
<path style="fill:none;stroke-width:3.124997;stroke-linecap:round;stroke-linejoin:round;stroke:rgb(0%,15.686275%,40.784314%);stroke-opacity:1;stroke-miterlimit:4;" d="M 105.175781 100.78125 C 105.273438 96.09375 109.082031 95.703125 111.621094 96.582031 C 113.183594 97.753906 113.964844 101.5625 112.207031 103.710938 L 108.496094 106.835938 C 107.226562 108.496094 105.761719 110.253906 105.859375 112.304688 L 114.257812 112.011719 " transform="matrix(0.04,0,0,0.04,0,0)"/>
<path style="fill:none;stroke-width:3.124997;stroke-linecap:round;stroke-linejoin:round;stroke:rgb(0%,15.686275%,40.784314%);stroke-opacity:1;stroke-miterlimit:4;" d="M 120.3125 95.703125 C 118.847656 96.484375 118.261719 97.65625 117.96875 99.414062 C 117.675781 101.367188 117.773438 106.152344 118.261719 108.105469 C 118.554688 109.570312 118.945312 110.546875 120.019531 111.523438 C 121.289062 112.207031 122.753906 112.109375 123.535156 111.523438 C 124.609375 110.9375 125.292969 109.765625 125.683594 108.300781 C 126.269531 106.445312 126.171875 100.976562 125.78125 98.925781 C 125.390625 97.558594 124.902344 96.582031 123.925781 95.703125 C 122.558594 95.214844 121.09375 95.3125 120.3125 95.703125 Z M 120.3125 95.703125 " transform="matrix(0.04,0,0,0.04,0,0)"/>
<path style="fill:none;stroke-width:3.124996;stroke-linecap:round;stroke-linejoin:round;stroke:rgb(0%,15.686275%,40.784314%);stroke-opacity:1;stroke-miterlimit:4;" d="M 160.15625 100.292969 C 161.71875 99.609375 162.988281 98.828125 164.257812 97.265625 L 161.914062 113.769531 " transform="matrix(0.04,0,0,0.04,0,0)"/>
<path style="fill:none;stroke-width:3.125001;stroke-linecap:round;stroke-linejoin:round;stroke:rgb(0%,15.686275%,40.784314%);stroke-opacity:1;stroke-miterlimit:4;" d="M 172.363281 99.414062 C 172.558594 99.511719 180.273438 101.757812 180.273438 101.757812 C 176.5625 106.445312 173.4375 110.644531 170.898438 116.015625 " transform="matrix(0.04,0,0,0.04,0,0)"/>
<path style="fill:none;stroke-width:3.125004;stroke-linecap:round;stroke-linejoin:round;stroke:rgb(0%,15.686275%,40.784314%);stroke-opacity:1;stroke-miterlimit:4;" d="M 187.109375 103.515625 L 194.726562 107.324219 C 190.136719 110.546875 186.425781 114.648438 183.105469 119.433594 " transform="matrix(0.04,0,0,0.04,0,0)"/>
<path style="fill:none;stroke-width:3.124999;stroke-linecap:round;stroke-linejoin:round;stroke:rgb(0%,15.686275%,40.784314%);stroke-opacity:1;stroke-miterlimit:4;" d="M 206.542969 113.476562 L 201.464844 110.546875 L 197.070312 116.503906 C 200.195312 115.917969 202.34375 116.894531 203.320312 119.824219 C 203.90625 124.023438 201.269531 126.464844 198.535156 126.5625 C 195.605469 126.464844 194.140625 124.902344 193.75 121.582031 " transform="matrix(0.04,0,0,0.04,0,0)"/>
<path style="fill:none;stroke-width:3.125001;stroke-linecap:round;stroke-linejoin:round;stroke:rgb(0%,15.686275%,40.784314%);stroke-opacity:1;stroke-miterlimit:4;" d="M 70.898438 119.042969 C 70.898438 119.042969 71.386719 101.074219 71.582031 101.074219 C 71.679688 100.390625 81.738281 116.015625 81.738281 116.015625 " transform="matrix(0.04,0,0,0.04,0,0)"/>
<path style="fill:none;stroke-width:3.125001;stroke-linecap:round;stroke-linejoin:round;stroke:rgb(0%,15.686275%,40.784314%);stroke-opacity:1;stroke-miterlimit:4;" d="M 71.289062 112.597656 L 78.125 110.644531 " transform="matrix(0.04,0,0,0.04,0,0)"/>
<path style=" stroke:none;fill-rule:evenodd;fill:rgb(100%,79.215686%,0%);fill-opacity:1;" d="M 1.257812 11.527344 L 1.65625 11.53125 L 1.644531 9.804688 L 2.40625 11.539062 L 2.824219 11.539062 L 2.824219 9 L 2.417969 9.003906 L 2.425781 10.609375 L 1.710938 9.011719 L 1.265625 9.015625 Z M 1.257812 11.527344 "/>
<path style=" stroke:none;fill-rule:evenodd;fill:rgb(100%,79.215686%,0%);fill-opacity:1;" d="M 8.546875 9.804688 L 8.96875 9.804688 L 8.964844 9.582031 C 8.953125 9.4375 8.898438 9.253906 8.753906 9.117188 C 8.660156 9.011719 8.546875 8.953125 8.402344 8.914062 C 8.277344 8.863281 7.976562 8.878906 7.820312 8.964844 C 7.640625 9.066406 7.484375 9.246094 7.382812 9.539062 C 7.25 10.03125 7.308594 10.648438 7.394531 10.9375 C 7.496094 11.242188 7.65625 11.40625 7.867188 11.511719 C 8 11.554688 8.230469 11.589844 8.445312 11.53125 C 8.679688 11.441406 8.785156 11.289062 8.878906 11.125 C 8.9375 11.011719 9 10.796875 8.992188 10.5625 L 8.546875 10.566406 C 8.546875 10.652344 8.53125 10.753906 8.507812 10.839844 C 8.457031 10.960938 8.378906 11.042969 8.1875 11.042969 C 8.058594 11.042969 7.972656 10.988281 7.898438 10.894531 C 7.800781 10.800781 7.777344 10.589844 7.769531 10.53125 C 7.742188 10.261719 7.738281 9.996094 7.816406 9.714844 C 7.847656 9.601562 7.90625 9.496094 7.980469 9.445312 C 8.105469 9.378906 8.234375 9.386719 8.308594 9.410156 C 8.402344 9.4375 8.492188 9.507812 8.519531 9.605469 C 8.539062 9.691406 8.542969 9.746094 8.546875 9.804688 Z M 8.546875 9.804688 "/>
<path style=" stroke:none;fill-rule:evenodd;fill:rgb(100%,100%,100%);fill-opacity:1;" d="M 6.078125 11.609375 L 5.128906 10.871094 L 4.152344 11.605469 L 4.539062 10.453125 L 3.546875 9.722656 L 4.738281 9.753906 L 5.105469 8.566406 L 5.453125 9.734375 L 6.667969 9.730469 L 5.691406 10.425781 Z M 6.078125 11.609375 "/>
<path style="fill:none;stroke-width:1.25;stroke-linecap:butt;stroke-linejoin:miter;stroke:rgb(0%,0%,0%);stroke-opacity:1;stroke-miterlimit:4;" d="M 50.78125 139.257812 L 50.78125 139.257812 " transform="matrix(0.04,0,0,0.04,0,0)"/>
<path style="fill:none;stroke-width:1;stroke-linecap:butt;stroke-linejoin:miter;stroke:rgb(0%,15.686275%,40.784314%);stroke-opacity:1;stroke-miterlimit:4;" d="M 50.878906 139.160156 C 51.855469 140.234375 53.90625 139.941406 56.835938 139.453125 C 59.082031 139.160156 61.71875 139.0625 63.769531 138.867188 C 67.089844 139.0625 69.042969 139.941406 67.675781 141.503906 " transform="matrix(0.04,0,0,0.04,0,0)"/>
<path style="fill-rule:evenodd;fill:rgb(100%,79.215686%,0%);fill-opacity:1;stroke-width:1;stroke-linecap:butt;stroke-linejoin:miter;stroke:rgb(0%,15.686275%,40.784314%);stroke-opacity:1;stroke-miterlimit:4;" d="M 216.601562 118.261719 C 232.324219 126.953125 235.15625 130.664062 243.652344 137.304688 L 224.707031 137.695312 C 224.902344 139.453125 229.003906 161.523438 229.492188 163.085938 C 215.136719 153.515625 208.398438 149.21875 188.867188 143.75 C 181.054688 141.503906 189.746094 133.496094 190.527344 131.445312 C 195.800781 133.789062 200.292969 136.71875 203.515625 140.332031 " transform="matrix(0.04,0,0,0.04,0,0)"/>
<path style="fill:none;stroke-width:1.25;stroke-linecap:butt;stroke-linejoin:miter;stroke:rgb(0%,0%,0%);stroke-opacity:1;stroke-miterlimit:4;" d="M 203.320312 140.234375 L 203.320312 140.234375 " transform="matrix(0.04,0,0,0.04,0,0)"/>
<path style="fill:none;stroke-width:1;stroke-linecap:butt;stroke-linejoin:miter;stroke:rgb(0%,15.686275%,40.784314%);stroke-opacity:1;stroke-miterlimit:4;" d="M 203.027344 140.136719 C 201.269531 140.917969 199.414062 140.625 197.265625 140.429688 C 195.117188 140.039062 192.773438 139.746094 190.429688 139.648438 C 186.523438 139.648438 185.15625 141.308594 186.328125 142.480469 " transform="matrix(0.04,0,0,0.04,0,0)"/>
<path style="fill:none;stroke-width:2.249997;stroke-linecap:round;stroke-linejoin:round;stroke:rgb(0%,15.686275%,40.784314%);stroke-opacity:1;stroke-miterlimit:4;" d="M 129.394531 101.855469 C 132.421875 101.953125 135.351562 102.050781 135.351562 102.050781 " transform="matrix(0.04,0,0,0.04,0,0)"/>
<path style="fill:none;stroke-width:2.250005;stroke-linecap:round;stroke-linejoin:round;stroke:rgb(0%,15.686275%,40.784314%);stroke-opacity:1;stroke-miterlimit:4;" d="M 138.671875 97.949219 L 138.28125 112.304688 " transform="matrix(0.04,0,0,0.04,0,0)"/>
<path style="fill:none;stroke-width:2.250005;stroke-linecap:round;stroke-linejoin:round;stroke:rgb(0%,15.686275%,40.784314%);stroke-opacity:1;stroke-miterlimit:4;" d="M 144.921875 112.988281 C 145.800781 102.636719 144.433594 102.246094 139.453125 102.246094 " transform="matrix(0.04,0,0,0.04,0,0)"/>
<path style="fill:none;stroke-width:2.25;stroke-linecap:round;stroke-linejoin:round;stroke:rgb(0%,15.686275%,40.784314%);stroke-opacity:1;stroke-miterlimit:4;" d="M 131.738281 97.363281 L 131.542969 109.375 C 131.445312 111.621094 132.226562 112.304688 134.179688 112.304688 " transform="matrix(0.04,0,0,0.04,0,0)"/>
<path style="fill:none;stroke-width:3.125003;stroke-linecap:round;stroke-linejoin:round;stroke:rgb(0%,15.686275%,40.784314%);stroke-opacity:1;stroke-miterlimit:4;" d="M 80.566406 98.925781 L 87.988281 106.445312 L 89.355469 114.648438 " transform="matrix(0.04,0,0,0.04,0,0)"/>
<path style="fill:none;stroke-width:3.125003;stroke-linecap:round;stroke-linejoin:round;stroke:rgb(0%,15.686275%,40.784314%);stroke-opacity:1;stroke-miterlimit:4;" d="M 92.285156 96.386719 L 88.183594 106.835938 " transform="matrix(0.04,0,0,0.04,0,0)"/>
<path style="fill-rule:evenodd;fill:rgb(100%,79.215686%,0%);fill-opacity:1;stroke-width:1;stroke-linecap:butt;stroke-linejoin:miter;stroke:rgb(0%,15.686275%,40.784314%);stroke-opacity:1;stroke-miterlimit:4;" d="M 37.988281 387.402344 C 22.363281 378.90625 19.53125 375.390625 11.035156 368.847656 L 29.980469 368.457031 C 29.785156 366.699219 25.585938 345.117188 25.195312 343.652344 C 39.550781 352.929688 46.289062 357.226562 65.820312 362.597656 C 73.535156 364.648438 65.234375 372.363281 64.453125 374.414062 C 59.082031 372.070312 55.078125 369.335938 51.171875 365.917969 " transform="matrix(0.04,0,0,0.04,0,0)"/>
<path style="fill-rule:evenodd;fill:rgb(100%,79.215686%,0%);fill-opacity:1;stroke-width:1;stroke-linecap:butt;stroke-linejoin:miter;stroke:rgb(0%,15.686275%,40.784314%);stroke-opacity:1;stroke-miterlimit:4;" d="M 51.367188 366.113281 C 80.566406 392.1875 176.953125 391.601562 203.808594 365.234375 C 204.6875 365.527344 222.070312 394.238281 221.191406 393.945312 C 168.457031 430.078125 73.925781 423.828125 34.277344 395.3125 L 34.765625 393.652344 Z M 51.367188 366.113281 " transform="matrix(0.04,0,0,0.04,0,0)"/>
<path style="fill:none;stroke-width:1.236091;stroke-linecap:butt;stroke-linejoin:miter;stroke:rgb(0%,0%,0%);stroke-opacity:1;stroke-miterlimit:4;" d="M 50.78125 366.308594 L 50.78125 366.308594 " transform="matrix(0.04,0,0,0.04,0,0)"/>
<path style="fill:none;stroke-width:1;stroke-linecap:butt;stroke-linejoin:miter;stroke:rgb(0%,15.686275%,40.784314%);stroke-opacity:1;stroke-miterlimit:4;" d="M 51.464844 366.015625 C 52.539062 365.039062 54.589844 365.234375 57.421875 365.820312 C 59.765625 366.113281 62.304688 366.210938 64.355469 366.40625 C 67.773438 366.113281 69.726562 365.332031 68.261719 363.769531 " transform="matrix(0.04,0,0,0.04,0,0)"/>
<path style="fill-rule:evenodd;fill:rgb(100%,79.215686%,0%);fill-opacity:1;stroke-width:1;stroke-linecap:butt;stroke-linejoin:miter;stroke:rgb(0%,15.686275%,40.784314%);stroke-opacity:1;stroke-miterlimit:4;" d="M 217.285156 386.523438 C 232.910156 378.027344 235.742188 374.414062 244.335938 367.871094 L 225.292969 367.480469 C 225.488281 365.722656 229.6875 344.238281 230.078125 342.675781 C 215.820312 352.050781 208.984375 356.25 189.453125 361.621094 C 181.738281 363.769531 190.332031 371.582031 191.210938 373.632812 C 196.484375 371.289062 200.976562 368.554688 204.199219 364.941406 " transform="matrix(0.04,0,0,0.04,0,0)"/>
<path style="fill:none;stroke-width:1.236091;stroke-linecap:butt;stroke-linejoin:miter;stroke:rgb(0%,0%,0%);stroke-opacity:1;stroke-miterlimit:4;" d="M 203.320312 365.332031 L 203.320312 365.332031 " transform="matrix(0.04,0,0,0.04,0,0)"/>
<path style="fill:none;stroke-width:1;stroke-linecap:butt;stroke-linejoin:miter;stroke:rgb(0%,15.686275%,40.784314%);stroke-opacity:1;stroke-miterlimit:4;" d="M 203.613281 365.136719 C 201.855469 364.355469 200 364.746094 197.851562 364.84375 C 195.800781 365.136719 193.457031 365.527344 191.113281 365.625 C 187.207031 365.527344 185.742188 363.964844 187.011719 362.890625 " transform="matrix(0.04,0,0,0.04,0,0)"/>
<path style="fill:none;stroke-width:3.125;stroke-linecap:round;stroke-linejoin:round;stroke:rgb(0%,15.686275%,40.784314%);stroke-opacity:1;stroke-miterlimit:4;" d="M 126.757812 400.292969 C 128.027344 395.996094 130.859375 396.484375 133.398438 397.167969 C 135.449219 398.535156 135.742188 402.34375 133.789062 404.589844 L 130.175781 407.324219 C 128.710938 408.300781 127.148438 410.15625 127.246094 412.304688 L 135.9375 412.109375 " transform="matrix(0.04,0,0,0.04,0,0)"/>
<path style="fill:none;stroke-width:3.124998;stroke-linecap:round;stroke-linejoin:round;stroke:rgb(0%,15.686275%,40.784314%);stroke-opacity:1;stroke-miterlimit:4;" d="M 117.96875 399.707031 C 119.53125 398.828125 119.921875 398.535156 121.09375 396.777344 L 120.410156 412.402344 " transform="matrix(0.04,0,0,0.04,0,0)"/>
<path style="fill:none;stroke-width:3.125001;stroke-linecap:round;stroke-linejoin:miter;stroke:rgb(0%,15.686275%,40.784314%);stroke-opacity:1;stroke-miterlimit:4;" d="M 98.730469 392.871094 C 98.730469 392.96875 96.09375 409.179688 95.996094 409.765625 L 104.394531 411.035156 " transform="matrix(0.04,0,0,0.04,0,0)"/>
<path style="fill:none;stroke-width:3.124999;stroke-linecap:round;stroke-linejoin:round;stroke:rgb(0%,15.686275%,40.784314%);stroke-opacity:1;stroke-miterlimit:4;" d="M 88.867188 408.984375 L 91.503906 391.308594 " transform="matrix(0.04,0,0,0.04,0,0)"/>
<path style="fill:none;stroke-width:3.124999;stroke-linecap:round;stroke-linejoin:miter;stroke:rgb(0%,15.686275%,40.784314%);stroke-opacity:1;stroke-miterlimit:4;" d="M 58.789062 399.707031 L 65.234375 383.398438 C 67.1875 384.375 69.628906 384.765625 71.777344 386.621094 C 73.144531 388.964844 72.460938 393.652344 68.554688 394.140625 C 66.308594 393.847656 64.550781 392.773438 62.597656 391.894531 " transform="matrix(0.04,0,0,0.04,0,0)"/>
<path style="fill:none;stroke-width:3.084307;stroke-linecap:round;stroke-linejoin:round;stroke:rgb(0%,15.686275%,40.784314%);stroke-opacity:1;stroke-miterlimit:4;" d="M 163.867188 396.386719 C 165.136719 395.117188 166.015625 393.945312 166.796875 391.894531 L 170.019531 409.179688 " transform="matrix(0.04,0,0,0.04,0,0)"/>
<path style="fill:none;stroke-width:3.125003;stroke-linecap:round;stroke-linejoin:round;stroke:rgb(0%,15.686275%,40.784314%);stroke-opacity:1;stroke-miterlimit:4;" d="M 171.289062 391.40625 C 171.484375 391.308594 179.6875 388.476562 179.6875 388.476562 C 179.394531 394.726562 179.199219 400.78125 179.980469 406.347656 " transform="matrix(0.04,0,0,0.04,0,0)"/>
<path style="fill:none;stroke-width:3.124997;stroke-linecap:round;stroke-linejoin:round;stroke:rgb(0%,15.686275%,40.784314%);stroke-opacity:1;stroke-miterlimit:4;" d="M 184.082031 387.011719 L 192.480469 383.691406 C 192.089844 390.039062 191.699219 396.875 192.871094 401.660156 " transform="matrix(0.04,0,0,0.04,0,0)"/>
<path style="fill:none;stroke-width:3.124996;stroke-linecap:round;stroke-linejoin:round;stroke:rgb(0%,15.686275%,40.784314%);stroke-opacity:1;stroke-miterlimit:4;" d="M 204.003906 380.371094 C 203.125 378.808594 201.5625 378.222656 199.511719 378.808594 C 197.65625 380.46875 197.265625 381.738281 197.167969 383.789062 C 197.167969 386.328125 197.949219 388.867188 199.023438 391.113281 C 199.804688 393.164062 201.5625 394.628906 202.832031 395.019531 C 204.296875 395.507812 205.371094 395.410156 206.542969 394.335938 C 207.421875 393.261719 207.8125 391.40625 207.714844 389.941406 C 207.519531 388.085938 206.640625 386.328125 204.6875 385.351562 C 203.222656 384.765625 202.636719 384.570312 201.269531 385.15625 C 199.21875 386.425781 198.828125 388.574219 199.121094 390.917969 " transform="matrix(0.04,0,0,0.04,0,0)"/>
<path style="fill:none;stroke-width:2.249999;stroke-linecap:round;stroke-linejoin:round;stroke:rgb(0%,15.686275%,40.784314%);stroke-opacity:1;stroke-miterlimit:4;" d="M 137.988281 401.660156 C 141.015625 401.5625 143.945312 401.464844 143.945312 401.464844 " transform="matrix(0.04,0,0,0.04,0,0)"/>
<path style="fill:none;stroke-width:2.250001;stroke-linecap:round;stroke-linejoin:round;stroke:rgb(0%,15.686275%,40.784314%);stroke-opacity:1;stroke-miterlimit:4;" d="M 140.039062 397.070312 L 140.625 409.082031 C 140.722656 411.328125 141.503906 411.914062 143.457031 411.816406 " transform="matrix(0.04,0,0,0.04,0,0)"/>
<path style="fill:none;stroke-width:2.250004;stroke-linecap:round;stroke-linejoin:round;stroke:rgb(0%,15.686275%,40.784314%);stroke-opacity:1;stroke-miterlimit:4;" d="M 145.898438 396.972656 L 147.558594 411.328125 " transform="matrix(0.04,0,0,0.04,0,0)"/>
<path style="fill:none;stroke-width:2.250004;stroke-linecap:round;stroke-linejoin:round;stroke:rgb(0%,15.686275%,40.784314%);stroke-opacity:1;stroke-miterlimit:4;" d="M 154.296875 411.035156 C 153.613281 400.683594 152.246094 400.488281 147.265625 401.171875 " transform="matrix(0.04,0,0,0.04,0,0)"/>
<path style="fill:none;stroke-width:3.125001;stroke-linecap:round;stroke-linejoin:round;stroke:rgb(0%,15.686275%,40.784314%);stroke-opacity:1;stroke-miterlimit:4;" d="M 43.75 392.382812 C 43.75 392.382812 56.640625 378.90625 56.738281 379.003906 C 57.324219 378.515625 54.199219 397.558594 54.199219 397.558594 " transform="matrix(0.04,0,0,0.04,0,0)"/>
<path style="fill:none;stroke-width:3.125001;stroke-linecap:round;stroke-linejoin:round;stroke:rgb(0%,15.686275%,40.784314%);stroke-opacity:1;stroke-miterlimit:4;" d="M 48.4375 387.695312 L 55.175781 390.917969 " transform="matrix(0.04,0,0,0.04,0,0)"/>
<path style="fill:none;stroke-width:3.124999;stroke-linecap:round;stroke-linejoin:miter;stroke:rgb(0%,15.686275%,40.784314%);stroke-opacity:1;stroke-miterlimit:4;" d="M 72.753906 405.566406 C 72.753906 405.46875 77.441406 388.085938 77.441406 388.085938 C 79.492188 388.476562 81.640625 388.867188 83.496094 389.453125 C 84.863281 389.941406 86.914062 391.601562 86.132812 394.238281 C 85.742188 395.898438 84.960938 397.363281 83.789062 398.242188 " transform="matrix(0.04,0,0,0.04,0,0)"/>
<path style="fill:none;stroke-width:3.124999;stroke-linecap:round;stroke-linejoin:round;stroke:rgb(0%,15.686275%,40.784314%);stroke-opacity:1;stroke-miterlimit:4;" d="M 75.390625 396.582031 L 81.835938 398.144531 C 83.59375 398.828125 83.984375 400.292969 83.984375 400.390625 C 84.277344 401.855469 83.203125 407.910156 83.203125 407.910156 " transform="matrix(0.04,0,0,0.04,0,0)"/>
</g>
</svg>
