<?xml version="1.0" encoding="UTF-8"?>
<svg xmlns="http://www.w3.org/2000/svg" xmlns:xlink="http://www.w3.org/1999/xlink" width="33pt" height="20pt" viewBox="0 0 33 20" version="1.1">
<defs>
<clipPath id="clip1">
  <path d="M 0 20 L 0 0 L 33 3.75 L 25.382812 10 L 33 16.25 Z M 0 20 "/>
</clipPath>
<clipPath id="clip2">
  <path d="M 0 8 L 33 8 L 33 12 L 0 12 Z M 0 8 "/>
</clipPath>
<clipPath id="clip3">
  <path d="M 0 20 L 0 0 L 33 3.75 L 25.382812 10 L 33 16.25 Z M 0 20 "/>
</clipPath>
</defs>
<g id="surface1">
<g clip-path="url(#clip1)" clip-rule="nonzero">
<path style="fill-rule:nonzero;fill:rgb(100%,100%,100%);fill-opacity:1;stroke-width:6;stroke-linecap:butt;stroke-linejoin:miter;stroke:rgb(75.686275%,7.45098%,23.921569%);stroke-opacity:1;stroke-miterlimit:4;" d="M 39 4.5 L 0 0 L 0 24 L 39 19.5 " transform="matrix(0.846154,0,0,0.833333,0,0)"/>
</g>
<g clip-path="url(#clip2)" clip-rule="nonzero">
<g clip-path="url(#clip3)" clip-rule="nonzero">
<path style="fill:none;stroke-width:3;stroke-linecap:butt;stroke-linejoin:miter;stroke:rgb(75.686275%,7.45098%,23.921569%);stroke-opacity:1;stroke-miterlimit:4;" d="M 0 12 L 39 12 " transform="matrix(0.846154,0,0,0.833333,0,0)"/>
</g>
</g>
<path style=" stroke:none;fill-rule:nonzero;fill:rgb(0%,10.980392%,35.294118%);fill-opacity:1;" d="M 0 0 L 0 20 L 20.308594 10 Z M 0 0 "/>
<path style=" stroke:none;fill-rule:nonzero;fill:rgb(100%,100%,100%);fill-opacity:1;" d="M 10.082031 10 C 10.082031 12.070312 8.378906 13.75 6.277344 13.75 C 4.171875 13.75 2.46875 12.070312 2.46875 10 C 2.46875 7.929688 4.171875 6.25 6.277344 6.25 C 8.378906 6.25 10.082031 7.929688 10.082031 10 Z M 10.082031 10 "/>
<path style=" stroke:none;fill-rule:nonzero;fill:rgb(75.686275%,7.45098%,23.921569%);fill-opacity:1;" d="M 8.8125 10 C 8.8125 11.378906 7.675781 12.5 6.277344 12.5 C 4.875 12.5 3.738281 11.378906 3.738281 10 C 3.738281 8.621094 4.875 7.5 6.277344 7.5 C 7.675781 7.5 8.8125 8.621094 8.8125 10 Z M 8.8125 10 "/>
<path style=" stroke:none;fill-rule:nonzero;fill:rgb(100%,100%,100%);fill-opacity:1;" d="M 6.277344 4.167969 L 6.015625 4.960938 L 6.417969 5.089844 Z M 6.277344 4.167969 "/>
<path style=" stroke:none;fill-rule:nonzero;fill:rgb(100%,100%,100%);fill-opacity:1;" d="M 6.277344 4.167969 L 6.535156 4.960938 L 6.132812 5.089844 Z M 6.277344 4.167969 "/>
<path style=" stroke:none;fill-rule:nonzero;fill:rgb(100%,100%,100%);fill-opacity:1;" d="M 7.082031 4.742188 L 6.234375 4.742188 L 6.234375 5.160156 Z M 7.082031 4.742188 "/>
<path style=" stroke:none;fill-rule:nonzero;fill:rgb(100%,100%,100%);fill-opacity:1;" d="M 7.082031 4.742188 L 6.394531 5.230469 L 6.148438 4.894531 Z M 7.082031 4.742188 "/>
<path style=" stroke:none;fill-rule:nonzero;fill:rgb(100%,100%,100%);fill-opacity:1;" d="M 5.46875 4.742188 L 6.15625 5.230469 L 6.402344 4.894531 Z M 5.46875 4.742188 "/>
<path style=" stroke:none;fill-rule:nonzero;fill:rgb(100%,100%,100%);fill-opacity:1;" d="M 5.46875 4.742188 L 6.316406 4.742188 L 6.316406 5.160156 Z M 5.46875 4.742188 "/>
<path style=" stroke:none;fill-rule:nonzero;fill:rgb(100%,100%,100%);fill-opacity:1;" d="M 6.773438 5.675781 L 6.511719 4.882812 L 6.109375 5.011719 Z M 6.773438 5.675781 "/>
<path style=" stroke:none;fill-rule:nonzero;fill:rgb(100%,100%,100%);fill-opacity:1;" d="M 6.773438 5.675781 L 6.089844 5.183594 L 6.335938 4.847656 Z M 6.773438 5.675781 "/>
<path style=" stroke:none;fill-rule:nonzero;fill:rgb(100%,100%,100%);fill-opacity:1;" d="M 5.777344 5.675781 L 6.460938 5.183594 L 6.214844 4.847656 Z M 5.777344 5.675781 "/>
<path style=" stroke:none;fill-rule:nonzero;fill:rgb(100%,100%,100%);fill-opacity:1;" d="M 5.777344 5.675781 L 6.039062 4.882812 L 6.441406 5.011719 Z M 5.777344 5.675781 "/>
<path style=" stroke:none;fill-rule:nonzero;fill:rgb(100%,100%,100%);fill-opacity:1;" d="M 9.238281 4.949219 L 8.609375 5.503906 L 8.890625 5.816406 Z M 9.238281 4.949219 "/>
<path style=" stroke:none;fill-rule:nonzero;fill:rgb(100%,100%,100%);fill-opacity:1;" d="M 9.238281 4.949219 L 9.0625 5.761719 L 8.648438 5.675781 Z M 9.238281 4.949219 "/>
<path style=" stroke:none;fill-rule:nonzero;fill:rgb(100%,100%,100%);fill-opacity:1;" d="M 9.640625 5.84375 L 8.910156 5.425781 L 8.695312 5.789062 Z M 9.640625 5.84375 "/>
<path style=" stroke:none;fill-rule:nonzero;fill:rgb(100%,100%,100%);fill-opacity:1;" d="M 9.640625 5.84375 L 8.800781 5.929688 L 8.753906 5.515625 Z M 9.640625 5.84375 "/>
<path style=" stroke:none;fill-rule:nonzero;fill:rgb(100%,100%,100%);fill-opacity:1;" d="M 8.246094 5.050781 L 8.59375 5.8125 L 8.976562 5.640625 Z M 8.246094 5.050781 "/>
<path style=" stroke:none;fill-rule:nonzero;fill:rgb(100%,100%,100%);fill-opacity:1;" d="M 8.246094 5.050781 L 8.980469 5.46875 L 8.769531 5.828125 Z M 8.246094 5.050781 "/>
<path style=" stroke:none;fill-rule:nonzero;fill:rgb(100%,100%,100%);fill-opacity:1;" d="M 8.902344 6.5 L 9.078125 5.683594 L 8.664062 5.597656 Z M 8.902344 6.5 "/>
<path style=" stroke:none;fill-rule:nonzero;fill:rgb(100%,100%,100%);fill-opacity:1;" d="M 8.902344 6.5 L 8.558594 5.738281 L 8.945312 5.566406 Z M 8.902344 6.5 "/>
<path style=" stroke:none;fill-rule:nonzero;fill:rgb(100%,100%,100%);fill-opacity:1;" d="M 8.039062 6.007812 L 8.882812 5.921875 L 8.839844 5.507812 Z M 8.039062 6.007812 "/>
<path style=" stroke:none;fill-rule:nonzero;fill:rgb(100%,100%,100%);fill-opacity:1;" d="M 8.039062 6.007812 L 8.667969 5.453125 L 8.953125 5.761719 Z M 8.039062 6.007812 "/>
<path style=" stroke:none;fill-rule:nonzero;fill:rgb(100%,100%,100%);fill-opacity:1;" d="M 1.144531 7.082031 L 1.710938 7.703125 L 2.027344 7.421875 Z M 1.144531 7.082031 "/>
<path style=" stroke:none;fill-rule:nonzero;fill:rgb(100%,100%,100%);fill-opacity:1;" d="M 1.144531 7.082031 L 1.972656 7.257812 L 1.886719 7.664062 Z M 1.144531 7.082031 "/>
<path style=" stroke:none;fill-rule:nonzero;fill:rgb(100%,100%,100%);fill-opacity:1;" d="M 2.054688 6.683594 L 1.632812 7.40625 L 1.996094 7.613281 Z M 2.054688 6.683594 "/>
<path style=" stroke:none;fill-rule:nonzero;fill:rgb(100%,100%,100%);fill-opacity:1;" d="M 2.054688 6.683594 L 2.144531 7.511719 L 1.722656 7.558594 Z M 2.054688 6.683594 "/>
<path style=" stroke:none;fill-rule:nonzero;fill:rgb(100%,100%,100%);fill-opacity:1;" d="M 1.25 8.058594 L 2.023438 7.71875 L 1.851562 7.339844 Z M 1.25 8.058594 "/>
<path style=" stroke:none;fill-rule:nonzero;fill:rgb(100%,100%,100%);fill-opacity:1;" d="M 1.25 8.058594 L 1.671875 7.335938 L 2.039062 7.542969 Z M 1.25 8.058594 "/>
<path style=" stroke:none;fill-rule:nonzero;fill:rgb(100%,100%,100%);fill-opacity:1;" d="M 2.71875 7.414062 L 1.890625 7.238281 L 1.804688 7.648438 Z M 2.71875 7.414062 "/>
<path style=" stroke:none;fill-rule:nonzero;fill:rgb(100%,100%,100%);fill-opacity:1;" d="M 2.71875 7.414062 L 1.945312 7.75 L 1.773438 7.371094 Z M 2.71875 7.414062 "/>
<path style=" stroke:none;fill-rule:nonzero;fill:rgb(100%,100%,100%);fill-opacity:1;" d="M 2.222656 8.261719 L 2.132812 7.433594 L 1.714844 7.476562 Z M 2.222656 8.261719 "/>
<path style=" stroke:none;fill-rule:nonzero;fill:rgb(100%,100%,100%);fill-opacity:1;" d="M 2.222656 8.261719 L 1.65625 7.640625 L 1.972656 7.363281 Z M 2.222656 8.261719 "/>
<path style=" stroke:none;fill-rule:nonzero;fill:rgb(100%,100%,100%);fill-opacity:1;" d="M 3.3125 4.949219 L 3.488281 5.761719 L 3.902344 5.675781 Z M 3.3125 4.949219 "/>
<path style=" stroke:none;fill-rule:nonzero;fill:rgb(100%,100%,100%);fill-opacity:1;" d="M 3.3125 4.949219 L 3.941406 5.503906 L 3.660156 5.816406 Z M 3.3125 4.949219 "/>
<path style=" stroke:none;fill-rule:nonzero;fill:rgb(100%,100%,100%);fill-opacity:1;" d="M 4.304688 5.050781 L 3.570312 5.46875 L 3.78125 5.828125 Z M 4.304688 5.050781 "/>
<path style=" stroke:none;fill-rule:nonzero;fill:rgb(100%,100%,100%);fill-opacity:1;" d="M 4.304688 5.050781 L 3.960938 5.8125 L 3.574219 5.640625 Z M 4.304688 5.050781 "/>
<path style=" stroke:none;fill-rule:nonzero;fill:rgb(100%,100%,100%);fill-opacity:1;" d="M 2.910156 5.84375 L 3.75 5.929688 L 3.796875 5.515625 Z M 2.910156 5.84375 "/>
<path style=" stroke:none;fill-rule:nonzero;fill:rgb(100%,100%,100%);fill-opacity:1;" d="M 2.910156 5.84375 L 3.640625 5.425781 L 3.855469 5.789062 Z M 2.910156 5.84375 "/>
<path style=" stroke:none;fill-rule:nonzero;fill:rgb(100%,100%,100%);fill-opacity:1;" d="M 4.511719 6.007812 L 3.882812 5.453125 L 3.597656 5.761719 Z M 4.511719 6.007812 "/>
<path style=" stroke:none;fill-rule:nonzero;fill:rgb(100%,100%,100%);fill-opacity:1;" d="M 4.511719 6.007812 L 3.667969 5.921875 L 3.710938 5.507812 Z M 4.511719 6.007812 "/>
<path style=" stroke:none;fill-rule:nonzero;fill:rgb(100%,100%,100%);fill-opacity:1;" d="M 3.648438 6.5 L 3.992188 5.738281 L 3.605469 5.566406 Z M 3.648438 6.5 "/>
<path style=" stroke:none;fill-rule:nonzero;fill:rgb(100%,100%,100%);fill-opacity:1;" d="M 3.648438 6.5 L 3.472656 5.683594 L 3.886719 5.597656 Z M 3.648438 6.5 "/>
<path style=" stroke:none;fill-rule:nonzero;fill:rgb(100%,100%,100%);fill-opacity:1;" d="M 0.835938 3.617188 L 1.152344 4.390625 L 1.546875 4.234375 Z M 0.835938 3.617188 "/>
<path style=" stroke:none;fill-rule:nonzero;fill:rgb(100%,100%,100%);fill-opacity:1;" d="M 0.835938 3.617188 L 1.554688 4.058594 L 1.328125 4.410156 Z M 0.835938 3.617188 "/>
<path style=" stroke:none;fill-rule:nonzero;fill:rgb(100%,100%,100%);fill-opacity:1;" d="M 1.828125 3.546875 L 1.179688 4.082031 L 1.453125 4.402344 Z M 1.828125 3.546875 "/>
<path style=" stroke:none;fill-rule:nonzero;fill:rgb(100%,100%,100%);fill-opacity:1;" d="M 1.828125 3.546875 L 1.625 4.355469 L 1.214844 4.253906 Z M 1.828125 3.546875 "/>
<path style=" stroke:none;fill-rule:nonzero;fill:rgb(100%,100%,100%);fill-opacity:1;" d="M 0.597656 4.566406 L 1.441406 4.507812 L 1.410156 4.09375 Z M 0.597656 4.566406 "/>
<path style=" stroke:none;fill-rule:nonzero;fill:rgb(100%,100%,100%);fill-opacity:1;" d="M 0.597656 4.566406 L 1.242188 4.03125 L 1.515625 4.351562 Z M 0.597656 4.566406 "/>
<path style=" stroke:none;fill-rule:nonzero;fill:rgb(100%,100%,100%);fill-opacity:1;" d="M 2.203125 4.457031 L 1.484375 4.015625 L 1.257812 4.367188 Z M 2.203125 4.457031 "/>
<path style=" stroke:none;fill-rule:nonzero;fill:rgb(100%,100%,100%);fill-opacity:1;" d="M 2.203125 4.457031 L 1.355469 4.515625 L 1.328125 4.097656 Z M 2.203125 4.457031 "/>
<path style=" stroke:none;fill-rule:nonzero;fill:rgb(100%,100%,100%);fill-opacity:1;" d="M 1.4375 5.085938 L 1.644531 4.277344 L 1.234375 4.175781 Z M 1.4375 5.085938 "/>
<path style=" stroke:none;fill-rule:nonzero;fill:rgb(100%,100%,100%);fill-opacity:1;" d="M 1.4375 5.085938 L 1.121094 4.3125 L 1.515625 4.15625 Z M 1.4375 5.085938 "/>
<path style=" stroke:none;fill-rule:nonzero;fill:rgb(100%,100%,100%);fill-opacity:1;" d="M 3.382812 2.167969 L 3.410156 3.003906 L 3.832031 2.988281 Z M 3.382812 2.167969 "/>
<path style=" stroke:none;fill-rule:nonzero;fill:rgb(100%,100%,100%);fill-opacity:1;" d="M 3.382812 2.167969 L 3.902344 2.824219 L 3.570312 3.082031 Z M 3.382812 2.167969 "/>
<path style=" stroke:none;fill-rule:nonzero;fill:rgb(100%,100%,100%);fill-opacity:1;" d="M 4.335938 2.4375 L 3.542969 2.722656 L 3.6875 3.117188 Z M 4.335938 2.4375 "/>
<path style=" stroke:none;fill-rule:nonzero;fill:rgb(100%,100%,100%);fill-opacity:1;" d="M 4.335938 2.4375 L 3.863281 3.128906 L 3.515625 2.898438 Z M 4.335938 2.4375 "/>
<path style=" stroke:none;fill-rule:nonzero;fill:rgb(100%,100%,100%);fill-opacity:1;" d="M 2.824219 2.980469 L 3.636719 3.210938 L 3.753906 2.8125 Z M 2.824219 2.980469 "/>
<path style=" stroke:none;fill-rule:nonzero;fill:rgb(100%,100%,100%);fill-opacity:1;" d="M 2.824219 2.980469 L 3.621094 2.695312 L 3.765625 3.089844 Z M 2.824219 2.980469 "/>
<path style=" stroke:none;fill-rule:nonzero;fill:rgb(100%,100%,100%);fill-opacity:1;" d="M 4.371094 3.417969 L 3.851562 2.761719 L 3.519531 3.019531 Z M 4.371094 3.417969 "/>
<path style=" stroke:none;fill-rule:nonzero;fill:rgb(100%,100%,100%);fill-opacity:1;" d="M 4.371094 3.417969 L 3.558594 3.1875 L 3.675781 2.789062 Z M 4.371094 3.417969 "/>
<path style=" stroke:none;fill-rule:nonzero;fill:rgb(100%,100%,100%);fill-opacity:1;" d="M 3.4375 3.753906 L 3.910156 3.0625 L 3.558594 2.828125 Z M 3.4375 3.753906 "/>
<path style=" stroke:none;fill-rule:nonzero;fill:rgb(100%,100%,100%);fill-opacity:1;" d="M 3.4375 3.753906 L 3.40625 2.921875 L 3.832031 2.90625 Z M 3.4375 3.753906 "/>
<path style=" stroke:none;fill-rule:nonzero;fill:rgb(100%,100%,100%);fill-opacity:1;" d="M 1.144531 12.917969 L 1.972656 12.742188 L 1.886719 12.335938 Z M 1.144531 12.917969 "/>
<path style=" stroke:none;fill-rule:nonzero;fill:rgb(100%,100%,100%);fill-opacity:1;" d="M 1.144531 12.917969 L 1.710938 12.296875 L 2.027344 12.578125 Z M 1.144531 12.917969 "/>
<path style=" stroke:none;fill-rule:nonzero;fill:rgb(100%,100%,100%);fill-opacity:1;" d="M 1.25 11.941406 L 1.671875 12.664062 L 2.039062 12.457031 Z M 1.25 11.941406 "/>
<path style=" stroke:none;fill-rule:nonzero;fill:rgb(100%,100%,100%);fill-opacity:1;" d="M 1.25 11.941406 L 2.023438 12.28125 L 1.851562 12.660156 Z M 1.25 11.941406 "/>
<path style=" stroke:none;fill-rule:nonzero;fill:rgb(100%,100%,100%);fill-opacity:1;" d="M 2.054688 13.316406 L 2.144531 12.488281 L 1.722656 12.441406 Z M 2.054688 13.316406 "/>
<path style=" stroke:none;fill-rule:nonzero;fill:rgb(100%,100%,100%);fill-opacity:1;" d="M 2.054688 13.316406 L 1.632812 12.59375 L 1.996094 12.386719 Z M 2.054688 13.316406 "/>
<path style=" stroke:none;fill-rule:nonzero;fill:rgb(100%,100%,100%);fill-opacity:1;" d="M 2.222656 11.738281 L 1.65625 12.359375 L 1.972656 12.636719 Z M 2.222656 11.738281 "/>
<path style=" stroke:none;fill-rule:nonzero;fill:rgb(100%,100%,100%);fill-opacity:1;" d="M 2.222656 11.738281 L 2.132812 12.566406 L 1.714844 12.523438 Z M 2.222656 11.738281 "/>
<path style=" stroke:none;fill-rule:nonzero;fill:rgb(100%,100%,100%);fill-opacity:1;" d="M 2.71875 12.585938 L 1.945312 12.25 L 1.773438 12.628906 Z M 2.71875 12.585938 "/>
<path style=" stroke:none;fill-rule:nonzero;fill:rgb(100%,100%,100%);fill-opacity:1;" d="M 2.71875 12.585938 L 1.890625 12.761719 L 1.804688 12.351562 Z M 2.71875 12.585938 "/>
<path style=" stroke:none;fill-rule:nonzero;fill:rgb(100%,100%,100%);fill-opacity:1;" d="M 0.351562 10 L 1.15625 10.257812 L 1.289062 9.859375 Z M 0.351562 10 "/>
<path style=" stroke:none;fill-rule:nonzero;fill:rgb(100%,100%,100%);fill-opacity:1;" d="M 0.351562 10 L 1.15625 9.742188 L 1.289062 10.140625 Z M 0.351562 10 "/>
<path style=" stroke:none;fill-rule:nonzero;fill:rgb(100%,100%,100%);fill-opacity:1;" d="M 0.9375 9.207031 L 0.9375 10.039062 L 1.359375 10.039062 Z M 0.9375 9.207031 "/>
<path style=" stroke:none;fill-rule:nonzero;fill:rgb(100%,100%,100%);fill-opacity:1;" d="M 0.9375 9.207031 L 1.433594 9.882812 L 1.09375 10.125 Z M 0.9375 9.207031 "/>
<path style=" stroke:none;fill-rule:nonzero;fill:rgb(100%,100%,100%);fill-opacity:1;" d="M 0.9375 10.792969 L 1.433594 10.117188 L 1.09375 9.875 Z M 0.9375 10.792969 "/>
<path style=" stroke:none;fill-rule:nonzero;fill:rgb(100%,100%,100%);fill-opacity:1;" d="M 0.9375 10.792969 L 0.9375 9.960938 L 1.359375 9.960938 Z M 0.9375 10.792969 "/>
<path style=" stroke:none;fill-rule:nonzero;fill:rgb(100%,100%,100%);fill-opacity:1;" d="M 1.882812 9.511719 L 1.078125 9.769531 L 1.210938 10.164062 Z M 1.882812 9.511719 "/>
<path style=" stroke:none;fill-rule:nonzero;fill:rgb(100%,100%,100%);fill-opacity:1;" d="M 1.882812 9.511719 L 1.386719 10.183594 L 1.042969 9.9375 Z M 1.882812 9.511719 "/>
<path style=" stroke:none;fill-rule:nonzero;fill:rgb(100%,100%,100%);fill-opacity:1;" d="M 1.882812 10.488281 L 1.386719 9.816406 L 1.042969 10.0625 Z M 1.882812 10.488281 "/>
<path style=" stroke:none;fill-rule:nonzero;fill:rgb(100%,100%,100%);fill-opacity:1;" d="M 1.882812 10.488281 L 1.078125 10.230469 L 1.210938 9.835938 Z M 1.882812 10.488281 "/>
<path style=" stroke:none;fill-rule:nonzero;fill:rgb(100%,100%,100%);fill-opacity:1;" d="M 6.277344 15.832031 L 6.535156 15.039062 L 6.132812 14.910156 Z M 6.277344 15.832031 "/>
<path style=" stroke:none;fill-rule:nonzero;fill:rgb(100%,100%,100%);fill-opacity:1;" d="M 6.277344 15.832031 L 6.015625 15.039062 L 6.417969 14.910156 Z M 6.277344 15.832031 "/>
<path style=" stroke:none;fill-rule:nonzero;fill:rgb(100%,100%,100%);fill-opacity:1;" d="M 5.46875 15.257812 L 6.316406 15.257812 L 6.316406 14.839844 Z M 5.46875 15.257812 "/>
<path style=" stroke:none;fill-rule:nonzero;fill:rgb(100%,100%,100%);fill-opacity:1;" d="M 5.46875 15.257812 L 6.15625 14.769531 L 6.402344 15.105469 Z M 5.46875 15.257812 "/>
<path style=" stroke:none;fill-rule:nonzero;fill:rgb(100%,100%,100%);fill-opacity:1;" d="M 7.082031 15.257812 L 6.394531 14.769531 L 6.148438 15.105469 Z M 7.082031 15.257812 "/>
<path style=" stroke:none;fill-rule:nonzero;fill:rgb(100%,100%,100%);fill-opacity:1;" d="M 7.082031 15.257812 L 6.234375 15.257812 L 6.234375 14.839844 Z M 7.082031 15.257812 "/>
<path style=" stroke:none;fill-rule:nonzero;fill:rgb(100%,100%,100%);fill-opacity:1;" d="M 5.777344 14.324219 L 6.039062 15.117188 L 6.441406 14.988281 Z M 5.777344 14.324219 "/>
<path style=" stroke:none;fill-rule:nonzero;fill:rgb(100%,100%,100%);fill-opacity:1;" d="M 5.777344 14.324219 L 6.460938 14.816406 L 6.214844 15.152344 Z M 5.777344 14.324219 "/>
<path style=" stroke:none;fill-rule:nonzero;fill:rgb(100%,100%,100%);fill-opacity:1;" d="M 6.773438 14.324219 L 6.089844 14.816406 L 6.335938 15.152344 Z M 6.773438 14.324219 "/>
<path style=" stroke:none;fill-rule:nonzero;fill:rgb(100%,100%,100%);fill-opacity:1;" d="M 6.773438 14.324219 L 6.511719 15.117188 L 6.109375 14.988281 Z M 6.773438 14.324219 "/>
<path style=" stroke:none;fill-rule:nonzero;fill:rgb(100%,100%,100%);fill-opacity:1;" d="M 3.3125 15.050781 L 3.941406 14.496094 L 3.660156 14.183594 Z M 3.3125 15.050781 "/>
<path style=" stroke:none;fill-rule:nonzero;fill:rgb(100%,100%,100%);fill-opacity:1;" d="M 3.3125 15.050781 L 3.488281 14.238281 L 3.902344 14.324219 Z M 3.3125 15.050781 "/>
<path style=" stroke:none;fill-rule:nonzero;fill:rgb(100%,100%,100%);fill-opacity:1;" d="M 2.910156 14.15625 L 3.640625 14.574219 L 3.855469 14.210938 Z M 2.910156 14.15625 "/>
<path style=" stroke:none;fill-rule:nonzero;fill:rgb(100%,100%,100%);fill-opacity:1;" d="M 2.910156 14.15625 L 3.75 14.070312 L 3.796875 14.484375 Z M 2.910156 14.15625 "/>
<path style=" stroke:none;fill-rule:nonzero;fill:rgb(100%,100%,100%);fill-opacity:1;" d="M 4.304688 14.949219 L 3.960938 14.1875 L 3.574219 14.359375 Z M 4.304688 14.949219 "/>
<path style=" stroke:none;fill-rule:nonzero;fill:rgb(100%,100%,100%);fill-opacity:1;" d="M 4.304688 14.949219 L 3.570312 14.53125 L 3.78125 14.171875 Z M 4.304688 14.949219 "/>
<path style=" stroke:none;fill-rule:nonzero;fill:rgb(100%,100%,100%);fill-opacity:1;" d="M 3.648438 13.5 L 3.472656 14.316406 L 3.886719 14.402344 Z M 3.648438 13.5 "/>
<path style=" stroke:none;fill-rule:nonzero;fill:rgb(100%,100%,100%);fill-opacity:1;" d="M 3.648438 13.5 L 3.992188 14.261719 L 3.605469 14.433594 Z M 3.648438 13.5 "/>
<path style=" stroke:none;fill-rule:nonzero;fill:rgb(100%,100%,100%);fill-opacity:1;" d="M 4.511719 13.992188 L 3.667969 14.078125 L 3.710938 14.492188 Z M 4.511719 13.992188 "/>
<path style=" stroke:none;fill-rule:nonzero;fill:rgb(100%,100%,100%);fill-opacity:1;" d="M 4.511719 13.992188 L 3.882812 14.546875 L 3.597656 14.238281 Z M 4.511719 13.992188 "/>
<path style=" stroke:none;fill-rule:nonzero;fill:rgb(100%,100%,100%);fill-opacity:1;" d="M 3.382812 17.832031 L 3.902344 17.175781 L 3.570312 16.917969 Z M 3.382812 17.832031 "/>
<path style=" stroke:none;fill-rule:nonzero;fill:rgb(100%,100%,100%);fill-opacity:1;" d="M 3.382812 17.832031 L 3.410156 16.996094 L 3.832031 17.011719 Z M 3.382812 17.832031 "/>
<path style=" stroke:none;fill-rule:nonzero;fill:rgb(100%,100%,100%);fill-opacity:1;" d="M 2.824219 17.019531 L 3.621094 17.304688 L 3.765625 16.910156 Z M 2.824219 17.019531 "/>
<path style=" stroke:none;fill-rule:nonzero;fill:rgb(100%,100%,100%);fill-opacity:1;" d="M 2.824219 17.019531 L 3.636719 16.789062 L 3.753906 17.1875 Z M 2.824219 17.019531 "/>
<path style=" stroke:none;fill-rule:nonzero;fill:rgb(100%,100%,100%);fill-opacity:1;" d="M 4.335938 17.5625 L 3.863281 16.871094 L 3.515625 17.101562 Z M 4.335938 17.5625 "/>
<path style=" stroke:none;fill-rule:nonzero;fill:rgb(100%,100%,100%);fill-opacity:1;" d="M 4.335938 17.5625 L 3.542969 17.277344 L 3.6875 16.882812 Z M 4.335938 17.5625 "/>
<path style=" stroke:none;fill-rule:nonzero;fill:rgb(100%,100%,100%);fill-opacity:1;" d="M 3.4375 16.246094 L 3.40625 17.078125 L 3.832031 17.09375 Z M 3.4375 16.246094 "/>
<path style=" stroke:none;fill-rule:nonzero;fill:rgb(100%,100%,100%);fill-opacity:1;" d="M 3.4375 16.246094 L 3.910156 16.9375 L 3.558594 17.171875 Z M 3.4375 16.246094 "/>
<path style=" stroke:none;fill-rule:nonzero;fill:rgb(100%,100%,100%);fill-opacity:1;" d="M 4.371094 16.582031 L 3.558594 16.8125 L 3.675781 17.210938 Z M 4.371094 16.582031 "/>
<path style=" stroke:none;fill-rule:nonzero;fill:rgb(100%,100%,100%);fill-opacity:1;" d="M 4.371094 16.582031 L 3.851562 17.238281 L 3.519531 16.980469 Z M 4.371094 16.582031 "/>
<path style=" stroke:none;fill-rule:nonzero;fill:rgb(100%,100%,100%);fill-opacity:1;" d="M 0.835938 16.382812 L 1.554688 15.941406 L 1.328125 15.589844 Z M 0.835938 16.382812 "/>
<path style=" stroke:none;fill-rule:nonzero;fill:rgb(100%,100%,100%);fill-opacity:1;" d="M 0.835938 16.382812 L 1.152344 15.609375 L 1.546875 15.765625 Z M 0.835938 16.382812 "/>
<path style=" stroke:none;fill-rule:nonzero;fill:rgb(100%,100%,100%);fill-opacity:1;" d="M 0.597656 15.433594 L 1.242188 15.96875 L 1.515625 15.648438 Z M 0.597656 15.433594 "/>
<path style=" stroke:none;fill-rule:nonzero;fill:rgb(100%,100%,100%);fill-opacity:1;" d="M 0.597656 15.433594 L 1.441406 15.492188 L 1.410156 15.90625 Z M 0.597656 15.433594 "/>
<path style=" stroke:none;fill-rule:nonzero;fill:rgb(100%,100%,100%);fill-opacity:1;" d="M 1.828125 16.453125 L 1.625 15.644531 L 1.214844 15.746094 Z M 1.828125 16.453125 "/>
<path style=" stroke:none;fill-rule:nonzero;fill:rgb(100%,100%,100%);fill-opacity:1;" d="M 1.828125 16.453125 L 1.179688 15.917969 L 1.453125 15.597656 Z M 1.828125 16.453125 "/>
<path style=" stroke:none;fill-rule:nonzero;fill:rgb(100%,100%,100%);fill-opacity:1;" d="M 1.4375 14.914062 L 1.121094 15.6875 L 1.515625 15.84375 Z M 1.4375 14.914062 "/>
<path style=" stroke:none;fill-rule:nonzero;fill:rgb(100%,100%,100%);fill-opacity:1;" d="M 1.4375 14.914062 L 1.644531 15.722656 L 1.234375 15.824219 Z M 1.4375 14.914062 "/>
<path style=" stroke:none;fill-rule:nonzero;fill:rgb(100%,100%,100%);fill-opacity:1;" d="M 2.203125 15.542969 L 1.355469 15.484375 L 1.328125 15.902344 Z M 2.203125 15.542969 "/>
<path style=" stroke:none;fill-rule:nonzero;fill:rgb(100%,100%,100%);fill-opacity:1;" d="M 2.203125 15.542969 L 1.484375 15.984375 L 1.257812 15.632812 Z M 2.203125 15.542969 "/>
<path style=" stroke:none;fill-rule:nonzero;fill:rgb(100%,100%,100%);fill-opacity:1;" d="M 12.199219 10 L 11.394531 9.742188 L 11.261719 10.140625 Z M 12.199219 10 "/>
<path style=" stroke:none;fill-rule:nonzero;fill:rgb(100%,100%,100%);fill-opacity:1;" d="M 12.199219 10 L 11.394531 10.257812 L 11.261719 9.859375 Z M 12.199219 10 "/>
<path style=" stroke:none;fill-rule:nonzero;fill:rgb(100%,100%,100%);fill-opacity:1;" d="M 11.613281 10.792969 L 11.613281 9.960938 L 11.191406 9.960938 Z M 11.613281 10.792969 "/>
<path style=" stroke:none;fill-rule:nonzero;fill:rgb(100%,100%,100%);fill-opacity:1;" d="M 11.613281 10.792969 L 11.117188 10.117188 L 11.457031 9.875 Z M 11.613281 10.792969 "/>
<path style=" stroke:none;fill-rule:nonzero;fill:rgb(100%,100%,100%);fill-opacity:1;" d="M 11.613281 9.207031 L 11.117188 9.882812 L 11.457031 10.125 Z M 11.613281 9.207031 "/>
<path style=" stroke:none;fill-rule:nonzero;fill:rgb(100%,100%,100%);fill-opacity:1;" d="M 11.613281 9.207031 L 11.613281 10.039062 L 11.191406 10.039062 Z M 11.613281 9.207031 "/>
<path style=" stroke:none;fill-rule:nonzero;fill:rgb(100%,100%,100%);fill-opacity:1;" d="M 10.667969 10.488281 L 11.472656 10.230469 L 11.339844 9.835938 Z M 10.667969 10.488281 "/>
<path style=" stroke:none;fill-rule:nonzero;fill:rgb(100%,100%,100%);fill-opacity:1;" d="M 10.667969 10.488281 L 11.164062 9.816406 L 11.507812 10.0625 Z M 10.667969 10.488281 "/>
<path style=" stroke:none;fill-rule:nonzero;fill:rgb(100%,100%,100%);fill-opacity:1;" d="M 10.667969 9.511719 L 11.164062 10.183594 L 11.507812 9.9375 Z M 10.667969 9.511719 "/>
<path style=" stroke:none;fill-rule:nonzero;fill:rgb(100%,100%,100%);fill-opacity:1;" d="M 10.667969 9.511719 L 11.472656 9.769531 L 11.339844 10.164062 Z M 10.667969 9.511719 "/>
<path style=" stroke:none;fill-rule:nonzero;fill:rgb(100%,100%,100%);fill-opacity:1;" d="M 14.609375 8.554688 L 13.769531 8.4375 L 13.710938 8.847656 Z M 14.609375 8.554688 "/>
<path style=" stroke:none;fill-rule:nonzero;fill:rgb(100%,100%,100%);fill-opacity:1;" d="M 14.609375 8.554688 L 13.859375 8.945312 L 13.664062 8.578125 Z M 14.609375 8.554688 "/>
<path style=" stroke:none;fill-rule:nonzero;fill:rgb(100%,100%,100%);fill-opacity:1;" d="M 14.171875 9.433594 L 14.027344 8.613281 L 13.609375 8.683594 Z M 14.171875 9.433594 "/>
<path style=" stroke:none;fill-rule:nonzero;fill:rgb(100%,100%,100%);fill-opacity:1;" d="M 14.171875 9.433594 L 13.5625 8.855469 L 13.859375 8.554688 Z M 14.171875 9.433594 "/>
<path style=" stroke:none;fill-rule:nonzero;fill:rgb(100%,100%,100%);fill-opacity:1;" d="M 13.894531 7.871094 L 13.523438 8.621094 L 13.902344 8.804688 Z M 13.894531 7.871094 "/>
<path style=" stroke:none;fill-rule:nonzero;fill:rgb(100%,100%,100%);fill-opacity:1;" d="M 13.894531 7.871094 L 14.039062 8.691406 L 13.625 8.765625 Z M 13.894531 7.871094 "/>
<path style=" stroke:none;fill-rule:nonzero;fill:rgb(100%,100%,100%);fill-opacity:1;" d="M 13.1875 9.296875 L 13.933594 8.90625 L 13.734375 8.539062 Z M 13.1875 9.296875 "/>
<path style=" stroke:none;fill-rule:nonzero;fill:rgb(100%,100%,100%);fill-opacity:1;" d="M 13.1875 9.296875 L 13.558594 8.546875 L 13.9375 8.730469 Z M 13.1875 9.296875 "/>
<path style=" stroke:none;fill-rule:nonzero;fill:rgb(100%,100%,100%);fill-opacity:1;" d="M 13.015625 8.332031 L 13.625 8.910156 L 13.917969 8.613281 Z M 13.015625 8.332031 "/>
<path style=" stroke:none;fill-rule:nonzero;fill:rgb(100%,100%,100%);fill-opacity:1;" d="M 13.015625 8.332031 L 13.851562 8.449219 L 13.792969 8.859375 Z M 13.015625 8.332031 "/>
<path style=" stroke:none;fill-rule:nonzero;fill:rgb(100%,100%,100%);fill-opacity:1;" d="M 14.609375 11.445312 L 13.859375 11.054688 L 13.664062 11.421875 Z M 14.609375 11.445312 "/>
<path style=" stroke:none;fill-rule:nonzero;fill:rgb(100%,100%,100%);fill-opacity:1;" d="M 14.609375 11.445312 L 13.769531 11.5625 L 13.710938 11.152344 Z M 14.609375 11.445312 "/>
<path style=" stroke:none;fill-rule:nonzero;fill:rgb(100%,100%,100%);fill-opacity:1;" d="M 13.894531 12.128906 L 14.039062 11.308594 L 13.625 11.234375 Z M 13.894531 12.128906 "/>
<path style=" stroke:none;fill-rule:nonzero;fill:rgb(100%,100%,100%);fill-opacity:1;" d="M 13.894531 12.128906 L 13.523438 11.378906 L 13.902344 11.195312 Z M 13.894531 12.128906 "/>
<path style=" stroke:none;fill-rule:nonzero;fill:rgb(100%,100%,100%);fill-opacity:1;" d="M 14.171875 10.566406 L 13.5625 11.144531 L 13.859375 11.445312 Z M 14.171875 10.566406 "/>
<path style=" stroke:none;fill-rule:nonzero;fill:rgb(100%,100%,100%);fill-opacity:1;" d="M 14.171875 10.566406 L 14.027344 11.386719 L 13.609375 11.316406 Z M 14.171875 10.566406 "/>
<path style=" stroke:none;fill-rule:nonzero;fill:rgb(100%,100%,100%);fill-opacity:1;" d="M 13.015625 11.667969 L 13.851562 11.550781 L 13.792969 11.140625 Z M 13.015625 11.667969 "/>
<path style=" stroke:none;fill-rule:nonzero;fill:rgb(100%,100%,100%);fill-opacity:1;" d="M 13.015625 11.667969 L 13.625 11.089844 L 13.917969 11.386719 Z M 13.015625 11.667969 "/>
<path style=" stroke:none;fill-rule:nonzero;fill:rgb(100%,100%,100%);fill-opacity:1;" d="M 13.1875 10.703125 L 13.558594 11.453125 L 13.9375 11.269531 Z M 13.1875 10.703125 "/>
<path style=" stroke:none;fill-rule:nonzero;fill:rgb(100%,100%,100%);fill-opacity:1;" d="M 13.1875 10.703125 L 13.933594 11.09375 L 13.734375 11.460938 Z M 13.1875 10.703125 "/>
<path style=" stroke:none;fill-rule:nonzero;fill:rgb(100%,100%,100%);fill-opacity:1;" d="M 9.238281 15.050781 L 9.0625 14.238281 L 8.648438 14.324219 Z M 9.238281 15.050781 "/>
<path style=" stroke:none;fill-rule:nonzero;fill:rgb(100%,100%,100%);fill-opacity:1;" d="M 9.238281 15.050781 L 8.609375 14.496094 L 8.890625 14.183594 Z M 9.238281 15.050781 "/>
<path style=" stroke:none;fill-rule:nonzero;fill:rgb(100%,100%,100%);fill-opacity:1;" d="M 8.246094 14.949219 L 8.980469 14.53125 L 8.769531 14.171875 Z M 8.246094 14.949219 "/>
<path style=" stroke:none;fill-rule:nonzero;fill:rgb(100%,100%,100%);fill-opacity:1;" d="M 8.246094 14.949219 L 8.59375 14.1875 L 8.976562 14.359375 Z M 8.246094 14.949219 "/>
<path style=" stroke:none;fill-rule:nonzero;fill:rgb(100%,100%,100%);fill-opacity:1;" d="M 9.640625 14.15625 L 8.800781 14.070312 L 8.753906 14.484375 Z M 9.640625 14.15625 "/>
<path style=" stroke:none;fill-rule:nonzero;fill:rgb(100%,100%,100%);fill-opacity:1;" d="M 9.640625 14.15625 L 8.910156 14.574219 L 8.695312 14.210938 Z M 9.640625 14.15625 "/>
<path style=" stroke:none;fill-rule:nonzero;fill:rgb(100%,100%,100%);fill-opacity:1;" d="M 8.039062 13.992188 L 8.667969 14.546875 L 8.953125 14.238281 Z M 8.039062 13.992188 "/>
<path style=" stroke:none;fill-rule:nonzero;fill:rgb(100%,100%,100%);fill-opacity:1;" d="M 8.039062 13.992188 L 8.882812 14.078125 L 8.839844 14.492188 Z M 8.039062 13.992188 "/>
<path style=" stroke:none;fill-rule:nonzero;fill:rgb(100%,100%,100%);fill-opacity:1;" d="M 8.902344 13.5 L 8.558594 14.261719 L 8.945312 14.433594 Z M 8.902344 13.5 "/>
<path style=" stroke:none;fill-rule:nonzero;fill:rgb(100%,100%,100%);fill-opacity:1;" d="M 8.902344 13.5 L 9.078125 14.316406 L 8.664062 14.402344 Z M 8.902344 13.5 "/>
<path style=" stroke:none;fill-rule:nonzero;fill:rgb(100%,100%,100%);fill-opacity:1;" d="M 17.277344 10 L 16.46875 9.742188 L 16.339844 10.140625 Z M 17.277344 10 "/>
<path style=" stroke:none;fill-rule:nonzero;fill:rgb(100%,100%,100%);fill-opacity:1;" d="M 17.277344 10 L 16.46875 10.257812 L 16.339844 9.859375 Z M 17.277344 10 "/>
<path style=" stroke:none;fill-rule:nonzero;fill:rgb(100%,100%,100%);fill-opacity:1;" d="M 16.691406 10.792969 L 16.691406 9.960938 L 16.269531 9.960938 Z M 16.691406 10.792969 "/>
<path style=" stroke:none;fill-rule:nonzero;fill:rgb(100%,100%,100%);fill-opacity:1;" d="M 16.691406 10.792969 L 16.195312 10.117188 L 16.535156 9.875 Z M 16.691406 10.792969 "/>
<path style=" stroke:none;fill-rule:nonzero;fill:rgb(100%,100%,100%);fill-opacity:1;" d="M 16.691406 9.207031 L 16.195312 9.882812 L 16.535156 10.125 Z M 16.691406 9.207031 "/>
<path style=" stroke:none;fill-rule:nonzero;fill:rgb(100%,100%,100%);fill-opacity:1;" d="M 16.691406 9.207031 L 16.691406 10.039062 L 16.269531 10.039062 Z M 16.691406 9.207031 "/>
<path style=" stroke:none;fill-rule:nonzero;fill:rgb(100%,100%,100%);fill-opacity:1;" d="M 15.746094 10.488281 L 16.550781 10.230469 L 16.417969 9.835938 Z M 15.746094 10.488281 "/>
<path style=" stroke:none;fill-rule:nonzero;fill:rgb(100%,100%,100%);fill-opacity:1;" d="M 15.746094 10.488281 L 16.242188 9.816406 L 16.585938 10.0625 Z M 15.746094 10.488281 "/>
<path style=" stroke:none;fill-rule:nonzero;fill:rgb(100%,100%,100%);fill-opacity:1;" d="M 15.746094 9.511719 L 16.242188 10.183594 L 16.585938 9.9375 Z M 15.746094 9.511719 "/>
<path style=" stroke:none;fill-rule:nonzero;fill:rgb(100%,100%,100%);fill-opacity:1;" d="M 15.746094 9.511719 L 16.550781 9.769531 L 16.417969 10.164062 Z M 15.746094 9.511719 "/>
</g>
</svg>
