<?xml version="1.0" encoding="UTF-8"?>
<svg xmlns="http://www.w3.org/2000/svg" xmlns:xlink="http://www.w3.org/1999/xlink" width="21pt" height="20pt" viewBox="0 0 21 20" version="1.1">
<g id="surface1">
<rect x="0" y="0" width="21" height="20" style="fill:rgb(99.607843%,77.254902%,0%);fill-opacity:1;stroke:none;"/>
<path style=" stroke:none;fill-rule:evenodd;fill:rgb(100%,100%,100%);fill-opacity:1;" d="M 0 0.714844 L 20.320312 0.714844 L 20.320312 19.289062 L 0 19.289062 Z M 0 0.714844 "/>
<path style="fill-rule:evenodd;fill:rgb(0%,19.607843%,44.313725%);fill-opacity:1;stroke-width:0.340919;stroke-linecap:butt;stroke-linejoin:miter;stroke:rgb(100%,100%,100%);stroke-opacity:1;stroke-miterlimit:4;" d="M 224.615147 292.181959 C 224.615147 292.181959 231.574314 300.108333 234.492675 301.594528 C 237.467158 303.080723 251.834471 311.007097 251.834471 311.007097 L 251.385492 322.401259 C 251.385492 322.401259 242.967145 320.419665 233.538595 314.970283 C 224.110046 309.520902 215.691698 300.603731 215.691698 300.603731 L 225.625349 301.09913 Z M 224.615147 292.181959 " transform="matrix(0.0696024,0,0,0.0709656,-8.497043,-8.28956)"/>
<path style="fill-rule:evenodd;fill:rgb(0%,19.607843%,44.313725%);fill-opacity:1;stroke-width:0.340919;stroke-linecap:butt;stroke-linejoin:miter;stroke:rgb(100%,100%,100%);stroke-opacity:1;stroke-miterlimit:4;" d="M 282.0844 321.90586 C 282.0844 321.90586 293.477231 319.428869 301.390477 313.484088 C 309.303724 307.539308 317.216971 300.603731 317.216971 300.603731 L 307.844544 301.594528 L 308.798623 292.181959 C 308.798623 292.181959 301.390477 299.612934 296.451713 303.080723 C 291.456827 306.548511 281.074198 309.520902 281.074198 309.520902 Z M 282.0844 321.90586 " transform="matrix(0.0696024,0,0,0.0709656,-8.497043,-8.28956)"/>
<path style="fill-rule:evenodd;fill:rgb(0%,19.607843%,44.313725%);fill-opacity:1;stroke-width:0.340919;stroke-linecap:butt;stroke-linejoin:miter;stroke:rgb(100%,100%,100%);stroke-opacity:1;stroke-miterlimit:4;" d="M 241.956943 298.126739 C 241.956943 298.126739 254.808954 305.062316 265.752806 304.566918 C 276.640535 304.07152 290.502748 298.126739 290.502748 298.126739 L 291.007849 313.979487 C 291.007849 313.979487 275.630334 319.428869 266.201784 319.428869 C 256.829357 319.428869 241.956943 313.979487 241.956943 313.979487 Z M 241.956943 298.126739 " transform="matrix(0.0696024,0,0,0.0709656,-8.497043,-8.28956)"/>
<path style="fill:none;stroke-width:0.340919;stroke-linecap:butt;stroke-linejoin:miter;stroke:rgb(100%,100%,100%);stroke-opacity:1;stroke-miterlimit:4;" d="M 241.956943 313.869398 L 251.273248 322.236126 " transform="matrix(0.0696024,0,0,0.0709656,-8.497043,-8.28956)"/>
<path style="fill:none;stroke-width:0.340919;stroke-linecap:butt;stroke-linejoin:miter;stroke:rgb(100%,100%,100%);stroke-opacity:1;stroke-miterlimit:4;" d="M 290.783359 313.979487 L 282.140522 321.630639 " transform="matrix(0.0696024,0,0,0.0709656,-8.497043,-8.28956)"/>
<path style=" stroke:none;fill-rule:evenodd;fill:rgb(99.607843%,77.254902%,0%);fill-opacity:1;" d="M 8.570312 13.25 L 8.558594 13.878906 L 8.738281 13.945312 L 8.738281 13.695312 L 9.007812 13.707031 L 8.996094 14.003906 L 9.171875 14.035156 L 9.183594 13.375 L 9.027344 13.363281 L 9.007812 13.570312 L 8.75 13.546875 L 8.75 13.296875 Z M 8.570312 13.25 "/>
<path style=" stroke:none;fill-rule:evenodd;fill:rgb(99.607843%,77.254902%,0%);fill-opacity:1;" d="M 11.109375 14.035156 L 11.097656 13.316406 L 11.578125 13.171875 L 11.578125 13.328125 L 11.265625 13.433594 L 11.265625 13.582031 L 11.566406 13.464844 L 11.554688 13.636719 L 11.265625 13.707031 L 11.253906 13.878906 L 11.578125 13.75 L 11.589844 13.867188 Z M 11.109375 14.035156 "/>
<path style=" stroke:none;fill-rule:evenodd;fill:rgb(99.607843%,77.254902%,0%);fill-opacity:1;" d="M 9.597656 13.796875 C 9.597656 13.796875 9.585938 13.558594 9.746094 13.558594 C 9.902344 13.558594 9.921875 13.742188 9.910156 13.820312 C 9.902344 13.898438 9.878906 14.035156 9.765625 14.046875 C 9.65625 14.058594 9.609375 13.96875 9.597656 13.796875 Z M 9.753906 14.183594 C 9.957031 14.179688 10.058594 14.046875 10.058594 13.785156 C 10.058594 13.535156 9.878906 13.421875 9.746094 13.421875 C 9.609375 13.421875 9.441406 13.59375 9.441406 13.796875 C 9.441406 14.003906 9.53125 14.191406 9.753906 14.183594 Z M 9.753906 14.183594 "/>
<path style=" stroke:none;fill-rule:evenodd;fill:rgb(99.607843%,77.254902%,0%);fill-opacity:1;" d="M 10.503906 13.570312 L 10.503906 13.742188 C 10.503906 13.742188 10.738281 13.75 10.738281 13.636719 C 10.738281 13.523438 10.539062 13.582031 10.503906 13.570312 Z M 10.347656 14.183594 L 10.324219 13.476562 L 10.59375 13.457031 C 10.71875 13.445312 10.898438 13.5 10.886719 13.613281 C 10.875 13.730469 10.863281 13.832031 10.683594 13.855469 L 10.515625 13.878906 L 10.503906 14.171875 Z M 10.347656 14.183594 "/>
<path style="fill-rule:evenodd;fill:rgb(99.607843%,77.254902%,0%);fill-opacity:1;stroke-width:0.710249;stroke-linecap:butt;stroke-linejoin:miter;stroke:rgb(99.607843%,77.254902%,0%);stroke-opacity:1;stroke-miterlimit:10;" d="M 264.237503 211.432027 C 264.237503 211.432027 263.732402 265.925846 263.732402 269.889033 C 263.732402 273.85222 263.732402 279.301602 259.298739 278.310805 C 254.808954 277.320008 249.365089 277.320008 241.451842 271.870626 C 233.538595 266.421245 233.538595 265.430448 233.538595 265.430448 L 240.946741 262.953456 C 240.946741 262.953456 233.538595 261.467261 228.599831 257.999472 C 223.604945 254.531684 219.676383 251.559294 219.676383 251.559294 C 219.676383 251.559294 219.171282 258.990269 221.640664 264.439651 C 224.110046 269.889033 229.04881 274.843017 229.04881 274.843017 L 229.04881 268.402838 C 229.04881 268.402838 236.007977 274.843017 238.477359 276.329212 C 240.946741 277.815407 250.880392 281.778594 254.808954 284.255585 C 258.793638 286.732577 266.706885 293.668154 266.706885 293.668154 C 266.706885 293.668154 273.666052 285.74178 278.604816 283.760187 C 283.54358 281.778594 289.997647 278.806203 292.97213 276.82461 C 295.946613 274.843017 303.859859 267.412041 303.859859 267.412041 L 303.859859 275.833813 C 303.859859 275.833813 309.303724 269.393635 310.819027 264.935049 C 312.278207 260.476464 312.783308 252.550091 312.783308 252.550091 C 312.783308 252.550091 308.798623 255.522481 305.375162 257.008676 C 301.895578 258.494871 291.961928 262.458058 291.961928 262.458058 L 299.931297 264.439651 C 299.931297 264.439651 287.023164 274.347618 282.589501 276.329212 C 278.099716 278.310805 268.671166 279.301602 268.671166 274.347618 C 268.671166 269.393635 269.176267 211.432027 269.176267 211.432027 Z M 264.237503 211.432027 " transform="matrix(0.0696024,0,0,0.0709656,-8.497043,-8.28956)"/>
<path style="fill-rule:evenodd;fill:rgb(99.607843%,77.254902%,0%);fill-opacity:1;stroke-width:0.568199;stroke-linecap:square;stroke-linejoin:miter;stroke:rgb(99.607843%,77.254902%,0%);stroke-opacity:1;stroke-miterlimit:10;" d="M 264.742604 193.102288 L 268.222188 193.102288 L 268.222188 207.964238 L 264.742604 207.964238 Z M 264.742604 193.102288 " transform="matrix(0.0696024,0,0,0.0709656,-8.497043,-8.28956)"/>
<path style="fill-rule:evenodd;fill:rgb(99.607843%,77.254902%,0%);fill-opacity:1;stroke-width:0.710249;stroke-linecap:butt;stroke-linejoin:miter;stroke:rgb(100%,100%,100%);stroke-opacity:1;stroke-miterlimit:10;" d="M 239.992662 207.964238 C 239.992662 207.964238 253.854874 204.991848 266.706885 204.991848 C 279.615018 204.991848 292.97213 207.964238 292.97213 207.964238 L 292.97213 213.41362 C 292.97213 213.41362 275.125233 215.890612 264.742604 215.890612 C 254.359975 215.890612 239.487561 212.918222 239.487561 212.918222 Z M 239.992662 207.964238 " transform="matrix(0.0696024,0,0,0.0709656,-8.497043,-8.28956)"/>
<path style="fill-rule:evenodd;fill:rgb(99.607843%,77.254902%,0%);fill-opacity:1;stroke-width:0.710249;stroke-linecap:square;stroke-linejoin:miter;stroke:rgb(100%,100%,100%);stroke-opacity:1;stroke-miterlimit:10;" d="M 271.645649 205.487247 C 271.645649 208.789902 269.344634 211.432027 266.482396 211.432027 C 263.620158 211.432027 261.26302 208.789902 261.26302 205.487247 C 261.26302 202.184591 263.620158 199.542466 266.482396 199.542466 C 269.344634 199.542466 271.645649 202.184591 271.645649 205.487247 Z M 274.171153 205.26707 C 274.171153 209.780699 270.579325 213.41362 266.201784 213.41362 C 261.824243 213.41362 258.288537 209.780699 258.288537 205.26707 C 258.288537 200.75344 261.824243 197.065475 266.201784 197.065475 C 270.579325 197.065475 274.171153 200.75344 274.171153 205.26707 Z M 274.171153 205.26707 " transform="matrix(0.0696024,0,0,0.0709656,-8.497043,-8.28956)"/>
<path style=" stroke:none;fill-rule:evenodd;fill:rgb(99.607843%,77.254902%,0%);fill-opacity:1;" d="M 10.082031 2.390625 L 10.382812 3.136719 L 11.1875 3.210938 L 10.566406 3.726562 L 10.742188 4.515625 L 10.0625 4.085938 L 9.367188 4.496094 L 9.566406 3.714844 L 8.960938 3.183594 L 9.765625 3.128906 Z M 10.082031 2.390625 "/>
<path style=" stroke:none;fill-rule:evenodd;fill:rgb(99.607843%,77.254902%,0%);fill-opacity:1;" d="M 13.636719 3.273438 L 13.53125 4.074219 L 14.1875 4.546875 L 13.398438 4.679688 L 13.167969 5.453125 L 12.785156 4.734375 L 11.984375 4.738281 L 12.539062 4.160156 L 12.273438 3.390625 L 12.996094 3.753906 Z M 13.636719 3.273438 "/>
<path style=" stroke:none;fill-rule:evenodd;fill:rgb(99.607843%,77.254902%,0%);fill-opacity:1;" d="M 16.25 5.699219 L 15.816406 6.371094 L 16.207031 7.089844 L 15.441406 6.863281 L 14.90625 7.453125 L 14.867188 6.636719 L 14.140625 6.289062 L 14.882812 6.011719 L 14.972656 5.203125 L 15.472656 5.847656 Z M 16.25 5.699219 "/>
<path style=" stroke:none;fill-rule:evenodd;fill:rgb(99.607843%,77.254902%,0%);fill-opacity:1;" d="M 17.492188 9.238281 L 16.804688 9.636719 L 16.835938 10.457031 L 16.253906 9.898438 L 15.511719 10.179688 L 15.839844 9.433594 L 15.351562 8.785156 L 16.136719 8.882812 L 16.578125 8.203125 L 16.734375 9.011719 Z M 17.492188 9.238281 "/>
<path style=" stroke:none;fill-rule:evenodd;fill:rgb(99.607843%,77.254902%,0%);fill-opacity:1;" d="M 17.128906 12.917969 L 16.335938 12.949219 L 15.992188 13.691406 L 15.730469 12.921875 L 14.945312 12.820312 L 15.574219 12.316406 L 15.433594 11.511719 L 16.085938 11.96875 L 16.785156 11.570312 L 16.558594 12.359375 Z M 17.128906 12.917969 "/>
<path style=" stroke:none;fill-rule:evenodd;fill:rgb(99.607843%,77.254902%,0%);fill-opacity:1;" d="M 6.519531 3.265625 L 7.113281 3.804688 L 7.867188 3.511719 L 7.53125 4.253906 L 8.03125 4.878906 L 7.234375 4.800781 L 6.785156 5.480469 L 6.628906 4.6875 L 5.855469 4.484375 L 6.554688 4.074219 Z M 6.519531 3.265625 "/>
<path style=" stroke:none;fill-rule:evenodd;fill:rgb(99.607843%,77.254902%,0%);fill-opacity:1;" d="M 11.945312 15.4375 L 11.957031 16.246094 L 12.675781 16.613281 L 11.917969 16.863281 L 11.800781 17.660156 L 11.316406 17.007812 L 10.523438 17.132812 L 10.988281 16.480469 L 10.613281 15.757812 L 11.382812 16.007812 Z M 11.945312 15.4375 "/>
<path style=" stroke:none;fill-rule:evenodd;fill:rgb(99.607843%,77.254902%,0%);fill-opacity:1;" d="M 5.085938 5.289062 L 5.152344 6.09375 L 5.894531 6.410156 L 5.152344 6.714844 L 5.089844 7.519531 L 4.566406 6.898438 L 3.78125 7.078125 L 4.203125 6.394531 L 3.78125 5.703125 L 4.5625 5.898438 Z M 5.085938 5.289062 "/>
<path style=" stroke:none;fill-rule:evenodd;fill:rgb(99.607843%,77.254902%,0%);fill-opacity:1;" d="M 3.46875 8.207031 L 3.90625 8.882812 L 4.707031 8.800781 L 4.195312 9.425781 L 4.515625 10.164062 L 3.765625 9.875 L 3.160156 10.414062 L 3.210938 9.609375 L 2.515625 9.203125 L 3.296875 8.992188 Z M 3.46875 8.207031 "/>
<path style=" stroke:none;fill-rule:evenodd;fill:rgb(99.607843%,77.254902%,0%);fill-opacity:1;" d="M 3.34375 11.523438 L 4.042969 11.902344 L 4.707031 11.433594 L 4.558594 12.234375 L 5.1875 12.71875 L 4.394531 12.839844 L 4.121094 13.609375 L 3.78125 12.878906 L 2.984375 12.867188 L 3.566406 12.300781 Z M 3.34375 11.523438 "/>
<path style=" stroke:none;fill-rule:evenodd;fill:rgb(99.607843%,77.254902%,0%);fill-opacity:1;" d="M 5.925781 13.855469 L 6.140625 14.632812 L 6.929688 14.800781 L 6.257812 15.242188 L 6.347656 16.042969 L 5.714844 15.539062 L 4.980469 15.867188 L 5.265625 15.113281 L 4.722656 14.515625 L 5.527344 14.554688 Z M 5.925781 13.855469 "/>
<path style=" stroke:none;fill-rule:evenodd;fill:rgb(99.607843%,77.254902%,0%);fill-opacity:1;" d="M 9.355469 15.777344 L 8.992188 16.496094 L 9.457031 17.167969 L 8.667969 17.019531 L 8.195312 17.667969 L 8.074219 16.859375 L 7.320312 16.585938 L 8.03125 16.234375 L 8.035156 15.417969 L 8.597656 16.007812 Z M 9.355469 15.777344 "/>
<path style=" stroke:none;fill-rule:evenodd;fill:rgb(99.607843%,77.254902%,0%);fill-opacity:1;" d="M 14.175781 13.894531 L 14.578125 14.589844 L 15.382812 14.546875 L 14.839844 15.148438 L 15.125 15.902344 L 14.390625 15.574219 L 13.761719 16.082031 L 13.847656 15.28125 L 13.175781 14.839844 L 13.964844 14.671875 Z M 14.175781 13.894531 "/>
</g>
</svg>
